<svg id="Layer_1" data-name="Layer 1" xmlns="http://www.w3.org/2000/svg" xmlns:xlink="http://www.w3.org/1999/xlink" viewBox="0 0 167.9 183.3"><defs><style>.cls-1{fill:#00dfe9;}.cls-2{fill:#330155;opacity:0.17;isolation:isolate;}.cls-3{fill:url(#linear-gradient);}.cls-4{fill:#fdc8ce;}.cls-5{fill:url(#linear-gradient-2);}.cls-6{fill:url(#linear-gradient-3);}.cls-7{fill:url(#linear-gradient-4);}.cls-8{fill:url(#linear-gradient-5);}.cls-9{fill:#c86ae9;}.cls-10{fill:#8c30ce;}.cls-11{fill:url(#linear-gradient-6);}.cls-12{fill:url(#linear-gradient-7);}.cls-13{fill:url(#linear-gradient-8);}.cls-14{fill:none;}</style><linearGradient id="linear-gradient" x1="-2571.16" y1="2128.28" x2="-2575.07" y2="2211.41" gradientTransform="matrix(-1, 0, 0, 1, -2461.48, -2055.89)" gradientUnits="userSpaceOnUse"><stop offset="0" stop-color="#ed9adc"/><stop offset="1" stop-color="#faa9ea"/></linearGradient><linearGradient id="linear-gradient-2" x1="-2499.49" y1="2174.63" x2="-2522.15" y2="2061.35" gradientTransform="matrix(-1, 0, 0, 1, -2461.48, -2055.89)" gradientUnits="userSpaceOnUse"><stop offset="0" stop-color="#861eb2"/><stop offset="0.43" stop-color="#5f27bd"/><stop offset="0.9" stop-color="#3d065f"/></linearGradient><linearGradient id="linear-gradient-3" x1="-2569.14" y1="2130.53" x2="-2552.81" y2="2090.81" gradientTransform="matrix(-1, 0, 0, 1, -2461.48, -2055.89)" gradientUnits="userSpaceOnUse"><stop offset="0" stop-color="#8c30ce"/><stop offset="1" stop-color="#c86ae9"/></linearGradient><linearGradient id="linear-gradient-4" x1="-2564.56" y1="2076.88" x2="-2590.52" y2="2121.84" gradientTransform="matrix(-1, 0, 0, 1, -2461.48, -2055.89)" gradientUnits="userSpaceOnUse"><stop offset="0" stop-color="#ffaffb"/><stop offset="0.07" stop-color="#fca7fc"/><stop offset="0.22" stop-color="#f89cfe"/><stop offset="0.38" stop-color="#f798ff"/><stop offset="0.48" stop-color="#f091fc"/><stop offset="0.62" stop-color="#db7df2"/><stop offset="0.79" stop-color="#ba5de3"/><stop offset="0.99" stop-color="#8c30cd"/><stop offset="1" stop-color="#892dcc"/></linearGradient><linearGradient id="linear-gradient-5" x1="-2542.6" y1="2093.28" x2="-2565.37" y2="2132.72" gradientTransform="matrix(-1, 0, 0, 1, -2461.48, -2055.89)" gradientUnits="userSpaceOnUse"><stop offset="0" stop-color="#ffdab9"/><stop offset="0.64" stop-color="#fbb7dc"/><stop offset="1" stop-color="#faa9ea"/></linearGradient><linearGradient id="linear-gradient-6" x1="-2546.6" y1="2147.32" x2="-2506.53" y2="2086.6" xlink:href="#linear-gradient"/><linearGradient id="linear-gradient-7" x1="-2479.07" y1="2104.48" x2="-2528.04" y2="2175.55" gradientTransform="matrix(-1, 0, 0, 1, -2461.48, -2055.89)" gradientUnits="userSpaceOnUse"><stop offset="0" stop-color="#ffaafe"/><stop offset="0.24" stop-color="#f9a3fc"/><stop offset="0.6" stop-color="#e88ef5"/><stop offset="1" stop-color="#ce70ec"/></linearGradient><linearGradient id="linear-gradient-8" x1="-2493.06" y1="2090.58" x2="-2542.67" y2="2176.51" gradientTransform="matrix(-1, 0, 0, 1, -2461.48, -2055.89)" gradientUnits="userSpaceOnUse"><stop offset="0" stop-color="#f798ff"/><stop offset="0.16" stop-color="#f091fc"/><stop offset="0.39" stop-color="#db7df2"/><stop offset="0.67" stop-color="#ba5de3"/><stop offset="0.98" stop-color="#8c30cd"/><stop offset="1" stop-color="#892dcc"/></linearGradient></defs><path class="cls-1" d="M72.1,157.5a11.14,11.14,0,0,1-5.4-1.4L23.4,131a3,3,0,0,1-1.1-4.1,3.84,3.84,0,0,1,1.1-1.1l72-41.6a10.65,10.65,0,0,1,10.9,0l43.4,25.1a3.06,3.06,0,0,1,1.1,4.1,3.84,3.84,0,0,1-1.1,1.1l-72,41.6A12.54,12.54,0,0,1,72.1,157.5ZM100.8,85a9.56,9.56,0,0,0-4.4,1.1l-72,41.6a.84.84,0,0,0-.3,1.2l.3.3,43.4,25.1a9,9,0,0,0,8.7,0l72-41.6a.84.84,0,0,0,.3-1.2l-.3-.3L105.1,86.1a8.36,8.36,0,0,0-4.3-1.1Z"/><path class="cls-1" d="M105,143.8a9.13,9.13,0,0,1-8.5,0c-2.4-1.4-2.4-3.6,0-4.9a9.13,9.13,0,0,1,8.5,0C107.4,140.2,107.4,142.5,105,143.8Z"/><path class="cls-2" d="M14.9,126.2l2.7-1.5a3.05,3.05,0,0,1,2.3,0l3,1.8,45.6-9.1,21.4-12.3-2-1.2a1.42,1.42,0,0,1-.9-1.6,2.58,2.58,0,0,1,.9-.9l13.8-8.1c6.6-3.7,17-3.7,23.6,0l8.9,5c6.6,3.7,6.6,10,0,13.6L120.4,120a4.66,4.66,0,0,1-4.3,0l-2.3-1.4-21,12.2-16,26.6,3,1.8a.68.68,0,0,1,.5.9.54.54,0,0,1-.5.5l-2.7,1.5a3.05,3.05,0,0,1-2.3,0L14.9,127.6C14.2,127.3,14.2,126.7,14.9,126.2Z"/><path class="cls-3" d="M116.9,70.2v33.6a6.32,6.32,0,0,1-2.9,4.8l-5.9,3.4a1.82,1.82,0,0,1-2,.2,2.89,2.89,0,0,1-1.4-1.8l-2.2-35Z"/><path class="cls-4" d="M105.4,76.7v33.6a1.92,1.92,0,0,0,.9,1.8l-7.7-4.5a2.83,2.83,0,0,1-.9-1.8V72.2Z"/><path class="cls-5" d="M31.7,44.9l34.7,6.2c-5.5-1-9.4,2.7-9.6,9.8a29.61,29.61,0,0,0,5,15.9A33.56,33.56,0,0,0,70,85.4a.78.78,0,0,0,.7.3c6.4,3.9,11.8,2.3,13.8-3.2L73.4,115.7c-4.4,12.1-16.8,16.1-30.9,7.5-.5-.3-1.5-.7-2-1a67.77,67.77,0,0,1-19-19.1C14.3,92.2,9.5,78.2,9.7,66.7,10.1,51.5,19.5,42.9,31.7,44.9Z"/><path class="cls-6" d="M86.5,30.5c3.4-2,8.2-1.6,13.4,1.4,8.8,5.2,16,16.8,17.7,27.3a37.08,37.08,0,0,1,.3,4.7c-.2,5.5-2.2,9.6-5.4,11.4a12.3,12.3,0,0,1-7.1,1.4,20.27,20.27,0,0,1-8.1-2.9c-10-6-17.4-19.2-17.3-30.7C80.3,40.6,80.6,34.2,86.5,30.5Z"/><path class="cls-7" d="M102.4,21.4a7.26,7.26,0,0,1,.9-.5,16.3,16.3,0,0,1,10.4-1.5,23.28,23.28,0,0,1,10.6,4.8,36.22,36.22,0,0,1,9.3,11.4,31.75,31.75,0,0,1,3.6,14.5c-.3,9.1-4.8,13.8-8.8,16l-15.9,9.3c3.2-1.8,5.2-5.9,5.4-11.4.2-11.6-7.9-25.9-18-32-5.2-3.2-10-3.6-13.4-1.4Z"/><path class="cls-8" d="M85.8,34.7c3-1.6,7.1-1.4,11.8,1.4,8.9,5.4,16,17.9,15.9,27.9-.2,4.8-2,8.4-4.7,10.1L88.1,86.2,65,46.7Z"/><ellipse class="cls-9" cx="71.02" cy="69.62" rx="11.6" ry="20.2" transform="translate(-25.36 45.11) rotate(-30.16)"/><g id="Axonometric_Cylinder" data-name="Axonometric Cylinder"><ellipse id="Cylinder_face" data-name="Cylinder face" class="cls-9" cx="50.61" cy="81.47" rx="10.6" ry="18.5" transform="translate(-33.96 36.22) rotate(-30)"/><path id="Cylinder_face-2" data-name="Cylinder face-2" class="cls-10" d="M57.1,85.3c0,4.3-3,5.9-6.6,3.9a14.39,14.39,0,0,1-6.6-11.4c0-4.3,3-5.9,6.6-3.9A14.24,14.24,0,0,1,57.1,85.3Z"/><path id="Cylinder_body" data-name="Cylinder body" class="cls-10" d="M41.3,65.5,59.7,54.9c2.3-1.4,5.7-1.2,9.3.9,7.3,4.3,13.1,14.3,13.1,22.7,0,4.1-1.4,7.1-3.7,8.4L60,97.5c2.3-1.4,3.7-4.3,3.7-8.4,0-8.4-5.9-18.5-13.1-22.7C46.8,64.4,43.6,64.2,41.3,65.5Z"/></g><path class="cls-11" d="M91.5,81.5,77.7,115.8a32,32,0,0,0,2.1-11.4c.3-21.4-15.1-48-34.7-59.3a36.34,36.34,0,0,0-13-4.7l38,5.4A17.79,17.79,0,0,1,76.2,48c9.3,5.4,16.6,17.9,16.4,27.9A15.93,15.93,0,0,1,91.5,81.5Z"/><path class="cls-9" d="M8.1,65.3c.4-21.8,16.1-30.2,35.4-18.7s34.1,38.4,33.8,60C77,128.5,61.2,136.9,42,125.4S7.6,87.1,8.1,65.3ZM10.8,67c-.3,20,13.4,44.8,31.1,55.2S74,125.1,74.4,105,60.8,60.2,43.1,49.8,11.1,46.9,10.8,67Z"/><path class="cls-12" d="M42.1,125.9C30,118.5,21.9,107.4,17.5,99.3S7.5,78.7,7.7,64.9a.32.32,0,0,0,.3.3C7.6,87,22.9,114,42,125.3s35,3,35.4-18.7S62.5,58.1,43.6,46.7s-35-3-35.4,18.7a.32.32,0,0,1-.3-.3c.1-4.9.8-16.4,10.6-22.5,6.6-3.9,15.7-3.2,25.7,2.9,19.5,11.6,35,39.1,34.5,61.3-.2,10.7-4.1,18.4-10.2,21.8a18.1,18.1,0,0,1-11.6,2.3A32.63,32.63,0,0,1,42.1,125.9Z"/><path class="cls-13" d="M20,41.4A11.57,11.57,0,0,1,23.4,40h.2l.5-.2c3.7-1.2,8.3-1.4,15.1,1.2a58.35,58.35,0,0,1,9.6,5,55.37,55.37,0,0,1,10.8,9.6c10.7,11.2,21.3,31.9,20.7,49.7a34,34,0,0,1-3,14.1,19.14,19.14,0,0,1-2.8,4.4,23.24,23.24,0,0,0,2.8-4.4,18.27,18.27,0,0,1-3.9,5.5l1.2-1.2a18.31,18.31,0,0,1-4.2,3.7l.3-.2-.7.3-2.1,1.4c6.2-3.5,10.1-11.1,10.2-21.8C78.4,84.8,63,57.4,43.7,45.7c-10.1-6.1-19-6.6-25.6-2.9Z"/><path class="cls-10" d="M122.4,63.7l10.1-5.9a4.12,4.12,0,0,0,2-3.2c0-1.2-.9-1.5-2-.9l-10.1,5.7a4.12,4.12,0,0,0-2,3.2C120.4,64,121.2,64.4,122.4,63.7Z"/><rect class="cls-14" x="-4.4" y="5.9" width="155.5" height="169.8"/></svg>