<?xml version="1.0" encoding="utf-8"?>
<!-- Generator: Adobe Illustrator 25.0.1, SVG Export Plug-In . SVG Version: 6.00 Build 0)  -->
<svg version="1.1" id="Layer_1" xmlns="http://www.w3.org/2000/svg" xmlns:xlink="http://www.w3.org/1999/xlink" x="0px" y="0px"
	 viewBox="0 0 84.8 94.3" style="enable-background:new 0 0 84.8 94.3;" xml:space="preserve">
<style type="text/css">
	.st0{fill:#FFDDFF;}
	.st1{fill:url(#SVGID_1_);}
	.st2{fill:url(#SVGID_2_);}
	.st3{fill:url(#SVGID_3_);}
	.st4{fill:url(#SVGID_4_);}
	.st5{fill:url(#SVGID_5_);}
	.st6{fill:#FFAFF5;}
	.st7{fill:#EC84F6;}
	.st8{fill:#FECFC4;}
	.st9{fill:#FFE9BC;}
	.st10{fill:#711AA3;}
	.st11{fill:#962DCC;}
</style>
<g>
	<g id="Layer_2_1_">
		<g id="_0">
			<g id="_14">
				<g id="_14-2">
					<path class="st0" d="M70.3,41.6c-0.1-0.1-0.1-0.1-0.2-0.1l-1.9,0.2c-0.1,0-0.2,0.1-0.2,0.2c0,0.1,0,0.1,0,0.2l0.1,0.1l0.4,0.2
						L1,81.3c0,0.2,0.1,0.4,0.1,0.6l67.8-39.1l0.6,0.4c0.1,0,0.2,0,0.2,0c0.1,0,0.1-0.1,0.2-0.2l0.4-1.1
						C70.3,41.7,70.3,41.6,70.3,41.6z"/>
					
						<linearGradient id="SVGID_1_" gradientUnits="userSpaceOnUse" x1="27.4504" y1="786.2975" x2="39.5723" y2="807.2906" gradientTransform="matrix(1 0 0 1 0 -748)">
						<stop  offset="0" style="stop-color:#42D4ED;stop-opacity:0.9"/>
						<stop  offset="0.8436" style="stop-color:#9935CC"/>
					</linearGradient>
					<path class="st1" d="M58.8,22.1l-3.2,0.1c-0.7,0.1-1.3,0.5-1.8,1l-6.4,6.4c-0.4,0.4-0.8,0.7-1.3,0.8l-5.7,2
						c-0.6,0.2-1.1,0.6-1.5,1.1L31.6,42c-0.4,0.5-0.9,0.8-1.5,1l-7.3,2.5c-0.5,0.2-1,0.5-1.4,0.9l-5.6,5.8c-0.4,0.5-1,0.8-1.6,1
						l-5.9,1c-0.8,0.2-1.5,0.7-2,1.4L1,62.4v19.2l66.3-38.3V18.2l-3.7,0.7C63,19,62.4,19.3,62,19.8l-1.5,1.4
						C60.1,21.7,59.5,22,58.8,22.1z"/>
					
						<linearGradient id="SVGID_2_" gradientUnits="userSpaceOnUse" x1="32.3102" y1="793.4364" x2="42.1404" y2="810.4606" gradientTransform="matrix(1 0 0 1 0 -748)">
						<stop  offset="0" style="stop-color:#42D4ED;stop-opacity:0.9"/>
						<stop  offset="0.8436" style="stop-color:#9935CC"/>
					</linearGradient>
					<path class="st2" d="M65.6,29.1l-3,3.2c-0.5,0.5-1.1,0.9-1.8,1.1l-9.3,1.2c-0.6,0.1-1.1,0.4-1.5,0.8l-5.8,5.2
						c-0.3,0.3-0.8,0.6-1.2,0.7l-7.3,2.3c-0.6,0.2-1.2,0.6-1.6,1.1l-7.4,8.6c-0.4,0.4-0.8,0.8-1.3,1l-5.7,2.5
						c-0.4,0.2-0.8,0.5-1.2,0.9L12,64.4c-0.4,0.5-1,0.8-1.6,1L5,66.8v17.1l66.3-38.3V27.2L67.2,28C66.6,28.2,66,28.5,65.6,29.1z"/>
					
						<linearGradient id="SVGID_3_" gradientUnits="userSpaceOnUse" x1="38.0672" y1="799.6401" x2="46.0523" y2="813.469" gradientTransform="matrix(1 0 0 1 0 -748)">
						<stop  offset="0" style="stop-color:#42D4ED;stop-opacity:0.9"/>
						<stop  offset="0.8436" style="stop-color:#9935CC"/>
					</linearGradient>
					<path class="st3" d="M70.3,34.9L67,37.8c-0.4,0.4-0.9,0.7-1.5,0.8L62.3,39c-0.6,0.1-1.2,0.4-1.6,0.9l-4.5,4.2
						c-0.4,0.5-1,0.8-1.7,0.9l-5.4,0.5c-0.8,0.1-1.4,0.6-1.9,1.2l-9.8,11c-0.5,0.6-1.2,1-1.9,1.2l-3.9,0.4c-0.7,0.1-1.3,0.5-1.8,1
						l-7.1,7.5c-0.5,0.6-1.1,0.9-1.9,1.1l-4.2,0.3c-0.6,0-1.2,0.3-1.6,0.8l-5.4,4.9v11.6l66.3-38.3V33l-4.3,1.1
						C71.1,34.3,70.7,34.5,70.3,34.9z"/>
					
						<linearGradient id="SVGID_4_" gradientUnits="userSpaceOnUse" x1="43.331" y1="808.3326" x2="48.3792" y2="817.0751" gradientTransform="matrix(1 0 0 1 0 -748)">
						<stop  offset="0" style="stop-color:#42D4ED;stop-opacity:0.9"/>
						<stop  offset="0.8436" style="stop-color:#9935CC"/>
					</linearGradient>
					<path class="st4" d="M74.6,46.2l-3.3,2.9c-0.4,0.4-1,0.7-1.5,0.8l-3.1,0.3c-0.7,0.1-1.3,0.5-1.8,1L62.2,54
						c-0.5,0.6-1.2,1-2,1.1l-6.8-0.3c-0.8,0.1-1.6,0.5-2.1,1.2l-7.7,8.8c-0.5,0.6-1.2,1.1-2,1.2l-5.8,0.3c-0.7,0.1-1.4,0.5-1.8,1
						l-7.2,7.4c-0.4,0.5-1,0.8-1.7,1l-4.3,0.7c-0.6,0.1-1.1,0.4-1.5,0.8l-5.5,5V89l66.3-38.3v-6.5l-4.3,1.2
						C75.4,45.6,74.9,45.8,74.6,46.2z"/>
					
						<linearGradient id="SVGID_5_" gradientUnits="userSpaceOnUse" x1="50.0348" y1="817.3234" x2="51.8347" y2="820.4434" gradientTransform="matrix(1 0 0 1 0 -748)">
						<stop  offset="0" style="stop-color:#42D4ED"/>
						<stop  offset="1" style="stop-color:#9935CC"/>
					</linearGradient>
					<path class="st5" d="M78.5,54.4L76.2,56c-0.6,0.5-1.3,0.8-2.1,1.1L71.8,58c-1,0.4-1.9,0.9-2.7,1.5l-2,1.7
						c-0.8,0.7-1.6,1.2-2.6,1.5l-6.3,2.2c-0.9,0.3-1.7,0.8-2.4,1.3l-7.2,5.6c-0.8,0.7-1.8,1.2-2.8,1.5l-4.4,1.2
						c-1.1,0.3-2.1,0.9-3,1.6L32,81.3c-0.8,0.7-1.8,1.3-2.8,1.6l-2.5,0.7c-1.4,0.5-2.6,1.2-3.6,2.3l-4.7,4.5v1.2l66.3-38.3v-1
						L81,53.1C80.2,53.5,79.3,53.9,78.5,54.4z"/>
					<path class="st0" d="M21.5,93.2L1.3,81.5V32.7c0-0.1-0.1-0.3-0.3-0.3c-0.1,0-0.3,0.1-0.3,0.3v49c0,0.1,0,0.2,0.1,0.2l20.3,11.7
						h0.1C21.3,93.6,21.5,93.5,21.5,93.2C21.7,93.3,21.6,93.2,21.5,93.2L21.5,93.2z"/>
					<path class="st0" d="M2,32.4l-0.8-0.9c-0.1-0.1-0.1-0.1-0.2-0.1s-0.2,0.1-0.2,0.2L0,33.4c0,0.1,0,0.2,0.1,0.3
						c0.1,0,0.1,0.1,0.2,0.1h0.1l1.6-1c0.1,0,0.1-0.1,0.1-0.2C2.1,32.5,2.1,32.5,2,32.4z"/>
					<path class="st0" d="M22.6,93.9l-0.2-1.2c0-0.1-0.1-0.2-0.2-0.2s-0.2,0-0.3,0l-1.6,1.2c-0.1,0.1-0.1,0.2-0.1,0.3
						c0,0.1,0.1,0.1,0.1,0.2h0.1h1.8c0.1,0,0.2,0,0.2-0.1C22.5,94,22.6,94,22.6,93.9z"/>
					<g>
						<polygon class="st6" points="7.5,33.1 4,35.1 4,34.4 7.5,32.3 						"/>
						<polygon class="st6" points="10.8,31.2 8.5,32.5 8.5,31.8 10.8,30.4 						"/>
						<polygon class="st6" points="16.5,27.9 11.8,30.6 11.8,29.9 16.5,27.1 						"/>
						<polygon class="st6" points="23,24.2 17.6,27.3 17.6,26.5 23,23.4 						"/>
						<polygon class="st6" points="24,22.8 24,23.6 29.4,20.5 29.4,19.7 						"/>
						<polygon class="st6" points="32.7,18.6 30.4,19.9 30.4,19.1 32.7,17.8 						"/>
						<polygon class="st6" points="39.2,14.8 33.7,18 33.7,17.2 39.2,14.1 						"/>
						<polygon class="st6" points="9.5,34 4,37.2 4,36.4 9.5,33.3 						"/>
						<polygon class="st6" points="12.8,32.1 10.5,33.4 10.5,32.7 12.8,31.4 						"/>
						<polygon class="st6" points="16.5,29.9 13.8,31.5 13.8,30.8 16.5,29.2 						"/>
						<polygon class="st6" points="20.7,27.6 17.6,29.3 17.6,28.6 20.7,26.8 						"/>
						<polygon class="st6" points="21.7,26.2 21.7,27 26.7,24.1 26.7,23.3 						"/>
						<polygon class="st6" points="31,21.6 27.7,23.5 27.7,22.8 31,20.8 						"/>
						<polygon class="st6" points="39.2,16.9 32,21 32,20.2 39.2,16.1 						"/>
						<polygon class="st6" points="7.5,37.2 4,39.2 4,38.5 7.5,36.4 						"/>
						<polygon class="st6" points="10.8,35.3 8.5,36.6 8.5,35.9 10.8,34.5 						"/>
						<polygon class="st6" points="16.5,32 11.8,34.7 11.8,34 16.5,31.2 						"/>
						<polygon class="st6" points="23,28.3 17.6,31.4 17.6,30.6 23,27.5 						"/>
						<polygon class="st6" points="24,26.9 24,27.7 29.4,24.6 29.4,23.8 						"/>
						<polygon class="st6" points="32.7,22.7 30.4,24 30.4,23.2 32.7,21.9 						"/>
						<polygon class="st6" points="39.2,18.9 33.7,22.1 33.7,21.3 39.2,18.2 						"/>
						<polygon class="st6" points="9.5,38.1 4,41.3 4,40.5 9.5,37.4 						"/>
						<polygon class="st6" points="12.8,36.2 10.5,37.5 10.5,36.8 12.8,35.5 						"/>
						<polygon class="st6" points="16.5,34 13.8,35.6 13.8,34.9 16.5,33.3 						"/>
						<polygon class="st6" points="20.7,31.7 17.6,33.4 17.6,32.7 20.7,30.9 						"/>
						<polygon class="st6" points="21.7,30.3 21.7,31.1 26.7,28.2 26.7,27.4 						"/>
						<polygon class="st6" points="31,25.7 27.7,27.6 27.7,26.8 31,24.9 						"/>
						<polygon class="st6" points="39.2,21 32,25.1 32,24.3 39.2,20.2 						"/>
						<polygon class="st6" points="7.5,41.3 4,43.3 4,42.6 7.5,40.5 						"/>
						<polygon class="st6" points="10.8,39.4 8.5,40.7 8.5,40 10.8,38.6 						"/>
						<polygon class="st6" points="16.5,36.1 11.8,38.8 11.8,38 16.5,35.3 						"/>
						<polygon class="st6" points="23,32.4 17.6,35.5 17.6,34.7 23,31.6 						"/>
						<polygon class="st6" points="24,31 24,31.8 29.4,28.7 29.4,27.9 						"/>
						<polygon class="st6" points="32.7,26.8 30.4,28.1 30.4,27.3 32.7,26 						"/>
						<polygon class="st6" points="39.2,23 33.7,26.2 33.7,25.4 39.2,22.3 						"/>
						<polygon class="st6" points="9.5,42.2 4,45.4 4,44.6 9.5,41.5 						"/>
						<polygon class="st6" points="12.8,40.3 10.5,41.6 10.5,40.9 12.8,39.6 						"/>
						<polygon class="st6" points="16.5,38.1 13.8,39.7 13.8,39 16.5,37.4 						"/>
						<polygon class="st6" points="20.7,35.7 17.6,37.5 17.6,36.8 20.7,35 						"/>
						<polygon class="st6" points="21.7,34.4 21.7,35.2 26.7,32.3 26.7,31.5 						"/>
						<polygon class="st6" points="31,29.8 27.7,31.7 27.7,30.9 31,29 						"/>
						<polygon class="st6" points="39.2,25.1 32,29.2 32,28.4 39.2,24.3 						"/>
						<path class="st7" d="M47.5,14.8l-3.4-2.7c0.9-1.2,2-2.2,3.4-3V14.8z"/>
						<path class="st6" d="M47.5,14.8L42,19.7c-0.8-2,0-4.9,2.1-7.6L47.5,14.8z"/>
						<path class="st8" d="M47.5,14.8v5.7c-2.5,1.5-4.7,1.1-5.4-0.8L47.5,14.8z"/>
						<path class="st9" d="M47.5,14.8l4.6,0.7c-1,2.1-2.6,3.8-4.6,5V14.8z"/>
						<path class="st10" d="M47.5,14.8l5.4-4.9c0.6,1.5,0.3,3.4-0.8,5.6L47.5,14.8z"/>
						<path class="st11" d="M47.5,14.8V9.1C50,7.6,52.2,8,52.9,9.9L47.5,14.8z"/>
						<path class="st7" d="M61.5,6.6L59,13.2c-1,0.2-2-0.2-2.6-1L61.5,6.6z"/>
						<path class="st6" d="M61.5,6.6l2.8,3.5c-1.3,1.7-3.1,2.8-5.2,3.1L61.5,6.6z"/>
						<path class="st11" d="M61.5,6.6l-5,5.7c-1.5-1.9-0.5-6,2.3-9.1S65-0.9,66.6,1c0.6,0.9,0.9,2,0.7,3.1L61.5,6.6z"/>
						<path class="st8" d="M61.5,6.6l5.7-2.5c-0.4,2.3-1.4,4.3-3,6L61.5,6.6z"/>
					</g>
				</g>
			</g>
		</g>
	</g>
</g>
</svg>
