<svg xmlns="http://www.w3.org/2000/svg" viewBox="0 0 221.93 459.8"><defs><style>.cls-1,.cls-82{fill:#fff;}.cls-2,.cls-3{fill:#161922;}.cls-3{opacity:0.73;}.cls-4{fill:#bcbdc2;}.cls-5{fill:#bbbcc1;}.cls-6{fill:#babbc0;}.cls-7{fill:#b9babf;}.cls-8{fill:#b8b9bf;}.cls-9{fill:#b7b9be;}.cls-10{fill:#b6b8bd;}.cls-11{fill:#b5b7bc;}.cls-12{fill:#b4b6bb;}.cls-13{fill:#b3b5ba;}.cls-14{fill:#b2b4ba;}.cls-15{fill:#b1b3b9;}.cls-16{fill:#b0b2b8;}.cls-17{fill:#afb2b7;}.cls-18{fill:#aeb1b6;}.cls-19{fill:#adb0b5;}.cls-20{fill:#acafb5;}.cls-21{fill:#abaeb4;}.cls-22{fill:#aaadb3;}.cls-23{fill:#a9acb2;}.cls-24{fill:#a8abb1;}.cls-25{fill:#a7aab0;}.cls-26{fill:#a6a9af;}.cls-27{fill:#a5a8ae;}.cls-28{fill:#a4a7ad;}.cls-29{fill:#a3a6ac;}.cls-30{fill:#a2a5ab;}.cls-31{fill:#a1a4ab;}.cls-32{fill:#a0a3aa;}.cls-33{fill:#9fa2a9;}.cls-34{fill:#9ea2a8;}.cls-35{fill:#9da1a7;}.cls-36{fill:#9ca0a6;}.cls-37{fill:#9b9fa6;}.cls-38{fill:#9a9ea5;}.cls-39{fill:#999da4;}.cls-40{fill:#989ca3;}.cls-41{fill:#979ba2;}.cls-42{fill:#969ba1;}.cls-43{fill:#959aa1;}.cls-44{fill:#9499a0;}.cls-45{fill:#93989f;}.cls-46{fill:#92979e;}.cls-47{fill:#878b92;}.cls-48{fill:#898d94;}.cls-49{fill:#8b8f96;}.cls-50{fill:#8d9198;}.cls-51{fill:#8f939b;}.cls-52{fill:#91959d;}.cls-53{fill:#92989f;}.cls-54{fill:#949aa1;}.cls-55{fill:#969ca3;}.cls-56{fill:#989ea5;}.cls-57{fill:#9aa0a7;}.cls-58{fill:#9ca2aa;}.cls-59{fill:#9ea4ac;}.cls-60{fill:#a0a6ae;}.cls-61{fill:#a2a8b0;}.cls-62{fill:#a4aab2;}.cls-63{fill:#a6acb4;}.cls-64{fill:#a8afb6;}.cls-65{fill:#a9b1b9;}.cls-66{fill:#abb3bb;}.cls-67{fill:#adb5bd;}.cls-68{fill:#afb7bf;}.cls-69{fill:#b1b9c1;}.cls-70{fill:#b3bbc3;}.cls-71{fill:#b5bdc6;}.cls-72{fill:#b7bfc8;}.cls-73{fill:#b9c1ca;}.cls-74{fill:#bbc3cc;}.cls-75{fill:#bdc5ce;}.cls-76{fill:#bec8d0;}.cls-77{fill:#c0cad2;}.cls-78{fill:#c2ccd5;}.cls-79{fill:#c4ced7;}.cls-80{fill:#c6d0d9;}.cls-81{fill:#c8d2db;}.cls-82{opacity:0.02;}.cls-83{fill:#f1f2f2;}.cls-84{fill:#32de84;}</style></defs><g id="Layer_2" data-name="Layer 2"><g id="Layer_1-2" data-name="Layer 1"><rect class="cls-1" x="0.66" y="0.79" width="221.26" height="459.02" rx="24.71"/><rect class="cls-2" x="0.66" y="42.01" width="221.26" height="376.56"/><path class="cls-2" d="M133.2,22.77H83.89a2.4,2.4,0,0,1-2.41-2.4h0A2.41,2.41,0,0,1,83.89,18H133.2a2.41,2.41,0,0,1,2.41,2.41h0A2.4,2.4,0,0,1,133.2,22.77Z"/><rect class="cls-3" x="87.24" y="436.03" width="48.1" height="4.94" rx="2.47"/><path class="cls-4" d="M153.6,19.72a5,5,0,1,1-5-5A5,5,0,0,1,153.6,19.72Z"/><path class="cls-5" d="M145,16.15a5.06,5.06,0,0,1,3.57-1.47,5,5,0,0,1,5,4.95v.07a4.87,4.87,0,0,1-.62,2.23A5.18,5.18,0,0,1,152,23.1a5.24,5.24,0,0,1-1.89,1.19,5.09,5.09,0,0,1-1.66.3,4.89,4.89,0,0,1-2.1-.41,5.07,5.07,0,0,1-1.18-.73l0,0-.19-.17a5.17,5.17,0,0,1-1-1.5,4.91,4.91,0,0,1-.42-2.07A5,5,0,0,1,145,16.15Z"/><path class="cls-6" d="M145,16.15a5.06,5.06,0,0,1,3.57-1.47,5,5,0,0,1,5,4.87v.07a4.83,4.83,0,0,1-.66,2.16,5.6,5.6,0,0,1-.92,1.15,5.73,5.73,0,0,1-1.9,1.18,5.37,5.37,0,0,1-1.65.32,4.89,4.89,0,0,1-2.07-.36,4.32,4.32,0,0,1-1.16-.68l0,0-.18-.17a4.92,4.92,0,0,1-1-1.5,5.06,5.06,0,0,1-.4-2.07A5,5,0,0,1,145,16.15Z"/><path class="cls-7" d="M145,16.15a5.06,5.06,0,0,1,3.57-1.47,4.93,4.93,0,0,1,4.94,4.79.15.15,0,0,1,0,.07,4.45,4.45,0,0,1-.7,2.08,5.54,5.54,0,0,1-.93,1.13,5.71,5.71,0,0,1-1.9,1.17,5.34,5.34,0,0,1-1.64.35,5,5,0,0,1-2-.3,4.34,4.34,0,0,1-1.14-.63l0,0-.18-.15a5.05,5.05,0,0,1-1-1.5,5.12,5.12,0,0,1-.38-2.07A4.93,4.93,0,0,1,145,16.15Z"/><path class="cls-8" d="M145,16.15a5.06,5.06,0,0,1,3.57-1.47,4.9,4.9,0,0,1,4.91,4.71s0,.05,0,.07a4.43,4.43,0,0,1-.74,2,5.48,5.48,0,0,1-.95,1.1,5.88,5.88,0,0,1-1.9,1.17,5.6,5.6,0,0,1-1.63.37,5,5,0,0,1-2-.25,4.31,4.31,0,0,1-1.13-.58l0,0-.17-.14a5,5,0,0,1-1-1.51,5.11,5.11,0,0,1-.36-2.07A4.93,4.93,0,0,1,145,16.15Z"/><path class="cls-9" d="M145,16.15a5.06,5.06,0,0,1,3.57-1.47,4.87,4.87,0,0,1,4.88,4.63.13.13,0,0,0,0,.06,4.39,4.39,0,0,1-.78,1.95,6.09,6.09,0,0,1-1,1.08,6.88,6.88,0,0,1-1.91,1.16,6.39,6.39,0,0,1-1.62.39,5.16,5.16,0,0,1-2-.2,3.86,3.86,0,0,1-1.1-.53l0,0-.17-.13a5.19,5.19,0,0,1-1-1.52,5.26,5.26,0,0,1-.35-2.06A5,5,0,0,1,145,16.15Z"/><path class="cls-10" d="M145,16.15a5.06,5.06,0,0,1,3.57-1.47,4.83,4.83,0,0,1,4.84,4.55.13.13,0,0,1,0,.06,4.17,4.17,0,0,1-.81,1.88,6.46,6.46,0,0,1-1,1,6.88,6.88,0,0,1-1.91,1.16,6.23,6.23,0,0,1-1.61.4,5.24,5.24,0,0,1-2-.13,4.08,4.08,0,0,1-1.08-.48l0,0-.17-.12a5,5,0,0,1-.93-1.52,5.44,5.44,0,0,1-.33-2.06A5,5,0,0,1,145,16.15Z"/><path class="cls-11" d="M145,16.15a5.06,5.06,0,0,1,3.57-1.47,4.8,4.8,0,0,1,4.81,4.47.13.13,0,0,1,0,.06,4.17,4.17,0,0,1-.85,1.81,7.32,7.32,0,0,1-1,1,7.62,7.62,0,0,1-1.92,1.16,6.74,6.74,0,0,1-1.6.42,5.32,5.32,0,0,1-1.93-.08,3.74,3.74,0,0,1-1.06-.43l0,0a.91.91,0,0,1-.16-.11,4.84,4.84,0,0,1-.92-1.53,5.22,5.22,0,0,1-.31-2.05A4.93,4.93,0,0,1,145,16.15Z"/><path class="cls-12" d="M145,16.15a5.06,5.06,0,0,1,3.57-1.47,4.77,4.77,0,0,1,4.78,4.39s0,0,0,.06a4.25,4.25,0,0,1-.89,1.74,8,8,0,0,1-1,1A7.56,7.56,0,0,1,149.51,23a6.72,6.72,0,0,1-1.59.45,5.51,5.51,0,0,1-1.91,0,3.59,3.59,0,0,1-1-.37l0,0-.16-.1a5,5,0,0,1-.9-1.54,5.18,5.18,0,0,1-.29-2A4.93,4.93,0,0,1,145,16.15Z"/><path class="cls-13" d="M145,16.15a5.06,5.06,0,0,1,3.57-1.47A4.75,4.75,0,0,1,153.31,19s0,0,0,.06a4,4,0,0,1-.93,1.66,6.79,6.79,0,0,1-1,1,8.05,8.05,0,0,1-1.92,1.14,6.9,6.9,0,0,1-1.57.47,5.75,5.75,0,0,1-1.89,0,3.63,3.63,0,0,1-1-.33l0,0-.16-.08a4.9,4.9,0,0,1-.88-1.54,5.25,5.25,0,0,1-.27-2.06A4.87,4.87,0,0,1,145,16.15Z"/><path class="cls-14" d="M145,16.15a5.06,5.06,0,0,1,3.57-1.47,4.7,4.7,0,0,1,4.71,4.23.07.07,0,0,1,0,.05,4.15,4.15,0,0,1-1,1.6,7.9,7.9,0,0,1-1,1,9.48,9.48,0,0,1-1.93,1.13,7.42,7.42,0,0,1-1.56.49,6,6,0,0,1-1.86.08,3.66,3.66,0,0,1-1-.27l0,0-.16-.08a4.85,4.85,0,0,1-.86-1.54,5.22,5.22,0,0,1-.25-2A4.86,4.86,0,0,1,145,16.15Z"/><path class="cls-15" d="M145,16.15a5.06,5.06,0,0,1,3.57-1.47,4.67,4.67,0,0,1,4.68,4.15s0,0,0,.05a4.27,4.27,0,0,1-1,1.53,8.7,8.7,0,0,1-1.05.93,9.76,9.76,0,0,1-1.93,1.13,9.06,9.06,0,0,1-1.55.51,6.32,6.32,0,0,1-1.84.13,3.46,3.46,0,0,1-1-.22h0l-.15-.07a4.87,4.87,0,0,1-.85-1.55,5.4,5.4,0,0,1-.23-2.05A4.87,4.87,0,0,1,145,16.15Z"/><path class="cls-16" d="M145,16.15a5.06,5.06,0,0,1,3.57-1.47,4.65,4.65,0,0,1,4.65,4.07s0,0,0,.05a4.36,4.36,0,0,1-1,1.46,9.59,9.59,0,0,1-1.07.9,11.22,11.22,0,0,1-1.93,1.13,9,9,0,0,1-1.54.52,6.76,6.76,0,0,1-1.81.2,3.67,3.67,0,0,1-1-.17h0l-.15-.06a5,5,0,0,1-.83-1.56,5.17,5.17,0,0,1-.21-2A4.8,4.8,0,0,1,145,16.15Z"/><path class="cls-17" d="M145,16.15a5.06,5.06,0,0,1,3.57-1.47,4.63,4.63,0,0,1,4.62,4s0,0,0,0a4.61,4.61,0,0,1-1.08,1.39A12.12,12.12,0,0,1,151,21a12.34,12.34,0,0,1-1.94,1.11,9.06,9.06,0,0,1-1.53.55,7.23,7.23,0,0,1-1.78.25,3.68,3.68,0,0,1-.93-.12h0l-.15,0a5,5,0,0,1-.81-1.57,5.36,5.36,0,0,1-.19-2A4.79,4.79,0,0,1,145,16.15Z"/><path class="cls-18" d="M145,16.15a5.06,5.06,0,0,1,3.57-1.47,4.61,4.61,0,0,1,4.59,3.91l0,.05A4.86,4.86,0,0,1,152,20a12.27,12.27,0,0,1-1.1.85A13.18,13.18,0,0,1,149,21.92a10,10,0,0,1-1.52.57,7.83,7.83,0,0,1-1.75.3,4.21,4.21,0,0,1-.91-.06h0l-.13,0a4.71,4.71,0,0,1-.8-1.56,5.39,5.39,0,0,1-.17-2A4.78,4.78,0,0,1,145,16.15Z"/><path class="cls-19" d="M145,16.15a5.06,5.06,0,0,1,3.57-1.47,4.58,4.58,0,0,1,4.55,3.83l0,0a4.85,4.85,0,0,1-1.16,1.25,11.06,11.06,0,0,1-1.11.83,14.15,14.15,0,0,1-1.94,1.11,11.77,11.77,0,0,1-1.51.59,8,8,0,0,1-1.73.35,3.64,3.64,0,0,1-.88,0h0l-.13,0a4.81,4.81,0,0,1-.78-1.57,5.17,5.17,0,0,1-.15-2A4.75,4.75,0,0,1,145,16.15Z"/><path class="cls-20" d="M145,16.15a5.06,5.06,0,0,1,3.57-1.47,4.55,4.55,0,0,1,4.52,3.75.08.08,0,0,1,0,0,5.6,5.6,0,0,1-1.2,1.18c-.34.27-.72.55-1.12.81a17.69,17.69,0,0,1-2,1.1,11.12,11.12,0,0,1-1.49.61,9.84,9.84,0,0,1-1.7.41,5.45,5.45,0,0,1-.87,0h-.16A4.92,4.92,0,0,1,143.8,21a5.33,5.33,0,0,1-.13-2A4.71,4.71,0,0,1,145,16.15Z"/><path class="cls-21" d="M145,16.15a5.06,5.06,0,0,1,3.57-1.47,4.53,4.53,0,0,1,4.49,3.67l0,0a5.8,5.8,0,0,1-1.23,1.11q-.53.39-1.14.78a20.63,20.63,0,0,1-2,1.1,15.63,15.63,0,0,1-1.48.63,11.3,11.3,0,0,1-1.67.46,4.83,4.83,0,0,1-.85.09h-.15a4.84,4.84,0,0,1-.75-1.59,5.32,5.32,0,0,1-.12-2A4.72,4.72,0,0,1,145,16.15Z"/><path class="cls-22" d="M145,16.15a5.06,5.06,0,0,1,3.57-1.47A4.51,4.51,0,0,1,153,18.27l0,0a7.28,7.28,0,0,1-1.27,1c-.36.25-.75.5-1.16.76-.62.38-1.28.75-2,1.08a13.46,13.46,0,0,1-1.47.65,12.13,12.13,0,0,1-1.65.52,6.62,6.62,0,0,1-.82.15h-.15a4.71,4.71,0,0,1-.73-1.59,5.53,5.53,0,0,1-.1-2A4.74,4.74,0,0,1,145,16.15Z"/><path class="cls-23" d="M145,16.15a5.06,5.06,0,0,1,3.57-1.47,4.48,4.48,0,0,1,4.42,3.5s0,0,0,.05a9.26,9.26,0,0,1-1.31,1l-1.17.73c-.63.37-1.3.74-2,1.08-.49.25-1,.48-1.45.67-.62.25-1.17.44-1.63.58a8,8,0,0,1-.8.19h0l-.12,0a4.72,4.72,0,0,1-.71-1.6,5.48,5.48,0,0,1-.08-2A4.74,4.74,0,0,1,145,16.15Z"/><path class="cls-24" d="M145,16.15a5.06,5.06,0,0,1,3.57-1.47A4.48,4.48,0,0,1,153,18.1s0,0,0,0a11.53,11.53,0,0,1-1.34.91l-1.19.7c-.63.37-1.3.74-2,1.08-.48.25-1,.49-1.44.69s-1.15.47-1.6.63l-.78.24h0l-.12,0a4.77,4.77,0,0,1-.69-1.6,5.33,5.33,0,0,1-.06-2A4.68,4.68,0,0,1,145,16.15Z"/><path class="cls-25" d="M145,16.15a5.06,5.06,0,0,1,3.57-1.47A4.47,4.47,0,0,1,152.92,18l0,0a14.88,14.88,0,0,1-1.39.83l-1.2.69c-.63.35-1.3.72-2,1.07-.48.25-1,.5-1.43.71s-1.13.5-1.57.68l-.77.3h0l-.11,0a4.89,4.89,0,0,1-.68-1.61,5.49,5.49,0,0,1,0-2A4.71,4.71,0,0,1,145,16.15Z"/><path class="cls-25" d="M145,16.15a5.06,5.06,0,0,1,3.57-1.47,4.45,4.45,0,0,1,4.33,3.26s0,0,0,0c-.32.2-.81.44-1.42.76l-1.21.66-2,1.07-1.42.73-1.55.74-.74.34,0,0-.11,0a4.76,4.76,0,0,1-.66-1.61,5.49,5.49,0,0,1,0-2A4.72,4.72,0,0,1,145,16.15Z"/><path class="cls-26" d="M145,16.15a5.06,5.06,0,0,1,3.57-1.47,4.45,4.45,0,0,1,4.3,3.18s0,0,0,0l-1.46.69-1.23.63-2,1.06-1.41.76c-.58.3-1.1.56-1.52.79l-.72.4h0l-.11.06a4.78,4.78,0,0,1-.64-1.62,5.23,5.23,0,0,1,0-2A4.73,4.73,0,0,1,145,16.15Z"/><path class="cls-27" d="M145,16.15a5.06,5.06,0,0,1,3.57-1.47,4.41,4.41,0,0,1,4.26,3.1l0,0c-.36.13-.87.33-1.5.62-.4.18-.82.39-1.25.61-.65.33-1.32.69-2,1.05l-1.4.78c-.57.31-1.08.59-1.49.84s-.51.32-.7.45l0,0-.1.07a4.81,4.81,0,0,1-.63-1.63,5.43,5.43,0,0,1,0-2A4.67,4.67,0,0,1,145,16.15Z"/><path class="cls-28" d="M145,16.15a5.06,5.06,0,0,1,3.57-1.47,4.4,4.4,0,0,1,4.23,3l0,0a14.27,14.27,0,0,0-1.53.56c-.41.17-.83.37-1.26.58-.66.32-1.33.69-2,1.05l-1.39.79c-.56.33-1.06.63-1.47.91a7.29,7.29,0,0,0-.67.5l0,0a.39.39,0,0,0-.1.08,4.93,4.93,0,0,1-.62-1.64,5.38,5.38,0,0,1,.05-2A4.72,4.72,0,0,1,145,16.15Z"/><path class="cls-29" d="M145,16.15a5.06,5.06,0,0,1,3.57-1.47,4.42,4.42,0,0,1,4.2,2.94l0,0a10.11,10.11,0,0,0-1.57.49c-.42.16-.84.35-1.28.55-.66.32-1.34.68-2,1-.48.27-.94.55-1.38.81s-1,.66-1.44,1a5.62,5.62,0,0,0-.65.55l0,0-.09.09a4.76,4.76,0,0,1-.6-1.63,5.44,5.44,0,0,1,.07-2A4.67,4.67,0,0,1,145,16.15Z"/><path class="cls-30" d="M145,16.15a5.06,5.06,0,0,1,3.57-1.47,4.41,4.41,0,0,1,4.17,2.86l0,0a8.28,8.28,0,0,0-1.62.41c-.42.15-.85.34-1.28.54-.67.31-1.35.66-2,1-.47.27-.93.55-1.37.83a13.39,13.39,0,0,0-1.41,1,4.74,4.74,0,0,0-.64.61l0,0-.08.1a4.88,4.88,0,0,1-.59-1.64,5.66,5.66,0,0,1,.09-2A4.69,4.69,0,0,1,145,16.15Z"/><path class="cls-31" d="M145,16.15a5.06,5.06,0,0,1,3.57-1.47,4.39,4.39,0,0,1,4.13,2.78l0,0a7,7,0,0,0-1.65.34c-.42.14-.86.32-1.3.51-.67.3-1.35.66-2,1-.47.28-.93.57-1.36.86A11.48,11.48,0,0,0,145,21.29a5.26,5.26,0,0,0-.62.66l0,0a.76.76,0,0,0-.08.11,4.9,4.9,0,0,1-.57-1.65,5.38,5.38,0,0,1,.11-2A4.67,4.67,0,0,1,145,16.15Z"/><path class="cls-32" d="M145,16.15a5.06,5.06,0,0,1,3.57-1.47,4.41,4.41,0,0,1,4.1,2.7l0,0a5.76,5.76,0,0,0-1.69.27,13.41,13.41,0,0,0-1.32.49,17.1,17.1,0,0,0-2,1c-.47.28-.92.58-1.34.88a9.69,9.69,0,0,0-1.37,1.12,4.11,4.11,0,0,0-.59.71l0,0-.08.12a5.15,5.15,0,0,1-.55-1.66,5.4,5.4,0,0,1,.13-2A4.62,4.62,0,0,1,145,16.15Z"/><path class="cls-33" d="M145,16.15a5.06,5.06,0,0,1,3.57-1.47,4.41,4.41,0,0,1,4.07,2.62l0,0a5.57,5.57,0,0,0-1.72.21,10,10,0,0,0-1.33.46,14.05,14.05,0,0,0-2,1,14.71,14.71,0,0,0-1.33.9,8.84,8.84,0,0,0-1.34,1.17,4.56,4.56,0,0,0-.57.76l0,0a.57.57,0,0,1-.08.13,5,5,0,0,1-.53-1.66,5.79,5.79,0,0,1,.14-2A4.75,4.75,0,0,1,145,16.15Z"/><path class="cls-34" d="M145,16.15a5.06,5.06,0,0,1,3.57-1.47,4.42,4.42,0,0,1,4,2.54l0,0a4.92,4.92,0,0,0-1.76.14,8.79,8.79,0,0,0-1.35.43,14.05,14.05,0,0,0-2,1c-.47.29-.91.6-1.32.91A8.73,8.73,0,0,0,144.8,21a3.92,3.92,0,0,0-.55.82l0,0c0,.05,0,.09-.07.14a4.72,4.72,0,0,1-.52-1.67,5.56,5.56,0,0,1,.16-2A4.71,4.71,0,0,1,145,16.15Z"/><path class="cls-35" d="M145,16.15a5.06,5.06,0,0,1,3.57-1.47,4.46,4.46,0,0,1,4,2.46l0,0a4.74,4.74,0,0,0-1.81.07,8.09,8.09,0,0,0-1.36.41,11.46,11.46,0,0,0-2,1,11.77,11.77,0,0,0-1.31.93,8.27,8.27,0,0,0-1.29,1.29,4.11,4.11,0,0,0-.52.86l0,0-.07.15a5,5,0,0,1-.5-1.67,5.53,5.53,0,0,1,.18-2A4.74,4.74,0,0,1,145,16.15Z"/><path class="cls-36" d="M145,16.15a5.06,5.06,0,0,1,3.57-1.47,4.44,4.44,0,0,1,4,2.38l-.05,0a4.35,4.35,0,0,0-1.84,0,7.55,7.55,0,0,0-1.37.38,10.85,10.85,0,0,0-2,1,12.85,12.85,0,0,0-1.3,1,7.45,7.45,0,0,0-1.26,1.34,4.94,4.94,0,0,0-.51.92s0,0,0,0,0,.11-.07.17a5,5,0,0,1-.48-1.68,5.54,5.54,0,0,1,.2-2A4.7,4.7,0,0,1,145,16.15Z"/><path class="cls-37" d="M145,16.15a5.06,5.06,0,0,1,3.57-1.47A4.48,4.48,0,0,1,152.5,17l-.05,0a4.39,4.39,0,0,0-1.88-.08,8.89,8.89,0,0,0-1.39.36,10,10,0,0,0-2,1,10.66,10.66,0,0,0-1.29,1,7.14,7.14,0,0,0-1.23,1.39,4.65,4.65,0,0,0-.49,1s0,0,0,0a1.77,1.77,0,0,0-.06.17,4.72,4.72,0,0,1-.47-1.68,5.55,5.55,0,0,1,.22-2A4.67,4.67,0,0,1,145,16.15Z"/><path class="cls-38" d="M145,16.15a5.06,5.06,0,0,1,3.57-1.47,4.5,4.5,0,0,1,3.91,2.22h-.05a4.2,4.2,0,0,0-1.92-.14,7.23,7.23,0,0,0-1.41.34,9,9,0,0,0-2,1,9.75,9.75,0,0,0-1.28,1,6.76,6.76,0,0,0-1.21,1.45,5.35,5.35,0,0,0-.46,1s0,0,0,.05l-.06.18a5,5,0,0,1-.45-1.69,5.47,5.47,0,0,1,.24-2A4.71,4.71,0,0,1,145,16.15Z"/><path class="cls-39" d="M145,16.15a5.06,5.06,0,0,1,3.57-1.47,4.53,4.53,0,0,1,3.88,2.14h-.06a4.13,4.13,0,0,0-1.95-.21,6.93,6.93,0,0,0-1.42.31,8,8,0,0,0-2,1,8.47,8.47,0,0,0-1.27,1,6.6,6.6,0,0,0-1.18,1.5,4.73,4.73,0,0,0-.44,1.07.06.06,0,0,0,0,0l-.06.2a5,5,0,0,1-.43-1.7,5.27,5.27,0,0,1,.26-2A4.75,4.75,0,0,1,145,16.15Z"/><path class="cls-40" d="M145,16.15a5.06,5.06,0,0,1,3.57-1.47,4.56,4.56,0,0,1,3.84,2.06h-.05a4,4,0,0,0-2-.28,6.46,6.46,0,0,0-1.44.29,7.62,7.62,0,0,0-2,1,7.86,7.86,0,0,0-1.26,1,6.75,6.75,0,0,0-1.15,1.56,4.76,4.76,0,0,0-.42,1.12.11.11,0,0,0,0,.05,1.6,1.6,0,0,0-.05.21,4.88,4.88,0,0,1-.42-1.7,5.23,5.23,0,0,1,.28-2A4.69,4.69,0,0,1,145,16.15Z"/><path class="cls-41" d="M145,16.15a5.06,5.06,0,0,1,3.57-1.47,4.65,4.65,0,0,1,3.81,2l-.06,0a4,4,0,0,0-2-.35,6.59,6.59,0,0,0-1.45.26,7.83,7.83,0,0,0-3.28,2,6.27,6.27,0,0,0-1.12,1.62,4.9,4.9,0,0,0-.4,1.17l0,.05c0,.07,0,.14,0,.21a4.81,4.81,0,0,1-.4-1.7,5.24,5.24,0,0,1,.3-2A4.92,4.92,0,0,1,145,16.15Z"/><path class="cls-42" d="M145,16.15a5.06,5.06,0,0,1,3.57-1.47,4.7,4.7,0,0,1,3.78,1.89l-.06,0a4.09,4.09,0,0,0-2.07-.42,6.45,6.45,0,0,0-1.46.23,7,7,0,0,0-2,1,7.57,7.57,0,0,0-1.24,1.08,6.28,6.28,0,0,0-1.1,1.67,5.76,5.76,0,0,0-.38,1.22.13.13,0,0,1,0,.06c0,.07,0,.15,0,.22a4.85,4.85,0,0,1-.38-1.71,5.19,5.19,0,0,1,.32-2A4.87,4.87,0,0,1,145,16.15Z"/><path class="cls-43" d="M145,16.15a5.06,5.06,0,0,1,3.57-1.47,4.78,4.78,0,0,1,3.75,1.81h-.06a4.3,4.3,0,0,0-2.11-.49,6.08,6.08,0,0,0-1.48.22,6.48,6.48,0,0,0-2,1,6.75,6.75,0,0,0-1.22,1.1A6.22,6.22,0,0,0,144.32,20a5.67,5.67,0,0,0-.36,1.28.09.09,0,0,1,0,.05c0,.08,0,.16,0,.24a5.12,5.12,0,0,1-.36-1.72,5.21,5.21,0,0,1,.34-2A5,5,0,0,1,145,16.15Z"/><path class="cls-44" d="M145,16.15a5.06,5.06,0,0,1,3.57-1.47,4.85,4.85,0,0,1,3.72,1.73h-.07a4.33,4.33,0,0,0-2.14-.56,6.23,6.23,0,0,0-1.5.19,6.07,6.07,0,0,0-2,1,6.44,6.44,0,0,0-1.21,1.12,6,6,0,0,0-1,1.77,5.9,5.9,0,0,0-.34,1.33s0,0,0,.06l0,.25a5,5,0,0,1-.35-1.73,5.13,5.13,0,0,1,.36-2A4.91,4.91,0,0,1,145,16.15Z"/><path class="cls-45" d="M145,16.15a5.06,5.06,0,0,1,3.57-1.47,4.89,4.89,0,0,1,3.68,1.65h-.06a4.35,4.35,0,0,0-2.18-.63,6.24,6.24,0,0,0-1.51.16,6.17,6.17,0,0,0-2.06,1A6.11,6.11,0,0,0,145.24,18a6,6,0,0,0-1.34,3.21s0,0,0,.06l0,.25a4.93,4.93,0,0,1-.33-1.73,5.14,5.14,0,0,1,.37-2A5.27,5.27,0,0,1,145,16.15Z"/><path class="cls-46" d="M143.86,21.18a.13.13,0,0,1,0-.06,6.72,6.72,0,0,1,.29-1.43,6.11,6.11,0,0,1,2.18-3,5.61,5.61,0,0,1,3.59-1.09,4.45,4.45,0,0,1,2.22.7h.06a5,5,0,0,0-3.65-1.57A5.06,5.06,0,0,0,145,16.15a5.31,5.31,0,0,0-1.08,1.6,5.17,5.17,0,0,0-.39,2,5,5,0,0,0,.31,1.73Z"/><circle class="cls-47" cx="148.59" cy="19.68" r="2.08"/><circle class="cls-48" cx="148.6" cy="19.68" r="2.06"/><circle class="cls-49" cx="148.6" cy="19.68" r="2.05"/><circle class="cls-50" cx="148.6" cy="19.68" r="2.04"/><circle class="cls-51" cx="148.6" cy="19.68" r="2.02"/><circle class="cls-52" cx="148.6" cy="19.67" r="2.01"/><circle class="cls-53" cx="148.6" cy="19.67" r="1.99"/><circle class="cls-54" cx="148.6" cy="19.67" r="1.98"/><circle class="cls-55" cx="148.6" cy="19.67" r="1.97"/><circle class="cls-56" cx="148.6" cy="19.67" r="1.95"/><circle class="cls-57" cx="148.6" cy="19.67" r="1.94"/><circle class="cls-58" cx="148.6" cy="19.67" r="1.93"/><circle class="cls-59" cx="148.6" cy="19.67" r="1.91"/><circle class="cls-60" cx="148.61" cy="19.67" r="1.9"/><circle class="cls-61" cx="148.61" cy="19.67" r="1.89"/><circle class="cls-62" cx="148.61" cy="19.67" r="1.87"/><path class="cls-63" d="M150.47,19.66a1.86,1.86,0,1,1-1.86-1.86A1.87,1.87,0,0,1,150.47,19.66Z"/><path class="cls-64" d="M150.46,19.66a1.85,1.85,0,1,1-1.85-1.84A1.85,1.85,0,0,1,150.46,19.66Z"/><path class="cls-65" d="M150.44,19.66a1.83,1.83,0,1,1-1.83-1.83A1.83,1.83,0,0,1,150.44,19.66Z"/><path class="cls-66" d="M150.43,19.66a1.82,1.82,0,1,1-1.82-1.82A1.81,1.81,0,0,1,150.43,19.66Z"/><path class="cls-67" d="M150.42,19.66a1.81,1.81,0,1,1-1.81-1.8A1.81,1.81,0,0,1,150.42,19.66Z"/><path class="cls-68" d="M150.41,19.66a1.8,1.8,0,1,1-1.8-1.79A1.8,1.8,0,0,1,150.41,19.66Z"/><path class="cls-69" d="M150.39,19.66a1.78,1.78,0,1,1-1.78-1.78A1.78,1.78,0,0,1,150.39,19.66Z"/><path class="cls-70" d="M150.38,19.66a1.77,1.77,0,1,1-1.77-1.77A1.76,1.76,0,0,1,150.38,19.66Z"/><path class="cls-71" d="M150.37,19.66a1.76,1.76,0,1,1-1.76-1.75A1.75,1.75,0,0,1,150.37,19.66Z"/><path class="cls-72" d="M150.35,19.66a1.74,1.74,0,1,1-1.73-1.74A1.73,1.73,0,0,1,150.35,19.66Z"/><path class="cls-73" d="M150.34,19.66a1.73,1.73,0,1,1-1.72-1.73A1.72,1.72,0,0,1,150.34,19.66Z"/><path class="cls-74" d="M150.33,19.66a1.71,1.71,0,1,1-1.71-1.72A1.72,1.72,0,0,1,150.33,19.66Z"/><path class="cls-75" d="M150.32,19.65a1.7,1.7,0,1,1-1.7-1.69A1.7,1.7,0,0,1,150.32,19.65Z"/><path class="cls-76" d="M150.3,19.65A1.69,1.69,0,1,1,148.62,18,1.69,1.69,0,0,1,150.3,19.65Z"/><path class="cls-77" d="M150.29,19.65A1.67,1.67,0,1,1,148.62,18,1.67,1.67,0,0,1,150.29,19.65Z"/><path class="cls-78" d="M150.28,19.65A1.66,1.66,0,1,1,148.62,18,1.66,1.66,0,0,1,150.28,19.65Z"/><path class="cls-79" d="M150.27,19.65a1.65,1.65,0,1,1-3.29,0,1.65,1.65,0,0,1,3.29,0Z"/><path class="cls-80" d="M150.25,19.65A1.63,1.63,0,1,1,148.62,18,1.63,1.63,0,0,1,150.25,19.65Z"/><path class="cls-81" d="M150.24,19.65A1.62,1.62,0,1,1,148.62,18,1.62,1.62,0,0,1,150.24,19.65Z"/><path class="cls-82" d="M213.42,6.66A24.6,24.6,0,0,0,196.49,0L24.64.44A24.72,24.72,0,0,0,0,25.21L0,41.73,2.16,440.19Z"/><path class="cls-83" d="M137.42,290v17.3H84.51V290H74.34v22.39a5.08,5.08,0,0,0,5.09,5.08H142.5a5.09,5.09,0,0,0,5.09-5.08V290Z"/><path class="cls-83" d="M110,288.33l-14.56-17.6s-2.21-2.09.19-2.09h8.2V243s-.32-1.25,1.56-1.25H117c1.35,0,1.32,1.06,1.32,1.06v25.28h7.57c2.92,0,.72,2.19.72,2.19s-12.39,16.44-14.11,18.16A1.62,1.62,0,0,1,110,288.33Z"/><g id="g80302"><path id="path825" class="cls-83" d="M70.38,197.23c-3.24,0-6.57,2.6-6.57,7.15,0,4.15,2.93,7.09,6.57,7.09a5.31,5.31,0,0,0,4.36-2v.88a.92.92,0,0,0,.88.88h2.17V197.54H74.73v1.73a5.29,5.29,0,0,0-4.35-2Zm.55,2.79a4.36,4.36,0,0,1,0,8.7,4.13,4.13,0,0,1-4-4.38A4.08,4.08,0,0,1,70.93,200Z"/><path id="path829" class="cls-83" d="M82,211.21a.86.86,0,0,1-.88-.88V197.54h3v1.69a4.79,4.79,0,0,1,4.12-2,5.11,5.11,0,0,1,5.21,5.24v8.75H91.41a.93.93,0,0,1-.93-.93v-7.15a2.9,2.9,0,0,0-2.85-3.1c-2.14,0-3.42,2-3.42,3.93v7.25Z"/><path id="path833" class="cls-83" d="M102.44,197.23c-3.24,0-6.57,2.6-6.57,7.15,0,4.15,2.93,7.09,6.57,7.09a5.28,5.28,0,0,0,4.35-2v.88a.93.93,0,0,0,.88.88h2.18V190.7h-3.06v8.57a5.29,5.29,0,0,0-4.35-2ZM103,200a4.36,4.36,0,0,1,0,8.7,4.14,4.14,0,0,1-4-4.38A4.08,4.08,0,0,1,103,200Z"/><path id="path835" class="cls-83" d="M114.1,211.21a.86.86,0,0,1-.88-.88V197.54h3v2.28a3.77,3.77,0,0,1,3.68-2.44,6.09,6.09,0,0,1,1.09.11v3.16a4.41,4.41,0,0,0-1.45-.26c-2.15,0-3.32,2-3.32,3.93v6.89Z"/><path id="path837" class="cls-83" d="M139.58,211.21a.86.86,0,0,1-.88-.88V197.54h3.05v13.67Z"/><path id="path839" class="cls-83" d="M150.71,197.23c-3.24,0-6.58,2.6-6.58,7.15,0,4.15,2.94,7.09,6.58,7.09a5.28,5.28,0,0,0,4.35-2v.88a.93.93,0,0,0,.88.88h2.18V190.7h-3.06v8.57a5.29,5.29,0,0,0-4.35-2Zm.55,2.79a4.36,4.36,0,0,1,0,8.7,4.13,4.13,0,0,1-4-4.38A4.08,4.08,0,0,1,151.26,200Z"/><circle id="path841" class="cls-83" cx="140.2" cy="192.57" r="2.02"/><path id="path843" class="cls-83" d="M129.09,197.22a7,7,0,0,0-7.12,7.13,7,7,0,0,0,7.12,7.12,7.13,7.13,0,1,0,0-14.25Zm0,2.86a4.13,4.13,0,0,1,4.1,4.28,4.1,4.1,0,1,1-8.19,0,4.12,4.12,0,0,1,4.09-4.32Z"/></g><path id="path80319" class="cls-84" d="M134,145.07l7.82-13.54a1.58,1.58,0,0,0-.58-2.16,1.55,1.55,0,0,0-2.15.57l-7.92,13.72a49.41,49.41,0,0,0-40.32,0l-7.92-13.72a1.58,1.58,0,0,0-2.74,1.59L88,145.07A46.69,46.69,0,0,0,63.86,182h94.25A46.68,46.68,0,0,0,134,145.07ZM89.35,168.76a3.95,3.95,0,1,1,4-3.95A3.95,3.95,0,0,1,89.35,168.76Zm43.27,0a3.95,3.95,0,1,1,3.95-3.95A3.95,3.95,0,0,1,132.62,168.76Z"/></g></g></svg>