<?xml version="1.0" encoding="utf-8"?>
<!-- Generator: Adobe Illustrator 25.0.1, SVG Export Plug-In . SVG Version: 6.00 Build 0)  -->
<svg version="1.1" id="Layer_1" xmlns="http://www.w3.org/2000/svg" xmlns:xlink="http://www.w3.org/1999/xlink" x="0px" y="0px"
	 viewBox="0 0 226.8 150.3" style="enable-background:new 0 0 226.8 150.3;" xml:space="preserve">
<style type="text/css">
	.st0{fill:none;}
	.st1{opacity:0.72;}
	.st2{fill:#FFAC81;}
	.st3{fill:#F0F9ED;}
</style>
<rect x="0.3" y="0.1" class="st0" width="226.1" height="150.1"/>
<g id="Layer_2_1_">
	<g id="Layer_1-2">
		<g id="egg" class="st1">
			<path id="Path_1" class="st2" d="M125.3,42.2c24.7,12.4,28.8,34.3,19.2,53.4s-29.2,27.9-53.8,15.5S43.3,67.8,52.8,48.8
				S100.7,29.7,125.3,42.2z"/>
		</g>
		<g id="egg-2" class="st1">
			<path id="Path_1-2" class="st2" d="M121.5,115.5c-27.4,5-44-10.3-47.8-31.6s6.5-40.3,33.9-45.3S172,44.7,175.8,66
				S148.9,110.5,121.5,115.5z"/>
		</g>
		<path class="st3" d="M91.1,68.6h41.6c1.6,0,2.9-1.3,2.9-2.9s-1.3-2.9-2.9-2.9H91.1c-1.6,0-2.9,1.3-2.9,2.9S89.5,68.6,91.1,68.6z
			 M132.6,75.8H91.1c-1.6-0.1-2.9,1.2-3,2.7c-0.1,1.6,1.2,2.9,2.7,3c0.1,0,0.2,0,0.3,0h41.6c1.6-0.1,2.8-1.4,2.7-3
			C135.3,77.1,134.1,75.9,132.6,75.8z M132.6,88.7H91.1c-1.6,0-2.9,1.3-2.9,2.9s1.3,2.9,2.9,2.9h41.6c1.6,0,2.9-1.3,2.9-2.9
			S134.2,88.7,132.6,88.7z"/>
	</g>
</g>
</svg>
