<svg xmlns="http://www.w3.org/2000/svg" xmlns:xlink="http://www.w3.org/1999/xlink" viewBox="0 0 1366 768"><defs><style>.cls-1{fill:none;}.cls-2{isolation:isolate;}.cls-3{fill:#1d3557;}.cls-4{clip-path:url(#clip-path);}.cls-5{opacity:0.5;}.cls-6{mix-blend-mode:screen;}.cls-7{fill:url(#radial-gradient);}.cls-8{fill:url(#radial-gradient-2);}.cls-9{fill:url(#radial-gradient-3);}.cls-10{fill:url(#radial-gradient-4);}.cls-11{fill:url(#radial-gradient-5);}.cls-12{fill:url(#radial-gradient-6);}.cls-13{fill:url(#radial-gradient-7);}.cls-14{fill:url(#radial-gradient-8);}.cls-15{fill:url(#radial-gradient-9);}.cls-16{fill:url(#radial-gradient-10);}.cls-17{fill:url(#radial-gradient-11);}.cls-18{fill:url(#radial-gradient-12);}.cls-19{fill:url(#radial-gradient-13);}.cls-20{fill:url(#radial-gradient-14);}.cls-21{fill:url(#radial-gradient-15);}.cls-22{fill:url(#radial-gradient-16);}.cls-23{fill:url(#radial-gradient-17);}.cls-24{fill:url(#radial-gradient-18);}.cls-25{fill:url(#radial-gradient-19);}.cls-26{fill:url(#radial-gradient-20);}.cls-27{fill:url(#radial-gradient-21);}</style><clipPath id="clip-path"><rect class="cls-1" x="0.4" y="-767.7" width="1366" height="1535"/></clipPath><radialGradient id="radial-gradient" cx="431.4" cy="0.35" r="451.41" gradientUnits="userSpaceOnUse"><stop offset="0.24" stop-color="#9f141f"/><stop offset="0.75" stop-color="#560c09"/><stop offset="1" stop-color="#390900"/></radialGradient><radialGradient id="radial-gradient-2" cx="170.83" cy="-260.98" r="450.25" xlink:href="#radial-gradient"/><radialGradient id="radial-gradient-3" cx="358.64" cy="13.61" r="521.58" xlink:href="#radial-gradient"/><radialGradient id="radial-gradient-4" cx="126.04" cy="-181.23" r="548.94" xlink:href="#radial-gradient"/><radialGradient id="radial-gradient-5" cx="246.02" cy="-193.32" r="465.52" xlink:href="#radial-gradient"/><radialGradient id="radial-gradient-6" cx="392.1" cy="93.02" r="328.79" xlink:href="#radial-gradient"/><radialGradient id="radial-gradient-7" cx="392.1" cy="93.57" r="328.51" xlink:href="#radial-gradient"/><radialGradient id="radial-gradient-8" cx="280.81" cy="162.21" r="162.84" gradientTransform="translate(196.94 -151.05) rotate(45)" xlink:href="#radial-gradient"/><radialGradient id="radial-gradient-9" cx="280.81" cy="162.2" r="162.84" xlink:href="#radial-gradient"/><radialGradient id="radial-gradient-10" cx="280.81" cy="162.21" r="162.84" xlink:href="#radial-gradient"/><radialGradient id="radial-gradient-11" cx="277.77" cy="15.11" r="240.53" gradientUnits="userSpaceOnUse"><stop offset="0.21" stop-color="#e63946"/><stop offset="0.54" stop-color="#8f2226"/><stop offset="0.86" stop-color="#440e0b"/><stop offset="1" stop-color="#260600"/></radialGradient><radialGradient id="radial-gradient-12" cx="277.77" cy="15.11" r="240.53" xlink:href="#radial-gradient-11"/><radialGradient id="radial-gradient-13" cx="139.65" cy="-123.42" r="240.19" xlink:href="#radial-gradient-11"/><radialGradient id="radial-gradient-14" cx="239.11" cy="22.16" r="277.82" xlink:href="#radial-gradient-11"/><radialGradient id="radial-gradient-15" cx="115.85" cy="-81.04" r="292.64" xlink:href="#radial-gradient-11"/><radialGradient id="radial-gradient-16" cx="179.61" cy="-87.47" r="248.32" xlink:href="#radial-gradient-11"/><radialGradient id="radial-gradient-17" cx="256.89" cy="64.35" r="175.36" xlink:href="#radial-gradient-11"/><radialGradient id="radial-gradient-18" cx="256.89" cy="64.35" r="175.36" xlink:href="#radial-gradient-11"/><radialGradient id="radial-gradient-19" cx="197.93" cy="101.28" r="87.44" gradientTransform="translate(129.59 -110.3) rotate(45)" xlink:href="#radial-gradient-11"/><radialGradient id="radial-gradient-20" cx="197.93" cy="101.28" r="87.44" xlink:href="#radial-gradient-11"/><radialGradient id="radial-gradient-21" cx="197.93" cy="101.28" r="87.44" xlink:href="#radial-gradient-11"/></defs><title>BG-05</title><g class="cls-2"><g id="Layer_1" data-name="Layer 1"><rect class="cls-3" x="0.4" y="-0.7" width="1366" height="768"/><g class="cls-4"><g class="cls-5"><g class="cls-6"><polygon class="cls-7" points="-32 432.84 -34.65 432.84 -34.64 324.53 378.29 -88.4 503.93 -88.4 730.21 -314.68 767.9 -307.14 892.91 -432.15 894.78 -430.28 768.77 -304.27 731.08 -311.81 505.03 -85.75 379.38 -85.75 -31.99 325.62 -32 432.84"/><polygon class="cls-8" points="-185.69 185.01 -280.97 185.01 -280.97 182.37 -186.79 182.37 128.15 -132.57 128.16 -314.08 412.83 -598.75 515.22 -598.75 620.76 -704.29 622.63 -702.43 516.31 -596.11 413.92 -596.11 130.8 -312.98 130.79 -131.47 -185.69 185.01"/><polygon class="cls-9" points="-177.6 513.51 -180.24 513.51 -180.24 465.16 -101.51 386.43 -101.51 320.48 359.25 -140.28 481.82 -140.26 688.16 -346.61 753.31 -346.61 892.99 -486.28 894.86 -484.41 754.41 -343.96 689.25 -343.96 482.91 -137.62 360.34 -137.63 -98.86 321.57 -98.87 387.52 -177.6 466.26 -177.6 513.51"/><polygon class="cls-10" points="-369.98 362.3 -425.58 362.3 -425.58 359.66 -371.07 359.66 -236.49 225.07 -151.94 225.07 176.97 -103.83 176.97 -300.84 433.72 -557.6 511.3 -557.6 675.8 -722.09 677.66 -720.23 512.39 -554.96 434.81 -554.96 179.61 -299.75 179.61 -102.74 -150.84 227.72 -235.39 227.72 -369.98 362.3"/><polygon class="cls-11" points="-145.92 286.41 -202.17 286.4 -202.17 283.76 -147.01 283.77 217.83 -81.07 217.82 -268.29 440.94 -491.41 513.36 -491.4 692.35 -670.39 694.22 -668.52 514.46 -488.76 442.04 -488.77 220.46 -267.19 220.47 -79.98 -145.92 286.41"/><polygon class="cls-12" points="64.84 416.91 62.19 416.91 62.19 302.26 413.76 -49.31 535.9 -49.31 717.47 -230.88 719.34 -229.01 536.99 -46.66 414.85 -46.66 64.84 303.35 64.84 416.91"/><circle class="cls-13" cx="63.51" cy="416.71" r="3.97"/><rect class="cls-14" x="55.62" y="160.89" width="450.38" height="2.64" transform="translate(-32.45 246.07) rotate(-45)"/><path class="cls-15" d="M437.09.3a4,4,0,1,1,0,5.62A4,4,0,0,1,437.09.3Z"/><path class="cls-16" d="M118.9,318.49a4,4,0,1,0,5.62,0A4,4,0,0,0,118.9,318.49Z"/></g><g class="cls-6"><polygon class="cls-17" points="32.98 241.45 29.01 241.45 29.02 187.01 249.21 -33.17 315.98 -33.17 436.34 -153.54 456.37 -149.53 519.73 -212.9 522.53 -210.09 457.67 -145.23 437.64 -149.24 317.62 -29.21 250.85 -29.21 32.98 188.66 32.98 241.45"/><path class="cls-18" d="M25,241.15a6,6,0,1,0,6-6A6,6,0,0,0,25,241.15Z"/><polygon class="cls-19" points="-49.45 114.68 -96.96 114.68 -96.96 110.72 -51.09 110.72 115.52 -55.9 115.53 -152.36 267.56 -304.39 321.98 -304.39 375.11 -357.52 377.91 -354.72 323.62 -300.43 269.2 -300.43 119.49 -150.72 119.49 -54.26 -49.45 114.68"/><polygon class="cls-20" points="-44.4 284.32 -48.36 284.32 -48.36 261.75 -6.52 219.91 -6.52 184.86 239.09 -60.74 304.23 -60.74 413.88 -170.4 448.51 -170.4 519.77 -241.66 522.58 -238.86 450.15 -166.43 415.52 -166.43 305.87 -56.78 240.73 -56.78 -2.56 186.5 -2.56 221.55 -44.4 263.39 -44.4 284.32"/><polygon class="cls-21" points="-147.38 208.9 -173.81 208.9 -173.81 204.93 -149.02 204.93 -77.5 133.41 -32.57 133.41 141.47 -40.63 141.47 -145.32 278.67 -282.52 319.89 -282.52 404.35 -366.98 407.15 -364.18 321.54 -278.56 280.31 -278.56 145.43 -143.68 145.43 -38.99 -30.93 137.37 -75.86 137.37 -147.38 208.9"/><polygon class="cls-22" points="-28.31 168.57 -55.08 168.56 -55.08 164.6 -29.95 164.6 163.19 -28.54 163.18 -128.03 282.5 -247.35 320.99 -247.34 413.15 -339.5 415.95 -336.7 322.63 -243.38 284.14 -243.39 167.14 -126.38 167.15 -26.89 -28.31 168.57"/><polygon class="cls-23" points="84.44 232.98 80.47 232.98 80.47 175.18 268.06 -12.4 332.96 -12.4 426.5 -105.93 429.3 -103.13 334.61 -8.44 269.7 -8.44 84.44 176.82 84.44 232.98"/><path class="cls-24" d="M76.5,232.68a6,6,0,1,0,6-6A6,6,0,0,0,76.5,232.68Z"/><rect class="cls-25" x="81.92" y="99.3" width="232.03" height="3.96" transform="translate(-13.64 169.62) rotate(-45)"/><path class="cls-26" d="M275.54,15.24a6,6,0,1,1,0,8.43A6,6,0,0,1,275.54,15.24Z"/><path class="cls-27" d="M111.89,178.89a6,6,0,1,0,8.43,0A6,6,0,0,0,111.89,178.89Z"/></g><rect class="cls-1" x="-891.44" y="-468.27" width="1483.85" height="760.95" transform="translate(-299.03 -175.58) rotate(180)"/></g></g></g></g></svg>