<svg xmlns="http://www.w3.org/2000/svg" xmlns:xlink="http://www.w3.org/1999/xlink" viewBox="0 0 1366 768"><defs><style>.cls-1{fill:none;}.cls-2{isolation:isolate;}.cls-3{fill:#14253d;}.cls-4{clip-path:url(#clip-path);}.cls-5{opacity:0.5;}.cls-6{mix-blend-mode:screen;}.cls-7{fill:url(#radial-gradient);}.cls-8{fill:url(#radial-gradient-2);}.cls-9{fill:url(#radial-gradient-3);}.cls-10{fill:url(#radial-gradient-4);}.cls-11{fill:url(#radial-gradient-5);}.cls-12{fill:url(#radial-gradient-6);}.cls-13{fill:url(#radial-gradient-7);}.cls-14{fill:url(#radial-gradient-8);}.cls-15{fill:url(#radial-gradient-9);}.cls-16{fill:url(#radial-gradient-10);}.cls-17{fill:url(#radial-gradient-11);}.cls-18{fill:url(#radial-gradient-12);}.cls-19{fill:url(#radial-gradient-13);}.cls-20{fill:url(#radial-gradient-14);}.cls-21{fill:url(#radial-gradient-15);}.cls-22{fill:url(#radial-gradient-16);}.cls-23{fill:url(#radial-gradient-17);}.cls-24{fill:url(#radial-gradient-18);}.cls-25{fill:url(#radial-gradient-19);}.cls-26{fill:url(#radial-gradient-20);}.cls-27{fill:url(#radial-gradient-21);}.cls-28{fill:url(#radial-gradient-22);}.cls-29{fill:url(#radial-gradient-23);}.cls-30{fill:url(#radial-gradient-24);}.cls-31{fill:url(#radial-gradient-25);}.cls-32{fill:url(#radial-gradient-26);}.cls-33{fill:url(#radial-gradient-27);}.cls-34{fill:url(#radial-gradient-28);}.cls-35{fill:url(#radial-gradient-29);}.cls-36{fill:url(#radial-gradient-30);}.cls-37{fill:url(#radial-gradient-31);}.cls-38{fill:url(#radial-gradient-32);}.cls-39{fill:url(#radial-gradient-33);}.cls-40{fill:url(#radial-gradient-34);}.cls-41{fill:url(#radial-gradient-35);}.cls-42{fill:url(#radial-gradient-36);}.cls-43{fill:url(#radial-gradient-37);}.cls-44{fill:url(#radial-gradient-38);}.cls-45{fill:url(#radial-gradient-39);}.cls-46{fill:url(#radial-gradient-40);}.cls-47{fill:url(#radial-gradient-41);}.cls-48{fill:url(#radial-gradient-42);}.cls-49{fill:url(#radial-gradient-43);}.cls-50{fill:url(#radial-gradient-44);}.cls-51{fill:url(#radial-gradient-45);}.cls-52{fill:url(#radial-gradient-46);}.cls-53{fill:url(#radial-gradient-47);}.cls-54{fill:url(#radial-gradient-48);}.cls-55{fill:url(#radial-gradient-49);}</style><clipPath id="clip-path"><rect class="cls-1" x="0.4" y="0.8" width="1366" height="1535"/></clipPath><radialGradient id="radial-gradient" cx="431.4" cy="768.85" r="451.41" gradientUnits="userSpaceOnUse"><stop offset="0.24" stop-color="#9f141f"/><stop offset="0.75" stop-color="#560c09"/><stop offset="1" stop-color="#390900"/></radialGradient><radialGradient id="radial-gradient-2" cx="431.4" cy="769.4" r="451.14" xlink:href="#radial-gradient"/><radialGradient id="radial-gradient-3" cx="170.83" cy="507.52" r="450.25" xlink:href="#radial-gradient"/><radialGradient id="radial-gradient-4" cx="170.27" cy="507.52" r="450.53" xlink:href="#radial-gradient"/><radialGradient id="radial-gradient-5" cx="358.64" cy="782.11" r="521.58" xlink:href="#radial-gradient"/><radialGradient id="radial-gradient-6" cx="358.64" cy="782.67" r="521.31" xlink:href="#radial-gradient"/><radialGradient id="radial-gradient-7" cx="126.04" cy="587.27" r="548.94" xlink:href="#radial-gradient"/><radialGradient id="radial-gradient-8" cx="125.49" cy="587.27" r="549.22" xlink:href="#radial-gradient"/><radialGradient id="radial-gradient-9" cx="246.02" cy="575.18" r="465.52" xlink:href="#radial-gradient"/><radialGradient id="radial-gradient-10" cx="245.47" cy="575.18" r="465.79" xlink:href="#radial-gradient"/><radialGradient id="radial-gradient-11" cx="684.82" cy="399.16" r="191.48" xlink:href="#radial-gradient"/><radialGradient id="radial-gradient-12" cx="684.82" cy="399.16" r="191.48" xlink:href="#radial-gradient"/><radialGradient id="radial-gradient-13" cx="684.82" cy="399.16" r="191.48" xlink:href="#radial-gradient"/><radialGradient id="radial-gradient-14" cx="583.19" cy="413.92" r="218.74" xlink:href="#radial-gradient"/><radialGradient id="radial-gradient-15" cx="583.2" cy="413.92" r="218.74" xlink:href="#radial-gradient"/><radialGradient id="radial-gradient-16" cx="583.19" cy="413.91" r="218.74" xlink:href="#radial-gradient"/><radialGradient id="radial-gradient-17" cx="509.05" cy="356.56" r="216.26" xlink:href="#radial-gradient"/><radialGradient id="radial-gradient-18" cx="509.05" cy="356.56" r="216.26" xlink:href="#radial-gradient"/><radialGradient id="radial-gradient-19" cx="509.04" cy="356.56" r="216.25" xlink:href="#radial-gradient"/><radialGradient id="radial-gradient-20" cx="702.6" cy="249.66" r="65.22" xlink:href="#radial-gradient"/><radialGradient id="radial-gradient-21" cx="702.6" cy="249.66" r="65.22" xlink:href="#radial-gradient"/><radialGradient id="radial-gradient-22" cx="702.6" cy="249.66" r="65.22" xlink:href="#radial-gradient"/><radialGradient id="radial-gradient-23" cx="392.1" cy="861.52" r="328.79" xlink:href="#radial-gradient"/><radialGradient id="radial-gradient-24" cx="392.1" cy="862.07" r="328.51" xlink:href="#radial-gradient"/><radialGradient id="radial-gradient-25" cx="280.81" cy="930.7" r="162.84" xlink:href="#radial-gradient"/><radialGradient id="radial-gradient-26" cx="277.77" cy="783.61" r="240.53" gradientUnits="userSpaceOnUse"><stop offset="0.21" stop-color="#e63946"/><stop offset="0.54" stop-color="#8f2226"/><stop offset="0.86" stop-color="#440e0b"/><stop offset="1" stop-color="#260600"/></radialGradient><radialGradient id="radial-gradient-27" cx="277.77" cy="783.61" r="240.53" xlink:href="#radial-gradient-26"/><radialGradient id="radial-gradient-28" cx="139.65" cy="645.08" r="240.19" xlink:href="#radial-gradient-26"/><radialGradient id="radial-gradient-29" cx="139.65" cy="645.08" r="240.19" xlink:href="#radial-gradient-26"/><radialGradient id="radial-gradient-30" cx="239.11" cy="790.66" r="277.82" xlink:href="#radial-gradient-26"/><radialGradient id="radial-gradient-31" cx="239.11" cy="790.66" r="277.82" xlink:href="#radial-gradient-26"/><radialGradient id="radial-gradient-32" cx="115.85" cy="687.46" r="292.64" xlink:href="#radial-gradient-26"/><radialGradient id="radial-gradient-33" cx="115.85" cy="687.46" r="292.64" xlink:href="#radial-gradient-26"/><radialGradient id="radial-gradient-34" cx="179.61" cy="681.03" r="248.32" xlink:href="#radial-gradient-26"/><radialGradient id="radial-gradient-35" cx="179.61" cy="681.03" r="248.31" xlink:href="#radial-gradient-26"/><radialGradient id="radial-gradient-36" cx="412.64" cy="587.31" r="102.65" xlink:href="#radial-gradient-26"/><radialGradient id="radial-gradient-37" cx="412.64" cy="587.31" r="102.65" xlink:href="#radial-gradient-26"/><radialGradient id="radial-gradient-38" cx="412.64" cy="587.31" r="102.65" xlink:href="#radial-gradient-26"/><radialGradient id="radial-gradient-39" cx="358.63" cy="595.14" r="117.14" xlink:href="#radial-gradient-26"/><radialGradient id="radial-gradient-40" cx="358.63" cy="595.14" r="117.14" xlink:href="#radial-gradient-26"/><radialGradient id="radial-gradient-41" cx="358.63" cy="595.15" r="117.14" xlink:href="#radial-gradient-26"/><radialGradient id="radial-gradient-42" cx="319.04" cy="564.21" r="115.69" xlink:href="#radial-gradient-26"/><radialGradient id="radial-gradient-43" cx="319.04" cy="564.21" r="115.69" xlink:href="#radial-gradient-26"/><radialGradient id="radial-gradient-44" cx="319.04" cy="564.21" r="115.69" xlink:href="#radial-gradient-26"/><radialGradient id="radial-gradient-45" cx="422.54" cy="508.04" r="35.36" xlink:href="#radial-gradient-26"/><radialGradient id="radial-gradient-46" cx="422.54" cy="508.04" r="35.36" xlink:href="#radial-gradient-26"/><radialGradient id="radial-gradient-47" cx="422.54" cy="508.04" r="35.36" xlink:href="#radial-gradient-26"/><radialGradient id="radial-gradient-48" cx="256.89" cy="832.85" r="175.36" xlink:href="#radial-gradient-26"/><radialGradient id="radial-gradient-49" cx="256.89" cy="832.85" r="175.36" xlink:href="#radial-gradient-26"/></defs><title>BG-04</title><g class="cls-2"><g id="Layer_1" data-name="Layer 1"><rect class="cls-3" x="0.4" y="-0.2" width="1366" height="768"/><g class="cls-4"><g class="cls-5"><g class="cls-6"><polygon class="cls-7" points="-32 1201.34 -34.65 1201.34 -34.64 1093.03 378.29 680.1 503.93 680.1 730.21 453.82 767.9 461.36 892.91 336.35 894.78 338.22 768.77 464.23 731.08 456.69 505.03 682.75 379.38 682.75 -31.99 1094.12 -32 1201.34"/><path class="cls-8" d="M890.89,334.62a4,4,0,1,1,0,5.62A4,4,0,0,1,890.89,334.62Z"/><polygon class="cls-9" points="-185.69 953.51 -280.97 953.51 -280.97 950.87 -186.79 950.87 128.15 635.93 128.16 454.42 412.83 169.75 515.22 169.75 620.76 64.2 622.63 66.07 516.31 172.39 413.92 172.39 130.8 455.52 130.79 637.03 -185.69 953.51"/><circle class="cls-10" cx="621.56" cy="65.28" r="3.97"/><polygon class="cls-11" points="-177.6 1282.01 -180.24 1282.01 -180.24 1233.66 -101.51 1154.93 -101.51 1088.98 359.25 628.22 481.82 628.24 688.16 421.89 753.31 421.89 892.99 282.22 894.86 284.09 754.41 424.54 689.25 424.54 482.91 630.88 360.34 630.87 -98.86 1090.07 -98.87 1156.03 -177.6 1234.76 -177.6 1282.01"/><path class="cls-12" d="M891,280.48a4,4,0,1,1,0,5.62A4,4,0,0,1,891,280.48Z"/><polygon class="cls-13" points="-369.98 1130.8 -425.58 1130.8 -425.58 1128.16 -371.07 1128.16 -236.49 993.57 -151.94 993.57 176.97 664.67 176.97 467.66 433.72 210.9 511.3 210.9 675.8 46.41 677.66 48.27 512.39 213.54 434.81 213.54 179.61 468.75 179.61 665.76 -150.84 996.22 -235.39 996.22 -369.98 1130.8"/><path class="cls-14" d="M673.78,44.67a4,4,0,1,1,0,5.62A4,4,0,0,1,673.78,44.67Z"/><polygon class="cls-15" points="-145.92 1054.91 -202.17 1054.9 -202.17 1052.26 -147.01 1052.27 217.83 687.43 217.82 500.21 440.94 277.09 513.36 277.1 692.35 98.11 694.22 99.98 514.46 279.74 442.04 279.73 220.46 501.31 220.47 688.52 -145.92 1054.91"/><path class="cls-16" d="M690.33,96.38a4,4,0,1,1,0,5.62A4,4,0,0,1,690.33,96.38Z"/><polygon class="cls-17" points="472 558 470.13 556.13 636.96 389.31 748.65 389.32 897.64 240.33 899.5 242.2 749.75 391.96 638.05 391.95 472 558"/><path class="cls-18" d="M895.62,238.6a4,4,0,1,1,0,5.62A4,4,0,0,1,895.62,238.6Z"/><path class="cls-19" d="M468.4,554.11a4,4,0,1,0,5.62,0A4,4,0,0,0,468.4,554.11Z"/><polygon class="cls-20" points="337.54 593.18 335.67 591.31 585.75 341.23 722.27 341.23 828.85 234.65 830.71 236.52 723.36 343.87 586.84 343.87 337.54 593.18"/><path class="cls-21" d="M826.83,232.92a4,4,0,1,1,0,5.62A4,4,0,0,1,826.83,232.92Z"/><path class="cls-22" d="M333.93,589.29a4,4,0,1,0,5.62,0A4,4,0,0,0,333.93,589.29Z"/><polygon class="cls-23" points="301.12 574.59 298.48 574.59 298.48 498.17 463.7 332.95 519.56 332.95 715.07 137.43 716.94 139.3 520.65 335.59 464.8 335.59 301.12 499.26 301.12 574.59"/><path class="cls-24" d="M713.06,135.7a4,4,0,1,1,0,5.62A4,4,0,0,1,713.06,135.7Z"/><circle class="cls-25" cx="299.8" cy="574.39" r="3.97"/><polygon class="cls-26" points="629.37 300.44 629.37 297.8 678.83 297.79 775.07 201.55 776.93 203.42 679.92 300.43 629.37 300.44"/><path class="cls-27" d="M773.05,199.82a4,4,0,1,1,0,5.62A4,4,0,0,1,773.05,199.82Z"/><path class="cls-28" d="M629.57,295.15a4,4,0,1,0,4,4A4,4,0,0,0,629.57,295.15Z"/><polygon class="cls-29" points="64.84 1185.41 62.19 1185.41 62.19 1070.76 413.76 719.19 535.9 719.19 717.47 537.62 719.34 539.49 536.99 721.84 414.85 721.84 64.84 1071.85 64.84 1185.41"/><path class="cls-30" d="M715.45,535.89a4,4,0,1,1,0,5.62A4,4,0,0,1,715.45,535.89Z"/><path class="cls-31" d="M437.09,768.8a4,4,0,1,1,0,5.62A4,4,0,0,1,437.09,768.8Z"/></g><g class="cls-6"><polygon class="cls-32" points="32.98 1009.95 29.01 1009.95 29.02 955.51 249.21 735.33 315.98 735.33 436.34 614.96 456.37 618.97 519.73 555.61 522.53 558.41 457.67 623.27 437.64 619.26 317.62 739.29 250.85 739.29 32.98 957.15 32.98 1009.95"/><path class="cls-33" d="M516.71,553a6,6,0,1,1,0,8.43A6,6,0,0,1,516.71,553Z"/><polygon class="cls-34" points="-49.45 883.18 -96.96 883.18 -96.96 879.22 -51.09 879.22 115.52 712.6 115.53 616.14 267.56 464.11 321.98 464.11 375.11 410.98 377.91 413.78 323.62 468.07 269.2 468.07 119.49 617.78 119.49 714.24 -49.45 883.18"/><path class="cls-35" d="M372.08,408.38a6,6,0,1,1,0,8.43A6,6,0,0,1,372.08,408.38Z"/><polygon class="cls-36" points="-44.4 1052.82 -48.36 1052.82 -48.36 1030.25 -6.52 988.41 -6.52 953.36 239.09 707.75 304.23 707.76 413.88 598.11 448.51 598.11 519.77 526.84 522.58 529.64 450.15 602.07 415.52 602.07 305.87 711.72 240.73 711.72 -2.56 955 -2.56 990.05 -44.4 1031.89 -44.4 1052.82"/><path class="cls-37" d="M516.75,524.23a6,6,0,1,1,0,8.43A6,6,0,0,1,516.75,524.23Z"/><polygon class="cls-38" points="-147.38 977.4 -173.81 977.4 -173.81 973.43 -149.02 973.43 -77.5 901.91 -32.57 901.91 141.47 727.87 141.47 623.18 278.67 485.98 319.89 485.98 404.35 401.52 407.15 404.32 321.54 489.94 280.31 489.94 145.43 624.82 145.43 729.51 -30.93 905.87 -75.86 905.87 -147.38 977.4"/><path class="cls-39" d="M401.33,398.92a6,6,0,1,1,0,8.43A6,6,0,0,1,401.33,398.92Z"/><polygon class="cls-40" points="-28.31 937.07 -55.08 937.06 -55.08 933.1 -29.95 933.1 163.19 739.97 163.18 640.48 282.5 521.15 320.99 521.16 413.15 429 415.95 431.8 322.63 525.12 284.14 525.11 167.14 642.12 167.15 741.61 -28.31 937.07"/><path class="cls-41" d="M410.12,426.39a6,6,0,1,1,0,8.43A6,6,0,0,1,410.12,426.39Z"/><polygon class="cls-42" points="303.03 670.03 300.23 667.23 386.67 580.79 446.03 580.79 522.24 504.58 525.04 507.38 447.67 584.76 388.31 584.75 303.03 670.03"/><path class="cls-43" d="M519.22,502a6,6,0,1,1,0,8.42A6,6,0,0,1,519.22,502Z"/><path class="cls-44" d="M297.62,664.21a6,6,0,1,0,8.43,0A6,6,0,0,0,297.62,664.21Z"/><polygon class="cls-45" points="231.57 688.73 228.77 685.93 359.46 555.24 432.01 555.24 485.69 501.56 488.49 504.36 433.65 559.2 361.1 559.2 231.57 688.73"/><path class="cls-46" d="M482.66,499a6,6,0,1,1,0,8.43A6,6,0,0,1,482.66,499Z"/><path class="cls-47" d="M226.16,682.9a6,6,0,1,0,8.43,0A6,6,0,0,0,226.16,682.9Z"/><polygon class="cls-48" points="210.01 676.87 206.05 676.87 206.05 639.39 294.6 550.84 324.28 550.84 425.22 449.89 428.03 452.7 325.92 554.8 296.24 554.8 210.01 641.03 210.01 676.87"/><path class="cls-49" d="M422.2,447.29a6,6,0,1,1,0,8.43A6,6,0,0,1,422.2,447.29Z"/><path class="cls-50" d="M202.07,676.58a6,6,0,1,0,6-6A6,6,0,0,0,202.07,676.58Z"/><polygon class="cls-51" points="386.83 536.12 386.83 532.16 408.92 532.15 457.11 483.97 459.91 486.77 410.56 536.12 386.83 536.12"/><path class="cls-52" d="M454.08,481.37a6,6,0,1,1,0,8.43A6,6,0,0,1,454.08,481.37Z"/><path class="cls-53" d="M387.12,528.18a6,6,0,1,0,6,6A6,6,0,0,0,387.12,528.18Z"/><polygon class="cls-54" points="84.44 1001.48 80.47 1001.48 80.47 943.68 268.06 756.1 332.96 756.1 426.5 662.57 429.3 665.37 334.61 760.06 269.7 760.06 84.44 945.32 84.44 1001.48"/><path class="cls-55" d="M423.47,660a6,6,0,1,1,0,8.43A6,6,0,0,1,423.47,660Z"/></g><rect class="cls-1" x="-891.44" y="300.23" width="1483.85" height="760.95" transform="translate(-299.03 1361.42) rotate(180)"/></g></g></g></g></svg>