<?xml version="1.0" encoding="utf-8"?>
<!-- Generator: Adobe Illustrator 25.0.1, SVG Export Plug-In . SVG Version: 6.00 Build 0)  -->
<svg version="1.1" id="Layer_1" xmlns="http://www.w3.org/2000/svg" xmlns:xlink="http://www.w3.org/1999/xlink" x="0px" y="0px"
	 viewBox="0 0 1376.2 778.6" style="enable-background:new 0 0 1376.2 778.6;" xml:space="preserve">
<style type="text/css">
	.st0{fill:url(#SVGID_1_);}
	.st1{fill:url(#SVGID_2_);}
	.st2{opacity:0.25;}
	.st3{fill:#BCBFC1;}
	.st4{fill:#6D6C6C;}
	.st5{opacity:0.55;}
	.st6{fill:#EFEFEF;}
	.st7{fill:#D8D8D8;}
	.st8{fill:#EAEAEA;}
	.st9{fill:#1C0909;}
	.st10{fill:#4F4E4E;}
	.st11{fill:#878686;}
	.st12{fill:#FFFFFF;}
	.st13{opacity:0.63;}
	.st14{fill:#CECECE;}
	.st15{opacity:0.68;fill:#FFFFFF;enable-background:new    ;}
	.st16{fill:#A09F9F;}
	.st17{fill:#74C7E8;}
	.st18{fill:#5DBED8;}
	.st19{fill:#47A4C9;}
	.st20{fill:#94E0F7;}
	.st21{fill:#DFF5F7;}
	.st22{fill:#C7E1E2;}
	.st23{opacity:0.69;fill:#97B6B7;enable-background:new    ;}
	.st24{opacity:0.66;fill:#B6D8D8;enable-background:new    ;}
	.st25{fill:#AFD3D3;}
	.st26{fill:#BFE0E2;}
	.st27{opacity:0.79;fill:#97B6B7;enable-background:new    ;}
	.st28{opacity:0.71;fill:#97B6B7;enable-background:new    ;}
	.st29{fill:#525D5E;}
	.st30{fill:url(#SVGID_3_);}
	.st31{fill:url(#SVGID_4_);}
	.st32{fill:#EF0000;}
	.st33{fill:#D2E2E8;}
	.st34{fill:#B5D1D8;}
	.st35{fill:#99BBC9;}
	.st36{fill:#F7F7F7;}
	.st37{fill:#30C39E;}
	.st38{fill:#FF4081;}
	.st39{fill:#00796B;}
	.st40{fill:#142F64;}
	.st41{fill:#F1F2F2;}
	.st42{fill:#BDBDBD;}
	.st43{fill:#757575;}
	.st44{fill:#414042;}
	.st45{fill:#A1DFD3;}
	.st46{fill:#B3E2D9;}
	.st47{fill:#93DBD0;}
	.st48{fill:#67C9BB;}
	.st49{fill:#00806E;}
	.st50{fill:#00594E;}
	.st51{fill:#1A3C34;}
	.st52{fill:url(#SVGID_5_);}
</style>
<linearGradient id="SVGID_1_" gradientUnits="userSpaceOnUse" x1="0" y1="389.3" x2="712" y2="389.3">
	<stop  offset="2.494184e-02" style="stop-color:#30C39E"/>
	<stop  offset="0.9832" style="stop-color:#00806E"/>
</linearGradient>
<rect class="st0" width="712" height="778.6"/>
<linearGradient id="SVGID_2_" gradientUnits="userSpaceOnUse" x1="709.6629" y1="390.0012" x2="1377.2999" y2="390.0012">
	<stop  offset="1.675978e-02" style="stop-color:#00806E"/>
	<stop  offset="0.9751" style="stop-color:#30C39E"/>
</linearGradient>
<rect x="709.7" y="0.7" class="st1" width="667.6" height="778.6"/>
<g class="st2">
	<path class="st3" d="M1087,304.6c-0.5-3.5-9.8-9.1-22-12.8c-13.3-4.1-24.8-4.6-25.9-1.1v0.2C1046.8,284.7,1079.2,296.4,1087,304.6z
		"/>
	<path class="st4" d="M1085.3,223c6.5,2,17.7,4.5,21.7,3.2c4.2-1.4,5.4-8,4.6-8.9V217c-3.4-1.2-7.4-1.1-10.9-2
		c-4-1-8.1-2.3-11.9-3.6c-4.3-1.5-8.5-2.7-12.6-4.5c-2.7-1.2-7.1-4.6-9.1-4.7l-0.2-0.9c-1.4,2.6-4,9.6-1,12.6
		C1069.7,217.6,1079.6,221.2,1085.3,223z"/>
	<g class="st5">
		<path class="st6" d="M1115.1,216.3c1-3.3-9.4-9.4-23.3-13.7s-25.9-5.1-26.9-1.7s9.4,9.4,23.3,13.7S1114.1,219.6,1115.1,216.3z"/>
	</g>
	<path class="st7" d="M1116.2,216.6c1.1-3.7-9.5-10.1-24.2-14.7s-27.1-5.1-28.2-1.4s9.5,10.1,24.2,14.7S1115.1,220.4,1116.2,216.6z
		 M1066,201.2c0.8-2.6,11.3-2.4,25.6,2s23.2,10.1,22.4,12.7s-11.3,2.4-25.6-2S1065.2,203.8,1066,201.2L1066,201.2z"/>
	<g class="st5">
		<path class="st8" d="M1056.4,409.6l58.5-192.9c0,0-6.2,3.2-26.5-3c-20-6.1-23.7-12.4-23.7-12.4L1006,394.8c0,0-4.4,14.5,18.9,21.6
			C1051.8,424.7,1056.4,409.6,1056.4,409.6z"/>
	</g>
	<path class="st9" d="M1088.5,213.9c13.8,4.2,25.9,4.5,27.1,0.6c0.3-1,3.4-6.6,2.4-7.8c-3-3.7-14.9-3.7-25.2-6.9s-20.2-9.7-24.7-8.3
		c-1.5,0.5-2.2,6.7-2.5,7.7C1064.5,203.1,1074.7,209.8,1088.5,213.9z"/>
	<path class="st10" d="M1117.8,207.6c1.2-3.9-9.1-10.5-22.8-14.7s-25.9-4.5-27.1-0.6s9.1,10.5,22.8,14.7S1116.6,211.5,1117.8,207.6z
		"/>
	<path class="st11" d="M1117.8,207.6c0.1-0.4,0.1-0.8,0-1.1c-1.7,2.5-7.1,3.8-13,2.8c-9.8-1.7-35-8.7-36.7-17.2
		c0,0.1-0.2,0.2-0.2,0.3c-1.2,3.9,9.1,10.5,22.8,14.7S1116.6,211.5,1117.8,207.6z"/>
	<path class="st12" d="M1086.5,306.5c1.1-3.5-8.8-9.6-22.1-13.7s-24.8-4.6-25.9-1.1s8.8,9.6,22.1,13.7S1085.5,310,1086.5,306.5z"/>
	<g class="st13">
		<path class="st12" d="M1056.4,409.6l31.2-102.7c-11.4,0.9-22.9-0.7-33.6-4.8c-6.5-2.5-13.4-6.4-16.6-10.7L1006,394.8
			c0,0-4.4,14.5,18.9,21.6C1051.8,424.7,1056.4,409.6,1056.4,409.6z"/>
	</g>
	<g class="st5">
		<path class="st14" d="M1005.5,397.6c-0.3,4.2,1.2,14.1,19.1,19.6c10.3,3.1,17.3,2.9,22,1.4c6.5-9.4,50.9-161.5,62.6-200.3
			c-5.5-0.1-11-1-16.4-2.5c-2.2,10.7-15,54.4-21.9,82.9c-7,29.2-17.4,79.6-39.7,103.4C1025,408.8,1010.4,403,1005.5,397.6z"/>
	</g>
	<path class="st15" d="M1078.2,219.1c1.3-4.6-6-8.1-9-7.7c-6.7,2.9-55.2,177.9-49.8,178.6C1023.7,390.5,1076.1,235.2,1078.2,219.1z"
		/>
	<path class="st3" d="M1086.5,306.5c-0.7,0.1-1.4,4.7-27.5-3c-6.6-2-21.7-7.5-19.8-12.5c-0.3,0.2-0.5,0.5-0.6,0.8
		c-1.1,3.5,8.8,9.6,22.1,13.7C1073.8,309.6,1085.4,310,1086.5,306.5z"/>
	<path class="st16" d="M1057.3,410.8l58.5-192.8l0.7-2.3l-2.7,1.3c-0.1,0-6.2,2.9-25.5-3c-19-5.8-22.8-11.8-22.9-11.8l-1.5-2.5
		l-59.4,195.6c-0.1,0.2-4.3,15.3,19.8,22.7C1052.2,426.5,1057.3,410.9,1057.3,410.8z M1006.9,395.9l58.2-191.8
		c2.6,2.4,8.9,6.8,22.9,11.1s21.6,4.2,25.1,3.7l-58,191.2c-0.2,0.6-4.7,14.3-30.2,6.5C1003,409.8,1006.7,396.5,1006.9,395.9
		L1006.9,395.9z"/>
	<path class="st17" d="M1042.9,314.5c2.2-0.7,3.6-1.9,6-1.2c1.9,0.6,4,2.6,6,1.6c1.1-0.5,1.7-1.3,3.3-1.7c1.1-0.3,2.2,0,3,0.8
		c-0.4-1.1-2.3-1.3-3.2-1.2c-1,0.3-1.9,0.7-2.8,1.3c-1,0.5-2.2,0.5-3.1,0s-1.8-0.9-2.7-1.3c-1-0.2-2-0.4-3-0.4l0,0
		c-2.3-0.1-3.2-2.8-6.6-0.8C1037.4,312.9,1040.9,315.1,1042.9,314.5z"/>
	<path class="st18" d="M1042.9,314.5c2.2-0.7,3.6-1.9,6-1.2c1.9,0.6,4,2.6,6,1.6c1.1-0.5,1.7-1.3,3.3-1.7c1.1-0.3,2.2,0,3,0.8
		c-0.3-0.9-1.7-1-2.6-1c-1.3,0.4-2.6,0.9-3.8,1.6c-1.3,0.6-2.7-0.2-3.8-0.8c-0.8-0.4-1.7-0.7-2.6-1c-1.4-0.3-2.9-0.2-4.3,0.1
		c-2.2,0.8-3.1,0.3-3.6-0.2c-0.4-0.3-0.7-0.7-0.8-1.1C1037.4,312.9,1040.9,315.1,1042.9,314.5z"/>
	<path class="st19" d="M1042.9,314.5c2.2-0.7,3.6-1.9,6-1.2c1.9,0.6,4,2.6,6,1.6c0.8-0.4,1.3-0.9,2.2-1.3c-1,0.5-2,1.3-3.4,1.3
		c-1,0-2-0.7-3.2-1.3c-1.1-0.5-2.3-0.8-3.5-0.9c-1.2,0.1-2.3,0.3-3.4,0.8c-0.8,0.3-1.7,0.3-2.5,0.1c-0.9-0.1-1.5-0.8-1.7-1.7
		C1037.9,313.2,1041.1,315,1042.9,314.5z"/>
	<path class="st20" d="M1041.3,312c0.4-0.3,0.9-0.4,1.4-0.4c0.4,0.1,0.9,0.2,1.3,0.4c0.2,0.1,0.6,0.1,0.3-0.2
		c-0.6-0.5-1.4-0.8-2.3-0.9c-0.3,0-1.7,0.1-1.8,0.6l0,0C1040.4,312.2,1040.8,312.3,1041.3,312z"/>
	<path class="st17" d="M1050,349.1L1050,349.1l-0.2-0.2L1050,349.1z"/>
	<path class="st17" d="M1051.1,351.6c0.9,1.7,1,4.6,3.2,5.4c1.2,0.4,2.1,0.3,3.6,1.1c1,0.5,1.6,1.6,1.5,2.7c0.5-1.1-0.8-2.6-1.4-3
		c-0.9-0.5-1.9-0.8-2.9-1c-1.1-0.3-1.9-1.2-2.2-2.3c-0.3-1-0.6-1.9-1-2.9c-0.5-0.9-1.2-1.7-1.9-2.5l0,0l-0.2-0.2l0.2,0.2
		c-1.6-1.7-0.3-4.3-4.1-5.2c-2.7-0.7-1.7,3.3,0.2,4.3C1048,349.2,1049.9,349.3,1051.1,351.6z"/>
	<path class="st18" d="M1046,348.2c2,1.1,3.9,1.2,5.1,3.5c0.9,1.7,1,4.6,3.2,5.4c1.2,0.4,2.1,0.3,3.6,1.1c1,0.5,1.6,1.6,1.5,2.7
		c0.4-0.9-0.5-1.9-1.1-2.6c-1.2-0.6-2.5-1.2-3.8-1.5c-1.3-0.5-1.8-2-2.1-3.3c-0.3-0.9-0.7-1.7-1.1-2.6c-0.8-1.2-1.9-2.2-3.2-3
		c-2.1-1-2.4-2-2.4-2.6c-0.1-0.5,0-1,0.2-1.4C1043.1,343.2,1044.1,347.2,1046,348.2z"/>
	<path class="st19" d="M1046,348.2c2,1.1,3.9,1.2,5.1,3.5c0.9,1.7,1,4.6,3.2,5.4c0.9,0.3,1.6,0.3,2.5,0.6c-1.1-0.4-2.3-0.5-3.4-1.5
		c-0.7-0.7-0.9-2-1.4-3.2c-0.4-1.2-1.1-2.3-1.9-3.2c-0.9-0.8-1.9-1.4-3-1.9c-0.8-0.4-1.4-1-1.8-1.8c-0.5-0.7-0.5-1.7,0-2.4
		C1043.3,343.8,1044.3,347.3,1046,348.2z"/>
	<path class="st20" d="M1047.8,346c0.3,0.4,0.5,0.8,0.6,1.2c0.1,0.2,0.3,0.5,0.4,0.1c-0.1-0.8-0.4-1.6-1-2.2
		c-0.3-0.2-1.3-1.1-1.7-0.8l0,0c-0.3,0.5-0.1,0.8,0.4,1C1047,345.4,1047.5,345.7,1047.8,346z"/>
	<path class="st17" d="M1032,383.5l-0.3,0.1l0,0L1032,383.5z"/>
	<path class="st17" d="M1023.7,387.7c2.2,0.6,3.9-1.8,5.6-2.7c2.3-1.2,3.9-0.2,6.2,0c2,0.2,5.1-2.5,2.5-3.5c-3.6-1.3-4.1,1.5-6.3,2
		l0.3-0.1l-0.3,0.1l0,0c-1,0.2-2,0.6-3,1c-0.8,0.6-1.6,1.2-2.4,1.8c-0.9,0.7-2,0.9-3.1,0.6c-1-0.4-2-0.7-3-0.8
		c-0.8,0-2.7,0.5-2.9,1.8c0.6-0.9,1.7-1.5,2.8-1.4C1021.8,386.7,1022.5,387.4,1023.7,387.7z"/>
	<path class="st18" d="M1033.9,383.6c-1.5-0.1-2.9,0.2-4.3,0.7c-0.8,0.5-1.6,1-2.4,1.5c-1,0.8-2.2,1.9-3.6,1.5
		c-1.3-0.4-2.6-0.7-4-0.9c-0.9,0.2-2.2,0.6-2.3,1.5c0.6-0.9,1.7-1.5,2.8-1.4c1.7,0.1,2.4,0.8,3.6,1.1c2.2,0.6,3.9-1.8,5.6-2.7
		c2.3-1.2,3.9-0.2,6.2,0c2,0.2,5.1-2.5,2.5-3.5c-0.1,0.5-0.3,0.9-0.6,1.3C1037,383.3,1036.2,384,1033.9,383.6z"/>
	<path class="st19" d="M1034.7,384.2c-1.2-0.2-2.3-0.3-3.5-0.1c-1.2,0.3-2.4,0.8-3.4,1.6c-1,0.8-1.9,1.7-2.9,1.9
		c-1.4,0.2-2.5-0.4-3.6-0.7c0.9,0.2,1.5,0.7,2.4,0.9c2.2,0.6,3.9-1.8,5.6-2.7c2.3-1.2,3.9-0.2,6.2,0c1.9,0.2,4.6-2.1,3-3.2
		c0.1,0.9-0.5,1.7-1.3,2C1036.4,384.1,1035.5,384.3,1034.7,384.2z"/>
	<path class="st20" d="M1034,382.9c0.4-0.3,0.8-0.5,1.2-0.7c0.5-0.1,1-0.1,1.5,0.1s0.9,0,0.9-0.6l0,0c-0.2-0.4-1.5-0.3-1.8-0.2
		c-0.8,0.2-1.5,0.6-2,1.3C1033.4,383.1,1033.7,383,1034,382.9z"/>
	<path class="st17" d="M1038.4,366l-0.3-0.1l0,0L1038.4,366z"/>
	<path class="st17" d="M1029.5,363.4c1.2,1.9,4,1.4,5.9,1.9c2.5,0.7,3,2.5,4.5,4.3c1.3,1.6,5.4,1.7,4.2-0.8c-1.8-3.5-4-1.8-6-2.9
		l0.3,0.1l-0.3-0.1l0,0c-0.9-0.5-1.8-1-2.8-1.3c-1-0.2-2-0.3-3-0.4c-1.1-0.1-2.1-0.7-2.7-1.7c-0.4-1-1-1.8-1.7-2.6
		c-0.6-0.5-2.3-1.4-3.3-0.7c1.1-0.3,2.2,0.1,2.9,0.9C1028.8,361.3,1028.9,362.3,1029.5,363.4z"/>
	<path class="st18" d="M1029.5,363.4c1.2,1.9,4,1.4,5.9,1.9c2.5,0.7,3,2.5,4.5,4.3c1.3,1.6,5.4,1.7,4.2-0.8
		c-0.4,0.3-0.8,0.5-1.3,0.5c-0.7,0.1-1.6,0-3.1-1.8c-1-1-2.2-1.9-3.6-2.5c-0.9-0.2-1.8-0.4-2.7-0.5c-1.3-0.1-2.8-0.2-3.7-1.4
		c-0.6-1.2-1.4-2.4-2.3-3.4c-0.8-0.5-2-1.1-2.7-0.5c1.1-0.3,2.2,0.1,2.9,0.9C1028.8,361.3,1028.9,362.3,1029.5,363.4z"/>
	<path class="st19" d="M1035.4,365.3c2.5,0.7,3,2.5,4.5,4.3c1.2,1.5,4.8,1.7,4.4-0.3c-0.6,0.7-1.5,0.9-2.3,0.5
		c-0.8-0.3-1.6-0.8-2.1-1.4c-0.7-1-1.5-1.8-2.5-2.5c-1.1-0.6-2.3-1-3.5-1.2c-1.3-0.2-2.6-0.1-3.4-0.6c-1.2-0.8-1.5-2-2.2-3
		c0.5,0.8,0.7,1.5,1.2,2.3C1030.8,365.3,1033.6,364.8,1035.4,365.3z"/>
	<path class="st20" d="M1041.6,367.3c0.4,0.3,0.8,0.6,1,1.1c0.3,0.5,0.6,0.6,1,0.2l0,0c0.2-0.4-0.9-1.2-1.2-1.4
		c-0.7-0.4-1.6-0.6-2.4-0.5c-0.3,0.1-0.1,0.3,0.2,0.3C1040.7,367,1041.1,367.1,1041.6,367.3z"/>
	<path class="st21" d="M139.8,493.9c1.9,6.5,8.7,10.2,15.2,8.2l0,0l11.7-3.6c-2.3-7.9-4.6-15.8-6.9-23.6l-11.9,3.6
		C141.6,480.6,137.9,487.4,139.8,493.9z"/>
	<path class="st22" d="M149.8,481.2c0-0.3-0.1-0.6-0.1-0.9s-0.1-0.6-0.1-0.9l0,0c0-0.2,0-0.3-0.1-0.5c0-0.2,0-0.5,0.1-0.7v-0.1
		l-1.5,0.5c-6.5,2-10.1,8.9-8.1,15.4c1.6,5.1,6.2,8.5,11.5,8.6c-0.1-0.3-0.2-0.5-0.3-0.8c-5.7-1.8-9.4-7.1-8.1-13.3
		C143.8,485.2,146.6,482.8,149.8,481.2z"/>
	<path class="st23" d="M152.2,498.6c-1.4,3.4-5.2,2.2-7.4,2c3,2.1,6.8,2.7,10.3,1.6l11.7-3.6c-2.3-7.9-4.6-15.8-6.9-23.6l-11.9,3.6
		c-0.7,0.2-1.4,0.5-2,0.8C149.2,483.7,153,496.6,152.2,498.6z"/>
	<path class="st21" d="M366.3,434.3c5-1.5,8.1-6.5,6.6-11.2s-6.6-7.1-11.7-5.6l-58.8,17.9c-5,1.5-8.1,6.5-6.7,11.1s6.6,7.2,11.7,5.6
		L366.3,434.3z"/>
	<path class="st24" d="M353.2,436.2c-3.6,1.1-38.7,12.2-52.2,15.8c2.1,0.8,4.3,0.8,6.4,0.2l58.8-17.9c5-1.5,8.1-6.5,6.6-11.2
		s-6.6-7.1-11.7-5.6l-58.8,17.9c-2.6,0.8-4.8,2.7-6,5.1c5.2-4.1,12.1-6,18.5-7.5c9.6-2.4,19-5.1,28.5-7.7c6.4-1.8,12.9-4.1,19.5-5.5
		c2.5-0.5,5.5,0,6.9,2.4C375.3,431.2,358.2,434.7,353.2,436.2z"/>
	<path class="st25" d="M365.6,430.4c2.5-1.1,3.7-4.1,2.5-6.6c-0.9-2.1-3.1-3.3-5.4-2.9l-31.5,9.5c-2.5,1.1-3.6,4.1-2.5,6.6
		c0.9,2.1,3.1,3.2,5.3,2.9L365.6,430.4z M328.9,436.4c-0.6-2.1,0.6-4.3,2.6-4.9l31.5-9.6c2.2-0.4,4.2,1.1,4.6,3.3
		c0.3,1.8-0.7,3.6-2.3,4.4l-31.4,9.5C331.8,439.7,329.6,438.5,328.9,436.4L328.9,436.4L328.9,436.4z"/>
	<path class="st26" d="M333.8,437l-1.2-3.9c-0.1-0.4-0.5-0.6-0.9-0.5l0,0l0,0c-0.4,0.1-0.6,0.5-0.5,0.9l0,0l1.2,4
		c0.2,0.4,0.6,0.5,1,0.3C333.7,437.6,333.8,437.3,333.8,437L333.8,437z"/>
	<path class="st26" d="M365.7,427.3l-1.2-3.9c-0.1-0.4-0.5-0.6-0.9-0.5l0,0c-0.4,0.1-0.6,0.5-0.5,0.9l0,0l1.2,3.9
		c0.1,0.4,0.5,0.6,0.9,0.5C365.6,428.1,365.8,427.7,365.7,427.3L365.7,427.3z"/>
	<path class="st26" d="M349.7,432.1l-1.2-3.9c-0.2-0.4-0.6-0.5-0.9-0.4s-0.5,0.5-0.4,0.8l0,0l1.2,3.9c0.1,0.4,0.4,0.7,0.8,0.6
		s0.7-0.4,0.6-0.8C349.8,432.3,349.8,432.2,349.7,432.1C349.7,432.2,349.7,432.2,349.7,432.1L349.7,432.1z"/>
	<path class="st26" d="M341.7,434.6l-1.2-3.9c-0.1-0.4-0.4-0.6-0.8-0.6c-0.4,0.1-0.6,0.4-0.6,0.8c0,0.1,0,0.1,0,0.2l0,0l1.2,3.9
		c0.1,0.4,0.5,0.6,0.8,0.5l0,0l0,0C341.6,435.3,341.8,434.9,341.7,434.6z"/>
	<path class="st26" d="M357.7,429.7l-1.2-3.9c-0.1-0.4-0.5-0.6-0.9-0.5s-0.6,0.5-0.5,0.9l1.2,3.9c0.1,0.4,0.6,0.5,0.9,0.4
		C357.6,430.4,357.8,430.1,357.7,429.7L357.7,429.7z"/>
	<path class="st26" d="M361.7,428.5l-1.2-3.9c-0.1-0.4-0.5-0.6-0.9-0.5s-0.6,0.5-0.5,0.9l1.2,3.9c0.1,0.4,0.5,0.6,0.9,0.5
		S361.8,428.9,361.7,428.5z"/>
	<path class="st26" d="M353.7,430.9l-1.2-3.9c-0.1-0.4-0.5-0.6-0.8-0.5l0,0l0,0c-0.4,0.1-0.6,0.5-0.5,0.9l1.2,3.9
		c0.1,0.4,0.5,0.6,0.9,0.5C353.6,431.8,353.8,431.4,353.7,430.9C353.7,431,353.7,431,353.7,430.9L353.7,430.9z"/>
	<path class="st26" d="M345.7,433.4l-1.2-3.9c-0.1-0.4-0.5-0.6-0.9-0.5s-0.6,0.5-0.5,0.9l0,0l1.2,3.9c0.1,0.4,0.5,0.6,0.9,0.5
		C345.6,434.1,345.8,433.7,345.7,433.4C345.7,433.3,345.7,433.3,345.7,433.4L345.7,433.4z"/>
	<path class="st26" d="M337.7,435.8l-1.2-3.9c-0.1-0.4-0.5-0.6-0.9-0.5s-0.6,0.5-0.5,0.9l1.2,3.9c0.1,0.4,0.5,0.6,0.9,0.5
		C337.6,436.6,337.9,436.2,337.7,435.8z"/>
	<path class="st27" d="M302.4,452.4h0.1c0.5,0.1,0.9,0.1,1.4,0.2h1.6c0.6-0.1,1.2-0.2,1.8-0.4l4.8-1.5c1.3-6.3,0.8-12.3-5.2-16.8
		l-4.6,1.4c-0.7,0.2-1.3,0.5-1.9,0.8c-0.1,0.1-0.2,0.1-0.3,0.2c-0.5,0.3-0.9,0.6-1.4,1l-0.2,0.2c-0.5,0.4-0.9,0.8-1.2,1.3l0,0
		c-0.4,0.5-0.7,1-1,1.6l0,0c-1,1.9-1.2,4.1-0.6,6.1C296.8,449.6,299.3,451.9,302.4,452.4z"/>
	<path class="st21" d="M310.8,442c-1.9-6.5-8.7-10.2-15.2-8.2c0,0,0,0-0.1,0l0,0l-11.9,3.6c2.4,7.8,4.8,15.7,7.2,23.5l11.7-3.6
		C309.1,455.4,312.8,448.5,310.8,442L310.8,442z"/>
	<path class="st22" d="M305.7,454.9c0.1,0.3,0.1,0.5,0.2,0.8c5.6-3.8,7.1-11.4,3.4-17c-3-4.5-8.6-6.5-13.7-4.9l-1.5,0.5v0.1
		c0.2,0.1,0.4,0.3,0.5,0.5c0.1,0.1,0.1,0.3,0.2,0.4l0,0c0.1,0.3,0.3,0.6,0.4,0.8s0.3,0.5,0.4,0.8c3.6-0.4,7.2,0,9.6,2.4
		C309.7,443.8,309.4,450.2,305.7,454.9z"/>
	<path class="st28" d="M297.5,433.4c-0.7,0.1-1.3,0.2-2,0.4l-11.9,3.6c2.4,7.8,4.8,15.7,7.2,23.5l11.7-3.6c2.4-0.8,4.5-2.3,6-4.3
		c-1.3,0.7-2.8,0.8-4.2,0.2c-0.8-0.2-1.5-0.7-1.9-1.3l-0.1-0.1c-1.9-2.1-2.1-5.6-2.7-8.2C298.9,440.3,298.2,436.9,297.5,433.4z"/>
	<polygon class="st21" points="147.1,475.4 294.5,430.6 303.5,460.6 156.1,505.3 	"/>
	<path class="st24" d="M303.5,460.5l-9-29.9l-147.4,44.7l9,30L303.5,460.5z M152.3,477.3c3.4-2.7,14.5-5.7,19.9-7
		c6.4-2.2,36.6-9.7,45.2-12c5.3-1.5,44.2-14.6,49.6-16.2c1.8-0.5,22.7-9,27.1-4.2c3.4,3.7,5.3,12.8,4.7,17.6s-27.2,13.4-36.2,15.3
		c-11.2,2.3-22.1,6.6-33.1,9.9c-12.6,3.9-25.3,7.1-37.8,11.5c-10.7,3.7-21,8.1-32.3,9c-0.8,0.1-2-1.1-2.2-1.8
		C155.9,495.2,148.9,479.9,152.3,477.3z"/>
	<path class="st29" d="M276.4,443.9L228,458.6c-4.3,1.4-6.7,5.9-5.4,10.3c1.3,4.3,5.8,6.7,10.1,5.4l48.4-14.7
		c4.3-1.4,6.6-6,5.2-10.3c-1.3-4.1-5.6-6.5-9.8-5.4H276.4z"/>
	
		<linearGradient id="SVGID_3_" gradientUnits="userSpaceOnUse" x1="-326.3107" y1="2750.0208" x2="-259.9107" y2="2750.0208" gradientTransform="matrix(0.96 -0.29 0.29 0.96 -261.46 -2265.99)">
		<stop  offset="0" style="stop-color:#72A5A5"/>
		<stop  offset="0.78" style="stop-color:#E8FCFC"/>
		<stop  offset="1" style="stop-color:#FFFFFF"/>
	</linearGradient>
	<path class="st30" d="M281.1,459.3c4.2-1.4,6.5-5.8,5.1-10c-1.3-4-5.6-6.3-9.7-5.2l-48.4,14.7c-4.2,1.3-6.6,5.7-5.3,9.9
		c1.3,4.2,5.7,6.6,9.9,5.3L281.1,459.3z"/>
	<path class="st29" d="M277.1,459c3.5-0.8,5.8-4.2,5-7.8c-0.8-3.5-4.2-5.8-7.8-5c-0.3,0.1-0.7,0.2-1,0.3L232,459.1
		c-3.5,0.7-5.8,4.2-5.1,7.7s4.2,5.8,7.7,5.1c0.4-0.1,0.8-0.2,1.1-0.3L277.1,459z"/>
	<path class="st12" d="M160.2,481.1c6.5-1.6,26.4-6.5,32.5-9.1c5-2.1,13.6-3.2,16.7-7.5c-14.6,3.2-28.8,7.3-43.3,11.8
		c-2.4,0.7-8.7,1.3-10.5,3.2c-2.8,2.8-0.7,5.8,0.4,9.5c2,6.6,3,11.7,16.3,7.1c0.2-3.7-10.3,3.6-11.8-3.1S155,482.4,160.2,481.1z"/>
	
		<linearGradient id="SVGID_4_" gradientUnits="userSpaceOnUse" x1="-321.5599" y1="2749.9993" x2="-264.8999" y2="2749.9993" gradientTransform="matrix(0.96 -0.29 0.29 0.96 -261.46 -2265.99)">
		<stop  offset="0" style="stop-color:#E8FCFC"/>
		<stop  offset="1" style="stop-color:#72A5A5"/>
	</linearGradient>
	<path class="st31" d="M277,458.8c3.4-0.8,5.4-4.3,4.6-7.6c-0.8-3.2-3.9-5.2-7.2-4.7c-0.3,0.1-0.7,0.2-1,0.3l-41.3,12.5
		c-3.4,0.7-5.6,4-4.9,7.4s4,5.6,7.4,4.9c0.3-0.1,0.7-0.2,1-0.3L277,458.8z"/>
	<polygon class="st32" points="242.5,456.2 246.4,455 250,467 246.1,468.2 	"/>
	<polygon class="st32" points="259.1,451.2 262.9,450 266.5,462 262.7,463.2 	"/>
	<path class="st33" d="M540,190.1L540,190.1l1.5,0.8L540,190.1z"/>
	<path class="st33" d="M528.9,179.2c-8.5-7.4-14.4-22.8-27.7-22.1c-7.2,0.3-12,3.3-21.6,1.8c-5.6-0.9-11.9-5-13.6-11.1
		c-0.4,7.2,9.1,12.4,13.7,13.5c6.3,1.5,11.4-0.3,17.9-0.8c6.7-0.5,11.7,2,16.3,7.3c3.9,4.4,6.7,9.5,10.9,13.3s9.8,6.4,15.2,9.2v-0.1
		l1.5,0.8l-1.4-0.8c11.7,5.7,10.1,22.3,32.5,19.1c16.1-2.3,2.8-21.8-9-22.9C550.3,185.1,539.8,188.8,528.9,179.2z"/>
	<path class="st34" d="M563.6,186.3c-13.3-1.3-23.7,2.4-34.7-7.2c-8.5-7.4-14.4-22.8-27.7-22.1c-7.2,0.3-12,3.3-21.6,1.8
		c-5.6-0.9-11.9-5-13.6-11.1c-0.3,5.6,6.3,9.2,11,11.4c6.5,1.7,19.7-0.2,23.6-0.3c8.2-0.2,13.7,7,17.9,13.1
		c3.8,3.7,5.5,7.2,11.1,11.4s18.1,8.7,23,9c13.5,0.8,16.8,5.4,18.4,8.9c2.7,5.8,1.2,8.1,1.5,8C588.7,207,575.4,187.4,563.6,186.3z"
		/>
	<path class="st35" d="M563.6,186.3c-13.3-1.3-23.7,2.4-34.7-7.2c-8.5-7.4-14.4-22.8-27.7-22.1c-5.2,0.2-9.3,1.9-14.7,2.2
		c6.7-0.3,13.6-2.7,21.2,0.3c5.3,2.1,8.8,8.5,13.5,14.1c4.6,5.4,10.3,9.8,16.7,13c5.6,2.7,12.8,2.8,19.8,3.4
		c4.9,0.4,9.7,2.3,13.6,5.4c4.2,3.2,6.3,8.9,4.5,13C586.6,204,574.5,187.4,563.6,186.3z"/>
	<path class="st36" d="M557.6,201.9c-2.5-1.3-3.8-3.4-5.7-5.3c-1.1-1-2.6-1.8-2.1,0.3c0.3,1.2,4.5,8,9.8,9.8c2,0.6,9,3,10.6,0.8
		l0.1-0.2c0.7-3.3-0.9-4.6-4.2-4.3C563,203.4,560.3,203.4,557.6,201.9z"/>
	<path class="st33" d="M576.2,406.4L576.2,406.4l1.5-0.8L576.2,406.4z"/>
	<path class="st33" d="M565.1,417c-8.4,7.2-14.5,22.2-27.5,21.4c-7.1-0.4-11.8-3.4-21.2-2c-5.5,0.8-11.8,4.7-13.5,10.8
		c-0.3-7.1,9.2-12,13.7-13.1c6.3-1.4,11.2,0.5,17.6,1c6.6,0.6,11.5-1.8,16.2-6.9c3.9-4.2,6.7-9.2,11-12.9s9.8-6.2,15-8.8v0.1
		l1.5-0.8l-1.5,0.7c11.5-5.5,10.2-21.8,32.2-18.4c15.8,2.4,2.4,21.4-9.2,22.4C586.2,411.5,576,407.7,565.1,417z"/>
	<path class="st34" d="M599.3,410.4c-13.1,1.1-23.3-2.7-34.2,6.6c-8.4,7.2-14.5,22.2-27.5,21.4c-7.1-0.4-11.8-3.4-21.2-2.1
		c-5.5,0.8-11.8,4.7-13.5,10.8c-0.2-5.5,6.3-9,11-11c6.4-1.6,19.3,0.4,23.3,0.5c8.1,0.3,13.5-6.8,17.8-12.6c3.8-3.5,5.5-7,11.1-11.1
		s17.9-8.3,22.7-8.6c13.3-0.6,16.6-5.1,18.3-8.5c2.8-5.7,1.2-7.9,1.6-7.9C624.3,390.5,611,409.4,599.3,410.4z"/>
	<path class="st35" d="M599.3,410.4c-13.1,1.1-23.3-2.7-34.2,6.6c-8.4,7.2-14.5,22.2-27.5,21.4c-5.1-0.3-9.1-2-14.4-2.3
		c6.5,0.3,13.3,2.8,20.9,0c5.3-2,8.8-8.3,13.5-13.7c4.6-5.2,10.3-9.5,16.6-12.6c5.6-2.6,12.6-2.6,19.6-3c4.9-0.4,9.5-2.1,13.4-5.1
		c4.2-3.1,6.3-8.7,4.6-12.7C622.2,393.4,610,409.5,599.3,410.4z"/>
	<path class="st36" d="M593.6,395c-2.5,1.3-3.8,3.3-5.7,5.1c-1.1,1-2.6,1.8-2.1-0.3c0.3-1.1,4.5-7.8,9.8-9.5
		c1.9-0.6,8.9-2.9,10.4-0.7l0.1,0.2c0.6,3.2-1,4.5-4.2,4.1C599,393.6,596.3,393.6,593.6,395z"/>
	<path class="st33" d="M1214.3,356.8L1214.3,356.8c0.1,0.5,0.2,1,0.4,1.5L1214.3,356.8z"/>
	<path class="st33" d="M1207.1,345c-4.6-8.7-16.5-16.9-13.4-28c1.7-6.1,5.2-9.6,5.7-18c0.3-4.9-1.9-11.2-6.8-13.8
		c6.2,1.1,8.7,10.3,8.8,14.4c0.1,5.7-2.5,9.6-4.2,15.1c-1.8,5.6-0.6,10.4,3,15.4c3,4.2,6.8,7.6,9.2,12c2.4,4.6,3.5,9.7,4.8,14.8
		v-0.1l0.4,1.5c-0.1-0.5-0.3-0.9-0.4-1.4c2.6,11.1,17,13.1,9.9,31.6c-5,13.3-19-2-17.7-12.3C1208,364.5,1213.2,356.3,1207.1,345z"/>
	<path class="st34" d="M1206.5,376.1c1.5-11.6,6.7-19.8,0.6-31c-4.6-8.7-16.5-16.9-13.4-28c1.7-6.1,5.2-9.6,5.7-18
		c0.3-4.9-1.9-11.2-6.8-13.8c4.8,0.9,6.6,7.2,7.5,11.7c0.2,5.9-4,16.7-4.8,20.1c-1.7,7,3.4,13,7.6,17.9c2.4,4.1,5,6.1,7.6,11.8
		s3.9,17.1,3.2,21.4c-1.9,11.7,1.3,15.4,3.9,17.5c4.4,3.5,6.6,2.6,6.5,2.9C1219.2,401.7,1205.2,386.4,1206.5,376.1z"/>
	<path class="st35" d="M1206.5,376.1c1.5-11.6,6.7-19.8,0.6-31c-4.6-8.7-16.5-16.9-13.4-28c1.2-4.4,3.4-7.5,4.7-12.1
		c-1.5,5.6-4.9,11.1-3.9,18.1c0.7,4.9,5.5,9.3,9.4,14.4c3.7,5,6.3,10.8,7.8,16.8c1.2,5.4-0.1,11.5-1,17.6c-0.6,4.3,0.1,8.7,1.9,12.6
		c1.9,4.2,6.3,7.1,10.2,6.4C1217,399.3,1205.3,385.6,1206.5,376.1z"/>
	<path class="st36" d="M1220.9,374.1c-0.6-2.4-2.2-3.9-3.4-6c-0.6-1.1-1-2.6,0.7-1.8c0.9,0.5,5.9,5.4,6.4,10.3
		c0.2,1.8,0.8,8.3-1.3,9.2h-0.2c-2.9-0.1-3.8-1.7-2.8-4.5C1221.3,379.1,1221.5,376.5,1220.9,374.1z"/>
	<path class="st33" d="M232.1,668.8L232.1,668.8c0.1,0.5,0.2,1,0.4,1.5L232.1,668.8z"/>
	<path class="st33" d="M225,657.1c-4.6-8.7-16.5-16.9-13.4-28c1.7-6.1,5.1-9.6,5.7-18c0.3-4.9-1.9-11.2-6.8-13.8
		c6.2,1.1,8.7,10.3,8.8,14.4c0.1,5.7-2.5,9.7-4.2,15.1c-1.7,5.6-0.6,10.4,3,15.4c3,4.2,6.8,7.6,9.2,12c2.4,4.6,3.5,9.7,4.9,14.8
		v-0.1l0.4,1.5c-0.1-0.5-0.2-0.9-0.4-1.4c2.6,11.2,17,13.1,9.9,31.6c-5,13.3-19-2-17.7-12.3C225.8,676.6,231,668.4,225,657.1z"/>
	<path class="st34" d="M224.3,688.1c1.5-11.6,6.7-19.8,0.6-31c-4.6-8.7-16.5-16.9-13.4-28c1.7-6.1,5.1-9.6,5.7-18
		c0.3-4.9-1.9-11.2-6.8-13.8c4.8,0.9,6.6,7.2,7.5,11.7c0.2,5.9-4,16.7-4.8,20.1c-1.8,7,3.4,13,7.6,17.9c2.4,4.1,5,6.1,7.6,11.8
		c2.6,5.6,3.9,17.2,3.2,21.4c-1.9,11.7,1.3,15.4,3.9,17.5c4.4,3.5,6.6,2.6,6.5,2.9C237,713.7,223,698.4,224.3,688.1z"/>
	<path class="st35" d="M224.3,688.1c1.5-11.6,6.7-19.8,0.6-31c-4.6-8.7-16.5-16.9-13.4-28c1.2-4.4,3.4-7.5,4.7-12.1
		c-1.5,5.6-4.9,11.1-3.9,18.2c0.7,4.9,5.5,9.3,9.4,14.4c3.7,5,6.4,10.8,7.8,16.8c1.2,5.4-0.1,11.5-1,17.6c-0.6,4.3,0.1,8.7,1.9,12.6
		c1.9,4.2,6.3,7.1,10.2,6.4C234.9,711.3,223.1,697.6,224.3,688.1z"/>
	<path class="st36" d="M238.7,686.1c-0.6-2.4-2.2-3.9-3.4-6c-0.6-1.1-1-2.6,0.7-1.8c0.9,0.5,5.9,5.4,6.4,10.3
		c0.2,1.8,0.8,8.3-1.3,9.2h-0.2c-2.9-0.1-3.7-1.7-2.8-4.5C239.1,691.1,239.3,688.6,238.7,686.1z"/>
	<path class="st33" d="M848.2,136.7L848.2,136.7l-1.5,0.7L848.2,136.7z"/>
	<path class="st33" d="M863.6,134c10.9-2.6,27,1.5,34.1-9.6c3.9-6.1,4.2-11.7,11-18.6c4-4,11-6.9,17-4.6c-5.6-4.5-15.4,0.2-19,3.3
		c-4.9,4.3-6.3,9.4-9.6,15c-3.5,5.8-8.4,8.3-15.4,9.1c-5.8,0.6-11.6-0.1-17.2,1.2s-10.9,4.3-16.3,7h0.1l-1.5,0.8l1.5-0.7
		c-11.4,6.2-24.1-4.7-34.4,15.4c-7.4,14.4,16.2,14.9,24,6C846.4,148,849.4,137.3,863.6,134z"/>
	<path class="st34" d="M837.7,158.1c8.7-10,11.7-20.7,25.9-24.1c10.9-2.6,27,1.5,34.1-9.6c3.9-6.1,4.2-11.7,11-18.6
		c4-4,11-6.9,17-4.6c-4.4-3.5-11.2-0.2-15.7,2.3c-5.2,4.2-11.2,16.1-13.5,19.4c-4.6,6.8-13.7,7-21,6.9c-5.2,1-9.1,0.3-15.8,2.4
		s-17.6,9.6-20.6,13.5c-8.5,10.5-14.1,10.5-17.9,9.8c-6.4-1.2-7.3-3.8-7.4-3.4C806.3,166.5,829.9,167,837.7,158.1z"/>
	<path class="st35" d="M837.7,158.1c8.7-10,11.7-20.7,25.9-24.1c10.9-2.6,27,1.5,34.1-9.6c2.8-4.4,3.8-8.6,6.7-13.2
		c-3.6,5.6-5.7,12.6-12.5,17.1c-4.8,3.1-12.1,2.2-19.4,2.8c-7.1,0.6-14,2.7-20.3,6c-5.5,3-9.7,8.8-14.2,14.2
		c-3.2,3.8-7.5,6.5-12.2,7.9c-5,1.6-10.9-0.1-13.2-3.9C809.9,166.5,830.5,166.3,837.7,158.1z"/>
	<path class="st36" d="M828.4,144.1c2.5-1.2,5-1.1,7.6-1.6c1.4-0.3,3-1.1,1-1.9c-1.1-0.4-9.1-1-13.7,2.3c-1.7,1.2-7.7,5.6-6.8,8.1
		l0.1,0.2c2.3,2.4,4.3,1.9,5.9-0.9C824,147.7,825.7,145.4,828.4,144.1z"/>
	<path class="st33" d="M844.3,391.4C844.3,391.4,844.2,391.4,844.3,391.4c-0.6-0.2-1-0.5-1.5-0.7L844.3,391.4z"/>
	<path class="st33" d="M859.5,393.9c10.8,2.5,26.5-1.7,33.7,9.1c3.9,5.9,4.4,11.5,11.2,18.1c4,3.9,10.9,6.6,16.8,4.3
		c-5.5,4.5-15.2-0.1-18.7-3.1c-4.9-4.1-6.4-9.2-9.8-14.7c-3.5-5.6-8.4-8.1-15.3-8.8c-5.7-0.6-11.4,0.2-16.9-1s-10.8-4.1-16.2-6.7
		h0.1l-1.5-0.7c0.5,0.2,1,0.5,1.4,0.7c-11.3-6-23.6,4.9-34.1-14.7c-7.6-14.1,15.6-14.8,23.4-6.1
		C842.2,380.4,845.4,390.8,859.5,393.9z"/>
	<path class="st34" d="M833.5,370.6c8.8,9.8,12,20.2,26,23.4c10.8,2.5,26.5-1.7,33.7,9.1c3.9,5.9,4.4,11.5,11.2,18.1
		c4,3.9,10.9,6.6,16.8,4.3c-4.3,3.5-11,0.3-15.5-2.2c-5.2-4.1-11.3-15.7-13.6-18.9c-4.7-6.6-13.6-6.7-20.8-6.6
		c-5.2-0.9-8.9-0.2-15.6-2.2s-17.5-9.3-20.6-13c-8.6-10.2-14.1-10.2-17.9-9.5c-6.2,1.2-7.1,3.8-7.3,3.4
		C802.5,362.6,825.7,361.9,833.5,370.6z"/>
	<path class="st35" d="M833.5,370.6c8.8,9.8,12,20.2,26,23.4c10.8,2.5,26.5-1.7,33.7,9.1c2.9,4.3,3.9,8.4,6.9,12.9
		c-3.7-5.5-5.8-12.4-12.6-16.6c-4.7-3-11.9-2.1-19.1-2.6c-7-0.6-13.8-2.5-20.1-5.7c-5.5-2.9-9.7-8.5-14.3-13.8
		c-3.2-3.7-7.5-6.3-12.2-7.6c-5-1.5-10.8,0.2-12.9,4C806,362.5,826.3,362.5,833.5,370.6z"/>
	<path class="st36" d="M824.6,384.3c2.5,1.2,5,1,7.5,1.5c1.4,0.3,3,1,1,1.9c-1.1,0.4-9,1.1-13.5-2.1c-1.7-1.1-7.6-5.4-6.9-7.9
		l0.1-0.2c2.2-2.4,4.2-1.9,5.9,0.9C820.3,380.9,821.9,383.1,824.6,384.3z"/>
	<path class="st33" d="M489.2,583.4C489.2,583.4,489.1,583.4,489.2,583.4c-0.4-0.5-0.7-1-1-1.4L489.2,583.4z"/>
	<path class="st33" d="M501.1,593.1c8.1,7.5,23.8,11.8,24.6,24.8c0.5,7.1-1.9,12.1,0.6,21.3c1.5,5.4,6.1,11.2,12.4,12.1
		c-7,1.2-13.1-7.7-14.7-12c-2.2-6-0.9-11.2-1.1-17.6c-0.2-6.6-3.2-11.2-8.9-15.2c-4.7-3.3-10-5.5-14.2-9.3s-7.3-9-10.6-13.9l0.1,0.1
		l-1-1.4c0.3,0.4,0.6,0.9,0.9,1.3c-6.9-10.8-22.9-7.6-22.2-29.8c0.4-16,20.9-5,23.3,6.4C492.9,572.8,490.5,583.4,501.1,593.1z"/>
	<path class="st34" d="M490.2,559.9c2.7,12.8,0.3,23.5,10.8,33.2c8.1,7.5,23.8,11.8,24.6,24.8c0.5,7.1-1.9,12.1,0.6,21.3
		c1.5,5.4,6.1,11.2,12.4,12.1c-5.4,0.9-9.7-5.2-12.3-9.6c-2.4-6.1-2-19.3-2.4-23.2c-0.7-8.1-8.4-12.6-14.7-16.1
		c-4-3.4-7.6-4.6-12.4-9.7s-10.5-16.8-11.3-21.5c-2.3-13.1-7.1-15.9-10.7-17.1c-6-2.1-8-0.3-8-0.7
		C467.3,537.5,487.8,548.5,490.2,559.9z"/>
	<path class="st35" d="M490.2,559.9c2.7,12.8,0.3,23.5,10.8,33.2c8.1,7.5,23.8,11.8,24.6,24.8c0.3,5.2-0.8,9.3-0.5,14.6
		c-0.5-6.5,1.1-13.6-2.7-20.7c-2.6-5-9.3-7.8-15.3-11.8c-5.8-4-10.7-9.1-14.5-14.9c-3.3-5.2-4.1-12.2-5.5-19.1
		c-1-4.8-3.3-9.2-6.7-12.7c-3.6-3.8-9.4-5.2-13.2-3C470.5,539.2,488,549.4,490.2,559.9z"/>
	<path class="st36" d="M475.7,567.4c1.6,2.3,3.8,3.3,5.8,5c1.1,1,2.1,2.4,0,2.1c-1.1-0.2-8.3-3.5-10.6-8.6c-0.9-1.8-3.9-8.5-2-10.3
		l0.2-0.1c3.1-1,4.6,0.4,4.6,3.7C473.7,562.2,474,565,475.7,567.4z"/>
	<path class="st33" d="M160.8,209.1V209c0.1-0.5,0.1-0.9,0.2-1.4L160.8,209.1z"/>
	<path class="st33" d="M163.1,222.6c1.1,9.8,9.1,21.9,2.1,31c-3.8,5-8.3,7-12,14.6c-2.1,4.5-2.4,11.1,1.2,15.4
		c-5.3-3.3-4.3-12.8-2.8-16.6c2-5.3,5.9-8,9.4-12.4s4.4-9.4,2.9-15.4c-1.2-5-3.5-9.6-4-14.6s0.3-10.3,1-15.5v0.1l0.2-1.5
		c-0.1,0.5-0.1,0.9-0.2,1.4c1.7-11.3-10.9-18.5,2.5-33c9.6-10.4,16.9,9,11.9,18C169.4,204.3,161.6,209.9,163.1,222.6z"/>
	<path class="st34" d="M175.1,194.1c-5.7,10.1-13.5,15.9-12.1,28.6c1.1,9.8,9.1,21.9,2.1,31c-3.8,5-8.3,7-12,14.6
		c-2.1,4.5-2.4,11.1,1.2,15.4c-4.1-2.6-3.4-9.1-2.6-13.7c1.9-5.5,9.9-14,11.9-16.9c4.2-5.8,1.7-13.4-0.5-19.4
		c-0.7-4.6-2.4-7.6-2.7-13.8s2.7-17.4,5-21c6.1-10.1,4.5-14.8,2.8-17.7c-2.8-4.9-5.2-4.9-5-5.1C172.9,165.6,180.2,185,175.1,194.1z"
		/>
	<path class="st35" d="M175.1,194.1c-5.7,10.1-13.5,15.9-12.1,28.6c1.1,9.8,9.1,21.9,2.1,31c-2.8,3.6-5.9,5.7-8.9,9.5
		c3.5-4.7,8.6-8.4,10.3-15.4c1.1-4.9-1.7-10.6-3.4-16.9c-1.5-6.1-1.9-12.4-1-18.6c0.9-5.4,4.4-10.6,7.4-16c2.1-3.8,3.1-8.1,2.9-12.4
		c-0.2-4.6-3.2-9-7.1-9.8C174,168.6,179.8,185.7,175.1,194.1z"/>
	<path class="st36" d="M161,190.5c-0.3,2.5,0.6,4.5,0.9,6.8c0.2,1.3,0,2.8-1.3,1.4c-0.7-0.8-3.5-7.2-2.1-12c0.5-1.7,2.3-8,4.6-8.1
		h0.2c2.7,1.2,2.8,3,1,5.2C162.7,185.9,161.3,187.9,161,190.5z"/>
	<path class="st33" d="M988.9,585.5L988.9,585.5l1.5-0.9L988.9,585.5z"/>
	<path class="st33" d="M973.9,589.7c-10.6,3.7-26.9,1.2-33,13c-3.3,6.4-3.1,12.1-9.1,19.6c-3.5,4.4-10.2,7.9-16.4,6.3
		c6,3.9,15.3-1.8,18.5-5.2c4.5-4.7,5.4-10,8.2-15.9c2.9-6.1,7.5-9.2,14.4-10.6c5.7-1.2,11.5-1.1,17-2.9s10.5-5.4,15.5-8.6h-0.1
		l1.5-0.9l-1.4,0.9c10.8-7.3,24.4,2.3,32.7-18.7c6-15.1-17.6-13.2-24.4-3.5C989.7,574,987.7,585,973.9,589.7z"/>
	<path class="st34" d="M997.3,563.2c-7.7,10.9-9.7,21.8-23.5,26.6c-10.6,3.7-26.9,1.2-33,13c-3.3,6.4-3.1,12.1-9.1,19.6
		c-3.5,4.4-10.2,7.9-16.4,6.3c4.7,3.1,11.1-0.9,15.4-3.9c4.7-4.8,9.6-17.2,11.5-20.7c3.9-7.2,12.9-8.3,20.2-9c5.1-1.5,9-1.2,15.5-4
		s16.5-11.4,19.3-15.5c7.4-11.3,13-11.9,16.9-11.6c6.4,0.5,7.6,3,7.7,2.7C1027.7,551.6,1004.2,553.5,997.3,563.2z"/>
	<path class="st35" d="M997.3,563.2c-7.7,10.9-9.7,21.8-23.5,26.6c-10.6,3.7-26.9,1.2-33,13c-2.4,4.7-3,9-5.4,13.9
		c3.1-5.9,4.4-13.2,10.8-18.3c4.4-3.6,11.8-3.4,19-4.7c7-1.3,13.6-4.1,19.6-8c5.2-3.5,8.8-9.7,12.8-15.5c2.8-4.1,6.8-7.2,11.4-9.1
		c4.9-2.1,10.9-1,13.5,2.6C1024.1,552,1003.7,554.2,997.3,563.2z"/>
	<path class="st36" d="M1007.9,576.1c-2.4,1.5-4.8,1.5-7.4,2.3c-1.4,0.4-2.9,1.4-0.8,2c1.1,0.3,9.2,0.1,13.4-3.6
		c1.5-1.4,7.1-6.3,6-8.8l-0.1-0.2c-2.5-2.2-4.5-1.5-5.8,1.5C1011.9,572.1,1010.5,574.5,1007.9,576.1z"/>
</g>
<rect x="263.8" y="-430.1" class="st37" width="132.4" height="125.4"/>
<rect x="75.8" y="-430.1" class="st38" width="132.4" height="125.4"/>
<rect x="454.8" y="-430.1" class="st39" width="132.4" height="125.4"/>
<rect x="645.8" y="-430.1" class="st40" width="132.4" height="125.4"/>
<rect x="836.8" y="-430.1" class="st41" width="132.4" height="125.4"/>
<rect x="1027.9" y="-430.1" class="st42" width="132.4" height="125.4"/>
<rect x="1216.9" y="-430.1" class="st43" width="132.4" height="125.4"/>
<rect x="1408.9" y="-430.1" class="st44" width="132.4" height="125.4"/>
<rect x="263.8" y="-240.1" class="st45" width="132.4" height="125.4"/>
<rect x="75.8" y="-240.1" class="st46" width="132.4" height="125.4"/>
<rect x="454.8" y="-240.1" class="st47" width="132.4" height="125.4"/>
<rect x="645.8" y="-240.1" class="st48" width="132.4" height="125.4"/>
<rect x="836.8" y="-240.1" class="st49" width="132.4" height="125.4"/>
<rect x="1027.9" y="-240.1" class="st50" width="132.4" height="125.4"/>
<rect x="1216.9" y="-240.1" class="st51" width="132.4" height="125.4"/>
<linearGradient id="SVGID_5_" gradientUnits="userSpaceOnUse" x1="688.1" y1="-0.7102" x2="688.1" y2="766.2523" gradientTransform="matrix(1 0 0 -1 0 777.8898)">
	<stop  offset="2.494184e-02" style="stop-color:#00594E"/>
	<stop  offset="0.3798" style="stop-color:#00796B;stop-opacity:0"/>
</linearGradient>
<rect y="0" class="st52" width="1376.2" height="778.6"/>
</svg>
