<?xml version="1.0" encoding="utf-8"?>
<!-- Generator: Adobe Illustrator 25.0.1, SVG Export Plug-In . SVG Version: 6.00 Build 0)  -->
<svg version="1.1" id="Layer_1" xmlns="http://www.w3.org/2000/svg" xmlns:xlink="http://www.w3.org/1999/xlink" x="0px" y="0px"
	 viewBox="0 0 82.6 84.2" style="enable-background:new 0 0 82.6 84.2;" xml:space="preserve">
<style type="text/css">
	.st0{opacity:0.6;}
	.st1{fill:#3A0155;}
	.st2{fill:url(#SVGID_1_);}
	.st3{fill:#181019;}
	.st4{opacity:0.3;fill:#181019;enable-background:new    ;}
	.st5{fill:#312033;}
	.st6{fill:#CB89F0;}
	.st7{fill:#9E53D8;}
	.st8{clip-path:url(#SVGID_3_);}
	.st9{opacity:0.3;}
	.st10{fill:url(#SVGID_4_);}
	.st11{fill:#6D00BA;}
	.st12{fill:#8A18ED;}
	.st13{fill:#169AC7;}
	.st14{fill:#FFD03B;}
	.st15{fill:#EA82F5;}
	.st16{fill:#FFACF6;}
	.st17{fill:#C334CE;}
	.st18{fill:#E467E8;}
	.st19{opacity:0.1;}
	.st20{fill:#FFAFF5;}
	.st21{fill:#EC84F6;}
	.st22{fill:#FECFC4;}
	.st23{fill:#FFE9BC;}
	.st24{fill:#711AA3;}
	.st25{fill:#962DCC;}
	.st26{fill:url(#SVGID_5_);}
	.st27{opacity:0.3;fill:#FFDDFF;}
	.st28{fill:#FFDDFF;}
	.st29{fill:#1FC3DF;}
</style>
<g>
	<g id="Layer_2_1_">
		<g id="_0">
			<g id="_16">
				<g id="_16-2">
					<g class="st0">
						<path class="st1" d="M81.6,66.4c1.3,0.8,1.3,2,0,2.7l-25,14.6c-1.5,0.7-3.2,0.7-4.7,0L1,54.3c-1.3-0.8-1.3-2,0-2.7L26,37
							c1.5-0.8,3.2-0.8,4.7,0L81.6,66.4z"/>
					</g>
					
						<linearGradient id="SVGID_1_" gradientUnits="userSpaceOnUse" x1="0" y1="22.3836" x2="82.54" y2="22.3836" gradientTransform="matrix(1 0 0 -1 0 83.8898)">
						<stop  offset="0" style="stop-color:#8B3DCE"/>
						<stop  offset="1" style="stop-color:#CB89F0"/>
					</linearGradient>
					<path class="st2" d="M0,45v1.7c0.1,0.6,0.4,1.1,1,1.4l50.8,29.4c1.5,0.7,3.2,0.7,4.7,0l25-14.5c0.6-0.2,0.9-0.8,1-1.3v-1.7
						L0,45z"/>
					<path class="st3" d="M81.6,58.5c1.3,0.8,1.3,2,0,2.7l-25,14.6c-1.5,0.8-3.2,0.8-4.7,0L1,46.4c-1.3-0.8-1.3-2,0-2.7l25-14.6
						c1.5-0.8,3.2-0.8,4.7,0L81.6,58.5z"/>
					<path class="st4" d="M28.7,28.6c-0.9-0.1-1.9,0.1-2.7,0.5L1,43.7c-1.3,0.8-1.3,2,0,2.7l27.7,16L28.7,28.6z"/>
					<polygon class="st3" points="7.1,40.1 11.8,40.1 22,34.2 22,31.4 					"/>
					<path class="st3" d="M71.2,68.6l-3,1.8c-0.2,0.1-0.4,0.1-0.4-0.2V70c0-0.3,0.2-0.5,0.4-0.7l3-1.8c0.2-0.1,0.4,0,0.4,0.2v0.2
						C71.6,68.2,71.5,68.5,71.2,68.6z"/>
					<path class="st5" d="M71.4,68.4l-0.9-0.5l-2.3,1.4c-0.2,0.1-0.4,0.4-0.4,0.7v0.2c0,0.2,0.2,0.3,0.4,0.2l3-1.8
						C71.3,68.6,71.4,68.5,71.4,68.4z"/>
					<g>
						<path class="st6" d="M12.1,53.3c0-0.1-0.1-0.2-0.1-0.2c0-0.1-0.1-0.1-0.2-0.1l-3.5-2c-0.1,0-0.2,0-0.3,0l-0.3,0.2
							c0.1,0,0.2,0,0.3,0l3.5,2c0.1,0,0.1,0.1,0.2,0.1c0.1,0.1,0.1,0.1,0.1,0.2c0,0.1,0.1,0.2,0.1,0.3v0.5c0,0.1,0,0.2-0.1,0.2
							l0.3-0.2c0.1-0.1,0.1-0.1,0.1-0.2v-0.5C12.1,53.5,12.1,53.4,12.1,53.3z"/>
						<path class="st7" d="M11.5,53.1l-3.5-2c-0.2-0.1-0.4,0-0.4,0.2v0.5c0,0.3,0.1,0.5,0.3,0.6l3.5,2c0.2,0.1,0.4,0,0.4-0.2v-0.5
							C11.8,53.4,11.7,53.2,11.5,53.1z"/>
					</g>
					<g>
						<path class="st6" d="M17.9,56.7c0-0.1-0.1-0.2-0.1-0.2c0-0.1-0.1-0.1-0.2-0.1l-3.5-2c-0.1,0-0.2,0-0.3,0l-0.3,0.2
							c0.1,0,0.2,0,0.3,0l3.5,2c0.1,0,0.1,0.1,0.2,0.1c0.1,0.1,0.1,0.1,0.1,0.2c0,0.1,0.1,0.2,0.1,0.3v0.5c0,0.1,0,0.2-0.1,0.2
							l0.3-0.2c0.1,0,0.1-0.1,0.1-0.2V57C18,56.9,18,56.8,17.9,56.7z"/>
						<path class="st7" d="M17.4,56.5l-3.5-2c-0.2-0.1-0.4,0-0.4,0.2v0.5c0,0.3,0.1,0.5,0.4,0.6l3.5,2c0.2,0.1,0.4,0,0.4-0.2v-0.5
							C17.7,56.9,17.6,56.6,17.4,56.5z"/>
					</g>
					<g>
						<defs>
							<path id="SVGID_2_" d="M81.6,58.5c1.3,0.8,1.3,2,0,2.7l-25,14.6c-1.5,0.8-3.2,0.8-4.7,0L1,46.4c-1.3-0.8-1.3-2,0-2.7l25-14.6
								c1.5-0.8,3.2-0.8,4.7,0L81.6,58.5z"/>
						</defs>
						<clipPath id="SVGID_3_">
							<use xlink:href="#SVGID_2_"  style="overflow:visible;"/>
						</clipPath>
						<g class="st8">
							<g>
								<g class="st9">
									
										<linearGradient id="SVGID_4_" gradientUnits="userSpaceOnUse" x1="21.6" y1="1029.3297" x2="21.6" y2="1001.3198" gradientTransform="matrix(1 -0.58 0 1 0 -947.7997)">
										<stop  offset="0" style="stop-color:#169AC7"/>
										<stop  offset="1" style="stop-color:#E53DFF"/>
									</linearGradient>
									<path class="st10" d="M33.4,58.9c-0.2,0.4-0.6,0.6-0.7,0.4c-0.8-1.4-1.3-11.1-2.5-12.5c-0.1-0.1-0.3,0-0.5,0.2
										c-0.6,1.2-1.5,5.1-2,8c-0.1,0.4-0.7,0.7-0.7,0.4c-0.4-1.9-1.5-5.3-2-5c-1.1,0.6-2.4,16.3-3,18.3c-0.1,0.4-0.6,0.6-0.7,0.4
										c-0.4-0.7-1.5-12.4-2.8-11.7c-0.9,0.5-1.8,6.8-2.2,8.6c-0.1,0.4-0.7,0.7-0.7,0.4c-0.9-3.4-1.6-10.6-2.5-9.9
										c-0.5,0.2-1.1,4.8-1.1,5.5c-0.4,3-0.8,8.1-1.5,9.9c-0.1,0.4-0.6,0.7-0.7,0.4c-0.4-0.7-0.6-3-1.6-9.2
										c-0.3-1.8-0.4-3.2-0.9-3.5V49.2l28.9-16.7v8C35.5,40.7,34.1,57,33.4,58.9z"/>
								</g>
							</g>
							<g class="st9">
								<path class="st11" d="M70.7,57v19.7c0,0.6,0.4,1.1,0.9,1.3c1.4,0.7,3.1,0.7,4.6,0c0.5-0.2,0.9-0.7,0.9-1.3V57.1L70.7,57z"/>
								<path class="st12" d="M76.1,55.7c-0.5-0.3-1.1-0.5-1.8-0.5c-1.2-0.2-2.4,0.2-3.4,1c-0.6,0.7-0.4,1.6,0.6,2.2
									c0.8,0.5,1.8,0.6,2.8,0.5c0.9,0,1.7-0.4,2.3-1C77.4,57.2,77.2,56.3,76.1,55.7z"/>
								<path class="st13" d="M64.8,60.3v16.9c0,0.6,0.4,1.1,0.9,1.3c1.4,0.7,3.1,0.7,4.6,0c0.5-0.2,0.9-0.7,0.9-1.3V60.4L64.8,60.3
									z"/>
								<path class="st14" d="M70.3,59c-0.5-0.3-1.1-0.5-1.8-0.5c-1.2-0.2-2.4,0.2-3.4,1c-0.6,0.7-0.4,1.6,0.6,2.2
									c0.9,0.5,1.8,0.6,2.8,0.5c0.9,0,1.7-0.4,2.3-1C71.5,60.5,71.3,59.6,70.3,59z"/>
								<path class="st11" d="M58.9,63.4v14.2c0.1,0.6,0.4,1.1,1,1.3c1.4,0.7,3.1,0.7,4.6,0c0.5-0.2,0.9-0.7,0.9-1.3V63.4L58.9,63.4
									z"/>
								<path class="st12" d="M64.4,62.1c-0.5-0.3-1.1-0.5-1.8-0.5c-1.2-0.2-2.4,0.2-3.4,1c-0.6,0.7-0.4,1.6,0.6,2.1
									c0.9,0.5,1.8,0.6,2.8,0.5c0.9,0,1.7-0.4,2.4-1C65.7,63.5,65.4,62.7,64.4,62.1z"/>
								<path class="st15" d="M53,67v10.7c0,0.6,0.4,1.1,0.9,1.3c1.4,0.7,3.1,0.7,4.6,0c0.5-0.2,0.9-0.7,0.9-1.3V67L53,67z"/>
								<path class="st16" d="M58.5,65.7c-0.5-0.3-1.1-0.5-1.8-0.5c-1.2-0.2-2.4,0.2-3.3,1c-0.6,0.7-0.4,1.6,0.6,2.2
									c0.8,0.5,1.8,0.6,2.8,0.5c0.9,0,1.7-0.4,2.3-1C59.7,67.1,59.5,66.3,58.5,65.7z"/>
								<path class="st17" d="M47,70.7v7.4c0.1,0.6,0.4,1.1,1,1.3c1.4,0.7,3.1,0.7,4.5,0c0.5-0.2,0.9-0.7,1-1.3v-7.4L47,70.7z"/>
								<path class="st18" d="M52.5,69.4c-0.5-0.3-1.1-0.5-1.8-0.5c-1.2-0.2-2.4,0.2-3.4,1c-0.6,0.7-0.4,1.6,0.6,2.2
									c0.8,0.5,1.8,0.6,2.8,0.5c0.9,0,1.7-0.4,2.3-1C53.8,70.8,53.5,70,52.5,69.4z"/>
							</g>
						</g>
					</g>
					<g class="st19">
						<polygon class="st20" points="38.7,63.7 36,65.3 35.3,65 38.1,63.4 						"/>
						<polygon class="st20" points="41.3,62.2 39.5,63.2 38.9,62.9 40.8,61.8 						"/>
						<polygon class="st20" points="45.9,59.6 42.2,61.7 41.5,61.4 45.3,59.2 						"/>
						<polygon class="st20" points="51,56.6 46.7,59.1 46.1,58.8 50.4,56.3 						"/>
						<polygon class="st20" points="51.2,55.8 51.8,56.2 56.1,53.7 55.5,53.3 						"/>
						<polygon class="st20" points="58.7,52.2 56.9,53.2 56.3,52.9 58.1,51.8 						"/>
						<polygon class="st20" points="63.8,49.2 59.5,51.7 58.9,51.4 63.2,48.9 						"/>
						<polygon class="st20" points="41.9,63.8 37.6,66.2 37,65.9 41.3,63.4 						"/>
						<polygon class="st20" points="44.5,62.2 42.7,63.3 42.1,62.9 43.9,61.9 						"/>
						<polygon class="st20" points="47.5,60.5 45.3,61.8 44.7,61.4 46.9,60.2 						"/>
						<polygon class="st20" points="50.8,58.6 48.3,60 47.7,59.7 50.2,58.3 						"/>
						<polygon class="st20" points="51,57.8 51.6,58.2 55.5,55.9 55,55.5 						"/>
						<polygon class="st20" points="59,53.9 56.3,55.4 55.8,55.1 58.4,53.5 						"/>
						<polygon class="st20" points="65.5,50.1 59.8,53.4 59.2,53.1 64.9,49.8 						"/>
						<polygon class="st20" points="42,65.6 39.2,67.2 38.6,66.8 41.4,65.2 						"/>
						<polygon class="st20" points="44.6,64.1 42.8,65.1 42.2,64.8 44,63.7 						"/>
						<polygon class="st20" points="49.2,61.4 45.4,63.6 44.8,63.3 48.5,61.1 						"/>
						<polygon class="st20" points="54.2,58.5 50,61 49.4,60.6 53.7,58.2 						"/>
						<polygon class="st20" points="54.5,57.7 55,58 59.3,55.6 58.7,55.2 						"/>
						<polygon class="st20" points="61.9,54.1 60.1,55.1 59.5,54.7 61.3,53.7 						"/>
						<polygon class="st20" points="67.1,51.1 62.7,53.6 62.1,53.3 66.5,50.7 						"/>
						<polygon class="st20" points="45.2,65.6 40.8,68.1 40.2,67.8 44.5,65.3 						"/>
						<polygon class="st20" points="47.8,64.1 46,65.2 45.3,64.8 47.2,63.8 						"/>
						<polygon class="st20" points="50.8,62.4 48.6,63.7 48,63.3 50.2,62 						"/>
						<polygon class="st20" points="54,60.5 51.6,61.9 51,61.6 53.4,60.1 						"/>
						<polygon class="st20" points="54.2,59.7 54.8,60 58.8,57.7 58.2,57.4 						"/>
						<polygon class="st20" points="62.3,55.7 59.6,57.3 59,56.9 61.7,55.4 						"/>
						<polygon class="st20" points="68.7,52 63.1,55.3 62.5,54.9 68.1,51.7 						"/>
						<polygon class="st20" points="18.7,52.1 15.9,53.7 15.3,53.4 18.1,51.8 						"/>
						<polygon class="st20" points="21.3,50.6 19.5,51.7 18.9,51.3 20.7,50.3 						"/>
						<polygon class="st20" points="25.9,48 22.1,50.2 21.5,49.8 25.3,47.6 						"/>
						<polygon class="st20" points="30.9,45 26.6,47.5 26,47.2 30.3,44.7 						"/>
						<polygon class="st20" points="31.1,44.2 31.8,44.6 36,42.1 35.4,41.8 						"/>
						<polygon class="st20" points="38.6,40.6 36.8,41.6 36.2,41.3 38,40.3 						"/>
						<polygon class="st20" points="43.8,37.6 39.4,40.1 38.8,39.8 43.2,37.3 						"/>
						<polygon class="st20" points="21.8,52.2 17.5,54.7 16.9,54.3 21.2,51.8 						"/>
						<polygon class="st20" points="24.5,50.7 22.6,51.7 22,51.4 23.9,50.3 						"/>
						<polygon class="st20" points="27.5,48.9 25.3,50.2 24.7,49.9 26.9,48.6 						"/>
						<polygon class="st20" points="30.7,47 28.3,48.5 27.7,48.1 30.1,46.7 						"/>
						<polygon class="st20" points="30.9,46.2 31.5,46.6 35.5,44.3 34.9,43.9 						"/>
						<polygon class="st20" points="39,42.3 36.3,43.8 35.7,43.5 38.4,41.9 						"/>
						<polygon class="st20" points="45.4,38.6 39.8,41.8 39.2,41.5 44.8,38.2 						"/>
						<path class="st21" d="M32.6,56.2l-8.7-0.8c0.4-1.2,1.3-2.2,2.5-2.8L32.6,56.2z"/>
						<path class="st20" d="M32.6,56.2l-4,4.5c-3.5-1-5.3-3.1-4.7-5.3L32.6,56.2z"/>
						<path class="st22" d="M32.6,56.2l6.2,3.6c-3.2,1.6-6.8,2-10.2,0.9L32.6,56.2z"/>
						<path class="st23" d="M32.6,56.2l8.7-0.8c0.5,1.7-0.4,3.2-2.5,4.4L32.6,56.2z"/>
						<path class="st24" d="M32.6,56.2l4-4.5c2.6,0.8,4.3,2.1,4.7,3.7L32.6,56.2z"/>
						<path class="st25" d="M32.6,56.2l-6.2-3.6c3.2-1.6,6.8-2,10.2-0.9L32.6,56.2z"/>
						<path class="st21" d="M48,47.3l3,4.8c-1.8,0.4-3.7,0.4-5.5,0.1L48,47.3z"/>
						<path class="st20" d="M48,47.3l8.5,1.5c-0.8,1.6-2.8,2.8-5.5,3.4L48,47.3z"/>
						<path class="st25" d="M48,47.3l-2.5,4.9c-4.7-0.8-7.4-3.7-6-6.4s6.3-4.3,11-3.5c1.6,0.2,3.2,0.8,4.5,1.8L48,47.3z"/>
						<path class="st22" d="M48,47.3l7-3.1c1.8,1.3,2.3,2.9,1.5,4.6L48,47.3z"/>
					</g>
					
						<linearGradient id="SVGID_5_" gradientUnits="userSpaceOnUse" x1="21.6" y1="-8.5002" x2="21.6" y2="-36.5102" gradientTransform="matrix(1 -0.58 0 -1 0 16.7098)">
						<stop  offset="0" style="stop-color:#1FC3DF"/>
						<stop  offset="1" style="stop-color:#E53DFF"/>
					</linearGradient>
					<path class="st26" d="M33.4,9.2c-0.2-0.2-0.6,0-0.7,0.4c-0.8,2.4-1.3,12.6-2.5,15.4c-0.1,0.2-0.3,0.4-0.5,0.3
						c-0.6-0.5-1.5-3.4-2-5.7c-0.1-0.3-0.7,0.1-0.7,0.4c-0.4,2.3-1.5,7.1-2,7.4c-1.1,0.6-2.4-13.5-3-14.8c-0.1-0.3-0.6,0-0.7,0.4
						c-0.4,1.2-1.5,14.1-2.8,14.9c-0.9,0.5-1.8-4.7-2.2-6.1c-0.1-0.3-0.7,0.1-0.7,0.4C14.6,26.7,13.9,34.7,13,35
						c-0.5,0.5-1.1-3.6-1.1-4.2c-0.4-2.6-0.8-7.2-1.5-8.2c-0.1-0.2-0.6,0-0.7,0.4c-0.4,1.2-0.6,3.7-1.6,11c-0.3,2.1-0.4,3.7-0.9,4.5
						v10.7l28.9-16.7v-8C35.5,25,34.1,10.3,33.4,9.2z"/>
					<g class="st9">
						<polygon class="st27" points="7.1,16.7 7.1,16.8 36.1,0.1 36.1,0 						"/>
						<polygon class="st27" points="7.1,19.5 36.1,2.8 36.1,2.7 7.1,19.4 						"/>
						<polygon class="st27" points="7.1,46.5 7.1,46.6 36.1,29.9 36.1,29.8 						"/>
						<polygon class="st27" points="7.1,49.3 36.1,32.6 36.1,32.5 7.1,49.2 						"/>
						<polygon class="st27" points="7.1,22.2 36.1,5.5 36.1,5.4 7.1,22.1 						"/>
						<polygon class="st27" points="7.1,25 36.1,8.3 36.1,8.2 7.1,24.9 						"/>
						<polygon class="st27" points="7.1,27.7 36.1,11 36.1,10.9 7.1,27.6 						"/>
						<polygon class="st27" points="7.1,30.4 36.1,13.7 36.1,13.6 7.1,30.3 						"/>
						<polygon class="st27" points="7.1,33.1 36.1,16.4 36.1,16.3 7.1,33 						"/>
						<polygon class="st27" points="7.1,35.8 36.1,19.1 36.1,19 7.1,35.7 						"/>
						<polygon class="st27" points="7.1,38.6 36.1,21.9 36.1,21.8 7.1,38.5 						"/>
						<polygon class="st27" points="7.1,41.3 36.1,24.6 36.1,24.5 7.1,41.2 						"/>
						<polygon class="st27" points="7.1,44 36.1,27.3 36.1,27.2 7.1,43.9 						"/>
						<path class="st27" d="M23,15.8c0,0.2-0.2,0.5-0.4,0.6c-0.2,0.1-0.4,0-0.4-0.2c0-0.2,0.2-0.5,0.4-0.6
							C22.8,15.5,23,15.6,23,15.8z"/>
						<path class="st27" d="M15.7,22.7c0,0.2-0.2,0.5-0.4,0.6c-0.2,0.1-0.4,0-0.4-0.2c0-0.2,0.2-0.5,0.4-0.6
							C15.5,22.5,15.7,22.5,15.7,22.7z"/>
						<path class="st27" d="M10.9,22.7c0,0.2-0.2,0.5-0.4,0.6c-0.2,0.1-0.4,0-0.4-0.1c0-0.2,0.2-0.5,0.4-0.6
							C10.7,22.5,10.9,22.5,10.9,22.7z"/>
						<path class="st28" d="M28.4,20.9c0,0.2-0.2,0.5-0.4,0.6c-0.2,0.1-0.4,0-0.4-0.2c0-0.2,0.2-0.5,0.4-0.6
							C28.2,20.6,28.4,20.6,28.4,20.9z"/>
						<path class="st28" d="M33.9,9.4c0,0.2-0.2,0.5-0.4,0.6c-0.2,0.1-0.4,0-0.4-0.2c0-0.2,0.2-0.5,0.4-0.6
							C33.8,9.2,33.9,9.2,33.9,9.4z"/>
					</g>
					<polygon class="st20" points="38.7,56.6 36,58.2 35.3,57.9 38.1,56.3 					"/>
					<polygon class="st20" points="41.3,55.1 39.5,56.2 38.9,55.8 40.8,54.8 					"/>
					<polygon class="st20" points="45.9,52.5 42.2,54.7 41.5,54.3 45.3,52.1 					"/>
					<polygon class="st20" points="51,49.5 46.7,52 46.1,51.7 50.4,49.2 					"/>
					<polygon class="st20" points="51.2,48.7 51.8,49.1 56.1,46.6 55.5,46.3 					"/>
					<polygon class="st20" points="58.7,45.1 56.9,46.1 56.3,45.8 58.1,44.8 					"/>
					<polygon class="st20" points="63.8,42.1 59.5,44.6 58.9,44.3 63.2,41.8 					"/>
					<polygon class="st20" points="41.9,56.7 37.6,59.2 37,58.8 41.3,56.3 					"/>
					<polygon class="st20" points="44.5,55.2 42.7,56.2 42.1,55.9 43.9,54.8 					"/>
					<polygon class="st20" points="47.5,53.4 45.3,54.7 44.7,54.4 46.9,53.1 					"/>
					<polygon class="st20" points="50.8,51.5 48.3,53 47.7,52.6 50.2,51.2 					"/>
					<polygon class="st20" points="51,50.7 51.6,51.1 55.5,48.8 55,48.5 					"/>
					<polygon class="st20" points="59,46.8 56.3,48.3 55.8,48 58.4,46.5 					"/>
					<polygon class="st20" points="65.5,43.1 59.8,46.3 59.2,46 64.9,42.7 					"/>
					<polygon class="st20" points="42,58.5 39.2,60.1 38.6,59.8 41.4,58.2 					"/>
					<polygon class="st20" points="44.6,57 42.8,58 42.2,57.7 44,56.7 					"/>
					<polygon class="st20" points="49.2,54.4 45.4,56.5 44.8,56.2 48.5,54 					"/>
					<polygon class="st20" points="54.2,51.4 50,53.9 49.4,53.6 53.7,51.1 					"/>
					<polygon class="st20" points="54.5,50.6 55,51 59.3,48.5 58.7,48.1 					"/>
					<polygon class="st20" points="61.9,47 60.1,48 59.5,47.7 61.3,46.6 					"/>
					<polygon class="st20" points="67.1,44 62.7,46.5 62.1,46.2 66.5,43.7 					"/>
					<polygon class="st20" points="45.2,58.6 40.8,61 40.2,60.7 44.5,58.2 					"/>
					<polygon class="st20" points="47.8,57 46,58.1 45.3,57.7 47.2,56.7 					"/>
					<polygon class="st20" points="50.8,55.3 48.6,56.6 48,56.2 50.2,55 					"/>
					<polygon class="st20" points="54,53.4 51.6,54.8 51,54.5 53.4,53.1 					"/>
					<polygon class="st20" points="54.2,52.6 54.8,53 58.8,50.7 58.2,50.3 					"/>
					<polygon class="st20" points="62.3,48.7 59.6,50.2 59,49.9 61.7,48.3 					"/>
					<polygon class="st20" points="68.7,45 63.1,48.2 62.5,47.9 68.1,44.6 					"/>
					<polygon class="st20" points="18.7,45.1 15.9,46.7 15.3,46.3 18.1,44.7 					"/>
					<polygon class="st20" points="21.3,43.5 19.5,44.6 18.9,44.2 20.7,43.2 					"/>
					<polygon class="st20" points="25.9,40.9 22.1,43.1 21.5,42.7 25.3,40.6 					"/>
					<polygon class="st20" points="30.9,38 26.6,40.4 26,40.1 30.3,37.6 					"/>
					<polygon class="st20" points="31.1,37.2 31.8,37.5 36,35 35.4,34.7 					"/>
					<polygon class="st20" points="38.6,33.5 36.8,34.6 36.2,34.2 38,33.2 					"/>
					<polygon class="st20" points="43.8,30.6 39.4,33.1 38.8,32.7 43.2,30.2 					"/>
					<polygon class="st20" points="21.8,45.1 17.5,47.6 16.9,47.3 21.2,44.8 					"/>
					<polygon class="st20" points="24.5,43.6 22.6,44.6 22,44.3 23.9,43.2 					"/>
					<polygon class="st20" points="27.5,41.8 25.3,43.1 24.7,42.8 26.9,41.5 					"/>
					<polygon class="st20" points="30.7,40 28.3,41.4 27.7,41 30.1,39.6 					"/>
					<polygon class="st20" points="30.9,39.2 31.5,39.5 35.5,37.2 34.9,36.9 					"/>
					<polygon class="st20" points="39,35.2 36.3,36.8 35.7,36.4 38.4,34.9 					"/>
					<polygon class="st20" points="45.4,31.5 39.8,34.8 39.2,34.4 44.8,31.2 					"/>
					<path class="st21" d="M32.6,49.1l-8.7-0.8c0.4-1.2,1.3-2.2,2.5-2.8L32.6,49.1z"/>
					<path class="st20" d="M32.6,49.1l-4,4.5c-3.5-1-5.3-3.1-4.7-5.3L32.6,49.1z"/>
					<path class="st22" d="M32.6,49.1l6.2,3.6c-3.2,1.6-6.8,2-10.2,0.9L32.6,49.1z"/>
					<path class="st23" d="M32.6,49.1l8.7-0.8c0.5,1.7-0.4,3.2-2.5,4.4L32.6,49.1z"/>
					<path class="st24" d="M32.6,49.1l4-4.5c2.6,0.8,4.3,2.1,4.7,3.7L32.6,49.1z"/>
					<path class="st25" d="M32.6,49.1l-6.2-3.6c3.2-1.6,6.8-2,10.2-0.9L32.6,49.1z"/>
					<path class="st21" d="M48,40.2l3,4.8c-1.8,0.4-3.7,0.4-5.5,0.1L48,40.2z"/>
					<path class="st20" d="M48,40.2l8.5,1.5c-0.8,1.6-2.8,2.8-5.5,3.4L48,40.2z"/>
					<path class="st25" d="M48,40.2l-2.5,4.9c-4.7-0.8-7.4-3.6-6-6.3s6.3-4.3,11-3.5c1.6,0.2,3.2,0.8,4.5,1.8L48,40.2z"/>
					<path class="st22" d="M48,40.2l7-3.1c1.8,1.3,2.3,2.9,1.5,4.6L48,40.2z"/>
					<path class="st11" d="M70.7,37.5v19.7c0,0.6,0.4,1.1,0.9,1.3c1.4,0.7,3.1,0.7,4.6,0c0.5-0.2,0.9-0.7,0.9-1.3V37.5L70.7,37.5z"
						/>
					<path class="st12" d="M76.1,36.2c-0.5-0.3-1.1-0.5-1.8-0.5c-1.2-0.2-2.4,0.2-3.4,1c-0.6,0.7-0.4,1.6,0.6,2.2
						c0.8,0.5,1.8,0.6,2.8,0.5c0.9,0,1.7-0.4,2.3-1C77.4,37.6,77.2,36.7,76.1,36.2z"/>
					<path class="st13" d="M64.8,43.6v16.9c0,0.6,0.4,1.1,0.9,1.3c1.4,0.7,3.1,0.7,4.6,0c0.5-0.2,0.9-0.7,0.9-1.3V43.7L64.8,43.6z"
						/>
					<path class="st29" d="M70.3,42.3c-0.5-0.3-1.1-0.5-1.8-0.5c-1.2-0.2-2.4,0.2-3.4,1c-0.6,0.7-0.4,1.6,0.6,2.2
						c0.9,0.5,1.8,0.6,2.8,0.5c0.9,0,1.7-0.4,2.3-1C71.5,43.7,71.3,42.9,70.3,42.3z"/>
					<path class="st11" d="M58.9,49.7V64c0.1,0.6,0.4,1.1,1,1.3c1.4,0.7,3.1,0.7,4.6,0c0.5-0.2,0.9-0.7,0.9-1.3V49.7L58.9,49.7z"/>
					<path class="st12" d="M64.4,48.4c-0.5-0.3-1.1-0.5-1.8-0.5c-1.2-0.2-2.4,0.2-3.4,1c-0.6,0.7-0.4,1.6,0.6,2.2
						c0.9,0.4,1.8,0.6,2.8,0.5c0.9,0,1.7-0.4,2.4-1C65.7,49.8,65.4,49,64.4,48.4z"/>
					<path class="st15" d="M53,56.8v10.6c0,0.6,0.4,1.1,0.9,1.3c1.4,0.7,3.1,0.7,4.6,0c0.5-0.2,0.9-0.7,0.9-1.3V56.8L53,56.8z"/>
					<path class="st16" d="M58.5,55.4c-0.5-0.3-1.1-0.5-1.8-0.5c-1.2-0.2-2.4,0.2-3.3,1c-0.6,0.7-0.4,1.6,0.6,2.2
						c0.8,0.5,1.8,0.6,2.8,0.5c0.9,0,1.7-0.4,2.3-1C59.7,56.9,59.5,56,58.5,55.4z"/>
					<path class="st17" d="M47,63.4v7.4c0.1,0.6,0.4,1.1,1,1.3c1.4,0.7,3.1,0.7,4.5,0c0.5-0.2,0.9-0.7,1-1.3v-7.4L47,63.4z"/>
					<path class="st18" d="M52.5,62.1c-0.5-0.3-1.1-0.5-1.8-0.5c-1.2-0.2-2.4,0.2-3.4,1c-0.6,0.7-0.4,1.6,0.6,2.1
						c0.8,0.5,1.8,0.6,2.8,0.5c0.9,0,1.7-0.4,2.3-1C53.8,63.5,53.5,62.7,52.5,62.1z"/>
				</g>
			</g>
		</g>
	</g>
</g>
</svg>
