<?xml version="1.0" encoding="utf-8"?>
<!-- Generator: Adobe Illustrator 25.0.1, SVG Export Plug-In . SVG Version: 6.00 Build 0)  -->
<svg version="1.1" id="Layer_1" xmlns="http://www.w3.org/2000/svg" xmlns:xlink="http://www.w3.org/1999/xlink" x="0px" y="0px"
	 viewBox="0 0 523.7 423" style="enable-background:new 0 0 523.7 423;" xml:space="preserve">
<style type="text/css">
	.st0{fill:#ECECEC;}
	.st1{fill:#FAFAFA;}
	.st2{fill:#E1E1E1;}
	.st3{fill:#F5F5F5;}
	.st4{opacity:0.61;fill:#1A2E35;enable-background:new    ;}
	.st5{fill:#00C39D;}
	.st6{opacity:0.3;enable-background:new    ;}
	.st7{fill:#1A2E35;}
	.st8{fill:#375A64;}
	.st9{fill:#FFBF9D;}
	.st10{fill:#FF9A6C;}
	.st11{opacity:0.4;enable-background:new    ;}
	.st12{opacity:0.2;}
	.st13{opacity:0.3;}
	.st14{fill:#FF4081;}
	.st15{fill:#633838;}
</style>
<g>
	<g>
		<rect x="232.9" y="5" class="st0" width="101.2" height="181.9"/>
	</g>
	<g>
		<rect x="238" y="10.2" class="st1" width="92.1" height="171.2"/>
	</g>
	<g>
		<polygon class="st2" points="228.6,1.9 232.9,1.9 232.9,186.8 228.6,188.5 		"/>
	</g>
	<g>
		<path class="st3" d="M272.8,126.2L238,111.3V87.1c1.7-3.6,7-3.8,10.4-1.8s5.7,5.5,8.5,8.3c2.8,2.8,7,5,10.7,3.5
			c1.8-0.7,3.2-2.3,5.1-3c3.9-1.4,7.9,1.7,10.9,4.5c8,7.4,15.9,14.8,23.9,22.2L272.8,126.2z"/>
	</g>
	<g>
		<path class="st2" d="M330,106.9v34.2l-25.8,0.2l-29.4-14.5c3.9-6.3,11.6-10,19-9.2c2.7,0.3,5.5,1.1,8,0c1.9-0.9,3.1-2.6,4.4-4.1
			C312.5,106.4,321.3,103.3,330,106.9L330,106.9z"/>
	</g>
	<g>
		<path class="st0" d="M238.1,107v74.4h92.1v-50.9c-3.8-2.9-7.2-0.9-11.4,1.3c-4.3,2.2-8.5,5.1-13.3,4.8c-8.8-0.5-13.5-11-21.8-13.9
			c-4.1-1.5-8.6-0.9-12.8-1.9c-6.3-1.4-11.2-6-16.6-9.6c-5.4-3.6-10.5-7-16.3-4.2H238.1z"/>
	</g>
	<g>
		<rect x="236" y="59.5" class="st2" width="94.1" height="1.8"/>
	</g>
	<g>
		<rect x="236" y="100.3" class="st2" width="94.1" height="1.8"/>
	</g>
	<g>
		<rect x="236" y="141" class="st2" width="94.1" height="1.8"/>
	</g>
	<g>
		<rect x="281.7" y="60.4" class="st2" width="4.7" height="125.9"/>
	</g>
	<g>
		<rect x="310.3" y="10.2" class="st2" width="2.1" height="50.2"/>
	</g>
	<g>
		<rect x="292.1" y="10.2" class="st2" width="2.1" height="50.2"/>
	</g>
	<g>
		<rect x="273.9" y="10.2" class="st2" width="2.1" height="50.2"/>
	</g>
	<g>
		<rect x="255.7" y="10.2" class="st2" width="2.1" height="50.2"/>
	</g>
	<g>
		<rect x="334.1" y="1.9" class="st2" width="4.3" height="186.1"/>
	</g>
	<g>
		<rect x="228.6" y="0" class="st2" width="109.8" height="5"/>
	</g>
	<g>
		<rect x="225.8" y="189.1" class="st2" width="115.7" height="4.6"/>
	</g>
	<g>
		<polygon class="st0" points="334.1,186.8 341.5,189.1 225.7,189.1 232.9,186.8 		"/>
	</g>
</g>
<g id="Layer_2_1_">
	<g id="Layer_1-2">
		<path class="st4" d="M258.1,398.4C115.5,398.4,0,401.9,0,406.6s115.6,8.5,258.1,8.5s258.1-3.8,258.1-8.5S400.7,398.4,258.1,398.4z
			"/>
		<path class="st5" d="M132.8,332.8l-39.4,56l-70.1-48.7c5.1-6.4,50.7,5.4,50.7,5.4l23.8-37L132.8,332.8z"/>
		<path class="st6" d="M132.8,332.8l-39.4,56l-70.1-48.7c5.1-6.4,50.7,5.4,50.7,5.4l23.8-37L132.8,332.8z"/>
		<path class="st2" d="M97.9,357.8c-0.8-1.5-3.5-1.8-4.8-0.8s-1.4,3.6-0.3,4.9c1.2,1.3,3.2,1.5,4.6,0.3c1.3-1.2,1.4-3.2,0.3-4.6"/>
		<path class="st2" d="M23.3,340.1c1.1-2.4,5.2-1.6,5.2-1.6l68.8,44.8l-3.9,5.6L23.3,340.1z"/>
		<path class="st7" d="M76.7,347.8c1.2,2.7,0.3,5.1-0.1,5s-0.3-2.1-1.2-4.4s-2.5-3.6-2.3-4C73.2,344,75.5,345.1,76.7,347.8z"/>
		<path class="st7" d="M66,346.2c0.2,2.8-1.3,4.6-1.7,4.4s0.3-2,0.2-4.2s-1.2-3.8-0.9-4.1C63.8,342,65.8,343.4,66,346.2z"/>
		<path class="st7" d="M54.3,344.3c0.4-2,0.1-3.8,0.4-3.9s1.5,1.7,1,4.2s-2.1,3.9-2.4,3.6C53,347.9,53.9,346.3,54.3,344.3z"/>
		<path class="st7" d="M84,338c2.2,1.7,2.8,4,2.4,4.1s-1.4-1.5-3.3-3s-3.8-2.1-3.7-2.5C79.4,336.2,81.8,336.3,84,338z"/>
		<path class="st7" d="M88.3,330.6c1.4,0.5,2.8,0.9,4.3,1.1c0.9,0.1,1.7,0.2,2.6,0.2c0.4,0,0.8,0,1.2-0.1c0.4-0.1,0.4-0.1,0.4-0.3
			c0-0.4-0.6-0.9-1.5-1.2c-0.8-0.3-1.7-0.6-2.5-0.8c-1.5-0.3-2.9-0.4-4.4-0.4c-2.5,0.1-4,0.5-4.1,0.4s1.3-1,4-1.4
			c1.6-0.2,3.1-0.2,4.7,0.1c0.9,0.2,1.8,0.5,2.7,0.8c0.6,0.1,1.1,0.4,1.5,0.7c0.6,0.4,1,1.1,1,1.8c0,0.8-0.6,1.5-1.4,1.7
			c-0.5,0.1-1.1,0.2-1.6,0.1c-1,0-1.9-0.1-2.8-0.3c-1.6-0.3-3.1-0.7-4.5-1.4c-2.4-1.1-3.6-2.3-3.5-2.4
			C84.5,329,85.9,329.8,88.3,330.6z"/>
		<path class="st7" d="M87,326.7c0.8-1.2,1.4-2.6,1.8-4c0.3-0.8,0.4-1.7,0.5-2.5c0.2-0.7,0-1.4-0.4-2c-0.2-0.3-0.9,0.1-1.5,0.8
			c-0.6,0.6-1.1,1.3-1.5,2c-0.7,1.3-1.1,2.7-1.2,4.1c-0.2,2.5,0.4,4,0.3,4.1s-1.3-1.3-1.4-4.1c0-1.6,0.3-3.2,1-4.7
			c0.4-0.9,0.9-1.7,1.6-2.4c0.4-0.4,0.8-0.7,1.3-1c0.6-0.4,1.4-0.4,2.1,0c0.9,0.8,1.3,2.1,1,3.3c-0.1,1-0.3,1.9-0.6,2.8
			c-0.5,1.5-1.2,2.9-2.2,4.2c-1.7,2.1-3.2,2.8-3.3,2.7C84.3,329.8,85.6,328.8,87,326.7z"/>
		<path class="st5" d="M140.2,366.9L100.7,423l-70.1-48.7c5.1-6.4,50.7,5.4,50.7,5.4l23.8-37L140.2,366.9z"/>
		<path class="st2" d="M105.3,391.9c-0.8-1.5-3.5-1.8-4.8-0.8s-1.4,3.6-0.3,4.9c1.2,1.3,3.2,1.5,4.6,0.3c1.3-1.2,1.4-3.2,0.3-4.6"/>
		<path class="st2" d="M30.6,374.2c1.1-2.4,5.2-1.6,5.2-1.6l68.8,44.8l-3.9,5.6L30.6,374.2z"/>
		<path class="st7" d="M84,381.9c1.2,2.7,0.3,5.1-0.1,5s-0.3-2.1-1.2-4.4s-2.5-3.6-2.3-4C80.6,378.2,82.8,379.2,84,381.9z"/>
		<path class="st7" d="M73.4,380.4c0.2,2.8-1.3,4.6-1.7,4.4s0.3-2,0.2-4.2s-1.2-3.8-0.9-4.1C71.2,376.2,73.2,377.6,73.4,380.4z"/>
		<path class="st7" d="M61.6,378.5c0.4-2,0-3.7,0.4-3.9s1.4,1.7,1,4.2s-2,3.9-2.3,3.6C60.3,382.1,61.2,380.5,61.6,378.5z"/>
		<path class="st7" d="M91.4,372.1c2.2,1.7,2.8,4,2.4,4.1s-1.4-1.5-3.3-3s-3.8-2.1-3.7-2.5C86.8,370.3,89.2,370.4,91.4,372.1z"/>
		<path class="st7" d="M95.5,364.7c1.4,0.5,2.8,0.9,4.3,1.1c0.9,0.1,1.7,0.2,2.6,0.2c0.4,0,0.8,0,1.2-0.1c0.4-0.1,0.4-0.1,0.4-0.3
			c0-0.4-0.6-0.9-1.5-1.2c-2.1-0.9-4.5-1.3-6.8-1.2c-2.5,0.1-4,0.5-4.1,0.4s1.3-1,4-1.4c1.6-0.2,3.1-0.2,4.7,0.1
			c0.9,0.2,1.8,0.5,2.7,0.8c0.6,0.1,1.1,0.4,1.5,0.7c0.6,0.4,1,1.1,1,1.8c0,0.8-0.6,1.5-1.4,1.7c-0.5,0.1-1.1,0.2-1.6,0.1
			c-1,0-1.9-0.1-2.8-0.3c-1.6-0.3-3.1-0.8-4.5-1.4c-2.4-1.1-3.6-2.3-3.5-2.4C91.8,363.2,93.2,364,95.5,364.7z"/>
		<path class="st7" d="M94.3,360.9c0.8-1.2,1.4-2.6,1.8-4c0.3-0.8,0.4-1.7,0.5-2.5c0.2-0.7,0-1.4-0.4-2c-0.2-0.3-0.9,0.1-1.5,0.8
			c-0.6,0.6-1.1,1.3-1.5,2c-0.7,1.3-1.1,2.7-1.2,4.1c-0.2,2.4,0.4,3.9,0.3,4s-1.3-1.3-1.4-4.1c-0.1-1.6,0.3-3.2,1-4.7
			c0.4-0.9,0.9-1.7,1.6-2.4c0.4-0.4,0.8-0.7,1.3-1c0.6-0.4,1.4-0.4,2.1,0c0.9,0.8,1.3,2.1,1,3.3c-0.1,1-0.3,1.9-0.6,2.8
			c-0.5,1.5-1.2,2.9-2.2,4.2c-1.7,2.2-3.2,2.9-3.3,2.8C91.7,364,92.9,362.9,94.3,360.9z"/>
		<path class="st7" d="M138.6,383.8l66.8-88.2c0,0,25.2,34.6,50.3,60.3c21.4,21.8,47.4,56.1,89.7,50.2s55.4-33.9,55.4-33.9
			l-53.3-31.1L232.9,223.4c-8.7-8.9-21-13.3-33.4-11.9l0,0c-12.2,1.4-23.1,8.3-29.6,18.7c-20.2,32.5-64.7,95.8-57.1,85.4
			c2.8-3.9-17.7,34.6-17.7,34.6C97.2,352.7,138.5,383.8,138.6,383.8z"/>
		<path class="st7" d="M108,345l-28.4-19.5l58.9-81c9.4-13,23.2-22.3,38.8-26l0,0L108,345z"/>
		<path class="st8" d="M167.3,227.9l-0.7,0.8l-1.2,1.3c-0.5,0.5-0.9,1.2-1.5,1.9c-2.3,2.8-5.2,7.2-8.7,12.6
			c-6.9,10.9-15.8,26.3-25.5,43.4s-18.3,32.7-24.5,44l-7.4,13.4l-2,3.6l-0.5,1c0,0.1-0.1,0.2-0.1,0.3c0,0,0.1-0.1,0.2-0.3L96,349
			c0.5-0.9,1.2-2.1,2.1-3.6c1.8-3.2,4.3-7.7,7.5-13.3l24.6-43.9c9.7-17.1,18.6-32.6,25.4-43.5c3.5-5.5,6.3-9.8,8.5-12.7
			c0.5-0.7,1-1.4,1.4-1.9l1.1-1.3l0.7-0.8c0.1-0.1,0.1-0.2,0.2-0.3C167.4,227.6,167.4,227.7,167.3,227.9z"/>
		<path class="st8" d="M203.3,277.3c-0.1,2.7,0,5.3,0.3,7.9s0.8,5.2,1.5,7.7c0.3,1.1,0.6,2.1,1.1,3.1c-0.1-1.1-0.3-2.2-0.6-3.2
			c-1.2-5.1-1.8-10.3-1.8-15.5c0-1.1,0-2.2-0.1-3.3C203.5,275.1,203.4,276.2,203.3,277.3z"/>
		<path class="st8" d="M210.2,274.8c-1,2.8-1.8,5.6-2.4,8.4c-0.7,2.8-1.1,5.7-1.4,8.6c-0.2,1.2-0.2,2.4-0.1,3.6
			c0.2-1.2,0.4-2.4,0.5-3.6c0.3-2.2,0.8-5.2,1.5-8.5s1.6-6.2,2.2-8.3c0.4-1.2,0.7-2.3,1-3.5C211,272.6,210.5,273.7,210.2,274.8z"/>
		<path class="st9" d="M245.1,49.2l-1.7,0.9c-17,8.6-24.7,28.9-17.5,46.6c6.6,16.5,14.2,34.6,18.6,43.1c9,17.5,28,11.4,28,11.4
			c0.3,0.5,2.2,5,4.5,10.4c4.9,11.4,17.8,17,29.4,12.7l0,0c0.4-0.1,0.8-0.3,1.1-0.4c11.8-5.1,17.2-18.7,12.2-30.5L289,71.7
			C281.4,52.7,264,41.2,245.1,49.2z"/>
		<path class="st10" d="M274.7,155.6c18.3-7.2,17.4-22.6,17.4-22.6c-8.1,13.3-19.7,18-19.7,18L274.7,155.6z"/>
		<path class="st7" d="M236.7,107.5c-0.6-1.4,0-3,1.4-3.5c1.4-0.7,3-0.1,3.7,1.3l0,0c0.6,1.3,0,2.9-1.4,3.5
			C239,109.5,237.4,108.9,236.7,107.5L236.7,107.5z"/>
		<path class="st7" d="M233.5,102.4c0.7-1.4,1.9-2.5,3.3-3.2c1.4-0.8,3-1,4.6-0.8c1.2,0.1,1.8,0.6,1.7,0.8c-0.1,0.5-2.8,0.1-5.5,1.5
			c-2.7,1.3-3.9,3.7-4.4,3.5C232.9,104.2,232.9,103.4,233.5,102.4z"/>
		<path class="st7" d="M263.2,94.7c-0.6-1.4,0-3,1.5-3.6c1.4-0.7,3-0.1,3.7,1.3c0,0.1,0,0.1,0,0.1c0.5,1.4-0.1,2.9-1.5,3.5
			C265.5,96.7,263.9,96.1,263.2,94.7L263.2,94.7z"/>
		<path class="st7" d="M261,89.1c0.9-1.3,2.2-2.3,3.7-2.8c1.5-0.6,3.2-0.6,4.7-0.2c1.1,0.4,1.7,0.9,1.6,1.1
			c-0.1,0.4-2.8-0.3-5.6,0.7s-4.3,3.1-4.8,2.9C260.4,90.8,260.4,90,261,89.1z"/>
		<path class="st7" d="M256.5,117.7c-0.4,0.2-0.9,0.3-1.3,0.4c-0.5,0.1-1.1,0-1.6-0.4c-0.7-0.8-1-1.8-1-2.9l-0.7-6.3
			c-0.9-8.9-1.3-16.2-1-16.2s1.4,7.2,2.3,16.1l0.6,6.3c0,0.8,0.2,1.6,0.6,2.3c0.3,0.5,1.1,0.3,1.8,0c2.9-1,4.7-1.6,4.8-1.4
			C261.1,115.8,259.4,116.6,256.5,117.7z"/>
		<path class="st7" d="M269.4,82.2c-1.6,0.9-3.4,1.4-5.2,1.5c-1.8,0.2-3.6-0.2-5.3-0.9c-1.2-0.6-1.8-1.3-1.7-1.7
			c0.3-0.8,3.3-0.4,6.9-0.5c3.6-0.2,6.5-1.1,6.9-0.3C271.2,80.6,270.6,81.4,269.4,82.2z"/>
		<path class="st7" d="M237.4,96.2c-1,2.8-3.7,4.7-6.7,4.8c-1.1,0-1.8-0.4-1.8-0.8c0-0.8,2-1.6,4.1-3c2-1.4,3.4-3.2,4.2-2.9
			C237.6,94.5,237.7,95.2,237.4,96.2z"/>
		<path class="st9" d="M302.1,103.1c0.2,0.4,13.7-2.8,8-15c-5.7-12.2-15.8-2.9-16-2.6C294.1,85.5,301.9,102.7,302.1,103.1z"/>
		<path class="st10" d="M304.2,97.3c0.8,0.1,1.5-0.1,2.1-0.6c1.6-1.3,1.8-4.2,0.7-6.7c-0.5-1.2-1.3-2.3-2.3-3.1
			c-0.8-0.8-2-1.2-3.1-0.9c-0.4,0.1-0.8,0.4-1,0.8c-0.1,0.3-0.2,0.7-0.1,1c0.1,0.5,0.4,0.7,0.5,0.6c0.1-0.1-0.1-0.3-0.1-0.7
			c0-0.6,0.4-1.1,1-1.2c0.9-0.1,1.8,0.2,2.4,0.9c0.9,0.8,1.5,1.7,2,2.8c0.9,2.3,0.8,4.8-0.3,5.9c-0.4,0.4-1,0.7-1.6,0.7
			c-0.4,0-0.7-0.1-0.7,0C303.6,96.8,303.8,97,304.2,97.3z"/>
		<path class="st7" d="M300.6,81.7c-2.3-10.4-7.4-23.7-16.2-30.7c-8.8-7-21.6-9.6-32.5-7.1C241,46.4,228.6,55,224.7,65.4
			c-0.1,0.5-0.2,1-0.1,1.5c0.2,1.6,1.4,2.9,3,3.2c0.3,0.1,0.5,0.1,0.8,0.2c4.8,1.6,10.1,0.8,14.3-2c3.5-2.3,5.9-6,9.5-8.2
			c5.5-3.2,12.7-2.4,18.1,0.9c5.4,3.3,9.2,8.8,11.8,14.6s4.2,11.9,6.3,17.9c0.4,1.4,1.1,2.8,2,3.9c1,1.2,2.4,1.7,3.9,1.5
			c2.1-0.5,3.1-2.9,3-5c-0.1-2.1-0.9-4.2-1-6.3C296.2,85.5,298.5,82.2,300.6,81.7"/>
		<path class="st7" d="M269.3,118.4c-1.4-0.1-2.8,0.4-3.9,1.2c-1.2,0.8-2.1,1.9-2.6,3.2c-0.4,1-0.4,1.7-0.2,1.7s0.5-0.5,1-1.3
			c0.7-1,1.5-1.9,2.5-2.6c1-0.6,2.1-1.1,3.3-1.3c0.9-0.1,1.6-0.1,1.6-0.3S270.5,118.5,269.3,118.4z"/>
		<path class="st10" d="M271.4,95.3c-1.2,1.1-2.5,1.4-2.5,1.6c0,0.1,1.5,0,2.9-1.2c1.3-1.2,1.6-2.8,1.4-2.8
			C273,92.8,272.6,94.2,271.4,95.3z"/>
		<path class="st9" d="M203.2,124l8.4-13.4l9.4-2.2c0,0,7.3-7.8,13.2-12.8s6.9-8.5,5.8-10.4S228.5,92,228.5,92L218,88.8v-9.2
			l5.2,0.3c0,0,0.5,6.2,2.7,9.1c2.2,3,4.2-5.1,6.4-8.3s-3.5-9.7-3.5-9.7L209,68.2l-15.4,12.4L175,114.7L203.2,124z"/>
		<path class="st5" d="M267.1,221.6l-85.6,13.3c-11.6,2.2-32.5,6.5-40.5-2.3l0,0c-9.9-10.8-12.8-21.9-2.1-47l35.3-72.5l31.1,9.7
			l-22.9,65.3l97.8-29.7L267.1,221.6z"/>
		<path class="st11" d="M266.8,221.6l-85.3,13.3c-11.6,2.2-32.5,6.5-40.5-2.3l0,0c-9.9-10.8-12.8-21.9-2.1-47l35.3-72.5l31.1,9.7
			l-22.9,65.3l97.8-29.7L266.8,221.6z"/>
		<path class="st1" d="M160.2,151.4c-2.4-0.3-4.3-0.4-4.4-0.2s1.9,0.5,4.3,0.8s4.4,0.4,4.4,0.2S162.6,151.7,160.2,151.4z"/>
		<path class="st1" d="M162.2,147.3c-2.2-0.7-4.1-1.1-4.1-0.9c1.2,0.6,2.5,1.1,3.9,1.4c1.3,0.5,2.7,0.8,4.1,0.9
			C166.1,148.5,164.4,148,162.2,147.3z"/>
		<path class="st5" d="M261,168.1c0,0,21.8-8,40.2-19.2c13.1-8,11.6-20.9,11.6-21.4c0,0,10.6,2.3,17.2,3.8c26.1,5.7,54.3,65,54.3,65
			s36.3,103.3,38,122.9c1.7,19.6-21.5,53-21.5,53c-18,0-65.1-39.3-73.3-47.4c-8.2-8.1-26.6-28.8-26.4-38.3
			c0.2-9.5-39.2-73.1-39.2-73.1L261,168.1z"/>
		<path class="st5" d="M296.9,215.2l-100.5,9.4c-11.6,2.2-32.5,6.5-40.5-2.3l0,0c-9.9-10.8-12.8-21.9-2.1-47l33.6-73l32.8,10.2
			l-22.9,65.2l51.5-10.7l59-17L296.9,215.2z"/>
		<path class="st9" d="M218.5,111.7l7.3-11.6l9.3-2.2c0,0,7.2-7.8,13.2-12.8c5.9-5,6.9-8.5,5.8-10.4s-11.5,6.8-11.5,6.8l-10.5-3.2
			v-9.2l5.2,0.3c0,0,0.5,6.2,2.7,9.1c2.2,3,4.2-5.1,6.4-8.3s-3.5-9.7-3.5-9.7l-19.8-2.7l-15.3,12.4l-17.9,32.6L218.5,111.7z"/>
		<path class="st10" d="M219,112.1l0.4-0.6c0.4-0.5,0.9-1.2,1.5-2.2l5.5-8.6l-0.1,0.1l9.4-2.2l0,0l0,0c4.5-4.9,9.3-9.5,14.4-13.9
			c1.4-1.3,2.7-2.8,3.8-4.4c0.6-0.9,1-1.9,1.2-2.9c0.1-0.6,0-1.2-0.1-1.7c0-0.3-0.2-0.6-0.3-0.8c-0.3-0.3-0.6-0.5-1-0.4
			c-1.1,0.3-2.1,0.7-3,1.3c-0.9,0.6-1.8,1.2-2.7,1.8c-1.7,1.2-3.5,2.6-5.2,4l0.3-0.1l-10.5-3.2l0.2,0.3c0-2.9,0-6,0-9.2l-0.3,0.3
			l5.2,0.3l-0.3-0.3c0.2,2.7,0.8,5.3,1.8,7.7c0.2,0.5,0.5,1,0.8,1.4c0.2,0.3,0.4,0.5,0.6,0.7c0.3,0.2,0.6,0.3,1,0.3
			c0.6-0.2,1.1-0.6,1.4-1.1s0.6-0.9,0.8-1.4c1-1.9,1.7-3.8,2.7-5.6l0.4-0.6c0.1-0.2,0.3-0.5,0.4-0.7c0.1-0.1,0.2-0.3,0.2-0.4
			l0.1-0.4c0.1-0.2,0.1-0.5,0.1-0.8c-0.1-1.1-0.3-2.1-0.8-3.1c-0.9-1.9-2-3.6-3.3-5.1l-0.1-0.1h-0.1l-19.8-2.7h-0.1l-0.1,0.1
			L208,70.4l0,0l0,0l-13,23.8l-3.5,6.5c-0.4,0.7-0.7,1.3-0.9,1.7s-0.3,0.6-0.3,0.6s0.2-0.2,0.4-0.6l1-1.7l3.6-6.5l13.1-23.7
			l-0.1,0.1l15.4-12.3l-0.2,0.1l19.8,2.7l-0.2-0.1c1.3,1.5,2.4,3.1,3.2,4.9c0.4,0.9,0.7,1.8,0.7,2.8c0,0.2,0,0.5-0.1,0.7l-0.1,0.3
			l-0.1,0.3c-0.1,0.2-0.3,0.4-0.4,0.6s-0.3,0.5-0.4,0.7c-1,1.8-1.7,3.8-2.7,5.6c-0.2,0.5-0.5,0.9-0.8,1.3c-0.2,0.4-0.6,0.7-1,0.8
			c-0.4,0.1-0.7-0.3-1-0.7s-0.6-0.8-0.8-1.3c-0.9-2.4-1.5-4.9-1.7-7.5v-0.3h-0.3l-5.2-0.3h-0.3v0.3c0,3.1,0,6.3,0,9.2v0.2l0.2,0.1
			l10.5,3.2h0.1l0.1-0.1c1.7-1.4,3.5-2.7,5.2-4c0.8-0.7,1.7-1.3,2.6-1.8c0.8-0.5,1.7-1,2.7-1.2c0.2,0,0.4,0,0.4,0.1
			c0.2,0.2,0.2,0.4,0.3,0.6c0.1,0.5,0.1,0.9,0,1.4c-0.2,1-0.6,1.9-1.1,2.7c-1,1.6-2.3,3-3.7,4.3c-5.1,4.4-9.9,9.1-14.4,14h0.1
			l-9.4,2.3h-0.1v0.1l-5.3,8.6l-1.4,2.3l-0.3,0.6c0,0.1-0.1,0.1-0.1,0.2C218.5,112,218.5,111.9,219,112.1z"/>
		<path class="st7" d="M301.3,229.3c-0.5-0.5-1-0.9-1.6-1.3s-1.4-1-2.2-1.5c-1.9-1.3-4-2.4-6.1-3.4c-2.6-1.1-5.3-2.1-8.1-2.8
			c-5-1.3-10.2-1.9-15.4-1.8c-2,0-3.6,0.1-4.7,0.2c-0.6,0-1.1,0.1-1.7,0.2c0.6,0,1.1,0,1.7,0c1.1-0.1,2.7-0.1,4.7-0.1
			c5.1,0,10.2,0.7,15.2,1.9c2.7,0.7,5.4,1.6,8,2.7c2.1,0.9,4.1,2,6.1,3.2c0.8,0.4,1.6,0.9,2.2,1.4s1.2,0.9,1.6,1.2
			c0.4,0.4,0.9,0.7,1.4,1C302,229.7,301.6,229.3,301.3,229.3z"/>
		<path class="st7" d="M294,153.7l-4.9,1.4c-4.2,1.1-10,2.8-16.3,4.7c-6.3,1.9-12.1,3.6-16.2,4.9c-2,0.7-3.6,1.2-4.9,1.6
			c-0.6,0.1-1.2,0.3-1.8,0.6c0.6-0.1,1.2-0.2,1.8-0.4l5-1.4c4.2-1.1,10-2.8,16.3-4.7s12.1-3.6,16.2-4.9l4.9-1.6
			c0.6-0.2,1.2-0.4,1.8-0.7C295.3,153.2,294.7,153.4,294,153.7z"/>
		<path class="st7" d="M388.5,323c-0.3,0.2-0.6,0.5-0.9,0.8c-0.3,0.3-0.8,0.6-1.2,1c-2.8,1.9-5.8,3.4-9.1,4.1
			c-4.8,1.1-9.9,1.1-14.7,0c-5.9-1.5-11.4-4.1-16.4-7.6s-9.8-7.3-14.3-11.4c-4.3-3.7-8.2-7-11.6-9.5c-2.7-2-5.5-3.8-8.5-5.4
			c-1.1-0.5-1.9-0.9-2.5-1.2c-0.3-0.2-0.6-0.3-0.9-0.4c0.2,0.2,0.5,0.4,0.8,0.5c0.5,0.3,1.4,0.7,2.4,1.3c2.9,1.7,5.7,3.6,8.4,5.6
			c3.4,2.6,7.2,5.9,11.4,9.6c4.5,4.1,9.3,8,14.3,11.5s10.6,6.1,16.6,7.6c4.9,1.1,10,1.1,14.9-0.1c3.3-0.8,6.4-2.3,9.1-4.4l1.2-1
			c0.3-0.3,0.6-0.6,0.8-0.8s0.4-0.4,0.6-0.7C388.7,322.7,388.5,322.8,388.5,323z"/>
		<path class="st7" d="M362.2,254.9c-1.6-0.2-3.1-0.6-4.6-1c-3.7-1.1-7.2-2.7-10.3-4.9c-1.2-0.9-2.4-1.8-3.6-2.9
			c-2-1.8-3.1-3.1-3.1-3s0.2,0.4,0.7,1c0.6,0.9,1.3,1.7,2.1,2.4c1.1,1.1,2.3,2.2,3.6,3.1c3.2,2.3,6.7,4,10.5,5
			c1.6,0.5,3.1,0.7,4.7,0.9c1.1,0.1,2.1,0.1,3.2,0.1c0.4,0,0.8,0,1.2-0.1C366.6,255.4,364.9,255.4,362.2,254.9z"/>
		<g class="st12">
			<path d="M355.2,326.7c17.7,6.9,23.2,3.3,31.3-2.1c1.8-1.1,3.6-2.9,3.5-5c-0.2-2.8-3.5-4.3-6.3-4.3c-7.5-0.1-14.2,5.5-21.7,5.3
				c-5.2-0.2-9.9-3.1-13.8-6.5c-3.9-3.4-7.4-7.3-11.8-10.1c-4.4-2.8-10-4.4-14.8-2.4C331.5,311.5,342.7,320,355.2,326.7z"/>
		</g>
		<path class="st7" d="M283.9,252.3c-10.2-18.8-18.6-33.9-18.8-33.9s8,15.3,18.2,34.1c10.2,18.8,18.7,34,18.8,33.9
			S294.1,271.1,283.9,252.3z"/>
		<path class="st1" d="M244.8,217.6c-0.5-1.2-1.1-2.9-1.8-5.1c-1.4-4.3-3.3-10.3-4.9-17s-2.7-12.9-3.3-17.4c-0.3-2.2-0.6-4-0.7-5.3
			c0-0.7-0.1-1.3-0.3-2c0,0.7,0,1.3,0.1,2c0.1,1.3,0.2,3.1,0.5,5.4c0.7,5.9,1.7,11.8,3.1,17.6s3.1,11.4,5.1,17c0.8,2.1,1.5,3.8,2,5
			c0.2,0.6,0.5,1.2,0.8,1.8C245.3,218.9,245.1,218.3,244.8,217.6z"/>
		<path class="st1" d="M251.8,217.4c-0.4-1.2-1-3-1.7-5.3c-1.4-4.5-3.1-10.7-4.6-17.8s-2.4-13.5-2.9-18.2c-0.3-2.4-0.5-4.3-0.6-5.6
			c-0.1-0.7-0.2-1.3-0.3-2c-0.1,0.7-0.1,1.4,0,2.1c0.1,1.3,0.2,3.2,0.4,5.6c1.1,12.3,3.7,24.4,7.5,36.1c0.8,2.3,1.4,4.1,1.9,5.3
			c0.2,0.7,0.5,1.3,0.8,1.9C252.2,218.8,252,218.1,251.8,217.4z"/>
		<path class="st1" d="M340.3,244.7l-1.7,0.3c-1.4,0.3-3.5,0.7-6.1,1.1c-5.2,0.8-12.4,1.9-20.4,2.5s-15.3,0.8-20.6,0.7
			c-2.6,0-4.7,0-6.2-0.1h-1.7c-0.2,0-0.4,0-0.6,0c0.2,0.1,0.4,0.1,0.6,0.1l1.7,0.1c1.4,0.1,3.6,0.2,6.2,0.3c6.9,0.2,13.7,0,20.6-0.5
			c6.8-0.6,13.6-1.5,20.4-2.8c2.6-0.5,4.7-0.9,6.1-1.3L340.3,244.7c0.1-0.1,0.3-0.1,0.5-0.2C340.6,244.5,340.4,244.5,340.3,244.7z"
			/>
		<path class="st1" d="M388.8,225.6c-1,0.7-2.5,1.7-4.4,2.9c-4.9,3.1-10,6-15.3,8.6c-5.3,2.6-10.7,4.8-16.2,6.8
			c-2.1,0.7-3.8,1.3-5,1.7c-0.6,0.2-1.2,0.4-1.8,0.7c0.6-0.1,1.3-0.2,1.9-0.4c1.2-0.3,3-0.8,5.1-1.5c11.2-3.6,21.8-8.8,31.6-15.4
			c1.9-1.3,3.4-2.3,4.4-3.1c0.5-0.3,1-0.7,1.5-1.2C390,225,389.5,225.3,388.8,225.6z"/>
		<path class="st1" d="M389.1,214.6l-0.7,0.5l-2.8,1.9l-2,1.4c-0.8,0.5-1.6,0.9-2.5,1.5c-1.8,1.1-3.8,2.4-6.1,3.6l-3.6,2
			c-1.2,0.7-2.6,1.3-4,2c-2.7,1.4-5.8,2.7-9,4.1c-7,2.8-14.2,5.2-21.5,7.1c-7.4,1.8-14.9,3.1-22.4,3.9c-3.5,0.3-6.8,0.7-9.9,0.7
			c-1.6,0-3.1,0.1-4.5,0.1H296c-2.6,0-5-0.2-7.1-0.3c-1-0.1-2-0.1-2.9-0.2l-2.4-0.3l-3.4-0.3l-0.9-0.1H279c0.1,0.1,0.2,0.1,0.3,0.1
			l0.9,0.1l3.4,0.4l2.4,0.3c0.9,0.1,1.9,0.1,2.9,0.2c2.1,0.2,4.5,0.4,7.1,0.4l4.2,0.1c1.4,0,2.9-0.1,4.5-0.1c3.1,0,6.4-0.3,9.9-0.6
			c7.6-0.8,15.1-2.1,22.5-4s14.6-4.3,21.6-7.2c3.2-1.4,6.2-2.8,9-4.2c1.4-0.7,2.7-1.3,4-2l3.6-2c2.3-1.2,4.3-2.6,6.1-3.7
			c0.9-0.6,1.8-1.1,2.5-1.6c0.7-0.5,1.4-1,2-1.4l2.8-2l0.7-0.5c0.1-0.1,0.2-0.2,0.2-0.2S389.5,214.3,389.1,214.6z"/>
		<path class="st1" d="M194.1,131.4c-9.7-2.8-17.7-5-17.7-4.8s7.9,2.6,17.6,5.4s17.7,5,17.7,4.8
			C211.7,136.7,203.8,134.2,194.1,131.4z"/>
		<path class="st1" d="M192.3,135.8c-9.9-2.9-17.9-5-18-4.9s7.9,2.6,17.8,5.5s18,5.1,18,4.9C210.2,141.2,202.2,138.7,192.3,135.8z"
			/>
		<g class="st13">
			<path d="M309.5,259.4c-2.1,2.6-5.1,4.4-8.5,5c-3,0.6-6,0.7-9.1,0.5l-26.6-46c10.4-0.6,21,0.9,30,6s16.1,14.5,16.6,24.9
				C312.1,253.2,311.5,256.6,309.5,259.4z"/>
		</g>
		<path class="st7" d="M454.1,362.3c0.2-0.5,0.6-1.2,1-2c1.2-2.6,2.2-5.2,3-8c2-7.2,2.7-18.2,0.1-31.3c-1.5-7.1-3.4-14.1-5.7-21
			c-2.4-7.4-5.2-15.3-7.5-23.7s-4-17.5-3.7-27c0.3-9.5,3.2-19,6.3-28.6s6.4-19.1,7.4-28.7c1.1-9.3-0.8-18.7-5.4-26.8
			c-4.2-7.8-9.5-14.3-13.4-21c-3.6-6.2-6.3-13-8-20c-2.4-10.2-2.7-20.8-0.8-31.1c0.5-2.8,1.2-5.6,2-8.3c0.3-0.9,0.5-1.6,0.7-2.1
			c0.1-0.2,0.2-0.5,0.2-0.7c-1.5,3.6-2.6,7.2-3.3,11c-2.1,10.5-1.9,21.2,0.5,31.5c1.6,7.1,4.3,13.9,8,20.2c3.9,6.8,9.1,13.3,13.3,21
			c4.5,8,6.3,17.2,5.2,26.3c-1,9.5-4.2,18.9-7.4,28.5c-3.2,9.6-6.1,19.3-6.4,28.9c-0.3,9.6,1.5,18.8,3.8,27.3
			c2.3,8.5,5.2,16.4,7.6,23.8c2.4,6.9,4.3,13.8,5.8,20.9c2.7,13,2,24,0.2,31.1c-0.7,2.7-1.7,5.4-2.8,8l-0.9,2
			c-0.1,0.2-0.2,0.5-0.3,0.7C453.7,362.9,453.8,362.7,454.1,362.3z"/>
		<path class="st14" d="M448.5,111.5c-0.1-0.2-0.2-0.4-0.3-0.5c-0.3-0.4-0.9-0.4-1.2,0c-14.3,14.9-6.3,40.4-6.3,40.4
			C450.3,128.5,449.3,115.7,448.5,111.5z"/>
		<path class="st7" d="M444.4,124.1c-0.6,2.9-1.4,6.8-2.1,11.2c-0.7,4.4-1.2,8.4-1.5,11.3s-0.4,4.7-0.2,4.7c0.1,0,0.4-1.8,0.8-4.7
			c0.5-3.2,1.1-7,1.8-11.2c0.7-4.2,1.3-8,1.8-11.2c0.3-1.5,0.5-3.1,0.5-4.7C445.4,119.5,445,121.2,444.4,124.1z"/>
		<path class="st14" d="M475.7,179.8c0.1-0.1,0.1-0.3,0-0.5c-0.1-0.5-0.6-0.8-1.1-0.6c-19.6,6.5-24.5,32.7-24.5,32.7
			C469.2,195.6,474.4,183.9,475.7,179.8z"/>
		<path class="st7" d="M466,189c-1.9,2.2-4.4,5.4-7.1,8.9c-2.7,3.5-5,6.9-6.6,9.3c-0.9,1.3-1.7,2.6-2.3,4.1c0.1,0.1,1.2-1.4,2.9-3.7
			l6.8-9.1l6.8-9.1c1.8-2.3,2.8-3.8,2.7-3.9S467.9,186.8,466,189z"/>
		<path class="st14" d="M460.1,239.5c0-0.2-0.1-0.3-0.2-0.5c-0.3-0.4-0.8-0.5-1.2-0.2c-16.9,11.9-13.9,38.4-13.9,38.4
			C458.5,256.5,460,243.8,460.1,239.5z"/>
		<path class="st7" d="M453.5,251.1c-1.2,2.7-2.7,6.4-4.2,10.6c-1.5,4.2-2.8,8-3.6,10.8c-0.8,2.8-1.1,4.6-1,4.6s0.7-1.7,1.7-4.4
			l3.9-10.7l3.9-10.7c1-2.7,1.5-4.4,1.4-4.5C455.4,246.8,454.7,248.4,453.5,251.1z"/>
		<path class="st14" d="M476.2,306.2c0-0.2-0.1-0.3-0.2-0.5c-0.3-0.4-0.8-0.5-1.2-0.2c-17.3,11.3-15.3,37.9-15.3,37.9
			C474,323.2,476,310.5,476.2,306.2z"/>
		<path class="st7" d="M469.1,317.4c-1.3,2.6-2.9,6.2-4.6,10.4c-1.7,4.2-3.1,7.9-4,10.7c-0.6,1.5-1,3-1.2,4.6
			c0.2,0.1,0.8-1.6,1.9-4.3l4.3-10.5c1.6-3.9,3.1-7.5,4.3-10.5c0.7-1.4,1.2-2.9,1.6-4.4C471.3,313.3,470.4,314.8,469.1,317.4z"/>
		<path class="st14" d="M406.5,95.3c-0.1-0.2-0.3-0.2-0.5-0.2c-0.5,0-0.8,0.4-0.8,0.9c0.5,20.7,24.1,33,24.1,33
			C419.8,106.1,410.1,97.7,406.5,95.3z"/>
		<path class="st7" d="M412.5,107.4c1.5,2.5,3.8,5.8,6.4,9.4s5,6.8,6.9,9c1.9,2.2,3.2,3.5,3.3,3.4c0.1-0.1-1-1.6-2.7-3.9l-6.7-9.2
			l-6.7-9.2c-0.8-1.3-1.8-2.6-2.9-3.7C410,103.2,411,104.9,412.5,107.4z"/>
		<path class="st14" d="M429.9,151.3c-0.1-0.1-0.3-0.1-0.5-0.1c-0.5,0.1-0.8,0.5-0.8,1c1.8,20.6,26.1,31.5,26.1,31.5
			C443.8,161.4,433.6,153.6,429.9,151.3z"/>
		<path class="st7" d="M436.6,163c1.7,2.4,4.2,5.6,7,9c2.8,3.4,5.5,6.5,7.5,8.6s3.3,3.3,3.4,3.2c-0.8-1.3-1.8-2.6-2.9-3.7l-7.2-8.8
			l-7.2-8.8c-1-1.3-2-2.4-3.2-3.5C433.8,159.1,434.9,160.6,436.6,163z"/>
		<path class="st14" d="M433.4,204.6c-0.1-0.1-0.2-0.2-0.4-0.3c-0.5-0.2-1,0-1.2,0.5c-7.8,19.1,8.9,39.9,8.9,39.9
			C441.2,219.8,435.6,208.3,433.4,204.6z"/>
		<path class="st7" d="M434,218c0.4,2.9,1.2,6.8,2.1,11.2s1.9,8.3,2.7,11.1c0.4,1.5,0.9,3,1.6,4.4c0.2,0-0.2-1.8-0.9-4.6
			c-0.6-3.2-1.5-7-2.4-11.1s-1.7-7.9-2.4-11.1c-0.6-2.9-1.1-4.6-1.2-4.6C433.3,213.3,433.6,215.1,434,218z"/>
		<path class="st14" d="M433,283.6c-0.1-0.1-0.3-0.1-0.5-0.1c-0.5,0.1-0.8,0.5-0.8,1c1.3,20.6,25.5,31.9,25.5,31.9
			C446.8,293.9,436.7,286,433,283.6z"/>
		<path class="st7" d="M439.6,295.5c1.6,2.4,4.1,5.6,6.8,9.1s5.3,6.5,7.3,8.7c1,1.2,2.1,2.3,3.4,3.3c0.1-0.2-1.1-1.5-2.9-3.8
			l-7.1-8.9L440,295c-0.9-1.3-1.9-2.5-3.1-3.6C436.8,291.5,438,293.1,439.6,295.5z"/>
		<path class="st7" d="M505.4,212.4c-0.1,0.5-0.1,1-0.2,1.7c-0.1,1.5-0.3,3.7-0.5,6.4c-0.4,5.7-0.9,13.6-1.6,23.1v-0.1
			c-1.8,9.5-6.7,20.1-13.3,30.4c-4.8,7.6-9.9,14.6-14.2,21.1c-4,5.7-7.5,11.7-10.6,17.9c-2.1,4.2-3.7,8.6-4.8,13.2
			c-0.4,1.6-0.7,2.8-0.8,3.7c-0.1,0.4-0.2,0.9-0.2,1.3c0.2-0.4,0.3-0.9,0.4-1.3c0.2-0.9,0.5-2.1,0.9-3.7c1.3-4.5,2.9-8.8,5-13
			c3.1-6.1,6.7-12,10.7-17.7c4.4-6.5,9.5-13.5,14.3-21.1c6.7-10.4,11.6-21.1,13.3-30.7v-0.1c0.5-9.5,1-17.4,1.3-23.1
			c0.1-2.7,0.2-4.9,0.3-6.5c0-0.7,0-1.2,0-1.7c0-0.2,0-0.4,0-0.6C505.3,211.7,505.3,211.9,505.4,212.4z"/>
		<path class="st14" d="M486.9,231.7c0-0.2,0.2-0.4,0.3-0.5c0.3-0.3,0.9-0.2,1.2,0.2c12.8,16.2,2.6,40.8,2.6,40.8
			C483.5,248.5,485.6,235.9,486.9,231.7z"/>
		<path class="st7" d="M489.2,244.7c0.2,3.3,0.5,7.2,0.8,11.4c0.3,4.2,0.6,8,0.8,11.3c0,1.6,0.1,3.1,0.4,4.7c0.1,0,0.3-1.8,0.3-4.7
			s-0.2-7-0.5-11.4c-0.3-4.4-0.8-8.4-1.1-11.3c-0.3-2.9-0.7-4.7-0.8-4.7C489,240.1,489,241.9,489.2,244.7z"/>
		<g class="st13">
			<path d="M486.9,231.7c0-0.2,0.2-0.4,0.3-0.5c0.3-0.3,0.9-0.2,1.2,0.2c12.8,16.2,2.6,40.8,2.6,40.8
				C483.5,248.5,485.6,235.9,486.9,231.7z"/>
		</g>
		<path class="st14" d="M451.9,291.6c0.1-0.2,0.2-0.4,0.3-0.5c0.3-0.3,0.9-0.3,1.2,0.1c14.1,15,5.9,40.4,5.9,40.4
			C450,308.6,451,295.8,451.9,291.6z"/>
		<path class="st7" d="M455.3,304.3c0.5,3.3,1,7.1,1.7,11.3c0.7,4.2,1.2,8,1.7,11.2c0.4,2.8,0.7,4.6,0.8,4.6s0.1-1.8-0.1-4.7
			c-0.2-2.9-0.7-6.9-1.4-11.3c-0.7-4.4-1.4-8.3-2-11.2s-1.1-4.6-1.2-4.6C454.8,301.2,455,302.8,455.3,304.3z"/>
		<g class="st13">
			<path d="M451.9,291.6c0.1-0.2,0.2-0.4,0.3-0.5c0.3-0.3,0.9-0.3,1.2,0.1c14.1,15,5.9,40.4,5.9,40.4
				C450,308.6,451,295.8,451.9,291.6z"/>
		</g>
		<path class="st14" d="M522.1,205.7c0.1-0.1,0.3-0.2,0.5-0.2c0.5,0,1,0.3,1,0.8c2.2,20.6-19.6,35.9-19.6,35.9
			C510.4,218.2,519,208.6,522.1,205.7z"/>
		<g class="st13">
			<path d="M522.1,205.7c0.1-0.1,0.3-0.2,0.5-0.2c0.5,0,1,0.3,1,0.8c2.2,20.6-19.6,35.9-19.6,35.9
				C510.4,218.2,519,208.6,522.1,205.7z"/>
		</g>
		<path class="st7" d="M517.2,218c-1.5,2.9-3.4,6.3-5.4,10l-5.4,10c-1.4,2.6-2.3,4.1-2.2,4.2c1.1-1.2,2-2.4,2.8-3.8
			c1.6-2.5,3.6-6,5.7-9.9c2.1-3.9,3.9-7.5,5.2-10.1c0.8-1.4,1.4-2.9,1.8-4.4C518.7,215.2,517.9,216.6,517.2,218z"/>
		<path class="st14" d="M500.4,281.8c0.2-0.1,0.4-0.1,0.6,0c0.4,0.1,0.7,0.6,0.5,1.1c-7,19.4-33.4,23.5-33.4,23.5
			C484.4,287.7,496.3,282.9,500.4,281.8z"/>
		<g class="st13">
			<path d="M500.4,281.8c0.2-0.1,0.4-0.1,0.6,0c0.4,0.1,0.7,0.6,0.5,1.1c-7,19.4-33.4,23.5-33.4,23.5
				C484.4,287.7,496.3,282.9,500.4,281.8z"/>
		</g>
		<path class="st7" d="M490.6,290.4l-9.3,6.6l-9.3,6.6c-2.4,1.7-3.9,2.7-3.8,2.8c1.5-0.6,2.9-1.3,4.2-2.2c2.5-1.5,5.9-3.8,9.5-6.3
			s6.8-5,9.1-6.8c2.3-1.8,3.7-3,3.6-3.1S493,288.9,490.6,290.4z"/>
		<polygon class="st15" points="484.8,354.9 474.6,404.4 444.5,404.5 436.9,354.9 		"/>
		<path class="st7" d="M476,375.4c-1.9,0.2-3.7,0-5.4-0.6c-2.3-0.7-4.2-2.2-5.6-4.2c-0.8-1.2-1.2-2.5-1.3-3.9
			c-0.1-1.4,0.6-2.8,1.8-3.6c1.4-0.7,3.1-0.5,4.3,0.4c1.3,1,2.2,2.5,2.5,4.1c0.3,1.8,0.5,3.6,0.3,5.4c-0.1,1.9-0.5,3.7-1.2,5.5
			c-0.7,1.8-1.8,3.4-3.3,4.7c-1.5,1.3-3.3,2.1-5.3,2.2s-3.9-0.5-5.6-1.6c-1.6-1.1-3.1-2.4-4.3-3.9c-1.2-1.4-1.9-3.2-2.1-5
			c-0.2-1.7,0.5-3.4,1.8-4.6c1.3-1,3.1-1.1,4.5-0.3c1.4,0.7,2.4,2,2.7,3.5c0.5,2.9-0.9,5.7-3.4,7.2c-2.1,1.2-4.5,1.6-6.9,1.1
			c-1.8-0.4-3.5-1-5.1-1.9c-1.4-0.7-2.3-1.4-3-1.8c-0.3-0.3-0.6-0.5-1-0.7c0.3,0.3,0.6,0.6,0.9,0.8c0.9,0.7,1.9,1.4,2.9,2
			c1.6,0.9,3.4,1.6,5.2,2c2.5,0.5,5.1,0.1,7.3-1.1c2.8-1.6,4.4-4.7,3.9-7.9c-0.4-1.7-1.5-3.2-3.1-4c-1.6-1-3.7-0.9-5.3,0.3
			c-1.5,1.4-2.3,3.3-2.1,5.3c0.2,2.1,1,4,2.3,5.5c1.3,1.6,2.8,3,4.5,4.1c1.8,1.2,3.9,1.8,6,1.8c2.2-0.2,4.2-1.1,5.8-2.5
			c1.6-1.4,2.8-3.1,3.5-5c0.7-1.8,1.1-3.7,1.2-5.7c0.1-1.9,0-3.8-0.4-5.6s-1.4-3.4-2.9-4.5s-3.5-1.2-5.1-0.4c-1.4,1-2.2,2.6-2,4.3
			c0.1,1.4,0.6,2.9,1.4,4.1c1.5,2,3.6,3.5,6,4.3c1.7,0.6,3.6,0.8,5.5,0.5c1.2-0.2,2.3-0.5,3.4-1c0.3-0.2,0.5-0.3,0.8-0.5
			c0.2-0.1,0.3-0.2,0.3-0.2C479,374.7,477.5,375.2,476,375.4z"/>
	</g>
</g>
</svg>
