<?xml version="1.0" encoding="utf-8"?>
<!-- Generator: Adobe Illustrator 25.0.1, SVG Export Plug-In . SVG Version: 6.00 Build 0)  -->
<svg version="1.1" id="Layer_1" xmlns="http://www.w3.org/2000/svg" xmlns:xlink="http://www.w3.org/1999/xlink" x="0px" y="0px"
	 viewBox="0 0 497.6 497.9" style="enable-background:new 0 0 497.6 497.9;" xml:space="preserve">
<style type="text/css">
	.st0{opacity:0.61;fill:#1A2E35;}
	.st1{fill:#E1E1E1;}
	.st2{fill:#ECECEC;}
	.st3{fill:#FAFAFA;}
	.st4{fill:#F5F5F5;}
	.st5{fill:#1A2E35;}
	.st6{fill:#FFBF9D;}
	.st7{fill:#FF9A6C;}
	.st8{fill:#30C39E;}
	.st9{fill:#375A64;}
	.st10{fill:#FF4081;}
	.st11{opacity:0.6;}
	.st12{fill:#FFFFFF;}
	.st13{opacity:0.3;}
	.st14{fill:#BA5B48;}
	.st15{fill-rule:evenodd;clip-rule:evenodd;fill:#A6D0C3;}
	.st16{fill-rule:evenodd;clip-rule:evenodd;fill:#E468CB;}
	.st17{fill-rule:evenodd;clip-rule:evenodd;fill:#D2ECE4;}
	.st18{fill-rule:evenodd;clip-rule:evenodd;fill:#C5E3DB;}
	.st19{fill-rule:evenodd;clip-rule:evenodd;fill:#86CCB5;}
	.st20{fill-rule:evenodd;clip-rule:evenodd;fill:#BADCD1;}
	.st21{fill-rule:evenodd;clip-rule:evenodd;fill:#FFFFFF;}
	.st22{fill-rule:evenodd;clip-rule:evenodd;fill:#365349;}
</style>
<g id="Layer_2_1_">
	<g id="Layer_1-2">
		<path class="st0" d="M495.5,496.4c0,2.6-104.9,4.7-234.2,4.7S27.1,499,27.1,496.4c0-2.6,104.8-4.9,234.2-4.9
			S495.5,493.7,495.5,496.4z"/>
		<polygon class="st1" points="331.5,380.4 305.1,495.1 316.3,495 342.7,381.4 		"/>
		<polygon class="st1" points="379.7,380.4 406.2,495.1 416.8,495.1 391.2,380.4 		"/>
		<polygon class="st1" points="313.7,294.2 328.7,373.2 345.8,373.2 329.7,294.2 		"/>
		<polygon class="st1" points="51.7,380.4 30.1,495.1 41.1,495.1 63.6,380.4 		"/>
		<polygon class="st1" points="97,380.4 121.6,490.9 132.5,490.9 108.7,380.4 		"/>
		<polygon class="st1" points="33.8,294.2 48.9,373.2 66,373.2 49.9,294.2 		"/>
		<polygon class="st2" points="0,287 3.1,301.4 346.3,301.4 342.3,287 		"/>
		<polygon class="st2" points="6.6,314.9 10.2,329.3 351.1,329.3 348,314.9 		"/>
		<polygon class="st2" points="13.3,343.8 16.7,358.1 356.6,358.1 353.4,343.8 		"/>
		<rect x="39.3" y="373.2" class="st2" width="366.5" height="14.4"/>
		<path class="st1" d="M440.8,159.8c-0.1-0.2,3.4-0.4,7.7-3.2c2.5-1.6,4.6-3.8,6.2-6.2c1.9-3,3.1-6.4,3.4-9.9c0-0.1,0-0.2,0-0.3
			l0.4,0.4c-3.6,0.6-6.9,2.4-9.3,5.1c-2,2.1-3.8,4.5-5.2,7c-1.3,2.1-2.1,3.9-2.7,5.2c-0.3,0.7-0.6,1.3-1,1.9c0.2-0.7,0.4-1.4,0.7-2
			c0.7-1.8,1.6-3.6,2.5-5.3c1.4-2.6,3.1-5,5.1-7.2c2.6-2.8,6-4.7,9.7-5.4l0.5-0.1v0.4c0,0.1,0,0.2,0,0.4c-0.5,6.8-4.2,12.9-10,16.5
			c-1.8,1.1-3.7,1.9-5.8,2.4c-0.6,0.1-1.1,0.2-1.7,0.3C441.2,159.8,441,159.8,440.8,159.8z"/>
		<path class="st1" d="M440.8,159.8c-0.2-0.1,2.2-3.1,5.3-6.6s5.7-6.3,5.9-6.1s-2.2,3.1-5.3,6.6S440.9,160,440.8,159.8z"/>
		<path class="st3" d="M394.7,67.8c0.7-4.8-6.2-8.8-11.3-9.2c-2.5-0.2-5,0.2-7.3-0.6c-5-1.8-7-8.3-12-10.3
			c-3.7-1.5-7.9-0.2-11.5,1.6c-3.5,1.8-7.1,4-11,4.3c-3.5,0.2-7.2-1.1-10.2,0.6c-2.3,1.3-3.4,3.9-5.5,5.4c-2.1,1.5-4.7,1.8-7.2,2
			c-2.5,0.2-5.1,0.2-7.4,1.2c-2.3,1.1-4.2,3.5-3.7,6L394.7,67.8z"/>
		<path class="st2" d="M284.1,98.1c0.7-5-6.4-9.2-11.7-9.6c-2.5-0.2-5.2,0.2-7.6-0.7c-5.2-1.8-7.3-8.6-12.4-10.7
			c-3.8-1.6-8.2-0.2-11.9,1.7s-7.3,4.2-11.5,4.4c-3.6,0.2-7.5-1.1-10.6,0.7c-2.3,1.3-3.6,4-5.7,5.6s-4.9,1.9-7.5,2s-5.3,0.2-7.7,1.3
			s-4.4,3.6-3.9,6.2L284.1,98.1z"/>
		<path class="st4" d="M146.4,56.8c0.9-6.2-7.8-11.2-14.4-11.8c-3.1-0.3-6.3,0.2-9.3-0.8c-6.4-2.2-9-10.5-15.2-13.1
			c-4.7-2-10-0.2-14.6,2.1s-9,5.1-14,5.5c-4.4,0.3-9.2-1.3-13,0.8c-2.9,1.6-4.4,4.9-7,6.8s-6,2.3-9.2,2.5s-6.5,0.2-9.5,1.5
			s-5.3,4.4-4.7,7.6L146.4,56.8z"/>
		<path class="st5" d="M255.7,278c-0.9,1.7-3.1,2.5-5,2.2c-1.9-0.4-3.7-1.2-5.3-2.4c-1.6-1-3.4-2.4-3.4-4.3c0.1-1.1,0.3-2.1,0.8-3.1
			c0.9-3.1,0.1-6.4-0.5-9.6c-1.2-5.6-1.2-11.5-0.1-17.1c1.1-5.7,4.1-10.8,8.5-14.6c3.2-2.5,6.9-4.2,10.9-5c6.6-1.5,13.8-1.2,19.7,2
			s10.5,9.3,10.8,16c0.2,4.9-1.4,10.5,2,14c1,1,2.4,1.7,3.5,2.7c2.3,2.4,2.2,6.4,0.4,9.1s-4.9,4.4-8.1,5.3c-4,1.1-8.2,1-12.2-0.2"/>
		<path class="st5" d="M289.3,254.8c1.2,1.3,2,2.9,2.1,4.7c0.1,1.7,0.5,3.5,1.1,5.1c0.7,1.6,2.3,2.9,4.1,2.8
			c-3.9,5.6-10.8,8.1-17.3,6.4c-0.2-6.8-0.4-13.6-0.6-20.4"/>
		<path class="st6" d="M246,245.6c0.3-6.9,7.6-13.9,14.5-13.3l22.3,3.9v3.7l-0.7,45.9l0,0c0,0-1.7,14.8-14.2,14.2
			c-11.2-0.6-10.8-12.5-10.8-12.5l0.2-8.7c0,0-9.1-0.2-11.1-11.7C245.3,261.6,245.6,253.3,246,245.6z"/>
		<path class="st5" d="M248,254.6c0.2,0.2,1.3-0.7,2.9-0.7s2.8,0.8,2.9,0.6s-0.1-0.4-0.6-0.8c-0.7-0.5-1.5-0.7-2.4-0.7
			c-0.8,0-1.6,0.3-2.3,0.8C248.1,254.2,247.9,254.5,248,254.6z"/>
		<path class="st5" d="M263.2,254.4c0.2,0.2,1.3-0.7,2.9-0.7s2.8,0.8,2.9,0.6s-0.1-0.4-0.6-0.8c-0.7-0.5-1.5-0.7-2.3-0.7
			c-0.8,0-1.6,0.3-2.3,0.8C263.3,254,263.1,254.4,263.2,254.4z"/>
		<path class="st5" d="M258.1,262.4c-0.8-0.2-1.7-0.4-2.6-0.4c-0.4,0-0.8-0.1-0.9-0.3s0.1-0.6,0.3-1l1.1-2.6
			c1.6-3.7,2.7-6.8,2.5-6.9s-1.6,2.9-3.2,6.7l-1.1,2.6c-0.2,0.4-0.3,0.9-0.2,1.4c0.1,0.3,0.4,0.4,0.7,0.5c0.2,0,0.5,0.1,0.7,0.1
			C256.4,262.5,257.3,262.5,258.1,262.4z"/>
		<path class="st7" d="M257.3,279c5.4,0,10.7-1.5,15.3-4.3c0,0-3.8,8.1-15.3,7.2V279z"/>
		<path class="st5" d="M262.4,262c-0.3,0-0.2,1.7-1.7,3s-3.3,1.1-3.3,1.3s0.4,0.3,1.2,0.3c1,0,2-0.4,2.8-1c0.7-0.6,1.2-1.5,1.3-2.5
			C262.7,262.4,262.5,262,262.4,262z"/>
		<path class="st5" d="M263,247.7c0.2,0.6,1.8,0.1,3.6,0.2s3.5,0.6,3.6,0.1c0.1-0.3-0.2-0.8-0.9-1.3c-0.8-0.6-1.8-0.9-2.8-1
			c-1,0-1.9,0.2-2.8,0.7C263.2,247,262.9,247.4,263,247.7z"/>
		<path class="st5" d="M248.1,247.5c0.3,0.6,1.8,0.1,3.5,0.2s3.1,0.5,3.5,0c0.2-0.3,0-0.8-0.6-1.3c-0.8-0.6-1.8-1-2.8-1
			c-1,0-2,0.3-2.9,0.9C248.2,246.7,248,247.3,248.1,247.5z"/>
		<path class="st6" d="M282,253.4c0.2-0.1,8.8-2.4,8.3,6.3s-9.1,6.4-9.1,6.2S282,253.4,282,253.4z"/>
		<path class="st7" d="M283.3,262.7c0,0,0.1,0.1,0.4,0.3c0.4,0.2,0.8,0.2,1.1,0.1c0.9-0.3,1.8-1.7,1.9-3.3c0.1-0.7,0-1.5-0.3-2.2
			c-0.1-0.6-0.5-1-1.1-1.2c-0.4-0.1-0.7,0-0.9,0.4c-0.1,0.2-0.1,0.4-0.1,0.4s-0.2-0.1-0.1-0.5c0.1-0.2,0.2-0.4,0.4-0.5
			c0.2-0.2,0.6-0.2,0.9-0.2c0.7,0.2,1.3,0.7,1.5,1.4c0.3,0.8,0.5,1.6,0.4,2.5c-0.1,1.7-1.1,3.3-2.4,3.6c-0.5,0.1-1,0-1.4-0.3
			C283.3,262.9,283.3,262.7,283.3,262.7z"/>
		<path class="st5" d="M254.8,230.9c0.6-2.4,3.2-3.3,5.4-3.8c4.8-1,9.7-1.5,14.4-0.4c4.9,1.1,9.1,4.4,11.3,9
			c2.4,5.4,1.3,11.7,0.1,17.5l-3.1-0.1c-1.2,4.9-7.3,4.3-8.3-1.8c-0.4-2.2-1.3-4.6-3-5.8c-1.1-0.6-2.3-0.9-3.6-0.9
			c-5.7-0.9-10.5-4.7-12.6-10C254.8,233.5,254.6,232.2,254.8,230.9z"/>
		<path class="st5" d="M289.4,236.9c-0.5-0.8,0.3-1.7,1.1-2.2c2.2-1.4,4.8-2.2,7.4-2.2c2.7,0,5.1,1.5,6.3,3.9
			c0.4,1.1,0.7,2.2,0.7,3.3c0.2,1.4-0.1,2.9-0.7,4.2c-1,1.5-2.7,2.4-4.5,2.6c-1.2,0.2-2.5,0.2-3.7-0.1c-3.6-1-5.9-4.6-7.7-7.8"/>
		<path class="st5" d="M265.9,245c0,0.4-1.2,0.8-3.2,0.7c-1.3,0-2.5-0.4-3.6-1c-0.6-0.4-1.2-0.8-1.8-1.4c-0.6-0.5-1.1-1.1-1.5-1.8
			c-0.8-1.3-1.3-2.7-1.5-4.1c-0.2-1.1-0.3-2.3-0.3-3.4c0-1.9,0.4-3.1,0.8-3.1s0.8,1.1,1.3,2.8c0.3,0.9,0.5,1.9,0.9,3
			c0.3,1.1,0.8,2.2,1.4,3.2c0.3,0.5,0.7,1,1.1,1.4c0.4,0.4,0.7,0.8,1.2,1.1c0.7,0.5,1.6,1,2.5,1.3
			C264.7,244.2,265.9,244.6,265.9,245z"/>
		<path class="st8" d="M292.1,245.3c-0.1,0,0.1-0.6,0.2-1.6c0.1-1.3,0-2.6-0.1-3.9c-0.3-1.3-0.7-2.5-1.3-3.7
			c-0.4-0.9-0.7-1.5-0.6-1.6s0.5,0.5,1,1.4c0.7,1.2,1.2,2.5,1.5,3.8c0.2,1.4,0.2,2.7,0,4.1C292.5,244.8,292.1,245.4,292.1,245.3z"/>
		<path class="st9" d="M304.2,239c-0.5-0.3-1-0.6-1.5-0.9c-1.4-0.4-2.8-0.5-4.2-0.4c-3.4,0.3-6,1.3-6,1.1s2.5-1.4,6-1.7
			c1.5-0.2,3,0,4.4,0.6C303.9,238.3,304.3,239,304.2,239z"/>
		<path class="st9" d="M291.9,241.5c-0.1,0.1-0.3,0.1-0.5,0.1c-0.3,0-0.7,0.1-1.3,0.1c-1.6,0.1-3.3-0.3-4.8-1
			c-1-0.6-1.8-1.3-2.6-2.2c-0.8-0.9-1.6-1.9-2.5-2.9c-1.8-2.3-3.8-4.4-6-6.3c-2.2-1.9-4.8-3.2-7.7-3.7c-2.3-0.3-4.7,0-6.8,1.1
			c-1.4,0.7-2.7,1.6-3.9,2.8c-0.8,0.8-1.1,1.4-1.2,1.3s0.1-0.1,0.2-0.4c0.2-0.4,0.5-0.7,0.8-1.1c1.1-1.3,2.4-2.3,3.8-3
			c2.2-1.1,4.7-1.5,7.1-1.2c3,0.5,5.7,1.8,8,3.8c2.2,1.9,4.2,4.1,6,6.4c1.7,2.1,3.1,4.1,4.8,5.1c1.4,0.7,3,1.1,4.5,1.1
			C291.3,241.4,291.9,241.4,291.9,241.5z"/>
		<path class="st5" d="M247.9,381.1c0,0,4.4,30.4,5.3,44.6c1.1,18.4,7.7,47.5,7.7,47.5h17.4l0.3-68.9l15.5,67.1l20-1.8l-7.4-74.3
			l-2.4-18.8L247.9,381.1z"/>
		<path class="st8" d="M281.4,490.9l-1.2-31.6l-22.4,0.7c0,0,2.9,21.1,2.4,22.8c-2,7.1-12.3,7.5-12.3,7.5c-5.6,0.1-4.8,5-4.8,5
			l38.5-0.3L281.4,490.9z"/>
		<path class="st3" d="M273.1,479.8c-0.1-1.2-0.2-2.5-0.1-3.7c-0.1-1.2,0-2.5,0.2-3.7C273.3,474.8,273.3,477.3,273.1,479.8
			L273.1,479.8z"/>
		<path class="st3" d="M276.1,476.2c-1.1,0.1-2.1,0.1-3.2,0c-1.1,0-2.1-0.1-3.1-0.3c1.1-0.1,2.1-0.1,3.2,0
			C274.1,475.9,275.1,476,276.1,476.2z"/>
		<path class="st3" d="M275.5,474.1c-0.8,0.8-1.6,1.6-2.5,2.2c-0.8,0.7-1.7,1.4-2.7,2c0.8-0.8,1.6-1.6,2.5-2.2
			C273.6,475.4,274.5,474.7,275.5,474.1z"/>
		<path class="st3" d="M275.3,478.9c0,0-0.3-0.3-0.8-0.8s-1-1.2-1.7-2.1s-1.1-1.6-1.5-2.2c-0.2-0.3-0.4-0.6-0.5-1
			c0,0,0.3,0.3,0.7,0.9s0.9,1.3,1.5,2.1s1.2,1.6,1.6,2.1C274.9,478.2,275.1,478.6,275.3,478.9z"/>
		<path class="st3" d="M265.7,470.6c-0.1-1.2-0.2-2.5-0.1-3.7c-0.1-1.2,0-2.5,0.2-3.7C265.9,465.6,265.9,468.1,265.7,470.6
			L265.7,470.6z"/>
		<path class="st3" d="M268.7,467c-1.1,0.1-2.1,0.1-3.2,0c-1.1,0-2.1-0.1-3.1-0.3c1.1-0.1,2.1-0.1,3.2,0
			C266.6,466.7,267.7,466.8,268.7,467z"/>
		<path class="st3" d="M268,464.9c-0.8,0.8-1.6,1.6-2.5,2.2c-0.8,0.7-1.7,1.4-2.7,2c0.8-0.8,1.6-1.6,2.5-2.2
			C266.2,466.2,267.1,465.5,268,464.9z"/>
		<path class="st3" d="M267.9,469.7c0,0-0.3-0.3-0.8-0.8s-1-1.2-1.7-2.1s-1.1-1.6-1.5-2.2c-0.2-0.3-0.4-0.6-0.5-1
			c0,0,0.3,0.3,0.7,0.9s0.9,1.3,1.5,2.1s1.2,1.6,1.6,2.1C267.5,469.1,267.7,469.4,267.9,469.7z"/>
		<path class="st3" d="M266.7,493c-0.1-1.2-0.2-2.5-0.1-3.7c-0.1-1.2,0-2.5,0.2-3.7C266.9,488,266.9,490.5,266.7,493L266.7,493z"/>
		<path class="st3" d="M269.8,489.4c-1.1,0.1-2.1,0.1-3.2,0c-1.1,0-2.1-0.1-3.1-0.3c1.1-0.1,2.1-0.1,3.2,0
			C267.7,489.1,268.7,489.2,269.8,489.4z"/>
		<path class="st3" d="M269.1,487.3c-0.8,0.8-1.6,1.6-2.5,2.2c-0.8,0.7-1.7,1.4-2.7,2C265.5,490,267.2,488.6,269.1,487.3z"/>
		<path class="st3" d="M268.9,492.1c0,0-0.3-0.3-0.8-0.8s-1-1.2-1.7-2.1s-1.1-1.6-1.5-2.2c-0.2-0.3-0.4-0.6-0.5-1
			c0.3,0.3,0.5,0.5,0.7,0.9c0.4,0.5,0.9,1.3,1.5,2.1s1.2,1.6,1.6,2.1C268.6,491.4,268.8,491.8,268.9,492.1z"/>
		<path class="st8" d="M315.8,490.6l-1.2-31.6l-24.3,0.7c0,0,4.8,21,4.4,22.7c-2,7.1-12.3,7.5-12.3,7.5c-5.6,0.1-4.8,5-4.8,5
			l38.5-0.3L315.8,490.6z"/>
		<path class="st3" d="M298.2,470.5c-0.2-2.5-0.2-5,0-7.4c0.1,1.2,0.2,2.5,0.1,3.7C298.4,468,298.4,469.2,298.2,470.5z"/>
		<path class="st3" d="M301.3,466.9c-1.1,0.1-2.1,0.1-3.2,0c-1.1,0-2.1-0.1-3.1-0.3c1.1-0.1,2.1-0.1,3.2,0
			C299.2,466.6,300.3,466.7,301.3,466.9z"/>
		<path class="st3" d="M300.6,464.8c-0.8,0.8-1.6,1.6-2.5,2.2c-0.8,0.7-1.7,1.4-2.7,2c0.8-0.8,1.6-1.6,2.5-2.2
			C298.8,466.1,299.7,465.4,300.6,464.8z"/>
		<path class="st3" d="M300.5,469.6c-0.3-0.2-0.6-0.5-0.8-0.8c-0.5-0.5-1-1.2-1.7-2.1s-1.1-1.6-1.5-2.2c-0.2-0.3-0.4-0.6-0.5-1
			c0.3,0.3,0.5,0.5,0.7,0.9c0.4,0.5,0.9,1.3,1.5,2.1s1.2,1.6,1.6,2.1C300.1,469,300.3,469.3,300.5,469.6z"/>
		<path class="st3" d="M309.2,480.6c-0.2-2.5-0.2-5,0-7.4c0.1,1.2,0.2,2.5,0.1,3.7C309.4,478.2,309.4,479.4,309.2,480.6z"/>
		<path class="st3" d="M312.3,477c-1.1,0.1-2.1,0.1-3.2,0c-1.1,0-2.1-0.1-3.1-0.3c1.1-0.1,2.1-0.1,3.2,0
			C310.2,476.8,311.2,476.9,312.3,477z"/>
		<path class="st3" d="M311.6,475c-0.8,0.8-1.6,1.6-2.5,2.2c-0.8,0.7-1.7,1.4-2.7,2c0.8-0.8,1.6-1.6,2.5-2.2
			C309.7,476.3,310.6,475.6,311.6,475z"/>
		<path class="st3" d="M311.4,479.8c-0.3-0.2-0.6-0.5-0.8-0.8c-0.5-0.5-1-1.2-1.7-2.1s-1.1-1.6-1.5-2.2c-0.2-0.3-0.4-0.6-0.5-1
			c0.3,0.3,0.5,0.5,0.7,0.9c0.4,0.5,0.9,1.3,1.5,2.1s1.2,1.6,1.6,2.1C311.1,479.1,311.3,479.4,311.4,479.8z"/>
		<path class="st3" d="M301.2,493.3c-0.1-1.2-0.2-2.5-0.1-3.7c0-1.2,0-2.5,0.2-3.7c0.1,1.2,0.2,2.5,0.1,3.7
			C301.4,490.8,301.4,492,301.2,493.3z"/>
		<path class="st3" d="M304.3,489.6c-1.1,0.1-2.1,0.1-3.2,0c-1.1,0-2.1-0.1-3.1-0.3C300.1,489.3,302.2,489.3,304.3,489.6
			L304.3,489.6z"/>
		<path class="st3" d="M303.6,487.6c-0.8,0.8-1.6,1.6-2.5,2.2c-0.8,0.7-1.7,1.4-2.7,2C300,490.3,301.8,488.9,303.6,487.6z"/>
		<path class="st3" d="M303.5,492.4c-0.3-0.2-0.6-0.5-0.8-0.8c-0.5-0.5-1-1.2-1.7-2.1s-1.1-1.6-1.5-2.2c-0.2-0.3-0.4-0.6-0.5-1
			c0.3,0.3,0.5,0.6,0.7,0.9c0.4,0.5,0.9,1.3,1.5,2.1l1.6,2.1C303.1,491.7,303.3,492,303.5,492.4z"/>
		<path class="st5" d="M282.2,489.8c0,0.1-0.4,0.2-1,0.4c-0.8,0.2-1.6,0.7-2.2,1.3c-0.6,0.6-1,1.4-1.1,2.3c0,0.4-0.1,0.7-0.2,1.1
			c-0.1,0-0.2-0.4-0.1-1.1c0.2-1.9,1.6-3.5,3.5-3.8C281.4,489.8,281.8,489.8,282.2,489.8z"/>
		<path class="st10" d="M233.2,295.6c-2.5-2.7-6.7-2.8-9.3-0.4c-0.8,0.8-1.5,1.8-1.8,2.9c-1.3-3.8-5.4-5.9-9.3-4.6
			c-0.2,0.1-0.3,0.1-0.5,0.2c-2.4-3-6.3-4.2-10-5.4c-1.6-0.6-3.3-0.9-5-0.7c-2.4,0.5-4,2.6-5.4,4.6c-2.4,3.3-4.9,6.8-5.2,10.9
			s2.4,8.7,6.5,8.7c0,3.8,3,7,6.9,7c1.4,0,2.7-0.4,3.8-1.1c2.8,4.3,8.5,5.6,12.9,2.9c1.9,3.5,6.2,4.9,9.8,3c0.2-0.1,0.4-0.2,0.7-0.4
			c3.5,3.3,15.3,2.6,18.2-1.2l6.8-31C248.1,288.9,235.2,291.3,233.2,295.6z"/>
		<path class="st5" d="M229.4,320.3c-0.1-0.3-0.2-0.7-0.2-1c-0.1-0.6-0.2-1.6-0.3-2.8c-0.4-6.1,0.6-12.3,3-18
			c0.5-1.1,0.9-1.9,1.2-2.5c0.1-0.3,0.3-0.6,0.5-0.9c0.1,0-0.5,1.4-1.3,3.5c-2.1,5.7-3.1,11.7-3,17.8
			C229.3,318.9,229.4,320.3,229.4,320.3z"/>
		<path class="st5" d="M218.5,315c-0.1-0.9-0.1-1.7,0-2.6c0.2-2.1,0.5-4.2,1-6.2c0.4-2,1-4,1.7-6c0.2-0.8,0.6-1.6,1.1-2.4
			c-0.2,0.8-0.4,1.7-0.7,2.5c-0.4,1.5-1,3.7-1.5,6s-0.9,4.5-1.1,6.1C218.8,313.3,218.7,314.2,218.5,315z"/>
		<path class="st5" d="M204.6,312.1c0-1,0.2-2,0.4-2.9c0.5-2.3,1.2-4.6,2.1-6.8c0.8-2.3,1.9-4.4,3.1-6.5c0.5-0.9,1.1-1.6,1.9-2.3
			c0.1,0.1-0.7,0.9-1.6,2.5c-1.1,2.1-2.1,4.2-2.9,6.4c-1,2.6-1.7,5-2.2,6.7C205.2,310.3,205,311.2,204.6,312.1z"/>
		<path class="st10" d="M289.6,281.3c0,0-0.1-6.2-3.2-7s-8.3,0.6-11.3,1.7c-5.3,2-14.1,3.3-19.4,5.3c-2.3,0.9-3.1,1.4-4.1,3.4
			c-0.6,1.4,0.7,5.5,0.7,5.5c-2.2-0.5-6.7,3-8.7,5.9c-2.1,3.1-3,6.8-0.1,9.2c-3.9,3.9-4.6,11.4-2.6,16.5c0.7,1.7,1.5,1.5,1.6,3.4
			c0.2,2.3-1.2,3.9-1.6,6.1c-0.6,3.4,0.8,9.3,3.3,11.8c-5.3,5.3-5.7,13.7-1.1,19.6c-1.8,3.2-3.6,6.5-4.2,10.2s0.6,7.8,3.6,9.8
			c2.5,1.7,5.8,1.7,8.9,1.6l47.9-1.1c2.1,0,4.3-0.1,6-1.3c2.5-1.7,3.1-5.2,3.4-8.2c0.5-4.8,0.7-10.6-3.2-13.5
			c3.5-5.8,3.1-13.2-1.1-18.5c2.6-2,2.9-5.7,2.4-8.9s-1.6-6.4-0.9-9.6c0.4-2,1.5-3.9,1.9-6c0.5-2.7-0.4-5.5-0.7-8.2
			c-0.3-3.8,0.6-7.5,0.2-11.3s-4.3-12.2-8.1-12.7C299.4,284.9,293.6,279.1,289.6,281.3z"/>
		<path class="st5" d="M306,360.7c-0.6,0.6-1.2,1.2-1.9,1.6c-0.8,0.5-1.7,1-2.6,1.4c-1.2,0.5-2.5,0.8-3.8,1
			c-3.3,0.5-6.7,0.7-10.1,0.6c-3.8,0-8,0-12.4,0c-8.8-0.1-16.7-0.5-22.4-1c-2.9-0.3-5.2-0.5-6.8-0.7l-1.8-0.3l-0.6-0.1
			c0.2,0,0.4,0,0.6,0l1.9,0.2c1.6,0.1,3.9,0.4,6.8,0.6c5.7,0.4,13.7,0.8,22.4,0.9l12.4,0.1c3.4,0.1,6.7,0,10-0.5
			c1.3-0.2,2.5-0.5,3.7-0.9c0.9-0.3,1.8-0.8,2.6-1.3C305.3,361.3,305.9,360.6,306,360.7z"/>
		<path class="st5" d="M304.4,341.7c-0.2,0.1-0.4,0.1-0.6,0.2l-1.7,0.5c-0.8,0.2-1.7,0.4-2.7,0.7s-2.3,0.5-3.6,0.8s-2.8,0.5-4.5,0.8
			s-3.3,0.5-5.1,0.7c-3.6,0.4-7.6,0.7-11.9,0.8s-8.2,0-11.9-0.3c-1.8-0.2-3.5-0.3-5.2-0.5s-3.1-0.4-4.5-0.6s-2.6-0.4-3.7-0.6
			s-2-0.4-2.8-0.5l-1.7-0.4c-0.2,0-0.4-0.1-0.6-0.2l0.6,0.1l1.7,0.3c0.8,0.1,1.7,0.3,2.8,0.5s2.3,0.4,3.7,0.6s2.9,0.4,4.5,0.5
			s3.3,0.3,5.1,0.5c3.6,0.2,7.6,0.4,11.9,0.3s8.2-0.4,11.8-0.8c1.8-0.2,3.5-0.4,5.1-0.7s3.1-0.5,4.4-0.8s2.6-0.5,3.6-0.7
			s2-0.4,2.8-0.6l1.7-0.4C304,341.8,304.2,341.8,304.4,341.7z"/>
		<path class="st5" d="M289.6,281.3c-0.1,0.1-0.2,0.1-0.4,0.2l-1,0.4c-0.9,0.4-2.2,0.9-3.9,1.5c-3.3,1.2-7.9,2.7-13,4.1
			c-4.4,1.2-8.9,2-13.5,2.5c-0.9,0.1-1.7,0.1-2.4,0.1c-0.6,0-1.2,0-1.8,0l-1.1-0.1c-0.1,0-0.3,0-0.4,0c0,0,0.1,0,0.4,0h1.1
			c0.5,0,1.1,0,1.8-0.1c0.7-0.1,1.5-0.1,2.3-0.2c4.5-0.5,9-1.4,13.3-2.6c5.1-1.4,9.7-2.9,13-4l3.9-1.3l1.1-0.4
			C289.4,281.4,289.5,281.3,289.6,281.3z"/>
		<path class="st5" d="M243.3,297.3c-0.2,0.7-0.4,1.4-0.6,2.1c-0.3,2,0,4,1,5.7l0.1,0.1l-0.1,0.1c-1.4,1.9-2.3,4.1-2.8,6.5
			c-0.5,2.8-0.4,5.7,0.5,8.4c0.5,1.5,1.2,3,2.1,4.3l0.1,0.2l-0.1,0.2c-1.3,2.1-2.2,4.6-2.4,7.1c-0.2,2-0.1,4,0.4,6
			c0.5,1.8,1.2,3.5,2.1,5.1c0,0-0.1-0.1-0.3-0.3s-0.4-0.5-0.6-0.9c-0.7-1.2-1.2-2.4-1.6-3.8c-0.6-2-0.8-4.1-0.6-6.1
			c0.2-2.6,1-5.1,2.4-7.4v0.4c-1-1.4-1.7-2.8-2.2-4.4c-0.9-2.8-1-5.8-0.5-8.7c0.5-2.4,1.5-4.7,3-6.6v0.2c-1-1.8-1.3-4-0.9-6
			c0.1-0.5,0.3-1.1,0.5-1.6C243,297.7,243.1,297.5,243.3,297.3z"/>
		<path class="st5" d="M273.5,384.2c0,0-0.1-0.1-0.3-0.2s-0.5-0.4-0.8-0.8c-1-1.1-1.8-2.2-2.5-3.5c-1.1-2-1.8-4.2-2-6.5
			c-0.3-3,0.1-6.1,1.4-8.8v0.2c-3.7-5.8-3.4-13.4,0.8-18.9v0.4c-3.8-3.7-5.6-9-4.8-14.3c0.2-1.2,0.5-2.4,0.9-3.5
			c0.5-1,0.7-2.1,0.8-3.3c-0.1-1.1-0.5-2.1-1.3-2.9c-0.8-0.8-1.4-1.8-2-2.8c-1-2-1.3-4.3-1-6.5c0.4-2.1,1.3-4,1.4-5.9
			s-0.8-3.6-1.3-5.4c-0.5-1.7-0.6-3.5-0.3-5.3c0.4-3,1.9-5.7,4.1-7.8v0.2c-1.1-2.4-1.5-5.1-1.3-7.7c0.1-0.9,0.3-1.9,0.6-2.7
			c0,0.2-0.1,0.5-0.1,0.7c-0.1,0.7-0.2,1.4-0.3,2c-0.2,2.6,0.3,5.2,1.4,7.6v0.1l-0.1,0.1c-2.1,2-3.5,4.7-3.9,7.6
			c-0.2,1.7-0.1,3.4,0.4,5.1c0.5,1.7,1.5,3.5,1.3,5.6s-1.1,3.9-1.4,5.9c-0.3,2.1,0,4.2,1,6.1c0.5,1,1.2,1.9,1.9,2.7
			c0.8,0.9,1.3,2,1.4,3.2c-0.1,1.2-0.4,2.4-0.9,3.5c-0.4,1.1-0.7,2.2-0.9,3.4c-0.7,5.1,1,10.2,4.6,13.8l0.2,0.2l-0.2,0.2
			c-2.1,2.7-3.3,6.1-3.3,9.6c-0.1,3.1,0.8,6.1,2.5,8.6l0.1,0.1l-0.1,0.1c-1.2,2.7-1.7,5.7-1.4,8.6c0.2,2.2,0.9,4.4,1.9,6.4
			C271,381.3,272.1,382.9,273.5,384.2z"/>
		<path class="st5" d="M289.3,321.4c-0.5,0.2-1.1,0.3-1.7,0.3c-1.1,0.2-2.6,0.4-4.6,0.6c-3.9,0.5-9.3,1-15.2,1.4s-11.4,0.6-15.3,0.6
			c-1.9,0-3.5,0-4.6,0c-0.6,0-1.1,0-1.7-0.1c0.6-0.1,1.1-0.1,1.7-0.1l4.6-0.2c3.9-0.2,9.3-0.4,15.3-0.8s11.3-0.9,15.2-1.2l4.6-0.4
			C288.1,321.4,288.7,321.3,289.3,321.4z"/>
		<path class="st5" d="M292.5,300.1c-0.6,0.2-1.1,0.3-1.7,0.4c-1.1,0.2-2.7,0.5-4.8,0.9c-4,0.7-9.6,1.5-15.8,2.2s-11.8,1-15.9,1.2
			c-2,0.1-3.7,0.1-4.8,0.1c-0.6,0-1.2,0-1.8,0c0.6-0.1,1.2-0.2,1.8-0.2l4.8-0.3c4.1-0.3,9.7-0.7,15.9-1.4s11.8-1.4,15.8-2l4.8-0.7
			C291.3,300.3,291.9,300.2,292.5,300.1z"/>
		<path class="st10" d="M289.3,281c4.6-2.3,18.5,0.3,20.6,5c2.7-2.9,7.2-3,10.1-0.4c0.9,0.8,1.6,1.9,1.9,3.1c1.4-4.1,5.9-6.4,10-5
			c0.2,0.1,0.3,0.1,0.5,0.2c2.6-3.2,6.8-4.6,10.8-5.8c1.7-0.7,3.6-0.9,5.4-0.7c2.5,0.5,4.3,2.8,5.8,4.9c2.6,3.6,5.2,7.4,5.6,11.8
			s-2.6,9.4-7,9.4c0,4.1-3.3,7.5-7.4,7.5c-1.4,0-2.9-0.4-4.1-1.2c-3,4.7-9.2,6.1-13.9,3.2c-2,3.8-6.7,5.3-10.5,3.3
			c-0.2-0.1-0.5-0.3-0.7-0.4c-4,3.5-10.1,3-13.6-1c0-0.1-0.1-0.1-0.1-0.2"/>
		<path class="st5" d="M306.9,319.5c-0.4,0-0.7,0-1.1-0.1c-1-0.2-2-0.5-2.9-1c-3-1.7-5.2-4.4-6.4-7.5c-1.1-3.2-1.6-6.5-1.5-9.9
			c0-1.3,0.1-2.3,0.1-3c0-0.4,0.1-0.7,0.2-1.1c0.1,0,0,1.6,0.1,4.1c0,3.3,0.5,6.6,1.6,9.7c1.1,3.1,3.3,5.7,6.1,7.4
			C304.3,318.7,305.6,319.2,306.9,319.5z"/>
		<path class="st5" d="M313.6,307.8c-0.6-1-1-2-1.3-3.1c-1.7-5.2-2.3-10.6-1.8-16c0.1-1.1,0.3-2.2,0.6-3.3c0,1.1-0.1,2.2-0.2,3.3
			c-0.3,5.3,0.3,10.7,1.7,15.9C313,305.6,313.3,306.7,313.6,307.8z"/>
		<path class="st5" d="M326.4,303.5c-0.6-0.6-1.1-1.3-1.4-2.1c-1.9-3.6-2.8-7.7-2.5-11.8c0-0.8,0.1-1.7,0.4-2.5
			c0.2,0-0.4,3.8,0.7,8.4S326.6,303.4,326.4,303.5z"/>
		<path class="st5" d="M341,308.2c-0.1,0-0.2-1.4-0.7-3.7c-0.7-3-1.6-5.9-2.7-8.7c-1.2-3.4-2.5-6.3-3.5-8.4s-1.8-3.3-1.7-3.4
			s0.3,0.3,0.6,0.8s0.9,1.4,1.4,2.4c1.4,2.7,2.6,5.5,3.6,8.4c1.1,2.9,1.9,5.8,2.5,8.8c0.2,0.9,0.3,1.8,0.4,2.8
			C341.1,307.5,341.1,307.9,341,308.2z"/>
		<path class="st5" d="M301,281.1c0.1,0.2-2.4,1.6-4.4,4.3s-2.8,5.5-2.9,5.4C294.3,286.5,297.1,282.9,301,281.1L301,281.1z"/>
		<path class="st8" d="M407.3,447.6l9.5,38.2l-45.3,12c-0.9-4.6,22-20.3,22-20.3l-7-25.5L407.3,447.6z"/>
		<g class="st11">
			<path class="st12" d="M405.1,472.2c1,0.1,1.8,0.9,1.9,1.9c0,1-0.7,1.8-1.7,1.9c-1.1-0.1-1.9-0.9-2-2c0.1-1,1.1-2,2-1.8"/>
		</g>
		<g class="st11">
			<path class="st12" d="M416.8,485.8l-1.1-3.8l-43,13c0,0-1.8,1.5-1.1,2.9L416.8,485.8z"/>
		</g>
		<path class="st5" d="M393,478.2c0.1,0.2,1.2,0,2.5,0.5s2.1,1.3,2.3,1.1s-0.5-1.4-2.1-1.9S392.9,478,393,478.2z"/>
		<path class="st5" d="M387.6,482c0,0.2,1.1,0.4,2.1,1.2s1.5,1.8,1.7,1.7s0-1.4-1.3-2.4S387.6,481.7,387.6,482z"/>
		<path class="st5" d="M386.5,488.4c0.2,0,0.2-1.3-0.7-2.4s-2.1-1.4-2.1-1.1s0.8,0.7,1.5,1.6S386.3,488.4,386.5,488.4z"/>
		<path class="st5" d="M391.7,471.8c0.1,0.2,1.1-0.4,2.4-0.6s2.4-0.1,2.4-0.3s-1.1-0.8-2.6-0.5S391.5,471.6,391.7,471.8z"/>
		<path class="st5" d="M389.4,466.3c0.8,0,1.6-0.2,2.3-0.6c0.8-0.4,1.5-0.8,2.2-1.4c0.4-0.3,0.8-0.7,1.1-1.1
			c0.2-0.2,0.4-0.5,0.5-0.7c0.2-0.4,0.1-0.9-0.2-1.3c-0.3-0.3-0.7-0.4-1.1-0.3c-0.3,0.1-0.6,0.2-0.8,0.4c-0.5,0.3-0.9,0.5-1.3,0.9
			c-0.7,0.6-1.2,1.2-1.7,2c-0.5,0.7-0.8,1.5-0.8,2.3c0.1,0,0.4-0.8,1.3-1.9c0.5-0.7,1.1-1.2,1.7-1.7c0.4-0.3,0.8-0.5,1.2-0.8
			c0.5-0.3,0.9-0.4,1-0.2s0.1,0.1,0,0.3c-0.1,0.2-0.2,0.4-0.4,0.5c-0.3,0.3-0.7,0.7-1,1c-0.6,0.6-1.3,1-2,1.5
			C390.1,465.9,389.3,466.2,389.4,466.3z"/>
		<path class="st5" d="M389.7,466.5c0.3-0.8,0.3-1.7,0-2.5c-0.2-0.9-0.5-1.7-1-2.5c-0.3-0.5-0.6-0.9-1-1.3c-0.4-0.6-1.1-0.9-1.8-0.8
			c-0.4,0.1-0.7,0.5-0.8,0.9c0,0.3,0,0.6,0,0.9c0.1,0.6,0.2,1.1,0.4,1.6c0.4,0.8,0.9,1.6,1.6,2.2c1.2,1,2.2,1,2.2,0.9
			s-0.8-0.4-1.8-1.4c-0.6-0.6-1-1.2-1.3-2c-0.2-0.4-0.3-0.9-0.3-1.4c-0.1-0.5,0-1,0.2-1s0.7,0.2,1,0.6c0.3,0.4,0.6,0.7,0.9,1.1
			c0.5,0.7,0.8,1.5,1.1,2.3C389.6,465.6,389.6,466.5,389.7,466.5z"/>
		<path class="st8" d="M445.2,456l-0.7,39.4l-46.8-0.1c0.3-4.7,26.5-13.9,26.5-13.9l-0.1-26.5L445.2,456z"/>
		<g class="st11">
			<path class="st12" d="M436.8,479.1c0.9,0.3,1.5,1.3,1.3,2.3c-0.2,1-1.2,1.6-2.2,1.4c-1-0.3-1.6-1.4-1.4-2.4
				c0.3-1,1.4-1.5,2.4-1.2c0,0,0,0,0,0"/>
		</g>
		<g class="st11">
			<path class="st12" d="M444.5,495.3l-0.1-4l-44.9,1.4c0,0-2.1,0.9-1.9,2.5L444.5,495.3z"/>
		</g>
		<path class="st5" d="M423.5,481.8c0,0.2,1.1,0.4,2.3,1.1s1.7,1.8,1.9,1.7s-0.1-1.5-1.5-2.4S423.5,481.6,423.5,481.8z"/>
		<path class="st5" d="M417.4,484c0,0.2,0.9,0.6,1.7,1.7s1,2.1,1.2,2.1s0.4-1.4-0.6-2.6S417.4,483.8,417.4,484z"/>
		<path class="st5" d="M414.6,489.9c0.2,0,0.5-1.1,0-2.5s-1.6-1.8-1.8-1.6s0.6,0.9,1,2S414.4,489.9,414.6,489.9z"/>
		<path class="st5" d="M423.9,475.2c0.1,0.2,1.1-0.1,2.4,0s2.3,0.5,2.4,0.3s-0.8-1.1-2.4-1.1S423.8,475,423.9,475.2z"/>
		<path class="st5" d="M423.1,469.3c0.8,0.2,1.6,0.2,2.3,0c0.8-0.2,1.7-0.4,2.5-0.8c0.5-0.2,0.9-0.5,1.4-0.8
			c0.3-0.2,0.5-0.3,0.7-0.6c0.3-0.4,0.4-0.9,0.1-1.3c-0.2-0.3-0.6-0.5-1-0.5c-0.3,0-0.6,0-0.9,0.1c-1.4,0.3-2.6,1-3.6,2
			c-1.1,1-1.5,1.9-1.4,2s0.6-0.7,1.8-1.5c0.6-0.5,1.3-0.9,2.1-1.2c0.4-0.2,0.9-0.3,1.4-0.4c0.5-0.1,0.9-0.1,1,0.1s0,0.1-0.1,0.3
			c-0.2,0.2-0.3,0.3-0.5,0.4c-0.4,0.3-0.8,0.5-1.2,0.7c-0.7,0.4-1.5,0.7-2.3,0.9C424.5,468.9,423.8,469.1,423.1,469.3z"/>
		<path class="st5" d="M423.4,469.7c0.5-0.7,0.7-1.5,0.6-2.4c0-0.9-0.1-1.8-0.3-2.7c-0.1-0.5-0.3-1-0.6-1.5
			c-0.2-0.6-0.8-1.1-1.5-1.3c-0.4,0-0.8,0.3-1,0.7c-0.1,0.3-0.2,0.6-0.2,0.9c-0.1,0.6-0.1,1.1,0,1.7c0.1,0.9,0.5,1.8,1,2.5
			c0.9,1.3,1.9,1.6,1.9,1.5s-0.7-0.6-1.4-1.8c-0.4-0.7-0.7-1.5-0.7-2.3c0-0.5,0-1,0-1.4c0.1-0.5,0.3-0.9,0.5-0.9s0.6,0.4,0.8,0.8
			c0.2,0.4,0.4,0.9,0.6,1.3c0.3,0.8,0.4,1.6,0.4,2.5C423.5,468.8,423.3,469.6,423.4,469.7z"/>
		<path class="st5" d="M375.1,260.2c0,0-19.6,114.6-17.4,123s28.3,93.6,28.3,93.6l32.1-10.1L398,386c0,0,13.3-63.2,13.3-64.3
			s5.3-47,5.3-47L375.1,260.2z"/>
		<path class="st5" d="M461.6,287c-1.8-21-7.5-35.6-7.5-35.6c-1.8,0.9-49.5,25.8-49.5,25.8l9.2,108.7l5.4,92.7H447
			c0,0,4.4-79.1,5.6-95.8C452.6,382.8,463.4,308,461.6,287z"/>
		<path class="st9" d="M398,386c-0.7-0.6-1.4-1.2-2-1.8c-3.3-2.9-7.4-4.8-11.7-5.6c-1.7-0.3-2.7-0.3-2.7-0.4c0.9-0.2,1.9-0.2,2.8,0
			c2.2,0.3,4.4,0.9,6.4,1.9c2,1,3.9,2.3,5.5,3.8C397,384.5,397.5,385.2,398,386z"/>
		<path class="st9" d="M444.7,395.8c-0.3,0.2-0.6,0.3-0.9,0.4c-0.8,0.3-1.6,0.5-2.4,0.7c-5.5,1.3-11.2,1.1-16.5-0.6
			c-0.8-0.2-1.6-0.5-2.4-0.9c-0.3-0.1-0.6-0.2-0.8-0.4c0-0.1,1.3,0.4,3.3,0.9c5.3,1.4,10.9,1.6,16.4,0.6
			C443.4,396.1,444.7,395.7,444.7,395.8z"/>
		<path class="st6" d="M355.5,292.2c1.8-0.4,3.6-1.3,4.9-2.5c1-1,1.9-2.1,2.6-3.4c1.4-2,2.3-4.4,2.6-6.8c0.1-2.5-1.6-7.3-3.8-8.2
			c-1.3-0.6-3.6-0.5-4.4,1c-0.8,1.5-1.3,3.1-1.5,4.8c-0.3,1.9,0.4,4.1-1,5.3c-0.7,0.6-1.6,0.7-2.3,1.3c-1.2,1.1-0.7,3,0,4.4
			c0.7,1.5,1.5,2.9,2.5,4.3"/>
		<path class="st7" d="M355.1,292.4c-0.1-0.1-0.3-0.3-0.4-0.4c-0.2-0.3-0.5-0.7-0.9-1.3s-0.8-1.3-1.2-2.2c-0.6-1-0.9-2.1-0.9-3.3
			c0.1-0.7,0.4-1.4,1-1.8c0.6-0.4,1.3-0.6,1.9-1c0.6-0.4,0.9-1,1-1.7c0.1-0.8,0.1-1.6,0-2.4c0-0.9,0.1-1.7,0.3-2.5
			c0.2-0.9,0.5-1.7,0.8-2.5c0.2-0.4,0.4-0.9,0.6-1.3c0.3-0.4,0.7-0.8,1.2-1c0.9-0.4,2-0.4,2.9-0.2c1,0.3,1.8,0.9,2.4,1.8
			c0.5,0.8,0.9,1.6,1.3,2.5c0.7,1.6,1,3.4,0.9,5.1c-0.2,1.6-0.7,3.1-1.5,4.5c-0.6,1.2-1.4,2.4-2.2,3.5c-1.1,1.6-2.7,2.9-4.5,3.7
			c-0.5,0.2-1,0.4-1.5,0.5c-0.2,0.1-0.4,0.1-0.6,0.1c0,0,0.8-0.2,2-0.8c1.7-0.8,3.2-2.1,4.3-3.7c0.8-1.1,1.4-2.2,2.1-3.4
			c0.7-1.3,1.2-2.8,1.4-4.3c0.1-1.7-0.2-3.3-0.9-4.9c-0.3-0.8-0.7-1.6-1.3-2.3c-0.5-0.7-1.2-1.3-2-1.5c-0.8-0.2-1.7-0.2-2.5,0.1
			c-0.4,0.2-0.7,0.4-0.9,0.8c-0.2,0.4-0.4,0.8-0.6,1.2c-0.7,1.5-1,3.2-1.1,4.9c0,0.8,0,1.6-0.1,2.4c-0.1,0.8-0.5,1.6-1.2,2.1
			c-0.7,0.4-1.4,0.6-1.9,1c-0.5,0.4-0.8,0.9-0.8,1.5c0,1.1,0.2,2.2,0.7,3.1c0.4,0.9,0.8,1.6,1.1,2.2
			C354.7,291.7,355.1,292.3,355.1,292.4z"/>
		<path class="st6" d="M357.7,276.1c1,0,2,0.2,2.8,0.7c0.9,0.5,1.2,1.7,0.6,2.6c-0.6,0.8-1.8,0.7-2.7,0.5c0.8,0,1.6,0.3,2.3,0.7
			c0.7,0.5,0.9,1.4,0.5,2.1c-0.5,0.4-1.1,0.7-1.7,0.6c-1.4,0-2.8-0.1-4.1-0.4c-1-0.1-2-0.6-2.7-1.4c-0.7-0.8-0.6-1.9,0.2-2.6
			c0,0,0.1-0.1,0.1-0.1c-1-0.5-1.7-1.5-1.9-2.6c-0.2-1.1,0.2-1.5-0.6-2.3c-1.4-1.5-2.1-2.9-1-5s3.5-2.1,5.8-4.4l8.3,8.2L357.7,276.1
			z"/>
		<path class="st6" d="M366.2,273.6c-6,5.5-10.9-1.7-11.5-0.5s-2.1,3-3.5,3s-2.3-0.3-2.2-2.4s6.3-9.4,6.3-9.4L366.2,273.6z"/>
		<path class="st7" d="M366.2,273.6c-0.3-0.2-0.6-0.4-0.9-0.7l-2.3-1.9c-2-1.6-4.7-3.9-7.9-6.6h0.4c-2,2.3-3.8,4.8-5.4,7.4
			c-0.4,0.6-0.7,1.4-0.8,2.1c0,0.8,0.1,1.5,0.7,1.7c0.3,0.1,0.7,0.2,1,0.1c0.3,0,0.7,0,1-0.2c0.6-0.3,1.1-0.8,1.6-1.3
			c0.2-0.3,0.4-0.5,0.6-0.8c0.1-0.1,0.2-0.3,0.3-0.4l0.1-0.1c0.1-0.1,0.1-0.1,0.2-0.2c0.1-0.1,0.3-0.1,0.4,0c0.6,0.3,1.2,0.6,1.7,1
			c0.9,0.7,1.9,1.2,3,1.5c1.6,0.4,3.3,0.2,4.7-0.6C365.6,274.1,366.1,273.7,366.2,273.6c-0.5,0.5-0.9,1-1.5,1.3
			c-1.5,1-3.3,1.3-5,0.9c-1.1-0.3-2.2-0.8-3.2-1.5c-0.5-0.4-1-0.7-1.6-1h0.1c0,0,0,0,0-0.1l0,0c0,0,0,0.1,0,0.1s-0.2,0.3-0.3,0.5
			c-0.2,0.3-0.4,0.6-0.6,0.9c-0.5,0.6-1.1,1.1-1.7,1.5c-0.4,0.2-0.8,0.3-1.2,0.3c-0.4,0-0.8,0-1.2-0.2c-0.4-0.2-0.8-0.5-0.9-1
			c-0.1-0.4-0.2-0.8-0.2-1.3c0.1-0.9,0.4-1.7,0.8-2.4c1.6-2.6,3.5-5.1,5.5-7.5l0.2-0.2l0.2,0.2c3.2,2.8,5.9,5.2,7.8,6.9l2.2,2
			C365.8,273.2,366,273.4,366.2,273.6z"/>
		<path class="st6" d="M352.5,279.5c-0.6,0.3-0.8,1-0.5,1.6c0,0,0.1,0.1,0.1,0.1c0.4,0.5,1,0.9,1.7,1.1c2,0.9,4.1,1.3,6.2,1.2
			c0.7-0.1,1.5-0.4,1.6-1s-0.5-1.4-1.2-1.8c-1.7-0.7-3.4-1.1-5.2-1.2"/>
		<path class="st7" d="M355.3,279.5c0.3,0,0.5,0,0.8,0c0.7,0,1.5,0.1,2.2,0.2c1.1,0.2,2.2,0.6,3.1,1.2c0.3,0.2,0.5,0.5,0.6,0.9
			c0.1,0.4,0.1,0.8-0.1,1.2c-0.5,0.6-1.3,0.9-2,0.9c-1.4,0.1-2.7-0.1-4-0.6c-1-0.3-2-0.7-3-1.2c-0.4-0.2-0.7-0.6-0.9-1
			c-0.1-0.3-0.1-0.7,0-1c0.3-0.5,0.7-0.5,0.6-0.5s-0.3,0.1-0.4,0.6c-0.1,0.3-0.1,0.6,0,0.8c0.2,0.3,0.4,0.6,0.8,0.8
			c1,0.4,2,0.8,3,1.1c1.2,0.4,2.5,0.6,3.8,0.5c0.6,0,1.2-0.2,1.6-0.6c0.3-0.4,0-1-0.4-1.3c-0.8-0.6-1.8-1-2.8-1.2
			C356.4,279.7,355.2,279.6,355.3,279.5z"/>
		<path class="st7" d="M358.5,279.2c0,0,0.2-0.1,0.5-0.1c0.4,0,0.8-0.1,1.2-0.2c0.4-0.2,0.9-0.8,0.7-1.3s-1-0.8-1.8-1
			c-1.4-0.4-2.8-0.6-4.3-0.8c-1.1-0.1-1.8,0.1-1.8,0c0.6-0.3,1.2-0.4,1.8-0.4c1.5,0,3,0.2,4.4,0.6c0.4,0.1,0.8,0.2,1.3,0.4
			c0.4,0.2,0.8,0.6,0.9,1c0.1,0.4,0.1,0.9-0.2,1.2c-0.2,0.3-0.5,0.5-0.8,0.6c-0.5,0.1-0.9,0.2-1.4,0.1
			C358.6,279.3,358.5,279.3,358.5,279.2z"/>
		<path class="st10" d="M494.7,285.3c-1.5-4.4-3-8.7-4.6-13.1c-1.8-5.2-3.8-10.7-7.8-14.5s-12-6.1-16.5-2.9l-3.4,50
			c-1,1.3-0.4,3.3,1,4.3c1.4,0.8,3.1,1.2,4.7,1.1c6.8,0,13.5-1.8,19.5-5c3.9-2.1,7.8-5.3,8.7-9.7C497,291.9,495.9,288.5,494.7,285.3
			z"/>
		<path class="st8" d="M466.5,257.1c-2.2-16-7.3-35.8-7.3-35.8s4.4-24.7,3.5-38.9c-0.7-9.9-1.8-28-2.4-38.2
			c-0.3-4.5-3.4-8.4-7.7-9.6l-15.5-4.5l-32.4,5.5l-16.2,3.6c-3.2,0.7-6.1,2.1-8.6,4.3c-5,4.3-8.5,10-10.1,16.3
			c-2.2,8.1-7.5,56.4-7.5,56.4l-13.9,48.1l22.3,13.1c0,0,4-19.6,5.1-23.3c-2.5,11.3-13.8,54.5-18.2,86.2l42.6,1.6l6.2-16.6l3.7,17
			l52.9,2C462.9,344.1,471.5,292.8,466.5,257.1z"/>
		<path class="st5" d="M385.8,156.3c0,0.1-0.1,0.2-0.2,0.3l-0.5,0.7c-0.7,1-1.2,2-1.7,3c-1.8,3.8-3.1,7.9-3.6,12.1
			c-0.9,6.2-1,12.5-0.1,18.7c0.9,7.7,1.3,15.4,1.3,23.1c0,4.1,0.1,8.1-0.1,12c-0.2,3.7-0.7,7.4-1.4,11.1c-1.3,7-2.9,13.2-4,18.4
			s-2,9.5-2.6,12.4c-0.3,1.4-0.5,2.6-0.7,3.4c-0.1,0.4-0.1,0.6-0.2,0.9c0,0.1,0,0.2-0.1,0.3c0-0.1,0-0.2,0-0.3
			c0-0.2,0.1-0.5,0.1-0.9c0.1-0.8,0.3-2,0.6-3.4c0.5-3,1.3-7.2,2.5-12.5s2.6-11.5,3.9-18.4c0.6-3.6,1.1-7.3,1.3-11
			c0.2-3.8,0.1-7.8,0.1-11.9c0-7.7-0.4-15.4-1.3-23c-0.8-6.3-0.7-12.6,0.2-18.9c0.6-4.2,1.9-8.3,3.9-12.1c0.5-1,1.2-2,1.9-2.9
			l0.5-0.7C385.6,156.5,385.7,156.4,385.8,156.3z"/>
		<path class="st8" d="M399,138.1l-0.7-9.6c9.7,0.5,26.8-1.2,37.2-4.4l1.8,8.8L399,138.1z"/>
		<path class="st5" d="M409.2,128.3c0,0,0,0.2,0.1,0.5s0.1,0.9,0.1,1.5c0.1,1.3,0.3,3.3,0.4,5.7c0.4,5,0.8,12.2,1.3,21.1
			c1,17.9,1.9,42.6,1.5,69.9s-2,52-3.4,69.8c-0.8,8.9-1.4,16.1-1.9,21.1c-0.3,2.5-0.5,4.4-0.6,5.7l-0.2,1.5c0,0.3-0.1,0.5-0.1,0.5
			s0-0.2,0-0.5s0.1-0.9,0.1-1.5c0.1-1.3,0.3-3.3,0.5-5.7c0.5-5,1.1-12.2,1.8-21.1c1.4-17.8,2.9-42.5,3.3-69.8s-0.5-52-1.4-69.8
			c-0.4-8.9-0.8-16.2-1.1-21.1c-0.1-2.5-0.3-4.4-0.3-5.8c0-0.6,0-1.1-0.1-1.5C409.2,128.7,409.2,128.5,409.2,128.3z"/>
		<path class="st5" d="M418.1,160.2c0.3-0.1,0.6-0.1,0.8,0c0.8,0.2,1.5,0.6,2,1.2c0.8,0.9,1.1,2.2,0.8,3.4c-0.5,2-2.6,3.2-4.6,2.7
			c-1-0.3-1.8-0.9-2.3-1.8c-0.6-1-0.7-2.3-0.1-3.4c0.3-0.7,0.9-1.3,1.6-1.7c0.5-0.2,0.8-0.3,0.8-0.2s-0.3,0.1-0.7,0.4
			c-0.6,0.4-1.1,1-1.3,1.6c-0.4,1-0.4,2.1,0.2,3c0.9,1.5,2.9,2.1,4.4,1.2c0.7-0.4,1.3-1.1,1.5-1.9c0.3-1,0.1-2.1-0.6-2.9
			c-0.4-0.6-1-1-1.7-1.2C418.4,160.3,418.1,160.3,418.1,160.2z"/>
		<path class="st5" d="M418.1,216c0,0,0.3-0.1,0.8,0c0.8,0.2,1.5,0.6,2,1.2c0.8,0.9,1.1,2.2,0.8,3.3c-0.5,2-2.6,3.2-4.6,2.7
			c-1-0.3-1.8-0.9-2.3-1.8c-0.6-1-0.7-2.3-0.1-3.4c0.3-0.7,0.9-1.3,1.6-1.7c0.2-0.2,0.5-0.2,0.8-0.2c0,0-0.3,0.1-0.7,0.4
			c-0.6,0.4-1.1,1-1.3,1.6c-0.4,1-0.4,2.1,0.2,3c0.9,1.5,2.9,2.1,4.4,1.2c0.7-0.4,1.3-1.1,1.5-1.9c0.3-1,0.1-2.1-0.6-2.9
			c-0.4-0.6-1-1-1.7-1.2C418.4,216,418.1,216,418.1,216z"/>
		<path class="st5" d="M418.1,271.7c0,0,0.3-0.1,0.8,0c0.8,0.2,1.5,0.6,2,1.2c0.8,0.9,1.1,2.2,0.8,3.4c-0.5,2-2.6,3.2-4.6,2.7
			c-1-0.3-1.8-0.9-2.3-1.8c-0.6-1-0.7-2.3-0.1-3.4c0.3-0.7,0.9-1.3,1.6-1.7c0.5-0.3,0.8-0.3,0.8-0.2s-0.3,0.1-0.7,0.4
			c-0.6,0.4-1.1,1-1.3,1.6c-0.4,1-0.4,2.1,0.2,3c0.9,1.5,2.9,2.1,4.4,1.2c0.7-0.4,1.3-1.1,1.5-1.9c0.3-1,0.1-2.1-0.6-2.9
			c-0.4-0.6-1-1-1.7-1.2C418.4,271.8,418.1,271.8,418.1,271.7z"/>
		<g class="st13">
			<path d="M405.2,193.7c13.8,14.2,29.4,28,48.6,32.7c1.2,0.4,2.5,0.5,3.8,0.3c1.3-0.3,2.2-1.4,2.3-2.7c-5.5,1.2-14.7-5-21.7-8.7
				c-12.1-6.4-21.9-15.2-33.5-22.4"/>
		</g>
		<g class="st13">
			<path d="M378.8,181.7c-2.7,6.2-3.9,13-3.4,19.7c0.5,6.7,1.7,13.3,1.9,20c0.3,10.8-3.7,24-2.5,33.7l0.5,0.8
				C384.8,224.9,380.5,206.4,378.8,181.7z"/>
		</g>
		<path class="st5" d="M437.1,132.1c-0.4,0.3-0.9,0.5-1.4,0.7c-0.5,0.2-1,0.4-1.7,0.7s-1.4,0.5-2.3,0.7c-4.5,1.3-9,2.1-13.6,2.5
			c-4.6,0.5-9.2,0.7-13.8,0.6c-1.8,0-3.2-0.1-4.2-0.2c-0.5,0-1-0.1-1.5-0.2c0.5-0.1,1-0.1,1.5,0c1,0,2.4,0,4.2,0
			c3.5,0,8.4-0.2,13.8-0.7c4.6-0.4,9.1-1.2,13.5-2.4c0.9-0.2,1.6-0.4,2.3-0.6s1.2-0.4,1.7-0.6C436.2,132.4,436.6,132.2,437.1,132.1z
			"/>
		<path class="st5" d="M389.6,142.7c-0.3,1.8-0.8,3.6-1.3,5.4c-0.7,2.9-1.1,5.4-1.2,5.4c-0.1-1.9,0.2-3.7,0.7-5.5
			C388.1,146.1,388.7,144.4,389.6,142.7z"/>
		<path class="st10" d="M381.3,142.3c-0.7,1.6,12.8,84,86.1,121.8c0-3.5-0.4-6.9-1.3-10.3c0,0-54.8-41.5-64.5-75.8l-10.3-39.6
			C391.2,138.5,382.7,139,381.3,142.3z"/>
		<path class="st8" d="M96.3,456.8l-1,24.4c0,0,24.5,9.2,24.8,13.7l-47.4-0.2l-0.1-38.1L96.3,456.8z"/>
		<path class="st1" d="M80.7,479.1c-0.9,0.3-1.5,1.2-1.3,2.2c0.2,1,1.2,1.6,2.2,1.4c1-0.3,1.6-1.3,1.4-2.3c-0.4-1-1.4-1.5-2.4-1.2"
			/>
		<path class="st5" d="M72.7,494.7l0.1-3.8l45.4,1.6c0,0,2.1,0.9,1.9,2.4L72.7,494.7z"/>
		<path class="st5" d="M96.1,481c0,0.2-1.2,0.3-2.3,1.1s-1.8,1.7-2,1.6s0.1-1.4,1.5-2.3S96.1,480.8,96.1,481z"/>
		<path class="st5" d="M101,483c0,0.2-1,0.6-1.7,1.6s-1,2-1.3,2s-0.4-1.3,0.6-2.5S101,482.8,101,483z"/>
		<path class="st5" d="M103.8,489c-0.2,0-0.5-1.1,0.1-2.4s1.7-1.8,1.8-1.6s-0.6,0.9-1,1.9S104.1,489,103.8,489z"/>
		<path class="st8" d="M142.9,456.3l-1,24.4c0,0,24.5,9.2,24.8,13.7l-47.4-0.2l-0.1-38.1L142.9,456.3z"/>
		<path class="st1" d="M127.3,478.6c-0.9,0.3-1.5,1.2-1.3,2.2c0.2,1,1.2,1.6,2.2,1.4c1-0.3,1.6-1.3,1.4-2.4c-0.4-1-1.4-1.5-2.4-1.1"
			/>
		<path class="st5" d="M119.3,494.2l0.1-3.8l45.4,1.6c0,0,2.1,0.9,1.9,2.4L119.3,494.2z"/>
		<path class="st5" d="M142.7,480.5c0,0.2-1.2,0.3-2.3,1.1s-1.8,1.7-2,1.6s0.1-1.4,1.5-2.3S142.8,480.3,142.7,480.5z"/>
		<path class="st5" d="M147.7,482.5c0.1,0.2-1,0.6-1.7,1.6s-1,2-1.3,2s-0.4-1.3,0.6-2.5S147.7,482.3,147.7,482.5z"/>
		<path class="st5" d="M150.5,488.5c-0.2,0-0.5-1.1,0.1-2.4s1.7-1.8,1.8-1.6s-0.6,0.9-1,1.9S150.7,488.5,150.5,488.5z"/>
		<path class="st5" d="M69.6,272.8c0,0-1.4,25.7-2,32.1s3,173.6,3,173.6h27.5c0,0,10-96.2,10.5-111.5s5.6-58.3,5.6-58.3v-37.2
			L71,273"/>
		<path class="st5" d="M108.7,307.1c7.3,1.7,8.4,91.4,8.4,91.4l0.2,81.6l28.1,0.2c0,0,4.1-35.8,5.7-71c1-22.8,2.4-42.3,2.4-42.3
			s2.8-29.5,3-54s-2.4-59.2-2.4-59.2l-41.7,9.8L108.7,307.1z"/>
		<path class="st5" d="M456.9,137.2c0.1,0.1-1,0.8-2.5,2.2c-3.9,3.7-6.4,8.7-7.1,14c-0.3,2-0.2,3.3-0.3,3.3
			c-0.1-0.3-0.1-0.6-0.1-0.9c-0.1-0.8-0.1-1.6,0-2.5c0.5-5.5,3-10.6,7.2-14.2c0.6-0.5,1.3-1,2-1.5
			C456.6,137.3,456.9,137.2,456.9,137.2z"/>
		<path class="st9" d="M115.9,283.9c0.2,1.1,0.3,2.3,0.3,3.5c0,2.1,0,5.1-0.2,8.4s-0.7,6.2-1,8.3c-0.1,1.1-0.4,2.3-0.8,3.4
			c0-1.2,0.2-2.3,0.4-3.5c0.3-2.1,0.6-5,0.8-8.3s0.3-6.2,0.4-8.3C115.7,286.2,115.7,285,115.9,283.9z"/>
		<path class="st9" d="M83.8,282c-0.2,0.8-0.6,1.6-1.1,2.3c-2.2,3.4-5.6,6-9.6,7.1c-0.8,0.3-1.6,0.4-2.5,0.4
			c-0.1-0.2,3.8-0.7,7.6-3.5S83.6,281.9,83.8,282z"/>
		<path class="st9" d="M152.5,297c-1,0-2-0.2-2.9-0.6c-4.6-1.6-8.4-4.8-10.7-9c-0.5-0.8-0.9-1.8-1.1-2.7c0.1,0,0.5,1,1.5,2.5
			c1.2,2,2.8,3.8,4.5,5.3c1.8,1.5,3.8,2.7,6,3.6C151.4,296.6,152.5,296.9,152.5,297z"/>
		<path class="st9" d="M108.6,283c0,0,0.1-0.2,0.4-0.3c0.4-0.2,0.9-0.2,1.4,0c0.7,0.2,1.2,0.8,1.5,1.5c0.2,1.3-0.6,2.5-1.9,2.7
			c-0.6,0.1-1.2,0-1.7-0.3c-0.6-0.5-0.9-1.2-0.9-1.9c0-0.5,0.2-0.9,0.5-1.3c0.2-0.3,0.4-0.3,0.4-0.3c-0.3,0.5-0.5,1-0.5,1.6
			c0,0.6,0.3,1.1,0.8,1.5c0.9,0.5,2,0.1,2.5-0.7c0.2-0.3,0.3-0.7,0.2-1.1c-0.2-0.6-0.6-1-1.1-1.3C109.7,282.9,109.1,282.9,108.6,283
			z"/>
		<path class="st9" d="M100.7,387.3c-0.7,0.9-1.5,1.8-2.4,2.6c-2,2-4.2,3.8-6.4,5.6c-2.3,1.7-4.6,3.3-7.1,4.8c-1,0.6-2,1.2-3.2,1.6
			c0.9-0.7,1.9-1.4,2.9-2c1.8-1.2,4.3-2.9,6.9-4.9s4.9-4,6.5-5.4C98.9,388.7,99.8,388,100.7,387.3z"/>
		<path class="st9" d="M143,378.6c-0.6,1-1.4,1.9-2.2,2.7c-1.4,1.6-3.4,3.8-5.8,6s-4.6,4.2-6.2,5.6c-0.9,0.8-1.8,1.5-2.8,2.1
			c0.8-0.9,1.6-1.7,2.5-2.4c1.6-1.4,3.8-3.4,6.1-5.7s4.4-4.4,5.9-5.9C141.3,380.1,142.1,379.3,143,378.6z"/>
		<path class="st6" d="M51.1,288.7v12.9l2.8,6.6c0,0,14,7.7,15.6,7.7s2.2-0.1,2-1.5s-5.1-9.3-5.1-9.3l-0.5-7.9c0,0,1.2-3.4,2.7-3
			s4,5.1,4.4,5.7s2.9,3.4,5.2,2.9l-1.3-5.5l-5.4-8.9l-5.8-4.6L51.1,288.7z"/>
		<path class="st14" d="M69,315.7c-0.8-0.5-1.4-1-2-1.7c-3-3.1-5.1-7-6.2-11.2c-0.3-0.9-0.4-1.8-0.4-2.6c0.2,0,0.8,4,3.3,8.4
			S69.2,315.6,69,315.7z"/>
		<path class="st14" d="M61.9,312.3c0,0.1-0.7-0.3-1.4-1c-1-1-1.8-2.2-2.5-3.5c-0.6-1.3-1.1-2.6-1.4-4c-0.2-0.5-0.3-1.1-0.3-1.7
			c0.3,0.5,0.6,1,0.7,1.6c0.4,1,0.9,2.4,1.5,3.8c0.6,1.2,1.3,2.4,2.2,3.4C61.4,311.8,61.9,312.2,61.9,312.3z"/>
		<path class="st14" d="M63.1,295.3c0,0.2-0.8,0.3-1.6,0.9s-1,1.5-1.2,1.5s-0.1-0.3,0-0.6c0.1-0.5,0.4-0.9,0.8-1.3
			c0.4-0.3,0.9-0.5,1.4-0.6C62.9,295.1,63.1,295.2,63.1,295.3z"/>
		<path class="st14" d="M56,296.4c0.1,0.1-0.5,0.5-0.8,1.3s-0.2,1.4-0.3,1.5s-0.6-0.7-0.2-1.7S56,296.3,56,296.4z"/>
		<path class="st6" d="M183.1,278.5v4.7c0,0-4.2,3.8-4.7,4.8s-1.2,8.9-1.2,8.9s2.4,6,2.9,6.1s2.1,0.2,1.8-1.8s-1.1-5.4-1.1-5.4
			l2.3-4l2.1,4.1v7.1c0,0-4.3,2.7-4,3.8c0.1,1,1,1.6,2,1.5c0.1,0,0.2,0,0.2,0c1.2-0.3,2.4-0.8,3.6-1.3c0,0,1.2,2.7,3.5,1.4l2.3-1.4
			c0,0,1.7,2.2,3.2,1.8c1-0.3,1.7-1.1,2-2.1l2.6-8.8c0.7-2.3,0.9-4.6,0.8-7l-0.7-12.1L183.1,278.5z"/>
		<path class="st6" d="M182.6,292.5c0.4-1.1,1.1-2.2,1.9-3c0.7-0.6,1.7-1.1,2.4-0.6c0.4,0.4,0.6,0.9,0.5,1.4c-0.1,0.5-0.4,1-0.7,1.4
			c0.7-0.2,1.6-0.4,2.1,0.1c0.4,0.5,0.5,1.2,0.1,1.8c-0.4,0.5-0.9,0.9-1.4,1.2c0.5-0.4,1.2,0.1,1.3,0.7c0,0.6-0.2,1.2-0.6,1.6
			c-0.4,0.7-1.1,1.4-1.8,1.8c-0.8,0.4-1.7,0.3-2.4-0.3c-0.5-0.5-0.4-1.4,0.1-1.8c0.1-0.1,0.2-0.2,0.4-0.2c-0.6,0.3-1.4,0.1-1.9-0.5
			c-0.5-0.5-0.8-1.3-0.7-2C182,293.6,182.2,293,182.6,292.5"/>
		<path class="st14" d="M192.6,296.1c-0.1,2.3-0.4,4.5-0.9,6.7c0,0.9-0.4,1.8-0.9,2.6c-0.6,0.5-1.3,0.8-2.1,0.9
			c-0.5,0.1-0.9,0.2-1.3,0.4c-0.3,0.1-0.4,0.3-0.5,0.2s0.1-0.2,0.4-0.4c0.4-0.3,0.9-0.5,1.4-0.6c0.7-0.2,1.3-0.5,1.8-0.9
			c0.5-0.7,0.7-1.5,0.7-2.3C191.4,300.4,191.9,298.2,192.6,296.1z"/>
		<path class="st14" d="M196.5,298.9c0.2,1.7-0.1,3.3-0.8,4.9c-0.4,1.1-1.1,2.2-2,2.9c-0.8,0.5-1.5,0.4-1.4,0.3s0.6-0.1,1.2-0.7
			c0.8-0.8,1.4-1.7,1.7-2.8C196.1,301.1,196.3,298.9,196.5,298.9z"/>
		<path class="st8" d="M72.8,128.8c0,0-12.6,5.7-17.9,23s-18.8,82.9-15.3,104.1c0,0,8.1,32.5,9.4,33.6l18.3-6.4l10-118.8L72.8,128.8
			z"/>
		<path class="st8" d="M138.8,125.9l-30.6-7.4c0,0-33.2,7.4-35.5,10.3c-2.2,2.9-3.6,112.7-4.6,118.6c-1.2,7.3,0,31.2,0,31.2
			l88.3,3.7l4.3-14.4l-4.3-131.9L138.8,125.9z"/>
		<path class="st8" d="M175.8,278.5c0,0-23.5-63-22.5-71.7s2.1-49.3,2.1-49.3l1.1-21.7c7,2.7,12.1,9,13.4,16.4
			c2.1,12.7,10.9,51.8,10.9,51.8s21.4,66.6,20,74.7L175.8,278.5z"/>
		<path class="st5" d="M81,148.6c0,0.1,0.1,0.2,0.1,0.3c0,0.3,0.1,0.6,0.2,1s0.2,1,0.3,1.6s0.2,1.4,0.3,2.2
			c0.5,4.7,0.3,9.4-0.4,14.1c-1.1,6.9-2.7,13.7-4.7,20.4c-2.4,8.2-4.2,16.5-5.4,24.9c-1.3,9-1.9,17.6-2.3,25.4s-0.5,14.9-0.6,20.8
			c-0.1,5.9-0.1,10.7-0.2,14.1c0,1.6-0.1,2.9-0.1,3.8c0,0.4,0,0.7,0,1c0,0.1,0,0.2,0,0.3c0-0.1,0-0.2,0-0.3c0-0.3,0-0.6,0-1
			c0-0.9,0-2.2,0-3.8c0-3.4,0-8.2,0-14.1s0.1-13,0.5-20.9s1-16.5,2.3-25.5c1.2-8.5,3-16.8,5.4-25c1.9-6.7,3.5-13.4,4.6-20.2
			c0.8-4.6,1-9.3,0.6-14c-0.1-0.8-0.2-1.6-0.2-2.2s-0.2-1.1-0.3-1.6s-0.1-0.7-0.2-1C81,148.8,81,148.7,81,148.6z"/>
		<path class="st5" d="M158.5,155.8c0,0.3,0,0.6,0,0.9c0,0.6-0.1,1.5-0.2,2.5c-0.2,2.2-0.3,5.3-0.5,9.2c-0.4,7.8-0.6,18.6-0.1,30.5
			s1.2,22.6,1.8,30.4c0.3,3.8,0.5,7,0.6,9.2c0.1,1,0.1,1.9,0.1,2.5c0,0.3,0,0.6,0,0.9c-0.1-0.3-0.1-0.6-0.1-0.9
			c-0.1-0.6-0.1-1.5-0.3-2.5c-0.2-2.2-0.5-5.4-0.8-9.2c-0.7-7.8-1.5-18.5-2-30.4s-0.2-22.7,0.3-30.5c0.3-3.9,0.5-7,0.7-9.2
			c0.1-1,0.2-1.9,0.3-2.5C158.4,156.4,158.4,156.1,158.5,155.8z"/>
		<path class="st5" d="M138.8,231.3c-0.1,0.2-0.2,0.3-0.3,0.5l-1,1.2c-0.8,1.1-2.1,2.6-3.8,4.4s-3.7,3.8-6.1,6
			c-5.2,4.7-10.8,8.7-16.9,12.2c-2.8,1.6-5.4,2.9-7.6,3.9s-4,1.7-5.3,2.2l-1.5,0.5c-0.2,0.1-0.3,0.1-0.5,0.1
			c0.1-0.1,0.3-0.2,0.5-0.3l1.4-0.6c1.3-0.5,3-1.3,5.2-2.4s4.7-2.4,7.5-3.9s5.7-3.5,8.7-5.6s5.7-4.4,8.1-6.5s4.5-4.1,6.1-5.9
			s3-3.2,3.9-4.2l1-1.2C138.6,231.4,138.8,231.3,138.8,231.3z"/>
		<path class="st5" d="M139.6,189.3c0,0.2-0.1,0.4-0.1,0.6c-0.1,0.4-0.3,1-0.5,1.6c-0.4,1.4-1.1,3.4-2,5.9s-2.1,5.4-3.6,8.6
			s-3.2,6.6-5.3,10s-4.2,6.7-6.2,9.5s-4,5.3-5.8,7.3s-3.2,3.6-4.2,4.6l-1.2,1.2c-0.3,0.3-0.4,0.4-0.4,0.4c0.1-0.2,0.2-0.3,0.4-0.5
			l1.1-1.3c1-1.1,2.4-2.7,4.1-4.7s3.6-4.5,5.6-7.3s4.1-6,6.2-9.5s3.8-6.9,5.3-10s2.7-6,3.7-8.5s1.7-4.4,2.2-5.9
			c0.2-0.6,0.4-1.2,0.6-1.6C139.5,189.6,139.5,189.4,139.6,189.3z"/>
		<g class="st13">
			<path d="M81.6,172.1c-11.5,32.1-14.6,66.6-13,100.7c4.3-4.1,5.7-10.5,5.6-16.4s-1.3-11.8-1.6-17.7
				C71.7,216.1,85.8,194.2,81.6,172.1z"/>
		</g>
		<g class="st13">
			<path d="M137.9,194.7c0.4-1-2.5,16.5-6.5,23.1c-4,6.6-9.6,12.1-16.2,16.1C115.1,233.9,130.2,216.6,137.9,194.7z"/>
		</g>
		<g class="st13">
			<path d="M157.1,163.5c0,0,0.2,65.9,2.8,69.5c0,0,0.7-16.8,1.1-25.3c0.8-15.1-1.4-30.2-3.6-45.2"/>
		</g>
		<path class="st12" d="M79.8,165.8c-0.4,0.1-0.7,0.1-1.1,0c-0.7,0-1.7-0.1-3-0.3c-6.6-0.9-13-2.7-19.1-5.4c-1.2-0.5-2.1-1-2.7-1.3
			c-0.4-0.1-0.7-0.3-1-0.6c0-0.1,1.5,0.6,3.8,1.5s5.6,2.1,9.3,3.2s7.2,1.7,9.6,2.2C77.1,165.2,78.4,165.5,79.8,165.8z"/>
		<path class="st12" d="M156.5,160.6c0,0.2-16.7-0.1-37.3-0.6s-37.3-1-37.3-1.2s16.7,0.1,37.3,0.6S156.5,160.5,156.5,160.6z"/>
		<path class="st12" d="M173.8,169.2c-2.5,1.2-5.1,2.2-7.7,3c-2.6,1-5.2,1.8-7.9,2.4c0-0.2,3.4-1.5,7.7-3
			C168.5,170.6,171.1,169.8,173.8,169.2z"/>
		<path class="st12" d="M71.5,205.3c-0.4,0.1-0.8,0.1-1.1,0.1c-0.7,0-1.8,0-3.1-0.1c-6.8-0.6-13.4-2.6-19.4-6
			c-1.1-0.6-2-1.2-2.6-1.6c-0.3-0.2-0.6-0.4-0.9-0.7c0.1-0.1,1.4,0.8,3.7,2c6,3.1,12.5,5.1,19.2,5.9
			C69.8,205.1,71.5,205.2,71.5,205.3z"/>
		<path class="st12" d="M134.2,202.2c-0.2,0.1-0.4,0.1-0.6,0.1l-1.7,0.1c-1.5,0.1-3.7,0.2-6.4,0.3c-14.1,0.2-28.2-1.7-41.7-5.7
			c-2.6-0.8-4.7-1.4-6.1-2l-1.6-0.6c-0.2-0.1-0.4-0.1-0.6-0.3c0.2,0,0.4,0.1,0.6,0.1l1.7,0.5c1.4,0.5,3.5,1.1,6.1,1.8
			c6.8,1.9,13.7,3.3,20.6,4.2c7,0.9,14,1.4,21,1.4c2.7,0,4.9,0,6.4-0.1h1.7C133.8,202.2,134,202.2,134.2,202.2z"/>
		<path class="st12" d="M155.6,194.7c-0.8,0.4-1.7,0.6-2.6,0.8c-1.6,0.4-3.9,0.8-6.4,1.1c-2.2,0.3-4.3,0.4-6.5,0.5
			c-0.9,0.1-1.8,0-2.7-0.1c0.9-0.2,1.8-0.3,2.7-0.3c1.7-0.1,4-0.3,6.5-0.6s4.8-0.6,6.4-0.9C153.8,194.9,154.7,194.8,155.6,194.7z"/>
		<path class="st12" d="M179.5,202.7c-0.9,0.5-1.8,1-2.8,1.3c-1.7,0.7-4.2,1.6-7,2.5s-5.3,1.5-7.1,1.9c-1,0.3-2,0.4-3,0.5
			c0.9-0.4,1.9-0.7,2.9-0.9c1.8-0.5,4.3-1.2,7.1-2.1s5.2-1.7,7-2.3C177.6,203.2,178.5,202.9,179.5,202.7z"/>
		<path class="st12" d="M68.6,244.8c-0.4,0.1-0.8,0.1-1.3,0c-0.8,0-2-0.1-3.4-0.3c-7.5-1-14.6-3.4-21.1-7.3
			c-1.2-0.7-2.2-1.4-2.8-1.9c-0.4-0.2-0.7-0.5-1-0.8c0.1-0.1,1.5,0.9,4,2.3c3.3,1.8,6.7,3.3,10.2,4.5c3.5,1.2,7.2,2.1,10.8,2.7
			C66.8,244.6,68.6,244.7,68.6,244.8z"/>
		<path class="st12" d="M126.5,243.7c-0.2,0-0.4,0.1-0.6,0.1h-1.7c-1.5,0-3.6,0-6.2,0c-5.2-0.1-12.4-0.6-20.3-1.5s-15-2.3-20.1-3.4
			c-2.6-0.6-4.6-1.1-6-1.4L70,237c-0.2,0-0.4-0.1-0.6-0.2c0.2,0,0.4,0,0.6,0.1l1.6,0.3c1.4,0.3,3.5,0.7,6.1,1.2
			c5.1,1,12.2,2.3,20.1,3.2s15.1,1.4,20.3,1.7c2.6,0.1,4.7,0.2,6.2,0.2l1.7,0.1C126.1,243.7,126.3,243.7,126.5,243.7z"/>
		<path class="st12" d="M158.8,238.6c-0.3,0.1-0.7,0.3-1,0.3c-0.7,0.2-1.7,0.4-2.9,0.6c-3.2,0.6-6.5,1-9.7,1.1
			c-3.3,0.2-6.5,0.1-9.8-0.2c-1.3-0.1-2.3-0.2-3-0.4c-0.4,0-0.7-0.1-1.1-0.2c0-0.1,1.6,0.1,4.1,0.2s5.9,0.2,9.7,0s7.2-0.6,9.7-0.9
			C156.1,238.9,157.4,238.8,158.8,238.6z"/>
		<path class="st12" d="M193,245.6c-0.3,0.2-0.6,0.4-0.9,0.6c-0.6,0.4-1.4,0.9-2.5,1.4c-2.8,1.5-5.8,2.7-8.8,3.7
			c-3,1-6.1,1.8-9.2,2.3c-1.2,0.2-2.2,0.3-2.9,0.4c-0.4,0.1-0.7,0.1-1.1,0c0-0.1,1.5-0.3,3.9-0.8c3.1-0.7,6.1-1.5,9.1-2.5
			c3-1,5.9-2.2,8.8-3.5C190.6,246.7,191.8,246.1,193,245.6z"/>
		<path class="st12" d="M67.6,272.1c-1,0.6-2,1.1-3.1,1.4c-2.6,1-5.2,1.8-7.9,2.3c-2.7,0.6-5.4,0.9-8.2,1c-1.1,0.1-2.3,0.1-3.4-0.1
			c1.1-0.2,2.3-0.3,3.4-0.4c2.7-0.3,5.4-0.7,8.1-1.2c2.7-0.6,5.3-1.3,7.9-2.1C65.4,272.7,66.5,272.3,67.6,272.1z"/>
		<path class="st12" d="M158.4,272.5c-0.3,0.1-0.6,0.1-0.9,0.2L155,273c-2.3,0.3-5.5,0.7-9.6,1c-8.1,0.8-19.3,1.4-31.7,1.4
			s-23.6-0.8-31.7-1.6c-4-0.4-7.3-0.8-9.6-1.1l-2.6-0.4c-0.3,0-0.6-0.1-0.9-0.2c0.3,0,0.6,0,0.9,0l2.6,0.3c2.3,0.2,5.5,0.6,9.6,0.9
			c8.1,0.7,19.3,1.4,31.7,1.4s23.6-0.5,31.7-1.2c4.1-0.3,7.3-0.6,9.6-0.8l2.6-0.2C157.9,272.5,158.2,272.4,158.4,272.5z"/>
		<path class="st12" d="M155.9,135.1c0,0.2-17.5-0.1-39-0.5s-39-1-39-1.1s17.5,0.1,39,0.5S155.9,135,155.9,135.1z"/>
		<path class="st5" d="M182.5,278.5c-0.8-1-1.3-2.1-1.6-3.3c-0.4-1.2-0.6-2.4-0.4-3.7c0.4,1.1,0.7,2.3,0.9,3.5
			C182,276.9,182.7,278.4,182.5,278.5z"/>
		<path class="st5" d="M190.8,278.5c-0.2,0.1-0.9-1.5-1.6-3.5c-0.5-1.2-0.9-2.4-1-3.7c0.7,1.1,1.2,2.3,1.6,3.5
			C190.3,276,190.7,277.2,190.8,278.5z"/>
		<path class="st5" d="M55,288.3c-0.7-1.4-1.3-2.9-1.7-4.5c-0.8-2.5-1.3-4.6-1.2-4.7c0.7,1.4,1.3,3,1.7,4.5
			C54.6,286.2,55.1,288.3,55,288.3z"/>
		<path class="st5" d="M61.8,285.5c-0.2,0.1-0.9-1.8-1.7-4.1s-1.3-4.2-1.1-4.3c0.7,1.3,1.3,2.7,1.7,4.1
			C61.3,282.6,61.6,284,61.8,285.5z"/>
		<path class="st6" d="M106.7,128.5L106.7,128.5c-0.5-1.2-0.8-2.5-0.7-3.8l3.4-49.1c-0.1-13.7,7.9-25.2,21.6-24.9l1.3,0.1
			c12.7,1,22.5,11.7,22.5,24.5c0,11.9-0.2,25-0.8,31.3c-1.2,13.1-14.5,14.1-14.5,14.1l-0.6,5.1c0,0,0.7,8.9-9.7,11.5
			c-8,2-16.5-3.3-20-5.9C108,130.7,107.2,129.7,106.7,128.5z"/>
		<path class="st14" d="M139.6,120.7c-6.1-0.5-11.9-2.7-16.8-6.4c0,0,3.3,9.8,16.5,9.7L139.6,120.7z"/>
		<path class="st5" d="M150.8,86.8c-0.1,1-1,1.8-2,1.8c-1,0-1.8-0.8-1.8-1.8c0,0,0,0,0,0c0.1-1,1-1.8,2-1.7
			C150,85,150.8,85.8,150.8,86.8z"/>
		<path class="st5" d="M151.4,81.5c-0.3,0.2-1.6-1-3.6-1.1s-3.6,0.7-3.8,0.5s0.2-0.5,0.9-1c0.9-0.5,2-0.8,3.1-0.7
			c1,0.1,2,0.5,2.8,1.2C151.4,81,151.5,81.4,151.4,81.5z"/>
		<path class="st5" d="M131.6,85.8c-0.1,1-1,1.8-2,1.8c0,0,0,0,0,0c-1,0-1.8-0.8-1.8-1.8c0,0,0,0,0-0.1c0.1-1,1-1.8,2-1.7
			c0,0,0,0,0,0C130.8,83.9,131.6,84.7,131.6,85.8C131.6,85.7,131.6,85.8,131.6,85.8z"/>
		<path class="st5" d="M131.6,80.3c-0.3,0.2-1.6-1-3.6-1.1s-3.6,0.7-3.8,0.5s0.2-0.5,0.8-1c0.9-0.5,2-0.8,3-0.7c1,0.1,2,0.5,2.8,1.2
			C131.5,79.7,131.7,80.2,131.6,80.3z"/>
		<path class="st5" d="M137.7,95.8c1.1-0.3,2.2-0.4,3.3-0.3c0.5,0,1-0.1,1.1-0.4c0.1-0.5,0-1.1-0.2-1.6l-1.2-4
			c-1.7-5.8-2.8-10.5-2.6-10.6s1.8,4.6,3.4,10.3c0.4,1.4,0.8,2.8,1.1,4.1c0.3,0.6,0.3,1.3,0.1,2c-0.2,0.4-0.5,0.6-0.9,0.7
			c-0.3,0-0.6,0-0.9,0C139.9,96.1,138.8,96,137.7,95.8z"/>
		<path class="st5" d="M131.6,96.7c0.3,0,0.1,2.2,1.9,3.9s4.1,1.7,4.1,2c0,0.1-0.6,0.4-1.6,0.3c-1.3-0.1-2.5-0.6-3.4-1.5
			c-0.9-0.9-1.4-2-1.4-3.3C131.2,97.2,131.5,96.7,131.6,96.7z"/>
		<path class="st5" d="M132.7,72.4c-0.2,0.5-2.2,0.1-4.6,0.2s-4.3,0.6-4.6,0.1c-0.1-0.3,0.3-0.7,1.1-1.2c1.1-0.6,2.3-0.9,3.5-0.9
			c1.2,0,2.4,0.2,3.6,0.7C132.4,71.7,132.8,72.2,132.7,72.4z"/>
		<path class="st5" d="M151.1,75.6c-0.4,0.4-1.7-0.2-3.4-0.3s-3.1,0-3.4-0.4c-0.1-0.3,0.1-0.7,0.8-1.1c1.8-0.9,3.9-0.7,5.5,0.6
			C151.2,74.9,151.3,75.4,151.1,75.6z"/>
		<path class="st6" d="M110.4,88.6c0.1-2-1.4-3.7-3.4-3.7c-0.1,0-0.1,0-0.2,0c-2.5,0-5.3,1.2-5.6,6.3c-0.4,9,8.7,7.6,8.7,7.3
			S110.3,92.3,110.4,88.6z"/>
		<path class="st14" d="M108.2,94.9c0,0-0.2,0.1-0.4,0.2c-0.4,0.2-0.8,0.2-1.2,0c-0.9-0.4-1.7-1.9-1.6-3.6c0-0.8,0.2-1.5,0.6-2.2
			c0.2-0.6,0.7-1,1.2-1.1c0.4-0.1,0.8,0.1,0.9,0.5c0.1,0.3,0,0.4,0.1,0.4s0.2-0.1,0.1-0.5c0-0.2-0.2-0.4-0.3-0.6
			c-0.2-0.2-0.5-0.3-0.9-0.3c-0.8,0.1-1.4,0.6-1.7,1.3c-0.4,0.8-0.7,1.6-0.7,2.5c0,1.8,0.8,3.6,2.1,4c0.5,0.2,1,0.1,1.4-0.2
			C108.2,95.1,108.3,94.9,108.2,94.9z"/>
		<path class="st5" d="M154.8,75c0.1,1.8,2.6-4.2,1.8-5.8c2.5,0.8,5.2-0.6,5.9-3.1c0.8-2.5-0.6-5.2-3.1-5.9
			c-0.4-0.1-0.8-0.2-1.2-0.2c1-1.7,0.8-3.8-0.6-5.2c-0.8-0.6-1.6-1-2.6-1.2c0.1-1.1-0.1-2.2-0.6-3.2c-1.9-4-6.7-5.7-10.7-3.8
			c-0.6,0.3-1.1,0.6-1.6,1c-2.4-3.6-7.3-4.6-11-2.2c-0.8,0.6-1.5,1.3-2.1,2.1c-3.5-2.3-8.1-1.4-10.4,2.1c-0.3,0.4-0.5,0.8-0.7,1.2
			c-2.3-1.3-5.1-1-7,0.8c-0.6,0.9-1.4,1.7-2.1,2.4c-1.1,0.6-2.2,1.1-3.3,1.5c-3.1,1.8-4.1,5.7-2.4,8.7c0.2,0.3,0.3,0.5,0.5,0.8
			c-1.3,0.9-2.5,2-3.5,3.3c-1,1.3-1.3,3-0.8,4.6c0.7,1.8,2.7,2.8,3.3,4.7c0.3,0.8,0.3,1.8,0.6,2.6c0.6,1.4,1.7,2.4,3.1,2.9
			c0.7,3.7,3.2,4.7,3.2,5.8c0.3,11.2,5.2,4.9,8.4-18.6c0.8-5.5-1.2-8.4,3.3-11.7c0.6,0.7,1.1,1.5,1.5,2.3c2.5,3.2,7.2,3.8,10.5,1.3
			c0.2-0.1,0.4-0.3,0.5-0.5c1.7,3.1,5.5,4.3,8.7,2.6c0.6-0.3,1.1-0.7,1.5-1.1c1.6,1.5,5.2,4.1,8.2,1.6
			C153.8,67.9,154.7,71.4,154.8,75z"/>
		<path class="st8" d="M142.4,124.8c-1.6-2.2-5.5-1.8-8.6-1.5c-8.5,0.9-17.8-0.9-24.3-5.5c-0.8-0.6-1.6-1.2-2.5-1.6
			c-2.8-1.3-4,0.3-4.3,1.8s-0.6,3-1.1,5.5c-1.4,4.9,2.3,9.1,8.2,12.2s13.2,3.8,20.1,3.7c2.9,0,5.9-0.3,8.3-1.7
			c3.3-2,4.1-5.8,4.6-9.2C143.1,127.3,143,125.9,142.4,124.8z"/>
		<path class="st5" d="M142.9,127.7c0.1,0.2,0.1,0.4,0.1,0.6c0,0.6,0,1.1-0.1,1.6c-0.5,2-1.8,3.8-3.5,4.9c-1.2,0.8-2.5,1.3-3.9,1.6
			c-1.6,0.3-3.2,0.5-4.8,0.5c-3.7,0.2-7.3,0.1-11-0.2c-3.7-0.3-7.3-1.6-10.4-3.7c-2.5-1.8-4.4-4.2-5.7-7c-0.9-1.9-1.2-3.9-1.1-6
			c0-0.3,0.1-0.7,0.1-0.9s0.1-0.5,0.2-0.7c0-0.2,0.1-0.4,0.2-0.6c0,0.2,0,0.4,0,0.6l-0.1,0.7c0,0.3,0,0.6,0,0.9
			c-0.1,2,0.3,4,1.2,5.8c1.3,2.7,3.2,5,5.6,6.7c3,2,6.5,3.2,10.1,3.5c3.6,0.3,7.3,0.4,10.9,0.3c3.4-0.1,6.4-0.6,8.5-2
			c1.7-1.1,2.9-2.7,3.5-4.6C142.7,129.2,142.8,128.4,142.9,127.7z"/>
		<g class="st13">
			<path d="M122.8,136.3c-3.4-0.3-8.4-0.8-11.6-2.2c-5.6-2.6-8-8.2-8.6-14.4v1.2c-0.6,4.6,1,9.1,4.2,12.4c3.2,3.2,7.4,5.3,11.9,6
				c4.5,0.6,9.1,0.4,13.5-0.7c2.8-0.6,5.8-1.7,7.3-4.2C134.2,136.5,128.4,136.7,122.8,136.3z"/>
		</g>
		<path class="st5" d="M109.5,132.7c-0.2-0.6-0.4-1.3-0.4-2c-0.2-1.7-0.2-3.3,0.1-5c0.3-1.7,1.1-3.2,2.3-4.4
			c0.5-0.5,1.1-0.9,1.8-1.1c0.1,0.1-0.7,0.4-1.5,1.4c-1,1.2-1.7,2.7-2,4.2c-0.3,1.6-0.4,3.2-0.3,4.8
			C109.6,131.3,109.6,132,109.5,132.7z"/>
		<path class="st5" d="M125.2,137.3c-0.2-0.1,1-3,1.2-6.8s-0.5-6.9-0.3-6.9C127.7,128.1,127.4,133,125.2,137.3z"/>
		<path class="st5" d="M138.3,123.2c0,0,0.3,0,0.6,0.2c0.5,0.4,0.8,0.8,1,1.4c0.6,1.7,0.8,3.6,0.3,5.4c-0.4,1.8-1.3,3.4-2.6,4.8
			c-0.5,0.6-1.1,1-1.8,1.3c-0.1-0.1,0.6-0.6,1.5-1.6c1.1-1.3,1.9-2.9,2.3-4.6c0.4-1.7,0.3-3.4-0.1-5.1
			C139.3,124.3,138.8,123.7,138.3,123.2z"/>
		<path class="st15" d="M430.7,157c0,0,10.7,1.4,10.3,9.3c1.1-0.4,2-1.3,2.4-2.4c0.5-1.7,5.5-22,4.7-25.4s-3.8-8.6-9.7-14.2
			C438.4,124.4,420,145.5,430.7,157z"/>
		<path class="st16" d="M416.9,115l-0.7,5.2c0,0-1,10.8-1.2,12.4s1.1,4.6,5.9,5.3c3.9,0.5-9.5,6-17.4,4.3c-8.2-1.7-10-8.5-6.9-8.9
			c1-0.2,1.9-0.7,2.6-1.4c2-1.8,2.7-10.6,1.1-13S416.9,115,416.9,115z"/>
		<path class="st17" d="M394.1,76c3.9-5.6,10.1-9.2,16.9-9.9c15.1-1.7,31,5.5,34.2,24.3c0.9,5.4,0.1,11.3-0.2,17.2l-4.9,4.6l-1.4,3
			l-8.7-2.5l-28.2-6.6c1.8-4.1,3.4-8.3,4.8-12.6l-15.3,4.8C391.5,98.3,389.4,84.3,394.1,76z"/>
		<path class="st18" d="M404.1,170.2l-3.1,3.8c0,0-1.1,3.2-6.2-1.7s-9.6-21-11.3-26.3s1.4-11,10.1-17.9S404,119,404,119l31.1-14.5
			l0.6,22.4L404.1,170.2z"/>
		<path class="st15" d="M404.1,170.2l-3.1,3.8c0,0-1.1,3.2-6.2-1.7c0,0,2-10.1,1.8-11.6s-5.3-25-5.9-26.2c-0.3-0.6-1.5-0.9-2.7-1.2
			c1.5-1.7,3.2-3.2,5-4.6c4,3.2,11.6,9.2,12.8,10.1s1.9,16.1,1.2,27.4L404.1,170.2z"/>
		<path class="st18" d="M397.9,115l-3.9,3.3c0,0-3.2,1.4-3.6,6.7c-0.4,5.4,4.6,17.1,7.7,24.7s10,5.9,22.2-4
			c7.5-6.3,13.3-14.6,16.6-23.8l-2.7-10.2L397.9,115z"/>
		<path class="st15" d="M397.9,115l-3.9,3.3c0,0-3.2,1.4-3.6,6.7c0,2.4,0.4,4.8,1.1,7.1c1.1-1,2.3-1.8,3.6-2.4
			c1.9-0.6,18.4,6.1,19.3,7s-0.3,4.3-0.3,4.3l6.2-0.7c0,0,11.2-14.3,11.4-18.1s0.2-7.4-1.6-10.2L397.9,115z"/>
		<path class="st6" d="M404.2,138.7c-0.1,4.4,14.7,5.6,28.8-0.2l-2.8-26.6l-3-13l-4-6l-15-14h-3c-8.2-0.9-13,5.5-13.6,13.7
			c-0.6,9.2-1.1,20.4,0,27.2c2.1,13.7,12.5,14.3,12.6,14.3"/>
		<path class="st5" d="M395.7,104.5c0,1,0.7,1.7,1.7,1.8c0.9,0.1,1.7-0.6,1.8-1.5c0,0,0,0,0-0.1c0-1-0.7-1.8-1.7-1.8
			C396.6,102.8,395.7,103.5,395.7,104.5C395.7,104.4,395.7,104.5,395.7,104.5z"/>
		<path class="st5" d="M393.9,99.9c0.2,0.2,1.6-0.7,3.5-0.7s3.3,1,3.5,0.8s-0.1-0.5-0.7-1c-0.8-0.6-1.8-0.9-2.8-0.9
			c-1,0-2,0.3-2.8,0.9C394,99.4,393.8,99.8,393.9,99.9z"/>
		<path class="st5" d="M412.9,104.5c0,1,0.7,1.7,1.7,1.8c0.9,0.1,1.7-0.6,1.8-1.5c0,0,0,0,0-0.1c0-1-0.7-1.8-1.7-1.8
			C413.8,102.8,413,103.5,412.9,104.5C412.9,104.4,412.9,104.5,412.9,104.5z"/>
		<path class="st5" d="M411.4,99.5c0.2,0.2,1.6-0.8,3.5-0.7s3.3,1,3.5,0.8s-0.1-0.5-0.7-1c-0.8-0.6-1.8-0.9-2.8-0.9
			c-1,0-1.9,0.3-2.8,0.9C411.5,99,411.3,99.4,411.4,99.5z"/>
		<path class="st5" d="M405.6,113c-1-0.3-2-0.5-3.1-0.6c-0.5-0.1-0.9-0.2-1-0.5c0-0.5,0.1-1,0.3-1.4c0.5-1.2,1-2.4,1.5-3.7
			c2-5.2,3.5-9.6,3.3-9.6s-2,4.1-4,9.3c-0.5,1.3-1,2.5-1.4,3.7c-0.3,0.6-0.4,1.3-0.3,1.9c0.1,0.3,0.4,0.6,0.8,0.7
			c0.3,0.1,0.5,0.1,0.8,0.1C403.5,113.1,404.6,113.1,405.6,113z"/>
		<path class="st7" d="M404.1,134.1c6.5,0.1,12.9-1.5,18.4-4.8c0,0-4.6,9.6-18.4,8.2L404.1,134.1z"/>
		<path class="st7" d="M411.9,116.6c-0.6-0.9-1.5-1.4-2.5-1.4c-1.4-0.1-2.8,0.6-3.6,1.8c-0.3,0.6-0.3,1.2-0.2,1.8
			c0.1,0.3,0,0.2,0.3,0.4c0.8,0.8,1.8,1.4,2.8,1.8c1.2,0.3,2.4-0.1,3.1-1.1C412.4,118.8,412.4,117.5,411.9,116.6z"/>
		<path class="st5" d="M411.5,114.4c-0.3,0-0.3,2-2.1,3.5s-4,1.2-4,1.5c0,0.1,0.5,0.4,1.4,0.4c1.2,0,2.4-0.4,3.3-1.1
			c0.9-0.7,1.5-1.8,1.6-2.9C411.9,114.9,411.7,114.4,411.5,114.4z"/>
		<path class="st5" d="M411.6,93.5c0.2,0.5,2.1,0.4,4.3,0.8s4,1.1,4.3,0.7c0.1-0.2-0.1-0.7-0.8-1.3c-1.9-1.4-4.3-1.8-6.5-1.1
			C412,92.9,411.6,93.3,411.6,93.5z"/>
		<path class="st5" d="M393.9,95.7c0.5,0.4,1.8-0.3,3.5-0.7s3.2-0.3,3.5-0.8c0.1-0.3-0.2-0.6-0.9-0.9c-1-0.3-2-0.4-3-0.2
			c-1,0.2-1.9,0.7-2.7,1.3C393.9,95.1,393.7,95.5,393.9,95.7z"/>
		<path class="st17" d="M429.2,118.1c0,0-0.6,9.8-9.5,18.9s-23.6,20.3-22.9,41.6c0,0.9,0.7,1.6,1.5,1.8c1.5,0.2,8.9,0.4,13.8,1.9
			c0,0,3.5,1,4.2-2.3c8.3-38.1,12.6-25,24-52.8c5.2-12.6,7.3-23.2,5-36.7c-2.5-14.6-12.7-22.2-24.2-24c5.8,4.4,11.4,13.3,8.2,39.7"
			/>
		<path class="st19" d="M430.7,157c0,0,10.7,1.4,10.3,9.3c1.1-0.4,2-1.3,2.4-2.4c0.4-1.2,3.1-12.2,4.2-19.5
			c-0.6,0.9-2.5,3.8-4.9,2.8c-2.8-1.2-7.1-5.7-6.9-8s1.8-8.8,1.8-8.8l-1.6-3C431.4,133.8,422.5,148.2,430.7,157z"/>
		<path class="st20" d="M410.3,181.8c0.6,0.1,1.3,0.3,1.8,0.5c0,0,3.5,1,4.2-2.3c8.3-38.1,12.6-25,24-52.8c5.2-12.6,7.3-23.2,5-36.7
			c-0.7-4.1-2.2-8.1-4.4-11.6c0.1,0.2,7.6,14.6,0.3,36.7C434.4,135.9,401.7,157.1,410.3,181.8z"/>
		<path class="st21" d="M392.4,92.8c1.6-5.4,4.2-8.5,10.6-10.3c7.5-2.1,19.1,5.6,24.2,16.1C407.5,81.4,397.6,86.4,392.4,92.8z"/>
		<path class="st22" d="M404.2,83.5c11.9-0.5,22.1,14.2,24.9,26.5v0.2c1.7-12.7-10.5-34.2-24.6-33.6c-11.7,0.5-12.4,7.2-13.4,19.2v2
			C392.2,91,395.3,83.8,404.2,83.5z"/>
		<path class="st6" d="M398.4,185.9c5.4,1.9,5.6,0.4,5.6,0.4l8.3-13.1c0,0-3.4-8.9-4.3-10.5s-4.4-9.3-4.4-9.3
			c-1.4,1-2.2,2.6-2.2,4.4c0,3.2,2.5,7.8,2.5,7.8l-7.9-1.9l-10.5-0.1c0,0-1.8,1.2,0,3.2l0,0c-0.8,1.1-0.8,2.5,0,3.6l1.3,1.9
			c0,0-0.7,0.4-0.1,1.7s3,2.8,3,2.8s-2.3,1.3-1.4,2.7S398.4,185.9,398.4,185.9z"/>
		<path class="st7" d="M395.5,169.1c-0.1,0.1-2.2-1-5-1.6s-5.2-0.4-5.2-0.6C388.8,166.2,392.5,167,395.5,169.1L395.5,169.1z"/>
		<path class="st7" d="M393.7,174.4c-1.2-0.3-2.4-0.7-3.6-1.2c-1.2-0.3-2.5-0.6-3.6-1.1c1.3-0.1,2.6,0,3.8,0.5
			C391.5,172.9,392.7,173.5,393.7,174.4z"/>
		<path class="st7" d="M393.1,180.1c-0.1,0.1-1-0.6-2.2-1.4s-2.1-1.5-2-1.7c0.9,0.2,1.7,0.6,2.4,1.2
			C392.5,179.1,393.3,180,393.1,180.1z"/>
		<path class="st8" d="M452.6,134.5c0,0,10.3,1.8,13.3,9.8c3.8,10.2,8.1,34.8,9,52s-11.5,27.8-17.7,28S401,190.9,401,190.9l11.6-18
			l34,15.9L452.6,134.5z"/>
		<path class="st5" d="M445.8,163.8c0,0.1,0,0.3,0,0.4l0.1,1.3c0,1.2,0.1,2.8,0.2,5c0.1,4.4,0.4,10.6,0.6,18.4v0.3l-0.3-0.1
			l-34-15.8l0.4-0.1l-11.6,18l-0.1-0.4l7.2,4.8c10.7,7,20.9,13.6,30.4,19.4c4.8,2.8,9.3,5.5,13.7,7.6c1.1,0.5,2.2,1,3.3,1.4
			c0.3,0.1,0.5,0.1,0.8,0.2h0.4c0.1,0,0.3,0,0.4-0.1l0.8-0.1l0.8-0.2c2-0.7,3.9-1.8,5.6-3.3c2.9-2.4,5.2-5.4,6.8-8.8
			c1.3-2.5,2.2-5.2,2.7-8c0.2-1,0.3-2,0.4-3.1c0.1-0.8,0.1-1.5,0.1-2.3c0-0.6,0-1.1,0-1.4c0-0.2,0-0.3,0-0.5c0,0.2,0,0.3,0,0.5
			c0,0.3,0,0.8,0,1.4c0,0.8,0,1.5-0.1,2.3c0,1-0.2,2.1-0.4,3.1c-0.5,2.8-1.3,5.6-2.6,8.2c-1.6,3.4-4,6.5-6.9,9
			c-1.7,1.5-3.6,2.6-5.7,3.4l-0.8,0.3l-0.9,0.1c-0.1,0-0.3,0.1-0.5,0.1l-0.5-0.1c-0.3,0-0.6-0.1-0.9-0.2c-1.2-0.4-2.3-0.8-3.4-1.4
			c-4.5-2.1-9-4.8-13.8-7.6c-9.4-5.8-19.6-12.4-30.3-19.4l-7.2-4.8l-0.2-0.2l0.2-0.3l11.6-18l0.1-0.2l0.2,0.1l34,16l-0.3,0.2
			c-0.2-7.8-0.4-14.1-0.5-18.4c0-2.1-0.1-3.8-0.1-5c0-0.5,0-1,0-1.3C445.8,164,445.8,163.9,445.8,163.8z"/>
		<path class="st5" d="M464.6,200.5c-0.1,0.1-0.8-1-2.1-2.5c-3.5-4-8.1-6.9-13.2-8.3c-2-0.6-3.2-0.7-3.2-0.8c0.3-0.1,0.6-0.1,0.9,0
			c0.8,0.1,1.6,0.2,2.4,0.4c2.6,0.6,5.1,1.7,7.4,3.1c2.3,1.4,4.3,3.2,6,5.3c0.5,0.6,1,1.3,1.4,2C464.4,200,464.5,200.2,464.6,200.5z
			"/>
		<g class="st13">
			<path d="M445.8,163.8c-0.4,7.7-2.2,15.2-5.5,22.3c2.1,0.9,4.5,1.7,6.2,3.3c0.5-0.4,0-0.8,0-1.5
				C446.1,180.2,446.2,171.3,445.8,163.8"/>
		</g>
		<g class="st13">
			<path d="M446.7,189c2.8-0.2,5.6-0.2,8.4,0c1.3,0,2.6,0.2,3.9,0.7c1,0.5,1.9,1,2.7,1.8c1.8,1.5,3.7,3.3,4.1,5.6
				c0.1,0.5,0.1,1-0.1,1.5c-0.2,0.5-0.7,0.8-1.2,0.8c-0.5-0.1-0.9-0.4-1.1-0.8c-0.7-0.8-1.5-1.6-2.3-2.4
				C457.4,192.7,451.8,189.5,446.7,189"/>
		</g>
	</g>
</g>
</svg>
