<?xml version="1.0" encoding="utf-8"?>
<!-- Generator: Adobe Illustrator 25.0.1, SVG Export Plug-In . SVG Version: 6.00 Build 0)  -->
<svg version="1.1" id="Layer_1" xmlns="http://www.w3.org/2000/svg" xmlns:xlink="http://www.w3.org/1999/xlink" x="0px" y="0px"
	 viewBox="0 0 484 393.9" style="enable-background:new 0 0 484 393.9;" xml:space="preserve">
<style type="text/css">
	.st0{fill:#30C39E;}
	.st1{opacity:0.7;fill:#FFFFFF;enable-background:new    ;}
	.st2{fill:#BCBCBC;}
	.st3{fill:#DBDBDB;}
	.st4{fill:#818181;}
	.st5{fill:#FF4081;}
	.st6{fill:none;stroke:#FFFFFF;stroke-miterlimit:10;}
	.st7{fill:#868686;}
	.st8{fill:none;stroke:#818181;stroke-miterlimit:10;}
	.st9{fill:none;stroke:#BCBCBC;stroke-miterlimit:10;}
	.st10{fill:#5D5D5D;}
	.st11{fill:#1A2E35;stroke:#1A2E35;stroke-miterlimit:10;}
	.st12{fill:#A3A3A3;}
	.st13{fill:#1A2E35;stroke:#1A2E35;stroke-linecap:round;stroke-linejoin:round;}
	.st14{fill:#545454;}
	.st15{fill:#FFFFFF;}
	.st16{fill:none;stroke:#828282;stroke-miterlimit:10;}
	.st17{fill:#C3C3C3;}
	.st18{fill:none;stroke:#BCBCBC;stroke-width:3;stroke-miterlimit:10;}
	.st19{fill:#FFFFFF;stroke:#1A2E35;stroke-miterlimit:10;}
	.st20{fill:#FFFFFF;stroke:#1A2E35;stroke-width:1;stroke-miterlimit:10.0001;}
	.st21{fill:#1A2E35;stroke:#1A2E35;stroke-width:1;stroke-miterlimit:10.0001;}
	.st22{fill:#B6B6B6;stroke:#1A2E35;stroke-miterlimit:10;}
	.st23{fill:none;stroke:#1A2E35;stroke-miterlimit:10;}
	.st24{opacity:0.5;}
	.st25{fill:none;}
	.st26{fill:none;stroke:#1A2E35;stroke-width:2;stroke-linecap:round;stroke-miterlimit:10;}
	.st27{fill:#1A2E35;}
	.st28{fill:#30C39E;stroke:#1A2E35;stroke-linecap:round;stroke-linejoin:round;}
	.st29{fill:#FFFFFF;stroke:#1A2E35;stroke-linecap:round;stroke-linejoin:round;}
	.st30{fill:#FF4081;stroke:#1A2E35;stroke-linecap:round;stroke-linejoin:round;}
	.st31{opacity:0.1;}
	.st32{fill:#D2E2E8;}
	.st33{fill:#B5D1D8;}
	.st34{fill:#99BBC9;}
	.st35{fill:#F7F7F7;}
</style>
<g id="Layer_2_1_">
	<g id="Layer_1-2">
		<path class="st0" d="M13.3,206.8c0,0-6.2,43.3,19.7,91.6c22.6,42.1,63.4,71.4,111.9,83.8c32,8.2,65,7.8,97.5,5.8
			c41.8-2.6,88.3-0.2,126.9-15.9c60.1-24.5,96.8-88.7,99.6-148.3c1.8-38.5-13-82.7-52.4-103c-14.6-7.5-30.8-13.1-43.5-23.4
			c-15.3-12.3-22-30.2-33.4-45.1C325.5,34,305.3,23.5,283.3,15C212-12.6,144-0.2,88.5,36.2S10,185.6,13.3,206.8z"/>
		<path class="st1" d="M13.3,206.8c0,0-6.2,43.3,19.7,91.6c22.6,42.1,63.4,71.4,111.9,83.8c32,8.2,65,7.8,97.5,5.8
			c41.8-2.6,88.3-0.2,126.9-15.9c60.1-24.5,96.8-88.7,99.6-148.3c1.8-38.5-13-82.7-52.4-103c-14.6-7.5-30.8-13.1-43.5-23.4
			c-15.3-12.3-22-30.2-33.4-45.1C325.5,34,305.3,23.5,283.3,15C212-12.6,144-0.2,88.5,36.2S10,185.6,13.3,206.8z"/>
		<rect x="71.6" y="86" class="st2" width="152.4" height="174.6"/>
		<rect x="78.5" y="95.2" class="st3" width="138.6" height="165.4"/>
		<rect x="78.5" y="123.6" class="st2" width="138.6" height="9.2"/>
		<rect x="181.7" y="2" class="st2" width="10" height="3.1"/>
		<rect x="181.7" y="6.4" class="st2" width="10" height="3.1"/>
		<rect x="181.7" y="10.7" class="st2" width="10" height="3.1"/>
		<rect x="181.7" y="15.1" class="st2" width="10" height="3.1"/>
		<rect x="181.7" y="19.5" class="st2" width="10" height="3.1"/>
		<rect x="181.7" y="23.8" class="st2" width="10" height="3.1"/>
		<rect x="181.7" y="28.2" class="st2" width="10" height="3.1"/>
		<rect x="181.7" y="32.6" class="st2" width="10" height="3.1"/>
		<rect x="181.7" y="36.9" class="st2" width="10" height="3.1"/>
		<rect x="181.7" y="41.3" class="st2" width="10" height="3.1"/>
		<rect x="181.7" y="45.7" class="st2" width="10" height="3.1"/>
		<rect x="181.7" y="50" class="st2" width="10" height="3.1"/>
		<rect x="181.7" y="54.4" class="st2" width="10" height="3.1"/>
		<rect x="181.7" y="58.8" class="st2" width="10" height="3.1"/>
		<rect x="181.7" y="63.1" class="st2" width="10" height="3.1"/>
		<rect x="181.7" y="67.5" class="st2" width="10" height="3.1"/>
		<rect x="181.7" y="71.8" class="st2" width="10" height="3.1"/>
		<rect x="181.7" y="76.2" class="st2" width="10" height="3.1"/>
		<rect x="181.7" y="80.6" class="st2" width="10" height="3.1"/>
		<rect x="181.7" y="84.9" class="st2" width="10" height="3.1"/>
		<rect x="244.3" y="86" class="st2" width="77.8" height="174.6"/>
		<rect x="250.4" y="95.2" class="st3" width="65.7" height="165.4"/>
		<rect x="250.4" y="123.6" class="st2" width="65.7" height="9.2"/>
		<rect x="279.9" y="19.5" class="st2" width="10" height="3.1"/>
		<rect x="279.9" y="23.8" class="st2" width="10" height="3.1"/>
		<rect x="279.9" y="28.2" class="st2" width="10" height="3.1"/>
		<rect x="279.9" y="32.6" class="st2" width="10" height="3.1"/>
		<rect x="279.9" y="36.9" class="st2" width="10" height="3.1"/>
		<rect x="279.9" y="41.3" class="st2" width="10" height="3.1"/>
		<rect x="279.9" y="45.7" class="st2" width="10" height="3.1"/>
		<rect x="279.9" y="50" class="st2" width="10" height="3.1"/>
		<rect x="279.9" y="54.4" class="st2" width="10" height="3.1"/>
		<rect x="279.9" y="58.8" class="st2" width="10" height="3.1"/>
		<rect x="279.9" y="63.1" class="st2" width="10" height="3.1"/>
		<rect x="279.9" y="67.5" class="st2" width="10" height="3.1"/>
		<rect x="279.9" y="71.8" class="st2" width="10" height="3.1"/>
		<rect x="279.9" y="76.2" class="st2" width="10" height="3.1"/>
		<rect x="279.9" y="80.6" class="st2" width="10" height="3.1"/>
		<rect x="279.9" y="84.9" class="st2" width="10" height="3.1"/>
		<rect x="38.5" y="236.6" class="st2" width="219.3" height="38.4"/>
		<path class="st0" d="M55.2,244.9c0,2.6-2.1,4.7-4.6,4.7s-4.7-2.1-4.7-4.6s2.1-4.7,4.6-4.7l0,0C53.1,240.3,55.2,242.4,55.2,244.9z"
			/>
		<rect x="63.9" y="240.3" class="st0" width="12.2" height="9.3"/>
		<rect x="79" y="240.3" class="st4" width="12.2" height="9.3"/>
		<rect x="38.5" y="148.3" class="st3" width="219.3" height="88.4"/>
		<rect x="38.5" y="275" class="st3" width="219.3" height="118.4"/>
		<rect x="92.7" y="151.6" class="st2" width="110.9" height="81.7"/>
		<path class="st5" d="M96.6,220c-1.5,5.2,1.4,10.6,6.6,12.1s10.6-1.4,12.1-6.6c0.5-1.8,0.5-3.7,0-5.5H96.6z"/>
		<path class="st6" d="M109.8,212.5v-12.9h-7.6v12.9c-5.7,2.1-8.6,8.4-6.5,14.1c2.1,5.7,8.4,8.6,14.1,6.5s8.6-8.4,6.5-14.1
			C115.2,216,112.8,213.6,109.8,212.5z"/>
		<path class="st0" d="M140.9,220c-1.5,5.2,1.4,10.6,6.6,12.1c5.2,1.5,10.6-1.4,12.1-6.6c0.5-1.8,0.5-3.7,0-5.5H140.9z"/>
		<path class="st6" d="M154,212.5v-12.9h-7.6v12.9c-5.7,2.1-8.6,8.4-6.5,14.1s8.4,8.6,14.1,6.5s8.6-8.4,6.5-14.1
			C159.4,216,157,213.6,154,212.5z"/>
		<path class="st5" d="M120.2,223.5c-0.2,0.7-0.3,1.4-0.3,2.1c0.1,4,3.5,7.1,7.5,7c3.8-0.1,6.8-3.2,7-7c0-0.7-0.1-1.4-0.3-2.1H120.2
			z"/>
		<path class="st6" d="M130,218v-9.6h-5.6v9.6c-4.2,1.6-6.4,6.2-4.8,10.4s6.2,6.4,10.4,4.8c4.2-1.6,6.4-6.2,4.8-10.4
			C134,220.6,132.2,218.8,130,218z"/>
		<rect x="105.6" y="163.5" class="st7" width="4.9" height="6.3"/>
		<path class="st3" d="M104.5,169.9h7.3c2.1,0,3.8,1.7,3.8,3.8v14.8l0,0h-14.8l0,0v-14.8C100.7,171.5,102.4,169.9,104.5,169.9z"/>
		<rect x="136.9" y="163.5" class="st7" width="4.9" height="6.3"/>
		<path class="st3" d="M135.7,169.9h7.3c2.1,0,3.8,1.7,3.8,3.8v14.8l0,0H132l0,0v-14.8C131.9,171.5,133.6,169.9,135.7,169.9z"/>
		<rect x="163.9" y="163.5" class="st7" width="4.9" height="6.3"/>
		<path class="st3" d="M162.7,169.9h7.3c2.1,0,3.8,1.7,3.8,3.8v14.8l0,0H159l0,0v-14.8C159,171.6,160.7,169.9,162.7,169.9z"/>
		<rect x="183.4" y="163.5" class="st7" width="4.9" height="6.3"/>
		<path class="st3" d="M182.3,169.9h7.3c2.1,0,3.8,1.7,3.8,3.8v14.8l0,0h-14.8l0,0v-14.8C178.5,171.5,180.2,169.9,182.3,169.9z"/>
		<rect x="92.7" y="188.3" class="st3" width="110.9" height="8.3"/>
		<polygon class="st4" points="53.4,280.5 55.6,284.6 68.2,284.6 70.4,280.5 		"/>
		<polygon class="st4" points="111.4,280.5 113.7,284.6 126.3,284.6 128.5,280.5 		"/>
		<polygon class="st4" points="169.5,280.5 171.7,284.6 184.3,284.6 186.5,280.5 		"/>
		<polygon class="st4" points="227.5,280.5 229.7,284.6 242.4,284.6 244.6,280.5 		"/>
		<polygon class="st4" points="53.4,307.4 55.6,311.5 68.2,311.5 70.4,307.4 		"/>
		<polygon class="st4" points="111.4,307.4 113.7,311.5 126.3,311.5 128.5,307.4 		"/>
		<polygon class="st4" points="169.5,307.4 171.7,311.5 184.3,311.5 186.5,307.4 		"/>
		<polygon class="st4" points="227.5,307.4 229.7,311.5 242.4,311.5 244.6,307.4 		"/>
		<line class="st8" x1="40.9" y1="280.5" x2="254.2" y2="280.5"/>
		<line class="st8" x1="40.9" y1="307.3" x2="254.2" y2="307.3"/>
		<path class="st2" d="M417.6,225.6l-4.4-17V204H407v4.6l-4.4,17c-0.2,1,0.3,1.9,1.3,2.2c0.1,0,0.3,0.1,0.4,0.1h11.5
			c1,0,1.8-0.8,1.8-1.8C417.7,226,417.6,225.8,417.6,225.6z"/>
		<path class="st4" d="M414,217.1h-7.8l-2.3,8.9c-0.1,0.3,0.1,0.5,0.4,0.6h0.1h11.5c0.3,0,0.5-0.2,0.5-0.5V226L414,217.1z"/>
		<path class="st2" d="M444,225.6l-4.4-17V204h-6.2v4.6l-4.4,17c-0.2,1,0.3,1.9,1.3,2.2c0.1,0,0.3,0.1,0.5,0.1h11.5
			c1,0,1.8-0.8,1.8-1.8C444.1,226,444,225.8,444,225.6z"/>
		<path class="st4" d="M440.5,217.1h-7.8l-2.3,8.9c0,0.1,0,0.3,0.1,0.4c0.1,0.1,0.2,0.2,0.4,0.2h11.5c0.1,0,0.3-0.1,0.4-0.2
			c0.1-0.1,0.1-0.3,0.1-0.4L440.5,217.1z"/>
		<line class="st9" x1="409.7" y1="207.9" x2="409.7" y2="157.3"/>
		<rect x="303.5" y="227.8" class="st3" width="167.8" height="98.8"/>
		<rect x="308.2" y="231.7" class="st2" width="158.5" height="94.9"/>
		<polygon class="st4" points="392.9,270 398.6,277.8 442.8,277.8 448.9,270 		"/>
		<rect x="404.2" y="274.5" class="st10" width="34.3" height="3.4"/>
		<rect x="359.6" y="257" class="st4" width="28.2" height="8.5"/>
		<rect x="400.3" y="245.4" class="st11" width="4.2" height="10.2"/>
		<path class="st3" d="M399.9,250.8h5c2.1,0,3.8,1.7,3.8,3.8v11.9l0,0h-12.5l0,0v-11.9C396.1,252.4,397.8,250.8,399.9,250.8z"/>
		<rect x="417.4" y="245.4" class="st11" width="4.2" height="10.2"/>
		<path class="st3" d="M417,250.8h5c2.1,0,3.8,1.7,3.8,3.8v11.9l0,0h-12.5l0,0v-11.9C413.3,252.5,414.9,250.8,417,250.8z"/>
		<rect x="434.6" y="245.4" class="st11" width="4.2" height="10.2"/>
		<path class="st3" d="M434.2,250.8h5c2.1,0,3.8,1.7,3.8,3.8v11.9l0,0h-12.5l0,0v-11.9C430.4,252.4,432.1,250.8,434.2,250.8z"/>
		<rect x="359.6" y="249.6" class="st12" width="28.2" height="7.3"/>
		<rect x="308.2" y="264.9" class="st3" width="158.5" height="6.4"/>
		<rect x="355.4" y="294.5" class="st13" width="11" height="33.4"/>
		<rect x="335.3" y="278.2" class="st14" width="51.1" height="42.3"/>
		<rect x="338.9" y="281.1" class="st15" width="44" height="36.4"/>
		<polyline class="st16" points="348.3,289.8 361.9,299.6 352.8,304.7 		"/>
		<polyline class="st16" points="368.6,290.5 361.9,299.6 365.1,311.7 		"/>
		<line class="st16" x1="361.9" y1="299.6" x2="376.1" y2="307.9"/>
		<path class="st0" d="M349.6,289c0,1.8-1.5,3.3-3.3,3.3s-3.3-1.5-3.3-3.3s1.5-3.3,3.3-3.3S349.6,287.2,349.6,289L349.6,289z"/>
		<path class="st0" d="M356.1,304.7c0,1.8-1.5,3.3-3.3,3.3s-3.3-1.5-3.3-3.3s1.5-3.3,3.3-3.3S356.1,302.9,356.1,304.7L356.1,304.7z"
			/>
		<path class="st0" d="M371.9,290.5c0,1.8-1.5,3.3-3.3,3.3s-3.3-1.5-3.3-3.3s1.5-3.3,3.3-3.3S371.9,288.6,371.9,290.5L371.9,290.5z"
			/>
		<path class="st0" d="M379.5,307.9c0,1.8-1.5,3.3-3.3,3.3s-3.3-1.5-3.3-3.3s1.5-3.3,3.3-3.3C378,304.5,379.5,306,379.5,307.9
			C379.5,307.8,379.5,307.9,379.5,307.9z"/>
		<circle class="st0" cx="365.1" cy="311.7" r="3.3"/>
		<rect x="422" y="306.3" class="st13" width="13.4" height="2.9"/>
		<path class="st17" d="M404,327.7v-6.6c0-1.9,0.8-3.7,2.3-5l8.1-7.1h29.7l7.7,7.1c1.4,1.3,2.1,3,2.1,4.9v7.8L404,327.7z"/>
		<path class="st3" d="M443.3,317.4c0,2.7-6.4,5-14.3,5s-14.3-2.2-14.3-5s6.4-5,14.3-5S443.3,314.7,443.3,317.4z"/>
		<rect x="303.5" y="326.6" class="st3" width="168.4" height="66.8"/>
		<line class="st8" x1="303.5" y1="361.4" x2="471.2" y2="361.4"/>
		<rect x="419.6" y="326.6" class="st2" width="52.4" height="66.8"/>
		<rect x="300.3" y="326.6" class="st4" width="175" height="6.4"/>
		<polygon class="st4" points="385.9,333.1 388.5,338 403.6,338 406.2,333.1 		"/>
		<polygon class="st4" points="385.9,361.2 388.5,366.1 403.6,366.1 406.2,361.2 		"/>
		<polygon class="st4" points="329.5,333.1 332.1,338 347.1,338 349.8,333.1 		"/>
		<polygon class="st4" points="329.5,361.2 332.1,366.1 347.1,366.1 349.8,361.2 		"/>
		<line class="st9" x1="406.4" y1="174.6" x2="452.9" y2="174.6"/>
		<line class="st18" x1="402.2" y1="174.6" x2="406.4" y2="174.6"/>
		<line class="st9" x1="436.5" y1="175.1" x2="436.5" y2="206.4"/>
		<rect x="69.5" y="268.8" class="st11" width="8.2" height="9.3"/>
		<rect x="65.2" y="265.3" class="st11" width="15.7" height="5.7"/>
		<rect x="55.5" y="275.3" class="st19" width="35.3" height="94.2"/>
		<circle class="st11" cx="69.3" cy="303.3" r="9.1"/>
		<polygon class="st19" points="143.4,393.4 127.3,373.1 80.5,373.1 64.4,393.4 		"/>
		<path class="st19" d="M73.4,367.3h75.3l0,0v0.4c0,3.1-2.5,5.6-5.6,5.6l0,0H79c-3.1,0-5.6-2.5-5.6-5.6l0,0V367.3L73.4,367.3z"/>
		
			<rect x="103.6" y="247.5" transform="matrix(0.8378 -0.546 0.546 0.8378 -117.8997 101.6041)" class="st20" width="16.9" height="3.4"/>
		
			<rect x="114.5" y="237" transform="matrix(0.8378 -0.546 0.546 0.8378 -112.3287 106.1263)" class="st21" width="15.8" height="10.2"/>
		<rect x="71.6" y="220.7" class="st11" width="3.2" height="10.3"/>
		<rect x="69.8" y="230.3" class="st19" width="6.4" height="20.3"/>
		<rect x="65.5" y="248.5" class="st19" width="15" height="11.8"/>
		<polygon class="st19" points="104.7,242.9 87.7,257.3 49.8,260.6 50.6,270.4 96.3,266.3 111.8,254.8 		"/>
		<path class="st22" d="M384.5,130l-1.7,17.9c0,0-9.9-0.7-12.8-6.5s-1.6-13.4-1.6-13.4l1.3-6.9c3.3-1.6,7.2-1.4,10.4,0.5
			C383.1,123.3,384.9,126.6,384.5,130z"/>
		<path class="st19" d="M314.3,187.3l36.2-8.8l17.9-50.5c0,0,4.3,7.9,7.3,11.6s8.8,7,8.8,7s-6.1,33.1-8.2,43.8s-2.4,12.5-5.2,14.9
			s-35.6,23.1-35.6,23.1s10.9,20.4,12.2,34.7c1.2,14.3,2.1,31,2.1,31s-26.8-42.6-36.5-55s-13.7-31.3-11.5-41
			S314.3,187.3,314.3,187.3z"/>
		<polyline class="st23" points="327.2,197 335.6,228.3 341.8,191.2 		"/>
		<path class="st23" d="M351.5,179.4c6,2.5,10.2,7.9,11,14.3"/>
		<path class="st23" d="M358.2,179.4c0,0,11.5,2.4,12.2,14.6"/>
		<polyline class="st23" points="315.4,199.1 330.5,230.7 327.2,236.5 334.8,242.6 336.9,254.4 		"/>
		<path class="st22" d="M317.7,135.3c0,0,8.8,10.6,9.4,14.9c0.4,2.2,0.5,4.5,0.3,6.7c1.6,1.9,3.4,3.7,5.2,5.5c0.9,0.6,4,2.4,2.1,4.9
			c-1.2,1.5-3,2.4-4.9,2.4c0,0,0.3,9.4-0.6,13.7s-2.7,5.8-6.1,6.1s-7.6,0.3-7.6,0.3l-3.3,17l4.3,22.2l-31.6-34.4c0,0,3-12.5,3-14.9
			s-4.6-7-0.6-19.8S317.7,135.3,317.7,135.3z"/>
		<path class="st11" d="M289.3,167.8c0,0,5.1,1.8,6.6-2.1s-0.9-8.8,6.3-13.1s19.7-7.3,22.3-14.3s-0.3-14.3-4.3-15.2
			s-8.9,1.5-16.6,1.8s-30.3,0.2-37.4,11.7S266,169,268,173.5s2,16.4,10.3,17s14-6.1,14.5-10.9S289.3,167.8,289.3,167.8z"/>
		<g class="st24">
			<path class="st15" d="M284.9,164.2l43.8-14.9c0,0,7.9,4.9,2.4,11.3l-22.5,7.3l-23.4-0.6L284.9,164.2z"/>
			<line class="st25" x1="284.9" y1="164.2" x2="328.6" y2="149.3"/>
			<line class="st25" x1="304" y1="158.7" x2="308.6" y2="167.8"/>
		</g>
		<path class="st23" d="M284.9,164.2l43.8-14.9c0,0,7.9,4.9,2.4,11.3l-22.5,7.3l-23.4-0.6L284.9,164.2z"/>
		<line class="st26" x1="284.9" y1="164.2" x2="328.6" y2="149.3"/>
		<line class="st23" x1="304" y1="158.7" x2="308.6" y2="167.8"/>
		<path class="st22" d="M292.8,170c-0.9,0-8.8-10.6-12.8-7.6s-0.3,14,4.6,16.1s8.8-3,8.8-3"/>
		<path class="st27" d="M322.3,157.8c0,1.5-0.5,2.7-1.2,2.7s-1.2-1.2-1.2-2.7s0.5-2.7,1.2-2.7S322.3,156.3,322.3,157.8z"/>
		<path class="st19" d="M283.9,190.9c0,0,15.8,13.1,24.6,27.4s31.3,39.8,35,48.3s6.7,17.3,6.7,24.6s0.6,62.6,0.6,63.8v38.3h-93.4
			c0,0,5.8-80,5.8-97s-7.3-32.5-1.8-56.9C266.9,215.2,276,201.3,283.9,190.9z"/>
		<polyline class="st23" points="277.9,199.8 311.6,246.3 320.1,243.5 319.5,253.9 340.8,265.1 		"/>
		<polyline class="st23" points="341.6,353.5 292.5,353.5 292.5,361.4 337.7,361.4 		"/>
		<path class="st19" d="M391.5,149.3h4.6l0,0v13.3c0,1.2-1,2.1-2.1,2.1l0,0h-0.3c-1.2,0-2.1-1-2.1-2.1l0,0L391.5,149.3L391.5,149.3
			L391.5,149.3z"/>
		<rect x="390.4" y="146.5" class="st19" width="6.8" height="4.6"/>
		<path class="st28" d="M417,122c0,0,2.4,3.7,2,6s-3.6,11.9-4.6,12.1s-1.2-1-0.9-4.4s0.9-5.6,0.9-6.6S415.2,119.9,417,122z"/>
		<path class="st28" d="M371.3,117.4c0,0-3.9,6.8-1,10.7c2.9,3.9,9.2,4.3,9.2,4.3s1,7.7,2.5,8.9s5.3,6.5,5.8,8.3s4.1-0.5,4.1-2
			s-2.5-7.7-3.2-9.4s0.9-6.3,1.4-7.8c0.2-0.8,0.6-1.5,1-2.2c0,0,4.9,4.8,5.5,7.5s-0.9,12.8,0.5,14s4.9,0.9,5.6-1.2s1.9-14,1.9-16
			s-3.2-9-3.2-9s5.3,5.3,5.5,7.1s-1.4,13.8-0.5,14.1c1.1,0.6,2.4,0.6,3.4-0.2c1-1.1,1.7-2.4,2.2-3.7c0,0,3.4-8,4.8-11.7
			s2.5-8-0.5-9.5c-4.6-2.4-9.3-4.5-14.1-6.3c-8.7-3.4-20.9-6-25.4-2.7S371.3,117.4,371.3,117.4z"/>
		<line class="st23" x1="379.4" y1="132.3" x2="378.7" y2="120.1"/>
		<path class="st23" d="M379.3,127.9c0,0-6.8-0.2-7.5-8.8"/>
		<path class="st23" d="M413.6,135.6c0,0,2.2-6.5,0.3-9.5s-9-7.8-9-7.8"/>
		<path class="st22" d="M365.8,237c0.6-0.4,11.2-11.6,11.4-12.4s0.4-11.6,1.6-14s5.2-9.4,5.4-11.6s0.2-9.6,0-12.2s2.4-2.8,4.2-0.4
			s2.2,5.8,2.2,8.8s0.2,5.4,0.6,6s3.8,3.6,5.4,4s11.2-4.4,14-5.4s4.6-9.2,5-10s0.6-6.8,0.8-8.2s2.8-3.2,3.8,0.2s0.6,11.4,0.4,13.6
			s0,6.8-1,8s-7.4,6.8-8,7.6s-3,8.6-3.8,9.8s-7.6,3.8-12.2,6.6c-3.3,2.1-6.5,4.5-9.4,7.2c0.8,0.8,0.8,2.2,0,3c-1.2,1-2.5,1.8-4,2.4
			l-4.2,10L365.8,237z"/>
		<path class="st28" d="M407.8,220.8c0.8-1.2,3.2-9,3.8-9.8s7-6.4,8-7.6s0.8-5.8,1-8s0.6-10.2-0.4-13.6s-3.6-1.6-3.8-0.2
			s-0.4,7.4-0.8,8.2s-2.2,9-5,10s-12.4,5.8-14,5.4s-5-3.4-5.4-4s-0.6-3-0.6-6s-0.4-6.4-2.2-8.8s-4.4-2.2-4.2,0.4s0.2,10,0,12.2
			s-4.2,9.2-5.4,11.6s-1.4,13.2-1.6,14c-1.8,2.3-3.8,4.6-5.8,6.7l10.6,9.1l0.2-0.4c1.5-0.6,2.8-1.4,4-2.4c0.8-0.8,0.8-2.2,0-3
			c2.9-2.7,6.1-5.1,9.4-7.2C400.2,224.6,407,222,407.8,220.8z"/>
		<line class="st23" x1="411.6" y1="211" x2="404.8" y2="216"/>
		<path class="st19" d="M277,222.6c0,0,10.3-1.8,16.4,3s8.2,14,8.5,14.9s28.9,27.1,28.9,27.1l35.9-33.1l17.6,17.3
			c0,0-22.5,28.6-34,39.5s-20.1,16.1-22.2,17s-4.3,0-6.7-1.5s-52.9-52.3-52.9-52.3"/>
		<path class="st23" d="M276.3,243.8c0,0,9.4-8.8,14.3-9.1s8.2,3.6,8.2,3.6"/>
		<path class="st23" d="M271.5,236.5c0,0,11.5-7.6,18.2-3.9"/>
		<path class="st23" d="M330.8,267.5c0,0-7.9,16.7-6.7,24.6"/>
		<path class="st23" d="M329.2,268.5c-5.3,3.6-9.2,8.9-11.2,14.9"/>
		<path class="st19" d="M402.5,170.6h4.5l0,0V184c0,1.2-1,2.1-2.1,2.1l0,0h-0.3c-1.2,0-2.1-1-2.1-2.1l0,0V170.6L402.5,170.6z"/>
		<rect x="401.4" y="167.9" class="st19" width="6.8" height="4.6"/>
		<path class="st19" d="M411,170.6h4.6l0,0V184c0,1.2-1,2.1-2.1,2.1l0,0h-0.3c-1.2,0-2.1-0.9-2.1-2.1l0,0v-13.4H411z"/>
		<rect x="410" y="167.9" class="st19" width="6.8" height="4.6"/>
		<rect x="389.4" y="177.6" class="st11" width="29.2" height="15"/>
		<path class="st19" d="M123.5,212.4c0,0-0.3,11.5,2.1,16.1s6.6,6.3,7,10.1s-1.4,9.1,1.1,10.5s19.9,18.9,25.5,18.5
			s11.5-8.4,11.5-8.4l12.6,8l16.8-34.5l-11.2-10.1c0,0-4.5-27.2-10.8-34.9s-29.7-9.8-41.6-4.2s-16.1,18.2-18.8,20.6
			s-8.7,4.9-5.6,9.4S123.5,212.4,123.5,212.4z"/>
		<path class="st11" d="M185.6,229.6c1.3-1,2.7-3.7,3.8-6.4l-0.6-0.6c0,0-4.5-27.2-10.8-34.9s-29.7-9.8-41.6-4.2
			s-16.1,18.2-18.8,20.6s-8.7,4.9-5.6,9.4c2.9,4.2,10.4-0.3,11.4-1l0.1-0.1c3.2-1,6.4-2.3,9.4-3.8c2.8-1.6,5.5-3.5,8-5.6
			c0,0-7.3,12.2-4.5,16.1s11.2,2.1,11.2,2.1s5.6,7.3,9.1,5.6s-1.4-8.4,3.8-10.8s9.4,8,9.4,9.8S182.5,232,185.6,229.6z"/>
		<path class="st28" d="M189.5,223.2l-24.4,28.4c0,0-5.9-0.7-10.1-3.8s-7.7-10.8-7.7-10.8s17.8-19.6,26.9-25.1
			c7.9-4.9,10.5-5.8,11.1-5.9c-0.3-1.2-0.6-2.4-1-3.6c-1.9,0.8-7.5,3.6-16.4,10.9c-9.7,7.9-30.3,28.5-35.5,33.7
			c0,0.9,0.5,1.7,1.3,2.3c2.4,1.4,19.9,18.9,25.5,18.5c1.2-0.1,2.3-0.5,3.3-1c1.1-4.4,2.9-10.9,4.4-13.7c1.8-3.3,19.7-22.8,24.6-28
			L189.5,223.2z"/>
		<path class="st19" d="M158.4,227.8c0,0-3.1-11.2,1.1-13.3s9.4,2.4,10.1,7.3s-1.8,10.8-1.8,10.8c1.5,3.2,1.9,6.7,1.4,10.1"/>
		<path class="st27" d="M140.4,236.4c0.7,1.4,0.7,2.7,0,3.1s-1.8-0.4-2.5-1.8s-0.7-2.7,0-3.1S139.8,235.1,140.4,236.4z"/>
		<path class="st23" d="M131.4,230c0,0,0.4-4.9,6.3-3.9"/>
		<polygon class="st19" points="199.3,228.6 172.9,270.7 183.3,278.2 207.5,232.5 		"/>
		<path class="st19" d="M205.7,233.2c0,0-20.3,35.3-24.3,43.2s-15.3,27.1-16.1,38.5s-4.3,78.5-4.3,78.5h82c0,0,6.1-51,5.7-70.6
			s-5.4-48.5-20.3-68.1S205.7,233.2,205.7,233.2z"/>
		<path class="st23" d="M212.9,238.6c0,0-12.1,22.8-20.3,36s-18.9,27.5-21.8,35.7s-2.9,11.8-2.9,11.8"/>
		<path class="st28" d="M107.6,328.5l-9.6-7.1c0,0-4.6-11.8-7.5-15s-6.8-2.5-9.3-5.4s-5.3-9.3-6.8-10s-4.6,1.1-4.6,3.9
			s3.2,7.5,3.2,8.6v1.1c0,0-12.1-3.6-13.5-2.5s-2.8,4.6-1.8,6.4s3.2,2.5,3.2,3.9s-2.5,6.1-1.1,7.8c1,1.2,2.2,2.1,3.6,2.9
			c0,0,0,6.8,2.1,9.6s18.5,5,23.5,5.7s19.6,7.8,19.6,7.8L107.6,328.5z"/>
		<path class="st19" d="M202.2,267.1c0,0-15.3,7.5-21,27.1s-9.3,40-9.3,40s-3.6-0.7-3.6,1.4c0,1.1-0.1,2.2-0.4,3.2L105.8,327
			l-1.4,29.3c0,0,80.6,15,84.9,15s8.9-1.4,10.3-5s24.6-55.6,24.6-55.6"/>
		<path class="st23" d="M209.3,283.5c0,0,12.1,6.8,14.3,16"/>
		<path class="st23" d="M200.7,293.9c1.1,0,19.3,1.4,23.2,11.8"/>
		<path class="st23" d="M217.5,325.6c0,0,13.9-6.4,18.2-20.3"/>
		<path class="st23" d="M171.1,339.2c0,0,7.1,13.2,6.8,22.5"/>
		<path class="st23" d="M175.4,337c0,0,7.1,1.4,12.1,11.1"/>
		<path class="st11" d="M271.3,323.5h-12.8c-2.5,0.1-4.6,1.9-5.1,4.3l-13.3,65.6h21.4l13.3-65.6c0.5-1.8-0.6-3.7-2.4-4.2
			C272,323.5,271.7,323.5,271.3,323.5z"/>
		<line class="st23" x1="0" y1="393.4" x2="484" y2="393.4"/>
		<path class="st29" d="M25.1,346.8h8.6l0,0v40.4c0,2.2-1.8,4-4,4h-0.6c-2.2,0-4-1.8-4-4V346.8L25.1,346.8L25.1,346.8z"/>
		<path class="st30" d="M25.1,363.2v23.7c-0.1,2.4,1.7,4.4,4.1,4.5s4.4-1.7,4.5-4.1c0-0.1,0-0.3,0-0.4v-23.7H25.1z"/>
		<rect x="23.6" y="345.5" class="st29" width="11.7" height="8.1"/>
		<path class="st29" d="M46.3,391.2L46.3,391.2c-2.4,0-4.3-1.9-4.3-4.3l0,0v-40.1h8.6v40.1C50.6,389.3,48.7,391.2,46.3,391.2
			L46.3,391.2z"/>
		<path class="st30" d="M41.9,363.2v23.7c-0.1,2.4,1.7,4.4,4.1,4.5c2.4,0.1,4.4-1.7,4.5-4.1c0-0.1,0-0.3,0-0.4v-23.7H41.9z"/>
		<rect x="40.4" y="345.5" class="st29" width="11.7" height="8.1"/>
		<path class="st29" d="M63,391.2L63,391.2c-2.4,0-4.3-1.9-4.3-4.3l0,0v-40.1h8.6v40.1C67.3,389.3,65.4,391.2,63,391.2L63,391.2z"/>
		<path class="st30" d="M58.7,363.2v23.7c0,2.4,1.9,4.3,4.3,4.3l0,0c2.4,0,4.3-1.9,4.3-4.3l0,0v-23.7H58.7z"/>
		<rect x="57.2" y="345.5" class="st29" width="11.7" height="8.1"/>
		<path class="st29" d="M79.8,391.2L79.8,391.2c-2.4,0-4.3-1.9-4.3-4.3l0,0v-40.1h8.6v40.1C84.1,389.3,82.2,391.2,79.8,391.2
			L79.8,391.2z"/>
		<path class="st30" d="M75.5,363.2v23.7c-0.1,2.4,1.7,4.4,4.1,4.5s4.4-1.7,4.5-4.1c0-0.1,0-0.3,0-0.4v-23.7H75.5z"/>
		<rect x="74" y="345.5" class="st29" width="11.7" height="8.1"/>
		<polygon class="st29" points="93,358 17.8,358 17.8,360.6 93,360.6 93,387.2 14.1,387.2 14.1,393.4 98.1,393.4 98.1,392 
			98.1,387.2 98.1,360.6 98.1,358 		"/>
		<path class="st19" d="M374.8,388.4l-9.8-38.2v-10.4h-14v10.4l-9.8,38.2c-0.6,2.1,0.7,4.3,2.8,4.9c0.4,0.1,0.7,0.1,1.1,0.1h25.7
			c2.2,0,4.1-1.8,4.1-4C374.9,389,374.8,388.7,374.8,388.4z"/>
		<path class="st5" d="M366.7,369.1h-17.5l-5.2,20c-0.1,0.6,0.2,1.2,0.8,1.3c0.1,0,0.1,0,0.2,0h25.7c0.3,0,0.6-0.1,0.8-0.4
			c0.2-0.3,0.3-0.6,0.2-0.9L366.7,369.1z"/>
		<path class="st19" d="M403.1,357.3v-22h-12.9v22c-9.7,3.6-14.6,14.3-11,23.9c3.6,9.7,14.3,14.6,23.9,11c9.7-3.6,14.6-14.3,11-23.9
			C412.2,363.2,408.2,359.2,403.1,357.3L403.1,357.3z"/>
		<path class="st5" d="M380.6,370c-2.6,8.8,2.4,18.1,11.2,20.7c8.8,2.6,18.1-2.4,20.7-11.2c0.9-3.1,0.9-6.4,0-9.5H380.6z"/>
		<path class="st19" d="M441.4,369.6v-40.4h-8.5v40.4c-6.4,2.4-9.6,9.4-7.3,15.8s9.4,9.6,15.8,7.3c6.4-2.4,9.6-9.4,7.3-15.8
			C447.4,373.5,444.7,370.8,441.4,369.6z"/>
		<path class="st5" d="M426.6,378c-0.3,1-0.4,2.1-0.5,3.1c0,6.1,4.9,11,11,11s11-4.9,11-11l0,0c0-1.1-0.2-2.1-0.5-3.1H426.6z"/>
	</g>
</g>
<g class="st31">
	<path class="st32" d="M472.4,81.2L472.4,81.2c0.2-0.2,0.3-0.3,0.5-0.5L472.4,81.2z"/>
	<path class="st32" d="M466.7,84c-3.9,2.3-10.6,2.5-12.1,7.7c-0.8,2.8-0.3,5-2.2,8.5c-1.1,2-3.5,3.9-6.1,3.7c2.7,1.1,5.9-1.9,7-3.5
		c1.4-2.2,1.4-4.4,2-6.9c0.7-2.6,2.3-4.2,4.9-5.3c2.2-0.9,4.5-1.3,6.5-2.4c2.1-1.2,3.7-2.9,5.5-4.6l0,0l0.5-0.5
		c-0.2,0.1-0.3,0.3-0.5,0.4c3.7-3.7,9.9-1,11.6-9.9c1.3-6.4-8-3.9-10,0.5C471.8,76.6,471.8,81.1,466.7,84z"/>
	<path class="st33" d="M474.1,71.7c-2.2,4.9-2.2,9.4-7.3,12.3c-3.9,2.3-10.6,2.5-12.1,7.7c-0.8,2.8-0.3,5-2.2,8.5
		c-1.1,2-3.5,3.9-6.1,3.7c2.1,0.8,4.3-1.2,5.8-2.7c1.5-2.2,2.5-7.5,3-9c1-3.2,4.5-4.3,7.4-5.1c1.9-1,3.5-1.2,5.8-2.7
		c2.4-1.6,5.7-5.7,6.5-7.6c2.1-5,4.3-5.7,5.8-5.9c2.6-0.3,3.2,0.6,3.3,0.5C485.3,64.8,476.1,67.4,474.1,71.7z"/>
	<path class="st34" d="M474.1,71.7c-2.2,4.9-2.2,9.4-7.3,12.3c-3.9,2.3-10.6,2.5-12.1,7.7c-0.6,2-0.5,3.8-1.1,5.9
		c0.8-2.6,0.8-5.5,2.9-8c1.5-1.7,4.4-2.3,7.2-3.3c2.7-1,5.4-2.9,7.2-4.7c1.8-1.8,2.8-4.5,3.9-7.1c0.8-1.9,2.1-3.3,3.8-4.5
		c1.8-1.2,4.2-1.2,5.6,0C483.9,65.3,475.9,67.7,474.1,71.7z"/>
	<path class="st35" d="M479.2,76c-0.8,0.8-1.8,1-2.8,1.5c-0.5,0.3-1,0.8-0.2,0.8c0.5,0,3.6-0.7,5-2.5c0.5-0.7,2.3-3,1.7-3.9h-0.1
		c-1.2-0.7-1.9-0.2-2.2,1.1C480.5,74.2,480.1,75.2,479.2,76z"/>
</g>
<g class="st31">
	<path class="st32" d="M364.2,42.8L364.2,42.8c-0.1-0.2-0.3-0.4-0.4-0.7L364.2,42.8z"/>
	<path class="st32" d="M369.2,47.5c3.4,3.6,10.3,6,10.2,11.8c0,3.2-1.2,5.3-0.4,9.5c0.5,2.4,2.4,5.2,5.2,5.8
		c-3.2,0.3-5.6-3.8-6.2-5.8c-0.8-2.8-0.1-5,0-7.9c0.1-3-1.1-5.1-3.5-7.1c-2-1.6-4.3-2.8-6.1-4.6c-1.8-1.9-3-4.2-4.3-6.5l0,0
		l-0.4-0.7c0.1,0.2,0.2,0.4,0.4,0.6c-2.7-5-10-4.1-9-14c0.7-7.1,9.5-1.6,10.2,3.6C366.2,38.2,364.8,42.9,369.2,47.5z"/>
	<path class="st33" d="M365.4,32.4c0.8,5.8-0.6,10.5,3.8,15.1c3.4,3.6,10.3,6,10.2,11.8c0,3.2-1.2,5.3-0.4,9.5
		c0.5,2.4,2.4,5.2,5.2,5.8c-2.5,0.2-4.2-2.6-5.2-4.7c-0.9-2.8-0.3-8.6-0.3-10.4c-0.1-3.6-3.4-5.9-6.1-7.6c-1.7-1.6-3.3-2.3-5.2-4.7
		c-2-2.4-4.2-7.8-4.4-9.9c-0.6-5.9-2.7-7.3-4.2-8c-2.6-1.1-3.6-0.4-3.6-0.5C355.9,21.7,364.7,27.2,365.4,32.4z"/>
	<path class="st34" d="M365.4,32.4c0.8,5.8-0.6,10.5,3.8,15.1c3.4,3.6,10.3,6,10.2,11.8c0,2.3-0.7,4.1-0.7,6.5c0-2.9,0.9-6-0.5-9.3
		c-1-2.3-3.9-3.7-6.5-5.7c-2.5-1.9-4.7-4.7-6-7.1c-1.3-2.4-1.5-5.6-1.8-8.7c-0.3-2.2-1.2-4.1-2.6-5.9c-1.5-1.8-4-2.6-5.8-1.8
		C357.2,22.6,364.8,27.6,365.4,32.4z"/>
	<path class="st35" d="M358.7,35.3c0.6,1.1,1.6,1.6,2.4,2.4c0.5,0.4,0.9,1.1-0.1,0.9c-0.5-0.1-3.6-1.8-4.5-4.1
		c-0.3-0.8-1.5-3.9-0.6-4.6h0.1c1.4-0.3,2,0.3,2,1.8C357.9,32.9,358,34.1,358.7,35.3z"/>
</g>
<g class="st31">
	<path class="st32" d="M420.8,40.3C420.8,40.2,420.8,40.2,420.8,40.3c0-0.4,0.1-0.8,0.1-1.1L420.8,40.3z"/>
	<path class="st32" d="M422.5,50.3c0.8,7.3,6.8,16.3,1.6,23.1c-2.8,3.7-6.2,5.2-9,10.9c-1.6,3.3-1.8,8.2,0.9,11.5
		c-4-2.5-3.2-9.5-2.1-12.4c1.5-4,4.4-6,7.1-9.3c2.8-3.4,3.3-7,2.2-11.5c-0.9-3.7-2.6-7.1-3-10.8c-0.4-3.8,0.2-7.7,0.7-11.6
		c0,0,0,0,0,0.1l0.1-1.1c0,0.4-0.1,0.7-0.1,1.1c1.3-8.4-8.2-13.8,1.8-24.5c7.2-7.8,12.7,6.7,8.9,13.4
		C427.3,36.6,421.5,40.9,422.5,50.3z"/>
	<path class="st33" d="M431.5,29.1c-4.2,7.6-10.1,11.8-9,21.3c0.8,7.3,6.8,16.3,1.6,23.1c-2.8,3.7-6.2,5.2-9,10.9
		c-1.6,3.3-1.8,8.2,0.9,11.5c-3.1-1.9-2.6-6.8-2-10.2c1.5-4.1,7.4-10.5,8.9-12.6c3.1-4.3,1.3-9.9-0.4-14.5c-0.5-3.4-1.8-5.6-2-10.2
		s2-12.9,3.7-15.7c4.6-7.5,3.4-11,2.1-13.2c-2.1-3.6-3.9-3.6-3.7-3.8C429.8,7.9,435.3,22.3,431.5,29.1z"/>
	<path class="st34" d="M431.5,29.1c-4.2,7.6-10.1,11.8-9,21.3c0.8,7.3,6.8,16.3,1.6,23.1c-2.1,2.7-4.4,4.3-6.6,7.1
		c2.6-3.5,6.5-6.3,7.7-11.5c0.9-3.6-1.3-7.9-2.5-12.5c-1.2-4.5-1.4-9.7-0.8-13.8c0.6-4,3.2-7.9,5.6-11.9c1.6-2.8,2.3-5.9,2.1-9.3
		c-0.1-3.5-2.4-6.7-5.3-7.3C430.6,10.1,435,22.8,431.5,29.1z"/>
	<path class="st35" d="M421,26.4c-0.2,1.8,0.4,3.3,0.7,5c0.1,0.9,0,2.1-0.9,1c-0.5-0.6-2.6-5.4-1.6-8.9c0.4-1.3,1.7-5.9,3.5-6h0.1
		c2,0.9,2.1,2.2,0.7,3.9C422.2,22.9,421.2,24.4,421,26.4z"/>
</g>
</svg>
