<svg xmlns="http://www.w3.org/2000/svg" viewBox="0 0 1628.97 1629.33"><defs><style>.cls-1{fill:#fff;}</style></defs><g id="Layer_2" data-name="Layer 2"><g id="Layer_1-2" data-name="Layer 1"><path id="Path_68" data-name="Path 68" class="cls-1" d="M1624.15,727.05A806.8,806.8,0,0,0,1410.7,259.47a22.41,22.41,0,1,0-33,30.34l.32.34a761.8,761.8,0,0,1,201.54,441.62c46,422.36-259.17,802-681.53,848-396.84,43.19-760.78-224.35-838-616-39-204.15-3-393.92,107-564.06a22.4,22.4,0,0,0-37.63-24.32C13,555.48-25.17,756.26,16.1,972.26c86.79,441.13,514.76,728.39,955.9,641.6,414.59-81.57,697.85-466.77,652.14-886.83Z"/></g><g id="Layer_2-2" data-name="Layer 2"><path id="Path_64" data-name="Path 64" class="cls-1" d="M864.77,859.08l9.23,6.57c42.85,30.51,87.17,62.06,127.18,96.45,2.94,2.54,7.21,6.81,11.73,11.34,20.46,20.47,48.12,48.17,78.56,48.17,1.51,0,3-.07,4.58-.22a50.58,50.58,0,0,0,37.64-23.73c35.1-51.47-12.78-116.64-38.51-151.65l-2.23-3a144.52,144.52,0,0,1-28.79-70.81,22.41,22.41,0,1,0-44.56,4.73c0,.19,0,.38.07.57a188.86,188.86,0,0,0,37.43,92.39l2,2.7c17.79,24.21,54.82,74.6,37.6,99.84-.87,1.27-3.06,4.22-4.77,4.39-11.48,1.26-36.52-24.23-47.29-35-5.36-5.37-10-10-14.24-13.66-41.55-35.72-86.73-67.88-130.4-99l-9.21-6.56a93.1,93.1,0,0,0-35.68-13.4c-3.82-.81-7.67-1.63-11.32-2.73-50.62-15-94.57-12.16-134.36,8.66-13.12,6.86-21.59,7.33-37.13-7.8-3.55-3.47-7.16-6.84-10.76-10.2a132.9,132.9,0,0,1-32.59-38.78,22.41,22.41,0,0,0-40.56,19.06h0a171.34,171.34,0,0,0,42.54,52.47c3.35,3.12,6.72,6.26,10,9.52,27.89,27.19,57,32.26,89.22,15.43,29-15.15,61.92-16.92,100.86-5.4,4.68,1.39,9.57,2.45,14.48,3.55A62,62,0,0,1,864.77,859.08Z"/><path id="Path_75" data-name="Path 75" class="cls-1" d="M944.71,792.58h.46a22.38,22.38,0,0,0,21.94-22.81,278.08,278.08,0,0,1,4.16-53.5,247.8,247.8,0,0,1,98.16-162.39,22.4,22.4,0,0,0-26.27-36.3l-.37.27A292.1,292.1,0,0,0,927,708.91a320.66,320.66,0,0,0-4.74,61.71A22.4,22.4,0,0,0,944.71,792.58Z"/><path id="Path_77" data-name="Path 77" class="cls-1" d="M771.23,677.78a22.33,22.33,0,0,0-26.62,17l0,.13a284.73,284.73,0,0,0-6.39,67.52,22.42,22.42,0,0,0,22.39,21.85h.57a22.41,22.41,0,0,0,21.84-23,239,239,0,0,1,5.38-56.89A22.4,22.4,0,0,0,771.23,677.78Z"/><path id="Path_78" data-name="Path 78" class="cls-1" d="M657.59,670.1a284.87,284.87,0,0,0-16.65,65.76A22.41,22.41,0,0,0,660.29,761a23.52,23.52,0,0,0,2.9.18,22.42,22.42,0,0,0,22.19-19.56,239.61,239.61,0,0,1,14-55.4,22.41,22.41,0,1,0-41.82-16.1Z"/><path id="Path_83" data-name="Path 83" class="cls-1" d="M953.42,509.63a22.42,22.42,0,0,0-31.63,2c-40.28,45.74-93,122.52-85.6,260.49a22.4,22.4,0,0,0,22.36,21.18h1.2a22.4,22.4,0,0,0,21.19-23.56c-6.43-120.24,36.43-185.27,74.49-228.49A22.42,22.42,0,0,0,953.42,509.63Z"/></g><g id="Layer_3" data-name="Layer 3"><path id="Path_65" data-name="Path 65" class="cls-1" d="M951.69,1534.11a22.37,22.37,0,0,0,17.19-8c36.84-44,172.63-229.62,182.17-242.66,59.51-73.49,56.21-158.53,43.75-239.52a22.4,22.4,0,0,0-44.28,6.81h0c12.6,82,11.54,148.16-34.59,204.86-.25.3-.49.61-.71.92-1.45,2-144.26,197.24-180.71,240.82a22.4,22.4,0,0,0,17.18,36.77Z"/><path id="Path_69" data-name="Path 69" class="cls-1" d="M1519.38,1002.22a22.43,22.43,0,0,0,21.84-27.5c-10.29-44.09-51.19-163.48-112-251.13A22.4,22.4,0,1,0,1392,748.43c.15.23.31.45.47.67,56.53,81.56,95.87,196.08,105.14,235.8A22.42,22.42,0,0,0,1519.38,1002.22Z"/><path id="Path_70" data-name="Path 70" class="cls-1" d="M1352.9,684.29a22.4,22.4,0,1,0,36.58-25.88,229.72,229.72,0,0,0-79.62-70,22.41,22.41,0,0,0-21,39.61A184.56,184.56,0,0,1,1352.9,684.29Z"/><path id="Path_71" data-name="Path 71" class="cls-1" d="M1024.78,717.13a22.39,22.39,0,0,0,29.75-10.84v0A165.31,165.31,0,0,1,1169,615a187.75,187.75,0,0,1,47.76-5.2h.45a22.41,22.41,0,1,0,.44-44.81,229,229,0,0,0-58.66,6.32,210.17,210.17,0,0,0-145.08,116.08A22.4,22.4,0,0,0,1024.78,717.13Z"/><path id="Path_73" data-name="Path 73" class="cls-1" d="M1478.08,563.61a22.4,22.4,0,1,0,36.43-26.09c-.13-.19-.28-.38-.42-.57A383.66,383.66,0,0,0,1424.54,450a22.41,22.41,0,1,0-25.57,36.8A338.79,338.79,0,0,1,1478.08,563.61Z"/><path id="Path_74" data-name="Path 74" class="cls-1" d="M1084.08,1500a22.28,22.28,0,0,0,14.88-5.7c73-64.92,108.1-119.58,134.07-208.89a22.4,22.4,0,0,0-42.93-12.83l-.09.32c-23.63,81.17-54.1,128.59-120.82,187.92a22.41,22.41,0,0,0,14.89,39.11Z"/><path id="Path_76" data-name="Path 76" class="cls-1" d="M1273.26,1369a21.29,21.29,0,0,0,3.74.31,22.4,22.4,0,0,0,22.07-18.69,763.29,763.29,0,0,0-18.23-332.39,22.4,22.4,0,0,0-43.11,12.22h0a718.3,718.3,0,0,1,17.16,312.74A22.4,22.4,0,0,0,1273.26,1369Z"/><path id="Path_79" data-name="Path 79" class="cls-1" d="M1118.94,490.51a22.41,22.41,0,0,0,13.67,42.68A250.3,250.3,0,0,1,1277,530.51c62.56,18.55,109.42,50.9,143.29,98.93,23.46,33.23,44.08,64.11,58.76,105.71a22.41,22.41,0,0,0,42.26-14.91,461.35,461.35,0,0,0-64.41-116.64C1417,547,1362.3,509.1,1289.42,487.47A295.35,295.35,0,0,0,1118.94,490.51Z"/><path id="Path_81" data-name="Path 81" class="cls-1" d="M1460.94,1138.83a22,22,0,0,0,3.44-.26,22.41,22.41,0,0,0,18.74-25.55h0a929.49,929.49,0,0,0-57-207,22.41,22.41,0,1,0-41.55,16.83,885.37,885.37,0,0,1,54.28,197A22.4,22.4,0,0,0,1460.94,1138.83Z"/><path id="Path_82" data-name="Path 82" class="cls-1" d="M1194.23,403.67a22.4,22.4,0,0,0-24.66-19.89,362.88,362.88,0,0,0-98.92,25,22.41,22.41,0,0,0,17,41.47h0a318.43,318.43,0,0,1,86.72-21.95,22.4,22.4,0,0,0,19.89-24.65Z"/><path id="Path_84" data-name="Path 84" class="cls-1" d="M1383.71,1279.42h.35a22.41,22.41,0,0,0,22.39-22.06,778.24,778.24,0,0,0-2.92-80.22c-2.35-26.56-7-52.86-11.47-78.3q-1.56-8.91-3.11-17.82a22.4,22.4,0,0,0-44.16,7.57q1.56,9,3.14,18c4.33,24.5,8.79,49.83,11,74.47a730.66,730.66,0,0,1,2.75,75.59,22.41,22.41,0,0,0,22.06,22.75Z"/><path id="Path_85" data-name="Path 85" class="cls-1" d="M1346.54,1027.09a22.41,22.41,0,0,0,21.74-27.88c-36.93-146.58-135.35-259.66-136.34-260.79A22.41,22.41,0,0,0,1198.3,768c.91,1,92.22,106,126.53,242.13A22.42,22.42,0,0,0,1346.54,1027.09Z"/><path id="Path_86" data-name="Path 86" class="cls-1" d="M1335.42,452.13a22.4,22.4,0,1,0,24.84-37.28c-29.08-19.39-78.27-29-111.55-31.34a22.41,22.41,0,1,0-3.15,44.7C1281.07,430.71,1318,440.55,1335.42,452.13Z"/><path id="Path_87" data-name="Path 87" class="cls-1" d="M1554.63,860.63a22.41,22.41,0,0,0,11.79-29.41h0l-22.68-53a22.41,22.41,0,0,0-41.2,17.63l22.68,53a22.37,22.37,0,0,0,29.35,11.8l.06,0Z"/></g><g id="Layer_4" data-name="Layer 4"><path id="Path_45" data-name="Path 45" class="cls-1" d="M76.18,837a22.4,22.4,0,0,0,22.38,21.75h.67a22.41,22.41,0,0,0,21.75-23C116,665,172.68,488,289.44,309.57A22.41,22.41,0,0,0,252,285C130.07,471.25,70.93,657,76.18,837Z"/><path id="Path_46" data-name="Path 46" class="cls-1" d="M276.14,757.86a22.81,22.81,0,0,0,4.2.4,22.43,22.43,0,0,0,22-18.24c1.71-9,3.35-18,5-27,3.12-17.06,6.35-34.7,9.91-51.82a22.4,22.4,0,1,0-43.87-9.12c-3.67,17.64-6.95,35.55-10.12,52.87q-2.44,13.35-5,26.71A22.42,22.42,0,0,0,276.14,757.86Z"/><path id="Path_47" data-name="Path 47" class="cls-1" d="M107.58,899.22a22.42,22.42,0,0,0-19.4,25A928.69,928.69,0,0,0,188.49,1241.7a22.4,22.4,0,0,0,39.62-20.91h0a884.26,884.26,0,0,1-95.47-302.17A22.55,22.55,0,0,0,107.58,899.22Z"/><path id="Path_48" data-name="Path 48" class="cls-1" d="M531.61,873a22.42,22.42,0,0,0-17.5,26.42,606.44,606.44,0,0,0,37.23,119A22.41,22.41,0,1,0,592.65,1001c0-.12-.1-.24-.16-.36A561.18,561.18,0,0,1,558,890.52,22.43,22.43,0,0,0,531.61,873Z"/><path id="Path_49" data-name="Path 49" class="cls-1" d="M339.31,874.4a613.32,613.32,0,0,0,5.7,63c32.2,202,130.45,367,292.47,490.62.68.5,16.84,12.17,34.61,23.21a22.4,22.4,0,1,0,24.4-37.58c-.26-.17-.51-.33-.77-.48-16.22-10.07-31.52-21.11-31.53-21.11C512.09,1276,419.59,1120.68,389.26,930.36a568.79,568.79,0,0,1-5.21-58.43l-.82-13.71a22.4,22.4,0,1,0-44.72,2.7Z"/><path id="Path_50" data-name="Path 50" class="cls-1" d="M273.46,396.77C197.3,538.11,161.23,691.91,163.19,867a12.4,12.4,0,0,0,.09,1.83c.48,5.14,1,11.51,1.62,18.74,1.54,18.79,3.65,44.54,6.73,69.94,2.86,23.7,7.77,47.12,13,71a22.41,22.41,0,0,0,21.87,17.65,23.33,23.33,0,0,0,4.79-.51A22.43,22.43,0,0,0,228.37,1019c-5.17-23.69-9.65-45.08-12.28-66.88-3-24.52-5-49.77-6.56-68.22-.57-7-1.08-13.21-1.54-18.31C206.23,696.34,239.58,554.12,312.91,418a22.4,22.4,0,0,0-39.24-21.63l-.2.37Z"/><path id="Path_51" data-name="Path 51" class="cls-1" d="M470.41,837.24A22.41,22.41,0,0,0,448,815h-.1a22.4,22.4,0,0,0-22.3,22.51,650.71,650.71,0,0,0,42.87,229.41c10.08,26,22.6,50.86,34.7,75l6.66,13.28a22.41,22.41,0,0,0,40.4-19.39l-.3-.6-6.72-13.42c-11.64-23.14-23.63-47.08-32.93-70.87A605.83,605.83,0,0,1,470.41,837.24Z"/><path id="Path_52" data-name="Path 52" class="cls-1" d="M431.46,1462.26a22.4,22.4,0,0,0,28-35c-66.2-53-122.45-127.26-167.22-220.92a22.4,22.4,0,0,0-40.72,18.7c.09.21.19.41.29.61C299.48,1325.46,359.93,1405.06,431.46,1462.26Z"/><path id="Path_53" data-name="Path 53" class="cls-1" d="M279.52,1054.1a762.11,762.11,0,0,0,72.09,175.83,22.4,22.4,0,0,0,39-22,717.16,717.16,0,0,1-67.86-165.53,763.31,763.31,0,0,1-26.63-212.22,22.42,22.42,0,0,0-22.06-22.76,22.7,22.7,0,0,0-22.75,22.06A807.93,807.93,0,0,0,279.52,1054.1Z"/><path id="Path_54" data-name="Path 54" class="cls-1" d="M564.71,1200.12a22.39,22.39,0,0,0-4.36,31.37h0c21.06,27.85,63.95,60.42,109.35,94.9,8.9,6.76,17.8,13.52,26.5,20.21a22.4,22.4,0,0,0,27.35-35.49h0c-8.78-6.76-17.77-13.58-26.74-20.37-41-31.13-83.39-63.32-100.73-86.25a22.41,22.41,0,0,0-31.38-4.39Z"/><path id="Path_55" data-name="Path 55" class="cls-1" d="M731.9,1557.58a22.85,22.85,0,0,0,5.7.73,22.41,22.41,0,0,0,5.65-44.09c-135-35.21-249.62-147.4-311.87-240.65a22.41,22.41,0,1,0-37.27,24.88h0C426.51,1347,546.72,1509.24,731.9,1557.58Z"/><path id="Path_56" data-name="Path 56" class="cls-1" d="M359.57,815.82c.49,0,1,0,1.46,0a22.42,22.42,0,0,0,22.33-21,740.72,740.72,0,0,1,9-76.45,22.41,22.41,0,0,0-44.18-7.51A788.54,788.54,0,0,0,338.68,792,22.38,22.38,0,0,0,359.57,815.82Z"/><path id="Path_57" data-name="Path 57" class="cls-1" d="M249.68,1160.49a22.4,22.4,0,0,0,11.41-29.55h0a214.39,214.39,0,0,1-11.8-34.21,22.4,22.4,0,1,0-43.54,10.57c0,.14.07.27.1.41a258.41,258.41,0,0,0,14.28,41.38,22.38,22.38,0,0,0,29.5,11.44l.06,0Z"/><path id="Path_66" data-name="Path 66" class="cls-1" d="M789.23,1542.49a22.41,22.41,0,1,0,40.2-19.81A162.56,162.56,0,0,1,813.14,1438a508.4,508.4,0,0,0,1.05-60.47c-.38-16.46-.75-32,.22-47.34a113.41,113.41,0,0,0-30.15-84.89c-10.4-12.37-21.65-24.83-33.55-38-42-46.53-89.62-99.28-96.36-148.11-3-22,2.58-44.45,9.06-70.43a347.8,347.8,0,0,0,12.9-78.08,22.41,22.41,0,0,0-21.9-22.9h-.5a22.41,22.41,0,0,0-22.39,21.91,307.72,307.72,0,0,1-11.59,68.23c-7,27.93-14.17,56.81-10,87.37,8.6,62.52,61.11,120.71,107.54,172,11.78,13,22.9,25.38,32.9,37.28.29.34.57.66.87,1a68.57,68.57,0,0,1,18.49,51.68c-1.11,17.35-.7,34.62-.32,51.32a464.55,464.55,0,0,1-.89,55.47A207.68,207.68,0,0,0,789.23,1542.49Z"/><path id="Path_67" data-name="Path 67" class="cls-1" d="M319.76,594.17c8,19,17.92,42.69,44,56.91a91.11,91.11,0,0,1,42.62,51.81,282.81,282.81,0,0,0,18.81,40.73c38.36,68.38,44.43,71.93,112.43,97.32l6.3,2.35a22.41,22.41,0,1,0,16.48-41.67l-.77-.29L553.28,799c-57.77-21.58-57.77-21.58-89-77.29a237.12,237.12,0,0,1-15.58-33.57,135.27,135.27,0,0,0-63.36-76.33c-11.54-6.3-16.86-17.43-24.24-35-14.41-34.29-12.22-62.68,7.64-98,32.34-57.63,45.62-123.26,41.7-206.57a22.41,22.41,0,0,0-44.77,1.93.81.81,0,0,1,0,.16c3.49,74.55-8,132.57-36,182.54C303.27,503.82,300.14,547.44,319.76,594.17Z"/></g><g id="Layer_5" data-name="Layer 5"><path id="Path_58" data-name="Path 58" class="cls-1" d="M438.69,142.91a759.15,759.15,0,0,1,429-96,781.34,781.34,0,0,1,331.19,99.93l30.24,21.73a22.4,22.4,0,0,0,26.16-36.37l-31.19-22.43a20.37,20.37,0,0,0-2-1.26A826.18,826.18,0,0,0,870.88,2.17a803.64,803.64,0,0,0-454.2,101.71,22.4,22.4,0,1,0,21.43,39.35l.57-.32Z"/><path id="Path_59" data-name="Path 59" class="cls-1" d="M911.65,87.35a95.56,95.56,0,0,0-66.28,16.93c-15.82-30.83-46.06-38.71-70.56-45.09L770.23,58a22.41,22.41,0,0,0-11.46,43.32l4.75,1.25c23.22,6,36.66,10.12,42.73,23.7a41.3,41.3,0,0,0,54.42,21.18,43,43,0,0,0,8.88-5.34,50.94,50.94,0,0,1,37-10.22,22.41,22.41,0,0,0,5.14-44.51Z"/><path id="Path_60" data-name="Path 60" class="cls-1" d="M977,166.7c2.51-3.6,16.39-4.58,30.46,1.46l5.09,2.2c19.88,8.66,50.46,22,81.47,22a93.52,93.52,0,0,0,23.14-2.78l20.31-5.17A22.4,22.4,0,1,0,1126.37,141l-20.31,5.17c-23.32,6-56.07-8.34-75.64-16.87l-5.31-2.29c-27.9-12-66.4-12.66-85,14.2a22.4,22.4,0,1,0,36.43,26.08l.4-.57Z"/><path id="Path_61" data-name="Path 61" class="cls-1" d="M901.3,267.11a24.4,24.4,0,0,1-28.23-14.67l-.29-.72a24.4,24.4,0,0,1,13.37-31.81l0,0c.45-.18.91-.35,1.37-.51A22.42,22.42,0,0,0,872.9,177h0c-1.26.43-2.5.89-3.68,1.38a69.3,69.3,0,0,0-37.91,90.32l.3.74a69,69,0,0,0,63.93,43.09,70.36,70.36,0,0,0,15.84-1.81c10.49-2.45,24.3-5.76,38-10.09a22.41,22.41,0,1,0-13.53-42.72h0C923.69,261.8,911,264.86,901.3,267.11Z"/><path id="Path_62" data-name="Path 62" class="cls-1" d="M710.73,625.78a22.37,22.37,0,0,0,5.5,31.15,44,44,0,0,0,25.34,8,43.52,43.52,0,0,0,7.81-.68,44.32,44.32,0,0,0,35.71-34.66c3.18-15.41,6.2-29.74,9.47-44,.13-.54.23-1.11.32-1.69a17.86,17.86,0,0,1,3.31-8c22.21-20.75,46.26-42.17,73.86-65.78a308.62,308.62,0,0,1,124.77-68c22.74-5.7,34.43-21.41,34.75-46.71a228.65,228.65,0,0,1,1.13-25.51,235.25,235.25,0,0,1,25.26-4.39,62.49,62.49,0,0,0,53.22-70.43,64.61,64.61,0,0,0-2.45-10.64c-11.18-33.59-36.19-57.62-78.74-75.63A22.4,22.4,0,0,0,1010.1,249a22.1,22.1,0,0,0,2.46,1c30.22,12.8,46.79,27.76,53.6,48.23a17.59,17.59,0,0,1-14.32,22.82l-1,.14c-55,7.93-63.39,17.56-64.1,73.57a31.6,31.6,0,0,1-.21,3.64l-1,.29a353.27,353.27,0,0,0-143,77.71c-28.18,24.1-53.08,46.3-76.12,67.87a20.62,20.62,0,0,0-1.88,2,62.76,62.76,0,0,0-13.8,30.06c-3.25,14.2-6.23,28.45-9.32,43.53A22.41,22.41,0,0,0,710.73,625.78Z"/><path id="Path_72" data-name="Path 72" class="cls-1" d="M1163.6,290.2a22.4,22.4,0,0,0,4.07,44.62,482.25,482.25,0,0,1,181.93,18.07,22.4,22.4,0,0,0,12.77-42.95A526,526,0,0,0,1163.6,290.2Z"/><path id="Path_88" data-name="Path 88" class="cls-1" d="M1134.14,205.72a22.41,22.41,0,0,0,8.15,44.06,353.71,353.71,0,0,1,122.2-1.24,22.41,22.41,0,0,0,7.28-44.22A398.63,398.63,0,0,0,1134.14,205.72Z"/><path id="Path_89" data-name="Path 89" class="cls-1" d="M713.09,101.21c-34.44-8.5-83.87-9.36-146.93-2.57a22.41,22.41,0,0,0,4.8,44.55c57-6.16,102.43-5.64,131.36,1.53a22.41,22.41,0,0,0,10.77-43.51Z"/><path id="Path_63" data-name="Path 63" class="cls-1" d="M577.94,735.93a22.43,22.43,0,0,0,22.4-22.45,22.86,22.86,0,0,0-1.21-7.24,51.6,51.6,0,0,1,27.19-63.76l5-2.28a28.91,28.91,0,0,1,12.44-.89,22.4,22.4,0,1,0,6.73-44.3l-.13,0A73.69,73.69,0,0,0,616,598c-.71.25-1.41.52-2.09.82l-6.52,3a96.3,96.3,0,0,0-50.69,118.95A22.43,22.43,0,0,0,577.94,735.93Z"/></g><g id="Layer_6" data-name="Layer 6"><path id="Path_80" data-name="Path 80" class="cls-1" d="M1249.55,931.46a803.94,803.94,0,0,0-80.37-142.58c-13.53-19.25-20.7-48.27-6.23-69.65a52.16,52.16,0,0,1,37.48-23A81.92,81.92,0,0,1,1262.34,715c39.88,33.5,67.85,86.53,87.76,129a22.4,22.4,0,0,0,40.56-19c-21.85-46.61-53-105.1-99.49-144.26a126.32,126.32,0,0,0-96.9-28.87,97.77,97.77,0,0,0-68.44,42.27c-23.25,34.35-20.63,81.66,6.72,120.58a761,761,0,0,1,75.92,134.67,22.4,22.4,0,1,0,41.06-17.92Z"/></g></g></svg>