<svg xmlns="http://www.w3.org/2000/svg" viewBox="0 0 679 679"><defs><style>.cls-1{fill:#fff;}</style></defs><g id="Layer_2" data-name="Layer 2"><g id="Layer_1-2" data-name="Layer 1"><g id="Layer_2-2" data-name="Layer 2"><g id="Layer_1-2-2" data-name="Layer 1-2"><path class="cls-1" d="M542.71,365.58h3v-13h-3Zm-7.84-4.15-3.19-12.85h-2.5l-3.24,12.74-2.64-12.74h-2.94l3.92,17h2.84l3.31-12.41,3.21,12.41h2.82l3.92-17h-2.94Zm40.63-38.1a4.84,4.84,0,0,0-3.87,1.74l-.09-1.49h-2.83v13h3v-9.23a2.9,2.9,0,0,1,2.68-1.58,2.33,2.33,0,0,1,1.77.59,2.61,2.61,0,0,1,.55,1.82v8.4h3V328Q579.65,323.33,575.5,323.33Zm-70.73-.84a4.05,4.05,0,0,1,5.55-.6,4.29,4.29,0,0,1,1.09,2.69h3a6.57,6.57,0,0,0-2-4.41,6.68,6.68,0,0,0-4.61-1.56,7,7,0,0,0-3.75,1,6.69,6.69,0,0,0-2.48,2.89,10.2,10.2,0,0,0-.86,4.32v1.63a9.85,9.85,0,0,0,.88,4.21,6.43,6.43,0,0,0,2.42,2.79,6.66,6.66,0,0,0,3.65,1,6.92,6.92,0,0,0,4.74-1.55,6.29,6.29,0,0,0,2-4.32h-3a4.23,4.23,0,0,1-1.16,2.67,3.78,3.78,0,0,1-2.65.79,3.3,3.3,0,0,1-2.94-1.47,7.56,7.56,0,0,1-1-4.29V326.7A7.1,7.1,0,0,1,504.77,322.49Zm11.94,14.09h3v-18h-3Zm12-.24a6.11,6.11,0,0,0,2.81-.63,5,5,0,0,0,2-1.8L532,332.43a3.75,3.75,0,0,1-3.14,1.61,3,3,0,0,1-2.29-.93,4,4,0,0,1-1-2.53h8.17v-1.22a7.31,7.31,0,0,0-1.39-4.75,4.79,4.79,0,0,0-3.94-1.69,5.29,5.29,0,0,0-2.91.85,5.71,5.71,0,0,0-2,2.34,7.75,7.75,0,0,0-.72,3.45v.36a6.37,6.37,0,0,0,1.66,4.61,5.7,5.7,0,0,0,4.34,1.76Zm-2.58-10.08a2.38,2.38,0,0,1,1.92-.84,2.5,2.5,0,0,1,1.89.75,3.53,3.53,0,0,1,.77,2.2v.21h-5.52A4.25,4.25,0,0,1,526.13,326.26Zm83-49a3.32,3.32,0,0,0-3.23-.19l-10.7,5.09-10.69-5.09a3.31,3.31,0,0,0-2.88,0L571,282.19,560.3,277.1a3.33,3.33,0,0,0-2.89,0l-10.69,5.09L536,277.1a3.33,3.33,0,0,0-2.89,0l-10.69,5.09-10.69-5.09a3.31,3.31,0,0,0-2.88,0l-10.69,5.09L487.5,277.1a3.35,3.35,0,0,0-4.47,1.58,3.4,3.4,0,0,0-.32,1.44V407a3.34,3.34,0,0,0,3.38,3.31,3.27,3.27,0,0,0,1.41-.32l10.69-5.09L508.88,410a3.33,3.33,0,0,0,2.89,0l10.69-5.09L533.15,410a3.33,3.33,0,0,0,2.89,0l10.69-5.09L557.42,410a3.31,3.31,0,0,0,2.88,0L571,404.93,581.68,410a3.31,3.31,0,0,0,2.88,0l10.69-5.09L606,410a3.25,3.25,0,0,0,1.4.38,3.55,3.55,0,0,0,1.8-.52,3.4,3.4,0,0,0,1.56-2.84V280.12A3.36,3.36,0,0,0,609.18,277.29Zm-4.44,124.64-7.37-3.5a3.33,3.33,0,0,0-2.89,0l-10.73,5.1L573,398.43a3.35,3.35,0,0,0-2.9,0l-10.73,5.1-10.73-5.1a3.33,3.33,0,0,0-2.89,0L535,403.53l-10.73-5.1a3.33,3.33,0,0,0-2.89,0l-10.73,5.1L500,398.43a3.35,3.35,0,0,0-1.46-.33,3.27,3.27,0,0,0-1.44.33l-7.36,3.5V285.22l7.35,3.5a3.35,3.35,0,0,0,2.9,0l10.72-5.1,10.72,5.1a3.35,3.35,0,0,0,2.9,0l10.7-5.1,10.73,5.1a3.33,3.33,0,0,0,2.89,0l10.73-5.1,10.73,5.1a3.35,3.35,0,0,0,2.9,0l10.73-5.1,10.74,5.1a3.33,3.33,0,0,0,2.89,0l7.37-3.5ZM544.19,348a1.67,1.67,0,0,0-1.21.44,1.54,1.54,0,0,0-.43,1.12,1.5,1.5,0,0,0,.43,1.1,1.9,1.9,0,0,0,2.42,0,1.54,1.54,0,0,0,.43-1.1,1.58,1.58,0,0,0-.43-1.11A1.66,1.66,0,0,0,544.19,348Zm10.7,4.31a4,4,0,0,0-3.33,1.56l-.1-1.31h-2.75v18h3v-6.17a4.38,4.38,0,0,0,6.42-.05c.1-.1.19-.22.28-.33a8.12,8.12,0,0,0,1.3-4.81V359a8.26,8.26,0,0,0-1.3-4.93A4.12,4.12,0,0,0,554.89,352.33Zm1.82,10.56a2.66,2.66,0,0,1-2.3,1.18,2.83,2.83,0,0,1-2.7-1.65v-6.08a2.84,2.84,0,0,1,2.71-1.55,2.65,2.65,0,0,1,2.34,1.2,5.72,5.72,0,0,1,.82,3.25,6.41,6.41,0,0,1-.87,3.61Zm34.15-38a4.57,4.57,0,0,0-3.61-1.54,4.81,4.81,0,0,0-3.91,1.8,7.35,7.35,0,0,0-1.47,4.79,7.57,7.57,0,0,0,1.5,5,4.79,4.79,0,0,0,3.86,1.79,4.52,4.52,0,0,0,3.48-1.39v.87a2.94,2.94,0,0,1-.88,2.3,3.4,3.4,0,0,1-2.37.78,4.33,4.33,0,0,1-3.42-1.59l-1.44,1.74a5.05,5.05,0,0,0,2.15,1.54,7.31,7.31,0,0,0,2.88.59,6.41,6.41,0,0,0,4.44-1.46,5.09,5.09,0,0,0,1.64-4V323.58H591Zm-.12,8.06a2.79,2.79,0,0,1-2.6,1.5,2.5,2.5,0,0,1-2.2-1.12,5.05,5.05,0,0,1-.79-3.05,5.77,5.77,0,0,1,.79-3.34,2.55,2.55,0,0,1,2.19-1.19,2.79,2.79,0,0,1,2.58,1.46Zm-23.37,20a5.29,5.29,0,0,0-2.91.85,5.7,5.7,0,0,0-2,2.37,7.75,7.75,0,0,0-.72,3.45V360a6.36,6.36,0,0,0,1.63,4.61,5.69,5.69,0,0,0,4.32,1.73,6.12,6.12,0,0,0,2.82-.63,5.07,5.07,0,0,0,2-1.84L571,362.43a3.74,3.74,0,0,1-3.14,1.61,3,3,0,0,1-2.28-.93,3.87,3.87,0,0,1-1-2.53h8.17v-1.17a7.35,7.35,0,0,0-1.39-4.76A4.84,4.84,0,0,0,567.37,353Zm3.15,5.61H565a4.26,4.26,0,0,1,.93-2.33,2.71,2.71,0,0,1,3.78-.09,3.63,3.63,0,0,1,.78,2.21Zm-7.81-22h3v-13h-3Zm1.45-14.72a1.64,1.64,0,0,0,1.22-.43,1.54,1.54,0,0,0,.43-1.1,1.63,1.63,0,0,0-.43-1.11,1.72,1.72,0,0,0-1.22-.44,1.67,1.67,0,0,0-1.21.44,1.53,1.53,0,0,0-.42,1.11,1.45,1.45,0,0,0,.42,1.1,1.56,1.56,0,0,0,1.23.38Zm-18.45,5.87a3.26,3.26,0,0,0-1.15-3.15,5.47,5.47,0,0,0-3.61-1.14,6.74,6.74,0,0,0-2.7.53,4.58,4.58,0,0,0-1.91,1.45,3.26,3.26,0,0,0-.7,2.16h2.89a1.62,1.62,0,0,1,.63-1.42,2.61,2.61,0,0,1,1.62-.58,2.22,2.22,0,0,1,1.71.61,1.3,1.3,0,0,1,.22,1.6v.79h-1.44a14.67,14.67,0,0,0-4.38,1.15,3.66,3.66,0,0,0-1.53,3.17,3.51,3.51,0,0,0,1.23,2.74,4.88,4.88,0,0,0,6.55-.33,5.34,5.34,0,0,0,.34,1.27h2.23v-.27a6.59,6.59,0,0,0,0-2.73Zm-3,5.29a2.71,2.71,0,0,1-1.13,1.12,3.31,3.31,0,0,1-1.62.41,2.09,2.09,0,0,1-1.48-.49,1.62,1.62,0,0,1-.55-1.32,1.84,1.84,0,0,1,.81-1.6,4.3,4.3,0,0,1,2.41-.56h1.56Zm9-5.67a2.89,2.89,0,0,1,2.67-1.58,2.33,2.33,0,0,1,1.77.59,2.62,2.62,0,0,1,.56,1.82v8.4h3V328c-.06-3.08-1.44-4.62-4.16-4.62a4.76,4.76,0,0,0-3.84,1.73v-1.54h-3v13h3Z"/></g></g><g id="Layer_2-3" data-name="Layer 2"><g id="Layer_1-2-3" data-name="Layer 1-2"><path class="cls-1" d="M597.36,528.37a9.36,9.36,0,0,0-12.87,1.32l-6.7,7.71,7.1-21.69a10.13,10.13,0,0,0-5.27-12.44,10,10,0,0,0-13.28,4.86c-.15.32-.28.65-.4,1l-4,11.84,1.18-21.42A10.71,10.71,0,0,0,553,488.28h-.18a10.78,10.78,0,0,0-11.13,10.12l-.85,15.26-1.5-9.71A12.33,12.33,0,0,0,527,493.81h0a10.12,10.12,0,0,0-8.11,11.11l4.44,39.35a1.41,1.41,0,0,1-2.27,1.26L510,536.73a10.69,10.69,0,0,0-15,1.75c-.16.2-.32.42-.47.63l-.14.16a10.68,10.68,0,0,0,2.8,14.84l.34.23,1,.62a42.57,42.57,0,0,1,14.92,16.2,16.79,16.79,0,0,0,5.65,6.16,9.35,9.35,0,0,1,4.12,6.73,74.44,74.44,0,0,1,.38,14l-1.85,28a2.57,2.57,0,0,0,.66,1.87,2.53,2.53,0,0,0,1.82.78h51.64a2.46,2.46,0,0,0,2.48-2.46,2.56,2.56,0,0,0,0-.39l-3-19.92a61.06,61.06,0,0,1,9.21-42.66l14.86-22.47A9.24,9.24,0,0,0,597.36,528.37ZM526.84,623.7l.17-3h45.54l.39,3Zm68.28-86.13L580.4,559.78l-.18.27a65.94,65.94,0,0,0-10,46.12l1.44,9.53h-9.17v-7.24a2.56,2.56,0,0,0-1.88-2.54,2.5,2.5,0,0,0-3.12,2.42h0v7.36H527.25l1.15-17.84A79.77,79.77,0,0,0,528,583a14.31,14.31,0,0,0-6.22-10.18,13,13,0,0,1-4.21-4.67A47.6,47.6,0,0,0,501,550.27l-1-.62a5.71,5.71,0,0,1-1.76-7.88l.08-.12.13-.18a5.72,5.72,0,0,1,7.94-1.56l.36.26,11.09,8.8a6.78,6.78,0,0,0,1.41.85c2.74,1.43,6.29,2.18,10,3,6.3,1.34,13.44,2.85,17.68,7.84a2.46,2.46,0,0,0,1.89.88,2.48,2.48,0,0,0,1.89-4.09c-5.32-6.37-13.65-8.14-20.38-9.57-1-.22-2.06-.43-3-.66a6.37,6.37,0,0,0,.87-4l-4.46-39.3a5.18,5.18,0,0,1,3.92-5.63,7.34,7.34,0,0,1,6.66,5.92l4,26a3.24,3.24,0,0,0,6.44-.31l1.77-31.72a5.75,5.75,0,0,1,10-3.54,5.7,5.7,0,0,1,1.48,4.14l-1.62,29.4a3.87,3.87,0,0,0,7.52,1.47l6.63-19.37a5,5,0,0,1,6.31-3.18,4.24,4.24,0,0,1,.59.23,5.16,5.16,0,0,1,2.63,6.34l-8.28,25.26A4.21,4.21,0,0,0,579,543l9.15-10.55a4.47,4.47,0,0,1,6.06-.68A4.31,4.31,0,0,1,595.12,537.57Z"/></g></g><g id="Layer_2-4" data-name="Layer 2"><g id="Layer_1-2-4" data-name="Layer 1-2"><path class="cls-1" d="M521.71,129.18h-6v29h6Zm73-60h-96a6,6,0,0,0-6,6v21h12v78.55a14.5,14.5,0,0,0,3.12,9.16,11.27,11.27,0,0,0,8.91,4.29h61a11.26,11.26,0,0,0,8.91-4.29,14.55,14.55,0,0,0,3.11-9.16V96.18h11v-21A6,6,0,0,0,594.7,69.18Zm-11,105.31c0,5-3.18,7.69-6.17,7.69H516.87c-4,0-6.16-4-6.16-7.69V124.18h73Zm0-55.31h-73v-23h73Zm-85-29V75.34a.13.13,0,0,1,.09-.16h11.91v11h6v-11l15-1v12h6v-12h17v12h6v-12l15,1v11h6v-11H594.6l.11.11V90.18Zm23,71h-6v9h6Z"/></g></g><g id="Layer_2-5" data-name="Layer 2"><g id="Layer_1-2-5" data-name="Layer 1-2"><path class="cls-1" d="M383.48,490H305.11a14.83,14.83,0,0,0-14.81,14.8v107.4A14.82,14.82,0,0,0,305.11,627h78.37a14.83,14.83,0,0,0,14.82-14.8V504.78A14.83,14.83,0,0,0,383.48,490ZM296.3,515h9v4h-9Zm96,97.29a8.73,8.73,0,0,1-8.73,8.71H305.11a8.75,8.75,0,0,1-8.81-8.7V522h9.35a4.16,4.16,0,0,0,4.39,3h4.53c2.21.21,4.39-3,4.39-3H392.3Zm0-93.29h-73v-4h73Zm0-6h-73v-.25a4.75,4.75,0,0,0-4.73-4.75H309.7a4.64,4.64,0,0,0-4.4,4.75V513h-9v-8.32a8.74,8.74,0,0,1,8.78-8.68h78.45a8.72,8.72,0,0,1,8.77,8.65Zm-35.43,93.27a1.46,1.46,0,0,0,.87.28,1.49,1.49,0,0,0,1.23-.63L377,580.39a1.51,1.51,0,0,0-2.34-1.9l-.12.16-18.1,25.5A1.52,1.52,0,0,0,356.83,606.25Zm11.65,1.51a1.5,1.5,0,0,0,2.1-.35L382.38,591a1.51,1.51,0,1,0-2.46-1.76l-11.79,16.43A1.53,1.53,0,0,0,368.48,607.76Z"/></g></g><g id="Layer_2-6" data-name="Layer 2"><g id="Layer_1-2-6" data-name="Layer 1-2"><path class="cls-1" d="M422.9,128.65l3-5.4v-1.09a23,23,0,0,0,2-6.78c.4-2.87.12-3.94-1.19-4.92a2.15,2.15,0,0,1-.28-.23,2.68,2.68,0,0,1-.53-.87,18.66,18.66,0,0,0-.11-3.81l.05-1h-.19a19.44,19.44,0,0,0-5.57-10.3,23.8,23.8,0,0,0-6.59-4.7h-1.39c-.25-.09-11.5-3.92-25.66-8.72a12.41,12.41,0,0,0,.81-3.8A5.56,5.56,0,0,0,384,71.56h-.12c-4-1.53-18.85-6.42-27.69-9.32l-.49-.2c-3.15-1-5.66-1.86-6.47-2.15a1.82,1.82,0,0,0-2.23,1l-2.65,5.66-9.73-3.29a26.78,26.78,0,0,0-13.47-1.48,29.88,29.88,0,0,0-10.58,3.85,36.54,36.54,0,0,0-9.34,7.68l-.15.19L262,133.22l-.06.1v.81a10,10,0,0,0-.85,8.33.17.17,0,0,0,0,.1H261l.09.09c2.1,5.66,9,8.69,9.3,8.81.71.33,76.09,36.12,90.95,43.28a26.29,26.29,0,0,0,10.28,2.82h.86a17.18,17.18,0,0,0,6.6-1.26,14.62,14.62,0,0,0,6-4.33.38.38,0,0,0,.09-.13c.08-.12,8.17-13.71,9-15l.05-.09a66.57,66.57,0,0,0,6.75,3c3.74,1.51,6.25,1,7.7.29a5.9,5.9,0,0,0,2.39-2.09c.32-.45,6.58-9.22,12.05-16.57a18,18,0,0,0,3.24-14.44l-.06-.22c-1-3.75-3.33-12.62-3.67-14a8.17,8.17,0,0,1,.23-3.58ZM385.3,75.13c.73,1.23.33,3-.26,4.69l-1.29-.44Zm-35-12.37c1.12.38,2.9,1,5.25,1.73l.89.29c7.89,2.59,20.93,6.86,26.26,8.79L381,78.43c-11.1-3.77-23.1-7.87-32.74-11.11Zm-85,79.64c4-5.86,39.82-59.12,42.09-62.52,4.09-6.13,9.51-8.15,16.11-6h0c2.38.89,58.43,21.78,65,24.66,4.48,2,7.23,3.56,8,5.8a4.77,4.77,0,0,1,.25,1.79l.07,0c-1-1.6-1.85-3-3.35-3.71s-3.27-.71-5.84.07c-.7-.26-1.28-.44-1.65-.56l-1.59-.62h0l-1-.38c-.88-.36-1.71-.7-2.49-1l-15.89-6.22a6.77,6.77,0,0,0-2.92-3c-1.21-.53-2.63-.52-4.85,0-3.1-1.21-4-1.59-5.67-2.26a26.88,26.88,0,0,0-2.77-1c-9.94-3.78-22.56-8.8-22.66-8.85h-.09c-4.79-1.56-9.14-1.3-12.93.78a18.87,18.87,0,0,0-6.59,6.37l-21.12,31.38c-6.88,10.19-14,20.71-17.82,26.42Zm130.83-32.77a22.52,22.52,0,0,1-1,2.18l-28.75,47.75-11.2-4.63,30-49.71c.46.15,1.09.37,1.82.65a1.56,1.56,0,0,0,1,0c4-1.33,4.52-.58,6.27,2.23.17.28.35.57.55.87A1.46,1.46,0,0,0,396.17,109.63ZM364.73,97.56l-30.09,47.62-10.5-4.62L354,93.73c.44.16,1,.37,1.68.64a1.56,1.56,0,0,0,1,0c2.28-.69,3.61-.86,4.3-.56s1.24,1.24,2.11,2.69a1.64,1.64,0,0,0,.67.58Zm-94.4,47.63c3.78-5.61,10.42-15.46,17-25.14l.6-.89c9.58-14.21,19.91-29.51,21.12-31.33,4.08-6.12,9.5-8.14,16.1-6h0c1.62.64,9.85,3.91,17.88,7a10.39,10.39,0,0,0-2.25,2.73c-.66,1-38.92,60.48-42.82,66.59Zm30.32,14.23,1.41-2.19,41.21-64.11c1.59-2.56,2.81-2.86,4.59-2.42L351,91.88l.39.14.21.07L320.74,140.4a1.46,1.46,0,0,0,.41,2l.23.13,13.23,5.84a1.54,1.54,0,0,0,.6.13,1.52,1.52,0,0,0,1.24-.69l31.27-49.47L375,101.2a11.33,11.33,0,0,0-2.28,2.78c-.68,1-39.54,62.66-43.45,68.86Zm31.26,14.66c5.87-9.3,42.58-67.52,43.25-68.52,1.08-1.74,2-2.56,3-2.66a4.44,4.44,0,0,1,1.8.28l2.49,1-30.59,50.66a1.46,1.46,0,0,0,.5,2l.2.11,12.6,5.21-12.87,21.47Zm29.78,14L355,184.93l42.74-71.58.26-.5.17-.35.11-.23c.18-.38.35-.76.5-1.14.06-.15.12-.3.17-.44s.16-.43.23-.65.1-.28.14-.42l.18-.64a1.53,1.53,0,0,1,.1-.41c0-.14,0-.13,0-.18v-.18c0-.1.33-.28.33-.28v-.69a18.1,18.1,0,0,0-.66-3.37c-1.27-3.59-5.27-5.6-9.61-7.51-6.28-2.77-55.23-21-65-24.67l-.09-.13c-4.79-1.57-9.14-1.31-12.93.77a17.78,17.78,0,0,0-1.6,1,14.84,14.84,0,0,1,14.55-4.55l.3-.22H325l.26.36c.34.08,1.06-.36,1.06-.36h.24l.14,1h.1l.53-.12.15.06.16.06h.07l1.59.59.16.06.63.24.31.11h.76l1.84.69.12,0,10.3,3.82.76.29,10.22,3.8.64.23,1.38.52,2.86,1,.41.15,1.7.63L362,82l.83.31,6.71,2.52,1.92.73,8.63,3.27,2.31.87L383,90l1.15.44.34.13,2.64,1h-.53l1.58.62.76.38h.11l3.67,1.34.48.19c2.72,1.07,4.68,1.87,5.83,2.38l.2.09.38.16c5.38,2.5,8.46,4.34,9.31,6.88.64,1.9.08,4.39-1.75,7.82Zm2.68,1.26,45.38-76.11h0c2.25-4.22,2.87-7.45,2-10.17-1.3-3.91-5.69-6.22-10.86-8.62C393.61,91,334.16,69,327.4,66.47l-.19-.07a20.34,20.34,0,0,0-9.77-.59,23.87,23.87,0,0,1,17.17,0h0l11.11,3.75a1.49,1.49,0,0,0,.36.17l39,13.21.15,0,26.11,8.88,1.29.44a21.29,21.29,0,0,1,5.78,4.09,16.28,16.28,0,0,1,4.93,9.41c-.3,5-.63,6.25-4.75,14.37-4,6.85-29.5,50.06-37.2,62.71-2.95,4.84-6.48,7.5-10.5,7.89a10.32,10.32,0,0,1-5.09-.8Zm55.53-56.42c.73,1.79,4,14.25,4,14.33.06.28,1.45,6.76-2.75,12h0C415.83,166.48,409.7,175.07,409,176h0l-.06.09c-.06.11-1.54,2.6-6.46.61a61.56,61.56,0,0,1-6.38-2.83.7.7,0,0,0-.21-.14,2.79,2.79,0,0,0-3.78,1.13l-.05.1c-.78,1.26-8.07,13.56-8.94,15a12.37,12.37,0,0,1-4.77,3.37,16.83,16.83,0,0,1-11.54,0,8,8,0,0,0,3.15.19h1.24a12,12,0,0,0,6.33-2.09,21.7,21.7,0,0,0,6.45-7c7.8-12.81,33.29-56,37.22-62.74a.41.41,0,0,1,.07-.11,68.68,68.68,0,0,0,4-8.7l.34.27c.14.1.32.23,0,2.25a20.7,20.7,0,0,1-1.76,6l-3.1,5.58a1.31,1.31,0,0,0-.16.43c0,.17-.07.33-.65.5v.12c.1,1.56,0,3.21,0,4.82Z"/></g></g><g id="Layer_2-7" data-name="Layer 2"><g id="Layer_1-2-7" data-name="Layer 1-2"><path class="cls-1" d="M149.81,324.87l1.43-.26c.25-.05.42-.29.66-.55v-1.19c-.24-.2-.39-.39-.6-.41h-.09l-1.43.26c-.26.07-.43.3.12.55v1.19c-.57.21-.41.4-.2.42Zm-40.46,60.89L90.9,380.52a3,3,0,1,0-1.66,5.85l18.43,5.24a2.56,2.56,0,0,0,.83.11,3,3,0,0,0,.83-6h0Zm43.15-66.59-.2-7.19a.39.39,0,0,0-.36-.4h-.08l-1.09.19a.55.55,0,0,0-.42.56l.12,4.42-.54.1a.55.55,0,0,0-.42.56l.06,2.28a.39.39,0,0,0,.37.41H150l2.06-.36A.55.55,0,0,0,152.5,319.17Zm-43.15,36.21L90.9,350.14A3,3,0,1,0,89.24,356h0l18.43,5.24a2.56,2.56,0,0,0,.83.11,3,3,0,0,0,.83-6Zm36.33-34.52,1-.18.12,4.23a.39.39,0,0,0,.36.42h.08l1.07-.23a.56.56,0,0,0,.42-.56l-.21-7.56a.39.39,0,0,0-.36-.4h-.08l-1.06.18c-.26.07-.44.3-1.12.56V319l-.3.18c-.26.07-.43.3-.7.56v.65c.24.22.38.42.59.46A.41.41,0,0,0,145.68,320.86Zm.22-9.29,5-.88a2.11,2.11,0,0,0,1.6-2.14l-.16-5.55a1.47,1.47,0,0,0-1.37-1.56,1.69,1.69,0,0,0-.32,0l-5,.87a2.11,2.11,0,0,0-1.6,2.14l.15,5.55a1.48,1.48,0,0,0,1.38,1.58A1.17,1.17,0,0,0,145.9,311.57Zm-.21-7.63,4.92-.85a.18.18,0,0,1,.19.16,0,0,0,0,1,0,0l.16,5.52a.27.27,0,0,1-.19.26l-4.88.84a.16.16,0,0,1-.2-.13,0,0,0,0,1,0,0l-.15-5.52A.24.24,0,0,1,145.69,303.94Zm28.07,11.52.27.07a2.93,2.93,0,0,0,1.25,0,2.45,2.45,0,0,0,1.56-.95l.06-.1v-.06c-.23-.22-.46-.44-.7-.64a1.34,1.34,0,0,0-.31-.17.72.72,0,0,0-.44.07,1.87,1.87,0,0,1-.35.17,1.53,1.53,0,0,1-.92,0,1.34,1.34,0,0,1-.41-.15,2.05,2.05,0,0,1-1.24-1.55,2.85,2.85,0,0,1,0-1.3,1.8,1.8,0,0,1,.5-.9,1.6,1.6,0,0,1,1.42-.3,2.17,2.17,0,0,1,.68.3,5,5,0,0,1,.48.44.81.81,0,0,0,.46.29.61.61,0,0,0,.27,0,7.72,7.72,0,0,1,1.56-.31v-.14c-1-.67-1.47-1.24-2.08-1.66a4.14,4.14,0,0,0-1.29-.53,3.26,3.26,0,0,0-1.39,0,2.62,2.62,0,0,0-1.57,1,3.7,3.7,0,0,0-.67,2.43,4.2,4.2,0,0,0,.8,2.42A3.93,3.93,0,0,0,173.76,315.46ZM149.9,308l-.09-3.55-3.2.56.1,3.55Zm1.06,7.11-.06-2v-.57a.39.39,0,0,0-.38-.39h-.2a.52.52,0,0,0-.42.52v.58l-1,.15a.54.54,0,0,0-.43.53l0,1.6a.36.36,0,0,0,.34.38h.12l1.6-.25a.53.53,0,0,0,.41-.5Zm55.77-27L164.07,276.2h0l-.34-.11h-1l-.31.07h0l-41.84,11.66L78.76,276.2a3.08,3.08,0,0,0-2.66.48A3,3,0,0,0,74.9,279V395.18s.89,2.56,2.21,2.91l42.73,12h.06l.31,1h.09c.12-.77.25-.77.38-.78s.25,0,.38.78h.09l.32-.85h0l41.91-11.91,41.9,11.91a2.82,2.82,0,0,0,.83.12,2.91,2.91,0,0,0,1.83-.62c.76-.56,1-2.42,1-2.42V291a2.94,2.94,0,0,0-2.18-2.89ZM117.91,403.94l-37-10.58V282.58l37,10.52Zm43-10.54-37,10.47V293.11l37-10.51Zm42,10.52-37-10.58V282.6l37,10.51ZM89.08,340.39l18.06,5.19a3,3,0,0,0,3.36-1.42,3,3,0,0,0,.4-1.59V303.36a3,3,0,0,0-2.13-2.86l-18.08-5.14a2.94,2.94,0,0,0-3.67,2,2.81,2.81,0,0,0-.12.91v39.3A2.92,2.92,0,0,0,89.08,340.39Zm3.82-38.06,12,3.41v32.83l-12-3.41Zm16.45,68.24L90.9,365.33a3,3,0,1,0-1.66,5.85l18.43,5.24a2.56,2.56,0,0,0,.83.11,3,3,0,0,0,.83-6Zm31.24-64.9.55-.09.05,1.74-.55.09c-.26.07.26.56.26.56v.12s-.52.4-.31.42h.08l.55-.1.07,2.69a.37.37,0,0,0,.35.41h.1l1.56-.27c.25-.06.42-.3.6-.56v-1.22c-.18-.21-.35-.4-.56-.41h-.07l-.55.1-.1-4h-.15a.57.57,0,0,0,.43-.56v-.66a.4.4,0,0,0-.36-.41h-.09l-2.14.36a.53.53,0,0,0-.41.56v.92s.42.38.63.37Zm2.31,8.42v-1.22a.41.41,0,0,0-.38-.42h-.08l-1.12.19a.54.54,0,0,0-.42.56v1.22a.37.37,0,0,0,.35.41h.09l1.12-.19a.58.58,0,0,0,.47-.56Zm.91,6-1.56.27a.56.56,0,0,0-.42.56l.13,4.84a.39.39,0,0,0,.36.42h.09l1.56-.27a.56.56,0,0,0,.42-.56l-.14-4.84a.39.39,0,0,0-.35-.41Zm1.64-1.77-.06-2.23h.07a.55.55,0,0,0,.44-.55v-1.19a.41.41,0,0,0-.38-.42h-.09l-1.11.2a.53.53,0,0,0-.42.55v.63l-2.06.35a.55.55,0,0,0-.43.56l.09,2.8a.38.38,0,0,0,.37.41H142l3.07-.53A.55.55,0,0,0,145.45,318.32Zm49.45-13.49a2.84,2.84,0,0,0,0,2.57c.21.61.39,1.22.59,1.84a.41.41,0,0,1,0,.22,1.23,1.23,0,0,1-.35.4,2.63,2.63,0,0,1-.72.23h-.25c-.06-.11-.09-.11-.1,0a1.16,1.16,0,0,0,.18.94,1.36,1.36,0,0,0,1.9.35l.2-.17a3.56,3.56,0,0,0,.74-1.09c.32-.68.62-1.35.91-2s.58-1.44.87-2.16c0-.07,0-.14.07-.22a.83.83,0,0,0-.48-.93l-.28-.07-.42-.09a.11.11,0,0,0-.14.06v0a.31.31,0,0,0-.05.12c-.35.91-.71,1.81-1.06,2.71v.11h0l-.06-.23-.36-1.41-.33-1.31a.93.93,0,0,0-.65-.7h0l-.32-.07-.52.17h-.34a1.55,1.55,0,0,0,1,.72Zm-10,3.26h-.46a3.23,3.23,0,0,0,.44,0,2.32,2.32,0,0,0,1.48-.4,2.45,2.45,0,0,0,.92-1.41,2.14,2.14,0,0,1,.13-.48.34.34,0,0,1,0,.2,3.3,3.3,0,0,0,.29,1.34,4.14,4.14,0,0,0,1.62,1.65,3.42,3.42,0,0,0,.9.31,3.08,3.08,0,0,0,.53.08,2.64,2.64,0,0,0,1.08-.1,2.2,2.2,0,0,0,1.43-1.4,4.58,4.58,0,0,0,.27-1.26c.13-1.56.25-3.13.37-4.69v-.07c0-.14,0-.16-.16-.19l-.41-.1-.26-.05a.81.81,0,0,0-1,.58.55.55,0,0,0,0,.18,5.88,5.88,0,0,1-.1,1.32.74.74,0,0,1,0,.21l-.14-.08a3.23,3.23,0,0,0-1.2-.52,4.18,4.18,0,0,0-1.06-.07,2,2,0,0,0-.72.2,2.51,2.51,0,0,0-1.29,1.67v.16a.88.88,0,0,1,0-.23l.33-4.16v-.28s.3-.16.17-.18l-.39-.1-.29-.06a.75.75,0,0,0-.84.58,1.32,1.32,0,0,0-.06.39,5.19,5.19,0,0,1-.08,1.11v.21l-.18-.11a3.18,3.18,0,0,0-1.06-.48,3,3,0,0,0-.84-.07,2,2,0,0,0-1.7,1.12.44.44,0,0,0-.1.28l.23.07a3.08,3.08,0,0,0,.61.06,2.22,2.22,0,0,0,1.37-.7c-.13.17-.28.32-.42.49a4.63,4.63,0,0,1-1.44,1h-.36c-.16-.39-.16-.39-.2-.23a3.16,3.16,0,0,0-.07.86,3.52,3.52,0,0,0,.83,2.2,3.07,3.07,0,0,0,1.82,1Zm5.41-3.23a1,1,0,0,1,.87-.19,1.41,1.41,0,0,1,.8.55,1.92,1.92,0,0,1,.33,1,1.88,1.88,0,0,1-.24,1.07,1,1,0,0,1-1.08.45h-.09a1.46,1.46,0,0,1-1-1.2V306A1.53,1.53,0,0,1,190.31,304.86ZM183.9,304a1,1,0,0,1,1.18-.62,1.51,1.51,0,0,1,1.09,1.25,5.61,5.61,0,0,1,0,.58,1.85,1.85,0,0,1-.3.86.92.92,0,0,1-.8.38h-.27a1.29,1.29,0,0,1-.72-.46,1.31,1.31,0,0,1-.31-.65A1.84,1.84,0,0,1,183.9,304Zm-49.72,17.72.1,3.59,3.16-.56-.1-3.59Zm-1.28,70a2.6,2.6,0,0,0,.83-.11l18.43-5.24a3,3,0,0,0-1.66-5.85l-18.43,5.24a3,3,0,1,0,.83,6ZM177,304a1.94,1.94,0,0,0,.43,1,2.88,2.88,0,0,0,.85.74,3.27,3.27,0,0,0,1,.36h.21s.76.64,1.14.55a1.8,1.8,0,0,0,1.36-1.38,8.43,8.43,0,0,0,.19-1.51v.34h-.2s-.49-.24-.67,0-.34.43-.52.64a1.54,1.54,0,0,1-2.52-.17.76.76,0,0,1,0-.82,1,1,0,0,1,.4-.34,1.3,1.3,0,0,1,.78-.06,2.07,2.07,0,0,1,.47.18l.28.15a.57.57,0,0,0,.25.11.67.67,0,0,0,.48-.06l.36-.2a2.69,2.69,0,0,1,.79-.3c.11,0,.13-.05.13-.19a2.85,2.85,0,0,0-.06-.67,2.48,2.48,0,0,0-1.23-1.82,5.19,5.19,0,0,0-1.35-.53l-.34-.07a4.49,4.49,0,0,1-.89-.06c-.12,0-.15,0-.15.17a2.35,2.35,0,0,0,0,.53.8.8,0,0,0,.24.56.77.77,0,0,0,.42.26h0a2.79,2.79,0,0,1,.7.13h0a1.91,1.91,0,0,1,.8.41c.19.19.3.2.3.2h-.15l-.25.46-.23-.46h-.17c-.3-.06-.61-.14-1-.18a2.58,2.58,0,0,0-1,0,1.14,1.14,0,0,0-.84.71A2.1,2.1,0,0,0,177,304Zm2.1,6.48a1.08,1.08,0,0,0-.67-1.13,1.72,1.72,0,0,1-.58-.28h-.08c-.18.11-.18.11-.2.35-.13,1.87-.27,3.75-.4,5.62a.88.88,0,0,0,0,.23,1,1,0,0,0,.63,1,4.3,4.3,0,0,0,.8.22c.09,0,.11,0,.12-.11v-.15c.06-.86.12-1.71.19-2.56a2.56,2.56,0,0,1,.1-.54.5.5,0,0,1,.47-.38h.28a.81.81,0,0,1,.64.79,3.31,3.31,0,0,1,0,.63,4.2,4.2,0,0,1-.45,1.29v.64a.82.82,0,0,0,.47.82,3.12,3.12,0,0,0,.43.15H181l.25.05c.06,0,.09,0,.09-.08a.17.17,0,0,0,0-.1q.12-1.41.21-2.82a3,3,0,0,0-.09-.94,2.17,2.17,0,0,0-.69-1.11,1.78,1.78,0,0,0-.77-.4,2.36,2.36,0,0,0-.65,0,1,1,0,0,0-.59.31l-.06.09h.19v-.46a3.74,3.74,0,0,0,.18-1.11Zm18.21,5-.24-.06-.56-.09a.61.61,0,0,0-.4.09c-.12.1-.24.2-.35.31a12.58,12.58,0,0,0-1,1.21l-.81.14h0v-.2l1-2.43v-.16a1.06,1.06,0,0,0-.75-1.07,2.46,2.46,0,0,0-.53-.15h-.12c-.27,0-.13,0-.27.87a30.69,30.69,0,0,0-.33,4.79v.13a1.11,1.11,0,0,0,.66,1.07,2,2,0,0,0,.43.14h.23a3.88,3.88,0,0,0,.68-.1v-.14a1.51,1.51,0,0,1,0-2v.24h-.36s.05-.28.08-.23c.32.64.63,1.28.94,1.92a2.48,2.48,0,0,0,.3.49.92.92,0,0,0,.58.44.58.58,0,0,0,.32,0,3.76,3.76,0,0,0,.62-.27h0c-.09-.17-.18-.34-.26-.51l-1-2.05c-.08-.16-.08-.16,0-.27a18.87,18.87,0,0,1,1.54-1.56l.33-.31-.19-.07Zm-6.71-.59.26.08a2,2,0,0,1,.66.49.76.76,0,0,0,.4.27h.19a2.84,2.84,0,0,0,.84-.31v-.15a3.51,3.51,0,0,0-1.08-1.33,2.87,2.87,0,0,0-1.12-.52,2.09,2.09,0,0,0-.55-.08,2.25,2.25,0,0,0-2.26,1.48,3,3,0,0,0-.25,1.51,3.61,3.61,0,0,0,.89,2.25,3.28,3.28,0,0,0,1.71,1,2.42,2.42,0,0,0,1.82-.26,2.24,2.24,0,0,0,.65-.65l-.1-.12c-.16-.14-.31-.27-.46-.42a1,1,0,0,0-.42-.25.56.56,0,0,0-.47.1,1.12,1.12,0,0,1-.56.15,2.57,2.57,0,0,1-.4-.06h-.16a1.59,1.59,0,0,1-1-.93,2,2,0,0,1-.14-1,1.21,1.21,0,0,1,1.07-1.35,1.27,1.27,0,0,1,.51.05Zm-6.46.52.34.07.31.08a4.85,4.85,0,0,0,.76.14,2.37,2.37,0,0,0,.92,0,.91.91,0,0,0,.75-.77,2.5,2.5,0,0,0,.06-.67,2.58,2.58,0,0,0-1-2,.93.93,0,0,0-1-.19h-.13a1.6,1.6,0,0,0-2.09.38,3.11,3.11,0,0,0-.66,2.73,3.46,3.46,0,0,0,.82,1.8,3,3,0,0,0,1.68,1.07,2.49,2.49,0,0,0,.86.07,2.05,2.05,0,0,0,1.55-.83l-.36-.13v-.07l-.12-.53a1.19,1.19,0,0,0-.35-.19.66.66,0,0,0-.44.07.94.94,0,0,1-.33.14,1.26,1.26,0,0,1-.61,0,1.8,1.8,0,0,1-.55-.24,1.54,1.54,0,0,1-.63-.77c0-.06-.05-.13-.06.5H184Zm-.16-1.58c.12-.36.85-.76.85-.76h.29a1,1,0,0,1,.55.3,1.27,1.27,0,0,1,.21.29c.1.22,0,.4-.18.41a2.71,2.71,0,0,1-.57,0h-.18l-.3.13-.37.87H184a8.09,8.09,0,0,1-.08-1.29Zm10.84,32.25L176.69,341a3,3,0,0,0-3.67,2,2.81,2.81,0,0,0-.12.91v39.33a2.93,2.93,0,0,0,2.16,2.87l18.08,5.14a3,3,0,0,0,3.36-1.41,3.06,3.06,0,0,0,.4-1.59V348.92a3,3,0,0,0-2.1-2.87Zm-3.87,38.09-12-3.42V347.9l12,3.41Zm-52.73-66-4.94.87a2.11,2.11,0,0,0-1.6,2.14l.15,5.56a1.48,1.48,0,0,0,1.39,1.57,1.67,1.67,0,0,0,.31,0l5-.87a2.11,2.11,0,0,0,1.59-2.14l-.17-5.55a1.48,1.48,0,0,0-1.38-1.57A1.36,1.36,0,0,0,138.17,318.16Zm.19,7.63-4.93.87a.17.17,0,0,1-.2-.15s0,0,0,0l-.15-5.54a.26.26,0,0,1,.18-.27l4.94-.87a.19.19,0,0,1,.19.2l.15,5.54A.24.24,0,0,1,138.36,325.79Zm-5.46,50.74a2.6,2.6,0,0,0,.83-.11l18.43-5.24a3,3,0,0,0-1.66-5.85l-18.43,5.24a3,3,0,1,0,.83,6Zm2-61.43a.42.42,0,0,0-.38-.43h-.08l-1.12.19a.57.57,0,0,0-.42.57v1.22s.18.39.39.41h.09l.52-.18v.05a.37.37,0,0,0,.35.41.27.27,0,0,0,.09,0l2.5-.44h0a.38.38,0,0,0,.35.42h.1l1.18-.22a.57.57,0,0,0,.43-.57v-1.18s.27-.4,0-.41h-.08l0,.09v-.61a4,4,0,0,0-1-.35l-.1,0-.59.11c-.26.07-.31.56-.31.56v.61l-2,.31Zm37.76-10.27a3.11,3.11,0,0,0,2.44.68,1.8,1.8,0,0,0,1-.45,2.58,2.58,0,0,0,.7-1.15,3.73,3.73,0,0,0,.1-1.79v-.74a10.76,10.76,0,0,0,.34-2.37,4.86,4.86,0,0,1,.07-1c0-.15,0-.18-.14.08h-.36l-.18-.34h0a.8.8,0,0,0-.93.63.5.5,0,0,0,0,.17,2.11,2.11,0,0,0,.21,1.27V300h0l-.56-.17a3.66,3.66,0,0,0-1-.42,2.8,2.8,0,0,0-1,0,2.08,2.08,0,0,0-1.62,1.21,3.47,3.47,0,0,0-.31,1.82A3.19,3.19,0,0,0,172.66,304.83Zm1.14-3.66a1,1,0,0,1,.76-.32.88.88,0,0,1,.23,0,1.58,1.58,0,0,1,1.11,1.59v.23a1.53,1.53,0,0,1-.19.73,1,1,0,0,1-.64.49,1.06,1.06,0,0,1-.5,0,1.37,1.37,0,0,1-1-.91,1.83,1.83,0,0,1-.12-.87A1.56,1.56,0,0,1,173.8,301.17Zm-40.9,60.17a2.6,2.6,0,0,0,.83-.11L152.16,356a3,3,0,0,0-1.66-5.85h0l-18.43,5.24a3,3,0,1,0,.83,6Zm.18-47.51,5-.88a2.11,2.11,0,0,0,1.6-2.14l-.15-5.55a1.5,1.5,0,0,0-1.7-1.55l-5,.87a2.12,2.12,0,0,0-1.6,2.14l.16,5.55a1.47,1.47,0,0,0,1.35,1.58A1.3,1.3,0,0,0,133.08,313.83Zm-.18-7.63,4.92-.87a.19.19,0,0,1,.2.17v0l.12,5.57a.27.27,0,0,1-.19.26l-4.93.86a.16.16,0,0,1-.2-.13,0,0,0,0,1,0-.05l-.15-5.52a.24.24,0,0,1,.18-.3Zm4.17,4-.09-3.54-3.17.55.1,3.55Z"/></g></g><g id="Layer_2-8" data-name="Layer 2"><g id="Layer_1-2-8" data-name="Layer 1-2"><path class="cls-1" d="M215.5,485.71a.82.82,0,0,0-.2-.58h0a.82.82,0,0,0-1.16,0h0l-27.49,27.45-.81-.11a2.44,2.44,0,0,0-2.08.68l-8.68,8.68-10.64-10.65a2.47,2.47,0,0,0-3.49,0L97.3,574.8l-2.38-2.41a2.46,2.46,0,0,0-3.48,0h0a2.45,2.45,0,0,0,0,3.48h0l14.8,14.8L81.05,615.89l-8.54-8.54a2.48,2.48,0,0,0-3.5,0,2.43,2.43,0,0,0,0,3.44l20.57,20.56a2.52,2.52,0,0,0,3.48,0,2.47,2.47,0,0,0,0-3.49l-8.54-8.54,25.19-25.18L124.52,609a2.51,2.51,0,0,0,3.49,0,2.45,2.45,0,0,0,.72-1.74,2.48,2.48,0,0,0-.73-1.74l-2.41-2.41,63.62-63.62a2.45,2.45,0,0,0,.72-1.74,2.55,2.55,0,0,0-.72-1.75l-10.64-10.64,8.67-8.68a2.42,2.42,0,0,0,.69-2.08l-.12-.81,27.49-27.45A.79.79,0,0,0,215.5,485.71Zm-31.52,52-61.87,61.86-21.29-21.29L115,564.12l10.64,10.64a.75.75,0,0,0,.58.24.78.78,0,0,0,.58-.24.81.81,0,0,0,0-1.14v0L116.15,563l8.15-8.18L135,565.42a.78.78,0,0,0,.58.24.83.83,0,0,0,.58-.25.81.81,0,0,0,0-1.15h0L125.5,553.61l8.18-8.18,10.62,10.64a.83.83,0,0,0,1.18,0,.85.85,0,0,0,0-1.18l-10.64-10.62,8.18-8.18,10.64,10.64a.82.82,0,0,0,1.16,0,.81.81,0,0,0,0-1.15h0l-10.64-10.68,18.51-18.48Z"/></g></g><path class="cls-1" d="M110,71.44c.88,1.3,2.69-1.18,3.52.38-2.51.43-4.85,3.34-1.79,4.9a3.19,3.19,0,0,0,3.69-4.9,3.1,3.1,0,0,0-.84,2c-1.29,3.87-5.42-.28-.79-.7a4.65,4.65,0,0,0,1.38-1.87,2.5,2.5,0,0,0-2.49-1.58C111.78,69.77,109.08,70.18,110,71.44Z"/><path class="cls-1" d="M109.47,78.17c2.27-2.42-.63-6.59-1.71-8.82-1.89.32-1.13,1.93-.6,3.13l0,0C100.61,72.45,104.69,82.37,109.47,78.17Zm-1.79-.87c-1.76.71-3.08-2.42-1.25-3.11S109.49,76.61,107.68,77.3Z"/><path class="cls-1" d="M125.19,84a3.05,3.05,0,0,0,2-2.49c-1.81-1-2.62,2.42-4.42.6,3.13-.64,4.91-3.66,1-4.61C118.4,77.45,120.51,85.81,125.19,84Zm-2.93-3.5c-.1-2.24,4-1.12.83-.1h0C122.84,80.41,122.32,80.86,122.26,80.47Z"/><path class="cls-1" d="M115.88,71.05a2.56,2.56,0,0,0,1.53-1.66l0,0a2.54,2.54,0,0,1-1.64,2.19c-.06,4.58,8.12,3.19,6.27-1.43,1.34,3.22,6.83,2.11,6.35-1.48-.42-2.17-1.59-4.15-2.34-6.23-.16-.33-.64.12-.91.15-1.3.6-.13,2,.08,2.91a3.15,3.15,0,0,0-3.42,3.92c-.84-1.41-1.14-3.58-2.15-4.71-1.9.32-1.19,2-.62,3.17-1.79-.14-3.79,1.32-3.47,3.24Zm7.85-3.1c.8-1.76,3.17-.44,2.91,1.19C126.2,71.59,122.88,69.94,123.73,68Zm-5.44,1.65c1.77-.79,3.17,2.41,1.29,3.09S116.53,70.3,118.29,69.6Z"/><path class="cls-1" d="M117.32,82.41c1.61-1,1.88,1.76,2.46,2.71.3.84,1.71.51,2,0-.6-2.39-3.19-7.29-5.35-3.32h-.09c-.37-1.22-1-2.66-2.5-1.76.13,1.91,1.72,4.28,2.35,6.31a.94.94,0,0,0,1.14.59C119.88,86.59,116,83.7,117.32,82.41Z"/><path class="cls-1" d="M128.9,76.92c1-.25,2.13.33,2.62-1a3.15,3.15,0,0,0-3.75-.21c-5.15,3.73,3.62,9.86,5.16,3.55-1.49-.7-1.69.65-2.86,1C128.12,80.92,127,77.6,128.9,76.92Z"/><path class="cls-1" d="M114.55,87.81a3.4,3.4,0,0,0,1.08-2.07c-.84-.24-1.75-.37-2.13.59a2.19,2.19,0,0,1-3.35.07,2.24,2.24,0,0,1,1.51-3.84,1.76,1.76,0,0,0,2.3-1C105.12,77.19,106.48,93.19,114.55,87.81Z"/><polygon class="cls-1" points="145.47 152.16 142.16 145.91 141.23 147.7 136.09 144.89 134.36 148.24 139.5 151.04 138.56 152.83 145.47 152.16"/><path class="cls-1" d="M133,73.69c-.35-.86-1.3-.69-2-.37.09,1.86,1.71,4.24,2.32,6.25.27.88,1.82.84,2.13.19-.31-.79-.64-1.57-1-2.35l0,0c1.24.69,3.28,3,4.15.75-3.09-1.79-2.92-1.65-1.71-5-2,.27-2.45,1.86-2.67,3.6h-.05C133.85,75.77,133.47,74.71,133,73.69Z"/><path class="cls-1" d="M113.33,101.41c-.63,2.83,31.09-11,31.53-10.62a1.13,1.13,0,0,0,.67-1.46,1.15,1.15,0,0,0-1.47-.67L114,100A1.12,1.12,0,0,0,113.33,101.41Z"/><path class="cls-1" d="M192.34,190.7,134.42,49.05a3.12,3.12,0,0,0-3.92-1.94L93.78,61.31c-1.24.38-1.68,2-2.42,2.9a1.51,1.51,0,0,0-.16,1c.54.9,26.13,66.71,27.22,67.2.66.79.24,1.73.12,2.61a2.78,2.78,0,0,0,1,2.23c3.09,1.72.43,2.87,1.75,5.11h0a2.2,2.2,0,0,0,.58.67h0c3.09,1.71.43,2.88,1.75,5.11l.08.12a2.33,2.33,0,0,0,.49.55c.42.34,1,.53,1.27,1h0l0,.08c.51.73.17,1.55,0,2.32a2.83,2.83,0,0,0,.41,1.7.63.63,0,0,0,.07.12l.08.12a2.92,2.92,0,0,0,.42.44c.42.34,1,.53,1.27,1,.56.74.24,1.6.08,2.41a2.8,2.8,0,0,0,.41,1.69l.07.12c.44.78,1.48.93,1.87,1.73s.09,1.52,0,2.28a2.82,2.82,0,0,0,1,2.32,5.76,5.76,0,0,0,.51.35h0a2.21,2.21,0,0,1,.76.66c.64.83.11,1.76.07,2.67a2.88,2.88,0,0,0,.81,1.94c.36.37.85.55,1.22.9a2.1,2.1,0,0,1,.37,2.31,2.71,2.71,0,0,0,.34,2.06c.38.77,1.28,1,1.8,1.6h0c.65.79.25,1.72.12,2.6a2.81,2.81,0,0,0,.91,2.18c.72.53,1.65,1,1.68,2,0,.65-.34,1.25-.27,1.9a2.88,2.88,0,0,0,1.06,2c.5.37,1.12.62,1.36,1.23s.06,1.37-.07,2a2.85,2.85,0,0,0,1,2.45c1.26.71,2,1.57,1.41,3.06a2.52,2.52,0,0,0-.06.78,2.81,2.81,0,0,0,1,1.94c.5.41,1.17.64,1.42,1.29s.06,1.37-.07,2a2.82,2.82,0,0,0,1,2.45c1.16.5,1.53,2,2,3h0l.08.13a1.18,1.18,0,0,0,.17.22h0l.05.06h0l.1.09.16.12a.6.6,0,0,0,.11.06,1,1,0,0,0,.79.11c.07,0,36.94-14.37,37-14.39C190.23,195.05,193.76,194,192.34,190.7Zm-39,14.76a7,7,0,0,0-2.54-3.56c-.22-1.07.62-1.7-.08-3.26s-1.63-1.48-2.22-2.42c-.21-1.06.62-1.7-.08-3.25s-1.63-1.49-2.22-2.43c-.21-1.07.61-1.67-.08-3.24s-1.63-1.48-2.22-2.42c-.21-1.06.61-1.68-.07-3.25s-1.64-1.48-2.23-2.41c-.22-1.07.62-1.66-.07-3.24s-1.64-1.49-2.23-2.44c-.2-1,.61-1.69-.07-3.24s-1.62-1.48-2.22-2.42c-.22-1.07.62-1.69-.08-3.25s-1.64-1.48-2.22-2.43c-.21-1,.61-1.72-.07-3.22s-1.65-1.49-2.23-2.45c-.2-1,.61-1.71-.08-3.24s-1.63-1.47-2.22-2.42c-.21-1.05.62-1.7-.07-3.24s-1.64-1.48-2.23-2.43c-.21-1,.62-1.69-.07-3.23s-1.62-1.48-2.22-2.43c-.23-.77.37-1.32.15-2.34l6.17-2.51,1.32-3.49a.8.8,0,0,0-1.48-.58l-1.08,2.84-5.48,2.23c-2.54-2.66-1.84-.63-1.77-4.35l6.22-2.53,1.32-3.49a.8.8,0,0,0-1.48-.59l-1.08,2.85-5.62,2.29c-.48-.26-1.79-3.75-2-4.26l6.61-2.69,1.32-3.49a.79.79,0,0,0-1.48-.58l-1.08,2.84-6,2.43L95.7,64.4l35.52-13.74L188.9,191.73Z"/><path class="cls-1" d="M131.53,66.16v.14l0,0c-1.31-1.21-2.33-3.63-4.34-2.16.9,2,6.27,4.19,3.22,6.09,3.86,3.79,3-5.47,2.66-7.47-.19-.83-1.47-.6-1.79-.08C131.33,63.86,131.44,65,131.53,66.16Z"/><polygon class="cls-1" points="162.5 143.58 160.56 142.9 162.31 137.43 158.69 136.16 156.94 141.63 154.99 140.94 157 147.7 162.5 143.58"/><path class="cls-1" d="M152.44,156.84l-11.74,4.54a2.69,2.69,0,0,0-1.48,3.53l10.91,26.68a2.77,2.77,0,0,0,3.55,1.56c37-15.23,30.36-3.51,16.81-40.35a2.77,2.77,0,0,0-3.54-1.57l-11.71,4.53a2.71,2.71,0,0,0-3.23-3.93C149.64,152.66,150.06,156.34,152.44,156.84Zm-11.74,7.48a1.1,1.1,0,0,1,.59-1.45l9.35-3.62-5.08,17Zm12.39,27.34a1.16,1.16,0,0,1-1.48-.66l-4.69-11.47,15.43,8.55Zm26.84-11.59a1.08,1.08,0,0,1-.6,1.44l-9.4,3.64,5.24-16.72Zm-12.39-27.35a1.17,1.17,0,0,1,1.48.67l4.91,12-15.82-9Zm-11,4.24,17.68,10.09-5.85,18.69-4.5,1.74-17.47-9.68,5.72-19.13Z"/><path class="cls-1" d="M130.29,100.06a1.14,1.14,0,0,0,1.46.67l14.79-5.51a1.14,1.14,0,1,0-.79-2.13L131,98.6A1.13,1.13,0,0,0,130.29,100.06Z"/><path class="cls-1" d="M126.65,106.07a1.14,1.14,0,0,0,1.46.67l20.16-7.53a1.13,1.13,0,0,0,.66-1.46c.15-2.66-20.88,7.16-21.62,6.86A1.14,1.14,0,0,0,126.65,106.07Z"/><path class="cls-1" d="M607.25,679H71.75A71.84,71.84,0,0,1,0,607.25V71.75A71.84,71.84,0,0,1,71.75,0h535.5A71.84,71.84,0,0,1,679,71.75v535.5A71.84,71.84,0,0,1,607.25,679ZM71.75,20A51.8,51.8,0,0,0,20,71.75v535.5A51.8,51.8,0,0,0,71.75,659h535.5A51.8,51.8,0,0,0,659,607.25V71.75A51.8,51.8,0,0,0,607.25,20Z"/><g id="Layer_2-9" data-name="Layer 2"><g id="Layer_1-2-9" data-name="Layer 1-2"><path class="cls-1" d="M336.07,311.6a11.34,11.34,0,0,1-6,3.85,13.71,13.71,0,0,1-4.32.31,4.64,4.64,0,0,1,.31-1.39,12.35,12.35,0,0,1,8.32-7.08,15.45,15.45,0,0,1,9.85.46c.31.16.61.16.92.31V301.9a7.28,7.28,0,0,1,.16-1.85,4.12,4.12,0,0,1,4-3.54h3.54c.62,0,.77.16.77.77v20.48a2.69,2.69,0,0,0,.15,1.08,6.2,6.2,0,0,1,.16-.77,14.23,14.23,0,0,1,3.69-7.24,14.06,14.06,0,0,1,7.08-3.54,15,15,0,0,1,8.63.92c.15.16.46.16.77.31,0-.31.15-.61.15-1.08v-6.31c.31-2.62,2.15-4.62,4.62-4.62h3.23c.62,0,.77.16.77.77v22.48a27.06,27.06,0,0,1-.77,6.16,12.21,12.21,0,0,1-6.16,7.85,19.21,19.21,0,0,1-4.77,1.54,15.86,15.86,0,0,1-8.47-.92,13.24,13.24,0,0,1-8.46-11.55,2.19,2.19,0,0,0-.31-.92l-.46,2.3a14.86,14.86,0,0,1-3.85,7.55,13,13,0,0,1-6.78,3.39,10.6,10.6,0,0,1-2.15.3,15.75,15.75,0,0,1-10.47-2.92,13.58,13.58,0,0,1-5.08-8.93,22.29,22.29,0,0,1,0-4.62c.15-.77.15-.92.92-.92a7.24,7.24,0,0,1,1.85-.16A9.42,9.42,0,0,0,335,313.6c.46-.61.93-1.23,1.23-1.69Zm9.85,9.55c-.15-.93-.31-1.85-.46-2.62a6.24,6.24,0,0,0-6-4.62,5.78,5.78,0,0,0-5.85,4.16,8.48,8.48,0,0,0,0,6.15,4.54,4.54,0,0,0,1.84,2.62,5.92,5.92,0,0,0,5.24,1.23,5.38,5.38,0,0,0,3.85-2.61A7.57,7.57,0,0,0,345.92,321.15Zm16.17-.16c.15.93.31,1.85.46,2.62a5.73,5.73,0,0,0,5.54,4.46,6.16,6.16,0,0,0,5.85-3.23,8.58,8.58,0,0,0,.77-5.23,7,7,0,0,0-2-4.16,6.09,6.09,0,0,0-8.62.15A8.64,8.64,0,0,0,362.09,321Z"/><path class="cls-1" d="M289.11,308.21v-6.92a4.76,4.76,0,0,1,4.47-4.78h3.08c.77,0,.77.16.77.77v15.86c0,1.08.15,2.31.15,3.39a31.74,31.74,0,0,1-.77,8.62,12.42,12.42,0,0,1-3.08,6,11,11,0,0,1-4.77,3.08,16.7,16.7,0,0,1-12.78-.46,12.94,12.94,0,0,1-7.54-10.16,18.49,18.49,0,0,1,1.08-8.62,12.84,12.84,0,0,1,7.85-7.39,15.84,15.84,0,0,1,10,0l1.39.46A.15.15,0,0,0,289.11,308.21Zm.47,12.94v-1.08a6.31,6.31,0,0,0-6.32-6.16,2.65,2.65,0,0,0-1.07.15,5.56,5.56,0,0,0-3.7,2.31A7.83,7.83,0,0,0,277,321.3a8.29,8.29,0,0,0,.93,3.85,6.25,6.25,0,0,0,7.85,2.77,6.37,6.37,0,0,0,3.08-2.93,7.26,7.26,0,0,0,.77-3.84Z"/><path class="cls-1" d="M301.58,355.17c-1.54.77-2.92,1.69-4.46,2.46a3.57,3.57,0,0,1-3.85-.61,14.1,14.1,0,0,0-2.62-1.54A10,10,0,0,0,280,357.79a9.4,9.4,0,0,0-2.31,4.61,10,10,0,0,0,.46,6,8.52,8.52,0,0,0,6.93,5.85,10.28,10.28,0,0,0,6.77-.92,15.74,15.74,0,0,0,1.7-1.08,3.23,3.23,0,0,1,3.85-.31c1.23.62,2.61,1.54,3.85,2.16.15,0,.15.15.3.3s-.15.31-.3.47a16.07,16.07,0,0,1-7.7,6.15,17,17,0,0,1-7.85,1.08,17.61,17.61,0,0,1-10.93-4.77A16.69,16.69,0,0,1,269.87,367a18.48,18.48,0,0,1,2.46-11.7,15.84,15.84,0,0,1,7.7-6.46,17.56,17.56,0,0,1,13.39-.31,16.45,16.45,0,0,1,7.86,6.16C301.43,354.71,301.43,354.86,301.58,355.17Z"/><path class="cls-1" d="M336.69,370.72c.15.31.15.61.3.92a6.06,6.06,0,0,0,3.54,2.93,8.09,8.09,0,0,0,6-.16,12.53,12.53,0,0,0,1.54-.92,3.48,3.48,0,0,1,4-.31c1.08.62,2.16,1.23,3.08,1.85l.31.31c-.16.3-.31.46-.46.77a12.49,12.49,0,0,1-7.55,5.54A14.48,14.48,0,0,1,334.07,379a12.41,12.41,0,0,1-4.77-7.39,15.34,15.34,0,0,1,2.3-13.39A13.23,13.23,0,0,1,342.07,353a11.71,11.71,0,0,1,6,1.08,9.61,9.61,0,0,1,6,8,10.93,10.93,0,0,1,0,3.23,5.85,5.85,0,0,1-3.54,4.46,12.54,12.54,0,0,1-4.62,1.08,72.37,72.37,0,0,1-8.16.16A1.28,1.28,0,0,0,336.69,370.72Zm4.15-6.31h2.62a9.58,9.58,0,0,0,2.92-.47,1.26,1.26,0,0,0,1.08-1.54.78.78,0,0,0-.31-.61,4.13,4.13,0,0,0-1.23-1.08,5.64,5.64,0,0,0-4.46-.61,5,5,0,0,0-4.16,3.38c-.31.77-.15.93.62.93Z"/><path class="cls-1" d="M311.59,359.94c.15-.15.15-.31.31-.46a5.44,5.44,0,0,1,3.08-2.16,9.93,9.93,0,0,1,7.85.47,9,9,0,0,1,4.16,4.77,11.09,11.09,0,0,1,.92,4.46v14.63a.4.4,0,0,1-.46.46h-.16a27,27,0,0,1-4.92-.15,3.63,3.63,0,0,1-2.93-3.54v-8.93a18.22,18.22,0,0,0-.31-2.93,3.14,3.14,0,0,0-3.54-2.92h-.15c-.46,0-.92.15-1.39.15a3.22,3.22,0,0,0-2.31,2.31,15.47,15.47,0,0,0-.3,2.62V381.5c0,.46-.16.61-.62.61a38.65,38.65,0,0,1-4.16-.15A4.06,4.06,0,0,1,303,377.8V350.24c0-1.38,0-1.38,1.39-1.23a19.75,19.75,0,0,1,3.07.16,4.28,4.28,0,0,1,3.85,4.61v6.32Z"/><path class="cls-1" d="M316.21,315.3a3.65,3.65,0,0,0-1.69-2.93,8.2,8.2,0,0,0-4.31-1.08c-1.24,0-2.62.16-3.85.16a3.77,3.77,0,0,1-2.31-.77,3.7,3.7,0,0,1-1.39-2.31,13.66,13.66,0,0,1-.15-2.47c0-.61.15-.77.77-.92,1.54-.31,3.08-.46,4.46-.62a29.5,29.5,0,0,1,8.93.93,9.76,9.76,0,0,1,6.93,7.08,21.82,21.82,0,0,1,.46,3.08c.15.62,0,.77-.61,1.08a9.78,9.78,0,0,0-3.85,2.31,13.79,13.79,0,0,1-1.85,1.23,4,4,0,0,1-3.7.61c-.46-.15-.92-.3-1.54-.46a8.64,8.64,0,0,0-6.46.77,5.73,5.73,0,0,0-1.85,2,3.27,3.27,0,0,0,.46,3.7,7.36,7.36,0,0,0,6.78,2.15,9.57,9.57,0,0,0,6-4c.77-1.23,1.54-2.31,2.46-3.54a14.15,14.15,0,0,1,3.24-2.77,2.1,2.1,0,0,1,.92-.31c0,.15.15.31.15.62a28.39,28.39,0,0,1-.46,7.23,10.48,10.48,0,0,1-6.31,8.16,15.33,15.33,0,0,1-5.85,1.23,19.77,19.77,0,0,1-6-.61,12.17,12.17,0,0,1-4.78-2.62,7.82,7.82,0,0,1-2.61-4.31,11.36,11.36,0,0,1,.3-6.77,7.84,7.84,0,0,1,4.16-4.16,13.56,13.56,0,0,1,4.93-1.23c1.69-.16,3.23-.16,4.92-.16h3.08C315.59,315.45,315.9,315.45,316.21,315.3Z"/><path class="cls-1" d="M392.42,370.26v10.93c0,.46-.16.61-.62.61a35.57,35.57,0,0,1-4-.15,4.6,4.6,0,0,1-3.7-4.47V350.09c0-1.54,0-1.54,1.54-1.39a16,16,0,0,1,2.77.16,4.48,4.48,0,0,1,4.16,4.31v14.32h.15c.16-.31.47-.47.62-.77a69.17,69.17,0,0,1,4.93-6.78,18.79,18.79,0,0,1,1.69-1.85,3.26,3.26,0,0,1,2-.77,18.16,18.16,0,0,1,2.93-.15h3.85a2.34,2.34,0,0,1,.92.15c-.62.77-1.08,1.24-1.54,1.85-2.46,2.93-5.08,5.85-7.24,8.93-.46.62-.46.62,0,1.23,2,2.77,4,5.55,6,8.47.46.77,1.08,1.39,1.54,2.16,0,.15,0,.15-.16.3a19.64,19.64,0,0,1-3.08,1.85,4.22,4.22,0,0,1-4.77-.92,10.85,10.85,0,0,1-1.69-2l-5.54-7.86c-.16-.3-.31-.46-.47-.77Z"/><path class="cls-1" d="M384.41,305.75h5.39a3.53,3.53,0,0,1,3.69,2.46c.77,1.85,1.54,3.85,2.16,5.7.77,2,1.54,4.16,2.31,6.16a7.27,7.27,0,0,1,.46,1.08h.15c.16-.16.16-.31.31-.62,1.54-4.62,2.93-9.08,4.31-13.7,0-.16.16-.46.16-.62a.69.69,0,0,1,.77-.61h3.54a3.1,3.1,0,0,1,2.77,3.69v.16a3,3,0,0,1-.31,1.07c-1.23,3.7-2.46,7.39-3.69,10.93s-2.47,6.93-3.85,10.47a19.88,19.88,0,0,1-3.39,5.85,8.34,8.34,0,0,1-6.31,3.08,5.47,5.47,0,0,1-4.47-1.69,4.59,4.59,0,0,1-1.23-4.16.41.41,0,0,1,.46-.46c.47,0,.93-.15,1.24-.15a6.43,6.43,0,0,0,3.69-1.39,4.78,4.78,0,0,0,1.54-2.31,1.35,1.35,0,0,0,0-1.08q-1.85-3.92-3.7-7.85c-1.69-3.69-3.23-7.39-4.61-11.24l-1.39-3.69C384.72,306.67,384.56,306.37,384.41,305.75Z"/><path class="cls-1" d="M382.72,375.18a14.1,14.1,0,0,1-3.08,3.7,15,15,0,0,1-18.32.15,14.31,14.31,0,0,1-5.39-9.54,14.48,14.48,0,0,1,.77-7.24A13.73,13.73,0,0,1,367.78,353a14.42,14.42,0,0,1,8.78.93,13.72,13.72,0,0,1,6,5.08.46.46,0,0,1,.16.31v.3a13.55,13.55,0,0,1-4.16,2.31,3.14,3.14,0,0,1-3.08-.61,8,8,0,0,0-3.54-1.54,7.42,7.42,0,0,0-8.62,5.54,6.1,6.1,0,0,0-.16,1.69,9.27,9.27,0,0,0,1.08,4.62,6.72,6.72,0,0,0,5.39,3.24,19,19,0,0,0,2.93-.16,5.66,5.66,0,0,0,2.77-1.23,3.52,3.52,0,0,1,4.62-.31c.77.46,1.69.93,2.46,1.39A.76.76,0,0,0,382.72,375.18Z"/></g></g></g></g></svg>