<?xml version="1.0" encoding="utf-8"?>
<!-- Generator: Adobe Illustrator 25.0.1, SVG Export Plug-In . SVG Version: 6.00 Build 0)  -->
<svg version="1.1" id="Layer_1" xmlns="http://www.w3.org/2000/svg" xmlns:xlink="http://www.w3.org/1999/xlink" x="0px" y="0px"
	 viewBox="0 0 906.5 1090.6" style="enable-background:new 0 0 906.5 1090.6;" xml:space="preserve">
<style type="text/css">
	.st0{fill:#99D8D8;}
	.st1{fill:#58BFBF;}
	.st2{fill:#6EC7C7;}
	.st3{fill:#FF4081;}
	.st4{fill:#DE3A78;}
	.st5{fill:#B02C59;}
	.st6{fill:#35D9B0;}
	.st7{fill:#1F8067;}
	.st8{fill:#29A888;}
	.st9{fill:#FEFEFE;}
	.st10{fill:#668ED6;}
	.st11{fill:#91B9FF;}
	.st12{fill:#16607C;}
	.st13{fill:#ED1C24;}
	.st14{fill:#7D9FDC;}
	.st15{fill:#EFC8A8;}
	.st16{fill:#8A613B;}
	.st17{fill:#DCDCDB;}
	.st18{fill:#E3E3E2;}
	.st19{fill:#7A4B20;}
	.st20{fill:#EDA76A;}
	.st21{fill:#F0B37F;}
	.st22{fill:#AF7C44;}
	.st23{fill:#DE600C;}
	.st24{fill:#0F5B78;}
	.st25{fill:#EFC8A7;}
	.st26{fill:#30C39E;}
	.st27{fill:#4382E9;}
	.st28{fill:#FAFAFA;}
	.st29{fill:#E9B488;}
	.st30{fill:#031E6C;}
	.st31{fill:#A78264;}
	.st32{fill:#656356;}
	.st33{fill:#835830;}
	.st34{fill:#E8F9FF;}
	.st35{fill:#73D9FE;}
	.st36{fill:#F8F8F8;}
	.st37{fill:#EFA6FF;}
	.st38{fill:#4367C7;}
	.st39{fill:#FEFBF0;}
</style>
<polygon class="st0" points="906.5,717.3 852.2,748.9 797.5,717.3 851.8,685.8 "/>
<polygon class="st1" points="906.5,717.3 906,749.3 851.7,780.9 852.2,748.9 "/>
<polygon class="st2" points="852.2,748.9 851.7,780.9 797,749.3 797.5,717.3 "/>
<polygon class="st3" points="158.7,631.4 104.3,663 49.7,631.4 104,599.8 "/>
<polygon class="st4" points="158.7,631.4 158.1,725.9 103.8,757.4 104.3,663 "/>
<polygon class="st5" points="104.3,663 103.8,757.4 49.1,725.9 49.7,631.4 "/>
<polygon class="st6" points="164.2,940.1 82.8,987.4 0.8,940.1 82.2,892.8 "/>
<polygon class="st7" points="164.2,940.1 163.4,963.8 82,1011.1 82.8,987.4 "/>
<polygon class="st8" points="82.8,987.4 82,1011.1 0,963.8 0.8,940.1 "/>
<g>
	<polygon class="st9" points="489.9,919.6 400,971.8 230.7,874.1 320.6,821.8 	"/>
	<polygon class="st10" points="489.9,919.6 489.9,929.8 400,982 400,971.8 	"/>
	<polygon class="st11" points="400,971.8 400,982 230.7,884.3 230.7,874.1 	"/>
</g>
<polygon class="st11" points="437,907.6 433.5,909.6 319.3,843.7 322.8,841.6 "/>
<g>
	<polygon class="st11" points="363.1,915.1 359.5,917.1 279.1,870.7 282.6,868.7 	"/>
	<polygon class="st11" points="423.7,919.1 420.2,921.1 305.9,855.1 309.5,853.1 	"/>
	<polygon class="st11" points="356.1,919.2 352.6,921.2 272.1,874.8 275.6,872.7 	"/>
	<polygon class="st11" points="409.6,927.3 406,929.3 291.8,863.4 295.3,861.3 	"/>
</g>
<g>
	<polygon class="st9" points="471.1,112.9 471.3,175.2 246.6,305 246.5,242.7 	"/>
	<polygon class="st3" points="246.6,305 239.8,301.1 239.7,238.8 246.5,242.7 	"/>
	<polygon class="st3" points="246.5,242.7 239.7,238.8 464.3,108.9 471.1,112.9 	"/>
</g>
<polygon class="st3" points="453.3,157.5 453.3,162.9 264.5,271.9 264.5,266.5 "/>
<polygon class="st3" points="453.3,170.5 453.3,175.9 264.5,285 264.5,279.6 "/>
<polygon class="st3" points="453.2,135.1 453.3,144.5 264.4,253.5 264.4,244.1 "/>
<g>
	<polygon class="st9" points="471.1,21.2 471.3,83.5 246.6,213.4 246.5,151.1 	"/>
	<polygon class="st3" points="246.6,213.4 239.8,209.4 239.7,147.1 246.5,151.1 	"/>
	<polygon class="st3" points="246.5,151.1 239.7,147.1 464.3,17.3 471.1,21.2 	"/>
</g>
<polygon class="st3" points="453.3,65.8 453.3,71.2 264.5,180.3 264.5,174.9 "/>
<polygon class="st3" points="453.3,78.9 453.3,84.3 264.5,193.3 264.5,187.9 "/>
<polygon class="st3" points="453.2,43.5 453.3,52.8 264.4,161.9 264.4,152.5 "/>
<path class="st12" d="M178.5,457.3c-4-0.4-8-1.2-11.8-2.5c-5-1.8-10.4-1.4-11.4,0s5,11.1,14.3,13.2l9.3,2.1v2.9
	c2.8,0.6,5.6,0.6,8.4,0c2.7-0.7,4.9-2.7,5.8-5.4l1.1-5L178.5,457.3z"/>
<polygon class="st5" points="403.7,401.7 402.9,686.9 318.5,638.2 319.3,353 "/>
<polygon class="st4" points="496.6,347.6 495.8,632.9 402.9,686.9 403.7,401.7 "/>
<polygon class="st5" points="608.6,412.3 607.8,697.5 495.8,632.9 496.6,347.6 "/>
<polygon class="st4" points="683.9,466.4 600.1,515.1 599.3,800.3 683.1,751.6 776.1,697.6 776.9,412.3 "/>
<polygon class="st7" points="356.5,539.5 355.6,824.7 532.5,721.9 533.3,436.7 "/>
<polygon class="st3" points="776.9,412.3 683.9,466.4 600.1,515.1 515.7,466.4 608.6,412.3 496.6,347.6 403.7,401.7 319.3,353 
	403.1,304.2 496.1,250.2 589.7,304.2 683.3,358.3 "/>
<polygon class="st13" points="600.1,515.1 599.3,800.3 514.8,751.6 515.7,466.4 "/>
<polygon class="st6" points="533.3,436.7 356.5,539.5 272,490.7 178.4,436.7 262.3,388 365.1,447.3 458.1,393.3 "/>
<polygon class="st8" points="272,490.7 178.4,436.7 177.6,721.9 271.2,776 355.6,824.7 356.5,539.5 "/>
<polygon class="st11" points="600.1,515.1 516.2,563.8 431.8,515.1 515.7,466.4 "/>
<polygon class="st10" points="600.1,515.1 599.3,800.3 515.4,849.1 516.2,563.8 "/>
<polygon class="st14" points="516.2,563.8 515.4,849.1 431,800.3 431.8,515.1 "/>
<path class="st15" d="M247.7,668.4c1.8-2.4,3.5-5,4.9-7.7c1.7-3.4,2.7-5.1,3.4-4.8s0.7,2.4,0.7,2.4c1.2-1,2.3-2.1,3.4-3.3
	c1.2-1.4,2.4-2.8,2.4-2.8s1.9-0.5,3.9,3.9s1,9.1,0,10s-10.2,8.7-15.5,8.9S247.7,668.4,247.7,668.4z"/>
<path class="st15" d="M222.4,658.2c2.6-1.5,5.4-2.8,8.2-4c3.6-1.3,5.4-2.1,5.1-2.8s-2.3-1-2.3-1c1.2-1.1,2.4-2.1,3.7-3
	c1.6-1,3.1-2,3.1-2s0.7-1.8-3.4-4.4s-8.9-2.1-9.9-1.2s-9.9,9.1-10.7,14.3S222.4,658.2,222.4,658.2z"/>
<path class="st16" d="M184.6,835.8c0,0,2.2,0.7,6.8-1s6.8-2.7,9.7-2.2s1.2,3.6,0,5.1c0,0-8,8.7-19.7,10.9c0,0,0.5,1-0.9,2.4
	s-14.1,3.7-14.8-2.6C166.8,848.5,183.4,840.7,184.6,835.8z"/>
<path class="st16" d="M125.6,824.2c0,0,2.6-1.9,4.6-1.7s1.4,3.9,1.4,7.1s-4.9,9-7.7,11s-6.1,7.3-6.1,7.3s-5.4,6.8-10.5,2.9
	C107.2,850.9,125.2,831.5,125.6,824.2z"/>
<path class="st17" d="M186.8,786.1c-8.5-10.7-20.7-20.2-20.7-20.2l-4.3-1.2c0,0-12.7-1.8-16.5,2.4c-3.8-6.4-11.9-13.1-17.8-8.8
	c0,0-6.8,26.7-9.9,34.7s-11,39.5-11.7,41.8s-2.4,8.3-1.9,11.6c0.3,1.9,1.5,3.6,3.2,4.6c0,0,4.4-0.2,9.2-5.5s9.2-13.9,9.2-13.9
	s2.5-12.8,4.8-17.9c2-4.6,13.4-28,16.4-37.2c6.9,11.3,25.3,28.7,25.3,28.7c-5.1,17-6.3,43.2-6.3,43.2c13.6,3.1,20.9-7.8,20.9-7.8
	s1-13.6,2.7-20.1s5.6-19.7,5.6-19.7S195.3,796.8,186.8,786.1z"/>
<path class="st18" d="M200.9,669.4l23.2-11l-5.8-11.2l-18.9,7.8C199.4,655,192,661.9,200.9,669.4z"/>
<path class="st17" d="M175.9,663.7c-3,0.1-5.9,1-8.5,2.5c-4.3,2.6-24.3,17.9-33.7,51.9s-6.3,40.1-6.3,40.1s7,6.1,13.3,11.1
	s8.8,5.6,8.8,5.6s11.1-4.4,16.5-9c0,0-0.7-22.6,1.9-29.4s9.9-16.5,15-29.1c3.1-7.5,4.3-15.6,3.7-23.6
	C186.6,683.8,176.3,671.3,175.9,663.7z"/>
<path class="st18" d="M183.4,688.7c0,0-5.4,0.2-8,6.8s1,10.9,5.4,11.9s27-5.3,45.8-14.3s27.4-17.4,27.4-17.4l-5.6-10.9
	C248.4,664.8,209.9,686.3,183.4,688.7z"/>
<path class="st15" d="M205.8,651.3v16.5c0,0-1.4,9.3-12.5,9.1l-6.7,6.8c0,0-9-4.7-9.8-12.5s10.3-19.4,10.3-19.4
	S201.7,644.9,205.8,651.3z"/>
<path class="st19" d="M176.9,671.3c-3.4-3.8-4.4-11.5-4-16.8s3.7-14.4,13.3-16.8c6.4-1.8,13.2,0.5,17.3,5.8c1.7,2.4,5.3,3,5.3,3
	c0.6,2-0.5,4.1-2.4,4.7c-0.2,0.1-0.3,0.1-0.5,0.1c-3.2,0.6-7.8,4-7.8,4c-1,0.9-1.9,1.8-2.8,2.7c-1,1.4-1.5,3.1-1.3,4.9
	C193.9,662.9,187.9,671.7,176.9,671.3z"/>
<polygon class="st20" points="820.8,774.2 772.7,801.6 772.7,791.9 821.8,764.4 "/>
<polygon class="st20" points="778.6,643.7 730.5,671.1 730.5,661.3 779.5,633.8 "/>
<polygon class="st20" points="794.2,687.1 746.2,714.6 746.2,704.8 795.2,677.3 "/>
<polygon class="st20" points="833.7,810.2 785.6,837.6 785.6,827.8 834.6,800.4 "/>
<polygon class="st20" points="744.2,525.1 696.1,552.5 696.1,542.8 745.1,515.3 "/>
<polygon class="st20" points="756.1,564.9 708.1,592.3 708.1,582.6 757.1,555.1 "/>
<polygon class="st20" points="810.2,733.1 762.2,760.5 762.2,750.7 811.2,723.2 "/>
<polygon class="st21" points="729.7,442.2 723.2,437.7 714.3,443 720.6,447.4 "/>
<polygon class="st20" points="714.3,443 834.8,828.6 840.9,830.8 735.8,480.3 720.6,447.4 "/>
<polygon class="st22" points="840.9,830.8 720.6,447.4 729.7,442.2 850,825.5 "/>
<polygon class="st22" points="751.4,523.5 696.1,555 696.1,545.3 745.1,517.8 "/>
<polygon class="st22" points="763.4,563.3 708.1,594.8 708.1,585.1 757.1,557.6 "/>
<polygon class="st20" points="766.6,602.2 718.5,629.6 718.5,619.8 767.5,592.3 "/>
<polygon class="st22" points="773.8,600.5 718.5,632.1 718.5,622.3 767.5,594.8 "/>
<polygon class="st22" points="785.9,642 730.5,673.6 730.5,663.8 779.5,636.3 "/>
<polygon class="st22" points="801.5,685.5 746.2,717.1 746.2,707.3 795.2,679.8 "/>
<polygon class="st22" points="817.5,731.4 762.2,763 762.2,753.2 811.2,725.8 "/>
<polygon class="st22" points="828.1,772.5 772.7,804.1 772.7,794.4 821.8,766.9 "/>
<polygon class="st22" points="840.9,808.5 785.6,840.1 785.6,830.4 834.6,802.9 "/>
<polygon class="st21" points="676.6,471.4 670.2,467 661.2,472.3 667.6,476.6 "/>
<polygon class="st20" points="661.2,472.3 781.8,857.8 787.9,860 682.8,509.5 667.6,476.6 "/>
<polygon class="st22" points="787.9,860 667.6,476.6 676.6,471.4 796.9,854.8 "/>
<path class="st23" d="M789.1,723.5c0,0,5.3,2.3,6.3,5.3s0.5,6.8-1.5,8.3s-7.3,2-11.3,4.5s-7.5,7.3-10.8,8s-9.8-1.8-8.3-5
	s10-10,10-10L789.1,723.5z"/>
<path class="st23" d="M820,779.7c0.2,2.5,0.2,5,0,7.5c-0.3,4-2.8,5-8,3.8s-5-6.5-10.8-8.8s-9-0.5-10.8-2.5s0.8-4.5,5.5-6.3
	s13.5,0,13.5,0L820,779.7z"/>
<path class="st24" d="M757.8,655.8c11.5,0,34.6,4,34.6,4l16.8,10.5l21.1-3.5c0,0-1.3,15.6-5,27.3s-2.5,30.4-2,35.1
	s0.3,37.9-3.3,50.4c0,0-6.3,3-11,0s-5.5-5-5.5-5s0.8-28.4,0-36.9c-0.6-6.6-4.7-27.8-5.8-42.6c-12.6,0.2-25.3-9.6-25.3-9.6
	s11.1,22.3,13.5,26.8s5.3,11.5,5.3,11.5s-9,9.6-18.8,10.9c0,0-10.8-24.6-16.8-35.4s-14.3-25.6-14-32.6S746.2,655.8,757.8,655.8z"/>
<path class="st25" d="M777.8,591.5l-2.4-2.5c0,0-8.2-0.7-11.1,0s-11.8,3.4-12,7.9s2.4,2.4,6.9,0s5.5-0.7,5.9,0s2.1,4.3,0,6.1
	s-2.8,1.1-3.7,3.7s2.7,0.8,6.2-2.7c2.4-2.3,5-4.4,7.8-6.3L777.8,591.5z"/>
<path class="st26" d="M794.7,584c0,0-16.6,2.3-19.6,4.5v9.8c0,0,15.4,0.8,19.6,3s7.2-8.7,7.2-8.7L794.7,584z"/>
<path class="st25" d="M796.4,562.2c0,0-7.2,4.2-8.7,7.2s0,13.2,2.3,14.7s1.7,7.9,1.8,12.5c0,0,7.7,2.3,13.3,0s6.8-9.8,6.8-9.8
	L796.4,562.2z"/>
<path class="st26" d="M815,583c0,0,9,2,13.8,6.5s3.8,19.3,1.5,24.6s-1.3,47.9,0,52.7c0,0-4,10-12.8,13.3s-18.8,4-26.3,0
	s-8.3-10-8.3-10s1.8-17.1,1-27.8s-8.3-30.6,0.8-39.4s15.8-11.5,15.8-11.5S810.5,590.7,815,583z"/>
<path class="st25" d="M726.9,618.4l-1.5-5.5c0,0-1.5-5-4-6.8s-1.5,0.5-4.8,2.4s-8.3,2.9-11.5,1.4s-4.3,0-2.8,4s2.8,14,23.1,9
	L726.9,618.4z"/>
<path class="st26" d="M783.6,610.1c0,0-2-3.8-9.3,0s-13,15-24.6,13.3s-24.3-10.5-24.3-10.5s-7.3,5.8-2.3,12.5
	c7.1,9.2,17.8,15,29.3,15.8C771.8,642.5,792.6,622.9,783.6,610.1z"/>
<path class="st19" d="M794.9,568.5c-0.8-4,1-8,4.6-10c6.2-3.5,12.7,5.3,16.2,8s5.3,12.8,2.8,17.3s-5.3,7-11.3,7.5s-9.5-6.3-9.3-10.3
	S794.9,568.5,794.9,568.5z"/>
<path class="st19" d="M226.5,314.1l-3-4.6c0,0-2.3,3.7-4.6-2s1.9-7.9,4.6-11s17.5-12.2,24-8.8s10.3,10.7,9.9,16.4
	s-1.5,17.1-1.5,17.1l-7.7,5.7l-5.7-1.5L226.5,314.1z"/>
<polygon class="st17" points="173.6,386.3 212.2,397.5 231.1,379.2 226.9,368.9 231.1,363.6 212.2,359.4 "/>
<polygon class="st17" points="212.2,321.3 173.6,348.4 173.6,386.3 212.2,359.4 "/>
<polygon class="st27" points="208.6,327.5 177.2,349.4 177.2,380.1 208.6,358.3 "/>
<path class="st12" d="M237.2,388c0,0-26.7,10.3-37,6.9c-5.8,0.3-11.1,3.4-14.1,8.4c-4.9,8.4-7.2,24.8-7.2,30.1c0,0.7,0,1.8-0.1,3.1
	l21.5-12.5c0.2-4.7,1.5-4.7,1.5-4.7s22.5,16.9,39.8,21.8l5.9-49.2L237.2,388z"/>
<path class="st15" d="M223.5,309.5c0,0,3,16,7.2,21.7s13.3,1.5,13.3,1.5v6.1l11.8-4.6v-12.9c0,0-9.1,3-12.6-1.5s-5.3-14.5-8.4-11.8
	s-2.3,5-2.3,5S226.5,314.1,223.5,309.5z"/>
<path class="st15" d="M226.9,366.3l-5-2.7c0,0-7.2-2.3-9.7-1.5s-8.6,2.3-5.9,4.2s3.8,0,5.9,0s1.4,4.2,4,5.1s4.9,2.5,7.2,0
	C224.8,369.9,226,368.2,226.9,366.3z"/>
<path class="st15" d="M196.6,389.9L196.6,389.9c-2.9,0-4.7-3.5-5.8-4.9c-0.5-0.2-1.1-0.3-1.7-0.3c-0.7,0.5-1.1,1.4-1.1,2.2
	c0.2,1-0.2,2.5-0.7,2.5c-0.8-0.1-1.6-0.2-2.3-0.4c-1.5-0.4-2.9-1-4.3-1.8c-1.1-0.7-2.6-0.4-3.4,0.6c0.5,7.9,4.7,8.9,4.7,8.9l0,0
	c1.2,0.6,2.4,1.2,3.7,1.5c7.6,2.4,15.6-1.6,15.6-1.6v-5.3C199.6,391.1,198,390.6,196.6,389.9z"/>
<polygon class="st27" points="231.1,363.6 221.9,363.6 221.9,374.3 226.5,379.2 "/>
<path class="st27" d="M248.6,334.3c0,0-9.9,4.2-14.5,12.2s-7.2,19.8-7.2,19.8l-8.6,20.6c0,0-18.4,0.4-22.6,0l-1.5,13.7
	c0,0,10.7,2.3,19.1,3.8s17.1-1.1,18.3-5s3-4.6,3-4.6s1.1,11.8-2.7,19S228,426,228,426s4.2,13.7,18.3,16.4s32.4-10.3,32.4-10.3
	s1.1-34.3,1.5-47.2s-0.8-41.9-5-48.4s-13-6.9-14.9-6.9S251.6,332.7,248.6,334.3z"/>
<polygon class="st28" points="192.1,853 224.6,870.6 188.5,898.3 156,880.7 "/>
<path class="st29" d="M194,901.3c2.7-0.5,5.3-1.1,7.9-1.9c2.8-1,7.5-5.1,8.1-6.7s1.2-8.1,0-9.5s-5.8,3.5-7.6,5.1l-1.8,1.6
	c0,0,1.4-4.2,1-5.3s-2.5-1.2-4.9,1.4s-8.9,8.4-8.9,8.4L194,901.3z"/>
<path class="st30" d="M151.2,1070.9l1.7,1.1c2.9,0.3,5.7,0.1,8.5-0.6c4.6-1.1,9.7-0.8,8.8,3.4s-8.3,7.7-11.4,9.1s-9.4,3.4-10.2,4.6
	s-2.3,2.8-7.1,1.7s-5-3.1-5-3.1v-17.6L151.2,1070.9z"/>
<path class="st30" d="M123.3,1057.6c0,0,5.7-2.8,7.7-2.6s4.3,3.4,0,8s-6,6.5-7.7,10s-2.8,6-6.8,5.7c-1.1-0.1-2.2-0.4-3.3-0.8
	c-2.5-1-4.1-3.4-4.1-6.1v-9.1l12.2-5.7L123.3,1057.6z"/>
<path class="st31" d="M162.6,961.4l1.3,4.3c0,0-0.5,25.3-4.4,43.5s-6.5,62.9-6.5,62.9s-0.9,4.3-6.3,4.6s-10.8-3.1-10.8-3.1
	s-0.9-26.4,0-42.1s1.8-25-0.4-33c0,0-1.9,17.3-4.7,27.9s-5.4,29-6.5,37c0,0-1.1,5.1-5.4,5.1s-5.7-0.8-8.5-4.3c0,0-1.4-25.3-1.1-36.4
	s6.3-26.5,6.3-26.5s-1.4-40.1-0.8-50.9s19.6-18.5,19.6-18.5L162.6,961.4z"/>
<path class="st29" d="M157.2,823.2v20.8c0,0,0.3,7.1-2.6,8.3c-2,0.6-4.2,0.6-6.3,0v6.3c0,0-8.3,1.7-14.8-3.1v-6.5l10.2-21
	C143.8,827.8,154.3,821.2,157.2,823.2z"/>
<path class="st32" d="M148.4,858.4c0,0,9.1,3.4,14.5,8.5s4.8,14.8,5.4,22.5c0.3,4.3,0.9,8.6,1.7,12.8c0,0,14.8-8.8,16.5-9.4
	c0,0,9.4,2,7.1,11.1c0,0-11.4,8-17.6,12.2s-12,8-15.9,8c0,0,1.4,8,4,17.6s1.7,23,1.7,23s-10.2,5.7-19.3,4.8s-12.8-3.7-12.8-3.7
	l-4.3-17.1v14.2c0,0-10.5-5.1-14.8-12.8c0,0,0.6-15.9,1.7-21.3s-6.6-25.6-8.8-33.6s3.1-33.3,5.4-38.4s11.4-10,20.8-5.4L148.4,858.4z
	"/>
<path class="st33" d="M157.2,823.2c0.2-3.1-1.3-6.1-4-7.7c-4.6-2.8-12.8-3.1-18.5,0s-10,7.7-9.4,17.3s8.3,17.3,8.3,17.3
	s3.1,0.8,9.7-6s8.1-15.7,9.7-18.5C153.7,824.1,155.4,823.1,157.2,823.2z"/>
<polygon class="st2" points="717.1,822.8 707.4,828.5 707.3,857.1 717,851.5 "/>
<polygon class="st2" points="595.8,828.5 586,822.8 586,851.5 595.7,857.2 "/>
<path class="st2" d="M623.7,876.8c0-0.1,0-0.3,0-0.4s0-0.3,0.1-0.4s0-0.2,0.1-0.4s0.1-0.3,0.1-0.4l0.1-0.4c0-0.1,0.1-0.3,0.1-0.4
	s0.1-0.2,0.1-0.4l0.2-0.4c0-0.1,0.1-0.2,0.2-0.4s0.1-0.3,0.2-0.4l0.2-0.3c0.1-0.2,0.2-0.3,0.3-0.5l0.2-0.3c0.1-0.2,0.3-0.4,0.4-0.5
	s0.1-0.2,0.2-0.2c0.2-0.3,0.5-0.6,0.7-0.8l0.2-0.2c0.2-0.2,0.4-0.4,0.6-0.6l0.3-0.3l0.4-0.3l0.4-0.3l0.4-0.3l0.4-0.3
	c0.2-0.1,0.3-0.2,0.5-0.3l0.5-0.3l0.5-0.3l0.6-0.4c0.4-0.2,0.8-0.5,1.3-0.7l0.4-0.2c0.3-0.2,0.7-0.3,1-0.5l0.3-0.2
	c0.5-0.2,0.9-0.4,1.4-0.6l0.3-0.1l1.2-0.4l0.5-0.2l0.7-0.2l0.6-0.2l0.7-0.2l0.6-0.2l0.7-0.2l0.6-0.1l0.7-0.2l0.6-0.1
	c0.5-0.1,1-0.2,1.6-0.3h0.2c0.5-0.1,0.9-0.1,1.4-0.2h0.5l0.9-0.1h0.6h1h0.5h2.8c0.9,0,1.8,0.1,2.7,0.1h0.1c0.9,0.1,1.8,0.2,2.7,0.3
	h0.2c0.4,0,0.8,0.1,1.1,0.2l0.5,0.1l0.9,0.2l0.5,0.1c0.3,0.1,0.6,0.1,0.9,0.2l0.5,0.1l0.8,0.2l0.5,0.1l1.3,0.4l0.2,0.1
	c0.5,0.2,1,0.3,1.5,0.5l0.3,0.1c0.7,0.3,1.3,0.5,1.9,0.8l0.2,0.1c0.6,0.3,1.2,0.6,1.8,1c5.5,3.2,8.3,7.4,8.3,11.5l0.1-28.7
	c0-4.2-2.8-8.4-8.3-11.5c-0.6-0.3-1.2-0.7-1.8-1l-0.2-0.1c-0.6-0.3-1.2-0.6-1.9-0.8l-0.2-0.1h-0.1c-0.5-0.2-1-0.4-1.5-0.5l-0.2-0.1
	l-1.3-0.4l-0.2-0.1l-0.3-0.1l-0.8-0.2l-0.5-0.1l-0.9-0.2L661,834h-0.1l-0.9-0.2l-0.5-0.1c-0.4-0.1-0.8-0.1-1.1-0.2h-0.2l0,0
	c-0.9-0.1-1.8-0.2-2.7-0.3h-0.1c-0.9-0.1-1.8-0.1-2.7-0.1H650h-0.4h-1h-0.6l-0.9,0.1h-0.3h-0.2c-0.5,0-0.9,0.1-1.4,0.2H645
	c-0.5,0.1-1,0.2-1.6,0.3h-0.2l-0.4,0.1l-0.7,0.2l-0.6,0.1l-0.7,0.2l-0.6,0.2l-0.7,0.2l-0.6,0.2l-0.7,0.2L638,835l-0.2,0.1l-0.7,0.2
	l0.1-23.6v-7.9l-0.2,28.6v2.8l-0.5,0.2l-0.3,0.1c-0.5,0.2-0.9,0.4-1.4,0.6l-0.3,0.2l-1,0.5l-0.4,0.2c-0.4,0.2-0.9,0.5-1.3,0.7
	l-0.3,0.2l-0.3,0.2l-0.5,0.3l-0.5,0.3l-0.5,0.3l-0.4,0.3l-0.4,0.3l-0.4,0.3l-0.4,0.4l-0.2,0.1l-0.1,0.1c-0.2,0.2-0.4,0.4-0.6,0.6
	l-0.2,0.2c-0.3,0.3-0.5,0.6-0.7,0.8l0,0c-0.1,0.1-0.1,0.1-0.2,0.2l-0.4,0.5l-0.2,0.3c-0.1,0.2-0.2,0.3-0.3,0.5c0,0,0,0.1-0.1,0.1
	l-0.1,0.2l-0.2,0.4l-0.2,0.4l-0.2,0.4c0,0.1,0,0.1-0.1,0.2l0,0.2l-0.1,0.4c0,0.1-0.1,0.2-0.1,0.4s-0.1,0.3-0.1,0.4l-0.1,0.2
	c0,0,0,0.1,0,0.2s0,0.3-0.1,0.4s0,0.3,0,0.4c0,0.1,0,0.3,0,0.4c0,0.1,0,0.2,0,0.3c0,0.1,0,0.2,0,0.3l-0.1,28.7c0-0.2,0-0.3,0-0.5
	S623.7,876.9,623.7,876.8z"/>
<path class="st2" d="M730.1,857.4h-13.7c-0.2,0.5-0.4,1-0.6,1.5c0,0.1-0.1,0.2-0.1,0.3c-0.2,0.5-0.4,0.9-0.7,1.4
	c-0.1,0.1-0.1,0.2-0.1,0.3c-0.3,0.5-0.5,1-0.8,1.4l0,0c-0.3,0.5-0.6,0.9-0.9,1.3l-0.2,0.3c-0.3,0.5-0.7,0.9-1,1.3l-0.3,0.3
	c-0.3,0.4-0.6,0.7-0.9,1.1l-0.4,0.4c-0.3,0.4-0.7,0.7-1,1.1c-0.1,0.1-0.2,0.2-0.3,0.3c-0.5,0.5-1,0.9-1.5,1.4v11.3l-10.5,6.1
	l-9.7-5.6c-1,0.4-2.1,0.7-3.2,1.1l-1,0.3l-1.7,0.5l-1.1,0.3l-1.8,0.5l-1.1,0.3c-0.7,0.2-1.4,0.3-2.1,0.5l-0.8,0.2
	c-1,0.2-2,0.4-3,0.6c-0.6,0.1-1.2,0.2-1.8,0.3l-0.9,0.2c-0.9,0.1-1.8,0.3-2.7,0.4v7.9h-28.6v-7.9l-2-0.3l-2-0.3l-1.1-0.2l-2.3-0.4
	l-0.7-0.1c-1.1-0.2-2.1-0.5-3.2-0.7l-0.8-0.2l-2.3-0.6l-1-0.3c-0.7-0.2-1.4-0.4-2.1-0.6l-0.9-0.3c-1-0.3-1.9-0.7-2.9-1l-9.7,5.6
	l-10.8-6.2v-11.2c-3-2.6-5.4-5.7-7.4-9.1c-0.6-1-1.1-2.1-1.5-3.2h-13.7l-0.1-16.6l-0.1,28.7l0.1,16.6h13V904l20.3,11.7l9.7-5.6
	c0.9,0.3,1.9,0.7,2.9,1l0.9,0.3l2,0.6l0.5,0.2l0.5,0.1c0.8,0.2,1.5,0.4,2.3,0.6l0.8,0.2c1,0.3,2.1,0.5,3.2,0.7h0.1l0.6,0.1
	c0.8,0.2,1.5,0.3,2.3,0.4l1.1,0.2l2,0.3l0.5,0.1l1.5,0.2v7.9h28.6v-7.9c0.9-0.1,1.8-0.2,2.7-0.4l0.9-0.2l1.7-0.3h0.1
	c1-0.2,2-0.4,3-0.6l0.8-0.2l2.1-0.5l1.1-0.3l1.8-0.5l1.1-0.3l1.7-0.5l0.6-0.2l0.4-0.1c1.1-0.3,2.1-0.7,3.2-1.1l9.7,5.6l20.2-11.7
	l0-17.9H730L730.1,857.4z"/>
<path class="st0" d="M716.4,857.3h13.7l-0.1-16.6h-13.7c-1.9-4.7-5-9-8.9-12.3l9.7-5.6l-20.3-11.7l-9.7,5.6
	c-6.9-2.5-14-4.2-21.3-5.1v-7.9h-28.7v7.9c-7.2,0.9-14.3,2.6-21.1,5.1l-9.7-5.6L586,822.8l9.7,5.6c-3.8,3.4-6.8,7.6-8.7,12.3h-13.7
	l0.1,16.6h13.7c2,4.7,5,9,8.9,12.3l-9.6,5.6l20.3,11.7l9.7-5.6c6.9,2.5,14,4.2,21.3,5.1v7.9h28.7v-7.9c7.2-0.9,14.4-2.6,21.2-5.1
	l9.7,5.6l20.2-11.7l-9.7-5.6C711.5,866.3,714.5,862.1,716.4,857.3z M671.5,860.5c-10.9,6.3-28.6,6.3-39.6,0s-11-16.6-0.1-22.9
	s28.6-6.3,39.6,0S682.4,854.2,671.5,860.5L671.5,860.5z"/>
<polygon class="st34" points="438.7,633 439.1,779.8 627.9,670.7 627.5,524 "/>
<polygon class="st35" points="627.6,564.8 438.8,673.8 438.7,633 627.5,524 "/>
<polygon class="st36" points="540.1,643.6 540.1,650.5 459.5,697 459.5,690.2 "/>
<polygon class="st36" points="540.1,659 540.1,665.9 459.5,712.4 459.5,705.6 "/>
<polygon class="st36" points="540.1,674.5 540.1,681.3 459.5,727.8 459.5,721 "/>
<polygon class="st36" points="540.1,689.9 540.1,696.7 459.5,743.2 459.5,736.4 "/>
<polygon class="st3" points="576,638.2 576.1,674.8 569.4,678.6 569.3,642 "/>
<polygon class="st26" points="587.3,604.5 587.5,668.2 581.2,671.8 581,608.1 "/>
<polygon class="st37" points="601.4,606.1 601.5,660.1 594.1,664.4 593.9,610.4 "/>
<polygon class="st38" points="612.4,634 612.5,653.8 605.8,657.6 605.7,637.8 "/>
<g>
	<polygon class="st9" points="800.8,176 800.2,391.6 505.5,221.5 506.1,5.9 	"/>
	<polygon class="st6" points="800.8,176 810.9,170.1 810.3,385.7 800.2,391.6 	"/>
	<polygon class="st6" points="506.1,5.9 516.3,0 810.9,170.1 800.8,176 	"/>
</g>
<g>
	<polygon class="st11" points="585,213.3 584.9,239.7 566.8,229.3 566.9,202.8 	"/>
	<polygon class="st11" points="592.5,244.1 592.6,207 610.8,217.4 610.6,254.6 	"/>
	<polygon class="st11" points="592.6,187.1 610.8,197.6 610.8,214.9 592.6,204.4 	"/>
	<polygon class="st11" points="636.5,251.9 636.3,269.4 618.2,259 618.3,241.4 	"/>
	<polygon class="st11" points="643.9,273.8 644,236.7 662.2,247.1 662.1,284.3 	"/>
	<polygon class="st11" points="644.1,207.7 662.2,218.2 662.2,244.6 644,234.1 	"/>
	<polygon class="st11" points="669.6,288.6 669.7,251.5 687.9,262 687.8,299.1 	"/>
	<polygon class="st11" points="695.3,303.5 695.4,266.3 713.6,276.8 713.5,314 	"/>
	<polygon class="st11" points="669.7,248.9 669.8,211.8 688,222.3 687.9,259.4 	"/>
	<polygon class="st11" points="765.5,344 765.5,346.6 540.5,216.6 540.5,214.1 566.8,229.3 584.9,239.7 592.5,244.1 610.6,254.6 
		618.2,259 636.3,269.4 643.9,273.8 662.1,284.3 669.6,288.6 687.8,299.1 695.3,303.5 713.5,314 721,318.3 739.2,328.8 	"/>
	<polygon class="st11" points="695.5,243.6 713.6,254.1 713.6,274.2 695.4,263.8 	"/>
	<polygon class="st11" points="669.9,194.3 688,204.8 688,219.7 669.8,209.2 	"/>
	<polygon class="st11" points="721,318.3 721.1,281.2 739.3,291.7 739.2,328.8 	"/>
	<polygon class="st11" points="721.2,253.7 739.3,264.2 739.3,289.1 721.1,278.6 	"/>
	<polygon class="st11" points="765.6,304.3 765.6,306.9 739.3,291.7 721.1,281.2 713.6,276.8 695.4,266.3 687.9,262 669.7,251.5 
		662.2,247.1 644,236.7 610.8,217.4 592.6,207 540.6,176.9 540.6,174.4 592.6,204.4 610.8,214.9 644,234.1 662.2,244.6 669.7,248.9 
		687.9,259.4 695.4,263.8 713.6,274.2 721.1,278.6 739.3,289.1 	"/>
	<polygon class="st11" points="680.1,141.8 680.1,146.9 629.2,117.5 629.2,112.4 	"/>
	<polygon class="st11" points="695.8,161.6 695.7,166.6 629.2,128.2 629.2,123.1 	"/>
	<polygon class="st11" points="765.7,264.5 765.7,267.1 688,222.3 669.8,211.8 540.7,137.2 540.7,134.6 669.8,209.2 688,219.7 	"/>
	<polygon class="st11" points="765.8,224.8 765.8,227.4 540.8,97.5 540.8,94.9 	"/>
</g>
<polygon class="st11" points="591.8,90.8 591.8,95.9 540.9,66.5 540.9,61.4 "/>
<polygon class="st11" points="607.4,110.6 607.4,115.7 540.8,77.2 540.9,72.1 "/>
<polygon class="st11" points="570.5,68 570.5,73.2 540.9,56.2 540.9,50.9 "/>
<polygon class="st11" points="658.8,119 658.8,124.2 629.2,107.1 629.2,101.9 "/>
<path class="st15" d="M392.2,185c-8.7-6.1-16.9-13-24.2-20.7c0,0-7.6-0.5-12.3-3.9s-4.6-3.7-5.3-5.3s-1.9-5.8-1.9-5.8
	s-5.6-1.9-7.2-4.4s3-2.3,6.5-0.9s11.6,5.6,11.6,5.6s9.3,3.7,12,5.6s26.4,14.8,26.4,14.8L392.2,185z"/>
<path class="st39" d="M424.6,330.3c0,0-10.1-1-16.1-1.6c0,0-5-0.8-5.4,3.8s2.5,8.1,10.7,12.2l10.7,4.7c0,0,4.1,2.8,7.8,2.8
	s6.6-1.3,6.9-4.1V324L424.6,330.3z"/>
<path class="st39" d="M444.9,316.1c0,0-10.1-1-16.1-1.6c0,0-5-0.8-5.4,3.8s2.5,8.1,10.7,12.2l10.7,4.7c0,0,4.1,2.8,7.8,2.8
	s6.6-1.3,6.9-4.1v-24.2L444.9,316.1z"/>
<path class="st6" d="M413.9,214.8l-3.1-0.6c0,0-0.9,21.4,1.6,37.1s4.1,30.2,7.9,48.2c2.3,10.8,2.9,22,1.9,33c-0.1,3.7,2.4,6.9,6,7.9
	c6.3,1.9,11.3-4.1,11.3-4.1s-0.9-49.4-1.3-55.7s-3.5-17-3.5-17c2.8,5.8,4.8,11.9,6,18.3v39.7c0,0,0.6,5,8.5,6s10.5-6.3,10.5-6.3
	v-33.6c0,0-1.2-10.8-2.5-20.6c-1.1-8.2-1.1-16.6,0.1-24.8c1.6-11.2,3.5-27.2,2.4-36.4C458,205.4,413.9,214.8,413.9,214.8z"/>
<path class="st15" d="M417.4,100.5v12c0,0-1.3,11,5.7,11v9.5h17.3v-10.4L425.6,98l-8.3-2.2L417.4,100.5z"/>
<path class="st33" d="M417.4,100.5c0,0,0.9,0,2.2,1.9c1,1.8,1.7,3.7,2.2,5.7c0,0,1.9-0.3,2.8,2.5l0.9,2.8c0,0,5.4,1.6,6.9,5
	s4.1,4.7,7.9,4.1c0,0,3.8-0.6,6.3-6.6s4.1-14.8-1.6-21.4S436,87,426.8,87S414.2,96.8,417.4,100.5z"/>
<path class="st17" d="M428.8,130.4c0,0-7.4,1.9-17.7,10.7s-18.9,28.6-18.9,28.6s-4.1,7.9-1.9,12.6c0,0,2.5,4.7,6,4.7s10.8-8.2,13-11
	s3.7-4.7,3.7-4.7c0.3,5.2,0.3,10.5,0,15.7c-0.6,6.3-2.2,27.1-2.2,27.1s0.1,14.2,6.5,20.1s16.8,0.3,25-3.1s13.8-9.2,15.7-12.3
	s2.5-18.9,0-27.7s-4.4-19.5-2.5-29.3s6.3-21.4,1.9-31.5S440.8,124.2,428.8,130.4z"/>
<polygon class="st8" points="600.1,478.7 516.2,527.4 431.8,478.7 515.7,429.9 "/>
<polygon class="st6" points="600.1,478.7 599.3,502.1 515.4,550.8 516.2,527.4 "/>
<polygon class="st7" points="516.2,527.4 515.4,550.8 431,502.1 431.8,478.7 "/>
<path class="st34" d="M520.7,470c4,2.1,8.8,2.1,12.9,0c3.5-2.1,3.5-5.4,0-7.5c-4-2.1-8.8-2.1-12.9,0
	C517.1,464.6,517.1,467.9,520.7,470z"/>
<polygon class="st34" points="537.9,504.6 551.9,496.5 550.2,479.6 505.3,479.6 505.7,461.3 476.9,460.9 447.3,478.1 515.6,517.6 
	537.9,504.6 "/>
<polygon class="st11" points="585,983.8 518.5,1022.5 451.6,983.8 518.1,945.2 "/>
<polygon class="st10" points="585,983.8 584.4,1003.2 517.9,1041.8 518.5,1022.5 "/>
<polygon class="st14" points="518.5,1022.5 517.9,1041.8 451,1003.2 451.6,983.8 "/>
<polygon class="st6" points="648,968.4 581.6,1007 514.7,968.4 581.1,929.8 "/>
<polygon class="st7" points="648,968.4 647.4,987.7 580.9,1026.3 581.6,1007 "/>
<polygon class="st8" points="581.6,1007 580.9,1026.3 514,987.7 514.7,968.4 "/>
</svg>
