<?xml version="1.0" encoding="utf-8"?>
<!-- Generator: Adobe Illustrator 25.0.1, SVG Export Plug-In . SVG Version: 6.00 Build 0)  -->
<svg version="1.1" id="Layer_1" xmlns="http://www.w3.org/2000/svg" xmlns:xlink="http://www.w3.org/1999/xlink" x="0px" y="0px"
	 viewBox="0 0 2203.5 2312.7" style="enable-background:new 0 0 2203.5 2312.7;" xml:space="preserve">
<style type="text/css">
	.st0{fill:#383838;}
	.st1{fill:#FFFFFF;}
	.st2{fill:#CCCCCC;}
	.st3{fill:#30C39E;}
	.st4{fill:#9D9D9D;}
	.st5{fill:#F4F4F4;}
	.st6{fill:#858585;}
	.st7{fill:#727272;}
	.st8{fill:url(#SVGID_1_);}
	.st9{fill:#BCBCBC;}
	.st10{fill:#474747;}
</style>
<g id="Layer_1-2">
	<path class="st0" d="M2152.6,656.8l30-53.9l0.1-0.2c4.2-8.5,14.6-31.9,19.3-64.6c3.8-28.1,0.3-34.1-8-40.2c-1.6-1.1-3-2.3-4.3-3.7
		c-5.8-6.5-7.4-12.4-7.8-13.9c1-12.8,0.7-25.7-0.9-38.5v-0.5h-0.1c-6.4-48.1-31.5-82.8-53.8-104.9c-30.3-30-61.5-43.5-62.8-44.1
		l-0.4-0.1c-2.6-0.9-117.9-40.1-261.3-88.9l0,0c3.8-10,10.2-26.7,10.6-43.3c0.6-21.1-8.4-36.4-26.6-45.2c-0.1-0.1-0.2-0.1-0.4-0.2
		c-38.2-15-184.4-62.9-271.8-91.5c-33.6-11-60-19.7-68.5-22.6c-4.1-1.4-8.6,0.5-10.5,4.5L1406,68.6c-40.9-13.8-76.5-25.9-103.8-35.1
		c-42.2-15.7-85.2-20.3-127.8-13.8c-34.1,5.2-68,17.4-100.8,36.4c-55.7,32.3-88.4,72.3-89.8,74c-0.1,0.1-0.2,0.3-0.3,0.4
		L598.4,717.6c-0.1,0.1-0.2,0.3-0.2,0.4c-13.5,25.4-16.1,50.3-7.7,74.2c18.4,52.3,82.7,80.8,86.5,82.5
		c11.7,5.6,744.1,354.7,887.2,424.2c33.7,16.4,66.3,25.4,96.7,26.7c2.7,0.1,5.3,0.2,8,0.2c20.9,0.1,41.5-3.8,60.9-11.6
		c36.2-14.8,53.9-38.4,54.6-39.4c0.1-0.1,0.2-0.3,0.3-0.4c0.8-1.3,79.7-134.4,87.5-147.2c4.7-7.7,9.5-6.2,11-5.4
		c3.2,2.3,16.1,9.6,66.9,30.2c33.3,13.5,55,9.1,67.5,3c12.7-6.2,18.5-15.3,19.6-17.2c3.4-4.8,64.4-90.5,118.2-163
		c24.7-30.8,31.7-65.3,33.2-88.9c1.6-25.5-2.5-43.6-2.7-44.4c0,0,0-0.1,0-0.1c-0.3-1.2-32.4-123-36.4-139.8
		c-3.2-13.6-0.5-26.6,2.1-39.2C2151.9,660.5,2152.2,658.7,2152.6,656.8z M1793.2,199.7c0,0.1-0.1,0.2-0.1,0.4l-30.2-10.3l23.3-63.9
		C1814.7,143.4,1800.3,181.1,1793.2,199.7z M1444.1,10.4c9.6,3.3,34,11.3,67.3,22.2c83.5,27.3,220.7,72.3,265.7,89.2l-23.6,64.8
		c-114.6-38.9-240.1-81.5-337.9-114.7L1444.1,10.4z M606.9,722.9l384.9-586.8c2.5-3,34.8-41.3,87.2-71.6
		c72.3-41.8,146.2-49,219.8-21.7h0.2c28.5,9.6,66.1,22.3,109.2,36.9c0.7,0.6,1.5,1,2.4,1.3L1791.3,210c0.3,0.1,0.7,0.2,1,0.3
		c144.4,49.1,262.1,89.2,268.1,91.2c2.4,1.1,31.7,14.4,59.6,42c28.9,28.6,45.9,61.5,50.9,98.1c-3,51-6.4,64.1-47.6,145.2
		c-38.9,66.7-287.7,488.1-363,611.9c-30.4,49.9-67.2,77.3-109.4,81.4c-31.5,3.1-54.5-8.6-54.8-8.7l-0.2-0.1l-23.3-10.9l447.8-751
		c0-0.1,0.1-0.1,0.1-0.2c20.7-38.8,26.7-68.1,18.6-92c-11.6-34.6-52.6-56-101-78.5c-73.8-34.3-710.5-269.7-716.9-272.1l-0.3-0.1
		c-49.4-14.3-94-11.2-132.8,9.3c-26.5,14-49.7,35.9-69.1,64.9C994,178.1,646,694.3,595.8,768.7C594.9,753.8,598.6,738.5,606.9,722.9
		z M599.9,788.9L599.9,788.9C599.9,788.9,599.9,788.9,599.9,788.9c-0.2-0.7-0.5-1.4-0.7-2.1s-0.4-1.3-0.6-2l0,0
		c-0.2-0.5-0.3-1.1-0.4-1.6l0.9-1.4l0.4-0.6l0.5-0.8l4.8-7.2l0.9-1.3c1.2-1.7,2.4-3.6,3.8-5.7l1.6-2.3l2-3l1.8-2.7l9-13.3l1.2-1.8
		c4.6-6.8,9.7-14.4,15.3-22.6c0.5-0.8,1-1.5,1.5-2.3l3.1-4.6l3.2-4.8c0.8-1.2,1.6-2.4,2.4-3.6l1.6-2.4l8.4-12.5l2.9-4.3l0.6-0.8
		l3.6-5.3c7.3-10.9,15.1-22.4,23.3-34.5l2.6-3.8l2-3l5.2-7.7c1.3-1.9,2.6-3.9,3.9-5.8l13.3-19.7l3.7-5.5l15.4-22.8l2.2-3.3l31.6-47
		l4.8-7.1l0.3-0.5l4.1-6l10-14.9c1.6-2.3,3.1-4.7,4.7-7l46-68.3l3.6-5.4l2.3-3.5l20.9-31c1.3-2,2.7-4,4-6l0.6-0.8
		c0.8-1.1,1.5-2.3,2.3-3.4l4.1-6.1l12.4-18.4c1-1.5,2-3,3-4.5l1.3-1.9l3.8-5.6l6.7-10l4.1-6.1c0.8-1.2,1.7-2.5,2.5-3.7l6-8.9
		l12.4-18.4l2.8-4.1l1.2-1.8c0.9-1.4,1.9-2.8,2.8-4.2l3.1-4.6l9.6-14.2c2.3-3.4,4.5-6.7,6.7-10c0.2-0.3,0.4-0.6,0.6-0.9
		c2.9-4.3,5.7-8.4,8.4-12.5l7.2-10.6c1.1-1.6,2.2-3.3,3.3-4.8c2.1-3.2,4.2-6.3,6.3-9.3c3.1-4.5,0,0,0,0c1.5-2.3,3-4.5,4.5-6.7
		c3.5-5.2,6.9-10.2,10-14.9l1.3-2l1.3-1.9l1.3-1.9l1.5-2.2l1-1.5c3.6-5.4,6.9-10.3,9.8-14.6l1.9-2.8l3.7-5.4l1.3-1.9
		c2.5-3.7,4.5-6.7,5.9-8.7l0.6-0.8l0.4-0.6c30-44.9,83.6-92.6,172.2-74.8l3.6,0.8l1.1,0.2c0.9,0.2,1.8,0.4,2.7,0.6
		c3.6,0.9,7.3,1.8,11,2.9c0.1,0,0.2,0.1,0.3,0.1l0.3,0.1l0.5,0.2l0.5,0.2l0.8,0.3l1.8,0.7l1,0.3l1.6,0.6l1.8,0.7l1.6,0.6l1.4,0.5
		l1.9,0.7l0.4,0.2l2.5,0.9l1.3,0.5l2.2,0.8l2.1,0.8l2.5,0.9l4.8,1.8l1.7,0.6l6.1,2.3l3,1.1l4.8,1.8l3.3,1.2l2.1,0.8l2.2,0.8l0.9,0.3
		l3.5,1.3l4.6,1.7l3.4,1.3l2.4,0.9l3.8,1.4l1.1,0.4l3.9,1.4l3.7,1.4l5.3,2l2.7,1l37.6,14l3.1,1.2l33.9,12.6l6.8,2.5l8.7,3.2l8.5,3.2
		l35.9,13.3l3.7,1.4l22.4,8.4l3.7,1.4l15.2,5.7l6.2,2.3l1.5,0.6l6.2,2.3l1.5,0.6l10.1,3.8l1.5,0.6l27.3,10.2c1.3,0.5,2.6,1,3.9,1.5
		l3.9,1.5l10.4,3.9c2.6,1,5.3,2,7.9,3l7.9,3c21.4,8.1,42.9,16.1,64.1,24.1l6.7,2.5l5,1.9l6.7,2.5c28.4,10.7,56.1,21.2,82.4,31.2
		l3.6,1.4l18.3,7l6.2,2.4l10.8,4.1l3.3,1.3l6.6,2.5l9.8,3.8l3.2,1.2l5.8,2.2l0.5,0.2l8.8,3.4l6.6,2.5l8.5,3.3
		c12.8,5,24.8,9.6,35.8,14l4.7,1.9c25.5,10,45.2,18,57.1,23.2l2.1,0.9c1.4,0.6,2.7,1.2,3.8,1.7c54.9,25.5,86.4,44.6,95.8,72.6
		c7.1,21.1,1.4,47.8-17.9,84l-446.6,749l-1.7,2.8l-2.9-1.4l-76.2-35.8l-3.6-1.7l2-3.4l420.3-703.8l0.2-0.3v-0.1l0.1-0.2l1.2-2.3
		c0.7-1.4,1.4-2.9,2.1-4.3c0-0.1,0.1-0.1,0.1-0.2l1.1-2.2c1.7-3.6,3.3-7.2,4.7-10.7c0.6-1.4,1.1-2.8,1.6-4.1c0.8-2,1.5-4,2.1-6
		c0.4-1.3,0.8-2.5,1.2-3.8c0.6-2,1.2-4,1.6-5.9c0.3-1.2,0.6-2.4,0.8-3.6c0.1-0.6,0.3-1.2,0.4-1.8s0.2-1,0.3-1.5
		c0.2-0.9,0.3-1.7,0.4-2.5s0.3-1.6,0.3-2.4c0-0.3,0.1-0.5,0.1-0.7c0.1-1,0.2-2,0.3-2.9c1-9.7-0.1-19.6-3.2-28.9
		c-11.1-31.5-48.3-50.1-88.7-67.9c-66-29-629.6-239-635.3-241.1l-0.2-0.1c-44.2-14.4-84.1-12.1-118.7,6.9
		c-22.9,12.6-42.9,31.9-61,59.1l-0.6,0.9c-0.2,0.3-0.4,0.6-0.7,1l-2.4,3.6l-0.5,0.8c-4.9,7.3-13,19.4-23.7,35.3l-1.2,1.9l-9.3,13.8
		l-1.4,2.1l-36,53.6l-2.8,4.1l-3.6,5.3l-1.8,2.7l-5.5,8.2c-1.6,2.4-3.2,4.8-4.9,7.2l-2,2.9l-2,2.9l-8.3,12.4l-2,2.9
		c-0.3,0.4-0.6,0.8-0.8,1.3l-1.1,1.6l-6.4,9.5l-3.6,5.3L789.1,518c-1.2,1.8-2.5,3.7-3.7,5.5l-29,43.1c-1.5,2.2-2.9,4.4-4.4,6.5
		l-11,16.2c-2.5,3.7-5,7.5-7.5,11.2L707.6,639l-4,5.9l-16.9,25l-1.8,2.7l-2.5,3.6c-0.6,0.9-1.2,1.8-1.8,2.7l-9.7,14.5l-1.7,2.5
		l-11.4,16.9L655,717l-7.9,11.7c-0.9,1.4-1.8,2.7-2.8,4.1l-2.8,4.2l-1.7,2.5c-1.4,2.1-2.8,4.1-4.1,6.1l-2.1,3.1
		c-0.6,0.9-1.2,1.8-1.8,2.7s-1.3,1.9-1.9,2.8c-1,1.5-2,3-3,4.5c-0.8,1.2-1.6,2.3-2.3,3.4l-2.5,3.7c-0.6,0.9-1.2,1.8-1.8,2.7
		l-0.2,0.3c-1,1.4-1.9,2.8-2.8,4.1l-0.1,0.2c-0.6,0.9-1.2,1.8-1.8,2.6c-1.2,1.8-2.4,3.5-3.4,5.1c-1.6,2.3-2.9,4.4-4.2,6.2l-1.4,2.1
		c-0.2,0.2-0.3,0.4-0.4,0.6c-1.5,2.3-2.8,4.2-3.7,5.5C601.5,793.2,600.6,791,599.9,788.9z M951.6,967.1
		c4.1-6.4,413.6-643.1,420.5-654.1c17.8-28.8,33.6-33.2,55.3-27.6c10.6,4,20.9,7.9,30.7,11.6l0.1-0.3c5.6,2.3,10.6,4.3,16.5,6.7
		c-0.2,0.2-0.4,0.5-0.6,0.7l-306,480c-1.5,2.3-0.8,5.4,1.5,6.9c0.2,0.1,0.4,0.3,0.7,0.4l129,57c2.3,1,4.9,0.2,6.3-1.9l309-489
		c0,0,0-0.1,0.1-0.1l96.2,37.6c-12.1,3.6-23.8,13.5-36.2,33.6c-6.8,10.6-406.8,644.7-428.2,678.7L654.7,829.7
		c36.5-54.3,108.1-160.3,177.4-263c95.5-141.5,194.2-287.9,206-305.5c42.5-63.7,99-84.6,168.1-62.1c4.5,1.8,104,41.4,193.8,75.9
		c-12.6,3.6-24.3,13.4-36.3,32.7c-6.9,10.9-416.3,647.5-420.5,654L951.6,967.1z M1480.6,312.8c4.5,1.4,12.9,4.2,23.9,8.8
		c1.1,0.4,2.2,0.5,3.3,0.2c25.2-7.6,39.2-9.1,48.4-5.1s15.4,14.3,24.8,29.8l0.1,0.1c0.5,0.9,1.3,1.6,2.3,2l19.7,8.7l-303.6,480.4
		l-119.7-52.9L1480.6,312.8z M1683.2,434c12.2-19.7,23.3-29.1,36.2-30.4c6.6-0.7,13.7,0.7,21.7,3.2l34.9,13.6l-304.5,504.4
		c-1.4,2.4-0.7,5.4,1.7,6.9c0.2,0.1,0.4,0.2,0.7,0.3l133,54.9l-135,226.1l-216.1-101.4C1283.5,1067.5,1676.4,444.6,1683.2,434
		L1683.2,434z M1785.1,424.6c4.7,1.3,13.7,4.1,25.3,8.6c1.1,0.4,2.3,0.4,3.4,0.1c46.5-15.3,54.5-2.4,72.1,25.7
		c1.7,2.7,3.4,5.5,5.3,8.4c1,1.6,2.8,2.4,4.6,2.3l13.5-1.1c-2.8,10.9-7.7,23-14.7,36.5l-2.9,4.9l0,0l-282,467.5L1483,925
		L1785.1,424.6z M611.7,809.6l-0.5,1.1c-2.3-3.3-4.4-6.7-6.2-10.2l4.1,2.8c3.9-5.8,390.3-579.4,414-615
		c42.5-63.7,99.1-84.6,168.2-62c10.1,3.8,569.2,212,634.6,240.9c46,20.3,74.4,36.9,83.3,62c3.1,8.7,3.8,18.3,2.2,29.3l-13.4,1.1
		c-1.2-2-2.4-3.9-3.6-5.7c-9.3-14.9-16.6-26.7-28.8-32.7c-12.5-6.2-28.9-5.5-53.2,2.2c-8.2-3.1-15-5.4-19.9-6.9v-0.1l-23.8-9.3
		l0.1-0.2l-0.7-0.3c-8.6-3.5-16.5-6.8-24-9.1c-73.4-28.7-121.3-47.5-158-61.9c-8.6-14-15.2-23.4-25.9-28.1c-10.1-4.4-23-4-44.2,1.5
		c-32.4-12.6-41.9-16.5-58.3-23.2c-8.6-3.7-17.4-6.8-26.4-9.5c-97.1-36.9-220.3-86-221.7-86.5l-0.3-0.1
		c-44.2-14.4-84.1-12.1-118.7,6.9c-22.9,12.6-42.9,31.9-61,59.1c-11.7,17.6-110.5,164-206,305.5c-69.8,103.5-142,210.5-178.2,264.3
		L611.7,809.6z M2139.6,703.8c4,16.8,34.8,133.8,36.4,139.9c0.5,2.3,15,70.4-28.6,124.8l-0.1,0.2
		c-55.2,74.3-117.9,162.6-118.6,163.4c-0.1,0.2-0.2,0.3-0.3,0.5c-0.8,1.3-18.9,32.7-74.7,10c-52.4-21.3-63-27.8-64.6-28.8
		c-0.3-0.4-0.3-0.3-0.9-0.6c-4-2.4-16.2-5.4-24.8,8.7c-7.7,12.6-83.5,140.5-87.4,147.1c-1.7,2.1-18.5,23.1-50.8,36.2
		c-44.8,18.1-99,12.9-156.8-15.2c-143.6-69.8-879.9-420.8-887.3-424.3l-0.2-0.1c-0.5-0.2-31.8-13.9-56.3-38.8l966.9,453.6
		c1.8,0.9,20.9,10.3,48.5,10.3c3.6,0,7.4-0.2,11.2-0.5c20.1-1.9,39.4-8.8,57.4-20.6c22.3-14.6,42.5-36.7,60.1-65.6
		C1844.2,1080,2093.3,658,2132,591.7l0.1-0.3c26.1-51.5,37.4-76.5,43-100.8c1.9,3.7,4.2,7.1,7,10.2c1.8,1.9,3.7,3.6,5.8,5.1
		c4.5,3.4,7.5,5.6,4.1,30.8c-4.5,31.1-14.2,53.3-18.3,61.4l-30.3,54.5c-0.3,0.5-0.4,0.9-0.5,1.5c-0.4,2-0.8,4.1-1.3,6.1
		C2138.8,673.9,2135.9,688,2139.6,703.8z"/>
	<path class="st1" d="M1793.2,199.7c0,0.1-0.1,0.2-0.1,0.4l-30.2-10.3l23.3-63.9C1814.7,143.4,1800.3,181.1,1793.2,199.7z"/>
	<path class="st1" d="M1777,121.7l-23.6,64.8c-114.5-38.9-240.1-81.5-337.9-114.7l28.6-61.5c9.6,3.3,34,11.3,67.3,22.2
		C1594.8,59.9,1732.1,104.8,1777,121.7z"/>
	<path class="st2" d="M2170.9,441.6c-3,51-6.4,64.1-47.6,145.2c-38.9,66.7-287.7,488.2-363,611.9c-30.4,49.9-67.2,77.3-109.4,81.4
		c-31.5,3.1-54.5-8.6-54.8-8.7l-0.2-0.1l-23.3-10.9l447.8-751c0-0.1,0.1-0.1,0.1-0.2c20.7-38.8,26.7-68.1,18.6-92
		c-11.6-34.6-52.6-56-101-78.5c-73.8-34.3-710.5-269.7-716.9-272.1l-0.3-0.1c-49.4-14.3-94-11.2-132.8,9.3
		c-26.5,14-49.7,35.9-69.1,64.9c-25,37.4-373,553.6-423.2,628c-0.9-14.9,2.8-30.2,11.1-45.8l384.9-586.8c2.5-3,34.8-41.3,87.2-71.6
		c72.3-41.8,146.2-49,219.8-21.7h0.2c28.5,9.6,66.1,22.3,109.2,36.9c0.7,0.6,1.5,1,2.4,1.3L1791.3,210c0.3,0.1,0.7,0.2,1,0.3
		c144.4,49.1,262.1,89.2,268.1,91.2c2.4,1.1,31.7,14.4,59.6,42C2148.9,372.1,2165.9,404.9,2170.9,441.6z"/>
	<path class="st1" d="M2141.7,660.3c-2.9,13.7-5.8,27.8-2,43.5c4,16.8,34.8,133.8,36.4,139.9c0.5,2.3,15,70.4-28.6,124.8l-0.1,0.2
		c-55.2,74.3-117.9,162.6-118.6,163.4c-0.1,0.2-0.2,0.3-0.3,0.5c-0.8,1.3-18.9,32.7-74.7,10c-52.4-21.3-63-27.8-64.6-28.8
		c-0.3-0.4-0.3-0.3-0.9-0.6c-4-2.4-16.2-5.4-24.8,8.7c-7.7,12.6-83.5,140.5-87.4,147.1c-1.7,2.1-18.5,23.1-50.8,36.2
		c-44.8,18.1-99,12.9-156.8-15.2c-143.6-69.8-879.9-420.8-887.3-424.3l-0.2-0.1c-0.5-0.2-31.8-13.9-56.3-38.8l966.9,453.6
		c1.8,0.9,20.9,10.3,48.5,10.3c3.6,0,7.4-0.2,11.2-0.5c20.1-1.9,39.4-8.8,57.4-20.6c22.3-14.6,42.5-36.7,60.1-65.6
		C1844.2,1080,2093.3,658,2132,591.7l0.1-0.3c26.1-51.5,37.4-76.5,43-100.8c1.9,3.7,4.2,7.1,7,10.2c1.8,1.9,3.7,3.6,5.8,5.1
		c4.5,3.4,7.5,5.6,4.1,30.8c-4.5,31.1-14.2,53.3-18.3,61.4l-30.3,54.5c-0.3,0.5-0.4,0.9-0.5,1.5
		C2142.6,656.2,2142.1,658.2,2141.7,660.3z"/>
	<path class="st0" d="M2110.3,787.3c-21.9-8.9-49.1-0.8-76.5,22.9c-26.8,23.2-50.8,58.7-67.6,100s-24.3,83.5-21.3,118.8
		c3.1,36,16.9,60.8,38.8,69.7c5.9,2.4,12.1,3.6,18.4,3.5c17.9,0,37.9-9,58-26.4c26.8-23.2,50.8-58.7,67.6-100s24.3-83.5,21.3-118.8
		C2146,821,2132.2,796.2,2110.3,787.3z M2122.3,973.6c-16.4,40.4-39.8,75.1-66,97.7c-25.6,22.1-50.5,29.9-70.3,21.9
		s-32.2-31-35.1-64.7c-3-34.4,4.4-75.6,20.9-116s39.8-75.1,66-97.7c19-16.4,37.7-25,54.1-25c5.5,0,11,1,16.2,3.1
		c19.8,8,32.2,31,35.1,64.7C2146.1,892,2138.7,933.2,2122.3,973.6L2122.3,973.6z"/>
	<path class="st0" d="M2064.8,808.4c-0.3,0-0.6,0.2-0.8,0.5c-0.3,0.5-34.2,55.5-42.1,86.3c-5.7,22-8.4,50.9,2.5,60
		c2.2,1.8,5,2.8,7.9,2.8c3.5-0.1,6.9-1,10-2.6c0.1,0,0.2-0.1,0.2-0.2l0.2-0.2c2.5,7.5,2.9,14.6,1.2,21.2c-1.7,6.8-5.2,11-8.5,15.2
		c-3.7,4.6-7.2,9-7.5,16.1c-0.2,5.3,1.6,8.3,3.3,11.1c2.3,3.2,3.5,7,3.7,10.9c0.3,6.8-2.3,11.1-5.2,16.1c-3.1,4.8-5.4,10.1-6.8,15.7
		c-2.3,9.1-1.9,19,1,29.5l1.9-0.5c-2.8-10.2-3.2-19.8-1-28.5c1.4-5.4,3.6-10.5,6.6-15.1c3.1-5.3,5.7-9.8,5.4-17.2
		c-0.1-4.3-1.5-8.4-4-11.9c-1.7-2.8-3.3-5.3-3-10c0.3-6.5,3.4-10.4,7.1-14.9c3.3-4.1,7-8.7,8.9-15.9s1.3-14.9-1.5-23.1
		c22.3-19.6,33.5-31.9,40.5-74s-19-70.6-19.3-70.8C2065.5,808.5,2065.1,808.4,2064.8,808.4z M2082.9,879.3
		c-7,41.8-18.1,53.7-40.4,73.3l-0.5,0.2c0,0.1,0.1,0.1,0.1,0.2l-0.7,0.6c-6.7,3.1-11.9,3.1-15.6,0c-9.6-8-7.8-34.8-1.8-57.9
		c7.2-28,36.2-76.4,41.2-84.6C2069.5,816.5,2089,842.6,2082.9,879.3L2082.9,879.3z"/>
	<path class="st0" d="M1575.3,70.4l0.1-0.3c0.2-0.6,0.1-0.7-0.5-0.9c-0.9-0.3-1.9-0.7-2.8-1l0,0c-2.1-0.7-4.4,0.5-5.1,2.6
		c-0.6,1.8-1.2,3.6-1.8,5.4c-0.1,0.3-0.3,0.6-0.4,0.8c-0.2-0.2-0.4-0.3-0.6-0.4c-2-1.8-4.6-3-7.3-3.4c-2.5-0.4-5-0.1-7.2,1
		c-2.3,1.1-4.2,3-5.4,5.2c-0.1,0.2-0.3,0.4-0.4,0.7c0-0.3,0-0.7,0.2-1c2-5.7,3.9-11.4,5.8-17.1c0.1-0.2,0.2-0.4,0.2-0.6
		c0.2-0.5,0.1-0.7-0.4-0.8c-1-0.4-2-0.7-3.1-1c-1.8-0.5-3.7,0.3-4.6,1.9c-0.3,0.5-0.5,1-0.7,1.6c-0.5,1.5-1,3.1-1.6,4.6
		c-0.1,0.3-0.2,0.5-0.3,0.8c-0.3-0.2-0.5-0.4-0.7-0.6c-2.4-2.1-5.3-3.3-8.5-3.4c-3.5-0.3-7,1.1-9.3,3.7c-0.3,0.3-0.6,0.7-0.7,1.1
		c1.2,0.6,2.5,0.9,3.8,1c2.2,0.1,4.4-0.5,6.3-1.6l0.1,0.2c-0.6,0.4-1.1,0.8-1.7,1.2c-2.1,1.7-4.9,2.3-7.5,1.6
		c-0.6-0.1-1.1-0.3-1.7-0.4c-0.7-0.2-0.8-0.1-1.1,0.6c-0.6,1.3-1.1,2.6-1.3,4c-0.7,3.2-0.1,6.5,1.8,9.3c2,2.9,4.9,4.9,8.3,5.7
		c0.6,0.2,1.3,0.3,1.9,0.4c2.4,0.5,4.8,0.2,7-0.8c2.4-1.2,4.3-3,5.6-5.4c0.4-0.6,0.7-1.3,1-1.9c0.1,0.3,0.1,0.6,0,0.8
		c-1.2,4.6,0.3,9.5,4,12.6c2.1,1.7,4.5,2.8,7.1,3.3c1.5,0.3,3.1,0.4,4.7,0.2c3.2-0.5,6-2.3,7.8-5c1.1-1.6,2-3.3,2.6-5.1
		C1570.9,83.2,1573.1,76.8,1575.3,70.4z M1536,79.9c-0.5,1.3-1.3,2.5-2.3,3.4c-1.2,1-2.7,1.4-4.2,1.1c-1.7-0.2-3.3-1.2-4.2-2.6
		c-0.5-0.9-0.8-1.9-0.8-2.9c-0.1-2,0.6-3.9,1.8-5.4c1.5-2,4-2.7,6.3-1.9c2.5,0.8,4,3.2,3.8,5.8C1536.3,78.2,1536.2,79.1,1536,79.9z
		 M1561.6,87.3c-0.3,1.6-1.1,3.1-2.3,4.3c-1.6,1.5-4,1.9-6.1,1.1c-2.3-0.9-3.8-3.2-3.5-5.6c0.1-0.8,0.2-1.6,0.4-2.5
		c0.6-1.7,1.8-3.1,3.4-4c2.8-1.4,6.2-0.3,7.6,2.5C1561.8,84.4,1562,85.9,1561.6,87.3L1561.6,87.3z"/>
	<path class="st0" d="M1496.3,58.6c1.1-3.3,2.2-6.5,3.3-9.8c0.5-1.4,0.9-2.7,1.4-4.1c0.2-0.6,0.1-0.7-0.5-1
		c-0.8-0.3-1.6-0.5-2.4-0.8l-0.3-0.1c-2.2-0.7-4.6,0.5-5.3,2.8c0,0,0,0,0,0c-0.5,1.8-1.2,3.5-1.8,5.2c-0.1,0.3-0.2,0.5-0.3,0.8
		c-0.1,0-0.2,0-0.2,0c-0.3-0.3-0.7-0.6-1-0.9c-2.5-2-5.6-3-8.7-3c-3.5-0.1-6.8,1.4-9,4.1c-1.8,2.1-3,4.7-3.4,7.4
		c-0.9,4.1,0.4,8.3,3.5,11.1c3,2.8,6.9,4.3,11,4.2c1.8,0,3.5-0.4,5.1-1.3c1.9-1,3.4-2.5,4.5-4.4c1.4-2.3,2.4-4.8,3.2-7.3
		C1495.7,60.6,1496,59.6,1496.3,58.6z M1487.3,62.2c-0.1,0.3-0.2,0.6-0.3,0.9l0,0c-0.3,1.1-0.9,2.1-1.7,2.9c-0.9,1-2.2,1.6-3.6,1.7
		c-3,0.3-5.6-1.8-6.1-4.7c-0.4-2.9,0.8-5.7,3.1-7.5c1.2-0.8,2.6-1.1,4-0.9c0.3,0.1,0.7,0.1,1,0.2
		C1486.6,55.9,1488.2,59.2,1487.3,62.2L1487.3,62.2z"/>
	<path class="st0" d="M1617.6,112c-0.9-1-2.3-1.3-3.5-0.8c-0.6,0.2-1.2,0.4-1.8,0.5c-2.2,0.4-4.4-0.1-6.3-1.2
		c-2.7-1.4-4.3-4.2-4.3-7.2c0-1.9,0.5-3.8,1.5-5.4c0.8-1.4,1.9-2.6,3.3-3.4c3.3-1.6,7.2-1.1,10,1.2c0.7,0.6,1.3,1.3,1.8,2.1
		c0.7,1.1,1.9,1.7,3.2,1.7c1.5-0.2,3-0.5,4.6-0.8c0-0.3-0.1-0.4-0.1-0.6c-0.8-3.1-2.5-5.8-5-7.7c-3.3-2.7-7.6-4.1-11.8-3.7
		c-3.1,0.2-6.2,1.4-8.6,3.4c-2.9,2.4-4.9,5.7-5.6,9.4c-0.9,3.5-0.4,7.3,1.2,10.5c1.7,3.4,4.6,6.1,8.2,7.5c2.3,1,4.7,1.4,7.2,1.3
		c3.1-0.1,6-1.2,8.5-3.1c0.1-0.1,0.3-0.2,0.4-0.4c0-0.1-0.1-0.2-0.2-0.3C1619.4,114,1618.5,113,1617.6,112z"/>
	<path class="st0" d="M1660.4,125.2c1.4,0.4,2.9,0.5,4.4,0.4c1.9-0.1,3.6-1.1,4.4-2.8c0.5-0.9,0.8-1.8,1-2.8
		c0.7-3.2-0.4-6.6-2.9-8.8c-4.4-3.8-10.7-4.3-15.6-1.2c-3.7,2.5-5.9,6.6-6.1,11c-0.2,2.8,0.5,5.6,2,7.9c2.4,3.8,6.5,6.1,10.9,6.2
		c3,0.2,5.9-0.7,8.3-2.6c0.2-0.1,0.4-0.3,0.6-0.5c0-0.1-0.1-0.2-0.2-0.3c-0.7-0.8-1.4-1.7-2.2-2.5c-0.9-1.1-2.4-1.4-3.6-0.9
		c-0.5,0.2-1.1,0.3-1.7,0.4c-1.9,0.2-3.8-0.4-5.3-1.6c-1.1-0.9-1.9-2.2-2.2-3.6c0-0.3-0.1-0.6-0.1-0.9c0.4,0.1,0.7,0.2,1,0.3
		C1655.6,123.6,1658,124.6,1660.4,125.2z M1654.9,116.5c1.1-1.5,2.9-2.2,4.6-1.8c1.4,0.1,2.7,0.8,3.7,1.9c0.3,0.4,0.6,0.8,0.7,1.3
		c0.1,0.2,0.1,0.4,0.1,0.6c-0.1,0.7-0.7,1.1-1.4,1c-0.9-0.1-1.8-0.2-2.7-0.5c-0.8-0.2-1.5-0.5-2.2-0.7l0,0c-0.8-0.3-1.7-0.6-2.5-0.8
		C1654.6,117.2,1654.5,117,1654.9,116.5z"/>
	<path class="st0" d="M1646.2,112.5c-0.1-2-0.8-3.9-2.2-5.3c-1.8-1.8-4.2-2.8-6.7-2.8c-1.2,0-2.4,0.3-3.3,1
		c-0.1,0.1-0.3,0.2-0.4,0.3l-0.2-0.3c0.1-0.3,0.2-0.5,0.3-0.8c0.5-1.6,1.1-3.1,1.6-4.7c0.8-2-0.1-4.2-2-5.1c-0.8-0.4-1.7-0.7-2.6-1
		c-1.1-0.4-1.2-0.4-1.5,0.8l-7.9,23.2c-0.1,0.3-0.2,0.6-0.3,0.9c-0.7,1.8,0.2,3.9,2,4.6c1.1,0.5,2.3,1,3.5,1.4
		c0.4,0.2,0.6,0.1,0.8-0.4c0.1-0.2,0.2-0.4,0.2-0.6c1.2-3.5,2.4-7,3.6-10.5c0.3-0.8,0.6-1.5,1.1-2.2c0.5-0.9,1.6-1.4,2.6-1.3
		c0.5,0,0.9,0.1,1.3,0.3h0.1c1.6,0.4,2.6,2,2.3,3.6c0,0,0,0.1,0,0.1c-0.1,0.9-0.3,1.8-0.6,2.7c-0.6,1.8-1.2,3.5-1.8,5.3
		c-0.3,0.8-0.6,1.7-0.8,2.5c-0.5,1.5,0.1,3.1,1.5,3.9c1.3,0.7,2.8,1.2,4.2,1.6h0.1c0.2,0.1,0.5-0.1,0.5-0.3c0,0,0,0,0,0
		c0.1-0.1,0.1-0.3,0.2-0.4l4.2-12.3C1646.1,115.2,1646.3,113.9,1646.2,112.5z"/>
	<path class="st0" d="M1517.7,70.8c-0.4,0-0.7,0-1,0c-1.3,0.2-2.5,0.7-3.6,1.4c-1.1,0.7-2.1,1.6-3.2,2.3c-1.8,1.4-4.1,2-6.3,1.7
		c-2.3-0.2-4.3-1.7-5.2-3.8c-0.5-1.2-0.2-2.6,0.7-3.4c0.6-0.6,1.4-1,2.3-1.2c2-0.5,4.1,0,5.8,1.2c0.4,0.3,0.8,0.5,1.2,0.8
		c1,0.7,2.3,1,3.4,0.6c0.7-0.2,1.3-0.4,2-0.6c1.3-0.5,2.7-0.7,4.1-0.8c0.5,0,0.7-0.1,0.8-0.7c0.2-0.9,0.4-1.9,0.5-2.8
		c0.3-3.3-1.2-6.5-3.9-8.3c-2.2-1.6-4.8-2.8-7.4-3.5c-1.4-0.3-2.8-0.6-4.2-0.8c-0.6-0.1-0.8,0-1,0.6c-0.2,0.7-0.4,1.5-0.6,2.2
		c-0.2,0.9,0,1.7,0.6,2.4c0.4,0.7,1.1,1.2,1.8,1.4c1.1,0.3,2.3,0.6,3.4,1c1.3,0.4,2.5,1.2,3.4,2.2c0.7,0.9,1,2,0.7,3.1
		c-0.2,0-0.5-0.1-0.7-0.2c-0.9-0.3-1.8-0.6-2.6-0.9c-1.4-0.5-2.9-0.9-4.3-1.3c-1.5-0.4-3.1-0.5-4.7-0.4c-1.9,0.1-3.6,1-4.9,2.5
		c-1.4,1.6-2.2,3.7-2.3,5.8c-0.1,1.6,0.2,3.2,1,4.6c0.8,1.5,2,2.7,3.4,3.7c1.5,1,3.2,1.8,5,2.4c1.8,0.6,3.6,0.8,5.4,0.6
		c3.4-0.2,6.4-2.2,8-5.2c1-2,1.9-4,2.5-6.2C1517.7,71.2,1517.7,71,1517.7,70.8z"/>
	<path class="st0" d="M1708.9,139.1c2.9-2,5.9-3.8,9-5.6l1.9-1.1c-0.4-0.2-0.6-0.3-0.8-0.4c-1.1-0.4-2.2-0.8-3.4-1.1
		c-0.8-0.3-1.7-0.5-2.6-0.7c-0.7-0.2-1.4-0.1-2,0.1c-0.7,0.3-1.4,0.7-2,1.1c-2.2,1.4-4.3,2.9-6.3,4.5c-0.2,0.2-0.5,0.3-0.7,0.5
		l-0.2-0.1c0.1-0.3,0.1-0.6,0.2-0.8l3.4-10c0.2-0.5,0.4-1.1,0.6-1.7c0.7-2-0.3-4.2-2.3-5c-0.8-0.4-1.6-0.7-2.4-1
		c-1.3-0.5-1.3-0.6-1.7,0.8l-7.8,22.9c-0.1,0.3-0.2,0.6-0.3,0.9c-0.6,1.9,0.2,4,1.9,5c1.1,0.6,2.3,1,3.4,1.4c0.4,0.1,0.6,0,0.7-0.4
		c0.1-0.2,0.1-0.4,0.2-0.6c0.9-2.7,1.8-5.4,2.8-8.2l0.3-0.8h0.2c0.1,0.3,0.2,0.5,0.2,0.8c0.8,2.8,1.6,5.7,2.4,8.5
		c0.2,0.8,0.5,1.5,0.9,2.2c0.6,1.5,2.2,2.5,3.8,2.3c1.1-0.2,2.2-0.4,3.2-0.7c0.1,0,0.1-0.1,0.2-0.2c-0.2-0.8-0.5-1.5-0.7-2.3
		c-0.9-3-1.9-6.1-2.8-9.1C1708.3,139.5,1708.3,139.5,1708.9,139.1z"/>
	<path class="st0" d="M1596,89l0.1-0.1c0.7-1.5,0.1-3.3-1.4-4c-1-0.4-2.1-0.7-3.1-1.1c-0.3-0.1-0.6,0-0.8,0.3l-0.4,0.5
		c-2.6,3.5-5.3,7.1-7.9,10.6c-0.1,0.1-0.2,0.3-0.4,0.4h-0.2c0-0.3-0.1-0.7-0.1-1c-0.1-2-0.1-4-0.2-6l-0.2-5.7c0-1.5-1-2.9-2.5-3.3
		c-1.3-0.4-2.5-0.9-3.8-1.3c-0.3-0.1-0.5-0.1-0.9-0.2c0,0.5,0,0.9,0,1.3c0,1.2,0,2.4,0.1,3.6c0,3.7,0.3,7.4,0.7,11.1
		c0.3,2.7,0.5,5.3,0.8,8c0.1,0.3,0,0.7-0.3,0.9c-0.6,0.6-1.3,1.2-2.1,1.5c-1.2,0.4-2.4,0.4-3.6,0.1l-1.2-0.3
		c-0.2-0.1-0.5,0.1-0.6,0.3c-0.7,1.2-0.7,2.7-0.1,4c0.7,1.4,1.9,2.4,3.4,2.8c2.2,0.7,4.5,0.4,6.4-0.8c1.8-1.1,3.4-2.5,4.7-4.1
		c2.2-2.6,4.4-5.2,6.5-7.9c2.2-2.8,4.3-5.7,6.5-8.5C1595.7,89.7,1595.8,89.3,1596,89z"/>
	<path class="st0" d="M1676.9,125.7c1.9-3.2,6-4.2,9.2-2.3c1.1,0.6,2,1.4,2.6,2.4c0.5,0.9,1.5,1.5,2.5,1.5c1.5,0,3-0.3,4.4-0.8
		c0,0,0,0,0.1-0.1c0-0.1,0-0.1,0-0.2c0-0.1,0-0.2-0.1-0.4c-0.6-2.4-1.9-4.5-3.7-6.1c-2-1.9-4.6-3.1-7.4-3.4c-4.7-0.8-9.5,1-12.4,4.8
		c-1.4,1.8-2.4,3.9-2.8,6.1c-0.7,3.4-0.1,7,1.9,9.9c3.5,5.2,10.1,7.4,16,5.3c1.4-0.5,2.7-1.3,3.8-2.3c-0.2-0.2-0.3-0.4-0.4-0.5
		l-1.7-2c-0.9-1.4-2.6-1.9-4.1-1.2c-0.9,0.3-1.9,0.4-2.8,0.3c-0.9-0.1-1.7-0.4-2.5-0.7c-1.9-0.8-3.3-2.4-3.7-4.4
		c-0.3-1.5-0.1-3,0.4-4.4C1676.4,126.7,1676.6,126.2,1676.9,125.7z"/>
</g>
<g id="Layer_2-2">
	<path class="st3" d="M1325.2,998.5l0.3,0.1l0.3,0.1l0.3,0.1l0.3,0.1c1.7,0.8,3.4,1.6,5.1,2.4l5.1,2.4c1.7,0.8,3.4,1.6,5.1,2.4
		c1.7,0.8,3.4,1.5,5.2,2.3c2,0.8,3.8,1.9,5.3,3.3c1.5,1.3,2.7,2.9,3.7,4.6c0.9,1.7,1.5,3.6,1.8,5.5c0.3,2,0.1,4-0.3,6
		c-0.5,2.5-0.9,5.1-1.4,7.6c-0.5,2.5-0.9,5.1-1.4,7.6s-0.9,5.1-1.4,7.6s-0.9,5.1-1.4,7.6c-0.5,2.7-1,5.4-1.5,8.2
		c-0.5,2.7-1,5.4-1.5,8.2s-1,5.5-1.5,8.2s-1,5.5-1.5,8.2c-0.1,0.5-0.2,0.9-0.2,1.4l-0.2,1.4c-0.1,0.5-0.1,0.9-0.2,1.4
		s-0.1,0.9-0.2,1.4l0.9,0.3l0.7-0.5l0.7-0.5l0.7-0.5c0.2-0.2,0.4-0.3,0.6-0.5l14.7-12.9l14.6-12.9l14.6-12.9l14.6-12.9l0.7-0.6
		l0.7-0.6l0.7-0.6l0.7-0.6c0.3-0.3,0.6-0.6,1-0.8c0.4-0.2,0.7-0.3,1.2-0.4c0.4-0.1,0.8-0.1,1.2-0.1c0.4,0,0.8,0.1,1.2,0.3
		c1.5,0.7,3,1.4,4.5,2.1l4.4,2c1.5,0.7,2.9,1.3,4.3,2s2.8,1.4,4.2,2.2c1.9,1.2,3.5,2.7,4.7,4.5c1.1,1.7,1.9,3.7,2.2,5.8
		c0.3,2.1,0.2,4.2-0.3,6.2c-0.6,2.2-1.7,4.2-3.1,6l-0.1,0.2l-0.1,0.2l-0.1,0.2l-0.1,0.2c-0.3,0.4-0.7,0.8-1,1.1s-0.7,0.7-1.1,1.1
		s-0.8,0.7-1.1,1.1l-1.2,1c-4,3.4-8,6.9-11.9,10.3c-3.9,3.5-7.9,6.9-11.9,10.4c-4,3.4-8,6.9-12,10.3c-4,3.4-8,6.9-12,10.2
		c-3.9,3.3-7.8,6.5-11.7,9.7c-3.9,3.2-7.8,6.4-11.7,9.6c-3.9,3.2-7.9,6.4-11.8,9.5c-4,3.2-7.9,6.3-11.9,9.4c-2.4,2-4.9,3.9-7.5,5.6
		c-2.6,1.8-5.2,3.4-8,5c-2.7,1.6-5.5,3.1-8.3,4.4c-2.8,1.4-5.7,2.6-8.7,3.8c-3,1.2-6.1,2.2-9.3,2.9c-3.1,0.6-6.3,1-9.5,1
		c-3.1,0-6.3-0.2-9.3-0.8c-3-0.6-6-1.5-8.9-2.7l-0.3-0.1l-0.3-0.1l-0.3-0.2l-0.3-0.1c-2-0.8-3.9-1.9-5.6-3.1
		c-1.7-1.2-3.3-2.6-4.7-4.1c-1.4-1.5-2.6-3.2-3.6-5c-1-1.8-1.8-3.7-2.4-5.7c-0.4-1.8-0.6-3.7-0.6-5.6c0-1.9,0.3-3.8,0.8-5.6
		c0.5-1.9,1.2-3.7,2.1-5.4c0.9-1.8,2.1-3.5,3.4-5c0.4-0.6,0.9-1,1.6-1.2c0.3-0.1,0.7-0.2,1-0.2c0.3,0,0.7,0.1,1,0.2l1.6,0.5l1.6,0.6
		l1.6,0.6c0.6,0.2,1.1,0.4,1.6,0.6c1.6,0.7,3.2,1.2,4.9,1.6c1.7,0.4,3.4,0.7,5.2,0.9c1.8,0.2,3.5,0.2,5.3,0.2
		c1.8-0.1,3.6-0.3,5.4-0.6c1.3-0.3,2.5-0.6,3.7-1.1c1.2-0.4,2.4-0.9,3.6-1.4c1.2-0.5,2.3-1.1,3.4-1.8c1.1-0.7,2.2-1.4,3.2-2.2
		c0.4-0.3,0.8-0.6,1.1-1c0.3-0.4,0.6-0.7,0.8-1.1c0.2-0.4,0.4-0.8,0.5-1.3c0.1-0.4,0.2-0.9,0.2-1.3c0.4-3.7,0.8-7.3,1.3-11
		s0.9-7.3,1.3-10.9s0.8-7.3,1.2-10.9s0.8-7.3,1.1-10.9c0.5-5,1.1-10,1.7-15.1c0.6-5,1.4-10,2.2-15c0.8-5,1.7-10,2.6-14.9
		c0.9-5,1.9-9.9,3-14.8c0.3-1.6,0.7-3.2,1-4.8s0.7-3.2,1-4.8l1-4.8c0.3-1.6,0.7-3.2,1-4.8c0.1-0.5,0.2-1,0.3-1.5s0.3-1,0.4-1.5
		s0.3-1.1,0.5-1.7s0.3-1.2,0.5-1.9l1.2,0.4l1,0.4l0.9,0.3L1325.2,998.5z"/>
	<path class="st3" d="M1122.6,1173.6c2.7,1.1,5.4,2.5,7.9,3.9c2.5,1.5,5,3.1,7.3,4.8c2.3,1.7,4.5,3.6,6.6,5.6c2.1,2,4,4.2,5.8,6.4
		c2,2.6,3.9,5.3,5.5,8.2c3.2,5.7,5.5,11.9,6.8,18.3c0.6,3.3,1,6.6,1.2,9.9c0,0.2,0,0.3,0,0.5s0,0.3,0,0.5s0,0.3,0,0.5s0,0.3-0.1,0.5
		s0,0.2-0.1,0.3s-0.1,0.2-0.1,0.3l-0.1,0.3l-0.1,0.3l-0.1,0.1l-0.1,0.1l-0.1,0.1h-0.1c-2.2,0.4-4.4,0.7-6.6,1
		c-2.2,0.3-4.4,0.4-6.6,0.5s-4.4,0.1-6.5,0s-4.3-0.2-6.5-0.4l-1.1-0.2c-0.3-0.1-0.7-0.2-1-0.3s-0.7-0.2-1-0.3s-0.7-0.2-1-0.4
		c-1-0.4-1.9-0.9-2.8-1.5c-0.9-0.6-1.6-1.3-2.4-2c-1.4-1.5-2.5-3.3-3.2-5.3c-1.2-3-2.9-5.9-4.9-8.5c-2-2.6-4.4-4.9-7.1-6.8
		c-0.7-0.5-1.3-1-2-1.5s-1.4-0.9-2.1-1.3s-1.4-0.8-2.1-1.2s-1.5-0.7-2.2-1c-3.8-1.6-7.9-2.6-12-2.9c-4.2-0.3-8.4,0-12.5,0.9
		c-8.6,1.9-16.4,6.3-22.4,12.7c-0.5,0.6-1,1.2-1.6,1.7s-1,1.2-1.4,1.8s-0.9,1.2-1.3,1.9s-0.8,1.3-1.2,1.9c-1.2,1.8-2.3,3.6-3.3,5.5
		c-1.9,3.7-3.3,7.7-4.2,11.9c-0.4,2-0.7,4.1-0.8,6.2c-0.1,2.7,0.2,5.5,0.8,8.2c1.3,5.2,3.9,10,7.7,13.9c1.9,2,4.2,3.7,6.6,5.1
		c0.6,0.3,1.1,0.7,1.7,1s1.2,0.6,1.8,1l1.8,0.9c0.6,0.3,1.2,0.6,1.8,0.8s1,0.4,1.6,0.7s1.1,0.4,1.6,0.6l1.6,0.6l1.6,0.5
		c1.3,0.4,2.6,0.7,4,0.9c2.8,0.5,5.6,0.6,8.4,0.4c1.4-0.1,2.8-0.3,4.2-0.6c1.1-0.3,2.3-0.6,3.5-0.7c1.1-0.1,2.3-0.2,3.4-0.1
		c2.2,0.1,4.3,0.6,6.3,1.5c1,0.4,1.9,0.9,2.8,1.6c0.9,0.6,1.7,1.3,2.4,2c0.7,0.8,1.4,1.6,2,2.5c0.6,0.9,1.1,1.9,1.5,2.9l1.9,3.1
		c0.6,1,1.2,2.1,1.8,3.1l1.8,3.1c0.6,1,1.2,2.1,1.8,3.1c0.1,0.2,0.3,0.5,0.4,0.7s0.2,0.5,0.4,0.8l0.4,0.9l0.4,1
		c-1.9,1.2-3.9,2.3-5.9,3.3c-2,1-4.1,1.9-6.2,2.7s-4.2,1.5-6.4,2.1s-4.3,1.1-6.5,1.5c-4.2,0.8-8.4,1.2-12.7,1.4
		c-4.1,0.1-8.3,0-12.3-0.5c-4-0.5-7.9-1.2-11.8-2.2c-3.8-1-7.5-2.3-11.1-3.9c-4.1-1.8-8-4-11.7-6.5c-3.7-2.5-7.1-5.3-10.2-8.4
		c-3.1-3.1-6-6.5-8.4-10.2c-2.5-3.7-4.6-7.7-6.3-11.8c-1.8-4.3-3-8.8-3.8-13.4c-0.8-4.6-1-9.3-0.8-14c0.2-4.7,1-9.4,2.2-14
		c1.2-4.7,2.9-9.3,5.1-13.7c1.3-3,2.8-5.9,4.5-8.7c1.7-2.8,3.5-5.5,5.5-8.1c4.1-5.3,8.7-10.1,13.9-14.3c10.5-9,23.1-15.3,36.7-18.3
		c6.6-1.5,13.3-2.1,20.1-1.8c6.7,0.2,13.4,1.4,19.8,3.3c0.9,0.2,1.7,0.5,2.6,0.7s1.7,0.5,2.5,0.8s1.7,0.6,2.5,0.9
		S1121.8,1173.2,1122.6,1173.6z"/>
	<path class="st4" d="M1846.1,364.4c18.1,6.7,34.6,16.9,48.6,30.1c12.8,12.1,22.7,26.9,29.1,43.2c6.3,16.2,8.7,33.6,7.2,50.8
		c-1.8,18.6-7.7,36.6-17.3,52.7L936.8,2196c-11.7,19.9-26.9,37.4-45,51.8c-17.2,13.7-36.8,24-57.7,30.6c-20.3,6.4-41.7,8.9-63,7.3
		c-21.4-1.7-42.2-7.8-61.1-18l-1.7-0.9l-1.7-1l-1.7-1l-1.7-1l-642-390.2c-16.5-10-30.4-23.7-40.6-40c-10-16.1-16.5-34.2-19.1-53
		c-2.7-19.7-1.7-39.7,2.9-59.1c5-20.8,13.7-40.6,25.6-58.5l981.4-1476.2c10.1-15,22.6-28.1,37.1-38.9c29.2-21.7,64.3-34,100.6-35.3
		c17.8-0.7,35.6,1.8,52.5,7.3l1.5,0.5l1.5,0.5l1.5,0.5l1.5,0.6L1846.1,364.4z M1859.8,548.9c6.1-11.2,9.9-23.6,11-36.3
		c1-11.5-0.7-23.1-4.8-33.9c-4.2-10.7-10.7-20.4-19-28.4c-9.1-8.6-19.8-15.3-31.6-19.7l-277.8-107.4c-4.4,7-10.1,13.1-16.7,18.1
		c-6.7,5-14.1,9-22.1,11.7c-8,2.7-16.3,4.2-24.7,4.4c-8.4,0.2-16.7-1.1-24.6-3.7c-7.8-2.9-15-7.4-21.1-13.1
		c-5.3-5-9.5-11.1-12.2-17.9c-2.5-6.6-3.5-13.6-2.8-20.6c0.8-7.5,3.2-14.8,7-21.3l-257.6-102.5c-12-4-24.6-6-37.3-5.8
		c-12.4,0.2-24.8,2.2-36.5,6.2c-11.6,3.9-22.5,9.5-32.4,16.8c-9.8,7.1-18.2,15.9-24.9,26L84.7,1652c-7.7,12.5-13.3,26.1-16.5,40.4
		c-2.9,12.9-3.4,26.1-1.4,39.2c1.8,12.2,6.2,23.9,12.9,34.2c6.8,10.4,15.9,19.1,26.5,25.4l656,391.3c13.4,7.2,28.1,11.7,43.2,13.1
		c14.5,1.4,29.1,0,43.1-4.2c14-4.2,27.1-11,38.6-20c12-9.4,22.1-21,29.9-34.1L1859.8,548.9 M1454.1,290.9l-0.2,0.3l-0.2,0.3
		c0,0.1-0.1,0.2-0.2,0.3s-0.1,0.2-0.2,0.3c-1.6,2.8-2.7,6-3,9.3c-0.3,3,0.1,6.1,1.2,8.9c1.1,2.9,2.8,5.5,5,7.6
		c2.4,2.3,5.3,4.2,8.5,5.4l0.3,0.1l0.3,0.1l0.3,0.1l0.3,0.1c3.5,1.1,7.1,1.7,10.7,1.6c3.6-0.1,7.3-0.7,10.7-1.9
		c3.4-1.2,6.7-2.9,9.6-5.1c2.9-2.2,5.3-4.8,7.3-7.9l0.2-0.3c0-0.1,0.1-0.2,0.2-0.3l0.2-0.3l0.2-0.3c0.2-0.4,0.4-0.7,0.6-1.1
		s0.4-0.7,0.5-1.1s0.3-0.8,0.5-1.1s0.3-0.8,0.4-1.1c0.9-2.6,1.2-5.4,1.1-8.2c-0.2-2.7-0.9-5.2-2.1-7.6c-1.2-2.4-2.9-4.6-5-6.4
		c-2.3-2-4.9-3.5-7.7-4.6l-0.3-0.1l-0.3-0.1l-0.3-0.1l-0.3-0.1c-2.9-1-5.9-1.5-9-1.5c-6.2-0.1-12.4,1.4-17.8,4.4
		c-2.7,1.5-5.2,3.3-7.3,5.5c-0.4,0.4-0.7,0.8-1.1,1.1s-0.7,0.8-1,1.2s-0.7,0.8-1,1.3S1454.3,290.4,1454.1,290.9"/>
	<path class="st5" d="M1492.3,277.6l0.3,0.1l0.3,0.1l0.3,0.1l0.3,0.1c2.8,1.1,5.4,2.6,7.7,4.6c2.1,1.8,3.8,4,5,6.4
		c1.2,2.4,1.9,5,2.1,7.6c0.2,2.8-0.2,5.6-1.1,8.2c-0.1,0.4-0.2,0.8-0.4,1.1s-0.3,0.8-0.4,1.1s-0.3,0.8-0.5,1.1s-0.4,0.8-0.6,1.1
		l-0.2,0.3l-0.2,0.3l-0.2,0.3l-0.2,0.3c-1.9,3-4.4,5.7-7.3,7.9c-2.9,2.2-6.1,3.9-9.6,5.1c-3.5,1.2-7.1,1.8-10.7,1.9
		c-3.6,0.1-7.3-0.5-10.7-1.6l-0.3-0.1l-0.3-0.1l-0.3-0.1l-0.3-0.1c-3.2-1.2-6.1-3-8.5-5.4c-2.2-2.1-3.9-4.7-5-7.6
		c-1.1-2.8-1.5-5.9-1.2-8.9c0.3-3.3,1.3-6.4,2.9-9.3c0.1-0.1,0.1-0.2,0.2-0.3c0.1-0.1,0.1-0.2,0.2-0.3l0.2-0.3l0.2-0.3
		c0.3-0.5,0.6-0.9,0.9-1.3s0.6-0.9,1-1.3s0.7-0.8,1-1.2s0.7-0.8,1.1-1.1c2.2-2.2,4.6-4,7.3-5.5c2.7-1.5,5.6-2.6,8.6-3.4
		c3-0.7,6.1-1.1,9.2-1C1486.3,276.1,1489.3,276.7,1492.3,277.6z"/>
	<path class="st3" d="M954,774.8c0.6,0.3,1.2,0.6,1.7,1c0.4,0.2,0.6,0.6,0.8,1c0.1,0.4,0,0.9-0.2,1.3c-0.3,0.6-0.6,1.3-1,1.8
		c-1,1.6-2.1,3.3-3.2,4.9c-1.1,1.6-2.1,3.3-3.2,4.9l-3.2,4.9c-1.1,1.6-2.2,3.3-3.2,4.9c-2.6,3.9-5.1,7.8-7.7,11.8l-7.8,11.7
		l-7.7,11.8c-2.6,3.9-5.1,7.9-7.7,11.8c-0.8,1.2-1.5,2.4-2.3,3.7s-1.5,2.5-2.2,3.7s-1.5,2.5-2.2,3.7s-1.5,2.5-2.3,3.7
		c-1.9,3.1-3.9,6.2-6,9.2s-4.3,6-6.5,9s-4.6,5.8-7.1,8.7s-5,5.6-7.6,8.3c-2.1,2.1-4.4,4.2-6.7,6.1c-2.4,1.9-4.8,3.7-7.4,5.3
		c-5.1,3.3-10.6,6-16.3,8c-2.4,0.8-4.8,1.5-7.3,2.1c-2.4,0.6-4.9,1-7.3,1.3c-2.4,0.3-4.9,0.4-7.3,0.5c-2.4,0-4.9-0.1-7.3-0.4
		c-2.1-0.2-4.2-0.5-6.2-0.8s-4-0.8-6-1.2s-3.9-1-5.8-1.7s-3.8-1.3-5.6-2c-2.9-1.2-5.8-2.6-8.6-4.2c-2.7-1.6-5.3-3.3-7.8-5.2
		c-2.5-1.9-4.8-3.9-7-6.2c-2.2-2.2-4.2-4.5-6-7c-3.1-4-5.5-8.4-7.2-13.1c-1.7-4.7-2.7-9.6-3-14.6c-0.3-5.1,0.2-10.3,1.3-15.3
		c1.2-5.3,3.1-10.4,5.6-15.2c1.5-3.4,3.3-6.6,5.3-9.8c2-3.2,4.2-6.2,6.5-9.2c2.4-3,5-5.8,7.7-8.4c2.8-2.7,5.7-5.2,8.8-7.5
		c7.6-5.9,16.3-10.3,25.6-12.9c4.5-1.3,9.2-2.1,13.9-2.5c4.6-0.4,9.3-0.3,13.9,0.3c1.7,0.2,3.4,0.4,5.1,0.7c1.7,0.3,3.3,0.6,5,1
		c1.6,0.4,3.2,0.8,4.8,1.4s3.1,1.1,4.7,1.7c2.2,0.9,4.3,1.9,6.4,3c2.1,1.1,4.1,2.3,6,3.6c3.8,2.6,7.4,5.6,10.5,8.9l1.1,1.2l1.1,1.2
		l1.1,1.2l1.1,1.2h0.1h0.9c0.2-0.3,0.4-0.5,0.6-0.8l0.7-0.9c0.2-0.3,0.5-0.6,0.7-0.9s0.5-0.6,0.7-1c1.4-2.1,2.8-4.2,4.2-6.3
		c1.4-2.1,2.8-4.2,4.2-6.3s2.8-4.2,4.1-6.3s2.7-4.2,4-6.3c1.6-2.6,3.7-4.9,6.2-6.8c2.4-1.9,5.1-3.3,8-4.3c2.8-1,5.8-1.5,8.8-1.5
		c3,0,5.9,0.5,8.7,1.6l0.2,0.1l0.1,0.1l0.2,0.1l0.1,0.1l0.3,0.1l0.3,0.1l0.3,0.1l0.3,0.2c1,0.5,1.9,1,2.9,1.5s2,0.9,3,1.4l3,1.4
		C952,773.9,953,774.4,954,774.8z M858,859.3c2.2-3.4,3.8-7.3,4.5-11.3c0.7-3.7,0.5-7.5-0.4-11.1c-0.9-3.5-2.6-6.8-4.9-9.6
		c-2.5-2.9-5.6-5.3-9.2-6.9l-0.3-0.1l-0.3-0.1l-0.3-0.1l-0.3-0.1l-0.9-0.3l-0.9-0.3l-0.9-0.3l-0.9-0.3c-1.8-0.5-3.6-0.8-5.5-1
		c-1.9-0.2-3.8-0.2-5.7,0c-1.9,0.2-3.8,0.5-5.7,1c-1.9,0.5-3.8,1.2-5.6,2c-2,1-4,2.1-5.9,3.4c-1.9,1.2-3.7,2.6-5.3,4.1
		c-1.7,1.5-3.2,3-4.7,4.7c-2.4,3-4.6,6.2-6.5,9.6c-1.5,2.9-2.7,6-3.5,9.1c-0.4,1.6-0.7,3.1-0.8,4.7c-0.3,2.7-0.1,5.5,0.6,8.2
		c1.2,5.1,4.1,9.7,8.1,13c2.1,1.7,4.4,3.1,6.9,4.1c0.8,0.3,1.6,0.6,2.5,0.9s1.7,0.5,2.6,0.7s1.8,0.3,2.7,0.5s1.9,0.2,2.8,0.2
		c1.9,0.1,3.8,0.1,5.6-0.1c1.9-0.2,3.8-0.6,5.6-1.1c1.9-0.5,3.7-1.2,5.4-2c1.8-0.8,3.5-1.8,5.1-2.9c1.3-0.9,2.6-1.9,3.9-2.9
		c1.2-1,2.4-2.1,3.5-3.3c1.1-1.1,2.1-2.4,3-3.6c0.9-1.2,1.8-2.5,2.5-3.9l0.8-1.3c0.3-0.4,0.5-0.8,0.8-1.2s0.5-0.7,0.7-1.1
		S857.8,859.6,858,859.3"/>
	<path class="st5" d="M1093.9,935.9c3,1.4,5.8,3.3,8.2,5.7c4.5,4.6,7.1,10.7,7.3,17.1c0.1,3.4-0.4,6.8-1.4,10
		c-0.4,1.1-0.8,2.1-1.2,3.2s-0.9,2.1-1.3,3.1s-0.9,2.1-1.4,3.1s-1,2.1-1.5,3.1c-1.1,1.6-2.3,3.2-3.6,4.7c-1.3,1.5-2.7,3-4.2,4.3
		c-1.5,1.4-3,2.7-4.7,3.8c-1.7,1.2-3.4,2.3-5.2,3.3c-1.9,1-3.9,1.9-6,2.6c-2.1,0.7-4.2,1.1-6.3,1.4c-2.1,0.3-4.2,0.3-6.3,0.2
		c-2.1-0.1-4.2-0.5-6.2-1.1l-1.3-0.3l-1.3-0.4c-0.4-0.1-0.8-0.3-1.3-0.4s-0.8-0.3-1.2-0.5c-1.7-0.7-3.4-1.6-4.9-2.6
		c-1.5-1-2.9-2.1-4.2-3.4c-2.6-2.6-4.6-5.6-5.9-9c-0.5-1.2-0.8-2.5-1.1-3.7c-0.3-1.3-0.4-2.6-0.5-3.9c-0.1-1.3,0-2.6,0.1-4
		c0.1-1.3,0.4-2.7,0.7-4c0.5-2.6,1.3-5.1,2.3-7.5c1-2.5,2.2-4.9,3.7-7.1c1.5-2.3,3.2-4.5,5-6.5c1.9-2.1,3.9-4,6.2-5.7
		c2.4-2.1,5.2-3.9,8.1-5.3c2.9-1.4,5.9-2.4,9-2.9c3.1-0.6,6.2-0.7,9.3-0.5c3,0.3,6,1,8.9,2.1l0.6,0.3l0.6,0.3l0.6,0.3L1093.9,935.9z
		"/>
	<path class="st5" d="M1184.1,1060.7c-2.9-1.5-5.5-3.5-7.7-5.9c-4.2-4.6-6.6-10.6-6.8-16.8c-0.1-3.3,0.4-6.5,1.5-9.6
		c0.4-1.1,0.8-2.1,1.2-3.2c0.4-1.1,0.8-2.1,1.3-3.2s0.9-2.1,1.3-3.2s1-2.1,1.4-3.1c1.4-2.2,2.9-4.2,4.7-6.2c1.7-1.9,3.6-3.7,5.7-5.3
		c2.1-1.6,4.3-3.1,6.6-4.3c2.3-1.3,4.8-2.4,7.3-3.2c2-0.6,4.1-1.1,6.2-1.4c2-0.3,4.1-0.4,6.1-0.3c2,0.1,3.9,0.3,5.8,0.7
		c1.9,0.4,3.7,0.9,5.5,1.7c1.9,0.8,3.8,1.8,5.5,2.9c1.7,1.1,3.3,2.5,4.7,4c1.4,1.5,2.7,3.1,3.7,4.9c1.1,1.8,1.9,3.8,2.5,5.8
		c0.6,1.9,0.9,3.8,1.1,5.7c0.2,1.9,0.2,3.9,0,5.8c-0.2,2-0.6,3.9-1.2,5.8c-0.6,2-1.4,3.9-2.3,5.7c-0.9,2.1-2,4.2-3.2,6.1
		c-1.2,2-2.6,3.9-4.2,5.7c-1.5,1.8-3.2,3.5-5,5.1c-1.8,1.6-3.8,3.1-5.8,4.4c-4.9,3-10.5,4.9-16.3,5.5c-2.8,0.3-5.6,0.2-8.4-0.2
		c-2.7-0.4-5.4-1.1-8-2.1l-0.8-0.4l-0.8-0.4l-0.8-0.4L1184.1,1060.7z"/>
	<path class="st3" d="M1203.6,1188.6c0.3,0.1,0.5,0.2,0.8,0.4s0.6,0.3,1,0.5l1.1,0.6l1.3,0.6c1.1,0.5,2.2,1.1,3.2,1.7
		s2.1,1.1,3.2,1.7s2.1,1.2,3.1,1.8s2,1.2,3,1.9c2.5,1.4,4.6,3.3,6.3,5.6c1.6,2.2,2.7,4.7,3.4,7.3c0.6,2.7,0.7,5.5,0.2,8.2
		c-0.5,2.9-1.6,5.7-3.1,8.2c-0.4,0.7-0.8,1.5-1.3,2.2c-0.4,0.7-0.9,1.4-1.3,2.2c-0.4,0.7-0.9,1.4-1.3,2.2l-1.3,2.2l-8.1,13.2
		l-8.2,13.2l-8.2,13.2l-8.2,13.2c-0.2,0.4-0.4,0.7-0.6,1.1c-0.2,0.4-0.4,0.7-0.6,1.1l-0.6,1.1c-0.2,0.4-0.4,0.7-0.6,1.1l0.8,0.7
		l1.2-0.5l1.2-0.5l1.2-0.5l1.2-0.6c3.4-1.8,6.9-3.6,10.4-5.3c3.5-1.7,7-3.4,10.5-5.1c3.5-1.6,7.1-3.2,10.7-4.8
		c3.6-1.5,7.2-3,10.8-4.5c1.1-0.4,2.1-0.8,3.2-1.2s2.2-0.7,3.3-1.1l3.3-1l3.3-1c1-0.3,2-0.4,3-0.5c1-0.1,2-0.1,3,0
		c1,0.1,2,0.2,3,0.4c1,0.2,1.9,0.5,2.8,0.9c0.6,0.2,1.2,0.4,1.9,0.7l1.8,0.7l1.8,0.7l1.8,0.8l1.7,0.7l1.7,0.8l1.7,0.8l1.7,0.8
		c1.6,0.7,3.1,1.5,4.6,2.2l4.6,2.3l4.6,2.3l4.6,2.3l0.9,0.5l1,0.6l1.2,0.7l1.4,0.9l-3.5,1.3l-3.2,1.2l-3,1.1l-2.9,1.1
		c-5,1.8-10.1,3.7-15.1,5.6c-5,1.9-10,3.8-15,5.8c-5,2-10,4-14.9,6c-4.9,2.1-9.8,4.2-14.7,6.5c-1,0.4-1.7,0.8-2.3,1.1
		c-0.5,0.2-0.9,0.6-1.2,1c-0.3,0.4-0.4,0.9-0.4,1.4c0,0.8,0,1.6,0.1,2.4c0.4,4.4,0.8,8.9,1.1,13.3c0.4,4.4,0.8,8.9,1.2,13.3
		c0.4,4.5,0.8,8.9,1.2,13.4c0.4,4.5,0.8,8.9,1.2,13.4c0.1,1.1,0.2,2.3,0.3,3.4s0.2,2.3,0.3,3.4l0.3,3.4c0.1,1.1,0.2,2.3,0.3,3.4
		c-0.1,0.1-0.3,0.2-0.4,0.3l-0.3,0.3c-0.1,0.1-0.2,0.2-0.3,0.2c-0.1,0-0.2,0.1-0.3,0.1c-1.7,0.2-3.3,0.4-5,0.6s-3.3,0.3-5,0.4
		s-3.3,0.2-5,0.3s-3.3,0.1-5,0.2c-0.7,0-1.4-0.1-2.1-0.2s-1.4-0.2-2.1-0.4s-1.3-0.3-2-0.6c-0.6-0.2-1.3-0.5-1.9-0.7
		c-1.5-0.6-2.9-1.5-4.1-2.4c-1.3-0.9-2.4-2-3.4-3.3c-2-2.5-3.4-5.4-4-8.6c-0.3-1.1-0.6-2.2-0.9-3.3s-0.5-2.2-0.7-3.3
		s-0.4-2.2-0.5-3.4s-0.2-2.3-0.3-3.4c-0.3-4.1-0.6-8.3-0.9-12.4s-0.6-8.3-0.8-12.4l-0.8-12.4c-0.3-4.1-0.5-8.2-0.8-12.3
		c0-0.4,0-0.7-0.1-1.1l-0.1-1.1c0-0.4,0-0.7-0.1-1.1l-0.1-1.1l-1.3-0.2l-2.5,4.1l-6.7,10.8l-6.7,10.8c-2.2,3.6-4.5,7.2-6.7,10.8
		l-6.7,10.8l-0.5,0.8l-0.5,0.8l-0.5,0.8l-0.5,0.8c-0.2,0.4-0.5,0.8-0.8,1.1c-0.3,0.3-0.6,0.5-1,0.7c-0.4,0.1-0.7,0.2-1.1,0.2
		c-0.4,0-0.9-0.1-1.3-0.3c-1.7-0.8-3.4-1.6-5-2.4c-1.6-0.8-3.2-1.7-4.8-2.5s-3-1.8-4.5-2.7s-2.9-1.9-4.3-2.9
		c-4.3-3.3-7.2-8.2-8.1-13.6c-0.4-2.7-0.3-5.4,0.2-8c0.6-2.8,1.6-5.5,3.2-7.9c0.2-0.4,0.4-0.8,0.7-1.2l0.7-1.1l0.7-1.1
		c0.2-0.4,0.5-0.8,0.7-1.1l18.7-30.1l18.7-30l18.6-29.9l18.5-29.7c0.8-1.3,1.5-2.4,2-3.3c0.4-0.7,0.9-1.3,1.5-1.8
		c0.4-0.4,0.9-0.6,1.5-0.6C1202.3,1188.1,1203,1188.3,1203.6,1188.6z"/>
	<path class="st5" d="M1815.3,430.5c11.7,4.4,22.5,11.1,31.6,19.7c8.3,7.9,14.9,17.4,19.3,28c4.2,10.4,6.1,21.6,5.5,32.8
		c-0.7,12-4.1,23.6-9.8,34.2L916.9,2137.4c-7.8,13.1-17.9,24.7-29.8,34.1c-11.4,9-24.3,15.9-38.1,20.3c-13.5,4.3-27.6,6-41.7,4.9
		c-14.2-1-28-5-40.6-11.7l-660.5-393.8c-10.7-6.3-19.7-15-26.6-25.4c-6.7-10.2-11.2-21.7-13.2-33.8c-2.1-12.6-1.9-25.5,0.7-38
		c2.7-13.5,7.8-26.3,15-38.1l949.5-1434.7c6.7-10,15.1-18.8,24.8-26c9.7-7.2,20.5-12.9,32-16.9c11.4-4,23.3-6.2,35.4-6.6
		c11.9-0.4,23.7,1.3,35,5l263,101.5c-4.1,6.9-6.8,14.6-7.8,22.6c-0.9,7.1-0.2,14.4,2.1,21.2c2.3,6.7,6.1,12.8,11.2,17.8
		c5.6,5.5,12.2,9.8,19.5,12.5c8.4,2.9,17.3,4.3,26.2,4.3c8.7,0,17.3-1.4,25.5-4.1c8-2.6,15.6-6.5,22.4-11.6
		c6.6-4.9,12.3-11.1,16.7-18.1L1815.3,430.5z M1088.9,1035.9c11.1-3.3,21.3-9,30.1-16.5c2.9-2.5,5.6-5.1,8.1-8
		c0.7-0.8,1.4-1.5,2.1-2.3c0.7-0.8,1.4-1.6,2.1-2.4s1.4-1.6,2.1-2.4s1.4-1.6,2.1-2.4c0,0.4,0,0.8-0.1,1.1c0,0.4-0.1,0.8-0.2,1.1
		c-0.1,0.4-0.2,0.7-0.4,1.1c-0.2,0.4-0.3,0.7-0.5,1.1c-3.1,5.6-5.3,11.7-6.7,18c-1.3,6-1.6,12.2-1.1,18.3
		c1.1,12.2,6.2,23.8,14.4,32.9c2,2.1,4,4.2,6.2,6.1c2.2,1.9,4.5,3.7,6.9,5.4c4.9,3.4,10.1,6.3,15.6,8.5l1.9,0.8l1.9,0.7
		c0.6,0.2,1.3,0.5,1.9,0.7l2,0.6c2.1,0.7,4.2,1.3,6.4,1.9s4.3,1,6.6,1.3s4.4,0.6,6.7,0.8s4.5,0.2,6.8,0.2c4.7-0.1,9.4-0.7,14-1.7
		c4.6-1,9.1-2.4,13.4-4.3c4.3-1.8,8.5-4.1,12.4-6.7c3.9-2.6,7.6-5.6,11-8.9c2.1-1.9,4.1-3.9,6-5.9c1.9-2,3.7-4.1,5.5-6.3
		s3.4-4.3,5-6.6s3.1-4.5,4.6-6.8c5.1-8.2,10.2-16.4,15.3-24.5c5.1-8.2,10.2-16.3,15.3-24.5l15.2-24.4l15.1-24.3l0.2-0.4l0.2-0.4
		l0.2-0.4c0.1-0.1,0.2-0.3,0.2-0.4c0.3-0.6,0.6-1.2,0.9-1.8c0.2-0.4,0.2-0.8,0.1-1.2c-0.1-0.4-0.4-0.8-0.8-1c-0.6-0.4-1.2-0.7-1.8-1
		c-1.2-0.6-2.4-1.2-3.7-1.8s-2.5-1.2-3.7-1.7s-2.5-1.2-3.7-1.7s-2.5-1.1-3.7-1.7l-0.3-0.1l-0.3-0.1l-0.2-0.1l-0.2-0.1
		c-2.8-1.1-5.8-1.7-8.8-1.7c-6,0-11.9,2-16.7,5.6c-2.4,1.9-4.4,4.1-6,6.7c-1.3,2.3-2.7,4.6-4.1,6.9s-2.8,4.6-4.3,6.9l-4.3,6.8
		c-1.5,2.3-2.9,4.5-4.3,6.8c-0.3,0.4-0.5,0.7-0.8,1.1s-0.5,0.7-0.8,1.1l-0.8,1l-0.9,1c-0.3-0.3-0.6-0.5-0.8-0.8l-0.7-0.6
		c-0.2-0.2-0.4-0.4-0.6-0.6s-0.4-0.4-0.5-0.6c-1.8-2.2-3.8-4.2-5.9-6.1c-2.1-1.9-4.3-3.7-6.7-5.3c-2.3-1.7-4.8-3.2-7.3-4.5
		c-2.6-1.4-5.2-2.6-7.9-3.7c-0.8-0.3-1.5-0.6-2.3-0.9s-1.6-0.6-2.3-0.8s-1.6-0.5-2.4-0.8s-1.6-0.5-2.4-0.7c-3.4-1-6.8-1.7-10.3-2.2
		c-3.5-0.5-7-0.7-10.6-0.7c-3.6,0-7.1,0.3-10.7,0.8c-3.6,0.5-7.1,1.3-10.6,2.3c-3.6,1.1-7.1,2.4-10.5,4c-6.8,3.1-13.1,7.2-18.7,12
		c-2.8,2.4-5.4,5-7.9,7.7l-0.8,0.8l-0.8,0.8l-0.8,0.8l-0.8,0.8c0.1-0.4,0.2-0.9,0.4-1.3c0.1-0.4,0.3-0.9,0.5-1.3
		c0.2-0.4,0.4-0.8,0.6-1.2c0.2-0.4,0.5-0.8,0.8-1.2l13.6-21.5c4.5-7.1,9-14.3,13.5-21.4c4.5-7.1,9-14.2,13.5-21.3
		c4.5-7.1,9-14.2,13.5-21.3c0.2-0.3,0.3-0.5,0.5-0.8l0.5-0.8l0.5-0.8c0.2-0.3,0.3-0.5,0.5-0.8c0.3-0.5,0.6-1.1,0.8-1.7
		c0.2-0.4,0.2-0.8,0.1-1.2c-0.1-0.4-0.4-0.7-0.7-0.9c-0.5-0.4-1-0.7-1.6-0.9l-4-1.9l-4-1.9c-1.3-0.6-2.7-1.2-4-1.8s-2.7-1.2-4-1.8
		c-2.4-0.9-4.8-1.4-7.4-1.6c-2.5-0.1-5.1,0.1-7.6,0.8c-2.5,0.6-4.9,1.6-7.1,2.9c-2.3,1.3-4.3,3-6.1,4.9c-0.5,0.6-1.1,1.2-1.6,1.9
		c-0.5,0.6-1,1.3-1.5,1.9s-1,1.3-1.4,2s-0.9,1.3-1.3,2c-1.2,1.9-2.5,3.8-3.7,5.7s-2.4,3.8-3.6,5.7l-3.6,5.7
		c-1.2,1.9-2.4,3.8-3.6,5.7c-0.2,0.3-0.4,0.6-0.6,0.9l-0.7,1l-0.8,1.1l-0.9,1.2l-1-0.9l-0.9-0.8l-0.8-0.8c-0.2-0.3-0.5-0.5-0.7-0.8
		c-1.7-2-3.6-3.9-5.6-5.7c-2-1.8-4.1-3.5-6.3-5c-2.2-1.6-4.5-3-6.9-4.2c-2.4-1.3-4.9-2.5-7.4-3.5c-1.3-0.5-2.7-1-4-1.5
		s-2.8-0.9-4.2-1.3s-2.8-0.7-4.3-1s-2.9-0.6-4.3-0.8c-4.8-0.9-9.7-1.3-14.6-1.2c-4.9,0.1-9.8,0.8-14.6,1.9
		c-9.8,2.3-19,6.4-27.2,12.3c-0.6,0.3-1.1,0.6-1.6,1c-0.5,0.4-1,0.8-1.5,1.2c-0.5,0.4-0.9,0.9-1.3,1.4c-0.4,0.5-0.8,1-1.1,1.5
		c0.7,0.4,1.4,0.8,2.1,1.2s1.4,0.8,2.1,1.1s1.4,0.7,2.2,1s1.5,0.7,2.2,1s1.8,0.7,2.7,1s1.9,0.6,2.8,0.9s1.9,0.5,2.9,0.8
		s1.9,0.5,2.9,0.7c3.1,0.5,6.2,0.8,9.3,0.9c3.1,0.1,6.2,0,9.3-0.4c3.2-0.4,6.3-0.9,9.4-1.7c3.1-0.8,6.2-1.8,9.2-3l0.3,0.9l-2.7,1.2
		l-2.7,1.2l-2.7,1.2c-0.9,0.4-1.8,0.8-2.7,1.3c-3.4,1.8-7,3.2-10.8,4.3c-3.6,1.1-7.4,1.7-11.2,2c-3.7,0.3-7.4,0.2-11.1-0.2
		c-3.6-0.5-7.2-1.3-10.6-2.5l-2.2-0.8l-2.2-0.8l-2.2-0.8l-2.2-0.7c-0.8-0.3-1.5-0.5-2.3-0.6c-0.5-0.1-1-0.1-1.5,0.1
		c-0.5,0.2-1,0.5-1.3,0.9c-0.5,0.5-1,1-1.7,1.8c-1.3,1.5-2.5,3.1-3.7,4.7c-1.2,1.6-2.3,3.2-3.3,4.9s-2.1,3.3-3,5s-1.8,3.4-2.6,5.2
		c-2,3.9-3.6,8.1-4.7,12.3c-1.1,4.1-1.8,8.3-2,12.6c-0.2,4.2,0.1,8.3,0.8,12.4c0.7,4.1,1.9,8.1,3.5,11.9c1.7,3.9,3.8,7.5,6.2,11
		c2.4,3.4,5.2,6.6,8.2,9.5c3.1,3,6.5,5.6,10.1,7.9c3.7,2.4,7.6,4.4,11.7,6.1l0.6,0.3l0.6,0.3l0.6,0.2l0.6,0.2c0.9,0.4,1.7,0.7,2.6,1
		s1.7,0.6,2.6,0.8l2.6,0.8c0.9,0.3,1.7,0.5,2.6,0.8c3.2,1,6.4,1.8,9.7,2.3c3.3,0.5,6.7,0.8,10,0.8c3.4,0,6.8-0.2,10.2-0.7
		C1082,1037.6,1085.4,1036.9,1088.9,1035.9 M787.8,798.2c-3.1,2.3-6,4.9-8.8,7.5c-2.7,2.6-5.3,5.4-7.7,8.4c-2.4,2.9-4.6,6-6.5,9.2
		c-2,3.1-3.7,6.4-5.3,9.8c-2.5,4.8-4.4,9.9-5.6,15.2c-1.1,5-1.6,10.1-1.3,15.3c0.3,5,1.3,9.8,3,14.5c1.7,4.7,4.1,9.1,7.2,13.1
		c1.8,2.5,3.8,4.8,6,7c2.2,2.2,4.5,4.3,7,6.1c2.5,1.9,5.1,3.6,7.8,5.2c2.8,1.6,5.6,3,8.6,4.2c1.8,0.8,3.7,1.4,5.6,2
		c1.9,0.6,3.8,1.1,5.8,1.7c2,0.5,4,0.9,6,1.2s4.1,0.6,6.2,0.8c2.4,0.3,4.8,0.4,7.3,0.4c2.5,0,4.9-0.2,7.3-0.4
		c2.5-0.3,4.9-0.7,7.3-1.3c2.5-0.6,4.9-1.3,7.3-2.1c2.9-1,5.7-2.2,8.4-3.5c2.7-1.3,5.4-2.8,7.9-4.5c2.6-1.6,5-3.4,7.4-5.3
		c2.4-1.9,4.6-3.9,6.7-6.1c2.6-2.7,5.2-5.5,7.6-8.3c2.5-2.8,4.8-5.7,7-8.6c2.3-2.9,4.4-5.9,6.5-9c2.1-3,4.1-6.1,6-9.2
		c0.8-1.2,1.6-2.5,2.3-3.7s1.5-2.5,2.2-3.7s1.5-2.5,2.2-3.7s1.5-2.5,2.3-3.7c2.6-3.9,5.1-7.9,7.7-11.8c2.6-3.9,5.1-7.9,7.7-11.8
		l7.7-11.8c2.6-3.9,5.1-7.8,7.7-11.8l3.2-4.9c1.1-1.6,2.2-3.3,3.2-4.9c1.1-1.6,2.1-3.3,3.2-4.9c1.1-1.6,2.1-3.3,3.2-4.9
		c0.4-0.6,0.7-1.2,1-1.8c0.2-0.4,0.2-0.8,0.2-1.3c-0.1-0.4-0.4-0.8-0.8-1c-0.6-0.4-1.1-0.7-1.8-1c-1-0.5-2-0.9-3-1.4l-3-1.4
		c-1-0.5-2-0.9-3-1.4s-2-1-2.9-1.5l-0.3-0.2l-0.3-0.2l-0.3-0.1l-0.3-0.1l-0.1-0.1l-0.1-0.1l-0.2-0.1l-0.2-0.1
		c-2.8-1.1-5.7-1.6-8.7-1.6c-3,0-6,0.5-8.8,1.5c-2.9,1-5.6,2.5-8,4.3c-2.5,1.9-4.5,4.2-6.2,6.8c-1.3,2.1-2.6,4.2-3.9,6.3
		s-2.7,4.2-4.1,6.3l-4.2,6.3c-1.4,2.1-2.8,4.2-4.2,6.3c-0.2,0.3-0.5,0.7-0.7,1l-0.7,0.9l-0.7,0.9l-0.6,0.8h-1l-1.1-1.2l-1.1-1.3
		c-0.4-0.4-0.7-0.8-1.1-1.2s-0.8-0.8-1.1-1.2c-1.6-1.7-3.2-3.3-5-4.7c-1.8-1.5-3.6-2.9-5.5-4.2c-1.9-1.3-3.9-2.5-6-3.6
		c-2.1-1.1-4.2-2.1-6.4-3c-1.5-0.6-3.1-1.2-4.7-1.7s-3.2-1-4.8-1.4s-3.3-0.8-5-1s-3.4-0.5-5.1-0.7c-4.6-0.6-9.3-0.7-13.9-0.3
		c-4.7,0.4-9.4,1.2-13.9,2.5c-4.6,1.3-9.1,3-13.3,5.2C795.8,792.6,791.7,795.2,787.8,798.2 M673.1,1042.3c0.7-2.5,1.5-4.9,2.5-7.3
		c1-2.4,2.2-4.7,3.5-7c1.3-2.3,2.8-4.5,4.4-6.6c1.6-2.2,3.3-4.2,5.2-6.2c1.6-1.7,3.2-3.3,5-4.8c1.8-1.5,3.6-2.9,5.5-4.2
		c1.9-1.3,3.9-2.5,6-3.5c2.1-1.1,4.2-2,6.4-2.8c3.1-0.9,6.3-1.6,9.5-2.1c3.1-0.4,6.2-0.6,9.3-0.4c3,0.1,6,0.5,9,1.1
		c2.9,0.6,5.7,1.5,8.4,2.7c1.5,0.6,3,1.4,4.5,2.2c1.4,0.8,2.8,1.7,4.2,2.7c1.3,1,2.6,2,3.8,3.1c1.2,1.1,2.4,2.3,3.5,3.6
		c0.7,0.9,1.4,1.9,2,2.9s1.3,2,1.8,3s1.1,2,1.6,3.1s1,2.1,1.4,3.2c0.4,1,0.8,2.1,1.4,3c0.6,0.9,1.2,1.8,2,2.6
		c0.8,0.8,1.6,1.5,2.5,2.1c0.9,0.6,1.9,1.2,2.9,1.6c0.5,0.2,1,0.4,1.5,0.6s1,0.3,1.5,0.4s1,0.2,1.6,0.3s1.1,0.1,1.7,0.2
		c2.1,0.1,4.2,0.1,6.4,0s4.3-0.1,6.5-0.3s4.4-0.2,6.6-0.4s4.4-0.3,6.7-0.3c0-0.4,0.1-0.8,0.1-1.1s0.1-0.6,0.1-0.8s0-0.5,0.1-0.7
		s0-0.4,0-0.6c0-4-0.4-8.1-1.1-12.1c-0.7-3.9-1.8-7.7-3.2-11.4c-1.4-3.7-3.1-7.2-5.2-10.5c-2.1-3.4-4.4-6.5-7.1-9.4
		c-3.8-4.4-8.1-8.3-12.9-11.7c-2.4-1.7-4.8-3.3-7.4-4.7c-2.6-1.4-5.3-2.7-8-3.9c-2.3-1-4.7-1.8-7.2-2.6c-2.4-0.8-4.9-1.4-7.5-2
		s-5.1-1-7.7-1.3s-5.3-0.6-8-0.7c-4.3-0.3-8.6-0.2-12.9,0.2c-4.4,0.4-8.7,1.1-12.9,2.1c-4.3,1-8.5,2.3-12.7,3.9
		c-4.2,1.6-8.3,3.5-12.2,5.7c-4.7,2.6-9.2,5.5-13.5,8.8c-4.2,3.2-8.2,6.7-11.9,10.5c-3.7,3.8-7.1,7.8-10.1,12
		c-3,4.2-5.7,8.7-8.1,13.3c-2.4,4.3-4.4,8.9-6,13.5c-1.6,4.5-2.8,9.2-3.5,13.9c-0.7,4.6-1,9.3-0.9,14c0.3,9.4,2.5,18.7,6.3,27.3
		c1.9,4.3,4.3,8.4,7.1,12.2c2.8,3.8,6,7.4,9.6,10.6c3.6,3.3,7.6,6.1,11.8,8.6c0.8,0.5,1.6,1,2.4,1.4s1.7,0.9,2.5,1.4
		s1.7,0.9,2.5,1.3s1.7,0.8,2.6,1.2c2.1,0.9,4.2,1.7,6.3,2.4c2.2,0.7,4.4,1.4,6.6,2c2.2,0.6,4.5,1,6.8,1.4s4.6,0.7,7,0.9
		c4.2,0.4,8.5,0.5,12.8,0.3c4.3-0.2,8.6-0.8,12.8-1.6c4.3-0.9,8.5-2,12.6-3.5c4.2-1.5,8.3-3.2,12.2-5.3l0.7-0.4l0.6-0.4l0.6-0.4
		c0.2-0.1,0.4-0.3,0.6-0.4c0-0.2,0-0.3-0.1-0.4s-0.1-0.3-0.1-0.4s-0.1-0.3-0.1-0.4c0-0.1-0.1-0.3-0.2-0.4c-0.8-1.5-1.7-3-2.5-4.5
		s-1.7-3-2.5-4.6s-1.7-3-2.6-4.5s-1.8-3-2.7-4.4c-0.4-0.7-0.8-1.3-1.3-1.9c-0.5-0.6-1-1.1-1.6-1.6c-0.6-0.5-1.2-0.9-1.8-1.3
		c-0.6-0.4-1.3-0.8-2-1.1c-0.8-0.3-1.7-0.6-2.5-0.8c-0.9-0.2-1.8-0.4-2.7-0.4c-0.9-0.1-1.9-0.1-2.8,0c-1,0.1-1.9,0.2-2.9,0.4
		c-0.9,0.2-1.8,0.3-2.7,0.4s-1.8,0.3-2.7,0.4l-2.6,0.3c-0.9,0.1-1.8,0.2-2.6,0.2c-1.9,0.1-3.8,0-5.7-0.1c-1.8-0.1-3.7-0.4-5.5-0.7
		c-1.8-0.3-3.5-0.7-5.3-1.3c-1.7-0.5-3.4-1.1-5-1.8c-1-0.4-2-0.9-2.9-1.4s-1.9-1-2.8-1.6s-1.8-1.1-2.6-1.8s-1.7-1.3-2.5-2
		c-3-2.2-5.7-4.9-7.9-7.9c-2.1-3-3.8-6.3-4.8-9.8c-1.1-3.6-1.6-7.3-1.6-11C671.3,1049.9,671.9,1046,673.1,1042.3 M1434.3,1071.2
		l0.1-0.2l0.1-0.2l0.1-0.2l0.1-0.2c1.4-1.8,2.5-3.8,3.1-6c0.6-2,0.7-4.2,0.4-6.2c-0.3-2.1-1.1-4-2.2-5.8c-1.2-1.8-2.8-3.4-4.7-4.5
		c-1.4-0.8-2.8-1.5-4.2-2.2s-2.8-1.4-4.3-2l-4.3-1.9l-4.3-2c-0.4-0.2-0.9-0.3-1.4-0.4c-0.4-0.1-0.9-0.1-1.3,0
		c-0.4,0.1-0.8,0.2-1.2,0.4c-0.4,0.2-0.7,0.5-1,0.8l-0.7,0.6l-0.7,0.6l-0.7,0.6l-0.7,0.6l-14.6,13l-14.6,12.9l-14.6,12.9l-14.6,12.9
		c-0.2,0.2-0.4,0.4-0.6,0.5l-0.7,0.5l-0.7,0.5l-0.7,0.5l-0.9-0.3c0.1-0.5,0.1-0.9,0.2-1.4s0.1-0.9,0.2-1.4s0.1-0.9,0.2-1.4
		s0.2-0.9,0.2-1.4c0.5-2.7,1-5.5,1.5-8.2s1-5.4,1.5-8.2l1.5-8.2l1.5-8.2c0.5-2.6,0.9-5.1,1.4-7.6s0.9-5.1,1.4-7.6s0.9-5.1,1.4-7.6
		s0.9-5.1,1.4-7.6c0.5-2,0.6-4,0.3-6c-0.2-1.9-0.8-3.8-1.8-5.5c-0.9-1.7-2.2-3.3-3.6-4.6c-1.6-1.4-3.4-2.5-5.3-3.2
		c-1.8-0.7-3.5-1.5-5.2-2.3s-3.4-1.6-5.1-2.4l-5.1-2.4c-1.7-0.8-3.4-1.6-5.1-2.4l-0.3-0.1l-0.3-0.1l-0.3-0.1l-0.3-0.1l-0.8-0.3
		l-0.9-0.3l-1-0.4l-1.2-0.4c-0.2,0.7-0.4,1.3-0.5,1.9s-0.3,1.2-0.5,1.7s-0.3,1-0.4,1.5s-0.2,1-0.3,1.5c-0.3,1.6-0.7,3.2-1,4.8
		l-1,4.8c-0.3,1.6-0.7,3.2-1,4.8s-0.7,3.2-1,4.8c-1.1,4.9-2.1,9.9-3,14.9c-0.9,5-1.8,9.9-2.6,14.9c-0.8,5-1.5,10-2.2,15
		s-1.2,10-1.7,15.1c-0.3,3.6-0.7,7.3-1.1,10.9s-0.8,7.3-1.3,10.9l-1.3,10.9c-0.4,3.6-0.8,7.3-1.3,11c0,0.5-0.1,0.9-0.2,1.3
		c-0.1,0.4-0.3,0.9-0.5,1.3c-0.2,0.4-0.5,0.8-0.8,1.1c-0.3,0.4-0.7,0.7-1.1,1c-1,0.8-2.1,1.5-3.2,2.2c-2.2,1.3-4.6,2.4-7,3.3
		c-1.2,0.4-2.5,0.8-3.7,1.1c-1.8,0.3-3.6,0.5-5.4,0.6c-1.8,0.1-3.6,0-5.3-0.2c-1.7-0.2-3.5-0.5-5.2-0.9c-1.7-0.4-3.3-1-4.9-1.6
		l-1.6-0.6l-1.6-0.6l-1.6-0.5l-1.7-0.5c-0.6-0.2-1.3-0.2-1.9,0c-0.3,0.1-0.6,0.3-0.9,0.5c-0.3,0.2-0.5,0.5-0.7,0.8
		c-1.3,1.5-2.5,3.2-3.4,5c-0.9,1.7-1.6,3.5-2.1,5.4c-0.5,1.8-0.8,3.7-0.8,5.6c0,1.9,0.2,3.8,0.6,5.6c1.2,3.9,3.2,7.6,6,10.6
		c1.4,1.5,3,2.9,4.7,4.1c1.8,1.2,3.6,2.3,5.6,3.1l0.3,0.2l0.3,0.1l0.3,0.1l0.3,0.1c2.9,1.2,5.8,2.1,8.9,2.7c3.1,0.6,6.2,0.9,9.3,0.8
		c3.2,0,6.3-0.4,9.5-1c3.2-0.7,6.3-1.6,9.3-2.9c2.9-1.1,5.8-2.4,8.7-3.8s5.6-2.8,8.3-4.4c2.7-1.6,5.4-3.2,8-5
		c2.6-1.8,5.1-3.6,7.5-5.6c4-3.1,8-6.3,11.9-9.4c4-3.2,7.9-6.3,11.8-9.5c3.9-3.2,7.8-6.4,11.8-9.6c3.9-3.2,7.8-6.5,11.7-9.7
		c4-3.4,8-6.8,12-10.2s8-6.9,12-10.3l11.9-10.6l11.9-10.3c0.4-0.3,0.8-0.7,1.2-1l1.1-1.1c0.4-0.4,0.7-0.7,1.1-1.1s0.7-0.8,1-1.1
		 M1284.1,1290.4l2.9-1.1l3-1.1l3.2-1.2l3.5-1.3l-1.4-0.9l-1.2-0.7l-1-0.6c-0.3-0.2-0.6-0.3-0.9-0.5l-4.6-2.3l-4.6-2.3l-4.6-2.3
		c-1.5-0.7-3.1-1.5-4.6-2.2l-1.7-0.8l-1.7-0.8l-1.7-0.8l-1.7-0.8l-1.8-0.8l-1.8-0.7l-1.8-0.7c-0.6-0.2-1.2-0.5-1.8-0.7
		c-0.9-0.4-1.9-0.7-2.8-0.9c-1-0.2-2-0.4-3-0.4c-1-0.1-2-0.1-3,0c-1,0.1-2,0.3-3,0.5l-3.3,1l-3.3,1c-1.1,0.3-2.2,0.7-3.3,1.1
		s-2.2,0.8-3.2,1.2c-3.6,1.5-7.2,3-10.8,4.5c-3.6,1.5-7.1,3.1-10.7,4.8c-3.5,1.6-7,3.3-10.5,5.1s-6.9,3.5-10.4,5.3l-1.2,0.6
		c-0.4,0.2-0.8,0.4-1.2,0.5l-1.2,0.5l-1.2,0.5l-0.8-0.7c0.2-0.4,0.4-0.7,0.6-1.1s0.4-0.7,0.6-1.1s0.4-0.7,0.6-1.1s0.4-0.7,0.6-1.1
		l8.2-13.2c2.7-4.4,5.5-8.8,8.2-13.2l8.2-13.2l8.1-13.2c0.4-0.7,0.9-1.4,1.3-2.2s0.9-1.4,1.3-2.2s0.9-1.4,1.3-2.2s0.8-1.4,1.3-2.2
		c1.6-2.5,2.6-5.3,3.1-8.2c0.5-2.7,0.4-5.5-0.2-8.2c-0.6-2.6-1.8-5.1-3.4-7.3c-1.7-2.3-3.8-4.2-6.3-5.6c-1-0.7-2-1.3-3.1-1.9
		c-1-0.6-2.1-1.2-3.1-1.8s-2.1-1.2-3.2-1.7s-2.1-1.1-3.2-1.7l-1.3-0.6l-1.1-0.6l-1-0.5c-0.3-0.1-0.6-0.3-0.8-0.4
		c-0.6-0.3-1.3-0.5-1.9-0.5c-0.5,0-1.1,0.2-1.5,0.6c-0.6,0.5-1.1,1.2-1.5,1.8c-0.6,0.8-1.2,1.9-2,3.2c-6.2,9.9-12.3,19.8-18.5,29.7
		l-18.6,29.9l-18.7,30l-18.7,30.1c-0.2,0.4-0.5,0.8-0.7,1.1l-0.7,1.1l-0.7,1.1c-0.2,0.4-0.5,0.8-0.7,1.2c-1.5,2.4-2.6,5.1-3.2,7.9
		c-0.6,2.6-0.6,5.3-0.2,8c0.4,2.6,1.3,5.1,2.7,7.4c1.4,2.4,3.2,4.4,5.4,6.1c1.4,1,2.8,2,4.3,2.9c1.4,0.9,2.9,1.8,4.4,2.7
		s3,1.7,4.6,2.5s3.2,1.5,4.8,2.2c0.5,0.2,1,0.4,1.5,0.4c0.4,0.1,0.8,0,1.3-0.1c0.4-0.1,0.7-0.4,1-0.6c0.3-0.3,0.6-0.7,0.9-1.1
		l0.5-0.8l0.5-0.8c0.2-0.3,0.3-0.5,0.5-0.8l0.5-0.8l6.7-10.8l6.7-10.8l6.7-10.8l6.7-10.8l2.5-4.1l1.3,0.2l0.1,1.1l0.1,1.1l0.1,1.1
		c0,0.4,0,0.7,0.1,1.1c0.3,4.1,0.5,8.2,0.8,12.3s0.5,8.2,0.8,12.4c0.3,4.1,0.5,8.3,0.8,12.4c0.3,4.1,0.6,8.3,0.9,12.4
		c0.1,1.1,0.2,2.3,0.3,3.4s0.3,2.3,0.5,3.4s0.4,2.2,0.7,3.3s0.6,2.2,0.9,3.3c0.3,1.6,0.8,3.1,1.5,4.6c0.7,1.4,1.5,2.8,2.5,4
		c1,1.2,2.1,2.3,3.4,3.3c1.3,1,2.7,1.8,4.1,2.4c0.6,0.3,1.3,0.5,1.9,0.7s1.3,0.4,2,0.6s1.4,0.3,2.1,0.4s1.4,0.2,2.1,0.2
		c1.7,0,3.3-0.1,5-0.2s3.3-0.2,5-0.3s3.3-0.3,5-0.4s3.3-0.3,5-0.6c0.1,0,0.2,0,0.3-0.1c0.1-0.1,0.2-0.1,0.3-0.2l0.3-0.3
		c0.1-0.1,0.2-0.2,0.4-0.3c-0.1-1.1-0.2-2.2-0.3-3.4s-0.2-2.3-0.3-3.4s-0.2-2.3-0.3-3.4l-0.3-3.4c-0.4-4.5-0.8-8.9-1.2-13.4
		c-0.4-4.5-0.8-8.9-1.2-13.4c-0.4-4.5-0.8-8.9-1.2-13.3c-0.4-4.4-0.8-8.9-1.1-13.3c-0.1-0.8-0.1-1.6-0.1-2.4c0-0.5,0.1-1,0.4-1.4
		c0.3-0.4,0.7-0.8,1.2-1c0.6-0.3,1.3-0.7,2.3-1.1c4.9-2.2,9.8-4.4,14.7-6.5c4.9-2.1,9.9-4.1,14.9-6.1c5-2,10-3.9,15-5.8
		C1274,1294,1279.1,1292.2,1284.1,1290.4 M853.1,1205.6c3.4-5.2,6.8-10.5,10.1-15.7c3.4-5.2,6.7-10.5,10.1-15.7
		c3.4-5.2,6.7-10.5,10.1-15.7c3.3-5.2,6.7-10.4,10-15.7c1.1-1.7,2.1-3.4,3-5.1c0.9-1.7,1.7-3.5,2.5-5.3s1.4-3.6,1.9-5.4
		s1-3.7,1.4-5.5c0.6-2.6,0.9-5.3,1-7.9c0.1-2.6-0.1-5.2-0.5-7.7c-0.4-2.5-1.1-5-2-7.4c-0.9-2.4-2.1-4.7-3.5-6.8
		c-1.2-1.8-2.5-3.4-3.9-5c-1.4-1.5-2.9-3-4.6-4.3c-1.6-1.3-3.4-2.5-5.2-3.6c-1.8-1.1-3.7-2.1-5.7-2.9c-1.1-0.5-2.2-0.9-3.3-1.3
		s-2.3-0.7-3.4-1s-2.3-0.6-3.5-0.8s-2.4-0.4-3.7-0.5c-1.6-0.3-3.3-0.4-5-0.4c-1.7,0-3.3,0.1-5,0.3c-3.4,0.5-6.7,1.5-9.8,2.9
		l-0.7,0.3c-0.2,0.1-0.5,0.3-0.7,0.4l-0.7,0.4l-0.7,0.4l-0.9-1.4l0.6-1l0.6-1l0.6-1l0.6-0.9c1.3-2,2.5-3.9,3.8-5.8s2.5-3.9,3.8-5.8
		s2.5-3.9,3.8-5.8s2.5-3.9,3.7-5.8c1.7-2.3,3-4.9,3.8-7.7c0.7-2.5,0.9-5.2,0.5-7.8c-0.7-5.2-3.7-9.8-8.3-12.6c-1-0.7-2-1.3-3-2
		s-2.1-1.2-3.1-1.8s-2.1-1.2-3.2-1.7s-2.2-1.1-3.3-1.6l-0.8-0.4l-0.7-0.4l-0.7-0.3l-0.6-0.3c-0.6-0.3-1.2-0.5-1.9-0.5
		c-0.5,0-1,0.1-1.4,0.5c-0.6,0.4-1,0.9-1.4,1.5c-0.5,0.7-1.1,1.6-1.8,2.7l-18.8,28.8l-18.8,28.9l-18.9,29l-19,29.1
		c-0.3,0.4-0.5,0.8-0.8,1.2l-0.8,1.2l-0.8,1.2c-0.2,0.4-0.5,0.8-0.7,1.2c-1.5,2.1-2.7,4.6-3.3,7.1c-0.6,2.4-0.7,4.8-0.4,7.2
		c0.7,4.8,3.6,9.1,7.7,11.6c1.4,0.9,2.8,1.8,4.2,2.7c1.4,0.9,2.8,1.7,4.3,2.5s2.9,1.6,4.4,2.4s3,1.5,4.5,2.3l0.2,0.1l0.2,0.1
		l0.2,0.1l0.1,0.1c0.4,0.2,0.8,0.3,1.2,0.3c0.3,0,0.7,0,1-0.2c0.3-0.2,0.6-0.4,0.9-0.7c0.4-0.4,0.7-0.8,1-1.2
		c0.2-0.3,0.4-0.5,0.6-0.8l0.5-0.8c0.2-0.3,0.3-0.6,0.5-0.8l0.5-0.8l8.7-13.3c2.9-4.4,5.8-8.9,8.6-13.3l8.6-13.3
		c2.9-4.4,5.8-8.8,8.7-13.2c0.6-1,1.3-1.9,2-2.8s1.4-1.8,2.1-2.7s1.5-1.8,2.3-2.6s1.6-1.7,2.4-2.5c1-1.1,2.2-2.1,3.5-2.9
		c1.3-0.8,2.6-1.4,4.1-1.9c1.4-0.4,2.9-0.7,4.3-0.8c1.5-0.1,2.9,0.1,4.3,0.4c0.5,0.1,1.1,0.2,1.6,0.4s1.1,0.3,1.6,0.4s1,0.3,1.6,0.5
		s1,0.4,1.5,0.6l0.2,0.1l0.2,0.1l0.2,0.1l0.2,0.1l0.4,0.2l0.3,0.1l0.2,0.1l0.2,0.1c1.9,0.8,3.6,2,5,3.5c1.3,1.5,2.3,3.2,3,5.1
		c0.6,1.9,0.9,4,0.7,6c-0.2,2.2-0.9,4.3-1.9,6.2c-0.5,1.2-1,2.3-1.5,3.5s-1.1,2.3-1.7,3.4s-1.2,2.3-1.8,3.4s-1.3,2.2-2,3.3
		c-1.4,2.3-2.8,4.5-4.3,6.8s-2.9,4.5-4.3,6.7l-4.4,6.7c-1.5,2.2-2.9,4.5-4.4,6.7l-2.1,3.2c-0.7,1.1-1.4,2.1-2.1,3.2s-1.4,2.1-2,3.2
		s-1.3,2.2-2,3.2c-1.2,1.8-2.1,3.8-2.6,5.9c-0.5,2-0.6,4-0.3,6c0.5,4,2.6,7.6,5.8,10.1c1.5,1.1,3.1,2.2,4.7,3.2c1.6,1,3.2,2,4.8,3
		s3.3,1.8,5,2.7s3.4,1.7,5.2,2.4l0.4,0.2l0.4,0.2l0.4,0.2l0.4,0.2c0.4,0.2,0.8,0.3,1.2,0.3c0.4,0,0.7,0,1.1-0.1
		c0.3-0.1,0.6-0.3,0.9-0.5c0.3-0.2,0.5-0.5,0.7-0.8l0.4-0.5l0.4-0.5l0.4-0.5C852.9,1205.9,853,1205.8,853.1,1205.6 M922.7,872
		c-2.6-0.1-5.2,0-7.8,0.3c-2.6,0.4-5.2,0.9-7.7,1.7c-5.1,1.7-9.9,4.2-14.2,7.5c-2.4,1.8-4.7,3.8-6.8,6c-2.1,2.1-4,4.4-5.7,6.8
		c-1.7,2.3-3.2,4.8-4.5,7.4c-1.3,2.5-2.4,5.2-3.3,7.9c-0.7,2-1.2,4-1.6,6.1c-0.4,2-0.6,4.1-0.6,6.1c-0.1,2,0.1,4,0.3,6
		c0.3,2,0.7,3.9,1.3,5.8c0.6,2,1.4,4,2.3,5.9c1.8,3.8,4.1,7.4,6.8,10.7c1.4,1.6,2.8,3.2,4.4,4.7c1.8,1.6,3.6,3.1,5.5,4.6
		c1.9,1.5,3.9,2.8,5.9,4.1s4.1,2.5,6.3,3.6s4.4,2.2,6.7,3.1l0.7,0.3l0.7,0.3l0.7,0.3l0.7,0.3c2,0.8,4.1,1.6,6.2,2.2
		c2.1,0.6,4.3,1.2,6.5,1.7c2.2,0.5,4.4,0.8,6.7,1.1c2.3,0.3,4.5,0.4,6.9,0.5c4.7,0.2,9.5-0.1,14.1-1c9.4-1.8,18.3-5.6,26-11.2
		c3.9-2.8,7.4-6,10.6-9.7c2.1-2.4,4.1-4.8,6-7.2c1.9-2.5,3.8-4.9,5.7-7.5c1.8-2.5,3.6-5.1,5.3-7.7c1.7-2.6,3.3-5.2,4.8-7.9
		c0.1-0.2,0.2-0.5,0.3-0.7s0.2-0.5,0.3-0.7s0.1-0.5,0.2-0.7s0.1-0.5,0.2-0.7l-1.4-0.1l-1.3-0.1c-0.4,0-0.8-0.1-1.3-0.1s-0.8,0-1.3,0
		c-1.9,0-3.7,0.1-5.6,0.3c-3.7,0.4-7.4,1.2-11,2.4c-1.8,0.6-3.6,1.3-5.3,2s-3.5,1.6-5.2,2.4s-3.4,1.7-5.1,2.5l-5.1,2.5
		c-1.7,0.8-3.4,1.7-5.1,2.5c-2.9,1.5-6,2.7-9.1,3.6c-3.1,0.9-6.2,1.6-9.4,2c-3.1,0.4-6.3,0.5-9.4,0.4c-3.1-0.2-6.2-0.6-9.2-1.3
		c-0.5-0.1-1-0.2-1.5-0.4s-1-0.3-1.4-0.4l-1.4-0.5c-0.5-0.2-0.9-0.3-1.4-0.5c-2.3-0.9-4.5-2.1-6.5-3.6c-1.9-1.4-3.7-3-5.3-4.9
		c-3.1-3.7-5.1-8.1-6-12.8c-0.4-1.6-0.4-3.2-0.2-4.8c0.2-1.6,0.7-3.2,1.4-4.6c0.8-1.5,1.7-2.9,2.9-4.2c1.2-1.3,2.6-2.4,4.2-3.4
		c1.1-0.6,2.2-1.2,3.3-1.8c1.1-0.5,2.3-1,3.4-1.4c1.2-0.4,2.3-0.7,3.5-1c1.2-0.3,2.4-0.4,3.6-0.6c1.7-0.1,3.4-0.2,5.1-0.2
		c1.6,0,3.3,0.2,4.9,0.4c1.6,0.2,3.2,0.6,4.7,1c1.5,0.4,3,0.9,4.5,1.5c1,0.4,2,0.9,3,1.4s1.9,1,2.8,1.6s1.8,1.2,2.7,1.9
		s1.7,1.4,2.5,2.1l1.4,1.2l1.3,1.2l1.3,1.3c0.4,0.4,0.9,0.8,1.3,1.3c0.4,0.4,0.9,0.9,1.4,1.2c0.5,0.4,1,0.8,1.5,1.1
		c0.5,0.3,1,0.7,1.6,0.9c0.6,0.3,1.1,0.6,1.7,0.8c0.9,0.4,1.8,0.7,2.8,0.9c1,0.2,1.9,0.4,2.9,0.5c1,0.1,2,0.2,3.1,0.1
		c1,0,2.1-0.1,3.1-0.3c1-0.1,1.9-0.2,2.9-0.4l2.9-0.4l2.9-0.5l2.9-0.5c1.9-0.4,3.9-0.8,5.8-1s3.9-0.5,5.9-0.6s3.9-0.2,5.9-0.2
		s3.9,0.1,5.8,0.3c0.6,0.1,1.3,0.1,1.9,0c0.5,0,0.9-0.2,1.4-0.4c0.4-0.3,0.8-0.6,1.1-1c0.4-0.6,0.7-1.2,1-1.8
		c0.6-1.2,1.2-2.3,1.7-3.5s1.1-2.4,1.6-3.6s1-2.4,1.5-3.6s0.9-2.4,1.4-3.6c1.5-4,2.4-8.2,2.6-12.5c0.3-4-0.1-8.1-1.1-12
		c-0.9-3.9-2.5-7.6-4.6-11c-2.1-3.5-4.8-6.6-7.9-9.2c-2.4-2.3-5-4.4-7.6-6.5c-2.7-2-5.4-3.9-8.3-5.7c-2.9-1.8-5.8-3.5-8.8-5
		s-6.2-2.9-9.4-4.2l-0.5-0.2l-0.5-0.2l-0.5-0.2l-0.5-0.2c-1.7-0.6-3.5-1.2-5.3-1.8s-3.6-1.1-5.4-1.7c-1.8-0.5-3.6-1-5.4-1.5
		s-3.6-0.9-5.5-1.4c-0.7-0.2-1.3-0.3-2-0.4c-0.5,0-1,0-1.5,0.2c-0.5,0.2-0.9,0.5-1.2,0.9c-0.5,0.5-0.9,1.1-1.2,1.7
		c-0.5,0.9-1.1,1.8-1.6,2.6s-1,1.8-1.5,2.7s-1,1.8-1.4,2.7s-0.9,1.8-1.3,2.7c-0.5,1-0.9,2.1-1.1,3.2c-0.3,1.1-0.4,2.2-0.4,3.3
		c0,1.1,0.1,2.1,0.3,3.2c0.2,1,0.6,2,1,3c0.8,1.8,1.9,3.4,3.3,4.8c1.5,1.4,3.1,2.5,5,3.3l1.2,0.5l1.2,0.5l1.2,0.5l1.2,0.5l3.1,1.3
		l3.1,1.3c1,0.4,2,0.9,3.1,1.3s2,0.9,3,1.4c1.6,0.7,3.2,1.5,4.7,2.5c1.5,0.9,2.9,1.9,4.2,3c1.3,1.1,2.6,2.3,3.7,3.6
		c1.1,1.3,2.2,2.6,3.1,4.1c0.7,1.2,1.2,2.5,1.6,3.8c0.3,1.4,0.5,2.8,0.5,4.2c0,1.4-0.3,2.9-0.7,4.2c-0.4,1.4-1,2.8-1.8,4.1l-0.9-0.3
		l-0.9-0.3l-0.9-0.3l-0.9-0.3l-3.3-1.5l-3.3-1.6l-3.3-1.6c-1.1-0.5-2.2-1-3.3-1.5l-4.5-2l-4.5-2l-4.6-2c-1.5-0.7-3.1-1.3-4.6-1.9
		l-0.9-0.4l-0.9-0.4l-0.9-0.4l-0.9-0.3c-1.9-0.7-3.9-1.4-5.9-2c-2-0.6-4-1.1-6.1-1.5s-4.2-0.7-6.3-1S924.8,872.2,922.7,872
		 M1162.7,1234.2L1162.7,1234.2l0.2-0.1l0.1-0.1l0.1-0.1l0.1-0.3l0.1-0.3c0-0.1,0.1-0.2,0.1-0.3l0.1-0.3c0-0.2,0-0.3,0.1-0.5
		s0-0.3,0-0.5s0-0.3,0-0.5s0-0.3,0-0.5c-0.1-3.3-0.5-6.6-1.2-9.9c-1.9-9.7-6.1-18.7-12.3-26.5c-1.8-2.3-3.7-4.4-5.8-6.4
		c-2.1-2-4.3-3.9-6.6-5.6c-2.3-1.8-4.8-3.4-7.3-4.8c-2.6-1.5-5.2-2.8-7.9-3.9c-0.8-0.3-1.6-0.7-2.4-1s-1.7-0.6-2.5-0.9
		s-1.7-0.6-2.5-0.8s-1.7-0.5-2.6-0.7c-6.4-2-13.1-3.1-19.8-3.3c-6.7-0.2-13.5,0.4-20.1,1.8c-13.5,3-26.1,9.2-36.7,18.2
		c-2.6,2.1-5.1,4.4-7.4,6.8c-2.3,2.4-4.5,4.9-6.5,7.5c-2,2.6-3.9,5.3-5.5,8.1c-1.7,2.8-3.2,5.7-4.5,8.7c-2.1,4.4-3.8,9-5.1,13.7
		c-1.2,4.6-1.9,9.3-2.2,14.1c-0.2,4.7,0,9.4,0.8,14c0.8,4.6,2,9.1,3.8,13.4c3.4,8.2,8.4,15.7,14.8,22c3.1,3.1,6.5,5.9,10.2,8.4
		c3.7,2.5,7.6,4.7,11.7,6.5c3.6,1.6,7.3,2.9,11.1,3.9c3.9,1,7.8,1.8,11.8,2.2c4.1,0.5,8.2,0.6,12.3,0.5c4.3-0.1,8.5-0.6,12.7-1.4
		c2.2-0.4,4.4-0.9,6.5-1.5s4.3-1.3,6.4-2.1s4.2-1.7,6.2-2.7s4-2.1,5.9-3.3c-0.2-0.3-0.3-0.7-0.4-1s-0.3-0.6-0.4-0.9
		s-0.2-0.5-0.4-0.8s-0.2-0.5-0.4-0.7c-0.6-1-1.2-2.1-1.8-3.1l-1.8-3.1l-1.8-3l-1.8-3.1c-0.4-1-0.9-2-1.5-2.9c-0.6-0.9-1.3-1.7-2-2.5
		c-0.8-0.7-1.6-1.4-2.4-2c-0.9-0.6-1.8-1.1-2.8-1.5c-1-0.4-2-0.8-3.1-1c-1.1-0.3-2.2-0.4-3.3-0.5c-1.1-0.1-2.3,0-3.4,0.1
		c-1.2,0.1-2.3,0.4-3.5,0.7c-1.4,0.3-2.8,0.5-4.2,0.6c-1.4,0.1-2.8,0.1-4.2,0.1c-1.4-0.1-2.8-0.2-4.1-0.4c-1.4-0.2-2.7-0.5-4-0.9
		l-1.6-0.5l-1.6-0.6l-1.6-0.6c-0.5-0.2-1.1-0.4-1.6-0.7s-1.2-0.5-1.8-0.8s-1.2-0.6-1.8-0.9s-1.2-0.6-1.8-0.9s-1.2-0.7-1.7-1
		c-2.4-1.4-4.6-3.1-6.6-5.1c-3.8-3.8-6.5-8.6-7.7-13.9c-0.6-2.7-0.9-5.4-0.8-8.2c0.1-2.1,0.4-4.1,0.8-6.2c0.4-2,1-4,1.7-6
		c1.4-4,3.4-7.9,5.8-11.4c0.4-0.7,0.8-1.3,1.2-1.9s0.9-1.3,1.3-1.9s1-1.2,1.4-1.8s1-1.2,1.6-1.7c3.1-3.2,6.6-6,10.5-8.1
		c3.8-2.1,7.8-3.6,12-4.5c4.1-0.9,8.3-1.2,12.5-0.9c4.1,0.3,8.2,1.3,12,2.9c0.8,0.3,1.5,0.7,2.2,1s1.4,0.8,2.1,1.2s1.4,0.9,2.1,1.3
		s1.3,1,2,1.5c1.3,1,2.6,2,3.8,3.2c1.2,1.1,2.3,2.4,3.3,3.7c1,1.3,1.9,2.6,2.7,4c0.8,1.4,1.5,2.9,2.1,4.4c0.7,2,1.8,3.8,3.2,5.3
		c0.7,0.7,1.5,1.4,2.4,2c0.9,0.6,1.8,1.1,2.8,1.5c0.3,0.1,0.7,0.3,1,0.4s0.7,0.2,1,0.3s0.7,0.2,1,0.3s0.7,0.2,1.1,0.2
		c2.2,0.2,4.3,0.4,6.5,0.4s4.4,0.1,6.6,0s4.4-0.3,6.6-0.5s4.4-0.6,6.6-1 M990.9,1245.3c0.3-0.2,0.6-0.3,1-0.5l0.9-0.6l1-0.6l1-0.6
		c0-0.2-0.1-0.3-0.1-0.5s-0.1-0.3-0.1-0.5s-0.1-0.3-0.2-0.5s-0.1-0.3-0.2-0.4c-0.7-1.3-1.5-2.6-2.2-3.9l-2.2-3.9
		c-0.7-1.3-1.5-2.6-2.2-3.8c-0.8-1.3-1.5-2.5-2.3-3.8c-0.4-0.8-0.9-1.5-1.5-2.2c-0.5-0.7-1.1-1.3-1.8-1.9c-1.3-1.2-2.8-2.1-4.4-2.8
		c-0.9-0.4-1.8-0.7-2.7-0.9c-0.9-0.2-1.9-0.4-2.9-0.5c-1-0.1-2-0.1-3,0c-1,0.1-2.1,0.2-3.1,0.4c-0.8,0.2-1.7,0.3-2.5,0.4
		s-1.7,0.2-2.5,0.3s-1.7,0.1-2.5,0.2s-1.7,0-2.5,0c-1.3-0.1-2.5-0.2-3.8-0.4s-2.5-0.4-3.7-0.7s-2.4-0.6-3.5-1s-2.3-0.8-3.4-1.3
		c-1.3-0.6-2.5-1.2-3.7-1.8c-1.2-0.7-2.3-1.4-3.5-2.2c-2.2-1.6-4.2-3.4-6-5.4c-3.9-4.2-6.4-9.5-7.2-15.2c-0.3-1.9-0.4-3.9-0.3-5.8
		c0-0.4,0.1-0.8,0.2-1.3s0.1-0.8,0.2-1.3s0.2-0.8,0.3-1.2s0.2-0.8,0.3-1.2l1.3,0.5l1.2,0.4l1.1,0.4l1,0.4l0.2,0.1l0.2,0.1l0.2,0.1
		l0.2,0.1c2.5,1.2,5,2.5,7.5,3.7s5,2.6,7.5,3.8s5,2.6,7.5,3.8s5.1,2.4,7.7,3.6c0.6,0.3,1.2,0.5,1.7,0.7l1.8,0.7l1.8,0.7
		c0.6,0.2,1.2,0.4,1.8,0.7c1.9,0.8,3.9,1.5,5.8,2.1s4,1.2,6,1.6c2,0.5,4.1,0.8,6.2,1.2c2.1,0.3,4.2,0.5,6.3,0.7
		c2.6,0.3,5.3,0.2,7.9-0.2c5.3-0.8,10.3-2.9,14.7-6c2.2-1.6,4.2-3.4,5.9-5.5c0.9-1.1,1.8-2.2,2.7-3.3s1.7-2.3,2.5-3.5
		s1.5-2.4,2.2-3.6s1.3-2.5,1.9-3.7c2-4.1,3.4-8.5,4.3-13c0.8-4.3,1-8.7,0.6-13c-0.4-4.2-1.5-8.4-3.1-12.3c-1.6-4-3.9-7.7-6.7-11
		c-1.5-1.9-3.2-3.7-5-5.4c-1.8-1.7-3.6-3.3-5.6-4.8c-2-1.5-4.1-2.9-6.2-4.1c-2.2-1.3-4.4-2.4-6.8-3.4l-0.1-0.1h-0.1l-0.1-0.1h-0.1
		l-0.8-0.4l-0.8-0.4l-0.8-0.4l-0.8-0.3c-4.5-1.9-9.1-3.3-13.9-4.1c-4.8-0.9-9.8-1.2-14.7-1.1c-5,0.2-10,0.8-14.9,2
		c-5,1.2-9.9,2.9-14.6,5c-5.9,2.6-11.5,5.8-16.7,9.6c-5.1,3.7-9.8,7.9-14,12.6c-4.2,4.6-7.8,9.6-10.9,15c-3,5.3-5.4,11-7.2,16.9
		c-1.3,3.6-2.2,7.4-2.9,11.2c-0.6,3.7-1,7.5-1,11.2c0,3.7,0.3,7.4,1,11c0.7,3.6,1.7,7.2,3,10.6c1.5,4.1,3.4,8,5.8,11.7
		c2.3,3.7,5,7.1,8,10.2c3,3.1,6.3,6,9.9,8.4c3.7,2.5,7.5,4.7,11.6,6.5c1.4,0.6,2.8,1.2,4.2,1.7s2.9,1,4.3,1.4s3,0.8,4.5,1.2
		s3,0.7,4.6,0.9c4.1,0.9,8.4,1.4,12.6,1.5c4.3,0.1,8.6-0.1,12.8-0.8c4.3-0.6,8.5-1.6,12.7-3c4.2-1.4,8.3-3.1,12.2-5.2"/>
	<path class="st5" d="M809.8,881.5c-2.5-1-4.8-2.4-6.9-4.1c-2-1.7-3.7-3.6-5.1-5.8c-1.4-2.2-2.4-4.6-3-7.2c-0.6-2.7-0.8-5.4-0.6-8.2
		c0.2-1.6,0.4-3.2,0.8-4.7c0.4-1.6,0.9-3.1,1.4-4.6c0.6-1.5,1.2-3,2-4.5c0.8-1.5,1.7-2.9,2.6-4.3c1.2-1.9,2.5-3.6,3.9-5.3
		c1.4-1.7,3-3.3,4.7-4.7c1.7-1.5,3.5-2.8,5.4-4c1.9-1.2,3.9-2.3,5.9-3.3c1.8-0.8,3.7-1.5,5.6-2c1.9-0.5,3.8-0.8,5.7-1
		c1.9-0.2,3.8-0.2,5.7,0c1.9,0.2,3.7,0.5,5.5,1l0.9,0.3l0.9,0.3l0.9,0.3l0.9,0.3l0.3,0.1l0.3,0.1l0.3,0.1l0.3,0.1
		c3.5,1.6,6.7,3.9,9.2,6.9c2.3,2.8,4,6.1,4.9,9.6c0.9,3.6,1,7.4,0.4,11.1c-0.8,4-2.3,7.9-4.6,11.3l-0.7,1.1
		c-0.2,0.3-0.5,0.7-0.7,1.1l-0.8,1.2l-0.8,1.3c-0.8,1.3-1.6,2.7-2.5,3.9c-1.9,2.5-4.1,4.9-6.5,6.9c-1.2,1-2.5,2-3.9,2.9
		c-1.6,1.1-3.3,2.1-5.1,2.9c-1.7,0.8-3.5,1.5-5.4,2c-1.8,0.5-3.7,0.9-5.6,1.1c-1.9,0.2-3.8,0.3-5.6,0.1c-1,0-1.9-0.1-2.8-0.2
		s-1.8-0.3-2.7-0.5c-0.9-0.2-1.7-0.4-2.6-0.7C811.4,882.1,810.6,881.8,809.8,881.5z"/>
	<path class="st3" d="M981.2,829.9c3.2,1.3,6.3,2.7,9.4,4.2s6,3.2,8.8,5s5.6,3.7,8.3,5.7s5.2,4.2,7.6,6.4c3.1,2.6,5.8,5.8,7.9,9.2
		c2.1,3.4,3.6,7.1,4.6,11c1,3.9,1.3,8,1.1,12c-0.3,4.3-1.1,8.4-2.6,12.5c-0.4,1.2-0.9,2.4-1.4,3.6s-1,2.4-1.5,3.6s-1,2.4-1.6,3.5
		s-1.1,2.4-1.7,3.5c-0.3,0.6-0.6,1.2-1,1.8c-0.3,0.4-0.6,0.7-1.1,1c-0.4,0.2-0.9,0.4-1.4,0.4c-0.6,0-1.3,0-1.9,0
		c-1.9-0.2-3.9-0.2-5.8-0.3s-3.9,0-5.9,0.2s-3.9,0.3-5.9,0.6s-3.9,0.6-5.9,1l-2.9,0.5l-2.9,0.5l-2.9,0.4c-1,0.1-1.9,0.3-2.9,0.4
		c-2,0.3-4.1,0.4-6.2,0.2c-1-0.1-2-0.3-2.9-0.5c-0.9-0.2-1.9-0.5-2.8-0.9c-0.6-0.2-1.2-0.5-1.7-0.8s-1.1-0.6-1.6-1
		c-0.5-0.3-1-0.7-1.5-1.1c-0.5-0.4-0.9-0.8-1.4-1.2c-0.4-0.4-0.9-0.9-1.3-1.3l-1.3-1.3l-1.3-1.2c-0.5-0.4-0.9-0.8-1.4-1.2
		c-0.8-0.8-1.6-1.5-2.5-2.1s-1.8-1.3-2.7-1.9s-1.9-1.1-2.8-1.6s-2-1-3-1.4c-1.5-0.6-3-1.1-4.5-1.5c-1.6-0.4-3.1-0.8-4.7-1
		c-1.6-0.2-3.3-0.4-4.9-0.4c-1.7,0-3.4,0-5.1,0.2c-1.2,0.1-2.4,0.3-3.6,0.6c-1.2,0.3-2.4,0.6-3.5,1c-1.2,0.4-2.3,0.8-3.4,1.4
		c-1.1,0.5-2.2,1.1-3.3,1.8c-1.5,0.9-2.9,2-4.2,3.4c-1.2,1.2-2.1,2.7-2.9,4.2c-0.7,1.5-1.2,3.1-1.4,4.7c-0.2,1.6-0.1,3.2,0.2,4.8
		c0.9,4.7,2.9,9.2,6,12.8c1.5,1.8,3.3,3.5,5.2,4.9c2,1.4,4.2,2.7,6.5,3.6c0.5,0.2,0.9,0.4,1.4,0.5s0.9,0.3,1.4,0.5l1.4,0.4
		c0.5,0.1,1,0.3,1.5,0.3c3,0.7,6.1,1.2,9.2,1.3c3.1,0.2,6.3,0,9.4-0.3c6.4-0.8,12.7-2.7,18.5-5.6c1.7-0.8,3.4-1.6,5.1-2.5l5.1-2.5
		c1.7-0.8,3.4-1.7,5.1-2.5s3.4-1.6,5.2-2.4c3.5-1.5,7.1-2.7,10.8-3.5c1.8-0.4,3.7-0.7,5.5-0.9c1.8-0.2,3.7-0.3,5.5-0.3
		c0.4,0,0.8,0,1.3,0l1.3,0.1l1.3,0.2l1.5,0.1c0,0.2-0.1,0.5-0.2,0.7s-0.1,0.5-0.2,0.7s-0.2,0.5-0.2,0.7s-0.2,0.5-0.3,0.7
		c-1.5,2.7-3.2,5.3-4.8,7.9c-1.7,2.6-3.4,5.1-5.3,7.7c-1.8,2.5-3.7,5-5.7,7.5c-1.9,2.5-3.9,4.9-6,7.2c-3.1,3.6-6.7,6.9-10.6,9.7
		c-3.9,2.8-8,5.1-12.4,7c-4.4,1.9-8.9,3.3-13.6,4.1c-4.6,0.9-9.4,1.2-14.1,1c-2.3-0.1-4.6-0.2-6.8-0.5s-4.5-0.6-6.7-1.1
		s-4.3-1-6.5-1.7s-4.2-1.4-6.2-2.2l-0.7-0.3l-0.7-0.3l-0.7-0.3l-0.7-0.3c-2.3-1-4.5-2-6.7-3.1s-4.3-2.3-6.3-3.6
		c-2-1.3-4-2.7-5.9-4.1s-3.7-3-5.5-4.6c-1.6-1.5-3-3-4.4-4.7c-1.4-1.6-2.6-3.3-3.7-5.1c-2.3-3.6-4.1-7.4-5.4-11.4
		c-0.6-1.9-1-3.9-1.3-5.8c-0.3-2-0.4-4-0.3-6c0.1-2.1,0.3-4.1,0.6-6.1c0.4-2.1,0.9-4.1,1.6-6.1c0.9-2.7,1.9-5.4,3.3-7.9
		c1.3-2.6,2.8-5.1,4.5-7.4c1.7-2.4,3.6-4.7,5.7-6.8c2.1-2.2,4.4-4.2,6.8-6c2.1-1.6,4.4-3.1,6.8-4.3c2.4-1.2,4.8-2.3,7.3-3.1
		c2.5-0.8,5.1-1.4,7.7-1.8c2.6-0.4,5.2-0.5,7.8-0.3c2.2,0.1,4.3,0.2,6.4,0.4s4.2,0.5,6.3,1s4.1,0.9,6.1,1.5s4,1.2,5.9,2l0.9,0.3
		l0.9,0.4l0.9,0.4l0.9,0.4c1.5,0.6,3.1,1.3,4.6,1.9c1.5,0.7,3,1.3,4.6,2l4.5,2l4.6,2c1.1,0.5,2.2,1,3.3,1.5l3.3,1.6l3.3,1.6l3.3,1.5
		l0.9,0.3l0.9,0.3l0.9,0.3l0.9,0.3c0.8-1.3,1.4-2.7,1.8-4.1c0.4-1.4,0.6-2.8,0.7-4.2c0-1.4-0.1-2.8-0.5-4.1
		c-0.3-1.4-0.9-2.6-1.6-3.8c-0.9-1.4-2-2.8-3.1-4.1c-1.1-1.3-2.4-2.5-3.7-3.6c-1.3-1.1-2.8-2.1-4.2-3c-1.5-0.9-3.1-1.8-4.7-2.5
		c-1-0.5-2-1-3-1.4l-3.1-1.3l-3.1-1.3c-1-0.4-2.1-0.8-3.1-1.3l-1.2-0.5l-1.2-0.5l-1.2-0.5l-1.2-0.5c-0.9-0.4-1.8-0.9-2.7-1.5
		c-0.8-0.6-1.6-1.2-2.3-1.9c-0.7-0.7-1.3-1.4-1.9-2.2c-0.5-0.8-1-1.7-1.4-2.5c-0.5-1-0.8-2-1-3c-0.2-1.1-0.3-2.1-0.3-3.2
		c0-1.1,0.2-2.2,0.4-3.3c0.3-1.1,0.6-2.2,1.1-3.2c0.4-0.9,0.9-1.8,1.3-2.7s0.9-1.8,1.4-2.7s1-1.8,1.5-2.7s1-1.8,1.6-2.6
		c0.4-0.6,0.8-1.2,1.3-1.8c0.3-0.4,0.7-0.7,1.2-0.9c0.5-0.2,1-0.3,1.5-0.2c0.7,0.1,1.3,0.2,2,0.4c1.8,0.4,3.7,0.9,5.5,1.4
		c1.8,0.5,3.6,1,5.4,1.5s3.6,1.1,5.4,1.7s3.5,1.2,5.3,1.8l0.5,0.2l0.5,0.2l0.5,0.2L981.2,829.9z"/>
	<path class="st3" d="M767.3,967.9c2.7,1.1,5.4,2.4,8,3.8c2.6,1.4,5,3,7.4,4.7c2.4,1.7,4.6,3.5,6.8,5.5c2.2,1.9,4.2,4,6.1,6.2
		c5.3,5.9,9.4,12.6,12.2,20c1.4,3.7,2.5,7.5,3.2,11.4c0.7,4,1,8,1,12c0,0.2,0,0.4,0,0.6s0,0.4-0.1,0.7s-0.1,0.5-0.1,0.8
		s-0.1,0.7-0.1,1.1c-2.2,0.1-4.5,0.2-6.7,0.3l-6.6,0.4c-2.2,0.1-4.3,0.2-6.5,0.2s-4.3,0-6.4,0c-0.5,0-1.1-0.1-1.7-0.2
		s-1.1-0.2-1.6-0.3s-1-0.3-1.5-0.4s-1-0.3-1.5-0.6c-1-0.4-2-1-2.9-1.6c-0.9-0.6-1.7-1.3-2.5-2.1c-0.8-0.8-1.4-1.7-2-2.6
		c-0.6-0.9-1.1-2-1.4-3c-0.5-1.1-0.9-2.1-1.4-3.2s-1.1-2.1-1.6-3.1s-1.2-2-1.8-3s-1.3-1.9-2-2.9c-1.1-1.3-2.2-2.4-3.5-3.6
		c-1.2-1.1-2.5-2.2-3.8-3.1c-2.7-1.9-5.6-3.6-8.6-4.8c-2.7-1.1-5.5-2-8.4-2.7c-3-0.6-6-1-9-1.1c-3.1-0.1-6.3,0-9.3,0.4
		c-3.2,0.4-6.4,1.1-9.5,2.1c-2.2,0.8-4.3,1.8-6.4,2.8c-4.1,2.1-8,4.7-11.5,7.7c-1.8,1.5-3.4,3.1-5,4.8c-1.8,1.9-3.6,4-5.2,6.2
		c-1.6,2.1-3,4.3-4.4,6.6c-1.3,2.3-2.5,4.6-3.5,7c-1,2.4-1.8,4.8-2.5,7.3c-1.2,3.7-1.8,7.6-1.8,11.6c0,3.7,0.5,7.4,1.6,11
		c2.2,7.1,6.7,13.3,12.7,17.7c0.8,0.7,1.6,1.3,2.5,2s1.7,1.2,2.6,1.8s1.8,1.1,2.8,1.6s1.9,1,2.9,1.4c1.6,0.7,3.3,1.3,5,1.8
		c1.7,0.5,3.5,0.9,5.3,1.3c1.8,0.3,3.6,0.6,5.5,0.7c1.9,0.1,3.8,0.2,5.7,0.1c0.9-0.1,1.8-0.1,2.6-0.2l2.6-0.3
		c0.9-0.1,1.8-0.2,2.7-0.4l2.7-0.4c0.9-0.2,1.9-0.3,2.9-0.4c0.9-0.1,1.9-0.1,2.8,0c0.9,0.1,1.8,0.2,2.7,0.4c0.9,0.2,1.7,0.5,2.5,0.8
		c0.7,0.3,1.4,0.6,2,1.1c0.7,0.4,1.3,0.8,1.9,1.3c0.6,0.5,1.1,1,1.6,1.6c0.5,0.6,0.9,1.2,1.3,1.9c0.9,1.5,1.8,2.9,2.7,4.4
		s1.7,3,2.6,4.5c0.8,1.5,1.7,3,2.5,4.5s1.7,3,2.5,4.6c0,0.1,0.1,0.3,0.1,0.4s0.1,0.3,0.1,0.4s0.1,0.3,0.1,0.4s0.1,0.3,0.1,0.4
		l-0.6,0.4l-0.6,0.4c-0.2,0.2-0.4,0.3-0.6,0.4l-0.7,0.4c-4,2-8,3.8-12.2,5.3c-4.1,1.5-8.4,2.6-12.6,3.5c-4.2,0.8-8.5,1.4-12.8,1.6
		c-4.2,0.2-8.5,0.1-12.7-0.3c-2.4-0.2-4.7-0.5-7-0.9s-4.6-0.9-6.8-1.4s-4.4-1.2-6.6-1.9s-4.3-1.6-6.3-2.5c-0.9-0.4-1.8-0.8-2.6-1.2
		s-1.7-0.8-2.5-1.3s-1.7-0.9-2.5-1.4s-1.6-1-2.4-1.5c-4.2-2.5-8.1-5.3-11.8-8.6c-3.5-3.2-6.7-6.7-9.6-10.6
		c-2.8-3.8-5.2-7.9-7.1-12.2c-2-4.4-3.5-8.9-4.5-13.6c-1-4.5-1.6-9.1-1.8-13.7c-0.1-4.7,0.2-9.4,0.9-14c0.8-4.7,1.9-9.4,3.5-13.9
		c1.6-4.7,3.6-9.2,6-13.5c2.3-4.6,5-9.1,8.1-13.3c3.1-4.3,6.5-8.3,10.1-12c3.7-3.8,7.7-7.3,11.9-10.5c4.3-3.3,8.8-6.2,13.6-8.8
		c3.9-2.2,8-4,12.2-5.7c4.1-1.6,8.4-2.9,12.7-3.9c4.2-1,8.6-1.7,12.9-2c4.3-0.4,8.6-0.5,12.9-0.2c2.7,0.1,5.3,0.3,8,0.7
		s5.2,0.8,7.7,1.3s5,1.2,7.5,2S764.9,966.9,767.3,967.9z"/>
	<path class="st6" d="M1936.4,532.1c-1.8-21.1-3.6-42.1-5.4-63.2c0,0,0-0.1,0-0.1l0,0c0.5,6,0.5,12,0.1,18
		c-0.4,6.1-1.4,12.2-2.8,18.2c-1.5,6.2-3.4,12.3-5.8,18.2c-2.5,6.2-5.5,12.2-8.9,18l5.8,62.1c3.3-5.7,6.2-11.6,8.7-17.7
		c2.3-5.8,4.2-11.8,5.7-17.9c1.4-5.9,2.3-11.9,2.7-17.9C1937,543.9,1936.9,538,1936.4,532.1z"/>
	<path class="st3" d="M838.6,1011.5l0.6,0.3c0.2,0.1,0.4,0.2,0.7,0.3l0.7,0.4l0.8,0.4c1.1,0.5,2.2,1,3.3,1.6s2.2,1.1,3.2,1.7
		s2.1,1.2,3.1,1.8s2.1,1.3,3.1,2c2.3,1.4,4.2,3.3,5.6,5.5c1.4,2.2,2.3,4.6,2.6,7.1c0.4,2.6,0.2,5.3-0.5,7.8c-0.8,2.8-2,5.4-3.8,7.7
		c-1.2,2-2.5,3.9-3.7,5.8s-2.5,3.9-3.8,5.8l-3.8,5.8c-1.3,1.9-2.5,3.9-3.8,5.8c-0.2,0.3-0.4,0.6-0.6,0.9s-0.4,0.6-0.6,1
		s-0.4,0.6-0.6,1s-0.4,0.6-0.6,1l0.9,1.4l0.7-0.4l0.7-0.4c0.2-0.1,0.4-0.3,0.7-0.4l0.7-0.3c1.6-0.7,3.2-1.3,4.8-1.8
		c1.6-0.5,3.3-0.9,5-1.1c1.7-0.2,3.3-0.4,5-0.3c1.7,0,3.3,0.1,5,0.4c1.2,0.1,2.5,0.3,3.7,0.5s2.4,0.5,3.5,0.8s2.3,0.7,3.4,1
		s2.2,0.8,3.3,1.3c2,0.8,3.9,1.8,5.7,2.9c1.8,1.1,3.5,2.3,5.2,3.6c1.6,1.3,3.2,2.8,4.6,4.3c1.4,1.6,2.7,3.2,3.9,5
		c2.8,4.3,4.6,9.1,5.4,14.2c0.4,2.6,0.6,5.1,0.5,7.7c-0.1,2.7-0.4,5.3-1,7.9c-0.4,1.9-0.8,3.7-1.4,5.5c-0.6,1.8-1.2,3.6-1.9,5.4
		c-0.7,1.8-1.5,3.6-2.5,5.3s-1.9,3.4-3,5.1l-10.1,15.7c-3.3,5.2-6.7,10.5-10.1,15.7l-10.1,15.7l-10.1,15.7l-0.4,0.6l-0.4,0.5
		l-0.4,0.5l-0.4,0.5c-0.2,0.3-0.4,0.6-0.6,0.8c-0.3,0.2-0.5,0.4-0.9,0.5c-0.6,0.2-1.3,0.2-1.9,0l-0.6-0.3l-0.5-0.2l-0.4-0.2
		l-0.4-0.2c-1.8-0.8-3.5-1.6-5.2-2.4s-3.4-1.8-5-2.7s-3.3-1.9-4.8-3s-3.1-2.1-4.7-3.2c-3.2-2.5-5.3-6.1-5.8-10.1c-0.3-2-0.1-4,0.3-6
		c0.5-2.1,1.4-4.1,2.6-5.9c0.6-1.1,1.3-2.2,2-3.2c0.7-1.1,1.3-2.1,2-3.2l2.1-3.2c0.7-1.1,1.4-2.1,2.1-3.2c1.4-2.2,2.9-4.5,4.3-6.7
		l4.4-6.7c1.5-2.2,2.9-4.5,4.3-6.7c1.4-2.2,2.8-4.5,4.3-6.8c0.7-1.1,1.3-2.2,2-3.3s1.3-2.2,1.8-3.4s1.2-2.3,1.7-3.4s1.1-2.3,1.5-3.5
		c1-1.9,1.7-4,1.9-6.2c0.2-2,0-4.1-0.6-6c-0.6-1.9-1.6-3.6-3-5.1c-1.4-1.5-3.1-2.7-5-3.5l-0.2-0.1l-0.2-0.1l-0.2-0.1
		c0,0-0.1,0-0.2-0.1l-0.4-0.2l-0.3-0.1l-0.2-0.1l-0.2-0.1c-0.5-0.2-1-0.4-1.5-0.6s-1-0.4-1.6-0.5s-1.1-0.3-1.6-0.4s-1.1-0.3-1.6-0.4
		c-1.4-0.3-2.9-0.5-4.3-0.4c-1.5,0.1-2.9,0.3-4.3,0.8c-2.9,0.9-5.5,2.5-7.6,4.7c-0.8,0.8-1.6,1.7-2.4,2.5s-1.5,1.7-2.3,2.6
		s-1.5,1.8-2.1,2.7s-1.3,1.9-2,2.8c-2.9,4.4-5.8,8.8-8.7,13.2s-5.8,8.8-8.7,13.3l-8.6,13.3l-8.6,13.3l-0.5,0.8l-0.5,0.8l-0.5,0.8
		c-0.2,0.3-0.4,0.5-0.6,0.8c-0.3,0.4-0.6,0.9-1,1.2c-0.3,0.3-0.6,0.5-0.9,0.7c-0.3,0.2-0.7,0.2-1,0.2c-0.4,0-0.8-0.1-1.2-0.3
		l-0.2-0.1l-0.2-0.1l-0.2-0.1l-0.2-0.1c-1.5-0.7-3-1.5-4.5-2.3c-1.5-0.8-2.9-1.6-4.4-2.4s-2.9-1.7-4.3-2.5s-2.8-1.8-4.2-2.7
		c-4.2-2.5-7-6.8-7.7-11.6c-0.4-2.4-0.2-4.9,0.4-7.2c0.7-2.6,1.8-5,3.3-7.1c0.2-0.4,0.5-0.8,0.7-1.2s0.5-0.8,0.7-1.2
		s0.5-0.8,0.8-1.2s0.5-0.8,0.8-1.2c6.3-9.7,12.7-19.4,19-29.1s12.6-19.3,18.9-29c6.3-9.6,12.6-19.2,18.8-28.8l18.8-28.8
		c0.7-1.1,1.3-2,1.8-2.7c0.4-0.6,0.9-1.1,1.4-1.5c0.4-0.3,0.9-0.5,1.4-0.5C837.4,1011.1,838,1011.3,838.6,1011.5z"/>
	<path class="st5" d="M958.4,1161.1l-3.2-1.6l-3.2-1.6c-1.1-0.5-2.2-1.1-3.2-1.6l-3.2-1.6c-0.7-0.3-1.3-0.7-1.8-1.2
		c-0.4-0.3-0.6-0.7-0.7-1.2c0-0.5,0.2-1,0.5-1.4c0.5-0.6,1.1-1.2,1.7-1.7c1.9-1.7,4.1-3.2,6.4-4.4c2.3-1.1,4.7-2,7.1-2.6
		c2.4-0.5,4.9-0.8,7.4-0.7c2.5,0.1,4.9,0.6,7.3,1.4c0.5,0.1,0.9,0.2,1.3,0.3s0.9,0.3,1.3,0.4s0.9,0.3,1.3,0.4s0.8,0.3,1.3,0.5
		c1.3,0.6,2.7,1.2,3.9,2c1.2,0.8,2.4,1.6,3.5,2.6c2.2,1.9,4,4.1,5.5,6.6c0.3,0.6,0.6,1.2,0.8,1.8c0.2,0.6,0.5,1.2,0.6,1.9
		c0.2,0.6,0.3,1.3,0.4,1.9c0.1,0.7,0.2,1.3,0.2,2c0.1,0.3,0.1,0.6,0.1,0.9c0,0.3,0,0.6,0,0.9c0,0.3-0.1,0.6-0.2,0.9
		c-0.1,0.3-0.2,0.6-0.3,0.9c-0.4,0.8-0.9,1.6-1.5,2.3c-0.6,0.6-1.4,1.2-2.2,1.6c-0.8,0.4-1.7,0.6-2.6,0.7c-0.9,0.1-1.8,0-2.7-0.3
		c-1.2-0.3-2.5-0.6-3.7-0.9s-2.4-0.7-3.6-1s-2.4-0.8-3.5-1.2s-2.3-0.9-3.5-1.4l-0.3-0.1l-0.3-0.1l-0.3-0.1l-0.3-0.1
		c-0.9-0.4-1.7-0.8-2.6-1.2s-1.7-0.8-2.5-1.3s-1.7-0.9-2.5-1.3S959.2,1161.5,958.4,1161.1z"/>
	<path class="st3" d="M1335.9,951.2c0.6,0.3,1.2,0.6,1.8,1c0.4,0.2,0.6,0.6,0.8,1c0.1,0.4,0.1,0.8-0.1,1.2c-0.2,0.6-0.5,1.2-0.9,1.8
		l-0.2,0.4c-0.1,0.1-0.2,0.3-0.2,0.4l-0.2,0.4l-0.2,0.4l-15.1,24.3c-5.1,8.1-10.1,16.3-15.2,24.4s-10.2,16.3-15.3,24.5
		c-5.1,8.2-10.2,16.3-15.3,24.5c-1.4,2.3-3,4.6-4.6,6.8c-1.6,2.2-3.3,4.4-5,6.6c-1.8,2.1-3.6,4.2-5.5,6.3c-1.9,2-3.9,4-6,5.9
		c-3.4,3.3-7.1,6.3-11,8.9c-7.9,5.2-16.6,8.9-25.9,10.9c-4.6,1-9.3,1.6-14,1.7c-2.3,0-4.6-0.1-6.8-0.2c-2.3-0.2-4.5-0.4-6.7-0.8
		s-4.4-0.8-6.6-1.3s-4.3-1.2-6.4-1.9l-2-0.6c-0.6-0.2-1.3-0.4-1.9-0.7l-1.9-0.7l-1.9-0.8c-2.8-1.1-5.5-2.4-8.1-3.9
		c-2.6-1.4-5.1-3-7.5-4.7c-2.4-1.7-4.7-3.5-6.9-5.4c-2.2-1.9-4.2-3.9-6.2-6.1c-8.2-9.1-13.3-20.7-14.4-32.9
		c-0.6-6.1-0.2-12.3,1.1-18.3c1.3-6.3,3.6-12.4,6.7-18c0.2-0.3,0.4-0.7,0.5-1.1c0.2-0.4,0.3-0.7,0.4-1.1c0.1-0.4,0.2-0.7,0.2-1.1
		c0.1-0.4,0.1-0.8,0.1-1.1c-0.7,0.8-1.4,1.6-2.1,2.4l-2.1,2.4l-2.1,2.4c-0.7,0.8-1.4,1.6-2.1,2.3c-2.5,2.9-5.2,5.5-8.1,8
		c-2.9,2.5-6,4.8-9.2,6.8c-3.2,2.1-6.6,3.9-10.1,5.5c-3.5,1.6-7.1,3-10.8,4.1c-3.3,0.9-6.7,1.7-10.2,2.1c-3.4,0.5-6.8,0.7-10.2,0.7
		c-3.3,0-6.7-0.3-10-0.8c-3.3-0.5-6.5-1.3-9.7-2.3c-0.8-0.3-1.7-0.5-2.5-0.8l-2.5-0.8c-0.8-0.3-1.7-0.5-2.5-0.8s-1.6-0.6-2.4-0.9
		l-0.8-0.3l-0.7-0.3l-0.7-0.3l-0.6-0.3c-4.1-1.7-8-3.7-11.7-6.1c-3.6-2.3-7-5-10.1-7.9c-3-2.9-5.8-6.1-8.2-9.6
		c-2.4-3.5-4.5-7.1-6.2-11c-1.6-3.8-2.8-7.8-3.6-11.9c-0.7-4.1-1-8.3-0.8-12.5c0.2-4.3,0.9-8.5,2-12.6c1.1-4.3,2.7-8.4,4.7-12.3
		c0.8-1.8,1.7-3.5,2.6-5.2s1.9-3.4,3-5s2.2-3.3,3.3-4.9s2.4-3.2,3.7-4.7c0.7-0.8,1.2-1.4,1.7-1.8c0.4-0.4,0.8-0.7,1.3-0.9
		c0.5-0.1,1-0.2,1.5-0.1c0.8,0.2,1.5,0.4,2.3,0.6l2.2,0.7l2.2,0.8l2.2,0.8l2.2,0.8c3.4,1.2,7,2.1,10.6,2.5c3.7,0.5,7.4,0.6,11.1,0.3
		c3.8-0.3,7.5-1,11.2-2c3.7-1.1,7.3-2.5,10.8-4.3c0.9-0.4,1.8-0.9,2.7-1.3s1.8-0.8,2.7-1.2l2.7-1.2l2.7-1.2l-0.3-0.9
		c-5.9,2.4-12.2,3.9-18.5,4.6c-3.1,0.4-6.3,0.5-9.4,0.5c-3.1-0.1-6.2-0.4-9.3-0.9c-1-0.2-2-0.4-2.9-0.7s-1.9-0.5-2.9-0.8
		s-1.9-0.6-2.8-0.9s-1.8-0.7-2.8-1c-0.8-0.3-1.5-0.6-2.2-1s-1.5-0.7-2.2-1s-1.4-0.7-2.1-1.1s-1.4-0.8-2.1-1.2c0.3-0.5,0.7-1,1.1-1.5
		c0.4-0.5,0.8-0.9,1.3-1.4c0.5-0.4,1-0.8,1.5-1.2c0.5-0.4,1.1-0.7,1.6-1c8.2-5.9,17.4-10.1,27.2-12.3c4.8-1.1,9.7-1.7,14.6-1.9
		c4.9-0.1,9.7,0.3,14.5,1.2c1.5,0.2,2.9,0.5,4.3,0.8s2.8,0.7,4.3,1s2.8,0.8,4.2,1.3s2.7,1,4,1.5c2.5,1,5,2.2,7.4,3.5
		c2.4,1.3,4.7,2.7,6.9,4.2c2.2,1.5,4.3,3.2,6.3,5c2,1.8,3.8,3.7,5.6,5.7c0.2,0.3,0.5,0.5,0.7,0.8c0.2,0.3,0.5,0.5,0.8,0.8l0.9,0.8
		l1,0.9l0.9-1.2l0.8-1.1c0.3-0.3,0.5-0.7,0.7-1s0.4-0.6,0.6-1l3.6-5.7l3.6-5.7l3.6-5.7c1.2-1.9,2.4-3.8,3.7-5.7
		c0.4-0.7,0.9-1.3,1.4-2s0.9-1.3,1.4-2s1-1.3,1.5-1.9s1-1.3,1.6-1.9c1.8-1.9,3.8-3.6,6.1-4.9c2.2-1.3,4.6-2.3,7.1-2.9
		c2.5-0.6,5-0.9,7.6-0.8c2.5,0.1,5,0.6,7.4,1.6c1.4,0.6,2.7,1.2,4,1.8s2.7,1.2,4,1.8l4,1.9l4,1.9c0.6,0.3,1.1,0.6,1.6,0.9
		c0.3,0.2,0.6,0.5,0.7,0.9c0.1,0.4,0,0.8-0.1,1.2c-0.2,0.6-0.5,1.2-0.8,1.7c-0.2,0.3-0.3,0.5-0.5,0.8s-0.3,0.5-0.5,0.8l-0.5,0.8
		l-0.5,0.8l-13.5,21.3l-13.5,21.3l-13.6,21.4L1148,983c-0.3,0.4-0.5,0.8-0.8,1.2s-0.4,0.8-0.6,1.2c-0.2,0.4-0.4,0.9-0.5,1.3
		c-0.1,0.4-0.3,0.9-0.4,1.3l0.8-0.8l0.8-0.8l0.8-0.8c0.3-0.3,0.5-0.5,0.8-0.8c2.4-2.8,5.1-5.3,7.9-7.7c2.8-2.4,5.8-4.6,8.9-6.6
		c6.3-4,13.1-7.2,20.3-9.3c3.5-1,7-1.8,10.6-2.3c3.5-0.5,7.1-0.8,10.7-0.8c3.5,0,7.1,0.2,10.6,0.7c3.5,0.5,6.9,1.2,10.3,2.2
		c0.8,0.2,1.6,0.4,2.4,0.7s1.6,0.5,2.4,0.8s1.6,0.5,2.4,0.8s1.6,0.6,2.3,0.9c2.7,1.1,5.3,2.3,7.9,3.7c2.5,1.4,5,2.9,7.3,4.6
		c4.6,3.3,8.9,7.1,12.6,11.5c0.2,0.2,0.3,0.4,0.5,0.6l0.6,0.6l0.7,0.6c0.2,0.2,0.5,0.5,0.8,0.8c0.3-0.3,0.6-0.7,0.9-1s0.6-0.7,0.8-1
		s0.6-0.7,0.8-1.1s0.5-0.7,0.8-1.1c1.4-2.3,2.9-4.6,4.4-6.8s2.9-4.5,4.3-6.8s2.9-4.6,4.3-6.9s2.8-4.6,4.1-6.9c1.6-2.6,3.6-4.9,6-6.7
		c4.8-3.7,10.7-5.7,16.7-5.6c3,0,6,0.6,8.8,1.7l0.2,0.1l0.2,0.1l0.2,0.1l0.2,0.1c1.3,0.6,2.6,1.1,3.8,1.7s2.5,1.1,3.8,1.7l3.7,1.8
		L1335.9,951.2z M1085,997.5c1.8-1,3.5-2.1,5.2-3.3c1.6-1.2,3.2-2.5,4.7-3.8c1.5-1.3,2.9-2.8,4.2-4.3c1.3-1.5,2.5-3.1,3.6-4.7
		c0.5-1,1-2.1,1.5-3.1s1-2.1,1.4-3.1s0.9-2.1,1.3-3.2s0.8-2.1,1.2-3.2c1.1-3.2,1.6-6.6,1.4-10c-0.2-6.4-2.9-12.5-7.4-17.1
		c-2.4-2.4-5.1-4.3-8.2-5.7l-0.6-0.3c-0.2-0.1-0.4-0.2-0.6-0.3l-0.6-0.3l-0.6-0.3c-2.8-1.1-5.8-1.8-8.9-2.1
		c-3.1-0.3-6.2-0.1-9.3,0.5c-6.3,1.2-12.2,4-17.1,8.3c-2.2,1.7-4.3,3.6-6.1,5.7c-1.8,2-3.5,4.2-5,6.5c-1.4,2.3-2.7,4.6-3.7,7.1
		c-1,2.4-1.8,5-2.3,7.5c-0.7,2.6-1,5.3-0.8,7.9c0.1,1.3,0.2,2.6,0.5,3.9c0.3,1.3,0.6,2.5,1.1,3.7c1.3,3.4,3.3,6.5,5.9,9
		c1.3,1.3,2.7,2.4,4.2,3.4c1.6,1,3.2,1.9,4.9,2.6l1.2,0.5l1.3,0.4l1.3,0.4l1.3,0.3c2,0.6,4.1,0.9,6.2,1.1c2.1,0.2,4.2,0.1,6.3-0.2
		c2.1-0.3,4.2-0.7,6.3-1.4C1081,999.4,1083,998.5,1085,997.5 M1220,1059.1c2-1.3,4-2.8,5.8-4.4c1.8-1.6,3.5-3.3,5-5.1
		c1.6-1.8,3-3.7,4.2-5.7c1.2-2,2.3-4,3.2-6.2c0.9-1.8,1.7-3.7,2.3-5.7c0.6-1.9,1-3.8,1.2-5.8c0.2-1.9,0.2-3.9,0-5.8
		c-0.2-1.9-0.6-3.8-1.1-5.7c-0.6-2-1.4-4-2.5-5.8c-1-1.8-2.3-3.4-3.7-4.9c-1.4-1.5-3-2.8-4.7-4c-1.7-1.2-3.6-2.1-5.5-2.9
		c-1.8-0.7-3.6-1.3-5.5-1.7c-1.9-0.4-3.9-0.6-5.8-0.7c-2-0.1-4.1,0-6.1,0.3c-2.1,0.3-4.2,0.8-6.2,1.4c-2.5,0.9-5,1.9-7.3,3.2
		c-2.3,1.3-4.5,2.7-6.6,4.3c-2.1,1.6-4,3.4-5.7,5.3c-1.7,1.9-3.3,4-4.7,6.2c-0.5,1-1,2.1-1.4,3.1s-0.9,2.1-1.3,3.2s-0.9,2.1-1.3,3.2
		s-0.8,2.1-1.2,3.2c-1,3.1-1.5,6.3-1.4,9.6c0.2,6.2,2.6,12.2,6.8,16.8c2.2,2.4,4.8,4.4,7.7,5.9c0.3,0.2,0.5,0.3,0.8,0.4l0.8,0.4
		l0.8,0.4l0.8,0.3c2.6,1,5.3,1.8,8,2.2c2.8,0.4,5.6,0.4,8.4,0.2C1209.5,1064,1215.1,1062.1,1220,1059.1"/>
	<path class="st3" d="M994,1241.2c0.1,0.2,0.1,0.3,0.2,0.4s0.1,0.3,0.2,0.5s0.1,0.3,0.1,0.5s0.1,0.3,0.1,0.5l-1,0.6l-1,0.6l-0.9,0.6
		l-1,0.5c-3.9,2.1-8,3.8-12.2,5.2c-4.1,1.4-8.4,2.4-12.7,3c-4.2,0.6-8.5,0.9-12.8,0.8c-4.2-0.1-8.4-0.6-12.6-1.5
		c-1.5-0.3-3.1-0.6-4.6-0.9s-3-0.7-4.5-1.2s-2.9-0.9-4.3-1.4s-2.8-1.1-4.2-1.7c-4.1-1.8-8-4-11.6-6.5c-3.6-2.5-6.9-5.3-9.9-8.4
		c-3-3.1-5.7-6.5-8-10.2c-2.3-3.7-4.3-7.6-5.8-11.7c-1.3-3.4-2.3-7-3-10.6c-0.7-3.6-1-7.3-1-11c0-3.8,0.3-7.5,1-11.2
		c0.7-3.8,1.6-7.5,2.9-11.2c1.7-5.9,4.1-11.6,7.2-16.9c3.1-5.4,6.7-10.4,10.9-15c4.2-4.7,8.9-8.9,14-12.6c5.2-3.8,10.8-7,16.7-9.6
		c4.7-2.1,9.6-3.8,14.6-5c4.9-1.2,9.9-1.8,14.9-2c4.9-0.2,9.8,0.2,14.7,1.1c4.8,0.9,9.4,2.2,13.9,4.1l0.8,0.3l0.8,0.4l0.8,0.4
		l0.8,0.4l0.1,0.1l0.1,0.1l0.1,0.1l0.1,0.1c2.3,1,4.6,2.1,6.8,3.4c2.2,1.2,4.2,2.6,6.2,4.1c2,1.5,3.8,3.1,5.6,4.8
		c1.8,1.7,3.5,3.5,5,5.4c2.8,3.3,5,7,6.6,11c1.6,3.9,2.7,8.1,3.1,12.3c0.4,4.3,0.2,8.7-0.6,13c-0.8,4.5-2.3,8.9-4.3,13
		c-0.6,1.3-1.2,2.5-1.9,3.7s-1.4,2.4-2.2,3.6s-1.6,2.3-2.5,3.5s-1.8,2.3-2.7,3.3c-5.3,6.2-12.6,10.3-20.6,11.5
		c-2.6,0.4-5.3,0.5-7.9,0.2c-2.1-0.2-4.3-0.4-6.3-0.7s-4.2-0.7-6.2-1.2s-4-1-6-1.6s-3.9-1.3-5.8-2.1l-1.8-0.7l-1.8-0.7l-1.8-0.7
		l-1.7-0.7c-2.6-1.1-5.2-2.3-7.7-3.6s-5-2.5-7.5-3.8l-7.5-3.8c-2.5-1.3-5-2.5-7.5-3.7l-0.2-0.1l-0.2-0.1l-0.2-0.1l-0.2-0.1l-1-0.4
		l-1.1-0.4l-1.2-0.4l-1.3-0.5c-0.1,0.4-0.2,0.8-0.3,1.2s-0.2,0.8-0.3,1.2s-0.2,0.8-0.2,1.3s-0.1,0.8-0.2,1.2c-0.1,1.9,0,3.9,0.3,5.8
		c0.3,1.9,0.7,3.7,1.4,5.5c0.6,1.8,1.5,3.5,2.4,5.1c1,1.6,2.1,3.2,3.4,4.6c1.8,2,3.8,3.9,6,5.5c2.2,1.6,4.6,2.9,7.1,4
		c1.1,0.5,2.2,0.9,3.4,1.3s2.3,0.7,3.5,1s2.4,0.5,3.7,0.7s2.5,0.3,3.8,0.4c0.8,0,1.7,0,2.5,0s1.7-0.1,2.5-0.2s1.7-0.2,2.5-0.3
		s1.7-0.3,2.5-0.4c1-0.2,2-0.4,3.1-0.4c1-0.1,2-0.1,3,0c1,0.1,1.9,0.2,2.9,0.5c0.9,0.2,1.8,0.5,2.7,0.9c0.8,0.4,1.6,0.8,2.3,1.2
		c0.7,0.5,1.4,1,2.1,1.6c1.3,1.2,2.4,2.6,3.3,4.1c0.8,1.3,1.5,2.5,2.3,3.8c0.8,1.3,1.5,2.6,2.2,3.8l2.2,3.9
		C992.5,1238.7,993.3,1240,994,1241.2z M945.2,1149.2c-0.6,0.5-1.2,1.1-1.7,1.7c-0.3,0.4-0.5,0.9-0.5,1.4c0.1,0.5,0.3,0.9,0.7,1.2
		c0.6,0.5,1.2,0.9,1.8,1.2c1,0.6,2.1,1.1,3.2,1.6l3.2,1.6l3.2,1.6l3.2,1.6c0.8,0.4,1.7,0.8,2.5,1.3l2.5,1.3c0.8,0.4,1.7,0.9,2.5,1.3
		s1.7,0.8,2.6,1.2l0.3,0.1l0.3,0.1l0.3,0.1l0.3,0.1c1.1,0.5,2.3,0.9,3.5,1.4s2.3,0.8,3.5,1.2s2.4,0.7,3.6,1s2.5,0.6,3.7,0.9
		c0.9,0.3,1.8,0.3,2.7,0.2c0.9-0.1,1.8-0.3,2.6-0.7c0.8-0.4,1.6-0.9,2.2-1.6c0.7-0.7,1.2-1.4,1.5-2.3c0.1-0.3,0.2-0.6,0.3-0.9
		c0.1-0.3,0.1-0.6,0.2-0.9c0-0.3,0-0.6,0-0.9c0-0.3,0-0.6-0.1-0.9c0-0.7-0.1-1.3-0.2-2c-0.1-0.7-0.3-1.3-0.4-1.9
		c-0.2-0.6-0.4-1.3-0.6-1.9c-0.2-0.6-0.5-1.2-0.8-1.8c-1.5-2.5-3.3-4.7-5.5-6.6c-1.1-0.9-2.3-1.8-3.5-2.6c-1.2-0.8-2.6-1.4-3.9-2
		c-0.4-0.2-0.8-0.3-1.3-0.5s-0.8-0.3-1.3-0.4s-0.9-0.3-1.3-0.4s-0.9-0.2-1.3-0.3c-2.3-0.8-4.8-1.3-7.3-1.4c-2.5-0.1-5,0.1-7.4,0.7
		c-2.5,0.5-4.9,1.4-7.1,2.6C949.3,1146,947.1,1147.4,945.2,1149.2"/>
	<polygon class="st7" points="703.3,2263.8 738.8,2290.7 109.1,1907.7 61.3,1873.6 	"/>
	<polygon class="st6" points="1913.6,541.2 1919.4,603.3 966.9,2224.7 936.8,2196 	"/>
	<linearGradient id="SVGID_1_" gradientUnits="userSpaceOnUse" x1="703.2239" y1="2254.1277" x2="967.0569" y2="2254.1277">
		<stop  offset="0" style="stop-color:#727272"/>
		<stop  offset="1" style="stop-color:#858585"/>
	</linearGradient>
	<path class="st8" d="M940.4,2259.5c0.5-0.5,0.9-1,1.4-1.4c1.2-1.2,2.3-2.5,3.5-3.8c0.3-0.4,0.6-0.7,1-1.1c1.1-1.2,2.1-2.4,3.1-3.6
		c0.1-0.2,0.3-0.3,0.4-0.5c1.2-1.5,2.4-3,3.6-4.5c0.1-0.1,0.2-0.2,0.2-0.3c1.1-1.4,2.2-2.9,3.3-4.4c0.1-0.1,0.2-0.3,0.3-0.4
		c2.2-3.1,4.4-6.3,6.4-9.5c0.2-0.3,0.4-0.6,0.5-0.8c1-1.6,2-3.2,2.9-4.8l-30.1-28.8l0,0c-6.3,10.7-13.6,20.7-21.8,29.9
		c-0.1,0.1-0.2,0.3-0.4,0.4c-1.3,1.5-2.7,2.9-4,4.4c-0.1,0.1-0.1,0.1-0.2,0.2c-1.2,1.2-2.4,2.4-3.6,3.6c-0.5,0.4-0.9,0.9-1.4,1.3
		c-0.8,0.8-1.6,1.5-2.4,2.3c-0.8,0.7-1.6,1.5-2.4,2.2c-0.9,0.8-1.7,1.5-2.6,2.3c-0.7,0.6-1.3,1.1-2,1.7c-0.7,0.6-1.4,1.2-2.1,1.8
		c-0.6,0.5-1.2,1-1.8,1.5c-1.3,1-2.6,2.1-3.9,3.1c-0.2,0.1-0.3,0.2-0.5,0.4c-1.4,1-2.7,2-4.1,3c-0.2,0.2-0.4,0.3-0.7,0.5
		c-3,2.1-6.1,4.1-9.2,6c-0.4,0.2-0.7,0.4-1.1,0.7c-1.2,0.7-2.3,1.4-3.5,2.1c-0.8,0.5-1.6,0.9-2.4,1.3c-0.9,0.5-1.8,1-2.7,1.5
		c-0.9,0.5-1.9,1-2.8,1.5c-0.4,0.2-0.8,0.4-1.2,0.6c-3.3,1.6-6.6,3.1-9.9,4.6c-0.4,0.2-0.7,0.3-1.1,0.5c-1,0.4-2,0.8-3.1,1.3
		c-0.6,0.2-1.2,0.5-1.8,0.7c-1.2,0.5-2.4,0.9-3.6,1.3c-1.2,0.4-2.4,0.8-3.6,1.2c-0.4,0.1-0.8,0.3-1.3,0.4c-3.5,1.1-7,2.2-10.5,3.1
		c-3.7,0.9-7.4,1.8-11.1,2.5c-0.1,0-0.2,0-0.3,0c-1.5,0.3-3.1,0.5-4.6,0.8c-0.5,0.1-1,0.2-1.5,0.2c-1.3,0.2-2.6,0.4-3.9,0.5
		c-0.8,0.1-1.7,0.2-2.5,0.3c-1,0.1-2,0.2-3,0.3c-0.9,0.1-1.8,0.1-2.7,0.2c-0.6,0-1.3,0.1-1.9,0.1c-3.4,0.2-6.9,0.3-10.4,0.3
		c-0.3,0-0.5,0-0.8,0c-3.8,0-7.6-0.2-11.5-0.5c-0.1,0-0.1,0-0.2,0c-4.4-0.3-8.7-0.9-13-1.6c-1.3-0.2-2.6-0.4-3.9-0.7
		c-0.1,0-0.3-0.1-0.4-0.1c-1.5-0.3-2.9-0.6-4.4-0.9c-0.3-0.1-0.6-0.1-0.9-0.2c-1.4-0.3-2.8-0.7-4.2-1c-0.2-0.1-0.5-0.1-0.7-0.2
		c-1.4-0.4-2.8-0.8-4.2-1.2c-10.2-3-20-7.1-29.4-12.2l-1.7-0.9l-1.7-1l-1.7-1l-1.7-1l0.1,0.1l-0.1-0.1l35.6,27
		c0.5,0.4,1.1,0.7,1.6,1l1.7,1l1.7,0.9l1.7,0.9c2.3,1.2,4.6,2.4,6.9,3.5s4.7,2.2,7,3.1c2.4,1,4.7,1.9,7.1,2.7
		c2.4,0.8,4.7,1.6,7.1,2.3l0,0c2.4,0.7,4.9,1.4,7.4,2c0.5,0.1,1,0.3,1.5,0.4c0.4,0.1,0.7,0.2,1.1,0.3c0.4,0.1,0.9,0.2,1.3,0.3
		c0.7,0.2,1.4,0.3,2.1,0.4c0.8,0.2,1.6,0.3,2.4,0.5c0.9,0.2,1.9,0.3,2.8,0.5c0.5,0.1,1,0.2,1.5,0.3c0.4,0.1,0.9,0.1,1.3,0.2
		c1,0.2,2.1,0.3,3.1,0.4c0.6,0.1,1.1,0.1,1.7,0.2c0.9,0.1,1.9,0.2,2.8,0.3c0.4,0,0.8,0.1,1.3,0.1c0.3,0,0.6,0,0.9,0.1
		c0.2,0,0.3,0,0.5,0c0.4,0,0.9,0.1,1.3,0.1c2.5,0.2,5,0.3,7.6,0.4l0,0c0,0,0,0,0,0l0,0c0.8,0,1.7,0,2.5,0c0.2,0,0.5,0,0.7,0
		c1.2,0,2.3,0,3.5,0c0.6,0,1.2,0,1.9-0.1c1.4,0,2.7-0.1,4.1-0.2c1.1-0.1,2.1-0.1,3.2-0.2c0.5,0,1-0.1,1.5-0.1c12-1,23.9-3.3,35.4-7
		c20.5-6.5,39.5-16.6,56.3-30c0.3-0.2,0.5-0.4,0.8-0.6c0.3-0.2,0.6-0.5,0.8-0.7c1-0.8,2-1.6,2.9-2.5c0.5-0.4,1.1-0.9,1.6-1.4
		c0.8-0.7,1.5-1.3,2.2-2c1.1-1,2.2-2,3.3-3.1c0.5-0.4,0.9-0.9,1.4-1.3c0.4-0.3,0.7-0.7,1.1-1c0.3-0.3,0.7-0.7,1-1
		C939,2260.9,939.7,2260.2,940.4,2259.5z"/>
</g>
<g id="Layer_3">
	<path class="st9" d="M1562.1,1260c-1.3,0-2.5-0.3-3.6-0.8l-76.2-35.7c-4.3-2-6.1-7.1-4.1-11.4c0.1-0.3,0.3-0.5,0.4-0.8l420.3-703.8
		l0.3-0.5c17.4-33.8,22.2-59.1,14.9-79.8c-10.4-29.6-46.7-47.6-86-64.9c-62.4-27.4-575.3-218.7-633.6-240.4l-1.3-0.5h-0.2
		c-18.5-6-36.3-9.1-53.2-9.1c-21.5-0.1-42.7,5.2-61.6,15.6c-22.2,12.2-41.6,31-59.2,57.5c-23.6,35.4-404.8,601.3-408.6,607
		c-1.6,2.4-4.2,3.8-7.1,3.8c-3.6,0-6.9-2.2-8-5.7c-0.5-1.5-1-2.9-1.4-4.4c-0.7-2.4-0.3-5,1.1-7.1l11.2-16.6
		c253.4-375.8,401.5-595.7,417-619c24.6-36.9,68.7-80.8,139.4-80.8c18,0,37,2.9,56.6,8.5c0.2,0.1,0.4,0.1,0.6,0.2
		c6.4,2.4,642.2,237.5,716.3,271.8c56.2,26.1,88.5,45.8,98.4,75.5c7.6,22.5,1.8,50.5-18.2,88l-0.1,0.2l-446.6,749
		C1567.8,1258.5,1565,1260,1562.1,1260z"/>
	<path class="st10" d="M1162.5,67.6c16.8,0,35.2,2.6,55.2,8.3l0.3,0.1c16.8,6.2,643,237.9,715.9,271.7
		c54.9,25.5,86.4,44.6,95.8,72.6c7.1,21.1,1.4,47.8-17.9,84l-446.6,749c-0.9,1.6-2.9,2.2-4.6,1.4l-76.2-35.7c-1.8-0.8-2.5-3-1.7-4.7
		c0-0.1,0.1-0.2,0.1-0.3l420.3-703.8l0.3-0.6c18.1-35.1,23-61.7,15.2-83.8c-11.1-31.5-48.3-50.1-88.7-67.9
		c-66-29-629.6-239-635.3-241.1l-0.2-0.1c-19-6.2-37.3-9.3-54.7-9.3c-22.4-0.1-44.4,5.4-64,16.2c-22.9,12.6-42.9,31.9-61,59.1
		c-22.2,33.3-361.6,537.2-408.6,607c-1.1,1.6-3.3,2.1-4.9,1c-0.6-0.4-1.1-1-1.4-1.7v-0.1c-0.5-1.4-0.9-2.7-1.3-4.1
		c-0.3-1-0.1-2.1,0.5-2.9c21.8-32.3,402.1-596.4,428.2-635.6C1052.8,108,1095.6,67.7,1162.5,67.6 M1162.5,57.7L1162.5,57.7
		c-72.9,0-118.3,45.2-143.6,83.1c-15.6,23.4-164.1,243.8-418,620.4l-10.2,15.2c-2.2,3.3-2.9,7.5-1.8,11.3c0.5,1.6,1,3.1,1.5,4.6l0,0
		l0,0c2.5,7,10.3,10.7,17.3,8.2c2.7-1,5.1-2.8,6.7-5.2c3.8-5.7,385.2-571.8,408.6-607c17.2-25.8,36-44.1,57.5-55.9
		c18.1-10,38.5-15.1,59.2-15c16.3,0,33.7,3,51.6,8.8h0.1l1.1,0.4c58.3,21.7,571,212.9,633.3,240.4c38.3,16.9,73.5,34.3,83.3,62
		c6.8,19.3,2.2,43.3-14.6,75.7l-0.2,0.3l-420.2,703.7c-3.8,6.4-1.8,14.7,4.7,18.6c0.4,0.2,0.8,0.5,1.2,0.6l76.2,35.7
		c6.3,3,13.8,0.7,17.4-5.3l446.6-749l0.1-0.2l0.1-0.2c20.7-38.8,26.6-68,18.6-91.9c-10.5-31.4-43.6-51.9-101-78.5
		c-74.4-34.5-710.2-269.6-716.6-272c-0.3-0.1-0.6-0.2-1-0.3c-18.8-5.6-38.4-8.5-58-8.7L1162.5,57.7z"/>
</g>
</svg>
