<?xml version="1.0" encoding="utf-8"?>
<!-- Generator: Adobe Illustrator 24.3.0, SVG Export Plug-In . SVG Version: 6.00 Build 0)  -->
<svg version="1.1" id="Layer_1" xmlns="http://www.w3.org/2000/svg" xmlns:xlink="http://www.w3.org/1999/xlink" x="0px" y="0px"
	 viewBox="0 0 348.4 696.4" style="enable-background:new 0 0 348.4 696.4;" xml:space="preserve">
<style type="text/css">
	.st0{fill:#3B465C;}
	.st1{fill:#678279;}
	.st2{fill:#93DBD0;}
	.st3{fill:#1A3C34;}
	.st4{fill:#00806E;}
	.st5{fill:#00594E;}
	.st6{fill:#FFFFFF;}
	.st7{fill:#67C9BB;}
	.st8{fill:#F7BA98;}
	.st9{fill:#EDA77D;}
	.st10{fill:#0C1C18;}
	.st11{fill:#1F0C08;}
	.st12{fill:#ECECEC;}
	.st13{fill:#454F56;}
	.st14{fill:#D9D9D9;}
	.st15{fill:#BCBCBB;}
	.st16{fill:#153C37;}
	.st17{fill:#61B9D9;}
	.st18{fill:#00796B;}
	.st19{fill:#30C39E;}
	.st20{fill:#282828;}
	.st21{opacity:0.4;fill:#FFFFFF;enable-background:new    ;}
	.st22{fill:#A5B8C4;}
</style>
<g>
	<g id="Layer_2_1_">
		<g id="Layer_1-2">
			<path class="st0" d="M341.9,133.2c-6.2,0-11.3-3.9-11.3-8.8V61.2c0-4.8,5.1-8.8,11.3-8.8l0,0c6.2,0,6.5,3.9,6.5,8.8v63.2
				C348.4,129.2,348.1,133.2,341.9,133.2z"/>
			<path class="st0" d="M341.9,224.1c-6.2,0-11.3-3.9-11.3-8.8v-63.2c0-4.8,5.1-8.8,11.3-8.8l0,0c6.2,0,6.5,3.9,6.5,8.8v63.2
				C348.4,220.1,348.1,224.1,341.9,224.1z"/>
			<path class="st0" d="M341.9,605.3c-6.2,0-11.3-3.9-11.3-8.8v-63.2c0-4.8,5.1-8.8,11.3-8.8l0,0c6.2,0,6.5,3.9,6.5,8.8v63.2
				C348.4,601.3,348.1,605.3,341.9,605.3z"/>
			<path class="st1" d="M343.3,674.7c0,12-8.3,21.7-18.6,21.7h-306C8.4,696.4,0,686.7,0,674.7v-653C0,9.7,8.4,0,18.6,0h306
				c10.3,0,18.6,9.7,18.6,21.7L343.3,674.7z"/>
			<rect x="11.6" y="52.5" class="st2" width="320.2" height="573.4"/>
			<path class="st3" d="M232.1,653.5c0,7-5.7,12.7-12.7,12.7h-91.3c-7,0-12.7-5.7-12.7-12.7l0,0c0-7,5.7-12.7,12.7-12.7h91.3
				C226.4,640.9,232.1,646.5,232.1,653.5L232.1,653.5z"/>
			<path class="st3" d="M200.4,23.1c0,5-4,9-9,9h-0.1h-65.1c-5,0-9-4-9-9l0,0c0-5,4-9,9-9h65.1C196.4,14.1,200.4,18.1,200.4,23.1
				L200.4,23.1L200.4,23.1z"/>
			<path class="st3" d="M230.3,23.1c0,5.3-4.2,9.5-9.5,9.5c-5.3,0-9.5-4.2-9.5-9.5s4.2-9.5,9.5-9.5l0,0
				C226,13.7,230.3,18,230.3,23.1z"/>
			<rect x="11.6" y="52.5" class="st4" width="320.2" height="48.8"/>
			<path class="st5" d="M69.1,75.7c0,7.8-6.3,14.1-14.1,14.1s-14.1-6.3-14.1-14.1S47.2,61.5,55,61.5l0,0
				C62.7,61.5,69.1,67.9,69.1,75.7z"/>
			<path class="st5" d="M284.5,75.7c0,7.8-6.3,14.1-14.1,14.1s-14.1-6.3-14.1-14.1s6.3-14.1,14.1-14.1l0,0
				C278.2,61.5,284.5,67.9,284.5,75.7z"/>
			<path class="st5" d="M319.9,75.7c0,7.8-6.3,14.1-14.1,14.1c-7.8,0-14.1-6.3-14.1-14.1s6.3-14.1,14.1-14.1
				C313.6,61.5,319.9,67.9,319.9,75.7L319.9,75.7z"/>
			<path class="st5" d="M241.3,75.7c0,7.8-5,14.1-11.1,14.1H115.5c-6.1,0-11.1-6.3-11.1-14.1l0,0c0-7.8,5-14.1,11.1-14.1h114.8
				C236.4,61.5,241.3,67.9,241.3,75.7z"/>
			<path class="st6" d="M102.7,424.7c-1.1,15.8-3.2,31.6-6.3,47.2h155.2c-3.6-15.8-5.9-31.7-7-47.9c-3-49.7,20.7-121.1,2.4-140
				c-9.1-9.4-49-13.2-49-13.2l-22.9,1.9l-19.5-1.9c0,0-43.3,3.9-52.3,13.2C84.7,302.9,105.7,374.9,102.7,424.7z"/>
			<path class="st7" d="M207.9,272c-5.6-0.8-9.4-1.2-9.4-1.2l-22.9,1.9l-19.5-1.9c0,0-3.6,0.3-9,1c-16.2,32.5,27.6,84.3,27.6,84.3
				S220.3,273.7,207.9,272z"/>
			<path class="st8" d="M193.8,255.4c1-11.6-37.4-8.8-34.8,0c2.7,8.8-3.7,15.4-3.7,15.4s-6.3,13.5,21.6,14.1
				c27.9,0.7,20.9-14.1,20.9-14.1S192.9,267,193.8,255.4z"/>
			<path class="st9" d="M193.8,259.6c0,6.6-7.6,12-17,12s-17-5.4-17-12s7.6-12,17-12S193.8,253,193.8,259.6z"/>
			<path class="st8" d="M215.8,167.3c-1.3-25.8-23.8-37.5-42.9-37.5s-39.6,12.3-39.5,37.5c0.9,24.8,0.2,32.8,0.5,47.5
				c1.3,19.6,22.2,51,40.4,51s38.1-32.1,40.7-51C215.7,200.1,217.1,192.1,215.8,167.3z"/>
			<path class="st10" d="M226.1,156.2c-2.5-18.2-19.6-40.3-52-40.3c-26.3,0-55.3,23.8-55.2,42.9c0.1,13.8,9.3,55.1,16.5,49.7
				c5.4-4-3.6-15.7-0.4-34.1c1.4-8.1,3-16,9.9-19.5s19.9,8.5,30.1,7.6c17.8-1.5,21.6-12.7,29.3-9.9c7.6,2.8,11.4,35.7,8.2,53
				c-1.6,8.8,8.8,3.4,9.4-4.8C223.3,178.4,227.4,165.4,226.1,156.2z"/>
			<path class="st8" d="M212.5,205.7c-9.1,1.4,1.1,10.9,8,9.8c4.9-0.8,9.9-8.9,9.9-15.4c0-7.6-3.9-11.2-8.8-10.4
				C213,191.2,218.7,204.8,212.5,205.7z"/>
			<path class="st8" d="M136.8,205.7c9.1,1.4-1.1,10.9-8,9.8c-4.9-0.8-9.9-8.9-9.9-15.4c0-7.6,3.9-11.2,8.8-10.4
				C136.2,191.2,130.6,204.8,136.8,205.7z"/>
			<path class="st10" d="M163.3,182.5c-0.8,1.6-3.8-2.2-11.6-1.7c-6.6,0.4-11.4,6.2-11.5,4.4s1.3-6,8.3-9.2
				c5.4-2.4,12.9-0.8,14.8-0.2C165.3,176.2,163.9,181.2,163.3,182.5z"/>
			<path class="st10" d="M184.8,182.5c0.8,1.6,3.8-2.2,11.6-1.7c6.6,0.4,11.4,6.2,11.5,4.4s-1.3-6-8.3-9.2
				c-5.4-2.4-12.9-0.8-14.8-0.2C182.8,176.2,184.1,181.2,184.8,182.5z"/>
			<polygon class="st9" points="174.1,208.1 174.1,213.4 180.4,208.1 			"/>
			<path class="st11" d="M158.7,196.1c0,1.8-1.5,3.3-3.3,3.3s-3.3-1.5-3.3-3.3c0-1.8,1.5-3.3,3.3-3.3l0,0
				C157.2,192.8,158.7,194.3,158.7,196.1L158.7,196.1z"/>
			<path class="st11" d="M199.1,196.1c0,1.8-1.5,3.3-3.3,3.3c-1.8,0-3.3-1.5-3.3-3.3c0-1.8,1.5-3.3,3.3-3.3l0,0
				C197.6,192.8,199.1,194.3,199.1,196.1L199.1,196.1z"/>
			<path class="st6" d="M269.8,397c-1.9-19.3-31.7-36.1-33.3-50.5c-1.6-14.3-1.5-67,6.9-65.2c15.5,3.4,64.2,80.2,65.8,109.7
				C310.7,420.6,271.6,416.4,269.8,397z"/>
			<path class="st6" d="M224.2,296.9c-1.3,7.6-4.7,9.8-4.7,9.8l-10.8-4.3c0.5,0.7,9.5,13.7,6.1,19.4c-2,3.4-28.9,24.8-37.9,32
				c-0.9,0.7-1.7,1.5-2.4,2.4c0.5-1.1,22.8-47.1,26.9-58.2c4.1-11.1-3.6-27.1-3.6-27.1l23.9,2.2l1.8,0.2
				C223.6,273.2,225.6,289.3,224.2,296.9z"/>
			<path class="st12" d="M224.2,296.9c-1.3,7.6-4.7,9.8-4.7,9.8l-10.8-4.3c0.5,0.7,9.5,13.7,6.1,19.4c-2,3.4-28.9,24.8-37.9,32
				c1.4-1.6,2.7-3.1,4.1-4.4c3.6-3.3,6.8-7.3,10.3-10.8c5.3-5.3,11.6-10.6,16-16.9c4.3-6.3-0.4-12.6-2.3-19c-0.7-2.2-1-3.7,1.9-3.5
				c1.7,0.2,3.4,0.7,5,1.4c3.9,1.4,6,1.3,6.9-3.3c1.4-7.2,1.5-14.5,2.5-21.7c0.1-0.8,0.2-1.7,0.4-2.5l1.8,0.2
				C223.6,273.3,225.6,289.3,224.2,296.9z"/>
			<path class="st6" d="M128.7,296.9c1.3,7.6,4.7,9.8,4.7,9.8l10.8-4.3c-0.5,0.7-9.5,13.7-6.1,19.4c2,3.4,36.4,34.1,36.6,34.3
				c-0.5-1.1-19.1-47.1-23.2-58.2c-4.1-11.1,3.6-27.1,3.6-27.1l-23.9,2.2l-1.8,0.2C129.3,273.2,127.4,289.3,128.7,296.9z"/>
			<path class="st12" d="M128.7,296.9c1.3,7.6,4.7,9.8,4.7,9.8l10.8-4.3c-0.5,0.7-9.5,13.7-6.1,19.4c2,3.4,27.6,27.1,36.6,34.3
				c-1.4-1.6-24.8-28.2-29.1-34.5c-4.3-6.3,0.4-12.6,2.3-19c0.7-2.2,1-3.7-1.9-3.5c-1.7,0.2-3.4,0.7-5,1.4c-3.9,1.4-6,1.3-6.9-3.3
				c-1.4-7.2-1.5-14.5-2.5-21.7c-0.1-0.8-0.2-1.7-0.4-2.5l-1.8,0.2C129.3,273.2,127.4,289.3,128.7,296.9z"/>
			<path class="st12" d="M174.6,356.1c0,0,0.2,6.8,0.5,17c0.1,5.1,0.2,11,0.4,17.4c0.1,6.4,0.2,13.2,0.3,19.9
				c-0.1,6.8-0.2,13.6-0.3,19.9c-0.1,6.3-0.2,12.3-0.4,17.4c-0.3,10.2-0.5,17-0.5,17s-0.1-6.8-0.2-17c0-5.1,0-11,0-17.4
				s0.1-13.2,0.1-19.9c0.1-6.8-0.1-13.6-0.1-19.9c-0.1-6.3,0-12.3,0-17.4C174.6,362.9,174.6,356.1,174.6,356.1z"/>
			<rect x="193.5" y="352.8" class="st13" width="36.8" height="14.6"/>
			<path class="st14" d="M217.2,390.1c0,6.2-5,11.2-11.2,11.2s-11.2-5-11.2-11.2s5-11.2,11.2-11.2l0,0
				C212.2,379,217.2,384,217.2,390.1z"/>
			<path class="st3" d="M212.9,390.1c0,3.8-3.1,6.9-6.9,6.9c-3.8,0-6.9-3.1-6.9-6.9s3.1-6.9,6.9-6.9S212.9,386.3,212.9,390.1
				L212.9,390.1z"/>
			<path class="st14" d="M206,393c-1.6,0-2.8-1.3-2.8-2.9c0-0.3,0.1-0.6,0.1-0.9c0.2-0.7,23.9-72.4,6.3-105.1
				c-3-5.6-6.6-10.8-11.7-13.4c-2.1-1.4-3.4-6.2-3.4-6.2c8.8,2.7,15.5,8.3,20.1,16.9c18.7,34.9-4.9,106.6-5.9,109.6
				C208.3,392.2,207.3,393,206,393z"/>
			<path class="st14" d="M162.9,424.8h-0.3c-1-0.2-1.7-1.1-1.6-2.1l0,0c0-0.1,2-13.5-0.7-24.7c-0.2-1,0.4-2,1.5-2.2
				c1-0.2,1.9,0.4,2.2,1.3c2.9,11.8,0.8,25.5,0.7,26.1C164.6,424.1,163.8,424.8,162.9,424.8z"/>
			<path class="st15" d="M157.6,433c0.2,0.9,6.2,2.2,6.9,1c0.7-1.3,0.5-9.7,0.4-11.5c-0.1-1.8-3.6-2.5-4.2-0.6
				C160,424.4,157.4,432.1,157.6,433z"/>
			<path class="st14" d="M145,429.7c-0.4,0-0.7-0.1-1-0.3c-0.5-0.3-12.8-8.1-17.5-19.9c-0.3-1,0.2-2.1,1.1-2.4
				c0.9-0.3,1.9,0.1,2.3,1c4.2,10.8,15.9,18.1,16,18.1c0.9,0.5,1.1,1.7,0.6,2.6C146.2,429.4,145.6,429.7,145,429.7L145,429.7z"/>
			<path class="st14" d="M140.4,374.2c-1.2,0-2.3-0.8-2.7-1.9c-0.8-2.4-19.6-57.9-3-89.2c4.8-9.4,13.5-16.3,23.9-18.9
				c0.2-0.1,0.4-0.1,0.6-0.1c-0.6,2.5-1.9,4.8-3.7,6.7c-6.8,3-12.4,8.3-15.7,15c-15.5,29.1,3.2,84.1,3.4,84.6
				c0.5,1.5-0.3,3.1-1.8,3.6C141.1,374.2,140.8,374.2,140.4,374.2L140.4,374.2z"/>
			<path class="st16" d="M137.7,372.3c-2.3-7.1-4.2-14.3-5.8-21.6l5.6-1.2c1.5,7.1,3.3,14,5.6,20.9L137.7,372.3z"/>
			<path class="st16" d="M128.2,411.2c-1,0-1.9-0.5-2.5-1.4c-3-5.3-4.5-11.4-4.4-17.5c0.2-10.2,6.8-22,18.6-23.8
				c8-1.3,14.9,2.8,20.6,12.3c3.8,6.3,4.8,17.2,4.8,17.6c0.2,1.6-0.8,3-2.4,3.2c-1.6,0.2-3-0.8-3.2-2.4c0-0.1,0-0.2,0-0.3
				c0-0.1-1-10-4-15.2c-4.4-7.3-9.2-10.5-14.8-9.5c-8.3,1.3-13.6,10.3-13.8,18.3c-0.1,5,1.2,10,3.6,14.4c0.8,1.3,0.4,3.1-1,3.9
				C129.2,411.1,128.7,411.2,128.2,411.2L128.2,411.2z"/>
			<path class="st16" d="M125.5,391.1c-1,0-1.9-0.8-1.9-1.9c0-0.6,0.2-1.1,0.7-1.5c0.4-0.3,9-7,17.7-8.5c8.9-1.6,17.8,3.4,18.1,3.7
				c0.9,0.5,1.2,1.7,0.7,2.6c-0.5,0.9-1.7,1.2-2.6,0.7c-0.1-0.1-8.1-4.5-15.6-3.2c-7.7,1.4-16,7.7-16,7.8
				C126.3,390.9,125.9,391.1,125.5,391.1z"/>
			<path class="st15" d="M155.8,431.7c0.4,0.8-3,5.9-4.4,5.4c-1.4-0.4-7-6.7-8.1-8.2c-1.1-1.5,0.9-4.3,2.7-3.3
				C148.2,427,155.3,430.8,155.8,431.7z"/>
			<path class="st10" d="M197.6,242.7c-0.2,4.4-1.5,8.6-3.4,12.4c-1.6,3.1-2.4,4.8-4.6,6.6c-3.8,3-8.9,3.8-11.5,4.1l0,0
				c-0.8,0-1.6,0-2.4,0H175c-0.8,0-1.6,0-2.4,0l0,0c-2.6-0.3-7.6-1.1-11.5-4.1c-2.3-1.8-3-3.6-4.6-6.6c-2-3.9-3.2-8-3.4-12.4
				c-0.2-3,0.1-5.9,0.8-8.8c0.2-0.5,0.3-1.1,0.4-1.6l0,0c0.3-1,0.6-1.8,0.9-2.6l0.1-0.2c1-2.4,2.7-4.4,4.7-6c3-2.4,7.7-4,15.2-4h0.2
				c7.5,0,12.1,1.7,15.2,4c2,1.6,3.6,3.7,4.7,6c0,0.1,0.1,0.1,0.1,0.2c0.3,0.8,0.6,1.6,0.9,2.6l0,0c0.1,0.5,0.3,1.1,0.5,1.6
				C197.5,236.8,197.8,239.7,197.6,242.7z"/>
			<path class="st8" d="M188.8,231.2c0,4.8-2.3,11.1-13.6,11.1c-10.3,0-13.6-6.3-13.6-11.1c0-4.8,6.1-6.3,13.6-6.3
				C182.7,224.8,188.8,226.4,188.8,231.2z"/>
			<path class="st7" d="M197.8,427.8l-7.8-3.2l18.9-46.1c1.7-4.1,9.5-1.1,7.8,3.2C215.3,385.1,197.8,427.8,197.8,427.8z"/>
			<polygon class="st17" points="197.8,427.8 190,424.6 189.6,436.8 			"/>
			<path class="st8" d="M259.8,395.8l-40.5,11.5c0,0-13.2-3.8-15.8-3.6c-2.6,0.2-9.5,4.5-11,7.6c-1,2-3.7,9.6-1.6,11.5
				s12,0.7,18.4,0.7c6,0,10-5.4,10-5.4l46.6,1.1L259.8,395.8z"/>
			<path class="st6" d="M280.2,426.7c19.4-8.3,29.7-23.3,29-33.7c-1.3-16.9-34.3-2.8-34.3-2.8l-53.2,14.5l3.1,23.6
				C224.7,428.3,265.3,433,280.2,426.7z"/>
			<path class="st18" d="M219,442.8c-1.9,3.2-5.3,5.3-9.1,5.5h-44.5c-3.7-0.2-7.2-2.2-9.1-5.5l-16-28c0,0,0.5-6.5,3.9-6.5H231
				c3.4,0,3.9,6.2,3.9,6.2L219,442.8z"/>
			<path class="st19" d="M219,446.6c-1.9,3.2-5.3,5.3-9.1,5.5h-44.5c-3.7-0.2-7.2-2.2-9.1-5.5l-15.4-29c-1.6-3-0.1-5.5,3.3-5.5H231
				c3.4,0,4.9,2.5,3.3,5.5L219,446.6z"/>
			<path class="st8" d="M95.3,432.2l33.9,5l16.6-10.2l2.4,4.7c0,0,1.7-0.1,3.2-0.3c7.4-0.8,1,22.1,1,22.1s-9.4-0.7-14.3-1.6
				c-3.4-0.5-6.9-0.7-10.3-0.7l-32.5,1.1L95.3,432.2L95.3,432.2z"/>
			<path class="st8" d="M147.9,431.6c0,0,6.5-1.5,13.1-2.9c4-0.8,7.9-2.5,11.2-4.9c2.4-1.9,5.6-0.7,1.6,2.9c-1.8,1.6-5.9,5-10.9,6.3
				l-5.7,1.5c7.3-1,14.3-3.7,20.2-8c2.2-1.6,5-0.8,1.5,2.8c-7.6,8-22.2,10.5-22.2,10.5s19.2-4.4,22.1-6.3c4-2.5,5.8,1.9,1,5
				c-3.4,2.2-20.7,7.6-20.7,7.6s9.1-0.3,14.8-2c3-0.8,2.2,1.7-1.1,3.6c-4,2.2-20.4,5.7-20.4,5.7L147.9,431.6z"/>
			<path class="st6" d="M129.5,434.5l-1.2,24.2c0,0-86.5,8.6-97-32.5c-8.3-32.4,35.1-84,42.2-106c8.9-27,24.3-37.4,36-40.3
				c6.4-1.6,3.6,33.2,2.4,56.9c-1.2,23.1-10.6,46.3-10.6,46.3s-19.3,19.1-19.1,27C82.5,428,129.5,434.5,129.5,434.5z"/>
			<path class="st12" d="M102.5,427.7c0,0,1.8,0.2,4.3,0.7c2.6,0.5,6,1.3,9.3,2.1c3.3,0.8,6.7,1.8,9.2,2.6c2.5,0.8,4.1,1.4,4.1,1.4
				s-1.8-0.2-4.3-0.7c-2.6-0.5-6-1.3-9.3-2.1s-6.7-1.8-9.2-2.6C104.1,428.3,102.5,427.7,102.5,427.7z"/>
			<path class="st12" d="M98.2,459.5c5-0.4,10-0.7,15-0.9c5-0.2,10-0.4,15-0.4l-0.5,0.5c0.2-2.7,0.3-5.4,0.5-8.2
				c0.2-2.7,0.5-5.4,0.8-8.2c0.1,2.7,0.1,5.5,0,8.2c0,2.7-0.1,5.4-0.2,8.2v0.5h-0.5c-5,0.2-10,0.2-15,0.3
				C108.3,459.7,103.2,459.7,98.2,459.5z"/>
			<path class="st12" d="M221.6,404.7c0,0,1.4-0.6,3.5-1.3c2.1-0.7,5-1.6,7.9-2.4c2.9-0.8,5.8-1.5,8-1.9c2.2-0.4,3.7-0.7,3.7-0.7
				s-1.4,0.6-3.5,1.3c-2.1,0.7-5,1.6-7.9,2.4c-2.9,0.8-5.9,1.5-8,1.9C223.2,404.5,221.6,404.7,221.6,404.7z"/>
			<path class="st12" d="M228,429.6c0,0,1.1-0.2,2.7-0.3c1.6-0.1,3.7-0.2,5.8-0.2s4.2,0.2,5.8,0.4c1.6,0.2,2.7,0.4,2.7,0.4
				s-1.1,0.2-2.7,0.3c-1.6,0.1-3.7,0.2-5.8,0.2s-4.2-0.2-5.8-0.4C229.1,429.8,228,429.6,228,429.6z"/>
			<path class="st20" d="M168.9,186.6c-3.1-4.7-31.1-3.1-33.8,0c-2.7,3.1-1.5,16.6,3.3,21.9c4.8,5.4,21.3,2.3,25.3-0.7
				C167.9,204.6,172,191.2,168.9,186.6z M162.2,206.5c-3.4,2.7-18,5.4-22.1,0.7c-4.2-4.7-5.3-16.4-2.9-19.2c2.4-2.8,26.8-4,29.5,0
				C169.4,192,165.9,203.7,162.2,206.5z"/>
			<path class="st21" d="M162.2,206.5c-3.4,2.7-18,5.4-22.1,0.7c-4.2-4.7-5.3-16.4-2.9-19.2c2.4-2.8,26.8-4,29.5,0
				C169.4,192,165.9,203.7,162.2,206.5z"/>
			<path class="st21" d="M139.7,193.1c3.8-5,11.8-7.9,18.5-6.2c4.9,1.2,7.9,4,9.3,7.4c0.3-2.6,0.2-5-0.8-6.3c-2.7-4-27.2-2.8-29.5,0
				c-2.4,2.8-1.3,13.7,2.5,18.7C138.1,202.3,136.7,197.2,139.7,193.1z"/>
			<path class="st20" d="M184.5,207.8c4,3,20.5,6.2,25.3,0.7c4.8-5.4,6-18.8,3.3-21.9c-2.7-3.1-30.6-4.7-33.8,0
				C176.2,191.2,180.4,204.6,184.5,207.8z M181.5,188c2.7-4,27.1-2.8,29.5,0c2.4,2.8,1.3,14.4-2.9,19.2s-18.6,2-22.1-0.7
				C182.4,203.7,178.8,192,181.5,188L181.5,188z"/>
			<path class="st21" d="M186,206.5c3.4,2.7,18,5.4,22.1,0.7c4.2-4.7,5.3-16.4,2.9-19.2c-2.4-2.7-26.8-4-29.5,0
				C178.8,192.1,182.4,203.7,186,206.5z"/>
			<path class="st21" d="M208.5,193.1c-3.8-5-11.8-7.9-18.5-6.2c-4.9,1.2-7.9,4-9.3,7.4c-0.3-2.6-0.2-5,0.8-6.3
				c2.7-4,27.1-2.8,29.5,0c2.4,2.8,1.3,13.7-2.5,18.7C210.1,202.3,211.6,197.2,208.5,193.1z"/>
			<path class="st20" d="M179.5,193c-1.7-0.9-3.6-1.4-5.5-1.6c-1.9,0.1-3.7,0.7-5.3,1.6v-3.1c1.5-1.1,3.4-1.6,5.3-1.6
				c1.9-0.1,3.9,0.5,5.5,1.6V193z"/>
			<path class="st20" d="M135.2,196.7c0,0-3.2-1.5-3.2-3v-3.9c0-1.1,3.1-3.3,3.1-3.3L135.2,196.7z"/>
			<path class="st20" d="M212.9,196.7c0,0,3.2-1.5,3.2-3v-3.9c0-1.1-3.1-3.3-3.1-3.3L212.9,196.7z"/>
			<rect x="23.6" y="471.9" class="st4" width="296.3" height="141.3"/>
			<rect x="23.6" y="471.9" class="st5" width="296.3" height="63.3"/>
			<rect x="63.8" y="551.5" class="st22" width="220.7" height="13.5"/>
			<rect x="94.5" y="576.5" class="st22" width="159.4" height="13.4"/>
			<path class="st6" d="M148.1,73.3c-0.5,0.6-1.2,1.1-2,1.3c-0.5,0.1-1,0.2-1.5,0.1c0-0.2,0.1-0.3,0.1-0.5c0.5-1.1,1.5-2.1,2.8-2.4
				c1.1-0.3,2.2-0.2,3.3,0.2l0.3,0.1c0-0.1,0-0.2,0-0.3c0-0.6,0-1.2,0-1.8c0-0.2,0-0.4,0.1-0.6c0.1-0.7,0.7-1.1,1.4-1.2
				c0.4,0,0.8,0,1.2,0c0.2,0,0.2,0,0.2,0.2v6.8c0,0.1,0,0.2,0.1,0.4c0-0.1,0.1-0.2,0.1-0.3c0.2-0.9,0.6-1.8,1.3-2.4
				c0.7-0.6,1.5-1,2.4-1.2c1-0.2,2-0.1,2.9,0.3l0.2,0.1c0-0.1,0-0.2,0-0.4c0-0.7,0-1.4,0-2.1c0-0.8,0.7-1.5,1.5-1.5l0,0
				c0.4,0,0.7,0,1.1,0c0.4,0,0.2,0,0.2,0.2v0.1c0,2.5,0,5,0,7.4c0,0.7-0.1,1.4-0.3,2.1c-0.3,1.1-1,2.1-2.1,2.7
				c-0.5,0.2-1,0.4-1.6,0.5c-1,0.1-1.9,0.1-2.8-0.3c-1.6-0.6-2.7-2.1-2.8-3.9c0-0.1-0.1-0.2-0.1-0.3c-0.1,0.2-0.1,0.5-0.1,0.8
				c-0.2,1-0.6,1.8-1.3,2.5c-0.6,0.6-1.5,1-2.3,1.1c-0.2,0-0.5,0.1-0.7,0.1c-1.3,0.1-2.5-0.2-3.5-1c-1-0.7-1.6-1.8-1.7-3
				c-0.1-0.5-0.1-1,0-1.5c0-0.2,0-0.3,0.3-0.3l0.6-0.1c1-0.1,1.9-0.5,2.4-1.4c0.1-0.2,0.3-0.4,0.4-0.6L148.1,73.3z M151.4,76.5
				c0-0.3-0.1-0.6-0.1-0.9c-0.2-0.9-1-1.6-2-1.6c-0.9,0-1.7,0.5-1.9,1.4c-0.2,0.7-0.2,1.4,0,2.1c0.1,0.4,0.4,0.7,0.6,0.9
				c0.5,0.4,1.1,0.5,1.8,0.4c0.5-0.1,1-0.4,1.3-0.8C151.2,77.5,151.4,77,151.4,76.5z M156.8,76.5c0.1,0.3,0.1,0.6,0.2,0.9
				c0.2,0.8,1,1.5,1.9,1.5c0.8,0.1,1.6-0.4,2-1.1c0.3-0.5,0.4-1.1,0.2-1.8c-0.1-0.5-0.3-1-0.7-1.4c-0.8-0.8-2.1-0.8-2.9,0
				C157.1,75.1,156.8,75.8,156.8,76.5L156.8,76.5z"/>
			<path class="st6" d="M132.4,72.1c0-0.1,0-0.2,0-0.3c0-0.7,0-1.3,0-2c0-0.8,0.7-1.6,1.5-1.6c0.1,0,0.1,0,0.1,0c0.3,0,0.6,0,0.9,0
				c0.3,0,0.2,0,0.3,0.2v5.3c0,0.4,0,0.8,0,1.1c0,1-0.1,1.9-0.2,2.9c-0.2,0.7-0.5,1.5-1,2c-0.4,0.5-1,0.8-1.6,1
				c-1.4,0.5-2.9,0.4-4.2-0.2c-1.4-0.6-2.4-1.9-2.5-3.4c-0.2-1-0.1-2,0.3-3c0.5-1.1,1.5-2,2.7-2.4c1.1-0.4,2.2-0.4,3.3,0L132.4,72.1
				C132.4,72.2,132.4,72.2,132.4,72.1z M132.6,76.5v-0.4c0-1.1-1-2.1-2.1-2.1c-0.1,0-0.2,0-0.4,0.1c-0.5,0.1-1,0.4-1.3,0.8
				c-0.4,0.5-0.5,1-0.5,1.6c0,0.4,0.1,0.9,0.3,1.3c0.5,1,1.7,1.3,2.7,0.9c0.5-0.2,0.8-0.5,1-1C132.5,77.3,132.6,76.9,132.6,76.5z"/>
			<path class="st6" d="M185.3,72.2c-0.5,0.3-1,0.6-1.5,0.8c-0.4,0.2-0.9,0.1-1.3-0.2c-0.3-0.2-0.5-0.4-0.8-0.5
				c-1.2-0.5-2.7-0.2-3.6,0.8c-0.4,0.4-0.7,1-0.7,1.6c-0.1,0.7-0.1,1.3,0.1,2c0.3,1.1,1.2,1.8,2.3,2c0.8,0.2,1.6,0.1,2.3-0.3
				c0.2-0.1,0.4-0.2,0.5-0.4c0.4-0.3,0.8-0.4,1.3-0.1c0.4,0.2,0.8,0.5,1.3,0.7c0,0,0,0,0.1,0.1c0.1,0.1,0,0.1-0.1,0.2
				c-0.6,0.9-1.5,1.6-2.5,2c-0.8,0.3-1.8,0.5-2.6,0.4c-1.4-0.1-2.7-0.7-3.7-1.6c-1-0.9-1.5-2.2-1.6-3.4c-0.2-1.4,0.1-2.7,0.8-3.9
				c0.6-1,1.5-1.7,2.6-2.1c1.5-0.6,3-0.7,4.5-0.1c1.1,0.4,2,1.1,2.7,2.1C185.2,72,185.2,72.1,185.3,72.2z"/>
			<path class="st6" d="M197,77.4c0.1,0.1,0.1,0.2,0.1,0.3c0.2,0.5,0.7,0.8,1.2,1c0.7,0.2,1.4,0.2,2-0.1c0.2-0.1,0.4-0.2,0.5-0.3
				c0.4-0.3,1-0.4,1.4-0.1l1,0.6l0.1,0.1c0,0.1-0.1,0.2-0.1,0.2c-0.6,0.9-1.5,1.6-2.5,1.8c-1.6,0.5-3.2,0.2-4.5-0.8
				c-0.8-0.6-1.4-1.5-1.6-2.5c-0.5-1.5-0.2-3.2,0.8-4.5c0.8-1.1,2.1-1.8,3.5-1.8c0.7-0.1,1.4,0.1,2,0.4c1.1,0.5,1.9,1.5,2,2.7
				c0.1,0.4,0.1,0.7,0,1.1c-0.1,0.7-0.5,1.3-1.1,1.5c-0.5,0.2-1,0.4-1.6,0.4c-0.9,0.1-1.8,0-2.8,0.1L197,77.4z M198.4,75.3
				L198.4,75.3c0.3,0,0.5,0,0.8,0c0.4,0,0.7-0.1,1-0.1c0.2-0.1,0.4-0.3,0.4-0.5c0-0.1-0.1-0.1-0.1-0.2c-0.1-0.1-0.2-0.3-0.4-0.4
				c-0.4-0.2-1-0.4-1.5-0.2c-0.7,0.1-1.2,0.5-1.5,1.1c-0.1,0.2,0,0.3,0.2,0.3S198,75.3,198.4,75.3L198.4,75.3z"/>
			<path class="st6" d="M188.6,73.8l0.1-0.2c0.2-0.4,0.6-0.6,1-0.7c0.8-0.3,1.8-0.2,2.7,0.2c0.7,0.4,1.1,0.9,1.4,1.6
				c0.2,0.5,0.3,1,0.3,1.5c0,1.6,0,3.1,0,4.7c0,0,0,0.1,0,0.2c0,0.1-0.1,0.2-0.2,0.2c-0.5,0.1-1.1,0-1.6-0.1c-0.6-0.1-1-0.6-1-1.1
				c0-0.3,0-0.7,0-1c0-0.7,0-1.4,0-2c0-0.4-0.1-0.7-0.1-1c-0.1-0.6-0.6-1-1.2-1h-0.1c-0.2,0-0.3,0-0.5,0.1c-0.4,0.1-0.7,0.4-0.7,0.8
				c-0.1,0.3-0.1,0.6-0.1,0.8c0,1.3,0,2.7,0,4c0,0.1,0,0.2,0,0.2c0,0.2,0,0.2-0.2,0.2c-0.5,0-0.9,0-1.4-0.1
				c-0.7-0.1-1.3-0.7-1.2-1.4c0-0.1,0-0.2,0-0.4v-8.8c0-0.4,0-0.4,0.4-0.4c0.4,0,0.7,0,1,0.1c0.8,0.1,1.3,0.7,1.3,1.5
				c0,0.6,0,1.2,0,1.8v0.3L188.6,73.8z"/>
			<path class="st6" d="M141.4,74.5c0-0.4-0.2-0.8-0.6-1c-0.4-0.2-0.9-0.4-1.4-0.4c-0.4,0-0.8,0-1.3,0.1c-0.3,0-0.5-0.1-0.8-0.2
				c-0.2-0.2-0.4-0.5-0.5-0.8c-0.1-0.2-0.1-0.5-0.1-0.8c0-0.2,0-0.3,0.2-0.3c0.5-0.1,1-0.2,1.5-0.2c1-0.1,2.1,0.1,3,0.3
				c1.1,0.3,2.1,1.2,2.4,2.4c0.1,0.3,0.1,0.7,0.2,1c0.1,0.3,0,0.3-0.2,0.4c-0.5,0.2-0.9,0.4-1.3,0.7c-0.2,0.2-0.4,0.3-0.6,0.4
				c-0.4,0.2-0.8,0.3-1.3,0.2l-0.5-0.1c-0.7-0.2-1.5-0.1-2.2,0.2c-0.2,0.2-0.5,0.4-0.6,0.7c-0.2,0.4-0.2,0.9,0.2,1.3
				c0.5,0.6,1.5,0.9,2.2,0.7c0.8-0.2,1.5-0.7,2-1.3c0.3-0.4,0.5-0.8,0.8-1.1c0.3-0.4,0.7-0.7,1.1-0.9l0.3-0.1c0,0.1,0,0.1,0,0.2
				c0.1,0.8,0,1.6-0.1,2.4c-0.2,1.2-1,2.2-2.1,2.7c-0.6,0.3-1.3,0.4-1.9,0.4c-0.7,0.1-1.3-0.1-2-0.2c-0.6-0.2-1.1-0.5-1.6-0.9
				c-0.4-0.4-0.7-0.9-0.9-1.5c-0.2-0.7-0.2-1.6,0.1-2.3c0.2-0.7,0.7-1.1,1.4-1.4c0.5-0.2,1.1-0.4,1.6-0.4c0.5,0,1.1,0,1.6,0h1
				L141.4,74.5z"/>
			<path class="st6" d="M215.6,77.2v3.6c0,0.1-0.1,0.2-0.2,0.2c-0.4,0-0.9,0-1.3-0.1c-0.7-0.1-1.3-0.8-1.3-1.5v-9.1
				c0-0.5,0-0.5,0.5-0.5c0.3,0,0.6,0,0.9,0c0.8,0.1,1.4,0.7,1.4,1.5c0,0.2,0,0.4,0,0.6v3.9c0,0.1,0,0.2,0,0.3h0.1l0.2-0.2
				c0.5-0.8,1-1.6,1.6-2.3c0.2-0.2,0.4-0.4,0.5-0.6c0.2-0.2,0.4-0.3,0.7-0.3c0.3,0,0.7,0,1,0h1.3h0.3l-0.5,0.6c-0.8,1-1.7,1.9-2.4,3
				c-0.1,0.2-0.2,0.2,0,0.4c0.7,1,1.3,1.9,2,2.8l0.5,0.7v0.1c-0.3,0.2-0.7,0.4-1,0.7c-0.5,0.2-1.2,0.1-1.6-0.4
				c-0.2-0.2-0.4-0.4-0.6-0.7l-1.8-2.7l-0.2-0.2L215.6,77.2z"/>
			<path class="st6" d="M164.3,71.4h0.4c0.5,0,1,0,1.5,0c0.5-0.1,1.1,0.3,1.3,0.8l0.7,1.9l0.8,2.1c0,0.1,0.1,0.2,0.1,0.4l0,0
				c0-0.1,0.1-0.1,0.1-0.2c0.5-1.5,1-3.1,1.5-4.6c0-0.1,0.1-0.1,0.1-0.2c0-0.1,0.1-0.2,0.2-0.2c0.4,0,0.8,0,1.2,0
				c0.6,0.1,1,0.6,1,1.2c0,0,0,0,0,0.1c0,0.1-0.1,0.2-0.1,0.4c-0.4,1.2-0.8,2.5-1.2,3.7c-0.4,1.2-0.8,2.4-1.3,3.5
				c-0.2,0.7-0.7,1.4-1.1,2c-0.5,0.6-1.3,1-2.1,1c-0.5,0-1.1-0.2-1.5-0.5c-0.4-0.4-0.5-0.9-0.4-1.4c0-0.1,0.1-0.2,0.2-0.2l0,0
				l0.4-0.1c0.4,0,0.8-0.2,1.2-0.4c0.2-0.2,0.4-0.5,0.5-0.7c0.1-0.1,0.1-0.2,0-0.4c-0.4-0.9-0.8-1.8-1.2-2.7
				c-0.5-1.2-1.1-2.5-1.5-3.8l-0.4-1.3C164.3,71.7,164.3,71.5,164.3,71.4z"/>
			<path class="st6" d="M212.4,78.9c-0.2,0.5-0.6,0.9-1,1.3c-1.8,1.4-4.4,1.4-6.1,0c-1-0.8-1.7-1.9-1.8-3.1
				c-0.1-0.8-0.1-1.6,0.2-2.4c0.5-1.6,2-2.8,3.7-3.1c1-0.2,2-0.1,2.9,0.3c0.8,0.4,1.5,0.9,2,1.7l0.1,0.1v0.1l0,0
				c-0.4,0.4-0.9,0.6-1.4,0.8c-0.4,0.1-0.7,0-1-0.2c-0.4-0.3-0.7-0.5-1.2-0.5c-1.3-0.3-2.6,0.5-2.9,1.9c-0.1,0.2-0.1,0.4-0.1,0.5
				c0,0.5,0.1,1.1,0.4,1.6c0.4,0.7,1,1,1.8,1.1c0.3,0.1,0.7,0.1,1,0c0.4-0.1,0.7-0.2,1-0.4c0.4-0.4,1.1-0.4,1.5-0.1l0.8,0.5
				L212.4,78.9z"/>
		</g>
	</g>
</g>
</svg>
