<svg xmlns="http://www.w3.org/2000/svg" viewBox="0 0 114.54 168.15"><defs><style>.cls-1{fill:#fff;}</style></defs><g id="Layer_2" data-name="Layer 2"><g id="Layer_1-2" data-name="Layer 1"><path class="cls-1" d="M94.37,115a2.55,2.55,0,0,0-2.55,2.55,6.74,6.74,0,0,1-6.73,6.73H35.76A6.74,6.74,0,0,1,29,117.56a2.55,2.55,0,0,0-5.1,0,11.86,11.86,0,0,0,8.46,11.35v5.31h-.9a2.55,2.55,0,0,0,0,5.1h.9v4.82h-.9a2.55,2.55,0,1,0,0,5.1h1A11.85,11.85,0,0,0,44.23,159.9h5.4a10.82,10.82,0,0,0,10.5,8.25h.59a10.82,10.82,0,0,0,10.5-8.25h5.41a11.86,11.86,0,0,0,11.78-10.66h1a2.55,2.55,0,0,0,0-5.1h-.89v-4.82h.89a2.55,2.55,0,0,0,0-5.1h-.89v-5.31a11.87,11.87,0,0,0,8.46-11.35A2.56,2.56,0,0,0,94.37,115ZM60.72,163h-.59A5.7,5.7,0,0,1,55,159.9H65.82A5.71,5.71,0,0,1,60.72,163Zm16.84-23.72h5.8v4.82h-5.8a2.55,2.55,0,1,0,0,5.1h5.69a6.73,6.73,0,0,1-6.62,5.55H44.23a6.74,6.74,0,0,1-6.63-5.55h5.7a2.55,2.55,0,0,0,0-5.1H37.49v-4.82H43.3a2.55,2.55,0,0,0,0-5.1H37.49V129.4H83.36v4.82h-5.8a2.55,2.55,0,1,0,0,5.1Z"/><path class="cls-1" d="M66.33,134.22H54.53a2.55,2.55,0,1,0,0,5.1h11.8a2.55,2.55,0,0,0,0-5.1Z"/><path class="cls-1" d="M66.33,144.14H54.53a2.55,2.55,0,1,0,0,5.1h11.8a2.55,2.55,0,0,0,0-5.1Z"/><path class="cls-1" d="M106.5,24.4a52.7,52.7,0,0,0-20.91-19A48.05,48.05,0,0,0,66.88,0h-.19a2.56,2.56,0,0,0-2.56,2.55V116.4A2.56,2.56,0,0,0,66.69,119h8.47A11.85,11.85,0,0,0,87,107.12V98.5A52.49,52.49,0,0,0,106.5,24.4ZM83.3,94.67A2.53,2.53,0,0,0,81.89,97v10.17a6.74,6.74,0,0,1-6.73,6.73H69.24V5.39A43.74,43.74,0,0,1,83.3,10a47.38,47.38,0,0,1,0,84.7Z"/><path class="cls-1" d="M33.29,95.51a3.81,3.81,0,0,1,.39,1.69v9.92A11.86,11.86,0,0,0,45.52,119H54a2.56,2.56,0,0,0,2.56-2.55V14.62a2.42,2.42,0,0,0,0-.47,30.81,30.81,0,0,0-.76-6.93,7.92,7.92,0,0,0-2.87-4.65,8.55,8.55,0,0,0-4.58-1.32c-.88-.05-1.75-.07-2.59-.08s-1.59,0-2.35-.08h-.28a8.35,8.35,0,0,0-4,1.21c-.17.09-.38.21-.48.25a7.44,7.44,0,0,1-1.14-.41,12.44,12.44,0,0,0-5-1.16h0a17.08,17.08,0,0,0-7.84,1.74,16.53,16.53,0,0,0-8.54,19.15,18.45,18.45,0,0,0-7.29,2.59A16.54,16.54,0,0,0,4.73,47.91a14.83,14.83,0,0,0-3,3.92,16.76,16.76,0,0,0,9.28,23.26,16.31,16.31,0,0,0-.84,5.22,16.56,16.56,0,0,0,23.08,15.2Zm-18-15.2A11.34,11.34,0,0,1,16.15,76h.4a16.57,16.57,0,0,0,8.7-2.47,2.55,2.55,0,0,0-2.69-4.34A11.45,11.45,0,0,1,5.11,59.48a10.43,10.43,0,0,1,3.22-8,16.51,16.51,0,0,0,15.81,2.07A18,18,0,0,0,26.07,58a15.37,15.37,0,0,0,7.28,6.33A2.56,2.56,0,0,0,36.68,63a2.55,2.55,0,0,0-1.39-3.33c-4-1.66-6.73-6.1-6.73-11.07,0-3.28,0-4.16,1.51-6.36a2.56,2.56,0,0,0-4.22-2.89c-2.34,3.42-2.4,5.56-2.4,9A11.44,11.44,0,0,1,11.71,28.69a14.83,14.83,0,0,1,6.49-1.92,14.13,14.13,0,0,0,5.38,5.34,2.59,2.59,0,0,0,1.23.32A2.55,2.55,0,0,0,26,27.64c-2.19-1.21-3.76-3.35-4.81-6.56a11.6,11.6,0,0,1,.44-8.28A11.46,11.46,0,0,1,27,7.28a12.27,12.27,0,0,1,5.57-1.2,7.67,7.67,0,0,1,3,.78,7.72,7.72,0,0,0,3.25.8,6,6,0,0,0,2.8-.9,3.4,3.4,0,0,1,1.6-.56c.81,0,1.62.06,2.4.07s1.6,0,2.38.08a4.53,4.53,0,0,1,2,.4,3,3,0,0,1,.84,1.73,30.66,30.66,0,0,1,.63,6.61c0,.75,0,1.55,0,2.44V20.4a16,16,0,0,0-4.8-3.35,15.42,15.42,0,0,0-6.29-1.35h0a16.85,16.85,0,0,0-7.66,1.72A2.55,2.55,0,0,0,35,22a11.91,11.91,0,0,1,5.36-1.17h0a10.37,10.37,0,0,1,4.19.89A11.38,11.38,0,0,1,48,24.19a12.77,12.77,0,0,1,3.42,8.14c0,.19,0,.38,0,.57v80.95H45.52a6.74,6.74,0,0,1-6.73-6.73V97.2a8.83,8.83,0,0,0-1.13-4.34c4.07-3.2,6.21-7.21,6.21-11.72a2.56,2.56,0,0,0-5.11,0c0,3.45-2,6.45-6,8.91a11.45,11.45,0,0,1-17.45-9.74Z"/><path class="cls-1" d="M98.71,48.18a32.78,32.78,0,0,0-5.53-16A32.32,32.32,0,0,0,80.45,21a2.55,2.55,0,1,0-2.22,4.6,27.86,27.86,0,0,1,15.39,22.9,2.55,2.55,0,0,0,2.54,2.38h.18A2.55,2.55,0,0,0,98.71,48.18Z"/><path class="cls-1" d="M95.39,58.39a2.56,2.56,0,0,0-3.29,1.48A28.58,28.58,0,0,1,84.8,71a2.55,2.55,0,1,0,3.45,3.76,33.74,33.74,0,0,0,8.63-13A2.56,2.56,0,0,0,95.39,58.39Z"/></g></g></svg>