<?xml version="1.0" encoding="utf-8"?>
<!-- Generator: Adobe Illustrator 25.0.1, SVG Export Plug-In . SVG Version: 6.00 Build 0)  -->
<svg version="1.1" id="Layer_1" xmlns="http://www.w3.org/2000/svg" xmlns:xlink="http://www.w3.org/1999/xlink" x="0px" y="0px"
	 viewBox="0 0 365.4 321.5" style="enable-background:new 0 0 365.4 321.5;" xml:space="preserve">
<style type="text/css">
	.st0{fill:#3A0155;}
	.st1{fill:#00DFE9;}
	.st2{fill:url(#SVGID_1_);}
	.st3{fill:#FFFFFF;}
	.st4{fill:url(#SVGID_2_);}
	.st5{fill:#632442;}
	.st6{fill:#500666;}
	.st7{fill:#ECCDFF;}
	.st8{fill:url(#SVGID_3_);}
	.st9{fill:url(#SVGID_4_);}
	.st10{fill:url(#SVGID_5_);}
	.st11{fill:#8D35AD;}
	.st12{fill:#6D10F8;}
	.st13{fill:#68147D;}
	.st14{fill:url(#SVGID_6_);}
	.st15{fill:url(#SVGID_7_);}
	.st16{fill:#F0F9ED;}
	.st17{fill:#E53946;}
	.st18{fill:#939FA8;}
</style>
<g>
	<path class="st0" d="M185.5,315.4l100.8-58.2c1.3-0.7,1.7-2.4,1-3.7c-0.2-0.4-0.6-0.7-1-1l-60.7-35.1c-4.3-2.4-9.5-2.4-13.7,0
		l-100.8,58.2c-1.3,0.7-1.7,2.4-1,3.7c0.2,0.4,0.6,0.7,1,1l60.7,35.1C176.1,317.8,181.3,317.8,185.5,315.4z"/>
	<path class="st1" d="M178.7,305.2c-2.6,0-5.3-0.7-7.5-2l-60.7-35.1c-2-1.1-2.6-3.7-1.5-5.7c0.4-0.6,0.9-1.1,1.5-1.5l100.8-58.2
		c4.7-2.8,10.5-2.8,15.2,0l60.7,35.1c2,1.1,2.6,3.8,1.5,5.7c-0.4,0.6-0.9,1.1-1.5,1.5l-100.8,58.2
		C183.9,304.5,181.4,305.2,178.7,305.2z M218.8,203.6c-2.1,0-4.3,0.6-6.1,1.6l-100.8,58.2c-0.6,0.3-0.8,1.1-0.4,1.7
		c0.1,0.2,0.3,0.3,0.4,0.4l60.7,35.1c3.8,2.1,8.5,2.1,12.2,0l100.8-58.2c0.6-0.3,0.8-1.1,0.4-1.7c-0.1-0.2-0.3-0.3-0.4-0.4
		l-60.7-35.1C222.9,204.1,220.9,203.6,218.8,203.6L218.8,203.6z"/>
	<path class="st1" d="M183,227c-3.8,1.9-8.2,1.9-11.9,0c-3.3-1.9-3.3-5,0-6.9c3.8-1.9,8.2-1.9,11.9,0C186.4,222,186.4,225.1,183,227
		z"/>
	
		<linearGradient id="SVGID_1_" gradientUnits="userSpaceOnUse" x1="136.4" y1="-568.3173" x2="282.7201" y2="-568.3173" gradientTransform="matrix(1 0 0 -1 0 -386.1102)">
		<stop  offset="0.45" style="stop-color:#500666"/>
		<stop  offset="0.5" style="stop-color:#560B6D"/>
		<stop  offset="0.83" style="stop-color:#7E299B"/>
		<stop  offset="1" style="stop-color:#8D35AD"/>
	</linearGradient>
	<path class="st2" d="M282.4,113c-13.7-7.9-27.9-13.9-40.4-22.8v-0.8c-0.4-0.1-0.9-0.2-1.4-0.2c-0.4-0.3-0.9-0.7-1.3-1
		c0,0.3,0,0.7,0,1c-1.2,0.1-2.4-0.2-3.5-0.7v30.9c0,44.8-27.3,97.1-60.8,116.5l-9.3,5.4c-10.5,6-20.6,8.3-29.3,6.4v6.3
		c2,0.3,4,0.5,6,0.5c2.6,0,5.2-0.3,7.8-0.7l1.5,4.4c0,0,14.6,14.9,15.8,14.3s15.2,4,15.9,3.7s15.5-2.2,17.4-2.6s12.8-6.9,12.8-6.9
		l16.2-11.2l15.4-11.5l18.7-27.1l14.5-36.5l4.3-19.4C282.8,160.8,282.5,119.3,282.4,113z"/>
	<path class="st3" d="M138,249.6c8.8,1.7,18.9-0.4,29.3-6.4l9.3-5.4c33.5-19.4,60.8-71.6,60.8-116.5v-31c1,0.6,2.2,0.8,3.5,0.7
		c0-0.3,0-0.6,0-1l1.3,1c0.4,0,0.8,0.1,1.2,0.2c-0.5-0.3-1-0.6-1.4-1v-0.8c-0.4-0.1-0.9-0.2-1.4-0.2c-0.4-0.3-0.9-0.7-1.3-1
		c0,0.3,0,0.7,0,1c-1.2,0.1-2.4-0.2-3.5-0.7v30.9c0,44.8-27.3,97.1-60.8,116.5l-9.3,5.4c-10.5,6-20.6,8.3-29.3,6.4v6.3
		c0.5,0.1,1.1,0.1,1.6,0.2L138,249.6z"/>
	<path class="st3" d="M276.9,160.1l-0.4-0.2c-5.5,40.6-30.2,83.2-59.7,100.3l-9.3,5.4c-13.8,7.9-26.9,9.2-37.1,3.6
		c0.4,0.3,0.8,0.5,1.2,0.7c10.3,5.9,23.7,4.8,37.7-3.3l9.3-5.4c29.6-17.1,54.2-59.6,59.7-100.3l0.4,0.2c1.1,0.6,2.4,0.9,3.7,0.9
		c0-0.4,0.1-0.7,0.2-1.1C280.6,161.3,278.7,160.9,276.9,160.1z"/>
	
		<linearGradient id="SVGID_2_" gradientUnits="userSpaceOnUse" x1="228.7" y1="-510.8655" x2="291.3" y2="-510.8655" gradientTransform="matrix(1 0 0 -1 0 -386.1102)">
		<stop  offset="0" style="stop-color:#8D35AD"/>
		<stop  offset="0.23" style="stop-color:#7D299A"/>
		<stop  offset="0.73" style="stop-color:#5D1074"/>
		<stop  offset="1" style="stop-color:#500666"/>
	</linearGradient>
	<path class="st4" d="M291.3,157.4V114l-13.5-5.7l-49.1-20.8v43.2l0,0c0.1,1.1,0.7,2,1.7,2.5l48.2,27.8c2.5,1.5,7.1,1.3,10.1-0.4
		C290.5,159.8,291.3,158.6,291.3,157.4L291.3,157.4z"/>
	<polygon class="st5" points="290.4,113.2 276.1,107.5 227.8,86.7 	"/>
	<path class="st6" d="M282.6,110.4v51.8c2.1,0.1,4.3-0.4,6.2-1.4c1.6-0.9,2.4-2.1,2.4-3.3l0,0V114L282.6,110.4z"/>
	<path class="st7" d="M278.7,117.9l-48.2-27.8c-2.5-1.5-2.2-4.1,0.7-5.8l0,0c3-1.7,7.5-1.9,10.1-0.4l48.2,27.8
		c2.5,1.5,2.2,4.1-0.7,5.8l0,0C285.8,119.2,281.3,119.4,278.7,117.9z"/>
	
		<linearGradient id="SVGID_3_" gradientUnits="userSpaceOnUse" x1="101.9" y1="-533.8794" x2="261.5" y2="-533.8794" gradientTransform="matrix(1 0 0 -1 0 -386.1102)">
		<stop  offset="0" style="stop-color:#ECCDFF"/>
		<stop  offset="0.24" style="stop-color:#E9C9FE"/>
		<stop  offset="0.46" style="stop-color:#E3BEF9"/>
		<stop  offset="0.68" style="stop-color:#D7ABF2"/>
		<stop  offset="0.89" style="stop-color:#C891E8"/>
		<stop  offset="1" style="stop-color:#BE80E2"/>
	</linearGradient>
	<path class="st8" d="M219.1,25.6l-0.2-0.1l-0.1-0.1l-0.4-0.2l0,0c-12.2-6.7-27.6-5.5-43.3,3.6l-9.3,5.4
		c-35.3,20.4-63.9,75-63.9,121.9v40.8c0,25.3,8.5,44.6,23.1,53.1c0.8,0.4,1.5,0.8,2.3,1.2l0,0l40.5,23.4l-11.5-14.2l-4.7-20.6
		l-0.9-23.7l-0.2-14.6v-32.6l2.9-16.4l3.2-13.2l6.4-17l6.1-12.9l5.6-8.1l7.6-12.8l5.2-6.3l7.8-6.1L201,71l14.6-11l13.2-6.3l11.5-3.1
		l10.5,0.3l10.7-0.7L219.1,25.6z"/>
	
		<linearGradient id="SVGID_4_" gradientUnits="userSpaceOnUse" x1="280.3008" y1="-441.2942" x2="246.816" y2="-482.4319" gradientTransform="matrix(1 0 0 -1 0 -386.1102)">
		<stop  offset="0.45" style="stop-color:#500666"/>
		<stop  offset="0.5" style="stop-color:#560B6D"/>
		<stop  offset="0.83" style="stop-color:#7E299B"/>
		<stop  offset="1" style="stop-color:#8D35AD"/>
	</linearGradient>
	<path class="st9" d="M283.7,111.7l-0.5-0.9h0.1l-1.3-9.6c-0.1-3.9-0.2-7.2-0.2-7.2s-4.9-23.3-5.2-23.7s-6.9-11.8-6.9-11.8
		l-21.8-8.9c0,0-13.8,0.9-13.8,1.3c0,0,0,0.2,0.1,0.4c-0.8,0.2-1.6,0.4-2.5,0.6c2.9,8.7,4.3,17.7,4.1,26.8V88
		c-0.1,0.7,0.3,1.4,1,1.7l42.8,24.9c1.4,0.8,2.6-0.2,4.1-1C285,112.8,285.1,112.4,283.7,111.7z"/>
	<path class="st5" d="M151.8,255.6l-0.9,0.1l0.8,2.3l1.5,1.5L151.8,255.6z"/>
	<path class="st3" d="M237.4,89.9v-9.4c0.2-9.1-1.2-18.1-4.1-26.8c0.8-0.2,1.6-0.4,2.5-0.6c0-0.1-0.1-0.2-0.1-0.4
		c0-0.4,13.8-1.3,13.8-1.3l21.2,8.6l-1-1.5l-21.8-8.9c0,0-13.8,0.9-13.8,1.3c0,0,0,0.2,0.1,0.4c-0.8,0.2-1.6,0.4-2.5,0.6
		c2.9,8.7,4.3,17.7,4.1,26.8V88c-0.1,0.7,0.3,1.4,1,1.7L237.4,89.9C237.3,90,237.3,89.9,237.4,89.9z"/>
	
		<linearGradient id="SVGID_5_" gradientUnits="userSpaceOnUse" x1="145.5" y1="-549.0322" x2="285.7983" y2="-549.0322" gradientTransform="matrix(1 0 0 -1 0 -386.1102)">
		<stop  offset="0" style="stop-color:#6D10F8"/>
		<stop  offset="0.17" style="stop-color:#8734C9"/>
		<stop  offset="0.67" style="stop-color:#E48F3A"/>
	</linearGradient>
	<path class="st10" d="M285.6,113v-9.1c0-25.3-8.5-44.6-23.1-53.1c-12.2-7.2-27.8-6-43.8,3.2l-9.3,5.4
		c-35.3,20.4-63.9,75-63.9,121.9V222c0,25.3,8.5,44.6,23.1,53.1c5.3,3.1,11.4,4.7,17.5,4.6c8.3,0,17.2-2.6,26.4-7.8l9.3-5.4
		c31-17.8,56.8-62.2,62.7-104.4c-1.9,0.3-3.9-0.1-5.6-0.9l-0.4-0.2c-5.5,40.6-30.2,83.2-59.7,100.3l-9.3,5.4
		c-14,8.1-27.4,9.3-37.7,3.3c-12.7-7.3-20-24.8-20-47.8v-40.8c0-44.8,27.3-97.1,60.8-116.5l9.4-5.4c8.2-4.7,16-7,23.2-7
		c5.1-0.1,10.1,1.2,14.5,3.8c12.7,7.3,20,24.8,20,47.8v10.6l0.2,0.1c1.6,0.8,3.5,0.8,5.1,0C285.3,114.2,285.7,113.6,285.6,113
		L285.6,113z"/>
	<path class="st11" d="M285.6,113v-9.1c0-25.3-8.5-44.6-23.1-53.1c-12.2-7.2-27.8-6-43.8,3.2l-9.3,5.4
		c-35.3,20.4-63.9,75-63.9,121.9V222c0,25.3,8.5,44.6,23.1,53.1c5.3,3.1,11.4,4.7,17.5,4.6c8.3,0,17.2-2.6,26.4-7.8l9.3-5.4
		c31-17.8,56.8-62.2,62.7-104.4c-1.9,0.3-3.9-0.1-5.6-0.9l-0.4-0.2c-5.5,40.6-30.2,83.2-59.7,100.3l-9.3,5.4
		c-14,8.1-27.4,9.3-37.7,3.3c-12.7-7.3-20-24.8-20-47.8v-40.8c0-44.8,27.3-97.1,60.8-116.5l9.4-5.4c8.2-4.7,16-7,23.2-7
		c5.1-0.1,10.1,1.2,14.5,3.8c12.7,7.3,20,24.8,20,47.8v10.6l0.2,0.1c1.6,0.8,3.5,0.8,5.1,0C285.3,114.2,285.7,113.6,285.6,113
		L285.6,113z"/>
	<path class="st3" d="M260.7,49.7c-12.3-7.1-27.9-5.9-43.9,3.3l-9.3,5.4c-28.4,16.4-52.6,55.2-60.8,94.2c0.6,0.2,1.2,0.6,1.8,0.9
		c8.3-38.9,32.4-77.6,60.8-94.1l9.3-5.4c15.8-9.1,31.2-10.4,43.3-3.6C261.6,50.1,261.2,49.9,260.7,49.7z"/>
	<path class="st12" d="M150.3,251.8c-0.4,0.2-0.8,0.3-1.2,0.4c4,9.8,10,17.3,17.7,21.8l0.6,0.3C159.8,269.6,154,261.9,150.3,251.8z"
		/>
	<path class="st3" d="M259.4,56.1c-0.2-0.1-0.4-0.2-0.6-0.3c12,7.7,18.9,24.8,18.9,47.1v10.6l0.2,0.1l0,0l1.5,0.9V104
		C279.4,80.8,272.2,63.4,259.4,56.1z"/>
	<path class="st11" d="M169.1,154.8L91,109.6c-1.9-1.1-3.8-1.2-5.1-0.4l0,0l-10.8,6.2l7.9,3.1v91.3c0,5.9,3.6,12.6,7.9,15.2l74.7,43
		l-1.8,8.5l10.4-6l0,0c1.7-0.9,2.9-3.3,2.9-6.4V170C177.1,164.1,173.5,157.2,169.1,154.8z"/>
	<path class="st13" d="M174.2,270.4L174.2,270.4c1.7-0.9,2.9-3.3,2.9-6.4v-94c-0.1-2.8-0.7-5.4-1.8-7.8L84,214.9
		c1.3,4.3,4,8.3,7.1,10.1l74.6,43.1l-1.8,8.5L174.2,270.4z"/>
	
		<linearGradient id="SVGID_6_" gradientUnits="userSpaceOnUse" x1="72.5" y1="-582.0455" x2="166.4" y2="-582.0455" gradientTransform="matrix(1 0 0 -1 0 -386.1102)">
		<stop  offset="0" style="stop-color:#ECCDFF"/>
		<stop  offset="0.24" style="stop-color:#E9C9FE"/>
		<stop  offset="0.46" style="stop-color:#E3BEF9"/>
		<stop  offset="0.68" style="stop-color:#D7ABF2"/>
		<stop  offset="0.89" style="stop-color:#C891E8"/>
		<stop  offset="1" style="stop-color:#BE80E2"/>
	</linearGradient>
	<path class="st14" d="M158.4,276.2l-78-45.2c-4.4-2.5-7.9-9.4-7.9-15.2v-94.1c0-5.8,3.6-8.6,7.9-6l78.1,45.1
		c4.4,2.5,7.9,9.4,7.9,15.2v94.1C166.4,276.1,162.9,278.7,158.4,276.2z"/>
	<path class="st3" d="M160.7,159.9l-78.1-45.1c-2.3-1.3-4.5-1.2-5.9,0.2c1.3-0.1,2.6,0.1,3.8,0.8l78.1,45.1
		c4.4,2.5,7.9,9.3,7.9,15.2v94.1c0,2.6-0.8,4.7-2,5.8c2.4-0.4,4.2-2.9,4.2-6.8v-94.1C168.6,169.2,165.1,162.4,160.7,159.9z"/>
	
		<linearGradient id="SVGID_7_" gradientUnits="userSpaceOnUse" x1="130.7699" y1="659.1301" x2="91.2054" y2="856.9529" gradientTransform="matrix(1 0 0 1 0 -520)">
		<stop  offset="0" style="stop-color:#861EB2"/>
		<stop  offset="0.4293" style="stop-color:#5F27BD"/>
		<stop  offset="0.904" style="stop-color:#3D065F"/>
	</linearGradient>
	<path class="st15" d="M156.4,271.9l-74-42.7c-4.2-2.4-7.5-8.9-7.5-14.4v-89.1c0-5.5,3.4-8.1,7.5-5.7l74,42.7
		c4.2,2.4,7.5,8.9,7.5,14.4v89.1C163.9,271.8,160.6,274.3,156.4,271.9z"/>
	<path class="st3" d="M175.7,217.5c-0.1,1.9-1.1,3.7-2.8,4.7c-1.5,0.9-2.8,0.2-2.8-1.5c0.1-1.9,1.1-3.7,2.8-4.7
		C174.4,215,175.7,215.7,175.7,217.5z"/>
</g>
<g>
	<polygon class="st16" points="105.4,213.9 113.1,218.4 112.8,220.1 106.7,229.8 104.8,228.8 110.7,219.3 106.7,216.9 106.4,218.9 
		104.8,218 	"/>
	<path class="st1" d="M115.6,181l0.1,0.1c0.3,0.2,0.4,0.5,0.5,0.8l2.3,14.7l2.1-4.3c0.1-0.2,0.3-0.3,0.6-0.3l0.1,0.1l10.4,6l2.6,1.5
		c0.4,0.3,0.6,0.7,0.5,1.2c-0.1,0.4-0.3,0.6-0.6,0.5h-0.3l-3.6-2.1l-9-5.2l-2.8,5.5c-0.1,0.2-0.3,0.3-0.6,0.3
		c-0.3-0.2-0.5-0.5-0.6-0.9l-2.3-15.2l-3.4,4.5c-0.1,0.2-0.3,0.2-0.5,0.2H111l-6.7-4l-3.8-2.1c-0.4-0.3-0.6-0.7-0.5-1.2
		c0.1-0.4,0.3-0.6,0.7-0.5l0.1,0.1l2.8,1.6l7.3,4.3l3.9-5.2C115.2,181.1,115.4,181,115.6,181z"/>
	<path class="st17" d="M118.8,199.5l2.8-5.5l9,5.2c-0.1,0.1-0.3,0.2-0.4,0.3l-15.5,9.6l-10-24.5l-0.1-0.3l6.7,4h0.1
		c0.2,0.1,0.4,0,0.5-0.2l3.4-4.5l2.3,15.2c0,0.3,0.2,0.6,0.5,0.8l0.1,0.1C118.5,199.7,118.7,199.7,118.8,199.5z"/>
	<path class="st16" d="M105.9,145.6l0.2,0.1l25.1,14.7c0.6,0.5,1,1.2,1.1,1.9c0,0.2,0,0.5,0,0.7s-0.1,0.4-0.2,0.6
		c-0.2,0.5-0.7,0.7-1.2,0.5c-0.1,0-0.2-0.1-0.2-0.1l-25.1-14.7c-0.8-0.6-1.2-1.6-1.1-2.6C104.6,145.8,105.2,145.3,105.9,145.6z"/>
	<path class="st18" d="M132.4,162.3l9.6,5.6c0.3,0.2,0.4,0.6,0.4,0.9c-0.1,0.3-0.3,0.5-0.5,0.4h-0.1l-9.6-5.6
		c0.1-0.2,0.2-0.4,0.2-0.6C132.4,162.8,132.4,162.6,132.4,162.3z"/>
	<path class="st17" d="M132.9,182.5c2.3,5.8,1.8,12.2-1.1,15.6l-10.4-6l-0.1-0.1c-0.2-0.1-0.5,0-0.6,0.3l-2.1,4.3l-2.3-14.7
		c0-0.3-0.2-0.6-0.5-0.8l-0.1-0.1c-0.2-0.1-0.4,0-0.5,0.2l-3.9,5.2l-7.3-4.3c-1.5-6-0.1-12.1,3.6-14.5c1.6-1,3.6-1.2,5.4-0.5
		c2.9,1,5.7,3.9,7.3,7.9c1.6-1,3.6-1.2,5.4-0.5C128.4,175.5,131.2,178.3,132.9,182.5z"/>
	<path class="st16" d="M113.9,218.9l6.3,3.7L120,224l-3.7,2.5l0.5,0.4c1.7,1.2,2.6,3.4,2.3,5.5c-0.4,2.2-1.7,3.3-3.6,2.6
		c-0.3-0.1-0.6-0.3-0.9-0.5c-1.4-0.9-2.5-2.1-3.3-3.6l1-1.4c0.5,1.2,1.3,2.2,2.4,3c0.2,0.1,0.4,0.2,0.6,0.3c1,0.4,1.7-0.2,1.9-1.4
		c0.2-1.4-0.5-3-1.8-3.6L114,227l0.2-1.4l3.4-2.2l-4.2-2.4L113.9,218.9z"/>
	<path class="st16" d="M128,238.3c0.8,0.6,1.2,1.6,1,2.5c-0.1,0.9-0.6,1.4-1.3,1.2l-0.3-0.1c-0.4-0.3-0.7-0.7-0.8-1.2l-0.3,1.9
		l-0.6-0.3l0.8-4.9l0.6,0.3l-0.1,0.6c0.2-0.2,0.5-0.3,0.8-0.2C127.9,238.2,128,238.3,128,238.3z M128.4,240.6
		c0.1-0.6-0.1-1.2-0.6-1.6l-0.1-0.1c-0.4-0.1-0.7,0.1-0.8,0.7c-0.1,0.6,0.1,1.3,0.6,1.6c0,0,0.1,0,0.1,0.1
		C128,241.5,128.3,241.2,128.4,240.6"/>
	<path class="st16" d="M124.5,236.3c0.8,0.6,1.2,1.6,1,2.5s-0.7,1.4-1.3,1.2c-0.1,0-0.2-0.1-0.3-0.1c-0.4-0.3-0.7-0.7-0.8-1.2
		l-0.1,0.6l-0.6-0.3l0.8-5l0.6,0.3l-0.3,2c0.2-0.2,0.5-0.3,0.8-0.2C124.4,236.3,124.5,236.3,124.5,236.3z M124.9,238.6
		c0.1-0.6-0.1-1.2-0.6-1.6l-0.2-0.1c-0.4-0.1-0.7,0.1-0.8,0.7c-0.1,0.6,0.1,1.2,0.6,1.6l0.2,0.1
		C124.5,239.5,124.8,239.2,124.9,238.6"/>
	<path class="st16" d="M129.8,239.5l0.6,0.3l-0.1,0.7c0.2-0.3,0.5-0.4,0.8-0.3l0.3,0.1c0.5,0.3,0.8,0.8,0.8,1.4
		c0.1-0.3,0.5-0.5,0.8-0.4l0,0c0.1,0,0.2,0.1,0.3,0.1c0.6,0.4,0.9,1.2,0.7,1.9l-0.4,2.2l-0.6-0.3l0.3-2c0.1-0.5-0.1-1-0.5-1.2
		l-0.1-0.1c-0.4-0.1-0.7,0.2-0.8,0.7l-0.3,1.7L131,244l0.3-2c0.1-0.5-0.1-1-0.5-1.2l-0.1-0.1c-0.4-0.1-0.7,0.2-0.8,0.7l-0.3,1.7
		l-0.6-0.3L129.8,239.5z"/>
</g>
<path class="st3" d="M102.6,55.4c1.4,0.9,2.2,2.4,2.3,4.1c0,1.5-1,2.1-2.3,1.3c-1.4-0.9-2.2-2.4-2.3-4.1
	C100.3,55.2,101.3,54.6,102.6,55.4z"/>
<path class="st3" d="M95.1,51.1c1.4,0.9,2.2,2.4,2.3,4.1c0,1.5-1,2.1-2.3,1.3c-1.4-0.9-2.2-2.4-2.3-4.1
	C92.7,50.8,93.7,50.2,95.1,51.1z"/>
<ellipse transform="matrix(0.866 -0.5 0.5 0.866 -12.934 50.3531)" class="st3" cx="87.5" cy="49.3" rx="1.9" ry="3.3"/>
<path class="st3" d="M80,42.3c1.4,0.9,2.2,2.4,2.3,4.1c0,1.5-1,2-2.3,1.3c-1.4-0.9-2.2-2.4-2.3-4.1C77.6,42.2,78.6,41.6,80,42.3z"/>
<path class="st3" d="M221.3,15.8c1.4,0.9,2.2,2.4,2.3,4.1c0,1.5-1,2.1-2.3,1.3c-1.4-0.9-2.2-2.4-2.3-4.1
	C219,15.6,220.1,15.1,221.3,15.8z"/>
<path class="st3" d="M214.9,12c1.4,0.9,2.2,2.4,2.3,4.1c0,1.5-1,2.1-2.3,1.3c-1.4-0.9-2.2-2.4-2.3-4.1
	C212.5,11.9,213.7,11.3,214.9,12z"/>
<path class="st3" d="M221.3,8.4c1.4,0.9,2.2,2.4,2.3,4.1c0,1.5-1,2.1-2.3,1.3c-1.4-0.9-2.2-2.4-2.3-4.1C219,8.2,220.1,7.6,221.3,8.4
	z"/>
<path class="st3" d="M214.9,4.6c1.4,0.9,2.2,2.4,2.3,4.1c0,1.5-1,2.1-2.3,1.3c-1.4-0.9-2.2-2.4-2.3-4.1
	C212.5,4.5,213.7,3.9,214.9,4.6z"/>
<polygon class="st3" points="315.6,241.5 320.3,244.2 320.3,249.6 315.6,246.9 "/>
<polygon class="st3" points="309,237.7 313.7,240.4 313.7,245.8 309,243.1 "/>
<polygon class="st3" points="315.6,248.5 320.2,251.2 320.2,256.6 315.6,253.8 "/>
<polygon class="st3" points="309,244.8 313.7,247.5 313.7,252.8 309,250.2 "/>
<path class="st3" d="M304.5,160.4c0.3,4.6,2.6,8.8,6.5,11.2l47.7,27.5c3.7,2.1,6.7,0.4,6.7-3.9c-0.3-4.8-2.8-9.1-6.7-11.7
	c-1.1-0.8-2.5-1-4-0.8c0.1-0.7,0.1-1.4,0.1-2.1c0-9-6.3-20-14.2-24.5c-5.5-3.2-10.3-2.3-12.6,1.7c-1.3-1.6-2.9-3-4.6-4
	c-5.2-3-9.4-0.6-9.6,5.2c-0.8-1-1.8-1.8-3-2.5C307.4,154.5,304.5,156.1,304.5,160.4z"/>
<path class="st3" d="M1,81.2c0.3,5.2,3.1,10,7.4,12.8L43,114c5.6,3.3,10.1,0.6,10.1-5.8s-4.4-14.2-10-17.4c-1.5-1-3.5-1.4-5.3-1.3
	C36,82,30.7,74.3,24.5,70.6c-7.6-4.4-13.9-1-14.1,7.5c-0.6-0.5-1.2-1-1.9-1.4C4.4,74.5,1,76.4,1,81.2z"/>
</svg>
