<svg xmlns="http://www.w3.org/2000/svg" xmlns:xlink="http://www.w3.org/1999/xlink" viewBox="0 0 450 450"><defs><style>.cls-1{isolation:isolate;}.cls-2,.cls-35{mix-blend-mode:screen;}.cls-3{fill:#9cedff;}.cls-4{opacity:0.2;}.cls-5{opacity:0;}.cls-6{opacity:0.09;}.cls-7{opacity:0.18;}.cls-8{opacity:0.27;}.cls-9{opacity:0.36;}.cls-10{opacity:0.45;}.cls-11{opacity:0.55;}.cls-12{opacity:0.64;}.cls-13{opacity:0.73;}.cls-14{opacity:0.82;}.cls-15{opacity:0.91;}.cls-16{fill:url(#linear-gradient);}.cls-17{fill:url(#linear-gradient-2);}.cls-18{fill:url(#linear-gradient-3);}.cls-19,.cls-30,.cls-32{mix-blend-mode:color-dodge;}.cls-19{fill:url(#Radial_Gradient_1);}.cls-20{fill:url(#linear-gradient-4);}.cls-21{fill:#1f0d3d;}.cls-22,.cls-30{fill:#3d065f;}.cls-23{fill:url(#linear-gradient-5);}.cls-24{fill:url(#linear-gradient-6);}.cls-25{fill:url(#linear-gradient-7);}.cls-26{fill:url(#linear-gradient-8);}.cls-27{fill:url(#linear-gradient-9);}.cls-28{fill:url(#linear-gradient-10);}.cls-29{fill:url(#linear-gradient-11);}.cls-31{fill:url(#New_Gradient_Swatch_copy_7);}.cls-32{fill:url(#Radial_Gradient_1-2);}.cls-33{fill:#a56ef4;}.cls-34{fill:#fff;}.cls-35{fill:url(#radial-gradient);}.cls-36,.cls-42,.cls-64{mix-blend-mode:multiply;}.cls-36{fill:url(#linear-gradient-12);}.cls-37{fill:url(#New_Gradient_Swatch_copy_36);}.cls-38{fill:url(#New_Gradient_Swatch_copy_35);}.cls-39{fill:url(#New_Gradient_Swatch_copy_35-2);}.cls-40{fill:#d1b4e3;}.cls-41{fill:url(#New_Gradient_Swatch_copy_36-2);}.cls-42{fill:#e6e7e8;}.cls-43{fill:url(#New_Gradient_Swatch_copy_35-3);}.cls-44{fill:url(#New_Gradient_Swatch_copy_36-3);}.cls-45{fill:#f1e8f6;}.cls-46{fill:url(#New_Gradient_Swatch_copy_35-4);}.cls-47{fill:url(#New_Gradient_Swatch_copy_35-5);}.Graphic-Style-184{fill:url(#linear-gradient-13);}.cls-48,.cls-49,.cls-52,.cls-53,.cls-55,.cls-56,.cls-58{opacity:0.5;}.cls-48{fill:url(#linear-gradient-14);}.cls-49{fill:url(#New_Gradient_Swatch_copy_36-4);}.cls-50{fill:url(#New_Gradient_Swatch_copy_35-6);}.cls-51{fill:url(#linear-gradient-16);}.cls-52{fill:url(#linear-gradient-18);}.cls-53{fill:url(#New_Gradient_Swatch_copy_36-5);}.cls-54{fill:url(#linear-gradient-20);}.cls-55{fill:url(#New_Gradient_Swatch_copy_36-6);}.cls-56{fill:url(#New_Gradient_Swatch_copy_36-7);}.cls-57{fill:url(#New_Gradient_Swatch_copy_36-8);}.Graphic-Style-183{fill:url(#linear-gradient-21);}.cls-58{fill:url(#New_Gradient_Swatch_copy_36-9);}.cls-59{fill:url(#New_Gradient_Swatch_copy_36-10);}.cls-60{fill:url(#New_Gradient_Swatch_copy_35-7);}.cls-61{fill:url(#New_Gradient_Swatch_copy_35-8);}.cls-62{fill:url(#New_Gradient_Swatch_copy_35-9);}.cls-63{fill:url(#linear-gradient-22);}.cls-64{fill:url(#linear-gradient-23);}.cls-65{fill:url(#New_Gradient_Swatch_copy_35-10);}.cls-66{fill:#2fe3f4;}.cls-67,.cls-68,.cls-69{fill:#1bb0d4;}.cls-68{opacity:0.4;}.cls-69{opacity:0.1;}</style><linearGradient id="linear-gradient" x1="6989.36" y1="226.13" x2="7410.63" y2="226.13" gradientTransform="translate(-6973.68)" gradientUnits="userSpaceOnUse"><stop offset="0" stop-color="#2f054a"/><stop offset="1" stop-color="#5824b0"/></linearGradient><linearGradient id="linear-gradient-2" x1="7044.75" y1="224.31" x2="7466.02" y2="224.31" gradientTransform="translate(-6973.68)" gradientUnits="userSpaceOnUse"><stop offset="0.06" stop-color="#2f0d5e"/><stop offset="0.28" stop-color="#2f105f"/><stop offset="0.47" stop-color="#311b61"/><stop offset="0.48" stop-color="#351f65"/><stop offset="0.5" stop-color="#422c73"/><stop offset="0.51" stop-color="#584188"/><stop offset="0.52" stop-color="#765fa7"/><stop offset="0.53" stop-color="#8770b8"/><stop offset="0.54" stop-color="#7e67ae"/><stop offset="0.56" stop-color="#5c468d"/><stop offset="0.59" stop-color="#442e75"/><stop offset="0.61" stop-color="#362066"/><stop offset="0.63" stop-color="#311b61"/><stop offset="0.67" stop-color="#2a1155"/><stop offset="0.75" stop-color="#230446"/><stop offset="0.81" stop-color="#200041"/><stop offset="1" stop-color="#200041"/></linearGradient><linearGradient id="linear-gradient-3" x1="6989.36" y1="215.23" x2="7410.63" y2="215.23" gradientTransform="translate(-6973.68)" gradientUnits="userSpaceOnUse"><stop offset="0" stop-color="#58098a"/><stop offset="1" stop-color="#9e3bdb"/></linearGradient><radialGradient id="Radial_Gradient_1" cx="195.48" cy="261.83" r="160.12" gradientTransform="matrix(-1, 0, 0, 1, 450, 0)" gradientUnits="userSpaceOnUse"><stop offset="0" stop-color="#fff"/><stop offset="1"/></radialGradient><linearGradient id="linear-gradient-4" x1="6993.57" y1="215.23" x2="7406.42" y2="215.23" gradientTransform="translate(-6973.68)" gradientUnits="userSpaceOnUse"><stop offset="0" stop-color="#2f054a"/><stop offset="1" stop-color="#5e1d9a"/></linearGradient><linearGradient id="linear-gradient-5" x1="244.69" y1="110.17" x2="171.58" y2="475.77" gradientTransform="matrix(-1, 0, 0, 1, 450, 0)" gradientUnits="userSpaceOnUse"><stop offset="0" stop-color="#861eb2"/><stop offset="0.43" stop-color="#5f27bd"/><stop offset="0.9" stop-color="#3d065f"/></linearGradient><linearGradient id="linear-gradient-6" x1="9419.78" y1="-892.08" x2="9440.08" y2="-892.08" gradientTransform="matrix(0.87, 0.5, 0.5, 1.44, -7651.89, -3212.63)" gradientUnits="userSpaceOnUse"><stop offset="0" stop-color="#3d065f"/><stop offset="1" stop-color="#5f27bd"/></linearGradient><linearGradient id="linear-gradient-7" x1="9419.78" y1="-892.08" x2="9440.08" y2="-892.08" gradientTransform="matrix(0.87, 0.5, 0.5, 1.44, -7651.89, -3212.63)" xlink:href="#linear-gradient"/><linearGradient id="linear-gradient-8" x1="9397.67" y1="-831.92" x2="9389.27" y2="-816.26" gradientTransform="matrix(0.87, 0.5, 0.5, 1.44, -7651.89, -3212.63)" gradientUnits="userSpaceOnUse"><stop offset="0.06" stop-color="#9f79b8"/><stop offset="0.26" stop-color="#a17bba"/><stop offset="0.36" stop-color="#a783bf"/><stop offset="0.43" stop-color="#b290c9"/><stop offset="0.49" stop-color="#c1a1d5"/><stop offset="0.51" stop-color="#c4a5d7"/><stop offset="0.52" stop-color="#cdb3dd"/><stop offset="0.53" stop-color="#dbc8e7"/><stop offset="0.55" stop-color="#efe7f4"/><stop offset="0.56" stop-color="#fff"/><stop offset="0.57" stop-color="#ece0f3"/><stop offset="0.58" stop-color="#ddc8ea"/><stop offset="0.59" stop-color="#d4b9e5"/><stop offset="0.6" stop-color="#d1b4e3"/><stop offset="0.66" stop-color="#b395d6"/><stop offset="0.72" stop-color="#9c7dcb"/><stop offset="0.77" stop-color="#8e6ec5"/><stop offset="0.81" stop-color="#8969c3"/><stop offset="1" stop-color="#b086cc"/></linearGradient><linearGradient id="linear-gradient-9" x1="9443.59" y1="-892.08" x2="9463.89" y2="-892.08" xlink:href="#linear-gradient-6"/><linearGradient id="linear-gradient-10" x1="9443.59" y1="-892.08" x2="9463.89" y2="-892.08" gradientTransform="matrix(0.87, 0.5, 0.5, 1.44, -7651.89, -3212.63)" xlink:href="#linear-gradient"/><linearGradient id="linear-gradient-11" x1="9416.16" y1="-822.01" x2="9407.76" y2="-806.34" xlink:href="#linear-gradient-8"/><linearGradient id="New_Gradient_Swatch_copy_7" x1="55.53" y1="255.46" x2="135.67" y2="255.46" gradientTransform="matrix(-1, 0, 0, 1, 450, 0)" gradientUnits="userSpaceOnUse"><stop offset="0.04" stop-color="#138bbd"/><stop offset="0.23" stop-color="#169ac7"/><stop offset="0.59" stop-color="#1fc3df"/><stop offset="1" stop-color="#2af6ff"/></linearGradient><radialGradient id="Radial_Gradient_1-2" cx="95.61" cy="266.65" r="29.56" xlink:href="#Radial_Gradient_1"/><radialGradient id="radial-gradient" cx="99.06" cy="252.51" r="14.34" gradientTransform="matrix(-0.97, -0.22, -0.22, 0.97, 503.66, 28.34)" gradientUnits="userSpaceOnUse"><stop offset="0.1" stop-color="#fff"/><stop offset="0.13" stop-color="#c778ce"/><stop offset="0.15" stop-color="#9f19ab"/><stop offset="0.17" stop-color="#93179e"/><stop offset="0.21" stop-color="#711279"/><stop offset="0.26" stop-color="#520d58"/><stop offset="0.32" stop-color="#38093d"/><stop offset="0.38" stop-color="#240626"/><stop offset="0.46" stop-color="#130315"/><stop offset="0.55" stop-color="#080109"/><stop offset="0.67" stop-color="#020002"/><stop offset="1"/></radialGradient><linearGradient id="linear-gradient-12" x1="400.38" y1="260.97" x2="189.31" y2="93.64" gradientTransform="matrix(-1, 0, 0, 1, 450, 0)" gradientUnits="userSpaceOnUse"><stop offset="0" stop-color="#fff"/><stop offset="1" stop-color="#939598"/></linearGradient><linearGradient id="New_Gradient_Swatch_copy_36" x1="307.27" y1="100.92" x2="342.86" y2="57.07" gradientTransform="matrix(-1, 0, 0, 1, 450, 0)" gradientUnits="userSpaceOnUse"><stop offset="0.1" stop-color="#45108a"/><stop offset="1" stop-color="#7c1dc9"/></linearGradient><linearGradient id="New_Gradient_Swatch_copy_35" x1="369.78" y1="189.98" x2="430.54" y2="326.32" gradientTransform="matrix(-1, 0, 0, 1, 450, 0)" gradientUnits="userSpaceOnUse"><stop offset="0" stop-color="#9f79c8"/><stop offset="0.14" stop-color="#a580cb"/><stop offset="0.33" stop-color="#b492d3"/><stop offset="0.55" stop-color="#cdb0e1"/><stop offset="0.58" stop-color="#d1b4e3"/><stop offset="0.76" stop-color="#dbc4e9"/><stop offset="1" stop-color="#ebdef3"/></linearGradient><linearGradient id="New_Gradient_Swatch_copy_35-2" x1="253.3" y1="121.65" x2="330.81" y2="164.13" xlink:href="#New_Gradient_Swatch_copy_35"/><linearGradient id="New_Gradient_Swatch_copy_36-2" x1="337.49" y1="185.46" x2="454.44" y2="127.26" xlink:href="#New_Gradient_Swatch_copy_36"/><linearGradient id="New_Gradient_Swatch_copy_35-3" x1="213.66" y1="96.59" x2="242.9" y2="250.7" xlink:href="#New_Gradient_Swatch_copy_35"/><linearGradient id="New_Gradient_Swatch_copy_36-3" x1="231.84" y1="251.71" x2="260.49" y2="52.68" xlink:href="#New_Gradient_Swatch_copy_36"/><linearGradient id="New_Gradient_Swatch_copy_35-4" x1="274.34" y1="183.11" x2="398.48" y2="111.02" xlink:href="#New_Gradient_Swatch_copy_35"/><linearGradient id="New_Gradient_Swatch_copy_35-5" x1="242.19" y1="171.47" x2="324.09" y2="89.86" xlink:href="#New_Gradient_Swatch_copy_35"/><linearGradient id="linear-gradient-13" x1="162.68" y1="170.52" x2="234.41" y2="154.44" xlink:href="#New_Gradient_Swatch_copy_7"/><linearGradient id="linear-gradient-14" x1="221.37" y1="119.32" x2="190.58" y2="158.24" xlink:href="#New_Gradient_Swatch_copy_7"/><linearGradient id="New_Gradient_Swatch_copy_36-4" x1="162.68" y1="170.52" x2="234.41" y2="154.44" xlink:href="#New_Gradient_Swatch_copy_36"/><linearGradient id="New_Gradient_Swatch_copy_35-6" x1="182.59" y1="155.98" x2="258.02" y2="171.72" xlink:href="#New_Gradient_Swatch_copy_35"/><linearGradient id="linear-gradient-16" x1="196.27" y1="151.74" x2="229.77" y2="194.33" xlink:href="#New_Gradient_Swatch_copy_7"/><linearGradient id="linear-gradient-18" x1="286.05" y1="134.53" x2="249.46" y2="207.9" xlink:href="#New_Gradient_Swatch_copy_7"/><linearGradient id="New_Gradient_Swatch_copy_36-5" x1="227.88" y1="207.59" x2="299.61" y2="191.51" xlink:href="#New_Gradient_Swatch_copy_36"/><linearGradient id="linear-gradient-20" x1="201.35" y1="137.09" x2="230.97" y2="127.03" xlink:href="#New_Gradient_Swatch_copy_7"/><linearGradient id="New_Gradient_Swatch_copy_36-6" x1="195.81" y1="142.64" x2="250.28" y2="130.42" xlink:href="#New_Gradient_Swatch_copy_36"/><linearGradient id="New_Gradient_Swatch_copy_36-7" x1="187.37" y1="192.88" x2="259.1" y2="176.8" xlink:href="#New_Gradient_Swatch_copy_36"/><linearGradient id="New_Gradient_Swatch_copy_36-8" x1="294.48" y1="198.42" x2="356.4" y2="179.88" xlink:href="#New_Gradient_Swatch_copy_36"/><linearGradient id="linear-gradient-21" x1="301.01" y1="150.42" x2="336.47" y2="139.81" xlink:href="#New_Gradient_Swatch_copy_7"/><linearGradient id="New_Gradient_Swatch_copy_36-9" x1="301.01" y1="150.42" x2="336.47" y2="139.81" xlink:href="#New_Gradient_Swatch_copy_36"/><linearGradient id="New_Gradient_Swatch_copy_36-10" x1="252.95" y1="218.06" x2="240.55" y2="74.02" xlink:href="#New_Gradient_Swatch_copy_36"/><linearGradient id="New_Gradient_Swatch_copy_35-7" x1="311.25" y1="229.85" x2="316.62" y2="241.91" xlink:href="#New_Gradient_Swatch_copy_35"/><linearGradient id="New_Gradient_Swatch_copy_35-8" x1="258.82" y1="131.28" x2="284.76" y2="246.09" xlink:href="#New_Gradient_Swatch_copy_35"/><linearGradient id="New_Gradient_Swatch_copy_35-9" x1="347.54" y1="144.69" x2="298.13" y2="238.83" xlink:href="#New_Gradient_Swatch_copy_35"/><linearGradient id="linear-gradient-22" x1="314.17" y1="187.09" x2="297.03" y2="197.54" gradientTransform="matrix(-1, 0, 0, 1, 450, 0)" gradientUnits="userSpaceOnUse"><stop offset="0.02" stop-color="#45108a"/><stop offset="0.29" stop-color="#3d065f"/><stop offset="1" stop-color="#12054e"/><stop offset="1" stop-color="#10054d"/></linearGradient><linearGradient id="linear-gradient-23" x1="275" y1="137.77" x2="253.51" y2="120.73" gradientTransform="matrix(-1, 0, 0, 1, 450, 0)" gradientUnits="userSpaceOnUse"><stop offset="0" stop-color="#fff"/><stop offset="1" stop-color="#bcbec0"/></linearGradient><linearGradient id="New_Gradient_Swatch_copy_35-10" x1="307.21" y1="183.44" x2="305.85" y2="239.58" xlink:href="#New_Gradient_Swatch_copy_35"/></defs><g class="cls-1"><g id="Layer_1" data-name="Layer 1"><g class="cls-2"><path class="cls-3" d="M117.29,243.62l39.42-22.76,39.5,22.81-39.42,22.76-39.5-22.81Zm-2.94,0,42.43,24.5,42.38-24.47-42.44-24.5-42.37,24.47Z"/><polygon class="cls-3" points="162.74 271.38 204.95 247.01 203.24 246.02 161.03 270.39 162.74 271.38"/><polygon class="cls-3" points="167.64 274.2 209.85 249.84 208.13 248.85 165.92 273.21 167.64 274.2"/><polygon class="cls-3" points="192.32 265.7 214.83 252.71 213.11 251.72 190.61 264.71 192.32 265.7"/><path class="cls-3" d="M62.6,275.2,102,252.44l39.5,22.8L102.1,298,62.6,275.2Zm-2.94,0,42.43,24.5,42.38-24.46L102,250.74,59.66,275.2Z"/><polygon class="cls-3" points="108.05 302.95 150.26 278.58 148.55 277.6 106.34 301.96 108.05 302.95"/><polygon class="cls-3" points="112.95 305.78 155.16 281.41 153.44 280.42 111.23 304.79 112.95 305.78"/><polygon class="cls-3" points="137.63 297.28 160.13 284.29 158.42 283.3 135.92 296.29 137.63 297.28"/><path class="cls-3" d="M190.74,286l39.42-22.76,39.5,22.8-39.42,22.76L190.74,286Zm-3,0,42.44,24.5,42.37-24.46-42.43-24.5L187.79,286Z"/><polygon class="cls-3" points="236.19 313.78 278.4 289.41 276.68 288.42 234.47 312.79 236.19 313.78"/><polygon class="cls-3" points="241.09 316.61 283.29 292.24 281.58 291.25 239.37 315.62 241.09 316.61"/><polygon class="cls-3" points="265.77 308.1 288.27 295.11 286.56 294.12 264.06 307.12 265.77 308.1"/><path class="cls-3" d="M136.05,317.6l39.42-22.76L215,317.65l-39.41,22.76-39.5-22.81Zm-3,0,42.44,24.5,42.37-24.47-42.43-24.5L133.1,317.61Z"/><polygon class="cls-3" points="181.5 345.36 223.71 320.99 221.99 320 179.78 344.37 181.5 345.36"/><polygon class="cls-3" points="186.39 348.19 228.6 323.82 226.89 322.83 184.68 347.2 186.39 348.19"/><polygon class="cls-3" points="211.08 339.68 233.58 326.69 231.87 325.7 209.37 338.69 211.08 339.68"/><path class="cls-3" d="M264.51,328.62l39.42-22.76,39.5,22.81L304,351.42l-39.5-22.8Zm-2.94,0L304,353.12l42.38-24.46-42.44-24.5-42.37,24.46Z"/><polygon class="cls-3" points="309.96 356.38 352.17 332 350.46 331.02 308.25 355.38 309.96 356.38"/><polygon class="cls-3" points="314.86 359.2 357.07 334.83 355.35 333.84 313.14 358.21 314.86 359.2"/><polygon class="cls-3" points="339.54 350.7 362.05 337.71 360.33 336.72 337.83 349.71 339.54 350.7"/><path class="cls-3" d="M209.82,360.2l39.42-22.76,39.5,22.8L249.32,383l-39.5-22.8Zm-2.94,0,42.43,24.5,42.37-24.46-42.43-24.5L206.88,360.2Z"/><polygon class="cls-3" points="255.27 387.95 297.48 363.58 295.76 362.59 253.56 386.96 255.27 387.95"/><polygon class="cls-3" points="260.17 390.78 302.38 366.41 300.66 365.42 258.45 389.79 260.17 390.78"/><polygon class="cls-3" points="284.85 382.27 307.35 369.28 305.64 368.29 283.14 381.28 284.85 382.27"/><path class="cls-3" d="M135.06,199.93a2.39,2.39,0,0,0-2.15,0l-14.44,8.34a.65.65,0,0,0,0,1.24,2.39,2.39,0,0,0,2.15,0l14.43-8.34A.65.65,0,0,0,135.06,199.93Zm-13,11.67a2.39,2.39,0,0,0,2.15,0l14.43-8.34a.65.65,0,0,0,0-1.24,2.39,2.39,0,0,0-2.15,0l-14.44,8.34A.65.65,0,0,0,122.09,211.6Zm3.62,2.09a2.36,2.36,0,0,0,2.15,0l14.43-8.33a.65.65,0,0,0,0-1.24,2.39,2.39,0,0,0-2.15,0l-14.44,8.34A.65.65,0,0,0,125.71,213.69Z"/><path class="cls-3" d="M259.91,408.55,17,268.33c-6.75-3.89-6.71-10.26.08-14.18L120.26,194.6c6.79-3.92,17.81-3.94,24.56,0L387.68,334.78c6.75,3.89,6.72,10.25-.07,14.18L284.47,408.51C277.67,412.43,266.66,412.45,259.91,408.55ZM18.1,254.72c-6.25,3.61-6.28,9.46-.07,13L260.89,408c6.21,3.59,16.35,3.57,22.6,0l103.14-59.55c6.25-3.61,6.28-9.46.07-13L143.84,195.13c-6.21-3.59-16.35-3.57-22.6,0Z"/><path class="cls-3" d="M36.4,261.26c0,.44.62.8,1.39.79s1.39-.36,1.39-.8-.62-.8-1.38-.8S36.41,260.81,36.4,261.26Z"/><path class="cls-3" d="M38.52,254.84h.23v.8h-.22c-5.75,0-10.44,2.71-10.46,6v0H26.68v0C26.7,257.92,32,254.85,38.52,254.84Z"/><path class="cls-3" d="M38.5,258l.23,0v.8H38.5c-2.68,0-4.87,1.26-4.88,2.81v0H32.24v0C32.24,259.67,35.06,258.05,38.5,258Z"/><path class="cls-3" d="M38.51,256.44h.23v.8h-.23c-4.21,0-7.65,2-7.67,4.43v0H29.46v0C29.47,258.79,33.53,256.45,38.51,256.44Z"/><polygon class="cls-3" points="65.34 246.48 106.97 222.44 104.28 220.89 62.64 244.93 65.34 246.48"/></g><g class="cls-4"><path class="cls-5" d="M296.59,389.4a37.82,37.82,0,0,1-18.86-4.54L15,233.61c-6.88-4-10.83-10.26-10.83-17.24,0-7.66,4.75-14.79,13-19.57l113.34-65.44a46.48,46.48,0,0,1,22.9-5.82,37.72,37.72,0,0,1,18.86,4.55L435,281.34c6.88,4,10.83,10.25,10.83,17.23,0,7.66-4.75,14.79-13,19.57L319.49,383.58A46.37,46.37,0,0,1,296.59,389.4Z"/><path class="cls-6" d="M172.06,130.54,434.83,281.79c6.61,3.81,10.35,9.81,10.32,16.44,0,7.26-4.58,14-12.53,18.63l-108.24,62.5c-.17.1-5.47,3.13-5.67,3.19a45.14,45.14,0,0,1-23,5.16,40.5,40.5,0,0,1-18.59-5L15.74,232.33c-6.6-3.82-10.35-9.81-10.31-16.45,0-7.25,4.58-14,12.52-18.63L130.62,132.2a47.77,47.77,0,0,1,8.35-3.71,48.92,48.92,0,0,1,14.33-2.34C160.43,126.08,167,127.59,172.06,130.54Z"/><path class="cls-7" d="M171.85,131,434.62,282.24c6.34,3.66,9.88,9.36,9.82,15.65-.07,6.86-4.41,13.3-12,17.7L323.66,378.38c-.35.2-5.32,3-5.73,3.13A43.75,43.75,0,0,1,294.74,386c-5.88,0-14.12-2.95-18.33-5.39L16.53,231.05c-6.33-3.66-9.88-9.36-9.81-15.65.06-6.86,4.41-13.3,12-17.69l112-64.66a54,54,0,0,1,8.26-3.77,48.31,48.31,0,0,1,14.19-2.52C160.25,126.62,166.8,128.07,171.85,131Z"/><path class="cls-8" d="M171.64,131.44,434.41,282.69c6.07,3.51,9.41,8.92,9.31,14.86-.1,6.46-4.24,12.56-11.52,16.76L322.94,377.39c-.52.3-5.18,2.9-5.79,3.09a42.52,42.52,0,0,1-23.34,3.85c-5.23,0-14.32-3.65-18.06-5.81L17.32,229.77c-6.06-3.5-9.4-8.91-9.31-14.86.1-6.45,4.24-12.55,11.52-16.75l111.31-64.27a63.05,63.05,0,0,1,8.17-3.83,48.43,48.43,0,0,1,14.06-2.69C160.08,127.16,166.63,128.55,171.64,131.44Z"/><path class="cls-9" d="M171.43,131.9,434.2,283.15c5.8,3.34,8.94,8.46,8.81,14.06-.13,6.05-4.07,11.81-11,15.82L322.22,376.41c-.7.4-5,2.79-5.85,3a41.2,41.2,0,0,1-23.49,3.19c-4.57,0-14.52-4.34-17.79-6.23l-257-147.92c-5.8-3.34-8.93-8.46-8.81-14.06.13-6.06,4.08-11.81,11-15.82L131,134.74a73.42,73.42,0,0,1,8.08-3.89A48.09,48.09,0,0,1,153,128C159.91,127.7,166.47,129,171.43,131.9Z"/><path class="cls-10" d="M171.22,132.35,434,283.6c5.53,3.19,8.46,8,8.3,13.27-.16,5.65-3.9,11.07-10.51,14.88L321.5,375.42a60.55,60.55,0,0,1-5.91,3A39.87,39.87,0,0,1,292,381c-3.92,0-14.72-5-17.53-6.65L18.9,227.22c-5.53-3.19-8.46-8-8.3-13.28.16-5.65,3.9-11.06,10.51-14.88l110-63.48c1.41-.81,6.37-3.36,8-4a47.55,47.55,0,0,1,13.79-3C159.73,128.24,166.31,129.51,171.22,132.35Z"/><path class="cls-11" d="M171,132.8,433.78,284.05c5.25,3,8,7.57,7.8,12.48-.2,5.25-3.74,10.32-10,13.94l-110.79,64a54.23,54.23,0,0,1-6,2.94c-7.52,3.11-16.62,3.84-23.78,1.87-3.26,0-14.92-5.71-17.26-7.07L19.69,225.94c-5.26-3-8-7.58-7.8-12.48.19-5.25,3.73-10.32,10-13.94l109.28-63.1c1.17-.67,6.56-3.5,7.9-4a47.22,47.22,0,0,1,13.64-3.22C159.56,128.78,166.15,130,171,132.8Z"/><path class="cls-12" d="M170.8,133.25,433.57,284.51c5,2.87,7.52,7.12,7.29,11.68-.22,4.85-3.56,9.58-9.5,13L320.05,373.46a45.76,45.76,0,0,1-6,2.89c-7.69,3-16.95,3.5-23.92,1.21-2.62,0-15.13-6.41-17-7.49L20.48,224.66c-5-2.88-7.52-7.13-7.3-11.69.23-4.85,3.57-9.57,9.51-13l108.6-62.7c.94-.55,6.74-3.66,7.81-4.07a47,47,0,0,1,13.51-3.39C159.39,129.33,166,130.48,170.8,133.25Z"/><path class="cls-13" d="M170.59,133.71,433.36,285c4.71,2.72,7,6.68,6.79,10.89-.26,4.45-3.4,8.83-9,12.07L319.33,372.47a39.76,39.76,0,0,1-6.08,2.84c-7.86,2.9-17.28,3.18-24.07.56-2,0-15.33-7.1-16.74-7.91L21.26,223.38c-4.71-2.72-7-6.68-6.79-10.89.26-4.45,3.4-8.83,9-12.07L131.4,138.11c.7-.41,6.92-3.81,7.72-4.12a46.92,46.92,0,0,1,13.38-3.57C159.21,129.87,165.82,131,170.59,133.71Z"/><path class="cls-14" d="M170.38,134.16,433.15,285.41c4.44,2.57,6.57,6.23,6.29,10.1-.3,4.05-3.23,8.08-8.5,11.13L318.61,371.49a36.32,36.32,0,0,1-6.13,2.79c-8,2.79-17.63,2.84-24.23-.1-1.3,0-15.53-7.79-16.47-8.33L22.05,222.1c-4.44-2.56-6.57-6.23-6.28-10.1.29-4.05,3.22-8.08,8.49-11.12L131.51,139c.47-.28,7.1-4,7.63-4.19A46.67,46.67,0,0,1,152.38,131C159,130.41,165.66,131.44,170.38,134.16Z"/><path class="cls-15" d="M170.17,134.61,432.94,285.86c4.17,2.41,6.1,5.79,5.78,9.31s-3.06,7.34-8,10.19L317.89,370.51a33.2,33.2,0,0,1-6.19,2.73c-8.21,2.69-18,2.52-24.37-.75-.66,0-15.74-8.48-16.21-8.75L22.84,220.82c-4.17-2.4-6.1-5.78-5.78-9.3s3.05-7.34,8-10.19L131.62,139.8c.24-.14,7.28-4.13,7.54-4.24a46.27,46.27,0,0,1,13.11-3.92C158.87,131,165.5,131.92,170.17,134.61Z"/><path d="M286.4,370.8,23.63,219.55c-7.89-4.56-6.9-12.51,2.21-17.77l113.34-65.44c9.11-5.26,22.89-5.83,30.77-1.27L432.73,286.32c7.88,4.55,6.89,12.5-2.21,17.76L317.17,369.52C308.06,374.78,294.29,375.35,286.4,370.8Z"/></g><path class="cls-16" d="M322.91,343.08l106-61.18c11.95-6.9,10.46-19-3.35-26.93L176.36,111.11c-13.81-8-34.69-8.83-46.64-1.93l-106,61.18c-11.95,6.9-10.45,18.95,3.35,26.92L276.28,341.14C290.08,349.11,311,350,322.91,343.08Z"/><path class="cls-17" d="M322.91,341.26l106-61.18c5.34-3.08,8-7.19,8.07-11.51,0-.38,0-8.69,0-9.07-.44-5-4.29-2.25-11.38-6.34L176.36,109.29c-13.81-8-34.69-8.83-46.64-1.93l-106,61.18c-5.33,3.08-8-2.34-8.06,2,0,.38,0,10.29,0,10.67.43,5,4.28,10.19,11.38,14.29L276.28,339.33C290.08,347.3,311,348.16,322.91,341.26Z"/><path class="cls-18" d="M322.91,332.18l106-61.18c11.95-6.9,10.46-18.95-3.35-26.92L176.36,100.21c-13.81-8-34.69-8.83-46.64-1.93l-106,61.18c-11.95,6.9-10.45,19,3.35,26.93L276.28,330.25C290.08,338.22,311,339.08,322.91,332.18Z"/><path class="cls-19" d="M428.88,269.81,322.91,331c-12,6.9-32.83,6-46.63-1.93L27.1,185.19C19.84,181,16,175.67,15.71,170.56c-.31,5.47,3.56,11.3,11.39,15.83L276.28,330.25c13.8,8,34.68,8.83,46.63,1.93l106-61.18c5.66-3.27,8.3-7.69,8.05-12.29C436.7,262.87,434.05,266.82,428.88,269.81Z"/><path class="cls-20" d="M422.73,245.87l-249.48-144c-12.09-7-30.4-7.74-40.88-1.69L27,161c-10.48,6-9.17,16.62,2.93,23.61l249.48,144c12.1,7,30.4,7.75,40.88,1.7l105.41-60.86C436.15,263.42,434.83,252.85,422.73,245.87Z"/><path class="cls-21" d="M417.9,247.94,169.66,104.62c-10.13-5.84-25.45-6.48-34.22-1.41L32.28,162.76c-8.77,5.07-7.67,13.91,2.46,19.76L283,325.84c10.12,5.85,25.45,6.48,34.22,1.42L420.35,267.7C429.12,262.64,428,253.79,417.9,247.94Z"/><path class="cls-22" d="M136.34,105.1c8.27-4.77,21.63-4.79,29.84,0l251,144.9c8.21,4.74,8.17,12.46-.1,17.23L316.3,325.36c-8.27,4.77-21.63,4.8-29.85.05l-251-144.9c-8.22-4.74-8.18-12.45.09-17.23Z"/><path class="cls-23" d="M301.29,326.91a28,28,0,0,1-13.81-3.27l-251-144.9c-3.3-1.9-5.11-4.31-5.11-6.79s1.85-5,5.2-6.9l100.77-58.18a28.49,28.49,0,0,1,14-3.32,28.09,28.09,0,0,1,13.81,3.27l251,144.9c3.29,1.9,5.11,4.32,5.11,6.8s-1.85,5-5.21,6.89L315.27,323.59A28.42,28.42,0,0,1,301.29,326.91Z"/><path class="cls-24" d="M74.16,221.51l-11.55-6.67a6.24,6.24,0,0,1-2.61-5h0c0-1.93,1.17-2.81,2.61-2l11.55,6.67a6.23,6.23,0,0,1,2.61,5h0C76.77,221.46,75.61,222.34,74.16,221.51Z"/><path class="cls-25" d="M74.16,221.51l-11.55-6.67a6.24,6.24,0,0,1-2.61-5h0c0-1.93,1.17-2.81,2.61-2l11.55,6.67a6.23,6.23,0,0,1,2.61,5h0C76.77,221.46,75.61,222.34,74.16,221.51Z"/><path class="cls-26" d="M75.2,221.14a1.44,1.44,0,0,1-.7-.22L63,214.25a5.59,5.59,0,0,1-2.27-4.39c0-.74.24-1.61.9-1.61a1.49,1.49,0,0,1,.69.22l11.55,6.67a5.61,5.61,0,0,1,2.27,4.4C76.09,220.28,75.86,221.14,75.2,221.14Z"/><path class="cls-27" d="M94.78,233.42l-11.55-6.67a6.26,6.26,0,0,1-2.61-5h0c0-1.92,1.17-2.8,2.61-2l11.55,6.67a6.21,6.21,0,0,1,2.61,5h0C97.39,233.37,96.23,234.25,94.78,233.42Z"/><path class="cls-28" d="M94.78,233.42l-11.55-6.67a6.26,6.26,0,0,1-2.61-5h0c0-1.92,1.17-2.8,2.61-2l11.55,6.67a6.21,6.21,0,0,1,2.61,5h0C97.39,233.37,96.23,234.25,94.78,233.42Z"/><path class="cls-29" d="M95.82,233.05a1.49,1.49,0,0,1-.69-.22l-11.56-6.67a5.61,5.61,0,0,1-2.27-4.4c0-.74.24-1.61.9-1.61a1.4,1.4,0,0,1,.69.23l11.55,6.67a5.59,5.59,0,0,1,2.27,4.39C96.71,232.19,96.48,233.05,95.82,233.05Z"/><path class="cls-30" d="M195.45,283.78,27.1,186.16c-7.1-4.1-11-9.28-11.38-14.29,0-.17,0-2.19,0-4.42,0,0,0,10.4,0,10.77.43,5,4.28,10.19,11.38,14.3Z"/><path class="cls-31" d="M360,277.35l32.27-18.64c3.19-1.84,2.79-5.06-.89-7.18L361.2,234.08c-3.68-2.13-9.25-2.36-12.44-.51L316.48,252.2c-3.19,1.84-2.79,5.06.9,7.18l30.21,17.45C351.28,279,356.85,279.19,360,277.35Z"/><path class="cls-32" d="M317.38,258.25l30.21,17.44c3.69,2.13,9.26,2.36,12.45.52l32.27-18.64a4,4,0,0,0,2.09-2.5c.24,1.35-.43,2.68-2.09,3.64L360,277.35c-3.19,1.84-8.76,1.61-12.45-.52l-30.21-17.45c-2.31-1.33-3.33-3.09-3-4.67A5.51,5.51,0,0,0,317.38,258.25Z"/><path d="M385.59,304.34l-19,11h0c0-3.46,2.11-7.49,4.71-9l9.55-5.52c2.6-1.5,4.71.1,4.71,3.56Z"/><path class="cls-33" d="M239.23,269l-13.54-7.82c-1.83-1.06-1.94-2.73-.34-3.88l-4.89-2.82c-3.82-2.2-3.8-5.8,0-8L224.9,244a15.42,15.42,0,0,1,13.91,0l4.88,2.82a7.94,7.94,0,0,1,6.71.2l13.54,7.82c2,1.12,1.95,3,0,4.1L246.34,269A7.88,7.88,0,0,1,239.23,269Zm4.43-20.92-6-3.49a12.72,12.72,0,0,0-11.51,0l-4.4,2.54c-3.18,1.83-3.2,4.81,0,6.64l6.06,3.5-.82.47c-1.3.75-1.31,2,0,2.73l13.54,7.81a5.2,5.2,0,0,0,4.72,0l17.58-10.15c1.3-.75,1.31-2,0-2.72l-13.54-7.82a5.23,5.23,0,0,0-4.72,0ZM225.25,253c-2.31-1.34-2.3-3.52,0-4.86l2.5-1.45a9.32,9.32,0,0,1,8.42,0l5,2.86-10.95,6.33Zm9.75-5.63a6.67,6.67,0,0,0-6,0l-2.5,1.45c-1.67,1-1.68,2.52,0,3.48l3.77,2.18,8.55-4.94Z"/><path class="cls-33" d="M245.08,260.11a6.93,6.93,0,0,1-4.16-.69c-1.74-1-1.73-2.65,0-3.66a7,7,0,0,1,6.35,0c1.08.62,1.52,1.54,1.19,2.39l3.44,2-3.4,2Z"/><path class="cls-34" d="M338,258.58a23,23,0,0,0,12,2.61,12.24,12.24,0,0,1,6.46,1.33l2.29,1.32a6.12,6.12,0,0,0,4.53.37l2.24,1.3a5.45,5.45,0,0,0,4.9,0l1.82-1.05c1.36-.78,1.36-2.05,0-2.83l-2.25-1.3c.78-.84.58-1.91-.64-2.61l-2.3-1.33c-1.63-.93-2.46-2.27-2.29-3.65.37-3-1.93-6-6.16-7.83a25.51,25.51,0,0,0-19.16.15C331.92,248.48,331.44,254.81,338,258.58Zm1.21-.7c-5.44-3.13-5.41-8.26.06-11.42.39-.22.8-.44,1.25-.64a22.68,22.68,0,0,1,17.06-.14c3.77,1.66,5.83,4.27,5.5,7-.21,1.67.81,3.28,2.78,4.42l2.3,1.33c.83.48.83,1.26,0,1.75L366,261.38l-10.3-5.95,0-4c0-.2-.2-.38-.52-.45a1.32,1.32,0,0,0-.93.11l-6.94,4c-.25.14-.32.36-.19.54a1,1,0,0,0,.79.3h6.28l10.58,6.11L363,263.13a3.34,3.34,0,0,1-3,0l-2.29-1.32a14.92,14.92,0,0,0-7.77-1.61A20.46,20.46,0,0,1,339.18,257.88Z"/><path class="cls-33" d="M279,284l15.2,8.77c-.66,2.16.52,4.35,3.21,5.9,4.53,2.62,11.93,2.6,16.49,0s4.58-6.91.05-9.52a17.54,17.54,0,0,0-10.21-1.85l-15.21-8.78a8,8,0,0,0-7.26,0l-2.25,1.3C277,280.93,277,282.81,279,284Zm1.2-3.52,2.24-1.3a5.48,5.48,0,0,1,4.91,0l15.83,9.14.45,0a15.2,15.2,0,0,1,9.13,1.54c3.89,2.24,3.87,5.9,0,8.16a15.63,15.63,0,0,1-14.13,0c-2.39-1.38-3.39-3.35-2.67-5.27l.09-.26-15.83-9.14C278.82,282.5,278.83,281.23,280.19,280.45Z"/><path class="cls-33" d="M287.1,284.44l2.24-1.3a2,2,0,0,1,1.79,0l11.32,6.53,1.62-.2a11.9,11.9,0,0,1,7.12,1.2c3,1.75,3,4.6,0,6.36a12.19,12.19,0,0,1-11,0c-1.86-1.07-2.64-2.61-2.08-4.11l.35-.93-11.32-6.54A.54.54,0,0,1,287.1,284.44Z"/><path class="cls-33" d="M276.12,217.91a3,3,0,0,0,1.73,2.45l20.42,11.79a7.27,7.27,0,0,0,3.55.89,5.6,5.6,0,0,0,2.8-.65l2.47-1.43,1.36.78a3.43,3.43,0,0,0,3.12,0l2.62-1.52a1,1,0,0,0,0-1.8l-1.35-.78,1.77-1a2.37,2.37,0,0,0,1.32-2,3,3,0,0,0-1.73-2.45l-20.42-11.79a7.16,7.16,0,0,0-6.35-.23L285,211.54l-1.26-.72a3.43,3.43,0,0,0-3.12,0L278,212.34a1,1,0,0,0,0,1.8l1.25.72-1.77,1A2.35,2.35,0,0,0,276.12,217.91Zm1.39,0c0-.39.4-.68.63-.81l10-5.77a4.28,4.28,0,0,1,2.11-.47,5.87,5.87,0,0,1,2.85.7l20.42,11.79c.65.38,1,.84,1,1.24s-.39.68-.62.81l-10,5.77a5.8,5.8,0,0,1-4.95-.23l-20.42-11.79C277.9,218.78,277.51,218.31,277.51,217.91Z"/><polygon class="cls-33" points="302.24 218.71 296.06 222.28 307.39 225.34 289.22 222.93 294.81 219.7 284.38 217.32 302.24 218.71"/><path class="cls-33" d="M289.31,244.07,259.1,226.63c-2.15-1.24-3.38-2.93-3.38-4.64a4.36,4.36,0,0,1,2.48-3.7l32.28-18.63a11.71,11.71,0,0,1,5.74-1.33,15.11,15.11,0,0,1,7.37,1.85l30.21,17.44c2.15,1.24,3.38,2.93,3.38,4.64a4.36,4.36,0,0,1-2.48,3.7l-32.28,18.63a11.68,11.68,0,0,1-5.74,1.33A15.11,15.11,0,0,1,289.31,244.07Zm1.83-43.26-32.27,18.63a3.06,3.06,0,0,0-1.82,2.55c0,1.22,1,2.49,2.71,3.49L290,242.93a13.77,13.77,0,0,0,6.7,1.66,10.32,10.32,0,0,0,5.08-1.15L334,224.81a3.09,3.09,0,0,0,1.82-2.55c0-1.22-1-2.49-2.71-3.49l-30.22-17.44a13.66,13.66,0,0,0-6.7-1.67A10.43,10.43,0,0,0,291.14,200.81Z"/><path class="cls-33" d="M231.84,277l-30.22-17.45c-2.14-1.24-3.37-2.93-3.37-4.64a4.34,4.34,0,0,1,2.48-3.69L233,232.61a11.78,11.78,0,0,1,5.73-1.33,15.24,15.24,0,0,1,7.38,1.85l30.21,17.45c2.15,1.23,3.38,2.93,3.38,4.63a4.35,4.35,0,0,1-2.49,3.7L245,277.54a11.71,11.71,0,0,1-5.74,1.34A15.2,15.2,0,0,1,231.84,277Zm1.83-43.27L201.39,252.4a3.1,3.1,0,0,0-1.82,2.54c0,1.23,1,2.5,2.72,3.49l30.21,17.45a13.84,13.84,0,0,0,6.71,1.67,10.46,10.46,0,0,0,5.08-1.15l32.27-18.64a3.1,3.1,0,0,0,1.82-2.55c0-1.22-1-2.49-2.71-3.49l-30.22-17.44a13.81,13.81,0,0,0-6.71-1.67A10.41,10.41,0,0,0,233.67,233.76Z"/><path class="cls-33" d="M289.79,310.36l-30.22-17.45c-2.15-1.24-3.38-2.93-3.38-4.64a4.35,4.35,0,0,1,2.49-3.69L291,265.94a11.82,11.82,0,0,1,5.74-1.33,15.09,15.09,0,0,1,7.37,1.85l30.22,17.44c2.15,1.25,3.38,2.94,3.38,4.64a4.37,4.37,0,0,1-2.49,3.7L302.9,310.87a11.71,11.71,0,0,1-5.74,1.34A15.2,15.2,0,0,1,289.79,310.36Zm1.83-43.27-32.28,18.64a3.1,3.1,0,0,0-1.82,2.54c0,1.23,1,2.5,2.72,3.49l30.21,17.45a13.84,13.84,0,0,0,6.71,1.67,10.3,10.3,0,0,0,5.07-1.16l32.28-18.63a3.06,3.06,0,0,0,1.82-2.55c0-1.22-1-2.49-2.72-3.49L303.4,267.61a13.81,13.81,0,0,0-6.71-1.67A10.41,10.41,0,0,0,291.62,267.09Z"/><circle class="cls-35" cx="350.94" cy="252.51" r="14.34" transform="translate(-47.36 84.35) rotate(-12.85)"/><polygon class="cls-36" points="271 180.03 245.63 194.56 245.45 202.78 211.76 222.38 163.35 241.61 70.8 219.53 78.93 215.76 46.12 166.68 146.89 105.98 271 180.03"/><polygon class="cls-37" points="214.72 62.05 116.76 119.05 60.44 127.09 158.46 71.22 214.72 62.05"/><polygon class="cls-38" points="116.79 119.05 116.79 215.18 106.67 209.47 106.65 207.35 70.66 186.04 68.47 186.85 60.44 182.1 60.44 127.09 116.79 119.05"/><polygon class="cls-39" points="116.76 119.05 116.76 215.18 214.72 158.16 214.72 62.05 116.76 119.05"/><polygon class="cls-40" points="108.98 160.14 66.11 134.39 66.11 185.46 68.47 186.85 70.66 186.04 106.65 207.35 106.67 209.47 108.98 210.83 108.98 160.14"/><polygon class="cls-41" points="70.66 186.04 70.66 139.83 106.65 161.46 106.65 207.35 70.66 186.04"/><polygon class="cls-42" points="70.66 143.35 70.66 139.83 106.65 161.46 106.65 164.66 70.66 143.35"/><polygon class="cls-42" points="70.66 144.03 70.66 142.16 106.65 163.78 106.65 165.34 70.66 144.03"/><polygon class="cls-42" points="70.66 147.67 70.66 145.8 106.65 167.42 106.65 168.98 70.66 147.67"/><polygon class="cls-42" points="70.66 151.31 70.66 149.44 106.65 171.07 106.65 172.62 70.66 151.31"/><polygon class="cls-42" points="70.66 154.96 70.66 153.09 106.65 174.71 106.65 176.26 70.66 154.96"/><polygon class="cls-42" points="70.66 158.6 70.66 156.73 106.65 178.35 106.65 179.91 70.66 158.6"/><polygon class="cls-42" points="70.66 162.25 70.66 160.37 106.65 182 106.65 183.55 70.66 162.25"/><polygon class="cls-42" points="70.66 165.89 70.66 164.02 106.65 185.64 106.65 187.19 70.66 165.89"/><polygon class="cls-42" points="70.66 169.53 70.66 167.66 106.65 189.28 106.65 190.84 70.66 169.53"/><polygon class="cls-42" points="70.66 173.18 70.66 171.3 106.65 192.93 106.65 194.48 70.66 173.18"/><polygon class="cls-42" points="70.66 176.82 70.66 174.95 106.65 196.57 106.65 198.13 70.66 176.82"/><polygon class="cls-42" points="70.66 180.46 70.66 178.59 106.65 200.21 106.65 201.77 70.66 180.46"/><polygon class="cls-42" points="70.66 184.1 70.66 182.23 106.65 203.86 106.65 205.41 70.66 184.1"/><polygon class="cls-43" points="170.77 176.02 170.77 237.24 271 180.03 271 118.47 170.77 176.02"/><polygon class="cls-44" points="170.77 176.6 123.76 95.75 224 38.54 271 119.05 170.77 176.6"/><polygon class="cls-45" points="263.99 183.76 263.99 130.12 242.59 142.67 242.59 196.22 263.99 183.76"/><polygon class="cls-40" points="244.91 144 244.91 192.18 261.67 182.43 261.67 134.18 244.91 144"/><polygon class="cls-46" points="170.77 237.24 170.77 176.6 123.97 95.14 123.97 211.04 170.77 237.24"/><polygon class="cls-47" points="168.46 100.2 211.76 125.53 211.76 222.38 204.71 218.25 204.71 156.97 168.46 100.2"/><polygon class="Graphic-Style-184" points="259.54 181.36 244.91 189.87 244.91 144 259.54 135.43 259.54 181.36"/><polygon class="cls-48" points="259.54 181.36 244.91 144 259.54 135.43 259.54 181.36"/><path class="cls-49" d="M244.91,144v45.87l14.63-8.51V135.43Zm1.16.67,12.31-7.22v43.24l-12.31,7.16Z"/><polygon class="cls-50" points="211.76 125.53 211.76 222.38 245.45 202.78 245.45 105.78 211.76 125.53"/><polygon class="cls-45" points="239.31 206.13 239.31 152.48 217.9 165.03 217.9 218.58 239.31 206.13"/><polygon class="cls-40" points="220.22 166.36 220.22 214.54 236.98 204.79 236.98 156.54 220.22 166.36"/><polygon class="cls-45" points="198.79 220.84 198.79 167.2 177.39 179.75 177.39 233.29 198.79 220.84"/><polygon class="cls-40" points="179.71 181.08 179.71 229.25 196.47 219.5 196.47 171.25 179.71 181.08"/><polygon class="cls-45" points="239.31 145.43 239.31 116.47 217.9 129.02 217.9 157.89 239.31 145.43"/><polygon class="cls-40" points="220.22 130.35 220.22 153.85 236.98 144.1 236.98 120.53 220.22 130.35"/><polygon class="Graphic-Style-184" points="234.85 203.72 220.23 212.24 220.23 166.36 234.85 157.79 234.85 203.72"/><polygon class="cls-51" points="234.85 203.72 220.23 166.36 234.85 157.79 234.85 203.72"/><polygon class="Graphic-Style-184" points="194.34 218.44 179.71 226.95 179.71 181.08 194.34 172.5 194.34 218.44"/><polygon class="cls-52" points="194.34 218.44 179.71 181.08 194.34 172.5 194.34 218.44"/><polygon class="Graphic-Style-184" points="234.85 143.03 220.23 151.54 220.23 130.35 234.85 121.78 234.85 143.03"/><path class="cls-53" d="M179.71,181.08V227l14.63-8.51V172.5Zm1.16.66,12.31-7.21v43.24l-12.31,7.16Z"/><polygon class="cls-54" points="234.85 143.03 220.23 130.35 234.85 121.78 234.85 143.03"/><path class="cls-55" d="M220.23,130.35v21.19L234.85,143V121.78Zm1.16.67,12.3-7.22v18.56l-12.3,7.16Z"/><path class="cls-56" d="M220.23,166.36v45.87l14.62-8.51V157.79Zm1.16.67,12.3-7.22v43.25l-12.3,7.15Z"/><polygon class="cls-40" points="158.22 170.17 154.54 168.05 132.96 155.5 132.96 124.18 158.22 170.17"/><polygon class="cls-45" points="152.04 163.92 135.29 154.17 135.29 133.5 152.04 163.92"/><polygon class="cls-40" points="157.83 176.54 132.96 162.31 132.96 215.95 157.83 230.09 157.83 176.54"/><polygon class="cls-45" points="155.5 177.87 155.5 226.05 135.29 214.62 135.29 166.37 155.5 177.87"/><polygon class="cls-57" points="137.22 213.55 137.22 167.5 155.5 177.87 155.5 223.86 137.22 213.55"/><path class="cls-42" d="M137.22,167.5v46.05l18.28,10.31v-46Zm1.16,2,16,9.05v43.32l-16-9Z"/><polygon class="Graphic-Style-183" points="137.22 137.02 150.27 160.69 137.22 153.1 137.22 137.02"/><path class="cls-58" d="M137.22,137V153.1l13.05,7.59Zm1.16,4.51,8.85,16.05-8.85-5.15Z"/><polygon class="cls-59" points="211.76 125.53 168.46 100.2 202.15 80.61 245.45 105.78 211.76 125.53"/><polygon class="cls-60" points="163.36 238.78 163.36 241.61 116.72 215.14 116.72 212.32 163.36 238.78"/><polygon class="cls-61" points="163.35 238.78 163.35 241.61 170.78 237.24 170.78 234.43 163.35 238.78"/><polygon class="cls-62" points="170.78 234.43 163.35 238.78 116.72 212.32 123.98 208.1 170.78 234.43"/><path class="cls-63" d="M151.29,196.56a2.64,2.64,0,0,0,1.19,2.06c.66.38,1.19.07,1.19-.68a2.62,2.62,0,0,0-1.19-2.06C151.82,195.49,151.29,195.8,151.29,196.56Z"/><polygon class="cls-64" points="204.71 156.97 168.46 100.2 194.52 162.81 204.71 156.97"/><polygon class="cls-65" points="170.78 234.43 116.72 212.32 123.98 208.1 170.78 234.43"/><polygon class="cls-45" points="70.66 139.83 70.66 186.04 68.47 186.85 68.47 138.65 70.66 139.83"/><path class="cls-66" d="M176.94,328.91l17.3-10-15-8.67-17.3,10Zm-13.08-8.67,15.35-8.87,13.08,7.56-15.35,8.86Zm-11.62-.53,23.61,13.64,26.07-15.05-23.61-13.64a7.73,7.73,0,0,0-7,0l-19.07,11C150.33,316.8,150.32,318.61,152.24,319.71Zm3.62,1L180,306.75l20,11.55-24.11,13.92Zm-2.64-1.52c-1.38-.8-1.38-2.1,0-2.9l19.07-11a5.54,5.54,0,0,1,5,0l1.67,1-24.11,13.92Zm3.87-2.49a2.34,2.34,0,0,0,2.11,0,.65.65,0,0,0,0-1.23,2.36,2.36,0,0,0-2.12,0C156.51,315.78,156.5,316.32,157.09,316.66Zm4.6-2.66a2.33,2.33,0,0,0,2.12,0c.58-.34.59-.89,0-1.22a2.31,2.31,0,0,0-2.11,0C161.11,313.12,161.11,313.67,161.69,314Zm4.6-2.65a2.36,2.36,0,0,0,2.12,0c.59-.34.59-.88,0-1.22a2.33,2.33,0,0,0-2.12,0A.65.65,0,0,0,166.29,311.35Zm4.6-2.66a2.33,2.33,0,0,0,2.12,0,.64.64,0,0,0,0-1.22,2.36,2.36,0,0,0-2.12,0A.64.64,0,0,0,170.89,308.69Z"/><path class="cls-66" d="M238.84,370.1l9,5.21.93-.53-4-2.28,25.69-14.83,3.94,2.28.93-.54-9-5.21a8.37,8.37,0,0,0-5.2-.79l-3.91-2.26a7.43,7.43,0,0,0-6.69,0l-17,9.82c-1.85,1.06-1.86,2.8,0,3.86l3.92,2.26C237,368.14,237.44,369.29,238.84,370.1Zm21-16.38a6.65,6.65,0,0,0-1.15.5l-.32.18-.71-.41a5.38,5.38,0,0,0-4.88,0L248,356.78c-1.12.64-1.3,1.62-.57,2.37a5.51,5.51,0,0,0-4.12.33l-4.81,2.78c-1.36.78-1.36,2.05,0,2.82l.72.42-.32.18a4,4,0,0,0-.85.66l-3.53-2c-1.34-.76-1.33-2,0-2.79l17-9.81a5.33,5.33,0,0,1,4.84,0Zm-11,5.34a.92.92,0,0,1,0-1.75l4.82-2.78a3.34,3.34,0,0,1,3,0l.72.42-7.86,4.53Zm-9.5,5.49a.92.92,0,0,1,0-1.75l4.81-2.78a3.36,3.36,0,0,1,3,0l.71.41L240.11,365Zm4.53,7.42-4.16-2.4c-1.6-.92-1.59-2.43,0-3.36l19.85-11.46a6.45,6.45,0,0,1,5.82,0l4.16,2.4Z"/><path class="cls-66" d="M85.91,281.35l15.22,8.79,27-15.58-15.23-8.79a7.28,7.28,0,0,0-3.83-.82l-18.6.82c-2.35.1-4.38,1.27-4.55,2.63l-1.42,10.74A2.33,2.33,0,0,0,85.91,281.35Zm6-2,17.52-10.12,1.22.71L93.13,280.06Zm30.57-2.58L105,286.88,94,280.58l17.52-10.11Zm-35.66,4.05a1.71,1.71,0,0,1-1-1.63l1.41-10.74c.13-1,1.63-1.86,3.36-1.94l18.6-.82a5.37,5.37,0,0,1,2.82.61l14.32,8.26-2.9,1.68-14-8.06L90.09,279.35l14,8.06-2.9,1.68Z"/><g class="cls-2"><path class="cls-67" d="M319.82,158.88c-16.15-9.32-16.06-24.54.18-33.92s42.6-9.42,58.75-.1,16.06,24.53-.19,33.91S336,168.2,319.82,158.88Zm2-1.14c15.07,8.7,39.66,8.66,54.82-.1s15.23-22.95.17-31.64-39.66-8.66-54.82.09S306.73,149,321.79,157.74Z"/><path class="cls-68" d="M311.51,163.68c-20.7-12-20.59-31.46.23-43.48s54.62-12.09,75.32-.14,20.59,31.46-.24,43.48S332.21,175.63,311.51,163.68Zm3-1.71c19.07,11,50.22,11,69.42-.12s19.29-29.07.21-40.08-50.22-11-69.42.12S295.39,151,314.47,162Z"/><path class="cls-69" d="M302.64,168.8c-25.56-14.76-25.43-38.84.29-53.69s67.44-14.93,93-.17,25.43,38.84-.29,53.69S328.2,183.56,302.64,168.8Zm3.94-2.28C330,180,368.17,180,391.72,166.37s23.67-35.65.27-49.16-61.6-13.44-85.14.16S283.18,153,306.58,166.52Z"/><path class="cls-67" d="M341.22,145.14c-4.44-2.56-4.1-6.85,1-9.19a17.3,17.3,0,0,1,13-.1c3,1.33,4.42,3.35,4.18,5.31a3,3,0,0,0,1.82,2.9l1.65.95c.84.49.83,1.27,0,1.76l-3.7,2.13a3.36,3.36,0,0,1-3,0l-1.64-.95a9.84,9.84,0,0,0-5.11-1.05A15.58,15.58,0,0,1,341.22,145.14Z"/><path class="cls-67" d="M364.28,149.73h0c1.1-.64,1-1.74-.3-2.47l-.23-.13-4,2.29.23.13A4.75,4.75,0,0,0,364.28,149.73Z"/><path class="cls-67" d="M349.74,133.1q-.92,0-1.83,0l0-3.83c0-.3.41-.53.92-.53s.91.23.91.52Z"/><path class="cls-67" d="M357.6,134.94l4.68-2.7a1.4,1.4,0,0,1,1.29,0,.39.39,0,0,1,0,.74l-4.68,2.71A13.24,13.24,0,0,0,357.6,134.94Z"/><path class="cls-67" d="M335.43,141.33h-6.59c-.5,0-.91-.23-.91-.53s.41-.52.92-.53h6.59A5.36,5.36,0,0,0,335.43,141.33Z"/><path class="cls-67" d="M339.34,135.33c-.22.12-.41.26-.61.39L334.08,133c-.36-.21-.35-.54,0-.75a1.42,1.42,0,0,1,1.3,0L340,135C339.8,135.09,339.55,135.2,339.34,135.33Z"/><path class="cls-67" d="M334,148.57l4.67-2.7c.2.13.39.27.61.39s.45.24.68.35l-4.68,2.7a1.43,1.43,0,0,1-1.29,0C333.64,149.11,333.64,148.78,334,148.57Z"/><path class="cls-67" d="M363.57,148.59c.25.21.23.49-.09.67a1.38,1.38,0,0,1-1.16.05Z"/></g></g></g></svg>