<svg xmlns="http://www.w3.org/2000/svg" xmlns:xlink="http://www.w3.org/1999/xlink" viewBox="0 0 429.7264 329.88"><defs><style>.cls-1{isolation:isolate;}.cls-17,.cls-2,.cls-44{opacity:0.2;}.cls-3{opacity:0;}.cls-4{opacity:0.0909;}.cls-5{opacity:0.1818;}.cls-6{opacity:0.2727;}.cls-7{opacity:0.3636;}.cls-8{opacity:0.4545;}.cls-9{opacity:0.5455;}.cls-10{opacity:0.6364;}.cls-11{opacity:0.7273;}.cls-12{opacity:0.8182;}.cls-13{opacity:0.9091;}.cls-14{fill:url(#linear-gradient);}.cls-15{fill:url(#linear-gradient-2);}.cls-16{fill:url(#linear-gradient-3);}.cls-17{fill:url(#linear-gradient-4);}.cls-124,.cls-18,.cls-29,.cls-30,.cls-31,.cls-58,.cls-66,.cls-74,.cls-80,.cls-81,.cls-85,.cls-86{mix-blend-mode:color-dodge;}.cls-18{fill:url(#Radial_Gradient_1);}.cls-19{fill:url(#linear-gradient-5);}.cls-20{fill:#1f0d3d;}.cls-21,.cls-29{fill:#3d065f;}.cls-22{fill:url(#linear-gradient-6);}.cls-23{fill:url(#linear-gradient-7);}.cls-24{fill:url(#linear-gradient-8);}.cls-25{fill:url(#linear-gradient-9);}.cls-26{fill:url(#linear-gradient-10);}.cls-27{fill:url(#linear-gradient-11);}.cls-28{fill:url(#linear-gradient-12);}.cls-30{fill:url(#radial-gradient);}.cls-31{fill:url(#radial-gradient-2);}.cls-105,.cls-109,.cls-113,.cls-117,.cls-32,.cls-38,.cls-57,.cls-60,.cls-65,.cls-73{mix-blend-mode:screen;}.cls-32{fill:url(#linear-gradient-13);}.cls-33{opacity:0.9;}.cls-34{fill:url(#New_Gradient_Swatch_copy_8);}.cls-35{fill:url(#New_Gradient_Swatch_copy_8-2);}.cls-36{fill:url(#New_Gradient_Swatch_copy_8-3);}.cls-37{fill:#fff;}.cls-38{fill:url(#linear-gradient-14);}.cls-39{fill:url(#New_Gradient_Swatch_copy_7);}.cls-40{fill:url(#New_Gradient_Swatch_copy_7-2);}.cls-41{fill:url(#New_Gradient_Swatch_copy_7-3);}.cls-108,.cls-110,.cls-111,.cls-112,.cls-42,.cls-49,.cls-54,.cls-61,.cls-69,.cls-77,.cls-82,.cls-89,.cls-90,.cls-94,.cls-98{mix-blend-mode:multiply;}.cls-42{fill:url(#radial-gradient-3);}.cls-43{fill:url(#linear-gradient-15);}.cls-44{fill:url(#linear-gradient-16);}.cls-45{fill:url(#linear-gradient-17);}.cls-46{fill:url(#linear-gradient-18);}.cls-47{fill:url(#linear-gradient-19);}.cls-48{fill:url(#linear-gradient-20);}.cls-50{fill:url(#linear-gradient-21);}.cls-51{fill:#e6e7e8;}.cls-52{fill:url(#linear-gradient-22);}.cls-53{fill:url(#linear-gradient-23);}.cls-110,.cls-111,.cls-112,.cls-54,.cls-90,.cls-94,.cls-98{opacity:0.5;}.cls-55{fill:#9f19ab;}.cls-56{fill:url(#New_Gradient_Swatch_copy_9);}.cls-57{fill:url(#White_Black_Radial);}.cls-58{fill:url(#radial-gradient-4);}.cls-59{fill:url(#New_Gradient_Swatch_copy_23);}.cls-60{fill:url(#radial-gradient-5);}.cls-61{fill:url(#radial-gradient-6);}.cls-62{fill:url(#linear-gradient-24);}.cls-63{fill:url(#linear-gradient-25);}.cls-64{fill:url(#linear-gradient-26);}.cls-65{fill:url(#White_Black_Radial-2);}.cls-66{fill:url(#radial-gradient-7);}.cls-67{fill:url(#linear-gradient-27);}.cls-68{fill:url(#linear-gradient-28);}.cls-69{fill:url(#radial-gradient-8);}.cls-70{fill:url(#linear-gradient-29);}.cls-71{fill:url(#linear-gradient-30);}.cls-72{fill:url(#linear-gradient-31);}.cls-73{fill:url(#White_Black_Radial-3);}.cls-74{fill:url(#radial-gradient-9);}.cls-75{fill:url(#linear-gradient-32);}.cls-76{fill:url(#linear-gradient-33);}.cls-77{fill:url(#radial-gradient-10);}.cls-78{fill:url(#linear-gradient-34);}.cls-79{fill:url(#linear-gradient-35);}.cls-80{fill:url(#radial-gradient-11);}.cls-81{fill:url(#radial-gradient-12);}.cls-82{fill:url(#radial-gradient-13);}.cls-83{fill:url(#linear-gradient-36);}.cls-84{fill:url(#linear-gradient-37);}.cls-85{fill:url(#radial-gradient-14);}.cls-86{fill:url(#radial-gradient-15);}.cls-87{fill:url(#New_Gradient_Swatch_copy_3);}.cls-88{fill:url(#New_Gradient_Swatch_copy_13);}.cls-89{fill:url(#radial-gradient-16);}.cls-90{fill:url(#linear-gradient-38);}.cls-91{fill:url(#radial-gradient-17);}.cls-92{fill:url(#radial-gradient-18);}.cls-93{fill:url(#radial-gradient-19);}.cls-94{fill:url(#linear-gradient-39);}.cls-95{fill:url(#radial-gradient-20);}.cls-96{fill:url(#radial-gradient-21);}.cls-97{fill:url(#New_Gradient_Swatch_copy_3-2);}.cls-98{fill:url(#linear-gradient-40);}.cls-99{fill:url(#radial-gradient-22);}.cls-100{fill:#311b61;}.cls-101{fill:#3f237d;}.cls-102{fill:#522ea3;}.cls-103{fill:url(#radial-gradient-23);}.cls-104{fill:#6b24d6;}.cls-105{fill:url(#White_Black_Radial-4);}.cls-106{fill:url(#New_Gradient_Swatch_copy_29);}.cls-107{fill:url(#linear-gradient-41);}.cls-108{opacity:0.8;fill:url(#linear-gradient-42);}.cls-109{opacity:0.6;fill:url(#linear-gradient-43);}.cls-110{fill:url(#linear-gradient-44);}.cls-111{fill:url(#linear-gradient-45);}.cls-112{fill:url(#linear-gradient-46);}.cls-113{fill:url(#linear-gradient-47);}.cls-114{fill:url(#linear-gradient-48);}.cls-115{fill:url(#linear-gradient-49);}.cls-116{fill:url(#linear-gradient-50);}.cls-117{fill:url(#linear-gradient-51);}.cls-118{fill:url(#linear-gradient-52);}.cls-119{fill:url(#linear-gradient-53);}.cls-120{fill:url(#linear-gradient-54);}.cls-121{fill:url(#linear-gradient-55);}.cls-122{fill:url(#linear-gradient-56);}.cls-123{fill:url(#linear-gradient-57);}.cls-124{fill:url(#radial-gradient-24);}</style><linearGradient id="linear-gradient" x1="6812.6454" y1="181.429" x2="7210.6778" y2="181.429" gradientTransform="matrix(-1, 0, 0, 1, 7218.8105, 0)" gradientUnits="userSpaceOnUse"><stop offset="0" stop-color="#2f054a"/><stop offset="1" stop-color="#5824b0"/></linearGradient><linearGradient id="linear-gradient-2" x1="6864.9756" y1="179.714" x2="7263.0097" y2="179.714" gradientTransform="matrix(-1, 0, 0, 1, 7218.8105, 0)" gradientUnits="userSpaceOnUse"><stop offset="0.0556" stop-color="#2f0d5e"/><stop offset="0.2777" stop-color="#2f105f"/><stop offset="0.4697" stop-color="#311b61"/><stop offset="0.482" stop-color="#351f65"/><stop offset="0.4954" stop-color="#422c73"/><stop offset="0.5093" stop-color="#584188"/><stop offset="0.5235" stop-color="#765fa7"/><stop offset="0.5303" stop-color="#8770b8"/><stop offset="0.5366" stop-color="#7e67ae"/><stop offset="0.5617" stop-color="#5c468d"/><stop offset="0.5857" stop-color="#442e75"/><stop offset="0.6078" stop-color="#362066"/><stop offset="0.6263" stop-color="#311b61"/><stop offset="0.6724" stop-color="#2a1155"/><stop offset="0.7491" stop-color="#230446"/><stop offset="0.8131" stop-color="#200041"/><stop offset="1" stop-color="#200041"/></linearGradient><linearGradient id="linear-gradient-3" x1="6812.6454" y1="171.1345" x2="7210.6778" y2="171.1345" gradientTransform="matrix(-1, 0, 0, 1, 7218.8105, 0)" gradientUnits="userSpaceOnUse"><stop offset="0" stop-color="#58098a"/><stop offset="1" stop-color="#9e3bdb"/></linearGradient><linearGradient id="linear-gradient-4" x1="-71.3916" y1="224.2376" x2="326.6428" y2="224.2376" gradientTransform="matrix(1, 0, 0, 1, 0, 0)" xlink:href="#linear-gradient-2"/><radialGradient id="Radial_Gradient_1" cx="180.5075" cy="215.16" r="151.2885" gradientUnits="userSpaceOnUse"><stop offset="0" stop-color="#fff"/><stop offset="1"/></radialGradient><linearGradient id="linear-gradient-5" x1="6816.621" y1="171.1348" x2="7206.7014" y2="171.1348" gradientTransform="matrix(-1, 0, 0, 1, 7218.8105, 0)" gradientUnits="userSpaceOnUse"><stop offset="0" stop-color="#2f054a"/><stop offset="1" stop-color="#5e1d9a"/></linearGradient><linearGradient id="linear-gradient-6" x1="227.0014" y1="71.8725" x2="157.9158" y2="417.3018" gradientUnits="userSpaceOnUse"><stop offset="0.0101" stop-color="#9f19ab"/><stop offset="0.4293" stop-color="#5f27bd"/><stop offset="0.904" stop-color="#3d065f"/></linearGradient><linearGradient id="linear-gradient-7" x1="9180.956" y1="-904.3938" x2="9200.1394" y2="-904.3938" gradientTransform="matrix(-0.866, 0.5, -0.5, 1.4434, 7863.1863, -3119.2414)" gradientUnits="userSpaceOnUse"><stop offset="0" stop-color="#3d065f"/><stop offset="1" stop-color="#5f27bd"/></linearGradient><linearGradient id="linear-gradient-8" x1="9180.956" y1="-904.3938" x2="9200.1394" y2="-904.3938" gradientTransform="matrix(-0.866, 0.5, -0.5, 1.4434, 7863.1863, -3119.2414)" xlink:href="#linear-gradient"/><linearGradient id="linear-gradient-9" x1="9160.0741" y1="-847.5641" x2="9152.1397" y2="-832.7676" gradientTransform="matrix(-0.866, 0.5, -0.5, 1.4434, 7863.1863, -3119.2414)" gradientUnits="userSpaceOnUse"><stop offset="0.0556" stop-color="#9f79b8"/><stop offset="0.2575" stop-color="#a17bba"/><stop offset="0.3569" stop-color="#a783bf"/><stop offset="0.4338" stop-color="#b290c9"/><stop offset="0.4949" stop-color="#c1a1d5"/><stop offset="0.5067" stop-color="#c4a5d7"/><stop offset="0.5196" stop-color="#cdb3dd"/><stop offset="0.5329" stop-color="#dbc8e7"/><stop offset="0.5466" stop-color="#efe7f4"/><stop offset="0.5556" stop-color="#fff"/><stop offset="0.5678" stop-color="#ece0f3"/><stop offset="0.5801" stop-color="#ddc8ea"/><stop offset="0.5915" stop-color="#d4b9e5"/><stop offset="0.601" stop-color="#d1b4e3"/><stop offset="0.658" stop-color="#b395d6"/><stop offset="0.7155" stop-color="#9c7dcb"/><stop offset="0.7687" stop-color="#8e6ec5"/><stop offset="0.8131" stop-color="#8969c3"/><stop offset="1" stop-color="#b086cc"/></linearGradient><linearGradient id="linear-gradient-10" x1="9203.4548" y1="-904.3946" x2="9222.6367" y2="-904.3946" xlink:href="#linear-gradient-7"/><linearGradient id="linear-gradient-11" x1="9203.4548" y1="-904.3946" x2="9222.6367" y2="-904.3946" gradientTransform="matrix(-0.866, 0.5, -0.5, 1.4434, 7863.1863, -3119.2414)" xlink:href="#linear-gradient"/><linearGradient id="linear-gradient-12" x1="9177.5351" y1="-838.172" x2="9169.5978" y2="-823.3701" xlink:href="#linear-gradient-9"/><radialGradient id="radial-gradient" cx="367.294" cy="135.2471" r="55.8477" gradientUnits="userSpaceOnUse"><stop offset="0" stop-color="#43e8e1"/><stop offset="0.4897" stop-color="#35b8b3"/><stop offset="1" stop-color="#288a86"/></radialGradient><radialGradient id="radial-gradient-2" cx="196.4615" cy="104.0215" r="43.1117" xlink:href="#radial-gradient"/><linearGradient id="linear-gradient-13" x1="210.9101" y1="187.372" x2="233.0062" y2="161.5933" gradientUnits="userSpaceOnUse"><stop offset="0" stop-color="#fdd65b"/><stop offset="0.0115" stop-color="#f7d159"/><stop offset="0.1287" stop-color="#bea144"/><stop offset="0.2492" stop-color="#8b7632"/><stop offset="0.3704" stop-color="#605223"/><stop offset="0.4923" stop-color="#3e3416"/><stop offset="0.6153" stop-color="#231d0c"/><stop offset="0.7398" stop-color="#0f0d05"/><stop offset="0.8667" stop-color="#040301"/><stop offset="1"/></linearGradient><linearGradient id="New_Gradient_Swatch_copy_8" x1="243.2058" y1="197.7743" x2="273.0763" y2="188.83" gradientUnits="userSpaceOnUse"><stop offset="0.0354" stop-color="#ffa98c"/><stop offset="0.3169" stop-color="#ffb892"/><stop offset="0.8601" stop-color="#fee1a3"/><stop offset="1" stop-color="#feeca8"/></linearGradient><linearGradient id="New_Gradient_Swatch_copy_8-2" x1="119.9841" y1="201.3267" x2="308.502" y2="159.0671" xlink:href="#New_Gradient_Swatch_copy_8"/><linearGradient id="New_Gradient_Swatch_copy_8-3" x1="226.4426" y1="146.0813" x2="214.7135" y2="168.4346" xlink:href="#New_Gradient_Swatch_copy_8"/><linearGradient id="linear-gradient-14" x1="81.4516" y1="233.0128" x2="112.5232" y2="196.7625" gradientUnits="userSpaceOnUse"><stop offset="0" stop-color="#43e8e1"/><stop offset="0.0944" stop-color="#36bdb7"/><stop offset="0.2176" stop-color="#288b87"/><stop offset="0.3438" stop-color="#1c605d"/><stop offset="0.4708" stop-color="#123e3c"/><stop offset="0.599" stop-color="#0a2321"/><stop offset="0.7287" stop-color="#040f0f"/><stop offset="0.8611" stop-color="#010404"/><stop offset="1"/></linearGradient><linearGradient id="New_Gradient_Swatch_copy_7" x1="117.2877" y1="244.8233" x2="152.6437" y2="234.2365" gradientUnits="userSpaceOnUse"><stop offset="0.0354" stop-color="#138bbd"/><stop offset="0.2257" stop-color="#169ac7"/><stop offset="0.5946" stop-color="#1fc3df"/><stop offset="1" stop-color="#2af6ff"/></linearGradient><linearGradient id="New_Gradient_Swatch_copy_7-2" x1="-28.5783" y1="248.9682" x2="196.7424" y2="198.4585" xlink:href="#New_Gradient_Swatch_copy_7"/><linearGradient id="New_Gradient_Swatch_copy_7-3" x1="96.4551" y1="183.3955" x2="84.0724" y2="206.9943" xlink:href="#New_Gradient_Swatch_copy_7"/><radialGradient id="radial-gradient-3" cx="957.9867" cy="-4275.5065" r="23.8911" gradientTransform="translate(-975.5229 2287.6271) scale(1.181 0.4914)" gradientUnits="userSpaceOnUse"><stop offset="0.1919" stop-color="#5f5c5d"/><stop offset="1" stop-color="#fff"/></radialGradient><linearGradient id="linear-gradient-15" x1="130.9565" y1="166.5177" x2="170.6422" y2="166.5177" gradientUnits="userSpaceOnUse"><stop offset="0" stop-color="#f2aa77"/><stop offset="0.2273" stop-color="#fffbc9"/><stop offset="0.5404" stop-color="#eca64c"/><stop offset="0.6162" stop-color="#eda84f"/><stop offset="0.6821" stop-color="#efad5a"/><stop offset="0.7443" stop-color="#f3b66c"/><stop offset="0.8039" stop-color="#f8c385"/><stop offset="0.8586" stop-color="#fed2a3"/><stop offset="1" stop-color="#eca549"/></linearGradient><linearGradient id="linear-gradient-16" x1="130.9565" y1="193.1876" x2="170.6422" y2="193.1876" gradientUnits="userSpaceOnUse"><stop offset="0" stop-color="#eca12a"/><stop offset="0.2273" stop-color="#fffbc9"/><stop offset="0.5404" stop-color="#df9300"/><stop offset="0.5978" stop-color="#e09403"/><stop offset="0.6476" stop-color="#e2980e"/><stop offset="0.6947" stop-color="#e59f20"/><stop offset="0.7401" stop-color="#eaa939"/><stop offset="0.7843" stop-color="#f0b65a"/><stop offset="0.827" stop-color="#f8c581"/><stop offset="0.8586" stop-color="#fed2a3"/><stop offset="0.9697" stop-color="#eca30a"/></linearGradient><linearGradient id="linear-gradient-17" x1="130.9565" y1="169.8629" x2="170.6422" y2="169.8629" gradientUnits="userSpaceOnUse"><stop offset="0" stop-color="#e3e3d8"/><stop offset="0.2273" stop-color="#fff"/><stop offset="0.5404" stop-color="#d4d1c5"/><stop offset="0.6979" stop-color="#d7d4c8"/><stop offset="0.8345" stop-color="#e0ded3"/><stop offset="0.8687" stop-color="#e3e2d7"/><stop offset="0.9955" stop-color="#cccaba"/><stop offset="1" stop-color="#cbc9b9"/></linearGradient><linearGradient id="linear-gradient-18" x1="130.7642" y1="143.4483" x2="130.771" y2="143.4483" gradientUnits="userSpaceOnUse"><stop offset="0" stop-color="#b5bbcb"/><stop offset="0.2273" stop-color="#eceff5"/><stop offset="0.5404" stop-color="#9da7b3"/><stop offset="0.6547" stop-color="#a0aab5"/><stop offset="0.7541" stop-color="#abb3bd"/><stop offset="0.8476" stop-color="#bdc2c9"/><stop offset="0.8687" stop-color="#c2c6cd"/><stop offset="1" stop-color="#b9bdcb"/></linearGradient><linearGradient id="linear-gradient-19" x1="171.0806" y1="143.4483" x2="171.0883" y2="143.4483" xlink:href="#linear-gradient-18"/><linearGradient id="linear-gradient-20" x1="130.9565" y1="186.1529" x2="170.6422" y2="186.1529" gradientUnits="userSpaceOnUse"><stop offset="0" stop-color="#c211a1"/><stop offset="0.046" stop-color="#c718a5"/><stop offset="0.1148" stop-color="#d72db0"/><stop offset="0.1974" stop-color="#ef4ec2"/><stop offset="0.2424" stop-color="#ff63ce"/><stop offset="0.3177" stop-color="#eb48bf"/><stop offset="0.4495" stop-color="#c211a1"/><stop offset="0.5404" stop-color="#a919ab"/><stop offset="0.6441" stop-color="#ac1bab"/><stop offset="0.7343" stop-color="#b723ab"/><stop offset="0.8191" stop-color="#c92faa"/><stop offset="0.8838" stop-color="#dc3daa"/><stop offset="0.9539" stop-color="#cd24a5"/><stop offset="1" stop-color="#c211a1"/></linearGradient><linearGradient id="linear-gradient-21" x1="129.9996" y1="134.6925" x2="130.0073" y2="134.6925" gradientUnits="userSpaceOnUse"><stop offset="0" stop-color="#ffbb96"/><stop offset="0.2273" stop-color="#fffbc9"/><stop offset="0.5404" stop-color="#f9b673"/><stop offset="0.6391" stop-color="#f9b876"/><stop offset="0.7249" stop-color="#fabe81"/><stop offset="0.8057" stop-color="#fcc993"/><stop offset="0.8586" stop-color="#fed2a3"/><stop offset="0.9697" stop-color="#ffc28c"/></linearGradient><linearGradient id="linear-gradient-22" x1="171.8452" y1="134.6925" x2="171.852" y2="134.6925" xlink:href="#linear-gradient-21"/><linearGradient id="linear-gradient-23" x1="130.1991" y1="138.2818" x2="171.389" y2="138.2818" xlink:href="#linear-gradient-20"/><linearGradient id="New_Gradient_Swatch_copy_9" x1="189.5912" y1="89.3228" x2="148.659" y2="130.5157" gradientUnits="userSpaceOnUse"><stop offset="0.0354" stop-color="#9f19ab"/><stop offset="0.2438" stop-color="#ae25b1"/><stop offset="0.6455" stop-color="#d744bf"/><stop offset="1" stop-color="#ff63ce"/></linearGradient><radialGradient id="White_Black_Radial" cx="141.9316" cy="137.1966" r="26.3025" xlink:href="#Radial_Gradient_1"/><radialGradient id="radial-gradient-4" cx="15207.4078" cy="-9532.6981" r="29.6998" gradientTransform="matrix(0.0483, -0.142, 0.2866, 0.0976, 2136.9866, 3229.3213)" gradientUnits="userSpaceOnUse"><stop offset="0" stop-color="#f49587"/><stop offset="0.116" stop-color="#bd7368"/><stop offset="0.2362" stop-color="#8b554d"/><stop offset="0.3594" stop-color="#603b35"/><stop offset="0.4835" stop-color="#3e2622"/><stop offset="0.6085" stop-color="#231513"/><stop offset="0.7352" stop-color="#0f0908"/><stop offset="0.8644" stop-color="#040202"/><stop offset="1"/></radialGradient><linearGradient id="New_Gradient_Swatch_copy_23" x1="130.896" y1="158.9991" x2="171.9369" y2="158.9991" gradientUnits="userSpaceOnUse"><stop offset="0.0101" stop-color="#c1a1d5"/><stop offset="0.0488" stop-color="#c8abda"/><stop offset="0.1149" stop-color="#dac6e6"/><stop offset="0.1998" stop-color="#f7f2f9"/><stop offset="0.2222" stop-color="#fff"/><stop offset="0.2513" stop-color="#f9f5fb"/><stop offset="0.3001" stop-color="#e9dbf2"/><stop offset="0.3586" stop-color="#d1b4e3"/><stop offset="0.4264" stop-color="#b395d6"/><stop offset="0.4949" stop-color="#9c7dcb"/><stop offset="0.5583" stop-color="#8e6ec5"/><stop offset="0.6111" stop-color="#8969c3"/><stop offset="0.755" stop-color="#9471c6"/><stop offset="1" stop-color="#b086cc"/></linearGradient><radialGradient id="radial-gradient-5" cx="-7594.8641" cy="157.5528" r="23.75" gradientTransform="translate(1659.0534) scale(0.2 1)" gradientUnits="userSpaceOnUse"><stop offset="0" stop-color="#9da7b3"/><stop offset="0.0265" stop-color="#939da8"/><stop offset="0.144" stop-color="#6c737c"/><stop offset="0.2667" stop-color="#4b5056"/><stop offset="0.3933" stop-color="#303336"/><stop offset="0.5248" stop-color="#1b1c1e"/><stop offset="0.6637" stop-color="#0c0c0d"/><stop offset="0.8147" stop-color="#030303"/><stop offset="1"/></radialGradient><radialGradient id="radial-gradient-6" cx="932.1537" cy="-4249.0108" r="9.4242" xlink:href="#radial-gradient-3"/><linearGradient id="linear-gradient-24" x1="114.8052" y1="197.9078" x2="114.8081" y2="197.9078" xlink:href="#linear-gradient-21"/><linearGradient id="linear-gradient-25" x1="131.5093" y1="197.9078" x2="131.5122" y2="197.9078" xlink:href="#linear-gradient-21"/><linearGradient id="linear-gradient-26" x1="114.8849" y1="199.3404" x2="131.3273" y2="199.3404" xlink:href="#linear-gradient-17"/><radialGradient id="White_Black_Radial-2" cx="119.5683" cy="198.6407" r="10.4996" xlink:href="#Radial_Gradient_1"/><radialGradient id="radial-gradient-7" cx="14783.4356" cy="-9534.0394" r="11.8553" xlink:href="#radial-gradient-4"/><linearGradient id="linear-gradient-27" x1="138.5961" y1="179.5317" x2="122.256" y2="195.9758" gradientUnits="userSpaceOnUse"><stop offset="0.0354" stop-color="#d4d1d8"/><stop offset="0.421" stop-color="#e2e0e5"/><stop offset="1" stop-color="#fff"/></linearGradient><linearGradient id="linear-gradient-28" x1="116.3823" y1="195.3578" x2="129.268" y2="195.3578" xlink:href="#linear-gradient-17"/><radialGradient id="radial-gradient-8" cx="984.048" cy="-4219.1097" r="9.4242" xlink:href="#radial-gradient-3"/><linearGradient id="linear-gradient-29" x1="176.0923" y1="212.6012" x2="176.0952" y2="212.6012" xlink:href="#linear-gradient-21"/><linearGradient id="linear-gradient-30" x1="192.7964" y1="212.6012" x2="192.7993" y2="212.6012" xlink:href="#linear-gradient-21"/><linearGradient id="linear-gradient-31" x1="176.172" y1="214.0338" x2="192.6144" y2="214.0338" xlink:href="#linear-gradient-17"/><radialGradient id="White_Black_Radial-3" cx="180.8554" cy="213.3344" r="10.4996" xlink:href="#Radial_Gradient_1"/><radialGradient id="radial-gradient-9" cx="14822.421" cy="-9326.767" r="11.8537" xlink:href="#radial-gradient-4"/><linearGradient id="linear-gradient-32" x1="199.8824" y1="194.226" x2="183.5429" y2="210.6695" xlink:href="#linear-gradient-27"/><linearGradient id="linear-gradient-33" x1="177.6695" y1="210.0512" x2="190.5551" y2="210.0512" xlink:href="#linear-gradient-17"/><radialGradient id="radial-gradient-10" cx="2182.7124" cy="-5512.0125" r="9.4238" gradientTransform="matrix(1.2082, -0.4407, 0.1612, 0.442, -1586.1742, 3604.5466)" xlink:href="#radial-gradient-3"/><linearGradient id="linear-gradient-34" x1="163.8383" y1="197.9411" x2="167.6701" y2="204.578" xlink:href="#linear-gradient-20"/><linearGradient id="linear-gradient-35" x1="155.3291" y1="203.5879" x2="159.1953" y2="210.2845" gradientUnits="userSpaceOnUse"><stop offset="0" stop-color="#e3e3d8"/><stop offset="0.1768" stop-color="#fff"/><stop offset="0.5404" stop-color="#d4d1c5"/><stop offset="0.6979" stop-color="#d7d4c8"/><stop offset="0.8345" stop-color="#e0ded3"/><stop offset="0.8687" stop-color="#e3e2d7"/><stop offset="0.9955" stop-color="#cccaba"/><stop offset="1" stop-color="#cbc9b9"/></linearGradient><radialGradient id="radial-gradient-11" cx="42688.3253" cy="1135.7902" r="17.2907" gradientTransform="matrix(-0.0435, -0.0769, 0.2636, -0.149, 1719.8743, 3653.2374)" xlink:href="#radial-gradient-4"/><radialGradient id="radial-gradient-12" cx="152.377" cy="207.1393" r="2.9768" gradientTransform="matrix(1, 0, 0, 1, 0, 0)" xlink:href="#radial-gradient-4"/><radialGradient id="radial-gradient-13" cx="-386.0959" cy="-1207.146" r="9.4238" gradientTransform="matrix(1.0172, 0.6002, -0.2497, 0.4232, 281.1239, 941.4203)" xlink:href="#radial-gradient-3"/><linearGradient id="linear-gradient-36" x1="4073.5546" y1="190.0898" x2="4077.3868" y2="196.7274" gradientTransform="matrix(-1, 0, 0, 1, 4257.7383, 0)" xlink:href="#linear-gradient-35"/><linearGradient id="linear-gradient-37" x1="4065.0457" y1="195.7365" x2="4068.9124" y2="202.4338" gradientTransform="matrix(-1, 0, 0, 1, 4257.7383, 0)" xlink:href="#linear-gradient-20"/><radialGradient id="radial-gradient-14" cx="20990.1099" cy="12387.0903" r="17.2884" gradientTransform="matrix(0.0435, -0.0769, -0.2636, -0.149, 2537.8625, 3653.2374)" xlink:href="#radial-gradient-4"/><radialGradient id="radial-gradient-15" cx="4062.0937" cy="199.2878" r="2.9767" gradientTransform="matrix(-1, 0, 0, 1, 4257.7383, 0)" xlink:href="#radial-gradient-4"/><radialGradient id="New_Gradient_Swatch_copy_3" cx="252.922" cy="80.4158" r="42.3934" gradientUnits="userSpaceOnUse"><stop offset="0" stop-color="#2af6ff"/><stop offset="1" stop-color="#138bbd"/></radialGradient><linearGradient id="New_Gradient_Swatch_copy_13" x1="245.6633" y1="118.8073" x2="242.957" y2="80.134" gradientUnits="userSpaceOnUse"><stop offset="0.0354" stop-color="#6b24d6"/><stop offset="0.2945" stop-color="#7733dc"/><stop offset="0.7943" stop-color="#975ced"/><stop offset="1" stop-color="#a56ef4"/></linearGradient><radialGradient id="radial-gradient-16" cx="346.0693" cy="-994.8051" r="15.4311" gradientTransform="matrix(1.1482, 0.2764, -0.1822, 0.7569, -331.0945, 736.4079)" xlink:href="#radial-gradient-3"/><linearGradient id="linear-gradient-38" x1="230.6092" y1="92.6005" x2="241.8184" y2="92.6005" gradientUnits="userSpaceOnUse"><stop offset="0" stop-color="#fff"/><stop offset="1" stop-color="#bcbec0"/></linearGradient><radialGradient id="radial-gradient-17" cx="245.0903" cy="83.6714" r="32.2252" gradientUnits="userSpaceOnUse"><stop offset="0" stop-color="#fff"/><stop offset="0.7273" stop-color="#d4d1d8"/><stop offset="0.9848" stop-color="#c2c0cc"/></radialGradient><radialGradient id="radial-gradient-18" cx="259.5996" cy="91.922" r="37.8786" xlink:href="#radial-gradient-17"/><radialGradient id="radial-gradient-19" cx="247.2729" cy="72.8089" r="83.6153" gradientUnits="userSpaceOnUse"><stop offset="0.3788" stop-color="#fff"/><stop offset="0.4591" stop-color="#f9f8fb"/><stop offset="0.5796" stop-color="#e8e3f1"/><stop offset="0.7252" stop-color="#cbc2e1"/><stop offset="0.889" stop-color="#a593ca"/><stop offset="1" stop-color="#8770b8"/></radialGradient><linearGradient id="linear-gradient-39" x1="224.0382" y1="103.319" x2="224.693" y2="70.1887" xlink:href="#linear-gradient-38"/><radialGradient id="radial-gradient-20" cx="247.2728" cy="72.8091" r="83.6157" xlink:href="#radial-gradient-19"/><radialGradient id="radial-gradient-21" cx="247.2726" cy="72.7948" r="83.6417" gradientUnits="userSpaceOnUse"><stop offset="0.3788" stop-color="#fff"/><stop offset="0.4675" stop-color="#f4f2f9"/><stop offset="0.6315" stop-color="#d8d0e8"/><stop offset="0.8509" stop-color="#a9c"/><stop offset="1" stop-color="#8770b8"/></radialGradient><radialGradient id="New_Gradient_Swatch_copy_3-2" cx="246.9923" cy="79.5723" r="38.4437" xlink:href="#New_Gradient_Swatch_copy_3"/><linearGradient id="linear-gradient-40" x1="244.3975" y1="99.5372" x2="268.9883" y2="99.5372" xlink:href="#linear-gradient-38"/><radialGradient id="radial-gradient-22" cx="257.9231" cy="83.4077" r="52.3733" xlink:href="#radial-gradient-17"/><radialGradient id="radial-gradient-23" cx="242.9919" cy="72.8179" r="83.3124" xlink:href="#radial-gradient-17"/><radialGradient id="White_Black_Radial-4" cx="244.9726" cy="82.2714" r="7.7548" xlink:href="#Radial_Gradient_1"/><radialGradient id="New_Gradient_Swatch_copy_29" cx="243.3069" cy="52.3379" r="23.092" gradientUnits="userSpaceOnUse"><stop offset="0.0303" stop-color="#fedfcb"/><stop offset="1" stop-color="#f9b69e"/></radialGradient><linearGradient id="linear-gradient-41" x1="254.7358" y1="70.0416" x2="245.034" y2="14.7149" gradientUnits="userSpaceOnUse"><stop offset="0.0354" stop-color="#25054d"/><stop offset="0.1597" stop-color="#2d085c"/><stop offset="0.3997" stop-color="#420f85"/><stop offset="0.4293" stop-color="#45108a"/><stop offset="1" stop-color="#a56ef4"/></linearGradient><linearGradient id="linear-gradient-42" x1="249.3879" y1="77.6799" x2="240.5953" y2="69.0031" gradientUnits="userSpaceOnUse"><stop offset="0" stop-color="#fff"/><stop offset="1" stop-color="#dbac9b"/></linearGradient><linearGradient id="linear-gradient-43" x1="231.5391" y1="45.0391" x2="241.039" y2="54.039" xlink:href="#Radial_Gradient_1"/><linearGradient id="linear-gradient-44" x1="258.4344" y1="40.5987" x2="264.1961" y2="50.3762" xlink:href="#linear-gradient-38"/><linearGradient id="linear-gradient-45" x1="260.4404" y1="54.8665" x2="264.325" y2="53.0364" xlink:href="#linear-gradient-38"/><linearGradient id="linear-gradient-46" x1="243.8396" y1="54.496" x2="240.1392" y2="33.3933" xlink:href="#linear-gradient-38"/><linearGradient id="linear-gradient-47" x1="305.7673" y1="136.0581" x2="334.9612" y2="116.3523" gradientUnits="userSpaceOnUse"><stop offset="0" stop-color="#c211a1"/><stop offset="0.0133" stop-color="#bd119d"/><stop offset="0.1476" stop-color="#8b0c73"/><stop offset="0.2851" stop-color="#600850"/><stop offset="0.4234" stop-color="#3e0533"/><stop offset="0.563" stop-color="#23031d"/><stop offset="0.7044" stop-color="#0f010d"/><stop offset="0.8486" stop-color="#040003"/><stop offset="1"/></linearGradient><linearGradient id="linear-gradient-48" x1="316.4969" y1="139.6446" x2="346.79" y2="130.5739" xlink:href="#New_Gradient_Swatch_copy_9"/><linearGradient id="linear-gradient-49" x1="270.3568" y1="143.419" x2="339.7505" y2="127.8632" xlink:href="#New_Gradient_Swatch_copy_9"/><linearGradient id="linear-gradient-50" x1="318.9165" y1="102.9969" x2="308.0535" y2="123.6995" xlink:href="#New_Gradient_Swatch_copy_9"/><linearGradient id="linear-gradient-51" x1="305.7673" y1="106.8315" x2="334.9612" y2="87.1257" xlink:href="#linear-gradient-47"/><linearGradient id="linear-gradient-52" x1="316.4969" y1="110.418" x2="346.79" y2="101.3473" xlink:href="#New_Gradient_Swatch_copy_9"/><linearGradient id="linear-gradient-53" x1="270.357" y1="114.1924" x2="339.75" y2="98.6367" xlink:href="#New_Gradient_Swatch_copy_9"/><linearGradient id="linear-gradient-54" x1="318.9171" y1="73.7692" x2="308.0532" y2="94.4735" xlink:href="#New_Gradient_Swatch_copy_9"/><linearGradient id="linear-gradient-55" x1="316.497" y1="80.4947" x2="346.7895" y2="71.4241" xlink:href="#New_Gradient_Swatch_copy_9"/><linearGradient id="linear-gradient-56" x1="270.3565" y1="84.2687" x2="339.7503" y2="68.7128" xlink:href="#New_Gradient_Swatch_copy_9"/><linearGradient id="linear-gradient-57" x1="318.9172" y1="43.8456" x2="308.0534" y2="64.5497" xlink:href="#New_Gradient_Swatch_copy_9"/><radialGradient id="radial-gradient-24" cx="-3367.6977" cy="-1198.3466" r="29.6789" gradientTransform="matrix(0.3737, -0.0511, 0.0899, 0.6577, 1636.4147, 711.3612)" gradientUnits="userSpaceOnUse"><stop offset="0" stop-color="#271273"/><stop offset="0.0836" stop-color="#210f60"/><stop offset="0.2596" stop-color="#150a3d"/><stop offset="0.4388" stop-color="#0c0522"/><stop offset="0.6203" stop-color="#05020f"/><stop offset="0.8055" stop-color="#010104"/><stop offset="1"/></radialGradient></defs><title>telemedicine</title><g class="cls-1"><g id="_1" data-name=" 1"><g class="cls-2"><path class="cls-3" d="M141.4326,307.7032a35.7091,35.7091,0,0,0,17.82-4.2949l248.28-142.91c6.4966-3.7509,10.2251-9.6884,10.2217-16.2871,0-7.2324-4.4858-13.9726-12.3105-18.4883l-107.0918-61.83a43.8939,43.8939,0,0,0-21.6407-5.5,35.6988,35.6988,0,0,0-17.82,4.2949L10.6114,205.5968C4.1128,209.3487.3882,215.2843.3882,221.8849c0,7.23,4.4849,13.9677,12.312,18.4882l107.0943,61.83A43.8487,43.8487,0,0,0,141.4326,307.7032Z"/><path class="cls-4" d="M259.0909,63.1153,10.8106,206.0245c-6.2427,3.6045-9.7774,9.2656-9.7471,15.5391.0308,6.8515,4.3247,13.2636,11.8355,17.6015L115.1739,298.213c.1645.0947,5.1655,2.9541,5.3569,3.0137a42.6731,42.6731,0,0,0,21.7768,4.8779,38.2385,38.2385,0,0,0,17.5694-4.6924L406.7881,159.29c6.2407-3.6035,9.7793-9.2656,9.7461-15.5371-.0312-6.8545-4.3262-13.2685-11.8349-17.6025L298.2476,64.6895a44.5821,44.5821,0,0,0-7.8882-3.5078A46.06,46.06,0,0,0,276.82,58.9688,34.9371,34.9371,0,0,0,259.0909,63.1153Z"/><path class="cls-5" d="M259.29,63.5431,11.01,206.4522c-5.9873,3.4571-9.3315,8.8428-9.2715,14.79.0615,6.4736,4.1655,12.56,11.36,16.7148L115.855,297.2833c.3286.19,5.03,2.8486,5.4121,2.9658a41.4507,41.4507,0,0,0,21.9151,4.2578c5.5561,0,13.3344-2.791,17.3188-5.09l245.5415-141.334c5.9859-3.4561,9.3335-8.8437,9.27-14.7891-.0615-6.4746-4.166-12.5644-11.3584-16.7158L298.1421,65.4874a50.895,50.895,0,0,0-7.8032-3.5635,45.7836,45.7836,0,0,0-13.4106-2.3779C270.2476,59.4151,264.0664,60.7852,259.29,63.5431Z"/><path class="cls-6" d="M259.4888,63.9708,11.209,206.88c-5.7314,3.3086-8.8862,8.4209-8.7954,14.04.0923,6.0957,4.0054,11.8574,10.8833,15.8291l103.2388,59.6055c.4927.2842,4.894,2.7412,5.4677,2.918a40.1931,40.1931,0,0,0,22.0538,3.6357c4.9384,0,13.5258-3.4434,17.0673-5.4873L405.2974,156.8751c5.73-3.3086,8.8877-8.4209,8.7949-14.0391-.0928-6.0966-4.0068-11.86-10.8828-15.8291L298.0371,66.2843a59.3177,59.3177,0,0,0-7.7182-3.6192,45.5834,45.5834,0,0,0-13.2822-2.5429C270.4117,59.9259,264.22,61.2394,259.4888,63.9708Z"/><path class="cls-7" d="M259.688,64.3985,11.4082,207.3077c-5.4756,3.1611-8.44,7.999-8.32,13.291.1235,5.7168,3.8457,11.1533,10.4077,14.9424l103.7207,59.8838c.6568.3789,4.7578,2.6348,5.523,2.8711a38.9416,38.9416,0,0,0,22.1924,3.0146c4.3212,0,13.7177-4.0966,16.8164-5.8857L404.5518,155.6671c5.4751-3.16,8.4419-7.9981,8.3193-13.2891-.123-5.7187-3.8467-11.1572-10.4067-14.9433L297.9322,67.0821a70.4682,70.4682,0,0,0-7.6338-3.6758,45.3576,45.3576,0,0,0-13.1533-2.708C270.5757,60.4366,264.3731,61.6935,259.688,64.3985Z"/><path class="cls-8" d="M259.8872,64.8263,11.6075,207.7354c-5.22,3.0137-7.9947,7.5762-7.8438,12.542.1538,5.3379,3.686,10.4493,9.9312,14.0557l104.2026,60.1621a59.2217,59.2217,0,0,0,5.5786,2.8233,37.6815,37.6815,0,0,0,22.3311,2.3935c3.7036,0,13.9091-4.749,16.5654-6.2822L403.8067,154.46c5.2192-3.0137,7.9961-7.5762,7.8437-12.5411-.1543-5.3388-3.687-10.4521-9.9311-14.0566L297.8272,67.879c-1.3335-.7686-6.0244-3.1748-7.5493-3.7305a45.11,45.11,0,0,0-13.0245-2.873C270.74,60.9483,264.5269,62.1476,259.8872,64.8263Z"/><path class="cls-9" d="M260.086,65.254,11.8062,208.1632c-4.9639,2.8662-7.5484,7.1543-7.3677,11.7929.1851,4.96,3.5264,9.7461,9.4556,13.17l104.6845,60.4394a49.6512,49.6512,0,0,0,5.6333,2.7764c7.1089,2.9443,15.7076,3.626,22.47,1.7725,3.0869,0,14.1015-5.4034,16.3149-6.6807L403.0611,153.252c4.9643-2.8652,7.55-7.1543,7.3681-11.791-.1845-4.9609-3.5268-9.749-9.4546-13.1709L297.7217,68.6769c-1.1108-.6417-6.1982-3.3106-7.4643-3.7872a44.8031,44.8031,0,0,0-12.896-3.038C270.9034,61.4591,264.68,62.6017,260.086,65.254Z"/><path class="cls-10" d="M260.2852,65.6817,12.0054,208.5909c-4.7085,2.7188-7.1025,6.7315-6.8916,11.044.2153,4.581,3.3667,9.042,8.979,12.2832l105.1665,60.7177a43.08,43.08,0,0,0,5.689,2.7286c7.27,2.8447,16.021,3.3144,22.6084,1.1513,2.4692,0,14.2929-6.0556,16.0639-7.0771L402.3159,152.045c4.7085-2.7187,7.1045-6.7324,6.8926-11.043-.2158-4.581-3.3672-9.0439-8.979-12.2841L297.6167,69.4737c-.8886-.5127-6.3711-3.4511-7.38-3.8418a44.5556,44.5556,0,0,0-12.767-3.2031C271.0674,61.9708,264.834,63.0558,260.2852,65.6817Z"/><path class="cls-11" d="M260.4844,66.11,12.2046,209.0186c-4.4526,2.5713-6.6567,6.31-6.416,10.295.2466,4.2021,3.207,8.3379,8.5034,11.3965l105.6485,60.996a38.1975,38.1975,0,0,0,5.7441,2.6817c7.4312,2.7432,16.334,3.0019,22.7471.53,1.852,0,14.4848-6.709,15.813-7.4756L401.57,150.837c4.4537-2.57,6.6587-6.31,6.417-10.293-.2461-4.2031-3.207-8.3408-8.5029-11.3984L297.5118,70.2716c-.6666-.3848-6.542-3.5967-7.2955-3.8985a44.3226,44.3226,0,0,0-12.6381-3.3681C271.2315,62.4815,264.9873,63.51,260.4844,66.11Z"/><path class="cls-12" d="M260.6836,66.5372,12.4038,209.4464c-4.1967,2.4228-6.2114,5.8877-5.94,9.5449.2773,3.8242,3.0469,7.6348,8.0269,10.5107l106.13,61.2754a34.4888,34.4888,0,0,0,5.8,2.6338c7.5923,2.6426,16.6475,2.69,22.8858-.0918,1.2343,0,14.6762-7.3613,15.5615-7.873L400.8252,149.629c4.1978-2.4229,6.2129-5.8867,5.9414-9.543-.2773-3.8252-3.0478-7.6367-8.0273-10.5117L297.4068,71.0685c-.4449-.2559-6.71-3.7481-7.21-3.9541a44.0725,44.0725,0,0,0-12.51-3.5333C271.3955,62.9923,265.1407,63.964,260.6836,66.5372Z"/><path class="cls-13" d="M260.8824,66.9649,12.6031,209.8741C8.6617,212.15,6.8374,215.339,7.1387,218.67c.3081,3.4463,2.8877,6.9317,7.5513,9.624l106.6123,61.5537a31.2785,31.2785,0,0,0,5.855,2.586c7.7529,2.542,16.96,2.3779,23.0239-.7119.6177,0,14.8686-8.0157,15.311-8.27L400.08,148.422c3.9429-2.2754,5.7671-5.4649,5.4658-8.795-.3076-3.4453-2.8877-6.9326-7.5507-9.625L297.3013,71.8663c-.2222-.1289-6.8765-3.9043-7.1255-4.01a43.8994,43.8994,0,0,0-12.3813-3.6982C271.5591,63.504,265.2945,64.4181,260.8824,66.9649Z"/><path d="M151.0562,290.1231,399.3345,147.214c7.4531-4.3018,6.5171-11.8164-2.085-16.7842L290.1553,68.5977c-8.606-4.9667-21.6216-5.5078-29.0737-1.205L12.8023,210.3019c-7.45,4.3017-6.5176,11.8173,2.0864,16.7841l107.0942,61.8321C130.5884,293.8849,143.6026,294.4259,151.0562,290.1231Z"/></g><path class="cls-14" d="M115.88,291.93,15.7569,234.1241c-11.293-6.5224-9.8775-17.9111,3.1635-25.44L254.356,72.755c13.0391-7.5283,32.7681-8.3467,44.062-1.8272l100.123,57.8086c11.294,6.52,9.876,17.91-3.163,25.44L159.9429,290.1036C146.9038,297.6319,127.1753,298.4493,115.88,291.93Z"/><path class="cls-15" d="M115.88,290.2149,15.7569,232.4073c-5.0454-2.9121-7.5537-6.7988-7.6221-10.876-.0064-.36.0054-8.2109.04-8.5742.4126-4.7217,4.0464-2.1211,10.7456-5.9892L254.356,71.0411c13.0391-7.5312,32.7681-8.3476,44.062-1.8262l100.123,57.8067c5.0435,2.9082,7.5518-2.2139,7.6255,1.8613.0039.3555-.0078,9.7168-.04,10.0732-.4023,4.7334-4.0366,9.629-10.7485,13.503L159.9429,288.3878C146.9038,295.9161,127.1753,296.7354,115.88,290.2149Z"/><path class="cls-16" d="M115.88,281.6349,15.7569,223.8282c-11.293-6.52-9.8775-17.91,3.1635-25.4394L254.356,62.461c13.0391-7.53,32.7681-8.3476,44.062-1.8261l100.123,57.8066c11.294,6.5195,9.876,17.91-3.163,25.4395L159.9429,279.8087C146.9038,287.339,127.1753,288.1544,115.88,281.6349Z"/><path class="cls-17" d="M406.1665,141.9786a3.45,3.45,0,0,0-.1855-1.2148c1.0088,5.5117-2.5967,11.5888-10.603,16.2129L159.9429,292.9034c-13.0391,7.53-32.7676,8.3477-44.0625,1.8272L15.7569,236.9239c-4.87-2.8125-7.3667-6.5322-7.5933-10.457-.0254,1.68-.0352,7.8418-.0288,8.1592.0684,4.0791,2.5767,7.9638,7.6221,10.8789L115.88,303.31c11.2949,6.52,31.0234,5.7021,44.0625-1.8272L395.378,165.5538c6.71-3.874,10.3462-8.7725,10.7485-13.5C406.1587,151.6954,406.17,142.3331,406.1665,141.9786Z"/><path class="cls-18" d="M15.7569,222.7013,115.88,280.5089c11.2949,6.5205,31.0234,5.7041,44.0625-1.8252L395.378,142.755c6.8628-3.9639,10.5019-8.9971,10.7685-13.8252.2827,5.1621-3.3677,10.6777-10.7685,14.9512L159.9429,279.8087c-13.0391,7.53-32.7676,8.3457-44.0625,1.8262L15.7569,223.8282c-5.35-3.0859-7.8413-7.2685-7.604-11.6133C8.3692,216.1485,10.87,219.8819,15.7569,222.7013Z"/><path class="cls-19" d="M21.5669,200.0811,257.2847,63.9894c11.4336-6.6006,28.7275-7.3184,38.6279-1.6006l99.5928,57.5c9.9019,5.7148,8.6582,15.7-2.7744,22.3007L157.0147,278.2813c-11.4356,6.6-28.7276,7.3174-38.63,1.5987l-99.59-57.4981C8.8921,216.6661,10.1338,206.6817,21.5669,200.0811Z"/><path class="cls-20" d="M26.1368,202.0431,260.6841,66.6261c9.5684-5.5235,24.044-6.1241,32.3316-1.34l97.4692,56.2744c8.2847,4.7852,7.2471,13.1407-2.3223,18.6661L153.6138,275.6427c-9.5679,5.5254-24.0454,6.125-32.33,1.34L23.814,220.711C15.5279,215.9259,16.5659,207.5665,26.1368,202.0431Z"/><path class="cls-21" d="M375.8023,115.3712c-4.8086,2.7764-12.6319,2.7637-17.4717-.0322L303.79,83.85c-4.84-2.793-4.8628-7.3105-.0552-10.0879l-11.57-6.68c-7.81-4.51-20.4356-4.5332-28.1968-.0517L26.8355,203.94c-7.7632,4.4815-7.7227,11.77.0884,16.2774l95.2094,54.9707c7.8111,4.51,20.4356,4.5332,28.1953.0508L387.4654,138.33c7.7612-4.4815,7.7192-11.77-.0884-16.2783Z"/><path class="cls-22" d="M136.312,276.6563a26.5754,26.5754,0,0,0,13.0533-3.0878l237.1328-136.91c3.1147-1.7969,4.83-4.08,4.83-6.4209,0-2.37-1.7451-4.6826-4.9175-6.5147l-10.6519-6.15a20.3482,20.3482,0,0,1-8.64,1.8017,19.8166,19.8166,0,0,1-9.7525-2.3633L302.8257,85.5216c-2.9736-1.7158-4.61-4.1123-4.61-6.7442a6.8213,6.8213,0,0,1,2.0683-4.78L291.2,68.752a26.8965,26.8965,0,0,0-13.2133-3.1367,26.5869,26.5869,0,0,0-13.0538,3.086L27.8008,205.6114c-3.1147,1.8-4.8306,4.0781-4.8306,6.4219,0,2.3691,1.7481,4.6816,4.9166,6.5137l95.2133,54.97A26.8563,26.8563,0,0,0,136.312,276.6563Z"/><path class="cls-23" d="M350.9107,177.0685l10.9165-6.2989a5.9179,5.9179,0,0,0,2.4663-4.7138h0c0-1.8174-1.1055-2.6514-2.4663-1.8663l-10.9165,6.3018a5.91,5.91,0,0,0-2.4658,4.7139h0C348.4449,177.02,349.55,177.8556,350.9107,177.0685Z"/><path class="cls-24" d="M350.9107,177.0685l10.9165-6.2989a5.9179,5.9179,0,0,0,2.4663-4.7138h0c0-1.8174-1.1055-2.6514-2.4663-1.8663l-10.9165,6.3018a5.91,5.91,0,0,0-2.4658,4.7139h0C348.4449,177.02,349.55,177.8556,350.9107,177.0685Z"/><path class="cls-25" d="M349.9331,176.7208a1.3647,1.3647,0,0,0,.6558-.209l10.9145-6.3008a5.2894,5.2894,0,0,0,2.1446-4.1552c0-.7-.2217-1.5176-.8443-1.5176a1.3619,1.3619,0,0,0-.6547.209l-10.9141,6.3017a5.2846,5.2846,0,0,0-2.1455,4.1563C349.0894,175.9034,349.3081,176.7208,349.9331,176.7208Z"/><path class="cls-26" d="M331.4287,188.3185l10.9122-6.3018a5.9042,5.9042,0,0,0,2.4687-4.7119h0c0-1.8184-1.104-2.6514-2.4687-1.8653l-10.9122,6.3018a5.9029,5.9029,0,0,0-2.4663,4.7119h0C328.9624,188.27,330.0659,189.1046,331.4287,188.3185Z"/><path class="cls-27" d="M331.4287,188.3185l10.9122-6.3018a5.9042,5.9042,0,0,0,2.4687-4.7119h0c0-1.8184-1.104-2.6514-2.4687-1.8653l-10.9122,6.3018a5.9029,5.9029,0,0,0-2.4663,4.7119h0C328.9624,188.27,330.0659,189.1046,331.4287,188.3185Z"/><path class="cls-28" d="M330.4478,187.9688a1.3727,1.3727,0,0,0,.6577-.2089l10.9165-6.3a5.2952,5.2952,0,0,0,2.1445-4.1553c0-.7-.2216-1.52-.8427-1.52a1.3769,1.3769,0,0,0-.6587.211l-10.9165,6.3008a5.29,5.29,0,0,0-2.1431,4.1562C329.6055,187.1534,329.8277,187.9688,330.4478,187.9688Z"/><path class="cls-29" d="M236.3189,235.9073l159.0591-92.24c6.71-3.876,10.3462-8.7725,10.7485-13.5029.0151-.1563.0244-2.0635.0322-4.1768,0,.0381,0,9.8242-.0322,10.1807-.4023,4.73-4.0381,9.6279-10.7485,13.5039Z"/><path d="M56.6641,255.3282,74.585,265.6749h0c0-3.2744-1.9907-7.0772-4.4458-8.4951l-9.0283-5.211c-2.4546-1.4179-4.4468.086-4.4468,3.3594Z"/><path class="cls-30" d="M375.1953,195.3751c-.01,0-.02,0-.0312-.001a.4993.4993,0,0,1-.4668-.459l-9.04-113.6963-6.1622,61.7432a.5.5,0,0,1-.4765.45.5143.5143,0,0,1-.5127-.41l-2.8984-15.8105-1.6963,3.24a.5009.5009,0,0,1-.6934.2012L316.083,109.1935l.5-.8653,36.6836,21.1778,2.128-4.0625a.5007.5007,0,0,1,.9355.1425l2.5215,13.7559L365.2168,75.57a.4995.4995,0,0,1,.9951.01l9.2041,115.7617,10.3516-50.02a.4667.4667,0,0,1,.5117-.3975.4993.4993,0,0,1,.4746.4414l2.169,18.68,2.8086-5.8965a.4988.4988,0,0,1,.7011-.2178l26.0723,15.0537-.5.8653-25.6035-14.7822-3.3232,6.9775a.5.5,0,0,1-.9483-.1572l-2.0117-17.3262-10.4336,50.4141A.4993.4993,0,0,1,375.1953,195.3751Z"/><path class="cls-31" d="M202.5479,150.4571c-.01,0-.02,0-.0313-.001a.4994.4994,0,0,1-.4668-.4589l-6.8623-86.3116-4.62,46.2911a.498.498,0,0,1-.4765.4492.5072.5072,0,0,1-.5127-.41l-2.1729-11.8515-1.1523,2.2011a.51.51,0,0,1-.3037.2481.4963.4963,0,0,1-.39-.0489L156.9522,84.0489l.5-.8652L185.6084,99.44l1.584-3.0253a.5008.5008,0,0,1,.9356.1425l1.7959,9.7989,4.8232-48.32a.4984.4984,0,0,1,.4971-.4492h.0049a.4992.4992,0,0,1,.4931.46l7.0264,88.3779,7.8115-37.7461a.5267.5267,0,0,1,.5117-.3984.5019.5019,0,0,1,.4746.4433l1.625,13.9942,1.9912-4.1817a.4972.4972,0,0,1,.3028-.2636.5071.5071,0,0,1,.3984.0449l20.0869,11.5977-.5.8652-19.6181-11.3262-2.5059,5.2637a.5.5,0,0,1-.9482-.1582l-1.4678-12.6406-7.8936,38.1406A.4993.4993,0,0,1,202.5479,150.4571Z"/><polygon class="cls-32" points="262.347 174.628 199.411 138.333 180.764 149.831 180.764 175.276 243.64 211.46 243.64 211.473 243.651 211.467 243.663 211.473 243.663 211.46 262.347 200.073 262.347 174.628"/><g class="cls-33"><polygon class="cls-34" points="243.64 186.181 243.64 211.473 251.605 206.876 251.605 181.431 243.64 186.181"/><polygon class="cls-35" points="243.663 186.181 243.663 211.473 180.764 175.276 180.764 149.831 243.663 186.181"/><polygon class="cls-36" points="180.764 149.831 243.663 186.181 251.605 181.431 188.669 145.136 180.764 149.831"/></g><polygon class="cls-37" points="202.949 169.034 202.949 171.315 238.208 191.674 238.208 189.392 202.949 169.034"/><polygon class="cls-37" points="227.056 192.448 202.949 178.517 202.949 180.799 227.056 194.731 227.056 192.448"/><polygon class="cls-37" points="202.949 176.058 238.208 196.415 238.208 194.133 202.949 173.775 202.949 176.058"/><path class="cls-37" d="M195.9253,173.1407a9.75,9.75,0,0,1-2.0058-2.4023c-.3321-.5557-.32-1.1582.0029-1.3457a2.5664,2.5664,0,0,0,1.0234-1.1426c.3516.0967.7881-.0322.7881-.5147a1.9107,1.9107,0,0,0-.5078-1.2988A6.3848,6.3848,0,0,0,192,160.77c-2.4218-1.3984-3.1416-.0654-3.2275,1.9414-.29-.0654-.5078.22-.5078.7119a2.3265,2.3265,0,0,0,.7881,1.4239,11.3622,11.3622,0,0,0,1.0244,2.3252c.3223.5615.334,1.1767.0019,1.35a2.6424,2.6424,0,0,1-2.0058.0849c-1.0166-.3066-1.7725.3067-1.7725,1.5586v2.1709a1.4624,1.4624,0,0,0,.6641,1.1455l10.0693,5.8145c.3672.2109.6641.041.6641-.3789v-2.1719A5.1715,5.1715,0,0,0,195.9253,173.1407Z"/><polygon class="cls-38" points="148.092 210.214 74.249 167.518 44.751 185.036 44.751 220.882 118.533 263.467 118.533 263.48 118.544 263.473 118.555 263.48 118.555 263.467 148.092 246.06 148.092 210.214"/><g class="cls-33"><polygon class="cls-39" points="118.533 227.786 118.533 263.48 126.498 258.882 126.498 223.036 118.533 227.786"/><polygon class="cls-40" points="118.555 227.786 118.555 263.48 44.751 220.882 44.751 185.036 118.555 227.786"/><polygon class="cls-41" points="44.751 185.036 118.555 227.786 126.498 223.036 52.655 180.34 44.751 185.036"/></g><polygon class="cls-37" points="71.34 216.289 71.34 218.57 113.1 242.677 113.1 240.395 71.34 216.289"/><polygon class="cls-37" points="101.949 243.451 71.34 225.772 71.34 228.053 101.949 245.733 101.949 243.451"/><polygon class="cls-37" points="71.34 223.312 113.1 247.418 113.1 245.136 71.34 221.03 71.34 223.312"/><polygon class="cls-37" points="71.34 206.801 71.34 209.083 113.1 233.189 113.1 230.906 71.34 206.801"/><polygon class="cls-37" points="71.34 213.824 113.1 237.93 113.1 235.648 71.34 211.542 71.34 213.824"/><path class="cls-37" d="M63.5606,218.5528a14.0616,14.0616,0,0,1-2.1475-2.31l-3.4219,1.9512L54.5684,212.29a4.5058,4.5058,0,0,1-2.1475-.1689c-1.3623-.4121-2.3134.4248-2.3134,2.0342v1.7275a1.4353,1.4353,0,0,0,.6513,1.1221l14.4639,8.3515c.3594.2071.65.04.65-.3711v-1.7275A6.7142,6.7142,0,0,0,63.5606,218.5528Z"/><path class="cls-37" d="M62.6592,209.0626l-9.3369-5.3906c-.2285.0459-.3936.3486-.3936.7988a2.7247,2.7247,0,0,0,.9063,1.5791l.1435.127.0586.19a15.6875,15.6875,0,0,0,1.4073,3.1953,3.0914,3.0914,0,0,1,.4424,1.5088.9794.9794,0,0,1-.4444.9209,2.8176,2.8176,0,0,1-.3808.165l2.93,5.0528,2.9288-1.6709c-.1319-.1993-.26-.4014-.3809-.6045a2.95,2.95,0,0,1-.4443-1.4346,1.0815,1.0815,0,0,1,.4423-.9971,3.5056,3.5056,0,0,0,1.4073-1.57l.0576-.124.1445.04c.38.1045.9063-.0215.9063-.5332A2.2581,2.2581,0,0,0,62.6592,209.0626Z"/><path class="cls-37" d="M62.0508,201.8292a1.6963,1.6963,0,0,0-.7607-1.2363l-6.5987-3.8106c-.3955-.2275-.7255-.0722-.7607.3594l-.4941,6.0166,9.1074,5.2588Zm-1.914,2.4873-1.4024-.81v1.61l-1.4873-.8594v-1.6093l-1.4033-.8106V200.13l1.4033.81v-1.61l1.4873.8593v1.6094l1.4024.81Z"/><path class="cls-42" d="M184.0757,186.6427c0,6.4843-12.6328,11.74-28.2158,11.74s-28.2168-5.2559-28.2168-11.74,12.6328-11.7393,28.2168-11.7393S184.0757,180.1593,184.0757,186.6427Z"/><path class="cls-43" d="M171.0884,136.839H130.7642v47.455h.0068c-.0009.0537-.0068.1075-.0068.1621,0,6.4844,9.0264,11.74,20.1621,11.74s20.1621-5.2559,20.1621-11.74c0-.0546-.0058-.1084-.0078-.1621h.0078Z"/><path class="cls-44" d="M150.9263,197.6456c-11.1357,0-20.1621-5.2568-20.1621-11.7412V188.73c0,6.4844,9.0264,11.7412,20.1621,11.7412s20.1621-5.2568,20.1621-11.7412v-2.8252C171.0884,192.3888,162.0611,197.6456,150.9263,197.6456Z"/><path class="cls-45" d="M150.9263,158.6114c-11.1357,0-20.1621-5.2568-20.1621-11.7412v34.083h.0068c-.0009.0537-.0068.1074-.0068.1612,0,6.4843,9.0264,11.7412,20.1621,11.7412s20.1621-5.2569,20.1621-11.7412c0-.0538-.0058-.1075-.0078-.1612h.0078V146.87C171.0884,153.3546,162.0611,158.6114,150.9263,158.6114Z"/><path class="cls-46" d="M130.7642,143.3673v.1621c0-.0547.0059-.1084.0068-.1621Z"/><path class="cls-47" d="M171.0884,143.5294v-.1621h-.0078C171.0826,143.421,171.0884,143.4747,171.0884,143.5294Z"/><path class="cls-48" d="M150.9263,191.11c-11.1357,0-20.1621-5.2558-20.1621-11.74v1.8242c0,6.4844,9.0264,11.7412,20.1621,11.7412s20.1621-5.2568,20.1621-11.7412V179.37C171.0884,185.8546,162.0611,191.11,150.9263,191.11Z"/><g class="cls-49"><path class="cls-50" d="M130,134.6085v.168c0-.0557.0059-.1114.0079-.168Z"/><path class="cls-51" d="M150.9263,147.6661c-9.6377,0-17.7324-3.7988-20.1621-8.9619v1.3027c2.43,5.1641,10.5244,8.9629,20.1621,8.9629s17.7314-3.7988,20.1621-8.9629v-1.3027C168.6577,143.8673,160.564,147.6661,150.9263,147.6661Z"/><path class="cls-52" d="M171.8521,134.7765v-.168h-.0069C171.8462,134.6651,171.8521,134.7208,171.8521,134.7765Z"/></g><path class="cls-53" d="M171.8521,128.8185H130v6.5722h.0079c-.002.0567-.0079.1123-.0079.168,0,6.7305,9.3692,12.1865,20.9268,12.1865s20.9258-5.456,20.9258-12.1865c0-.0557-.0059-.1113-.0069-.168h.0069Z"/><g class="cls-54"><path class="cls-55" d="M157.3355,147.1573c.1992-.0371.3906-.0849.5869-.125V131.5587h-.5869Z"/><path class="cls-55" d="M159.9654,146.5372c.1953-.0557.3935-.1064.5859-.165V131.5587h-.5859Z"/><path class="cls-55" d="M162.5933,145.6749c.2021-.0791.39-.1689.5869-.2529V131.5587h-.5869Z"/><path class="cls-55" d="M154.7076,147.5362c.1953-.02.3925-.0371.5859-.0615v-15.916h-.5859Z"/><path class="cls-55" d="M167.8521,142.7052c.1992-.1612.3994-.32.5859-.4864V130.8907h-.5859Z"/><path class="cls-55" d="M170.48,139.8683a9.0768,9.0768,0,0,0,.5869-1.0381V128.2179H170.48Z"/><path class="cls-55" d="M165.2222,144.4405c.1963-.1064.3984-.209.5869-.32V131.5587h-.5869Z"/><path class="cls-55" d="M152.0786,147.711c.1954-.0058.3926-.0078.586-.0175V131.5587h-.586Z"/><path class="cls-55" d="M149.4488,147.7013c.1953.0078.3906.0127.5869.0175v-16.16h-.5869Z"/><path class="cls-55" d="M144.1919,147.089c.1963.038.3867.0839.586.1191V131.5587h-.586Z"/><path class="cls-55" d="M146.8208,147.5069c.1924.0225.3916.0332.586.0528v-16.001h-.586Z"/><path class="cls-55" d="M141.562,146.4454q.2916.0849.587.165V131.5587h-.587Z"/><path class="cls-55" d="M131.0474,139.3517a9.5738,9.5738,0,0,0,.5859.9335V128.2179h-.5859Z"/><path class="cls-55" d="M133.6753,142.4522c.1856.1563.39.3047.5869.4561V130.8907h-.5869Z"/><path class="cls-55" d="M138.9341,145.5362c.1934.0791.3877.1563.586.2315v-14.209h-.586Z"/><path class="cls-55" d="M136.3052,144.2686c.1885.1075.3906.2071.5859.3106v-13.02h-.5859Z"/></g><path class="cls-56" d="M171.8521,128.2345c0,6.73-9.3692,12.1865-20.9258,12.1865S130,134.964,130,128.2345s9.3692-12.1866,20.9268-12.1866S171.8521,121.505,171.8521,128.2345Z"/><path class="cls-57" d="M150.9263,140.0938c-11.3125,0-20.5029-5.2294-20.89-11.7617-.0088.1416-.0372.28-.0372.4239,0,6.7294,9.3692,12.1855,20.9268,12.1855s20.9258-5.4561,20.9258-12.1855c0-.1436-.0283-.2823-.0362-.4239C171.4292,134.8644,162.2378,140.0938,150.9263,140.0938Z"/><path class="cls-58" d="M140.8687,135.2618c4.7021,1.6006,7.8711,4.7861,7.0781,7.1143s-5.2471,2.92-9.9492,1.3183-7.8711-4.7861-7.0781-7.1142S136.1665,133.6612,140.8687,135.2618Z"/><path class="cls-59" d="M158.4058,160.2667a33.0532,33.0532,0,0,1-7.48.8437c-11.1357,0-20.1621-5.2558-20.1621-11.74v7.3555h.0068c-.0009.0537-.0068.1074-.0068.1611,0,6.4844,9.0264,11.7412,20.1621,11.7412a33.0589,33.0589,0,0,0,7.48-.8437Z"/><ellipse class="cls-60" cx="140.0806" cy="157.5528" rx="4.75" ry="23.75"/><path class="cls-61" d="M136.481,199.6632c0,2.5576-4.9834,4.6308-11.1309,4.6308s-11.13-2.0732-11.13-4.6308,4.9834-4.6309,11.13-4.6309S136.481,197.1056,136.481,199.6632Z"/><g class="cls-49"><path class="cls-62" d="M114.8052,197.6075v.6006c0-.0225.0029-.5781.0029-.6006Z"/><path class="cls-63" d="M131.5122,198.2081v-.6006h-.0029C131.51,197.63,131.5122,198.1856,131.5122,198.2081Z"/></g><path class="cls-64" d="M131.5122,195.296h-16.707v3.1572h.0029c0,.0225-.0029.0449-.0029.0674,0,2.6865,3.74,4.8643,8.3535,4.8643s8.3535-2.1778,8.3535-4.8643c0-.0225-.0019-.0449-.0029-.0674h.0029Z"/><path class="cls-65" d="M123.1587,199.797c-4.5156,0-8.1845-2.0869-8.3388-4.6953-.003.0566-.0147.1123-.0147.17,0,2.6865,3.74,4.8642,8.3535,4.8642s8.3535-2.1777,8.3535-4.8642c0-.0576-.0107-.1133-.0146-.17C131.3433,197.71,127.6743,199.797,123.1587,199.797Z"/><path class="cls-66" d="M119.1441,197.8683c1.8769.64,3.1416,1.9111,2.8252,2.84s-2.0938,1.165-3.9707.5264-3.1426-1.91-2.8262-2.84S117.2671,197.23,119.1441,197.8683Z"/><path class="cls-67" d="M123.1587,190.1983a11.823,11.823,0,0,0-6.0185,1.4971.6113.6113,0,0,1-.166.3525,1.4091,1.4091,0,0,1-.6495.2256,3.68,3.68,0,0,0-1.52,2.7891c0,2.6875,3.74,4.8652,8.3535,4.8652s8.3535-2.1777,8.3535-4.8652S127.772,190.1983,123.1587,190.1983Z"/><path class="cls-68" d="M117.1538,191.5519l12.1026,6.8037a.3058.3058,0,0,1,.1347.38h0a.6825.6825,0,0,1-.8359.3975l-.2207-.09L116.32,192.2745a1.4274,1.4274,0,0,0,.6543-.2266A.7306.7306,0,0,0,117.1538,191.5519Z"/><path class="cls-69" d="M197.7681,214.3565c0,2.5577-4.9834,4.6309-11.1309,4.6309s-11.13-2.0732-11.13-4.6309,4.9834-4.6308,11.13-4.6308S197.7681,211.7989,197.7681,214.3565Z"/><g class="cls-49"><path class="cls-70" d="M176.0923,212.3009v.6006c0-.0215.0029-.5782.0029-.6006Z"/><path class="cls-71" d="M192.7993,212.9015v-.6006h-.0029C192.7974,212.3233,192.7993,212.88,192.7993,212.9015Z"/></g><path class="cls-72" d="M192.7993,209.9894h-16.707v3.1572h.0029c0,.0224-.0029.0449-.0029.0674,0,2.6865,3.74,4.8642,8.3535,4.8642s8.3535-2.1777,8.3535-4.8642c0-.0225-.0019-.045-.0029-.0674h.0029Z"/><path class="cls-73" d="M184.4458,214.4913c-4.5156,0-8.1845-2.0879-8.3388-4.6953-.003.0566-.0147.1113-.0147.1689,0,2.6866,3.74,4.8643,8.3535,4.8643s8.3535-2.1777,8.3535-4.8643c0-.0576-.0107-.1123-.0146-.1689C192.63,212.4034,188.9615,214.4913,184.4458,214.4913Z"/><path class="cls-74" d="M180.4312,212.5626c1.8769.6387,3.1416,1.91,2.8252,2.84s-2.0938,1.1651-3.9707.5254-3.1426-1.91-2.8262-2.8388C176.7759,212.1583,178.5542,211.9229,180.4312,212.5626Z"/><path class="cls-75" d="M184.4458,204.8927a11.823,11.823,0,0,0-6.0185,1.4961.6079.6079,0,0,1-.166.3535,1.4138,1.4138,0,0,1-.65.2246,3.6807,3.6807,0,0,0-1.5195,2.79c0,2.6866,3.74,4.8643,8.3535,4.8643s8.3535-2.1777,8.3535-4.8643S189.0591,204.8927,184.4458,204.8927Z"/><path class="cls-76" d="M178.4409,206.2452l12.1026,6.8037a.3064.3064,0,0,1,.1348.38h0a.6828.6828,0,0,1-.836.3975l-.2207-.09-12.0146-6.7685a1.4108,1.4108,0,0,0,.6543-.2256A.7341.7341,0,0,0,178.4409,206.2452Z"/><path class="cls-77" d="M173.8286,202.1622c.84,2.3008-3.5781,6.0244-9.8662,8.3184s-12.0664,2.289-12.9062-.0118,3.5791-6.0244,9.8672-8.3183S172.99,199.8614,173.8286,202.1622Z"/><path class="cls-78" d="M172.0943,200.381a4.1407,4.1407,0,0,0-6.086-3.6543c-.0859.0283-6.86,3.96-6.875,3.9687-.5244.31.3321.3164.3321,1.2432a6.5161,6.5161,0,0,0,2.957,5.1006c.8115.4687.47,1.1464,1.0039.8476.0156-.0088,6.6641-3.9433,6.7266-3.999A4.1361,4.1361,0,0,0,172.0943,200.381Z"/><path class="cls-79" d="M161.0747,200.9767a2.1077,2.1077,0,0,0-2.0644-.2286c-.0147.0079-6.8115,4.0137-6.791,4.08a4.1389,4.1389,0,0,0,4.2841,7.0449c.045-.0078,6.6836-3.9091,6.6993-3.9189a2.0755,2.0755,0,0,0,.8291-1.877A6.5132,6.5132,0,0,0,161.0747,200.9767Z"/><path class="cls-80" d="M161.5747,199.9425c2.5176-1.4219,4.8946-1.9805,5.31-1.2461s-1.2891,2.4834-3.8066,3.9062-4.8946,1.98-5.31,1.2451S159.0572,201.3653,161.5747,199.9425Z"/><path class="cls-81" d="M155.732,207.6251a2.4312,2.4312,0,1,1-2.4317-2.4307A2.4319,2.4319,0,0,1,155.732,207.6251Z"/><path class="cls-82" d="M199.397,204.4776c-1.2988,2.2032-6.6445,1.4561-11.9385-1.6679s-8.5322-7.4414-7.2324-9.6446,6.6445-1.456,11.9385,1.668S200.6968,202.2755,199.397,204.4776Z"/><path class="cls-83" d="M175.9273,192.5294a4.1391,4.1391,0,0,1,6.0859-3.6533c.086.0273,6.8613,3.959,6.876,3.9677.5244.31-.332.3164-.332,1.2432a6.5181,6.5181,0,0,1-2.958,5.1016c-.8106.4677-.47,1.1465-1.004.8476-.0156-.0088-6.664-3.9443-6.7265-4A4.1348,4.1348,0,0,1,175.9273,192.5294Z"/><path class="cls-84" d="M186.9468,193.1251a2.11,2.11,0,0,1,2.0645-.2285c.0146.0078,6.8115,4.0136,6.791,4.08a4.14,4.14,0,0,1-4.2842,7.0459c-.0449-.0079-6.6836-3.91-6.6992-3.919a2.0782,2.0782,0,0,1-.8291-1.8779A6.5161,6.5161,0,0,1,186.9468,193.1251Z"/><path class="cls-85" d="M186.4468,192.0919c-2.5176-1.4229-4.8945-1.9805-5.31-1.2461s1.29,2.4824,3.8067,3.9053,4.8945,1.98,5.3095,1.2461S188.9644,193.5138,186.4468,192.0919Z"/><path class="cls-86" d="M192.29,199.7745a2.4312,2.4312,0,1,0,2.4316-2.4316A2.431,2.431,0,0,0,192.29,199.7745Z"/><path class="cls-87" d="M252.0606,71.9552c-9.1094-5.2871-18.9824-4.9024-26.0772-.836s-7.9687,33.4473-4.6386,35.7364,29.9668,16.98,34.4775,19.6679c5.2187,3.1094,24.7764-.7939,24.7764-6.2226,0-3.2383.8242-28.8516-6.2227-34.7871C270.06,81.877,261.2325,77.28,252.0606,71.9552Z"/><polygon class="cls-88" points="245.035 80.242 240.889 85.584 242.294 91.347 239.059 117.209 243.781 119.906 245.106 92.611 249.954 87.341 248.268 80.664 245.035 80.242"/><path class="cls-89" d="M266.6026,85.9581c-1.5528,6.45-10.7442,9.77-20.53,7.415S229.6133,83.88,231.166,77.4278c1.5528-6.45,10.7442-9.77,20.5293-7.414S268.1543,79.5079,266.6026,85.9581Z"/><path class="cls-90" d="M236.8194,94.089c-1.0127-13.8418,3.5127-22.2012,4.999-25.8194a25.595,25.595,0,0,0-7.7051-.2988,48.4416,48.4416,0,0,0-3.0557,24.6328,128.9182,128.9182,0,0,0,5.8106,23.3145c.8389.4785,1.6914.9677,2.5693,1.4785C238.03,111.7755,237.375,101.6808,236.8194,94.089Z"/><path class="cls-91" d="M236.0987,93.7608c-1.0479-14.3173,3.3173-21.3877,4.6269-24.7929,2.3369.0713.0254-1.1993,2.4141-.6035-6.9658-1.7393-13.3408-.95-17.9414,2.3623-4.5957,3.3085-6.2032,11.0205-6.4717,19.3671-.23,7.1094.4414,15.1368,1.833,16.3692,2.1533,1.9062,9.208,5.3974,18.1582,10.6064C237.31,111.4483,236.6543,101.3536,236.0987,93.7608Z"/><path class="cls-92" d="M275.0342,85.5548c-3.3887-2.8535-10.2148-6.3418-17.1465-10.2676,2.1289,1.2061,2.2119,2.084,4.1387,3.1963-1.5215,4.7822-4.627,7.9443-8.4678,14.3174-4.5078,7.4785-8.47,21.5176-9.4883,27.3965,5.4834,3.1875,10.1456,5.8886,11.752,6.85,6.8154,4.0781,25.3-1.3174,25.3-6.7461C281.1221,117.0626,282.0811,91.49,275.0342,85.5548Z"/><path class="cls-51" d="M244.0078,120.1622c-1.34-.7793-2.7275-1.5859-4.1328-2.4043C241.2793,118.5753,242.668,119.3829,244.0078,120.1622Z"/><g class="cls-49"><path class="cls-93" d="M236.0987,93.7608c-1.0479-14.3173,3.3173-21.3877,4.6269-24.7929,2.3369.0713.0254-1.1993,2.4141-.6035-6.9658-1.7393-13.3408-.95-17.9414,2.3623-4.5957,3.3085-6.2032,11.0205-6.4717,19.3671-.23,7.1094.4414,15.1368,1.833,16.3692,2.1533,1.9062,9.208,5.3974,18.1582,10.6064C237.31,111.4483,236.6543,101.3536,236.0987,93.7608Z"/><path class="cls-94" d="M223.2227,87.8028c.4639-6.9267,1.667-13.4638,4.1631-18.207-3.3946,3.6894-4.9414,10.2686-5.5323,17.3691-.59,7.0879-.3281,15.14.9991,16.4414.1738.17.3945.3575.6347.5547A87.6148,87.6148,0,0,1,223.2227,87.8028Z"/><path class="cls-95" d="M275.0342,85.5548c-3.3887-2.8535-10.2148-6.3418-17.1465-10.2676,2.1289,1.2061,2.2119,2.084,4.1387,3.1963-1.5215,4.7822-4.627,7.9443-8.4678,14.3174-4.5078,7.4785-8.47,21.5176-9.4883,27.3965,5.4834,3.1875,10.1456,5.8886,11.752,6.85,6.8154,4.0781,25.3-1.3174,25.3-6.7461C281.1221,117.0626,282.0811,91.49,275.0342,85.5548Z"/><path class="cls-96" d="M244.0078,120.1622c-1.34-.7793-2.7275-1.5859-4.1328-2.4043C241.2793,118.5753,242.668,119.3829,244.0078,120.1622Z"/></g><path class="cls-97" d="M242.0352,70.3653c-2.6192.8731-4.7422,5.0606-4.4522,10.2129.3487,6.1992,2.27,8.294,2.27,8.294l5.6748-8.294L248.9,91.1358a21.79,21.79,0,0,0,8.499-4.708c3.3038-3.3027,6.2862-6.4609,4.5372-9.2422C259.8389,73.85,245.3907,69.2462,242.0352,70.3653Z"/><path class="cls-98" d="M262.4414,77.546c-1.6377,4.5517-4.8759,9.6084-8.5556,15.7129-4.5069,7.4775-8.47,21.5185-9.4883,27.3974.51.295,1.0088.586,1.5019.8721a94.6846,94.6846,0,0,1,7.7247-18.2305,153.5876,153.5876,0,0,1,15.3642-21.8252C267.1006,80.3731,264.625,78.755,262.4414,77.546Z"/><path class="cls-99" d="M262.1143,77.086c-1.6377,4.5537-4.876,9.6094-8.5557,15.7149-4.5078,7.4775-8.47,21.5176-9.4883,27.3965.51.2968,1.0079.5859,1.501.873a94.7353,94.7353,0,0,1,7.7256-18.2305,153.4936,153.4936,0,0,1,15.3643-21.8242C266.7735,79.9142,264.2969,78.296,262.1143,77.086Z"/><path class="cls-100" d="M257.4112,106.5069h-2.19c0-7.8017,2.4385-15.9033,7.2471-24.0791,2.22-3.7734,2.22-3.7734-8.7529-10.2509l-.4541-.2676c-11.7432-6.9326-18.8936-5.5059-21.4483-2.1748-2.4541,3.2011-2.4482,17.414-2.2383,22.6211l-2.1875.0879c-.08-1.9981-.6884-19.6368,2.6875-24.0411,3.2481-4.2343,11.3369-6.0312,24.3008,1.6211l.4522.2676c11.1445,6.5781,12.8574,7.5889,9.5283,13.2471C259.7471,91.3731,257.4112,99.1017,257.4112,106.5069Z"/><path class="cls-101" d="M255.6905,105.4972c.1328-7.4805,2.5371-15.2452,7.15-23.09,2.5537-4.3388,2.1191-4.5947-8.9854-11.1494l-.4541-.2676c-5.5762-3.2929-10.7256-5.0332-14.8936-5.0332-3.2832,0-5.914,1.0742-7.41,3.0244-2.7686,3.6123-2.49,19.0088-2.3945,22.39l-.878.0351c-.248-7.2724.03-19.6347,2.5782-22.957,1.6757-2.1865,4.5449-3.3906,8.0751-3.3906,4.379,0,9.55,1.7422,15.37,5.1767l.4511.2676c11.4268,6.7432,12.2237,7.374,9.2959,12.3487-4.5322,7.707-6.8955,15.32-7.0293,22.6455Z"/><path class="cls-102" d="M255.9356,105.0313c.1963-7.3183,2.583-14.9179,7.0976-22.5937,2.72-4.6231,2.0518-5.0166-9.1025-11.6006l-.4531-.2666c-5.627-3.3223-10.834-5.0781-15.0606-5.0781-3.3867,0-6.1113,1.1191-7.6709,3.1523-2.7129,3.5391-2.5947,17.5371-2.4707,22.2764l-.2236.0068c-.2168-6.9863.0762-19.2285,2.5215-22.416,1.6123-2.1035,4.3877-3.2617,7.8135-3.2617,4.3193,0,9.4355,1.7266,15.2041,5.1309l.45.2675c11.5625,6.8242,11.9063,7.2676,9.1807,11.8985-4.4932,7.6425-6.87,15.205-7.0674,22.4843Z"/><path class="cls-103" d="M236.0987,93.7608c-1.0127-13.84,3.5127-22.2,4.999-25.8183a25.6226,25.6226,0,0,0-7.7051-.3,48.47,48.47,0,0,0-3.0557,24.6338,128.9924,128.9924,0,0,0,5.8106,23.3144c.8389.4776,1.6924.9678,2.57,1.4785C237.31,111.4483,236.6543,101.3536,236.0987,93.7608Z"/><path class="cls-100" d="M225.5694,91.5763c0-1.8067,1.2754-2.5342,2.8506-1.625a6.28,6.28,0,0,1,2.85,4.916c0,1.8066-1.2764,2.5342-2.85,1.625A6.2762,6.2762,0,0,1,225.5694,91.5763Z"/><path class="cls-51" d="M272.8076,84.9005c-4.0595.916-9.122,5.1064-9.9521,12.876-.7686,7.2041-.3926,24.4873-.3926,24.4873s-2.7187-22.7315.1309-29.8555c3.0556-7.6387,8.5117-8.5117,8.5117-8.5117Z"/><path class="cls-104" d="M262.6192,131.6114h-1.6426V115.7286a11.5117,11.5117,0,0,0-5.2178-8.9971,3.22,3.22,0,0,0-3.1709-.3994,3.1572,3.1572,0,0,0-1.2256,2.8965v15.8848H249.72V109.2286a4.69,4.69,0,0,1,2.0468-4.3184c1.3282-.7675,3.0371-.6259,4.8135.4a13.1286,13.1286,0,0,1,6.0391,10.4189Z"/><path class="cls-104" d="M250.541,126.4806a1.3671,1.3671,0,0,1-1.3681-1.3672v-.9405a1.3687,1.3687,0,0,1,2.7373,0v.9405A1.3679,1.3679,0,0,1,250.541,126.4806Z"/><path class="cls-104" d="M261.7979,132.9806a1.3681,1.3681,0,0,1-1.3682-1.3692v-.9394a1.3682,1.3682,0,1,1,2.7363,0v.9394A1.3681,1.3681,0,0,1,261.7979,132.9806Z"/><path class="cls-100" d="M261.7979,116.8224a1.0934,1.0934,0,0,1-1.0947-1.0938,11.3809,11.3809,0,0,0-5.0811-8.76,3.0077,3.0077,0,0,0-2.8975-.3984,2.9411,2.9411,0,0,0-1.0888,2.6582,1.0948,1.0948,0,1,1-2.1895,0c0-2.124.7754-3.7422,2.1836-4.5547,1.418-.8174,3.2227-.6748,5.0869.3985a13.4293,13.4293,0,0,1,6.1758,10.6562A1.0934,1.0934,0,0,1,261.7979,116.8224Z"/><path class="cls-101" d="M261.5244,116.0753a.4378.4378,0,0,1-.4384-.4385,12.1172,12.1172,0,0,0-5.41-9.3281,4.7532,4.7532,0,0,0-2.3086-.711,2.4636,2.4636,0,0,0-1.2451.3125,3.5524,3.5524,0,0,0-1.416,3.2276.4385.4385,0,0,1-.877,0,4.3325,4.3325,0,0,1,1.8545-3.9873,3.3429,3.3429,0,0,1,1.6836-.4356,5.5572,5.5572,0,0,1,2.7471.835,12.7168,12.7168,0,0,1,5.8486,10.0869A.4384.4384,0,0,1,261.5244,116.0753Z"/><path class="cls-102" d="M261.5244,115.7472a.11.11,0,0,1-.11-.11,12.4827,12.4827,0,0,0-5.5732-9.6113,5.0792,5.0792,0,0,0-2.4737-.7559,2.781,2.781,0,0,0-1.4082.3565,3.8591,3.8591,0,0,0-1.581,3.5127.11.11,0,0,1-.2207,0,4.0194,4.0194,0,0,1,1.6914-3.7032,3.0078,3.0078,0,0,1,1.5185-.3925,5.2478,5.2478,0,0,1,2.584.791,12.3625,12.3625,0,0,1,5.6836,9.8027A.11.11,0,0,1,261.5244,115.7472Z"/><path class="cls-100" d="M250.541,126.4806a1.3671,1.3671,0,0,1-1.3681-1.3672v-.9405a1.3687,1.3687,0,0,1,2.7373,0v.9405A1.3679,1.3679,0,0,1,250.541,126.4806Z"/><path class="cls-101" d="M250.3135,125.4415a.6022.6022,0,0,1-.6025-.6025V123.9a.6021.6021,0,1,1,1.2041,0v.9395A.6021.6021,0,0,1,250.3135,125.4415Z"/><path class="cls-102" d="M250.086,124.8429a.163.163,0,0,1-.1641-.1631V123.74a.1636.1636,0,1,1,.3272,0v.9395A.1628.1628,0,0,1,250.086,124.8429Z"/><path class="cls-100" d="M261.7979,132.9806a1.3681,1.3681,0,0,1-1.3682-1.3692v-.9394a1.3682,1.3682,0,1,1,2.7363,0v.9394A1.3681,1.3681,0,0,1,261.7979,132.9806Z"/><path class="cls-101" d="M261.57,131.9405a.602.602,0,0,1-.6025-.6015v-.94a.6021.6021,0,0,1,1.2041,0v.94A.6018.6018,0,0,1,261.57,131.9405Z"/><path class="cls-102" d="M261.3418,131.3419a.1622.1622,0,0,1-.1631-.1631v-.94a.1636.1636,0,0,1,.3272,0v.94A.163.163,0,0,1,261.3418,131.3419Z"/><path class="cls-101" d="M229.82,93.1993c0,1.1016-.7783,1.5459-1.7382.9922a3.8292,3.8292,0,0,1-1.7383-2.998c0-1.1016.7783-1.545,1.7383-.9913A3.8277,3.8277,0,0,1,229.82,93.1993Z"/><path class="cls-102" d="M229.4825,92.3624c0,1.1016-.7784,1.5459-1.7383.9912a3.8307,3.8307,0,0,1-1.7383-2.998c0-1.1006.7783-1.545,1.7383-.9912A3.8293,3.8293,0,0,1,229.4825,92.3624Z"/><polygon class="cls-105" points="248.9 91.136 245.527 80.578 239.853 88.872 239.351 87.541 245.505 79.945 249.63 90.814 248.9 91.136"/><path class="cls-106" d="M231.1905,41.91c-1.3311,5.74-1.0713,22.9112,3.25,26.5782,3.42,2.9013,6.4863.9873,6.6972,5.2041s-1.5644,4.61,1.0186,6.4619c2.4736,1.7734,16.7226.49,16.3779-4.0274-.3232-4.2421-1.2705-5.7558.6973-9.69,1.9668-3.9365,7.66-10.2607,6.8164-15.8828S235.8994,21.6,231.1905,41.91Z"/><path class="cls-107" d="M228.9414,41.172c-2.2588-.8682-2.5713-7.0928,8.8985-14.7578,8.8174-5.8936,26.126-4.7256,31.25,7.125,5.3281,12.3212.4746,19.1064-3.5713,28.0078-2.4385,5.3652-6.7871,6.1552-6.7871,6.1552s1.81-5.456,3.3808-7.45c2.2911-2.91,3.9522-6.7578,2.1836-8.9843-.9853-1.24-2.53-1.9121-4.6787.2343-3.5625,3.5625-7.31-8.11-16.2685-9.9433C235.794,40.0118,231.2129,42.046,228.9414,41.172Z"/><path class="cls-108" d="M243.5948,71.5987a10.4927,10.4927,0,0,1-3.6641-.4853,2.8376,2.8376,0,0,1,1.207,2.5791c.211,4.2158-1.5644,4.61,1.0186,6.4619.89.6377,3.333,1.001,6.08.998,4-4.042,3.6855-10.7129,3.6855-10.7129A64.4632,64.4632,0,0,1,243.5948,71.5987Z"/><path class="cls-109" d="M231.8213,42.3419s-1.2226,11.96.5235,16.7617,11.96-6.373,13.0947-10.9121S242.2969,39.5479,231.8213,42.3419Z"/><path class="cls-110" d="M258.7315,67.7022s4.3486-.79,6.7871-6.1552c4.0459-8.9014,9.6055-15.7012,4.2773-28.0225a16.819,16.819,0,0,0-1.23-2.3135c-2.7265.8418-5.8271,2.541-7.2382,5.98-1.5245,3.7148-5.49,7.584-8.7813,10.3359,3.01,3.169,5.0693,5.9776,7.07,3.9746,2.1485-2.1464,3.6934-1.4755,4.6787-.2343,1.7686,2.2265.1075,6.0742-2.1836,8.9843C260.543,62.2462,258.7315,67.7022,258.7315,67.7022Z"/><path class="cls-111" d="M261.35,56.9649s3.0772-3.2089,1.9649-4.8457-3.0117.8516-3.0117.8516Z"/><path class="cls-112" d="M244.5948,40.0147c-4.6788-1.1084-13.4776.5245-16.8311-1.1025.1094,1.21.5635,2.0234,1.1777,2.26,2.2715.874,6.8526-1.16,14.4073.3867,6.6181,1.3545,10.3916,8.0723,13.3486,10.0576C256.0733,50.2755,249.417,41.1563,244.5948,40.0147Z"/><polygon class="cls-113" points="336.413 118.117 316.418 106.478 294.343 119.06 294.343 141.024 314.271 152.537 314.271 152.552 314.283 152.546 314.295 152.552 314.295 152.537 336.413 140.082 336.413 118.117"/><g class="cls-33"><polygon class="cls-114" points="314.271 130.76 314.271 152.552 323.328 147.323 323.328 125.358 314.271 130.76"/><polygon class="cls-115" points="314.295 130.76 314.295 152.552 294.343 141.024 294.343 119.06 314.295 130.76"/><polygon class="cls-116" points="294.343 119.06 314.295 130.76 323.328 125.358 303.332 113.719 294.343 119.06"/></g><path class="cls-37" d="M308.252,140.9132c0,2.4756-1.749,3.4726-3.9063,2.2275a8.6079,8.6079,0,0,1-3.9052-6.7373c0-2.4746,3.9052-7.456,3.9052-7.456S308.252,138.4386,308.252,140.9132Z"/><polygon class="cls-117" points="336.413 88.891 316.418 77.251 294.343 89.833 294.343 111.798 314.271 123.311 314.271 123.325 314.283 123.318 314.295 123.325 314.295 123.311 336.413 110.856 336.413 88.891"/><g class="cls-33"><polygon class="cls-118" points="314.271 101.534 314.271 123.325 323.328 118.098 323.328 96.132 314.271 101.534"/><polygon class="cls-119" points="314.295 101.534 314.295 123.325 294.343 111.798 294.343 89.833 314.295 101.534"/><polygon class="cls-120" points="294.343 89.833 314.295 101.534 323.328 96.132 303.332 84.492 294.343 89.833"/></g><path class="cls-37" d="M307.3438,102.6427c-1.2432-.7178-2.32-.4805-2.8594.4668a7.1352,7.1352,0,0,0-2.86-3.77c-1.7832-1.0293-3.2286-.0966-3.2286,2.0821,0,3.9843,6.0889,12.4238,6.0889,12.4238s6.0889-1.4092,6.0889-5.3926A7.352,7.352,0,0,0,307.3438,102.6427Z"/><g class="cls-33"><polygon class="cls-121" points="314.271 71.61 314.271 93.401 323.328 88.174 323.328 66.209 314.271 71.61"/><polygon class="cls-122" points="314.295 71.61 314.295 93.401 294.343 81.875 294.343 59.909 314.295 71.61"/><polygon class="cls-123" points="294.343 59.909 314.295 71.61 323.328 66.209 303.332 54.568 294.343 59.909"/></g><polygon class="cls-37" points="310.387 77.961 306.452 75.689 306.452 71.174 302.279 68.765 302.279 73.279 298.345 71.008 298.345 75.797 302.279 78.068 302.279 82.584 306.452 84.992 306.452 80.478 310.387 82.75 310.387 77.961"/><path class="cls-124" d="M281.2657,93.7833c1.4726,10.7812-2.2989,20.1992-8.4239,21.0352-6.125.8378-12.2842-7.2237-13.7578-18.004s2.2988-20.1992,8.4238-21.0371C273.6328,74.9415,279.792,83.002,281.2657,93.7833Z"/></g></g></svg>