<svg xmlns="http://www.w3.org/2000/svg" xmlns:xlink="http://www.w3.org/1999/xlink" viewBox="0 0 1556.52 1517.1779"><defs><style>.cls-1{isolation:isolate;}.cls-2{mix-blend-mode:screen;}.cls-3{fill:url(#radial-gradient);}.cls-4{fill:url(#radial-gradient-2);}.cls-5{fill:url(#radial-gradient-3);}.cls-6{fill:url(#radial-gradient-4);}.cls-7{fill:url(#radial-gradient-5);}.cls-8{fill:url(#radial-gradient-6);}.cls-9{fill:url(#radial-gradient-7);}.cls-10{fill:url(#radial-gradient-8);}.cls-11{fill:url(#radial-gradient-9);}.cls-12{fill:url(#radial-gradient-10);}.cls-13{fill:url(#radial-gradient-11);}.cls-14{fill:url(#radial-gradient-12);}.cls-15{fill:url(#radial-gradient-13);}.cls-16{fill:url(#radial-gradient-14);}.cls-17{fill:url(#radial-gradient-15);}.cls-18{fill:url(#radial-gradient-16);}.cls-19{fill:url(#radial-gradient-17);}.cls-20{fill:url(#radial-gradient-18);}.cls-21{fill:url(#radial-gradient-19);}.cls-22{fill:url(#radial-gradient-20);}.cls-23{fill:url(#radial-gradient-21);}.cls-24{fill:url(#radial-gradient-22);}.cls-25{fill:url(#radial-gradient-23);}.cls-26{fill:url(#radial-gradient-24);}.cls-27{fill:url(#radial-gradient-25);}.cls-28{fill:url(#radial-gradient-26);}.cls-29{fill:url(#radial-gradient-27);}.cls-30{fill:url(#radial-gradient-28);}.cls-31{fill:url(#radial-gradient-29);}.cls-32{fill:url(#radial-gradient-30);}.cls-33{fill:url(#radial-gradient-31);}.cls-34{fill:url(#radial-gradient-32);}.cls-35{fill:url(#radial-gradient-33);}.cls-36{fill:url(#radial-gradient-34);}.cls-37{fill:url(#radial-gradient-35);}.cls-38{fill:url(#radial-gradient-36);}.cls-39{fill:url(#radial-gradient-37);}.cls-40{fill:url(#radial-gradient-38);}.cls-41{fill:url(#radial-gradient-39);}.cls-42{fill:url(#radial-gradient-40);}.cls-43{fill:url(#radial-gradient-41);}.cls-44{fill:url(#radial-gradient-42);}.cls-45{fill:url(#radial-gradient-43);}.cls-46{fill:url(#radial-gradient-44);}.cls-47{fill:url(#radial-gradient-45);}.cls-48{fill:url(#radial-gradient-46);}.cls-49{fill:url(#radial-gradient-47);}.cls-50{fill:url(#radial-gradient-48);}.cls-51{fill:url(#radial-gradient-49);}.cls-52{fill:url(#radial-gradient-50);}.cls-53{fill:url(#radial-gradient-51);}.cls-54{fill:url(#radial-gradient-52);}.cls-55{fill:url(#radial-gradient-53);}.cls-56{fill:url(#radial-gradient-54);}.cls-57{fill:url(#radial-gradient-55);}.cls-58{fill:url(#radial-gradient-56);}.cls-59{fill:url(#radial-gradient-57);}.cls-60{fill:url(#radial-gradient-58);}.cls-61{fill:url(#radial-gradient-59);}.cls-62{fill:url(#radial-gradient-60);}.cls-63{fill:url(#radial-gradient-61);}.cls-64{fill:url(#radial-gradient-62);}.cls-65{fill:url(#radial-gradient-63);}.cls-66{fill:url(#radial-gradient-64);}.cls-67{fill:url(#radial-gradient-65);}.cls-68{fill:url(#radial-gradient-66);}</style><radialGradient id="radial-gradient" cx="907.8418" cy="902.8969" r="451.4071" gradientUnits="userSpaceOnUse"><stop offset="0.2351" stop-color="#9f141f"/><stop offset="0.7533" stop-color="#560c09"/><stop offset="1" stop-color="#390900"/></radialGradient><radialGradient id="radial-gradient-2" cx="907.8412" cy="903.4499" r="451.1375" xlink:href="#radial-gradient"/><radialGradient id="radial-gradient-3" cx="907.8393" cy="903.4508" r="451.1339" xlink:href="#radial-gradient"/><radialGradient id="radial-gradient-4" cx="647.2693" cy="641.5703" r="450.2502" xlink:href="#radial-gradient"/><radialGradient id="radial-gradient-5" cx="646.7126" cy="641.573" r="450.5318" xlink:href="#radial-gradient"/><radialGradient id="radial-gradient-6" cx="646.715" cy="641.5722" r="450.5257" xlink:href="#radial-gradient"/><radialGradient id="radial-gradient-7" cx="835.0818" cy="916.1615" r="521.576" xlink:href="#radial-gradient"/><radialGradient id="radial-gradient-8" cx="835.082" cy="916.7142" r="521.3055" xlink:href="#radial-gradient"/><radialGradient id="radial-gradient-9" cx="835.0799" cy="916.716" r="521.302" xlink:href="#radial-gradient"/><radialGradient id="radial-gradient-10" cx="602.4824" cy="721.3178" r="548.9393" xlink:href="#radial-gradient"/><radialGradient id="radial-gradient-11" cx="601.9264" cy="721.3164" r="549.2176" xlink:href="#radial-gradient"/><radialGradient id="radial-gradient-12" cx="601.9274" cy="721.3208" r="549.2169" xlink:href="#radial-gradient"/><radialGradient id="radial-gradient-13" cx="722.462" cy="709.2249" r="465.5231" xlink:href="#radial-gradient"/><radialGradient id="radial-gradient-14" cx="721.9072" cy="709.227" r="465.7946" xlink:href="#radial-gradient"/><radialGradient id="radial-gradient-15" cx="721.9074" cy="709.2262" r="465.7901" xlink:href="#radial-gradient"/><radialGradient id="radial-gradient-16" cx="1161.2592" cy="533.2136" r="191.4756" xlink:href="#radial-gradient"/><radialGradient id="radial-gradient-17" cx="1161.2591" cy="533.2133" r="191.4761" xlink:href="#radial-gradient"/><radialGradient id="radial-gradient-18" cx="1161.2613" cy="533.2104" r="191.4796" xlink:href="#radial-gradient"/><radialGradient id="radial-gradient-19" cx="1059.6303" cy="547.9649" r="218.742" xlink:href="#radial-gradient"/><radialGradient id="radial-gradient-20" cx="1059.6354" cy="547.9641" r="218.7384" xlink:href="#radial-gradient"/><radialGradient id="radial-gradient-21" cx="1059.6314" cy="547.9638" r="218.7417" xlink:href="#radial-gradient"/><radialGradient id="radial-gradient-22" cx="985.4856" cy="490.6123" r="216.2555" xlink:href="#radial-gradient"/><radialGradient id="radial-gradient-23" cx="985.4853" cy="490.6117" r="216.2556" xlink:href="#radial-gradient"/><radialGradient id="radial-gradient-24" cx="985.4849" cy="490.6126" r="216.2531" xlink:href="#radial-gradient"/><radialGradient id="radial-gradient-25" cx="1179.0405" cy="383.7127" r="65.2235" xlink:href="#radial-gradient"/><radialGradient id="radial-gradient-26" cx="1179.0398" cy="383.7133" r="65.2238" xlink:href="#radial-gradient"/><radialGradient id="radial-gradient-27" cx="1179.0401" cy="383.7133" r="65.2232" xlink:href="#radial-gradient"/><radialGradient id="radial-gradient-28" cx="868.5406" cy="995.5658" r="328.7929" xlink:href="#radial-gradient"/><radialGradient id="radial-gradient-29" cx="868.5442" cy="996.1172" r="328.5117" xlink:href="#radial-gradient"/><radialGradient id="radial-gradient-30" cx="868.539" cy="996.1197" r="328.5143" xlink:href="#radial-gradient"/><radialGradient id="radial-gradient-31" cx="757.2472" cy="1064.7563" r="162.8389" gradientTransform="translate(974.689 -223.5947) rotate(45)" xlink:href="#radial-gradient"/><radialGradient id="radial-gradient-32" cx="757.2462" cy="1064.7528" r="162.8366" xlink:href="#radial-gradient"/><radialGradient id="radial-gradient-33" cx="757.2479" cy="1064.7578" r="162.8372" xlink:href="#radial-gradient"/><radialGradient id="radial-gradient-34" cx="754.2149" cy="917.6557" r="240.5302" gradientUnits="userSpaceOnUse"><stop offset="0.2104" stop-color="#e63946"/><stop offset="0.5441" stop-color="#8f2226"/><stop offset="0.8566" stop-color="#440e0b"/><stop offset="1" stop-color="#260600"/></radialGradient><radialGradient id="radial-gradient-35" cx="754.2149" cy="917.657" r="240.5314" xlink:href="#radial-gradient-34"/><radialGradient id="radial-gradient-36" cx="754.2137" cy="917.6563" r="240.529" xlink:href="#radial-gradient-34"/><radialGradient id="radial-gradient-37" cx="616.086" cy="779.1258" r="240.1918" xlink:href="#radial-gradient-34"/><radialGradient id="radial-gradient-38" cx="616.0856" cy="779.126" r="240.1932" xlink:href="#radial-gradient-34"/><radialGradient id="radial-gradient-39" cx="616.0909" cy="779.1263" r="240.1954" xlink:href="#radial-gradient-34"/><radialGradient id="radial-gradient-40" cx="715.5489" cy="924.7053" r="277.8202" xlink:href="#radial-gradient-34"/><radialGradient id="radial-gradient-41" cx="715.5504" cy="924.7081" r="277.8214" xlink:href="#radial-gradient-34"/><radialGradient id="radial-gradient-42" cx="715.5478" cy="924.7061" r="277.818" xlink:href="#radial-gradient-34"/><radialGradient id="radial-gradient-43" cx="592.2851" cy="821.5057" r="292.6392" xlink:href="#radial-gradient-34"/><radialGradient id="radial-gradient-44" cx="592.2862" cy="821.5075" r="292.6394" xlink:href="#radial-gradient-34"/><radialGradient id="radial-gradient-45" cx="592.2836" cy="821.5068" r="292.6373" xlink:href="#radial-gradient-34"/><radialGradient id="radial-gradient-46" cx="656.0455" cy="815.0795" r="248.3165" xlink:href="#radial-gradient-34"/><radialGradient id="radial-gradient-47" cx="656.047" cy="815.0766" r="248.3143" xlink:href="#radial-gradient-34"/><radialGradient id="radial-gradient-48" cx="656.05" cy="815.0802" r="248.3179" xlink:href="#radial-gradient-34"/><radialGradient id="radial-gradient-49" cx="889.0755" cy="721.3542" r="102.6513" xlink:href="#radial-gradient-34"/><radialGradient id="radial-gradient-50" cx="889.0761" cy="721.3544" r="102.6509" xlink:href="#radial-gradient-34"/><radialGradient id="radial-gradient-51" cx="889.0755" cy="721.3549" r="102.6502" xlink:href="#radial-gradient-34"/><radialGradient id="radial-gradient-52" cx="835.068" cy="729.193" r="117.1388" xlink:href="#radial-gradient-34"/><radialGradient id="radial-gradient-53" cx="835.0674" cy="729.1939" r="117.1402" xlink:href="#radial-gradient-34"/><radialGradient id="radial-gradient-54" cx="835.0666" cy="729.1939" r="117.1389" xlink:href="#radial-gradient-34"/><radialGradient id="radial-gradient-55" cx="795.4782" cy="698.2617" r="115.6884" xlink:href="#radial-gradient-34"/><radialGradient id="radial-gradient-56" cx="795.4779" cy="698.2626" r="115.6878" xlink:href="#radial-gradient-34"/><radialGradient id="radial-gradient-57" cx="795.4774" cy="698.2628" r="115.6879" xlink:href="#radial-gradient-34"/><radialGradient id="radial-gradient-58" cx="898.9777" cy="642.0927" r="35.3569" xlink:href="#radial-gradient-34"/><radialGradient id="radial-gradient-59" cx="898.9756" cy="642.0931" r="35.3583" xlink:href="#radial-gradient-34"/><radialGradient id="radial-gradient-60" cx="898.9776" cy="642.0925" r="35.3572" xlink:href="#radial-gradient-34"/><radialGradient id="radial-gradient-61" cx="733.3294" cy="966.9034" r="175.3556" xlink:href="#radial-gradient-34"/><radialGradient id="radial-gradient-62" cx="733.3299" cy="966.9034" r="175.3553" xlink:href="#radial-gradient-34"/><radialGradient id="radial-gradient-63" cx="733.3291" cy="966.9" r="175.3566" xlink:href="#radial-gradient-34"/><radialGradient id="radial-gradient-64" cx="674.3731" cy="1003.8305" r="87.4415" gradientTransform="translate(907.3347 -182.8386) rotate(45)" xlink:href="#radial-gradient-34"/><radialGradient id="radial-gradient-65" cx="674.3725" cy="1003.8302" r="87.4414" xlink:href="#radial-gradient-34"/><radialGradient id="radial-gradient-66" cx="674.3723" cy="1003.8316" r="87.4411" xlink:href="#radial-gradient-34"/></defs><title>circuit</title><g class="cls-1"><g id="Layer_1" data-name="Layer 1"><g class="cls-2"><polygon class="cls-3" points="444.437 1335.392 441.795 1335.392 441.804 1227.078 854.728 814.153 980.372 814.153 1206.654 587.871 1244.345 595.406 1369.351 470.401 1371.219 472.27 1245.214 598.276 1207.523 590.74 981.466 816.795 855.822 816.795 444.446 1228.172 444.437 1335.392"/><path class="cls-4" d="M1367.3349,468.666a3.9735,3.9735,0,1,1,0,5.6194A3.9738,3.9738,0,0,1,1367.3349,468.666Z"/><path class="cls-5" d="M439.1424,1335.193a3.9736,3.9736,0,1,0,3.9739-3.9734A3.9735,3.9735,0,0,0,439.1424,1335.193Z"/><polygon class="cls-6" points="290.745 1087.557 195.468 1087.557 195.468 1084.915 289.651 1084.915 604.585 769.981 604.596 588.471 889.268 303.799 991.657 303.799 1097.203 198.253 1099.071 200.121 992.751 306.441 890.362 306.441 607.238 589.564 607.227 771.074 290.745 1087.557"/><circle class="cls-7" cx="1097.9968" cy="199.3279" r="3.9737"/><path class="cls-8" d="M195.6664,1082.2616a3.9736,3.9736,0,1,0,3.9736,3.9736A3.9739,3.9739,0,0,0,195.6664,1082.2616Z"/><polygon class="cls-9" points="298.841 1416.055 296.199 1416.055 296.2 1367.711 374.931 1288.98 374.933 1223.029 835.689 762.273 958.259 762.284 1164.601 555.942 1229.754 555.942 1369.428 416.268 1371.297 418.136 1230.848 558.585 1165.695 558.585 959.354 764.926 836.783 764.916 377.575 1224.122 377.574 1290.074 298.842 1368.806 298.841 1416.055"/><path class="cls-10" d="M1367.412,414.532a3.9736,3.9736,0,1,1,0,5.62A3.9738,3.9738,0,0,1,1367.412,414.532Z"/><path class="cls-11" d="M293.5464,1415.8567a3.9736,3.9736,0,1,0,3.9738-3.9734A3.9744,3.9744,0,0,0,293.5464,1415.8567Z"/><polygon class="cls-12" points="106.461 1264.851 50.861 1264.851 50.861 1262.209 105.367 1262.209 239.954 1127.622 324.501 1127.622 653.405 798.718 653.405 601.709 910.161 344.952 987.74 344.95 1152.236 180.455 1154.104 182.323 988.834 347.593 911.255 347.594 656.047 602.803 656.047 799.812 325.596 1130.264 241.048 1130.264 106.461 1264.851"/><path class="cls-13" d="M1150.22,178.72a3.9735,3.9735,0,1,1,0,5.6194A3.974,3.974,0,0,1,1150.22,178.72Z"/><circle class="cls-14" cx="51.0591" cy="1263.5299" r="3.9736"/><polygon class="cls-15" points="330.521 1188.959 274.266 1188.948 274.266 1186.306 329.427 1186.316 694.27 821.475 694.259 634.261 917.384 411.136 989.803 411.146 1168.79 232.161 1170.658 234.029 990.897 413.788 918.478 413.778 696.901 635.355 696.912 822.569 330.521 1188.959"/><path class="cls-16" d="M1166.7736,230.4248a3.9736,3.9736,0,1,1,0,5.62A3.974,3.974,0,0,1,1166.7736,230.4248Z"/><path class="cls-17" d="M274.4661,1183.653a3.9736,3.9736,0,1,0,3.9728,3.9744A3.9737,3.9737,0,0,0,274.4661,1183.653Z"/><polygon class="cls-18" points="948.442 692.046 946.573 690.178 1113.395 523.355 1225.092 523.365 1374.077 374.381 1375.945 376.249 1226.186 526.008 1114.489 525.997 948.442 692.046"/><path class="cls-19" d="M1372.0613,372.6459a3.9736,3.9736,0,1,1,0,5.6194A3.974,3.974,0,0,1,1372.0613,372.6459Z"/><path class="cls-20" d="M944.8376,688.1612a3.9738,3.9738,0,1,0,5.6194,0A3.9743,3.9743,0,0,0,944.8376,688.1612Z"/><polygon class="cls-21" points="813.975 727.228 812.107 725.36 1062.19 475.277 1198.709 475.278 1305.286 368.702 1307.154 370.57 1199.803 477.92 1063.284 477.919 813.975 727.228"/><path class="cls-22" d="M1303.27,366.9663a3.9735,3.9735,0,1,1,0,5.6194A3.9734,3.9734,0,0,1,1303.27,366.9663Z"/><path class="cls-23" d="M810.372,723.3439a3.9736,3.9736,0,1,0,5.6194,0A3.974,3.974,0,0,0,810.372,723.3439Z"/><polygon class="cls-24" points="777.564 708.636 774.921 708.636 774.921 632.22 940.141 467.001 995.996 467.001 1191.513 271.483 1193.381 273.351 997.09 469.643 941.235 469.643 777.564 633.314 777.564 708.636"/><path class="cls-25" d="M1189.497,269.7477a3.9735,3.9735,0,1,1,0,5.6194A3.9734,3.9734,0,0,1,1189.497,269.7477Z"/><circle class="cls-26" cx="776.2428" cy="708.4369" r="3.9736"/><polygon class="cls-27" points="1105.812 434.492 1105.812 431.85 1155.269 431.839 1251.507 335.602 1253.375 337.47 1156.363 434.482 1105.812 434.492"/><path class="cls-28" d="M1249.49,333.8673a3.9737,3.9737,0,1,1,0,5.62A3.9741,3.9741,0,0,1,1249.49,333.8673Z"/><path class="cls-29" d="M1106.01,429.1975a3.9736,3.9736,0,1,0,3.9743,3.9728A3.9739,3.9739,0,0,0,1106.01,429.1975Z"/><polygon class="cls-30" points="541.276 1319.459 538.634 1319.459 538.634 1204.809 890.2 853.243 1012.338 853.243 1193.91 671.672 1195.778 673.541 1013.432 855.885 891.294 855.885 541.276 1205.903 541.276 1319.459"/><path class="cls-31" d="M1191.8929,669.937a3.9737,3.9737,0,1,1,0,5.62A3.9743,3.9743,0,0,1,1191.8929,669.937Z"/><circle class="cls-32" cx="539.9549" cy="1319.2608" r="3.9736"/><rect class="cls-33" x="532.0551" y="1063.4354" width="450.3841" height="2.6418" transform="translate(-531.1038 847.3145) rotate(-45)"/><path class="cls-34" d="M913.5316,902.8519a3.9735,3.9735,0,1,1,0,5.6194A3.974,3.974,0,0,1,913.5316,902.8519Z"/><path class="cls-35" d="M595.3432,1221.0406a3.9735,3.9735,0,1,0,5.6194,0A3.9737,3.9737,0,0,0,595.3432,1221.0406Z"/></g><g class="cls-2"><polygon class="cls-36" points="509.416 1143.999 505.453 1143.999 505.457 1089.563 725.646 869.375 792.418 869.375 912.78 749.012 932.809 753.016 996.171 689.654 998.973 692.456 934.112 757.318 914.083 753.313 794.059 873.338 727.287 873.338 509.42 1091.204 509.416 1143.999"/><path class="cls-37" d="M993.1476,687.0518a5.96,5.96,0,1,1,0,8.4294A5.9609,5.9609,0,0,1,993.1476,687.0518Z"/><path class="cls-38" d="M501.4743,1143.7a5.96,5.96,0,1,0,5.9608-5.96A5.9609,5.9609,0,0,0,501.4743,1143.7Z"/><polygon class="cls-39" points="426.99 1017.228 379.483 1017.228 379.483 1013.265 425.349 1013.265 591.964 846.649 591.97 750.19 744.002 598.157 798.415 598.157 851.545 545.028 854.347 547.83 800.056 602.12 745.643 602.12 595.934 751.831 595.927 848.29 426.99 1017.228"/><path class="cls-40" d="M848.5205,542.4249a5.96,5.96,0,1,1,0,8.4294A5.9614,5.9614,0,0,1,848.5205,542.4249Z"/><path class="cls-41" d="M379.7817,1009.2854a5.96,5.96,0,1,0,5.96,5.96A5.9612,5.9612,0,0,0,379.7817,1009.2854Z"/><polygon class="cls-42" points="432.043 1186.865 428.08 1186.865 428.08 1164.3 469.92 1122.46 469.921 1087.411 715.529 841.804 780.666 841.809 890.322 732.154 924.946 732.154 996.213 660.887 999.015 663.689 926.587 736.117 891.963 736.117 782.307 845.772 717.17 845.767 473.885 1089.052 473.883 1124.101 432.043 1165.941 432.043 1186.865"/><path class="cls-43" d="M993.1886,658.2836a5.96,5.96,0,1,1,0,8.4294A5.9611,5.9611,0,0,1,993.1886,658.2836Z"/><path class="cls-44" d="M424.1,1186.5671a5.96,5.96,0,1,0,5.9606-5.96A5.9611,5.9611,0,0,0,424.1,1186.5671Z"/><polygon class="cls-45" points="329.057 1111.446 302.635 1111.446 302.635 1107.483 327.416 1107.483 398.938 1035.959 443.87 1035.959 617.909 861.92 617.909 757.225 755.105 620.027 796.334 620.027 880.791 535.569 883.593 538.371 797.975 623.99 756.746 623.99 621.872 758.866 621.872 863.561 445.511 1039.923 400.579 1039.923 329.057 1111.446"/><path class="cls-46" d="M877.7661,532.9664a5.96,5.96,0,1,1,0,8.4294A5.9612,5.9612,0,0,1,877.7661,532.9664Z"/><path class="cls-47" d="M302.933,1103.5046a5.96,5.96,0,1,0,5.9605,5.96A5.9609,5.9609,0,0,0,302.933,1103.5046Z"/><polygon class="cls-48" points="448.129 1071.115 421.359 1071.11 421.359 1067.147 446.487 1067.152 639.625 874.014 639.619 774.524 758.944 655.199 797.429 655.205 889.588 563.047 892.391 565.849 799.07 659.168 760.585 659.162 643.582 776.165 643.589 875.655 448.129 1071.115"/><path class="cls-49" d="M886.5635,560.4438a5.96,5.96,0,1,1,0,8.4294A5.9614,5.9614,0,0,1,886.5635,560.4438Z"/><path class="cls-50" d="M421.6588,1063.1681a5.96,5.96,0,1,0,5.9592,5.9616A5.9617,5.9617,0,0,0,421.6588,1063.1681Z"/><polygon class="cls-51" points="779.468 804.081 776.666 801.279 863.11 714.835 922.469 714.842 998.683 638.627 1001.485 641.429 924.11 718.805 864.751 718.798 779.468 804.081"/><path class="cls-52" d="M995.659,636.0242a5.96,5.96,0,1,1,0,8.4291A5.9609,5.9609,0,0,1,995.659,636.0242Z"/><path class="cls-53" d="M774.0636,798.255a5.96,5.96,0,1,0,8.4293,0A5.9609,5.9609,0,0,0,774.0636,798.255Z"/><polygon class="cls-54" points="708.01 822.778 705.208 819.976 835.898 689.285 908.447 689.287 962.126 635.608 964.928 638.41 910.089 693.25 837.539 693.249 708.01 822.778"/><path class="cls-55" d="M959.1012,633.0058a5.9606,5.9606,0,1,1,.0005,8.4291A5.9611,5.9611,0,0,1,959.1012,633.0058Z"/><path class="cls-56" d="M702.6047,816.9519a5.96,5.96,0,1,0,8.4294,0A5.9609,5.9609,0,0,0,702.6047,816.9519Z"/><polygon class="cls-57" points="686.449 810.922 682.486 810.922 682.486 773.439 771.038 684.887 800.72 684.887 901.664 583.943 904.466 586.746 802.361 688.851 772.679 688.851 686.449 775.08 686.449 810.922"/><path class="cls-58" d="M898.64,581.3412a5.96,5.96,0,1,1,0,8.4291A5.9605,5.9605,0,0,1,898.64,581.3412Z"/><path class="cls-59" d="M678.5069,810.6241a5.96,5.96,0,1,0,5.9605-5.96A5.9608,5.9608,0,0,0,678.5069,810.6241Z"/><polygon class="cls-60" points="863.266 670.17 863.266 666.206 885.363 666.202 933.546 618.018 936.348 620.821 887.004 670.166 863.266 670.17"/><path class="cls-61" d="M930.5217,615.4162a5.96,5.96,0,1,1,0,8.4291A5.9605,5.9605,0,0,1,930.5217,615.4162Z"/><path class="cls-62" d="M863.5627,662.2276a5.9606,5.9606,0,1,0,5.9619,5.9592A5.961,5.961,0,0,0,863.5627,662.2276Z"/><polygon class="cls-63" points="560.878 1135.532 556.915 1135.532 556.915 1077.73 744.497 890.147 809.405 890.147 902.937 796.617 905.739 799.419 811.046 894.11 746.139 894.11 560.878 1079.371 560.878 1135.532"/><path class="cls-64" d="M899.9129,794.0132a5.96,5.96,0,1,1,0,8.4291A5.9609,5.9609,0,0,1,899.9129,794.0132Z"/><path class="cls-65" d="M552.9368,1135.2333a5.96,5.96,0,1,0,5.96-5.9605A5.9611,5.9611,0,0,0,552.9368,1135.2333Z"/><rect class="cls-66" x="558.3562" y="1001.8491" width="232.0335" height="3.9629" transform="translate(-512.2961 770.8689) rotate(-45)"/><path class="cls-67" d="M751.9838,917.7906a5.96,5.96,0,1,1,0,8.4294A5.961,5.961,0,0,1,751.9838,917.7906Z"/><path class="cls-68" d="M588.3321,1081.442a5.96,5.96,0,1,0,8.4294,0A5.9614,5.9614,0,0,0,588.3321,1081.442Z"/></g></g></g></svg>