<?xml version="1.0" encoding="utf-8"?>
<!-- Generator: Adobe Illustrator 24.3.0, SVG Export Plug-In . SVG Version: 6.00 Build 0)  -->
<svg version="1.1" id="Layer_1" xmlns="http://www.w3.org/2000/svg" xmlns:xlink="http://www.w3.org/1999/xlink" x="0px" y="0px"
	 viewBox="0 0 888.1 893.3" style="enable-background:new 0 0 888.1 893.3;" xml:space="preserve">
<style type="text/css">
	.st0{opacity:5.000000e-02;fill:#FFFFFF;enable-background:new    ;}
</style>
<g id="Layer_2_1_">
	<g id="Layer_1-2">
		<path class="st0" d="M765.1,128l3.5,599.2c0.2,41.4-33.1,75.1-74.5,75.3l-472.4,2.8c-41.4,0.2-75.1-33.1-75.3-74.5L143,131.6
			c-0.2-41.4,33.1-75.1,74.5-75.3l472.4-2.8C731.2,53.3,764.9,86.6,765.1,128z"/>
		<path class="st0" d="M803.2,84.5l4.2,720.2c0.2,41.4-33.1,75.1-74.5,75.3l-572.9,3.3c-41.4,0.2-75.1-33.1-75.3-74.5L80.6,88.7
			c-0.2-41.4,33.1-75.1,74.5-75.3L727.9,10C769.3,9.8,803,43.1,803.2,84.5z"/>
	</g>
</g>
</svg>
