<?xml version="1.0" encoding="utf-8"?>
<!-- Generator: Adobe Illustrator 25.0.1, SVG Export Plug-In . SVG Version: 6.00 Build 0)  -->
<svg version="1.1" id="Layer_1" xmlns="http://www.w3.org/2000/svg" xmlns:xlink="http://www.w3.org/1999/xlink" x="0px" y="0px"
	 viewBox="0 0 1556.5 1517.2" style="enable-background:new 0 0 1556.5 1517.2;" xml:space="preserve">
<style type="text/css">
	.st0{opacity:5.000000e-02;fill:#E53946;enable-background:new    ;}
</style>
<path class="st0" d="M1419.4,214.4l0.7,1206.7c0,38.5-31.2,69.8-69.7,69.8l-1110.5,0.6c-38.5,0-69.8-31.2-69.8-69.7l-0.7-1206.7
	c0-38.5,31.2-69.8,69.7-69.8l1110.5-0.6C1388.1,144.6,1419.3,175.9,1419.4,214.4z"/>
<path class="st0" d="M1315.4,99.1l0.7,1286c0,30.6-24.8,55.4-55.3,55.4l-932.2,0.5c-30.6,0-55.4-24.8-55.4-55.3l-0.7-1286
	c0-30.6,24.8-55.4,55.3-55.4l932.2-0.5C1290.5,43.7,1315.3,68.5,1315.4,99.1z"/>
</svg>
