<svg xmlns="http://www.w3.org/2000/svg" xmlns:xlink="http://www.w3.org/1999/xlink" viewBox="0 0 1556.52 1517.1779"><defs><style>.cls-1{isolation:isolate;}.cls-2{opacity:0.28;mix-blend-mode:screen;}.cls-3{fill:url(#radial-gradient);}.cls-4{fill:url(#radial-gradient-2);}.cls-5{fill:url(#radial-gradient-3);}.cls-6{fill:url(#radial-gradient-4);}.cls-7{fill:url(#radial-gradient-5);}.cls-8{fill:url(#radial-gradient-6);}.cls-9{fill:url(#radial-gradient-7);}.cls-10{fill:url(#radial-gradient-8);}.cls-11{fill:url(#radial-gradient-9);}.cls-12{fill:url(#radial-gradient-10);}.cls-13{fill:url(#radial-gradient-11);}.cls-14{fill:url(#radial-gradient-12);}.cls-15{fill:url(#radial-gradient-13);}.cls-16{fill:url(#radial-gradient-14);}.cls-17{fill:url(#radial-gradient-15);}.cls-18{fill:url(#radial-gradient-16);}.cls-19{fill:url(#radial-gradient-17);}.cls-20{fill:url(#radial-gradient-18);}.cls-21{fill:url(#radial-gradient-19);}.cls-22{fill:url(#radial-gradient-20);}.cls-23{fill:url(#radial-gradient-21);}.cls-24{fill:url(#radial-gradient-22);}.cls-25{fill:url(#radial-gradient-23);}.cls-26{fill:url(#radial-gradient-24);}.cls-27{fill:url(#radial-gradient-25);}.cls-28{fill:url(#radial-gradient-26);}.cls-29{fill:url(#radial-gradient-27);}.cls-30{fill:url(#radial-gradient-28);}.cls-31{fill:url(#radial-gradient-29);}.cls-32{fill:url(#radial-gradient-30);}.cls-33{fill:url(#radial-gradient-31);}.cls-34{fill:url(#radial-gradient-32);}.cls-35{fill:url(#radial-gradient-33);}</style><radialGradient id="radial-gradient" cx="197.344" cy="1076.7012" r="778.013" gradientTransform="matrix(0.4685, -0.8835, 0.8835, 0.4685, -266.3004, 433.3318)" gradientUnits="userSpaceOnUse"><stop offset="0" stop-color="#f1faee"/><stop offset="0.0111" stop-color="#ebf4e8"/><stop offset="0.1271" stop-color="#b5bcb3"/><stop offset="0.2466" stop-color="#858a83"/><stop offset="0.3669" stop-color="#5c5f5b"/><stop offset="0.4883" stop-color="#3b3d3a"/><stop offset="0.6111" stop-color="#212220"/><stop offset="0.7358" stop-color="#0f0f0e"/><stop offset="0.8638" stop-color="#040404"/><stop offset="1"/></radialGradient><radialGradient id="radial-gradient-2" cx="197.2637" cy="1076.6949" r="782.4923" xlink:href="#radial-gradient"/><radialGradient id="radial-gradient-3" cx="197.1829" cy="1076.5839" r="763.9168" xlink:href="#radial-gradient"/><radialGradient id="radial-gradient-4" cx="197.1017" cy="1076.4869" r="746.955" xlink:href="#radial-gradient"/><radialGradient id="radial-gradient-5" cx="197.014" cy="1076.5114" r="758.5432" xlink:href="#radial-gradient"/><radialGradient id="radial-gradient-6" cx="196.9245" cy="1076.5349" r="770.251" xlink:href="#radial-gradient"/><radialGradient id="radial-gradient-7" cx="196.8286" cy="1076.5577" r="782.2185" xlink:href="#radial-gradient"/><radialGradient id="radial-gradient-8" cx="196.8651" cy="1076.5804" r="785.0623" xlink:href="#radial-gradient"/><radialGradient id="radial-gradient-9" cx="197.2604" cy="1076.603" r="762.8368" xlink:href="#radial-gradient"/><radialGradient id="radial-gradient-10" cx="197.598" cy="1076.6264" r="743.5966" xlink:href="#radial-gradient"/><radialGradient id="radial-gradient-11" cx="197.5106" cy="1076.6501" r="755.4167" xlink:href="#radial-gradient"/><radialGradient id="radial-gradient-12" cx="197.4265" cy="1076.6757" r="767.2854" xlink:href="#radial-gradient"/><radialGradient id="radial-gradient-13" cx="197.3446" cy="1076.703" r="779.3446" xlink:href="#radial-gradient"/><radialGradient id="radial-gradient-14" cx="197.2637" cy="1076.6934" r="783.2624" xlink:href="#radial-gradient"/><radialGradient id="radial-gradient-15" cx="197.1821" cy="1076.5825" r="763.4851" xlink:href="#radial-gradient"/><radialGradient id="radial-gradient-16" cx="197.1003" cy="1076.4858" r="745.8312" xlink:href="#radial-gradient"/><radialGradient id="radial-gradient-17" cx="197.0128" cy="1076.5102" r="757.547" xlink:href="#radial-gradient"/><radialGradient id="radial-gradient-18" cx="196.922" cy="1076.5338" r="769.3545" xlink:href="#radial-gradient"/><radialGradient id="radial-gradient-19" cx="196.8248" cy="1076.5569" r="781.3981" xlink:href="#radial-gradient"/><radialGradient id="radial-gradient-20" cx="196.8521" cy="1076.5799" r="785.0989" xlink:href="#radial-gradient"/><radialGradient id="radial-gradient-21" cx="197.2512" cy="1076.6031" r="763.5119" xlink:href="#radial-gradient"/><radialGradient id="radial-gradient-22" cx="197.5997" cy="1076.6263" r="744.1739" xlink:href="#radial-gradient"/><radialGradient id="radial-gradient-23" cx="197.5116" cy="1076.6502" r="756.0192" xlink:href="#radial-gradient"/><radialGradient id="radial-gradient-24" cx="197.4271" cy="1076.6758" r="767.9164" xlink:href="#radial-gradient"/><radialGradient id="radial-gradient-25" cx="197.3451" cy="1076.7029" r="780.0194" xlink:href="#radial-gradient"/><radialGradient id="radial-gradient-26" cx="197.263" cy="1076.6926" r="783.5027" xlink:href="#radial-gradient"/><radialGradient id="radial-gradient-27" cx="197.1812" cy="1076.5799" r="763.1212" xlink:href="#radial-gradient"/><radialGradient id="radial-gradient-28" cx="197.098" cy="1076.4855" r="745.2727" xlink:href="#radial-gradient"/><radialGradient id="radial-gradient-29" cx="197.011" cy="1076.5105" r="757.0496" xlink:href="#radial-gradient"/><radialGradient id="radial-gradient-30" cx="196.9201" cy="1076.5333" r="768.916" xlink:href="#radial-gradient"/><radialGradient id="radial-gradient-31" cx="196.8234" cy="1076.5569" r="780.9985" xlink:href="#radial-gradient"/><radialGradient id="radial-gradient-32" cx="196.8562" cy="1075.2242" r="785.2995" xlink:href="#radial-gradient"/><radialGradient id="radial-gradient-33" cx="197.2565" cy="1075.2246" r="764.0306" xlink:href="#radial-gradient"/></defs><title>Spiral</title><g class="cls-1"><g id="Layer_1" data-name="Layer 1"><g class="cls-2"><path class="cls-3" d="M880.1408,727.2108a1.9792,1.9792,0,0,1,.3411,1.6315l-23.86,101.889a1.9748,1.9748,0,0,1-1.3541,1.4411L755.0528,862.2969a1.9717,1.9717,0,0,1-1.92-.4521l-76.3553-71.7616a1.9749,1.9749,0,0,1-.5705-1.8884L700.068,686.3059a1.97,1.97,0,0,1,1.3541-1.4411l100.2145-30.1241a1.9716,1.9716,0,0,1,1.9195.4516l76.355,71.7612A2.06,2.06,0,0,1,880.1408,727.2108ZM853.0381,828.7193l23.34-99.6676L801.6828,658.85l-98.0306,29.4673-23.3405,99.6682,74.6947,70.2013Z"/><path class="cls-4" d="M888.9241,734.701a1.9721,1.9721,0,0,1,.2938,1.7975L854.4853,842.2659a1.9721,1.9721,0,0,1-1.4743,1.3175L744.0126,866.2192a1.9809,1.9809,0,0,1-1.8743-.6191l-74.2654-83.1325a1.9692,1.9692,0,0,1-.4031-1.93l34.7346-105.7666a1.975,1.975,0,0,1,1.4737-1.3185l108.9985-22.6346a1.9781,1.9781,0,0,1,1.8733.6187l74.2649,83.1307C888.8539,734.6118,888.89,734.6552,888.9241,734.701Zm-37.8326,105.25,34.021-103.6014-72.7473-81.4323-106.7669,22.17L671.5754,780.6875l72.7488,81.4333Z"/><path class="cls-5" d="M826.5416,648.467l70.9976,94.988a1.9708,1.9708,0,0,1,.2327,1.9585L851.1553,854.2823a1.9666,1.9666,0,0,1-1.5825,1.1828L731.96,869.3478a1.9705,1.9705,0,0,1-1.8125-.7777L659.15,773.5821a1.9708,1.9708,0,0,1-.2327-1.9585l46.617-108.8683a1.964,1.964,0,0,1,1.5826-1.1829l117.6125-13.8831A1.972,1.972,0,0,1,826.5416,648.467Zm67.1532,96.439-69.6333-93.1626L708.713,665.3582,662.9938,772.1315l69.6332,93.1626,115.3494-13.6148Z"/><path class="cls-6" d="M839.4223,646.281c.0346.0462.066.0928.0965.142l66.4358,107.2483a1.9782,1.9782,0,0,1,.062,1.9725L846.52,866.7a1.9705,1.9705,0,0,1-1.6813,1.04l-125.9328,3.807a2.009,2.009,0,0,1-1.7361-.9333L650.7356,763.3655a1.98,1.98,0,0,1-.0626-1.9721L710.17,650.3364a1.9712,1.9712,0,0,1,1.6812-1.04L837.7823,645.49A1.9722,1.9722,0,0,1,839.4223,646.281Zm62.5759,108.5007L836.7629,649.47,713.11,653.2069,654.6915,762.2555l65.2343,105.3117L843.5792,863.83Z"/><path class="cls-7" d="M853.2765,645.1578a1.9639,1.9639,0,0,1,.1817.2934l60.4623,119.82a1.97,1.97,0,0,1-.1109,1.9691L840.4589,879.4185a1.9691,1.9691,0,0,1-1.7656.8906l-133.8127-7.6409a1.9521,1.9521,0,0,1-1.6495-1.0818l-60.4622-119.82a1.97,1.97,0,0,1,.1108-1.9692L716.23,637.619a1.972,1.972,0,0,1,1.7651-.8914l133.8127,7.6408A1.9759,1.9759,0,0,1,853.2765,645.1578Zm56.6069,120.8764L850.4458,648.2463,718.91,640.735l-72.1025,110.27,59.4347,117.786,131.5364,7.5106Z"/><path class="cls-8" d="M868.0638,645.2536a1.9441,1.9441,0,0,1,.2514.45l52.966,132.5878a1.9727,1.9727,0,0,1-.28,1.9523L832.8638,892.3267a1.9709,1.9709,0,0,1-1.8361.7333L689.9242,872.5548a1.965,1.965,0,0,1-1.55-1.221L635.4076,738.7466a1.9735,1.9735,0,0,1,.2808-1.9526l88.1374-112.0848a1.9752,1.9752,0,0,1,1.8351-.7338l141.1049,20.5054A1.98,1.98,0,0,1,868.0638,645.2536Zm49.1288,133.4441-52.12-130.4721L726.224,628.0475,639.4968,738.34l52.12,130.4718,138.848,20.1772Z"/><path class="cls-9" d="M883.7244,646.7256a1.9652,1.9652,0,0,1,.3079.6115l43.8408,145.4258a1.9693,1.9693,0,0,1-.4513,1.9208L823.6241,905.2961a1.9805,1.9805,0,0,1-1.8922.572L674.093,871.0522a1.9762,1.9762,0,0,1-1.4365-1.3513l-43.84-145.4263a1.9709,1.9709,0,0,1,.4511-1.9212L733.065,611.741a1.9768,1.9768,0,0,1,1.8924-.5715l147.6387,34.8154A1.9745,1.9745,0,0,1,883.7244,646.7256ZM923.7649,792.813,880.5813,649.5678,735.1631,615.2752,632.924,724.2249,676.1075,867.47l145.4177,34.2917Z"/><path class="cls-10" d="M900.1851,649.7355a1.964,1.964,0,0,1,.3514.78l32.9771,158.1851a1.975,1.975,0,0,1-.6163,1.8734l-120.26,107.6a1.9777,1.9777,0,0,1-1.9349.4044L657.4666,867.9942a1.97,1.97,0,0,1-1.3138-1.4722L623.175,708.3361a1.9748,1.9748,0,0,1,.6166-1.873l120.2606-107.6a1.9726,1.9726,0,0,1,1.9348-.4044l153.2351,50.5837A1.9776,1.9776,0,0,1,900.1851,649.7355Zm29.2314,158.6561-32.5117-155.956L745.8333,602.5662,627.2728,708.646l32.5118,155.956,151.0718,49.869Z"/><path class="cls-11" d="M917.3519,654.4542a1.9729,1.9729,0,0,1,.38.9487l20.28,170.6986a1.9706,1.9706,0,0,1-.7775,1.8131L799.81,930.7978a1.9715,1.9715,0,0,1-1.9636.2323L640.1386,863.2137a1.9727,1.9727,0,0,1-1.1805-1.5794L618.6775,690.9356a1.9719,1.9719,0,0,1,.7765-1.8132L756.88,586.24a1.9722,1.9722,0,0,1,1.9633-.2329l157.7079,67.8169A1.9622,1.9622,0,0,1,917.3519,654.4542Zm16.6042,170.9815L913.9457,657l-155.614-66.9168L622.7326,691.601l20.0119,168.4359L798.358,926.954Z"/><path class="cls-12" d="M935.106,661.0451a1.9734,1.9734,0,0,1,.3915,1.12l5.6676,182.7852a1.9721,1.9721,0,0,1-.9324,1.7388L785.0528,942.98a1.9717,1.9717,0,0,1-1.9754.0617L622.2287,856.5472a1.9724,1.9724,0,0,1-1.0375-1.6766l-5.6675-182.7832a1.9751,1.9751,0,0,1,.9326-1.74l155.1811-96.2909a1.9708,1.9708,0,0,1,1.975-.0613L934.46,660.4879A1.9739,1.9739,0,0,1,935.106,661.0451Zm2.0783,182.89-5.5967-180.5088L772.7485,578.0134,619.5049,673.102l5.5958,180.5068,158.8406,85.415Z"/><path class="cls-13" d="M953.3119,669.6777a1.9735,1.9735,0,0,1,.3891,1.2924L942.7588,865.2059a1.9767,1.9767,0,0,1-1.08,1.6515l-173.3852,87.66a1.975,1.975,0,0,1-1.9747-.1136L603.8762,847.8267a1.9731,1.9731,0,0,1-.8876-1.76L613.93,651.8292a1.9788,1.9788,0,0,1,1.0789-1.6516L788.3956,562.52a1.9754,1.9754,0,0,1,1.974.1128L952.8141,669.21A1.94,1.94,0,0,1,953.3119,669.6777ZM938.88,863.847l10.8157-191.9621L789.1578,566.5588l-171.3493,86.63L606.9942,845.1523,767.5307,950.4779Z"/><path class="cls-14" d="M971.8038,680.513a1.97,1.97,0,0,1,.3717,1.4637L942.571,886.8115a1.9693,1.9693,0,0,1-1.2207,1.55L749.4718,965.1849a1.9743,1.9743,0,0,1-1.9562-.2828l-162.2727-128.01a1.9752,1.9752,0,0,1-.73-1.8325l29.6052-204.8339a1.9682,1.9682,0,0,1,1.22-1.55l191.8791-76.8236a1.9734,1.9734,0,0,1,1.9562.2828L971.4461,680.1448A2.0092,2.0092,0,0,1,971.8038,680.513ZM938.8261,885.12l29.28-202.5793L807.6236,555.941l-189.76,75.9769-29.28,202.5794L749.0651,961.0957Z"/><path class="cls-15" d="M990.3973,693.71a1.9681,1.9681,0,0,1,.34,1.6333L940.37,909.6789a1.9766,1.9766,0,0,1-1.3494,1.4391L728.5488,974.7437a1.98,1.98,0,0,1-1.9246-.4526l-160.1054-150.71a1.9717,1.9717,0,0,1-.5677-1.8884L616.3185,607.359a1.977,1.977,0,0,1,1.3494-1.4391L828.14,542.2942a1.9756,1.9756,0,0,1,1.9247.4526L990.1691,693.4549A1.9111,1.9111,0,0,1,990.3973,693.71ZM936.789,907.6672l49.8452-212.1191L828.19,546.4027,619.9012,609.3689,570.0539,821.4877,728.4994,970.6349Z"/><path class="cls-16" d="M1008.88,709.4214a1.9768,1.9768,0,0,1,.2941,1.8L935.9223,933.6992a1.9706,1.9706,0,0,1-1.4717,1.3136l-228.952,47.9153a1.9675,1.9675,0,0,1-1.8779-.6186L547.9182,807.7465a1.9944,1.9944,0,0,1-.4018-1.93l73.2507-222.4777a1.9733,1.9733,0,0,1,1.4716-1.3136l228.9529-47.9166a1.9717,1.9717,0,0,1,1.8768.6187l155.7032,174.5639C1008.8088,709.3321,1008.8464,709.3769,1008.88,709.4214Zm-76.3528,221.96,72.5407-220.3138L850.8829,538.2072,624.1617,585.6551,551.6222,805.9694,705.807,978.83Z"/><path class="cls-17" d="M878.1831,528.3505l.0011.0013,148.8271,199.4354a1.9791,1.9791,0,0,1,.2314,1.9588L928.9848,958.7325a1.9731,1.9731,0,0,1-1.5807,1.1815L680.3213,989.4655a1.9745,1.9745,0,0,1-1.8151-.7785l-.001-.0013L529.6791,789.2489a1.9765,1.9765,0,0,1-.2323-1.9588l98.2583-228.9855a1.9727,1.9727,0,0,1,1.5806-1.1814l247.0822-29.5511A1.9743,1.9743,0,0,1,878.1831,528.3505Zm144.9831,200.886-147.464-197.61L630.8842,560.908,533.5236,787.8007,680.9868,985.41l244.8187-29.2811Z"/><path class="cls-18" d="M905.29,523.7724c.0346.0462.0672.0939.0976.1427l139.2311,225.1571a1.9732,1.9732,0,0,1,.06,1.9724L919.3148,984.6094a1.9662,1.9662,0,0,1-1.6767,1.0391L653.044,994.055a2.0238,2.0238,0,0,1-1.742-.9337L512.0711,767.9655a1.9732,1.9732,0,0,1-.0609-1.9719L637.3737,532.4281a1.9691,1.9691,0,0,1,1.6776-1.0391l264.5938-8.4077A1.972,1.972,0,0,1,905.29,523.7724Zm135.3721,226.4088L902.63,526.9629l-262.3154,8.336L516.0272,766.8566,654.06,990.0735l262.3143-8.3345Z"/><path class="cls-19" d="M934.4394,521.4332a2.102,2.102,0,0,1,.1837.2939L1061.3,773.2524a1.9734,1.9734,0,0,1-.1129,1.9693L906.6738,1011.1264a1.9715,1.9715,0,0,1-1.76.89L623.722,996.394a1.9653,1.9653,0,0,1-1.6544-1.0845L495.3891,743.7839a1.9713,1.9713,0,0,1,.1139-1.9687L650.0156,505.911a1.9718,1.9718,0,0,1,1.76-.89l281.1924,15.622A1.9755,1.9755,0,0,1,934.4394,521.4332ZM1057.2611,774.012,931.61,524.5221,652.6926,509.0263l-153.264,233.999L625.08,992.5139l278.9168,15.4974Z"/><path class="cls-20" d="M965.5486,521.6559a2.0017,2.0017,0,0,1,.2534.4512l110.93,278.31a1.9713,1.9713,0,0,1-.2836,1.9513L890.8248,1038.0487a1.9727,1.9727,0,0,1-1.8308.7327l-296.5526-42.627a1.9725,1.9725,0,0,1-1.554-1.224l-110.93-278.31a1.9741,1.9741,0,0,1,.2837-1.9514L665.8645,478.9888a1.9717,1.9717,0,0,1,1.8305-.7332l296.5529,42.6275A1.9777,1.9777,0,0,1,965.5486,521.6559ZM1072.6427,800.82,962.5564,524.6285,668.2609,482.3257,484.0462,716.2169,594.1321,992.4081l294.2957,42.303Z"/><path class="cls-21" d="M998.4985,524.7782a1.981,1.981,0,0,1,.3088.6135l91.7581,305.2312a1.9742,1.9742,0,0,1-.4532,1.9194L871.54,1065.1008a1.975,1.975,0,0,1-1.8889.5717L559.3219,993a1.9791,1.9791,0,0,1-1.44-1.3539L466.1239,686.4147a1.9723,1.9723,0,0,1,.4527-1.9191L685.1492,451.9367a1.9727,1.9727,0,0,1,1.8887-.5716l310.3295,72.6724A1.9777,1.9777,0,0,1,998.4985,524.7782Zm87.9577,305.8908L995.3546,527.6209,687.2454,455.47,470.2327,686.3683l91.102,303.0483,308.1081,72.1509Z"/><path class="cls-22" d="M1033.1272,531.1408a1.9829,1.9829,0,0,1,.3511.7794L1102.42,863.9069a1.9708,1.9708,0,0,1-.6172,1.8742L848.6012,1091.9754a1.9748,1.9748,0,0,1-1.9311.4049L524.527,986.5913a1.979,1.979,0,0,1-1.3159-1.474L454.27,653.1306a1.97,1.97,0,0,1,.6173-1.8741l253.2-226.1967a1.9757,1.9757,0,0,1,1.9318-.4039l322.1441,105.7905A1.9754,1.9754,0,0,1,1033.1272,531.1408Zm65.1966,332.4535L1029.845,533.8414,709.8682,428.7626,458.3655,653.4433l68.4788,329.7529,319.9743,105.0773Z"/><path class="cls-23" d="M1069.2355,541.0941a1.9862,1.9862,0,0,1,.38.9512L1111.898,900.27a1.9755,1.9755,0,0,1-.7793,1.813l-289.31,216.2417a1.9753,1.9753,0,0,1-1.9592.2338L488.2563,976.5755a1.9811,1.9811,0,0,1-1.1842-1.5843L444.7905,616.7666a1.9768,1.9768,0,0,1,.78-1.8119L734.8808,398.713a1.9774,1.9774,0,0,1,1.9588-.235l331.592,141.9831A1.9826,1.9826,0,0,1,1069.2355,541.0941Zm38.6081,358.5078-42.0159-355.9606L736.3331,402.5566,448.8457,617.4355,490.86,973.394l329.4964,141.0869Z"/><path class="cls-24" d="M1106.5828,554.9923a1.972,1.972,0,0,1,.3918,1.1215L1118.57,939.676a1.9732,1.9732,0,0,1-.933,1.7373L790.98,1143.7568a1.9688,1.9688,0,0,1-1.9722.0613L450.756,962.6016a1.9707,1.9707,0,0,1-1.0415-1.6791L438.12,577.3617a1.974,1.974,0,0,1,.9339-1.738L765.71,373.28a1.97,1.97,0,0,1,1.9725-.0609l338.2515,181.2164A1.9592,1.9592,0,0,1,1106.5828,554.9923Zm8.0061,383.6638-11.5261-381.2816L766.8222,377.2355,442.1,578.381l11.5269,381.2817,336.2411,180.138Z"/><path class="cls-25" d="M1144.8713,573.1826a1.9769,1.9769,0,0,1,.3894,1.2938l-23.2744,407.5674a1.9712,1.9712,0,0,1-1.0826,1.6494L755.9584,1167.8469a1.9739,1.9739,0,0,1-1.9689-.11l-341.67-223.4119a1.9817,1.9817,0,0,1-.8914-1.7651l23.2752-407.5666a1.97,1.97,0,0,1,1.0825-1.6493L800.7308,349.1906a1.9726,1.9726,0,0,1,1.9686.11L1144.37,572.7123A1.9947,1.9947,0,0,1,1144.8713,573.1826Zm-26.7618,407.5,23.144-405.29L801.4921,353.2282,438.58,536.3554l-23.1444,405.29,339.7617,222.1637Z"/><path class="cls-26" d="M1183.7627,596.0113a1.9769,1.9769,0,0,1,.3725,1.4666L1121.68,1027.25a1.9723,1.9723,0,0,1-1.2219,1.5483L716.6216,1190.1244a1.9733,1.9733,0,0,1-1.9519-.2806L373.2871,921.3965a1.9837,1.9837,0,0,1-.733-1.8368L435.01,489.7875a1.9731,1.9731,0,0,1,1.2221-1.5491L840.0683,326.9129a1.97,1.97,0,0,1,1.9518.28l341.3821,268.4476A2.0013,2.0013,0,0,1,1183.7627,596.0113Zm-65.826,429.5433,62.128-427.5154L840.4749,331,438.7535,491.4823,376.6246,918.9982l339.59,267.0378Z"/><path class="cls-27" d="M1222.8621,623.8092a1.9763,1.9763,0,0,1,.3405,1.6354L1117.1657,1075.12a1.9748,1.9748,0,0,1-1.3526,1.4366L672.8768,1210.0829a1.975,1.975,0,0,1-1.92-.45l-336.9-316.1488a1.9689,1.9689,0,0,1-.5714-1.8933L439.5236,441.9179a1.9718,1.9718,0,0,1,1.3517-1.436l442.9381-133.528a1.9723,1.9723,0,0,1,1.9193.4505l336.8994,316.1462A2.0433,2.0433,0,0,1,1222.8621,623.8092ZM1113.584,1073.1056l105.5139-447.4569L883.8607,311.0629,443.1049,443.9315,337.5909,891.3871l335.2383,314.5871Z"/><path class="cls-28" d="M1261.7227,656.8965a1.9719,1.9719,0,0,1,.2928,1.8l-154.0689,466.7264a1.9716,1.9716,0,0,1-1.4713,1.314L624.6779,1227.1772a1.9741,1.9741,0,0,1-1.8734-.617L295.077,860.2757a1.98,1.98,0,0,1-.4032-1.9344L448.7432,391.6146a1.9656,1.9656,0,0,1,1.4708-1.3137l481.7971-100.44a1.9726,1.9726,0,0,1,1.8734.6162l327.7278,366.285C1261.651,656.8051,1261.6874,656.8492,1261.7227,656.8965Zm-157.1681,466.2066,153.3544-464.56L931.7013,293.9577,452.1348,393.9336,298.78,858.4948,624.9875,1223.08Z"/><path class="cls-29" d="M1299.8389,695.5639a1.9757,1.9757,0,0,1,.2323,1.9609L1093.516,1177.8662a1.97,1.97,0,0,1-1.5806,1.1815l-519.9122,61.7742a1.9809,1.9809,0,0,1-1.813-.7773l-313.3576-418.57-.0013-.0017a1.9752,1.9752,0,0,1-.2323-1.9609L463.1732,339.1713a1.9682,1.9682,0,0,1,1.58-1.1808l519.9122-61.7743a1.9766,1.9766,0,0,1,1.8131.7775l313.3592,418.5684ZM1090.34,1175.2616l205.6539-478.2461L984,280.27l-517.651,61.5059L260.6963,820.0217l311.9922,416.7458Z"/><path class="cls-30" d="M1043.365,267.4316c.0335.0449.0662.0933.0956.14l293.2811,472.6447a1.9711,1.9711,0,0,1,.0616,1.9763l-263.4391,489.9056a1.97,1.97,0,0,1-1.6763,1.04l-556.7213,17.26a1.98,1.98,0,0,1-1.7385-.9328L219.9476,776.8213a1.9736,1.9736,0,0,1-.0619-1.9759L483.3251,284.94a1.9731,1.9731,0,0,1,1.6764-1.04l556.7213-17.26A1.9781,1.9781,0,0,1,1043.365,267.4316Zm289.42,473.8957L1040.7077,270.6212,486.2622,287.8118,223.9027,775.7084l292.079,470.7079,554.4447-17.1914Z"/><path class="cls-31" d="M1104.5364,262.5688a1.9078,1.9078,0,0,1,.18.291l266.9926,528.0934a1.9779,1.9779,0,0,1-.11,1.9744l-324.6117,494.7679a1.9766,1.9766,0,0,1-1.763.8865l-591.6028-33.3266a1.9672,1.9672,0,0,1-1.65-1.08L184.9807,726.0832a1.9731,1.9731,0,0,1,.11-1.9736l324.612-494.7661a1.971,1.971,0,0,1,1.7617-.8876L1103.0667,261.78A1.9711,1.9711,0,0,1,1104.5364,262.5688Zm263.1349,529.1473L1101.7081,265.6575,512.3789,232.46l-323.3607,492.86L454.98,1251.3783l589.33,33.1988Z"/><path class="cls-32" d="M1169.8179,263.0888a1.9839,1.9839,0,0,1,.2512.4473l233.9887,584.42a1.9715,1.9715,0,0,1-.2827,1.9563l-389.8917,494.2468a1.9694,1.9694,0,0,1-1.8325.7318L388.1714,1254.72a1.9821,1.9821,0,0,1-1.55-1.2192l-233.99-584.4192a1.9724,1.9724,0,0,1,.2828-1.9562L542.8073,172.8775a1.9672,1.9672,0,0,1,1.8315-.7311l623.88,90.1711A1.9712,1.9712,0,0,1,1169.8179,263.0888Zm230.1513,585.2764L1166.8275,266.0609,545.2018,176.2165,156.72,668.6723l233.1424,582.3036,621.6263,89.8442Z"/><path class="cls-33" d="M1238.9512,269.6925a1.9684,1.9684,0,0,1,.3092.6111l193.79,641.0506a1.974,1.974,0,0,1-.4508,1.9251l-459.0265,487.645a1.979,1.979,0,0,1-1.8894.5672L318.8666,1248.085a1.9739,1.9739,0,0,1-1.4366-1.35L123.6383,605.6808a1.9784,1.9784,0,0,1,.4523-1.9242L583.1171,116.1129a1.9731,1.9731,0,0,1,1.8895-.5672l652.8149,153.407A1.9718,1.9718,0,0,1,1238.9512,269.6925Zm189.99,641.7121L1235.81,272.5356,585.212,119.6493,127.7485,605.6326l193.13,638.8693,650.5988,152.8859Z"/><path class="cls-34" d="M1311.6073,283.1a1.9622,1.9622,0,0,1,.35.7769l145.9385,697.3441a1.9747,1.9747,0,0,1-.618,1.8768L925.5961,1457.3347a1.9707,1.9707,0,0,1-1.9314.4016L246.0458,1234.63a1.9779,1.9779,0,0,1-1.314-1.4706L98.7939,535.8161a1.9713,1.9713,0,0,1,.6176-1.8773L631.0932,59.7029a1.97,1.97,0,0,1,1.9314-.4016l677.6193,223.106A1.9693,1.9693,0,0,1,1311.6073,283.1Zm142.19,697.8127L1308.3263,285.7992,632.8707,63.4066,102.892,536.1243l145.47,695.1111,675.4562,222.3955Z"/><path class="cls-35" d="M1387.362,304.0457a1.9674,1.9674,0,0,1,.3788.9475l90.0049,752.5626a1.9734,1.9734,0,0,1-.7788,1.8176L869.53,1512.6627a1.9709,1.9709,0,0,1-1.9584.2319L170.13,1213.6228a1.967,1.967,0,0,1-1.18-1.5794L78.9431,459.4813a1.974,1.974,0,0,1,.7793-1.8171L687.16,4.3738a1.972,1.972,0,0,1,1.9592-.2318L1386.56,303.4132A1.9747,1.9747,0,0,1,1387.362,304.0457Zm86.3289,752.8471-89.7355-750.3009L688.6085,8.22,82.9983,460.1446l89.7353,750.3,695.3476,298.3729Z"/></g></g></g></svg>